<svg xmlns="http://www.w3.org/2000/svg" xmlns:xlink="http://www.w3.org/1999/xlink" viewBox="0 0 222.355 144.955"><defs><style>.cls-1,.cls-10,.cls-11{fill:none;}.cls-2{clip-path:url(#clip-path);}.cls-3{fill:#dee3e8;}.cls-4{fill:#fff;}.cls-5{fill:#bec8d2;}.cls-6{fill:#ced6dd;}.cls-7{fill:#f2f4f6;}.cls-8{fill:#eff1f4;}.cls-9{fill:#e11e19;}.cls-10,.cls-11{stroke:#bec8d2;stroke-miterlimit:10;}.cls-10{stroke-width:0.652px;}.cls-11{stroke-linecap:round;stroke-width:0.701px;}</style><clipPath id="clip-path" transform="translate(-13.823 -4)"><rect class="cls-1" width="250" height="150"/></clipPath></defs><g id="Layer_2" data-name="Layer 2"><g id="Layer_1-2" data-name="Layer 1"><g class="cls-2"><rect class="cls-3" x="142.705" y="15.415" width="93.124" height="123.19" transform="translate(-13.382 -5.073) rotate(0.325)"/><path class="cls-4" d="M225.567,135.552l-80.13-.455.632-111.157a5.374,5.374,0,0,1,5.405-5.344l76.824.436a5.375,5.375,0,0,1,5.344,5.406l-.589,103.712A7.444,7.444,0,0,1,225.567,135.552Z" transform="translate(-13.823 -4)"/><path class="cls-5" d="M167.943,22.383s0-7.22,12.672-7.154C188.737,15.271,195.853,4,195.853,4l.937,1.708s-5.345,9.577,6.387,9.637c11.766.061,11.694,7.28,11.694,7.28Z" transform="translate(-13.823 -4)"/><path class="cls-6" d="M166.74,21.122s0-7.22,12.672-7.155c8.122.042,3.661-9.908,3.661-9.908l12.634.065s-5.466,9.9,6.266,9.96c11.767.06,11.695,7.28,11.695,7.28Z" transform="translate(-13.823 -4)"/><circle class="cls-4" cx="175.729" cy="4.849" r="2.41"/><path class="cls-7" d="M229.107,31.851H213.993v1.161h15.114V31.851Zm-19.433,0H194.56v1.161h15.114V31.851Zm-19.432,0H175.128v1.161h15.114V31.851Zm-19.433,0H155.7v1.161h15.114V31.851Zm-19.432,0H149.69V47.6h1.161V33.012h.526V31.851Zm-.526,20.068H149.69V53.26h16.1V52.1H150.851v-.18Zm34.368.18H170.105V53.26h15.114V52.1Zm19.433,0H189.537V53.26h15.115V52.1Zm19.432,0H208.97V53.26h15.114V52.1Zm6.184-14.41h-1.161V52.1h-.7V53.26h1.865V37.689Zm0-4.677h-1.161v.358h1.161v-.358Z" transform="translate(-13.823 -4)"/><path class="cls-8" d="M89.341,139.936l1.763-.384c-1.535-12.851-9.271-25.539-23.381-28.1l-1.12.673c-2.063-1.628-4.331-6.394-4.329-9.783,5.558-4.728,10.857-11.769,12.137-17.832,11.557-3.729,10.668-16.938,4.48-16.556,13.331-30.195-7.775-52.634-19.078-50.541l3.677,2.109c-9.069-2.761-16.528-.738-21.583,1.095a8.28,8.28,0,0,1,5.01,1.245c-8.583-1.827-12.514,3.6-24.534,8.285a22.927,22.927,0,0,0,5.531,1.435C25.276,36.728,15,37.825,14.1,35.217c-.306.06,4.193,5.784,8.738,4.909-2.781,5.883-2.317,13.734-1.1,23.479.208,2.574.2,3.247,1.116,4.36-8.647,3.822.307,16.108,5.451,16.526.86,5.884,7.869,13.409,14.3,18.254-.186,4.036-1.851,7.588-4.229,9.546l-1.309-.8c-10.551,0-22.652,15.5-23.23,28.1l1.206.3c-.37,2.289-.6,6.211-.845,8.993,0,.172,76.017,0,76.017,0S89.685,139.936,89.341,139.936Z" transform="translate(-13.823 -4)"/><path class="cls-5" d="M166.263,84.436h-.011l-11.522-.065a1.924,1.924,0,0,1-1.909-1.932l.061-10.753a1.915,1.915,0,0,1,.57-1.356,1.78,1.78,0,0,1,1.361-.554l11.522.065a1.922,1.922,0,0,1,1.91,1.932l-.062,10.753A1.924,1.924,0,0,1,166.263,84.436Zm-.007-.768h.006a1.154,1.154,0,0,0,1.153-1.146l.061-10.753a1.152,1.152,0,0,0-1.146-1.159l-11.521-.066H154.8a1.152,1.152,0,0,0-1.152,1.146l-.061,10.753a1.153,1.153,0,0,0,1.146,1.159Z" transform="translate(-13.823 -4)"/><path class="cls-5" d="M166.13,118h-.011l-11.522-.066a1.921,1.921,0,0,1-1.909-1.932l.061-10.753a1.922,1.922,0,0,1,1.92-1.909h.011l11.522.065a1.921,1.921,0,0,1,1.91,1.931l-.062,10.754a1.92,1.92,0,0,1-1.92,1.91Zm-.007-.769a1.108,1.108,0,0,0,.817-.333,1.144,1.144,0,0,0,.342-.812l.061-10.754a1.152,1.152,0,0,0-1.145-1.158l-11.522-.066h-.007a1.151,1.151,0,0,0-1.152,1.146l-.061,10.753a1.153,1.153,0,0,0,1.146,1.159Z" transform="translate(-13.823 -4)"/><path class="cls-5" d="M161.209,83.354a9.255,9.255,0,0,1-3.438-2.338c-1.356-1.256-2.253-2.3-2.573-2.576l1.911-1.06a22.826,22.826,0,0,0,1.918,2.28,8.737,8.737,0,0,0,1.692,1.35,1.019,1.019,0,0,0,1.407-.433c.763-1.53,1.8-4.4,2.452-6.111,1.954-5.143,3.378-8.614,5.321-9.9l.79,2.161c-1.329.874-3,5.3-4.223,8.523-2.08,5.5-3.164,8.1-5.238,8.1Z" transform="translate(-13.823 -4)"/><path class="cls-5" d="M160.311,117.233a9.233,9.233,0,0,1-3.438-2.337c-1.356-1.256-2.253-2.3-2.573-2.576l1.91-1.06a23.251,23.251,0,0,0,1.918,2.28,8.8,8.8,0,0,0,1.692,1.35,1.02,1.02,0,0,0,1.408-.433c.763-1.53,1.8-4.4,2.452-6.111,1.953-5.143,3.378-8.615,5.321-9.9l.79,2.162c-1.329.874-3,4.168-4.223,7.4-2.08,5.5-3.164,9.23-5.238,9.23Z" transform="translate(-13.823 -4)"/><path class="cls-5" d="M172.97,81.005a.413.413,0,0,1,0-.826l43.928-.116h0a.413.413,0,0,1,0,.826l-43.928.116Z" transform="translate(-13.823 -4)"/><path class="cls-5" d="M173.008,105.787a.413.413,0,1,1,0-.825l43.929-.116h0a.413.413,0,0,1,0,.826l-43.929.115Z" transform="translate(-13.823 -4)"/><path class="cls-5" d="M173.555,109.82a.413.413,0,0,1,0-.826l43.929-.116c.241.048.413.184.414.412a.412.412,0,0,1-.412.414l-43.929.116Z" transform="translate(-13.823 -4)"/><path class="cls-5" d="M173.308,113.621a.413.413,0,0,1,0-.826l43.929-.116h0a.413.413,0,0,1,0,.826l-43.929.116Z" transform="translate(-13.823 -4)"/><path class="cls-5" d="M172.669,73.171a.413.413,0,0,1,0-.826l43.929-.116a.4.4,0,0,1,.414.412.412.412,0,0,1-.412.414l-43.929.116Z" transform="translate(-13.823 -4)"/><path class="cls-5" d="M173.216,77.2a.413.413,0,0,1,0-.826l43.928-.115h0a.413.413,0,1,1,0,.825l-43.928.116Z" transform="translate(-13.823 -4)"/><path class="cls-9" d="M224.321,47.141a1.087,1.087,0,0,1-.081.479,1.177,1.177,0,0,1-.257.379,1.222,1.222,0,0,1-.4.256,1.518,1.518,0,0,1-.509.106,1.357,1.357,0,0,1-.478-.061,1.158,1.158,0,0,1-.387-.207,1.02,1.02,0,0,1-.264-.323.95.95,0,0,1-.108-.41,1.164,1.164,0,0,1,.078-.487,1.036,1.036,0,0,1,.257-.382,1.285,1.285,0,0,1,.4-.253,1.558,1.558,0,0,1,.516-.106,1.36,1.36,0,0,1,.475.061,1.168,1.168,0,0,1,.383.207,1.057,1.057,0,0,1,.264.323A.97.97,0,0,1,224.321,47.141Zm2.951-6.761a2.665,2.665,0,0,1-.076.759,2.6,2.6,0,0,1-.311.726,3.678,3.678,0,0,1-.575.706,6.347,6.347,0,0,1-.862.694,4.33,4.33,0,0,0-.559.435,2.222,2.222,0,0,0-.366.445,2.1,2.1,0,0,0-.222.495,3.86,3.86,0,0,0-.127.589l-1.753.074c.046-.295.1-.569.161-.824a3.715,3.715,0,0,1,.251-.716,3.108,3.108,0,0,1,.4-.628,3.2,3.2,0,0,1,.6-.558q.354-.271.61-.495a3.64,3.64,0,0,0,.422-.423,1.473,1.473,0,0,0,.24-.395.98.98,0,0,0,.067-.4.89.89,0,0,0-.089-.361.863.863,0,0,0-.232-.287,1.05,1.05,0,0,0-.372-.188,1.573,1.573,0,0,0-.5-.052,3.636,3.636,0,0,0-1.079.21,4.11,4.11,0,0,0-.952.482l.306-1.883a4.9,4.9,0,0,1,.461-.2,5.581,5.581,0,0,1,.543-.171q.288-.077.592-.127a5.068,5.068,0,0,1,.609-.062,3.634,3.634,0,0,1,1.292.145,2.348,2.348,0,0,1,.864.484,1.9,1.9,0,0,1,.493.708A2.506,2.506,0,0,1,227.272,40.38Z" transform="translate(-13.823 -4)"/><path class="cls-7" d="M169.094,50.058h-.011l-11.521-.066a1.923,1.923,0,0,1-1.91-1.931l.061-10.754a1.925,1.925,0,0,1,1.932-1.909l11.521.065a1.924,1.924,0,0,1,1.91,1.932l-.061,10.753A1.924,1.924,0,0,1,169.094,50.058Zm-.006-.768h.006a1.155,1.155,0,0,0,1.153-1.146l.061-10.754a1.155,1.155,0,0,0-1.146-1.159l-11.522-.065h-.006a1.154,1.154,0,0,0-1.153,1.145l-.061,10.754a1.155,1.155,0,0,0,1.146,1.159Z" transform="translate(-13.823 -4)"/><path class="cls-7" d="M175.347,44.185a.413.413,0,1,1,0-.826l43.929-.116h0a.413.413,0,0,1,0,.826l-43.928.116Z" transform="translate(-13.823 -4)"/><path class="cls-7" d="M175.1,47.987a.413.413,0,0,1,0-.826l43.928-.117h0a.414.414,0,0,1,0,.827l-43.929.116Z" transform="translate(-13.823 -4)"/><path class="cls-7" d="M174.42,40.68a.413.413,0,0,1,0-.826l43.929-.116h0a.413.413,0,1,1,0,.826l-43.929.116Z" transform="translate(-13.823 -4)"/><path class="cls-9" d="M90.005,50.8l-.736-.415c.561-.994,1.149-1.976,1.749-2.918l.713.455C91.139,48.85,90.558,49.818,90.005,50.8Zm2.963-4.74-.7-.481c.653-.941,1.333-1.863,2.023-2.739l.664.523C94.281,44.224,93.61,45.132,92.968,46.059Zm3.411-4.423-.641-.551c.743-.866,1.519-1.71,2.305-2.509l.6.592C97.873,39.954,97.11,40.784,96.379,41.636Zm3.868-4.022-.574-.621c.836-.773,1.706-1.522,2.585-2.223l.527.661C101.921,36.119,101.068,36.854,100.247,37.614Zm4.316-3.529-.492-.687c.928-.667,1.886-1.3,2.847-1.879l.437.723C106.413,32.811,105.474,33.431,104.563,34.085Zm4.731-2.944-.4-.747c1-.534,2.039-1.032,3.077-1.479l.334.775C111.292,30.128,110.278,30.616,109.294,31.141Zm5.084-2.274-.29-.794c1.067-.389,2.162-.737,3.255-1.033l.22.816C116.494,28.145,115.423,28.485,114.378,28.867Zm25.061-.106a30.354,30.354,0,0,0-3.163-1.048l.222-.816a31.185,31.185,0,0,1,3.251,1.079Zm-19.708-1.425-.174-.827c1.116-.233,2.251-.418,3.372-.55l.1.839C121.931,26.927,120.822,27.108,119.731,27.336Zm14.38-.133c-1.076-.215-2.187-.379-3.3-.489l.083-.841c1.141.112,2.28.281,3.383.5Zm-8.864-.6-.048-.844c.717-.041,1.434-.05,2.132-.06q.646,0,1.286.023l-.03.844c-.432-.015-.874-.021-1.3-.022Q126.273,26.544,125.247,26.6Z" transform="translate(-13.823 -4)"/><polygon class="cls-9" points="123.378 27.502 131.038 27.141 126.896 20.688 123.378 27.502"/><rect class="cls-8" x="98.885" y="38.655" width="71.898" height="16.193" rx="2.855" transform="translate(-21.571 36.729) rotate(-16.705)"/><path class="cls-6" d="M166.717,42.946l-.132-.529a2.611,2.611,0,0,0-2.611-1.731l-.075.083a1.292,1.292,0,0,1-.6-.7,3.169,3.169,0,0,0,.557-1.762c.856-.591.458-1.653-.041-1.469.351-2.807-1.934-4.128-2.81-3.678l.354.082a2.818,2.818,0,0,0-1.745.622.714.714,0,0,1,.442-.022c-.749.062-.938.6-1.809,1.285a1.989,1.989,0,0,0,.489-.019c-.09.487-.906.831-1.044.639a.889.889,0,0,0,.838.188,3.8,3.8,0,0,0,.487,1.954c.081.206.1.261.2.33-.615.527.422,1.314.855,1.222a3.112,3.112,0,0,0,1.622,1.146,1.133,1.133,0,0,1-.112.887l-.127-.033c-.866.26-1.477,1.83-1.214,2.878l.106-.005c.026.2.062.41.11.645.958-.217,4.98-1.413,5.9-1.764C166.276,42.972,166.8,43.127,166.717,42.946Z" transform="translate(-13.823 -4)"/><line class="cls-6" x1="155.093" y1="36.942" x2="155.353" y2="37.806"/><rect class="cls-10" x="103.827" y="48.333" width="12.382" height="11.73" rx="1.303" transform="translate(-24.641 29.224) rotate(-16.379)"/><line class="cls-11" x1="106.187" y1="48.125" x2="141.855" y2="37.319"/><line class="cls-11" x1="106.914" y1="51.274" x2="142.582" y2="40.468"/><line class="cls-11" x1="104.579" y1="45.503" x2="140.247" y2="34.696"/><path class="cls-6" d="M227.094,81.617l.03-.544a2.612,2.612,0,0,0-1.99-2.419l-.1.057a1.3,1.3,0,0,1-.366-.841,3.16,3.16,0,0,0,1.049-1.522c.992-.314.922-1.446.391-1.416,1.157-2.581-.641-4.514-1.61-4.34l.314.183a2.82,2.82,0,0,0-1.85.083.721.721,0,0,1,.429.109c-.735-.16-1.074.3-2.106.7a1.934,1.934,0,0,0,.473.125c-.229.44-1.11.529-1.186.305-.026,0,.357.5.746.425a3.8,3.8,0,0,0-.1,2.011c.016.221.015.278.093.374-.743.324.019,1.381.459,1.419a3.124,3.124,0,0,0,1.216,1.571,1.135,1.135,0,0,1-.366.816l-.112-.07c-.9,0-1.949,1.318-2,2.4l.1.027c-.033.2-.061.41-.084.649.98.073,5.176.107,6.159.04C226.665,81.513,227.122,81.815,227.094,81.617Z" transform="translate(-13.823 -4)"/><line class="cls-6" x1="215.961" y1="76.345" x2="215.956" y2="77.247"/><path class="cls-6" d="M227.094,113.683l.03-.545a2.612,2.612,0,0,0-1.99-2.419l-.1.057a1.29,1.29,0,0,1-.366-.84,3.16,3.16,0,0,0,1.049-1.522c.992-.314.922-1.446.391-1.416,1.157-2.581-.641-4.514-1.61-4.34l.314.183a2.814,2.814,0,0,0-1.85.083.706.706,0,0,1,.429.109c-.735-.16-1.074.3-2.106.7a1.961,1.961,0,0,0,.473.126c-.229.44-1.11.529-1.186.305-.026,0,.357.5.746.425a3.793,3.793,0,0,0-.1,2.011c.016.22.015.278.093.374-.743.323.019,1.38.459,1.419a3.118,3.118,0,0,0,1.216,1.57,1.132,1.132,0,0,1-.366.816l-.112-.069c-.9,0-1.949,1.318-2,2.4l.1.027c-.033.195-.061.41-.084.648.98.073,5.176.107,6.159.041C226.665,113.579,227.122,113.88,227.094,113.683Z" transform="translate(-13.823 -4)"/><line class="cls-6" x1="215.961" y1="108.411" x2="215.956" y2="109.312"/></g></g></g></svg>