<svg id="Layer_2" data-name="Layer 2" xmlns="http://www.w3.org/2000/svg" xmlns:xlink="http://www.w3.org/1999/xlink" viewBox="0 0 400 400"><defs><style>.cls-1{fill:none;}.cls-2{clip-path:url(#clip-path);}.cls-3{fill:#f2f4f6;}.cls-4{fill:#bec8d2;}.cls-5{fill:#dee3e8;}.cls-6{fill:#fff;}.cls-7{fill:#eff1f4;}.cls-8{fill:#cacfd2;}.cls-9{fill:#f08e8c;}</style><clipPath id="clip-path"><rect class="cls-1" width="400" height="400"/></clipPath></defs><g class="cls-2"><path class="cls-3" d="M71.252,100.875H283.381a0,0,0,0,1,0,0v229.89a30.65,30.65,0,0,1-30.65,30.65H71.252a0,0,0,0,1,0,0V100.875A0,0,0,0,1,71.252,100.875Z"/><path class="cls-4" d="M158.274,75.194s-.058-16.688,29.221-16.658c18.774.019,35.115-26.1,35.115-26.1l2.183,3.938s-12.266,22.188,14.853,22.215c27.2.028,27.1,16.717,27.1,16.717Z"/><rect class="cls-5" x="100.458" y="58.883" width="215.25" height="284.746" transform="translate(0.311 -0.321) rotate(0.088)"/><path class="cls-6" d="M292.547,336.224l-185.217-.286L107.727,79A12.424,12.424,0,0,1,120.17,66.6l177.577.274a12.425,12.425,0,0,1,12.4,12.443l-.371,239.728A17.206,17.206,0,0,1,292.547,336.224Z"/><path class="cls-3" d="M155.48,72.29S155.423,55.6,184.7,55.631c18.774.02,8.367-22.937,8.367-22.937l29.205.03s-12.54,22.933,14.578,22.961c27.2.028,27.1,16.716,27.1,16.716Z"/><circle class="cls-6" cx="209.43" cy="43.556" r="5.572"/><path class="cls-3" d="M116.077,149.735H289.991a0,0,0,0,1,0,0V193.9a9.742,9.742,0,0,1-9.742,9.742H116.077a0,0,0,0,1,0,0V149.735A0,0,0,0,1,116.077,149.735Z"/><path class="cls-7" d="M164.451,134.151h-.007l-27.3-.042a4.557,4.557,0,0,1-4.544-4.557l.04-25.481a4.52,4.52,0,0,1,1.338-3.215,4.652,4.652,0,0,1,3.219-1.327l27.3.042a4.548,4.548,0,0,1,4.543,4.557L169,129.608a4.551,4.551,0,0,1-4.55,4.543Zm-27.261-32.8a2.728,2.728,0,0,0-2.73,2.725l-.039,25.48a2.733,2.733,0,0,0,2.726,2.735l27.3.042h0a2.73,2.73,0,0,0,2.729-2.726l.04-25.48a2.728,2.728,0,0,0-2.726-2.734l-27.3-.042Z"/><path class="cls-7" d="M177.886,110.628a.979.979,0,0,1-.007-1.958l104.083-.7h.006a.979.979,0,0,1,.007,1.958l-104.082.7Z"/><path class="cls-7" d="M177.886,120.177a.979.979,0,0,1-.007-1.958l104.083-.7h.006a.979.979,0,0,1,.007,1.958l-104.082.705Z"/><path class="cls-7" d="M177.886,129.186a.979.979,0,0,1-.007-1.958l104.083-.7h.006a.979.979,0,0,1,.007,1.958l-104.082.705Z"/><path class="cls-6" d="M164.366,188.751h-.007l-27.3-.043a4.549,4.549,0,0,1-4.543-4.557l.039-25.48a4.556,4.556,0,0,1,4.551-4.542h.007l27.3.042a4.555,4.555,0,0,1,4.543,4.556l-.04,25.481a4.551,4.551,0,0,1-4.55,4.543Zm0-1.82h0a2.733,2.733,0,0,0,2.73-2.726l.039-25.48a2.732,2.732,0,0,0-2.725-2.734l-27.3-.043h0a2.733,2.733,0,0,0-2.73,2.726l-.039,25.48a2.73,2.73,0,0,0,2.725,2.735Z"/><path class="cls-6" d="M179.449,166.687a.979.979,0,0,1-.006-1.958l104.082-.705h.006a.979.979,0,0,1,.007,1.958l-104.082.705Z"/><path class="cls-6" d="M179.449,176.236a.979.979,0,0,1-.006-1.958l104.082-.7h.006a.979.979,0,0,1,.007,1.958l-104.082.7Z"/><path class="cls-6" d="M179.449,185.245a.979.979,0,0,1-.006-1.958l104.082-.705h.007a.979.979,0,0,1,.007,1.958l-104.083.705Z"/><path class="cls-7" d="M164.281,244.26h-.007l-27.3-.042a4.549,4.549,0,0,1-4.543-4.556l.04-25.481a4.549,4.549,0,0,1,4.55-4.542h.007l27.3.042a4.549,4.549,0,0,1,4.543,4.557l-.039,25.48A4.556,4.556,0,0,1,164.281,244.26Zm-27.261-32.8a2.731,2.731,0,0,0-2.73,2.726l-.039,25.48a2.728,2.728,0,0,0,2.725,2.734l27.3.043h0a2.732,2.732,0,0,0,2.729-2.726l.04-25.48a2.731,2.731,0,0,0-2.726-2.735l-27.3-.042Z"/><path class="cls-7" d="M180.473,220.485a.979.979,0,0,1-.007-1.958l104.083-.7h.006a.979.979,0,0,1,.007,1.958l-104.082.705Z"/><path class="cls-7" d="M180.473,230.033a.979.979,0,0,1-.007-1.958l104.083-.7h.006a.979.979,0,0,1,.007,1.958l-104.082.7Z"/><path class="cls-7" d="M180.473,239.042a.979.979,0,0,1-.007-1.958l104.083-.7h.006a.979.979,0,0,1,.007,1.958l-104.082.7Z"/><path class="cls-7" d="M166.47,302.735h-.007l-27.3-.042a4.549,4.549,0,0,1-4.543-4.557l.039-25.48a4.556,4.556,0,0,1,4.55-4.543h.008l27.3.043a4.548,4.548,0,0,1,4.543,4.556l-.039,25.481A4.555,4.555,0,0,1,166.47,302.735Zm-27.261-32.8a2.734,2.734,0,0,0-2.73,2.726l-.039,25.48a2.73,2.73,0,0,0,2.726,2.734l27.3.042h0a2.732,2.732,0,0,0,2.73-2.725l.039-25.48a2.728,2.728,0,0,0-2.726-2.734l-27.3-.043Z"/><path class="cls-7" d="M183.642,281.249a.979.979,0,0,1-.007-1.958l104.082-.7h.007a.979.979,0,0,1,.007,1.958l-104.082.705Z"/><path class="cls-7" d="M183.642,290.8a.98.98,0,0,1-.007-1.959l104.083-.7h.006a.979.979,0,0,1,.007,1.958l-104.082.7Z"/><path class="cls-7" d="M183.642,299.807a.979.979,0,0,1-.007-1.958l104.082-.7h.007a.979.979,0,0,1,.007,1.958l-104.082.705Z"/><path class="cls-8" d="M280.1,198.756h-6.936v-1.981H280.1Zm-18.824,0H254.34v-1.981h6.936Zm-18.824,0h-6.935v-1.981h6.935Zm-18.824,0h-6.935v-1.981h6.935Zm-18.824,0h-6.935v-1.981H204.8Zm-18.824,0h-6.935v-1.981h6.935Zm-18.824,0h-6.935v-1.981h6.935Zm-18.824,0H141.4v-1.981h6.935Zm-18.824,0H122.62v-2.028l6.888.047ZM124.6,184.839H122.62V177.9H124.6Zm175.313-5.5h-1.981V172.4h1.981ZM124.6,166.015H122.62V159.08H124.6Zm175.313-5.5h-1.981V153.58h1.981ZM124.6,147.191H122.62v-4.259h4.657v1.981H124.6Zm172.091-2.278h-6.936v-1.981h6.936Zm-18.824,0h-6.935v-1.981h6.935Zm-18.824,0h-6.935v-1.981h6.935Zm-18.824,0h-6.935v-1.981h6.935Zm-18.824,0h-6.935v-1.981H221.4Zm-18.824,0h-6.935v-1.981h6.935Zm-18.824,0h-6.935v-1.981h6.935Zm-18.824,0h-6.935v-1.981h6.935Zm-18.823,0h-6.936v-1.981H146.1Z"/><path class="cls-9" d="M300.57,185.771a.742.742,0,0,1-.156-1.007l2.431-4.9c.2-.412.606-.629.9-.485a.744.744,0,0,1,.156,1.007l-2.432,4.9C301.262,185.7,300.86,185.915,300.57,185.771Z"/><path class="cls-9" d="M306.177,191.885a.572.572,0,0,1,.58-.563l3.639.162a.589.589,0,0,1-.052,1.174l-3.639-.162A.571.571,0,0,1,306.177,191.885Z"/><path class="cls-9" d="M284.822,203.223a.572.572,0,0,1-.034-.807l2.542-2.609a.589.589,0,0,1,.842.82l-2.542,2.609A.572.572,0,0,1,284.822,203.223Z"/><path class="cls-9" d="M292.625,187.9a.626.626,0,0,1-.434-.254l-4.621-6.236a.74.74,0,0,1,.108-.984.616.616,0,0,1,.912.1l4.621,6.236a.739.739,0,0,1-.108.984A.624.624,0,0,1,292.625,187.9Z"/><path class="cls-9" d="M287.6,192.194c-.037.323-.437.542-.894.489l-5.431-.621c-.457-.052-.8-.356-.761-.678s.437-.541.894-.489l5.432.621C287.3,191.568,287.635,191.872,287.6,192.194Z"/><path class="cls-9" d="M297.425,199.838a5.5,5.5,0,1,1,5.5-5.5A5.506,5.506,0,0,1,297.425,199.838Zm0-9a3.5,3.5,0,1,0,3.5,3.5A3.5,3.5,0,0,0,297.425,190.838Z"/><path class="cls-4" d="M312.2,216.01l12.2-1.218L296.208,192.44l3.664,35.79,7.594-9.628,11.688,21.334a2.7,2.7,0,0,0,4.033.824,2.844,2.844,0,0,0,.6-3.6L312.2,216.01"/><path class="cls-9" d="M122.307,133.295l1.891-.835-.835-1.892.79-.349.835,1.892,1.892-.835.349.79-1.892.835.837,1.9-.79.349-.837-1.9-1.891.835Z"/><path class="cls-9" d="M115.672,144.637a1.853,1.853,0,1,1-.947,2.443A1.854,1.854,0,0,1,115.672,144.637Zm1.247,2.825a1.235,1.235,0,1,0-1.629-.631A1.237,1.237,0,0,0,116.919,147.462Z"/></g></svg>