<?xml version="1.0" encoding="UTF-8"?><svg id="graficas" xmlns="http://www.w3.org/2000/svg" viewBox="0 0 250 180"><g opacity=".64"><line x1="126.04" y1="59.59" x2="126.04" y2="59.58" fill="#fff" stroke="#869cb3" stroke-miterlimit="10" stroke-width=".5"/><path d="m101.02,51.06c6.19-1.48,12.39-9.13,12.39-18.23,0-2.27,4.49-2.58,5.67,1.62,1.33,4.74-.81,8.91-2.43,12.96h8.1" fill="#fff" stroke="#869cb3" stroke-miterlimit="10" stroke-width=".5"/><path d="m124.75,47.41c1.79,0,3.24,1.45,3.24,3.24h0c0,1.79-1.45,3.24-3.24,3.24h-.81" fill="#fff" stroke="#869cb3" stroke-miterlimit="10" stroke-width=".5"/><path d="m123.94,53.88c1.79,0,3.24,1.45,3.24,3.24h0c0,1.79-1.45,3.24-3.24,3.24h-.81" fill="#fff" stroke="#869cb3" stroke-miterlimit="10" stroke-width=".5"/><path d="m122.32,60.36c1.79,0,3.24,1.45,3.24,3.24h0c0,1.79-1.45,3.24-3.24,3.24h-.81" fill="#fff" stroke="#869cb3" stroke-miterlimit="10" stroke-width=".5"/><path d="m123.94,53.88c1.79,0,3.24,1.45,3.24,3.24h0c0,1.79-1.45,3.24-3.24,3.24h-1.62" fill="#fff" stroke="#869cb3" stroke-miterlimit="10" stroke-width=".5"/><path d="m121.51,72.51h-11.33c-3.25,0-9.16-2.97-9.16-2.97" fill="#fff" stroke="#869cb3" stroke-miterlimit="10" stroke-width=".5"/><path d="m120.7,66.84h.4c1.57,0,2.83,1.27,2.83,2.83h0c0,1.57-1.27,2.83-2.83,2.83h-1.21" fill="#fff" stroke="#869cb3" stroke-miterlimit="10" stroke-width=".5"/><circle cx="97.22" cy="69.27" r=".81" fill="#fff" stroke="#869cb3" stroke-miterlimit="10" stroke-width=".5"/><rect x="88.09" y="47.37" width="12.93" height="25.86" rx="1" ry="1" fill="#fff" stroke="#869cb3" stroke-miterlimit="10" stroke-width=".5"/></g><g opacity=".61"><line x1="50.02" y1="91.65" x2="50.02" y2="91.65" fill="#fff" stroke="#869cb3" stroke-miterlimit="10" stroke-width=".5"/><path d="m75.03,100.17c-6.19,1.48-12.39,9.13-12.39,18.23,0,2.27-4.49,2.58-5.67-1.62-1.33-4.74.81-8.91,2.43-12.96h-8.1" fill="#fff" stroke="#869cb3" stroke-miterlimit="10" stroke-width=".5"/><path d="m51.3,103.83c-1.79,0-3.24-1.45-3.24-3.24h0c0-1.79,1.45-3.24,3.24-3.24h.81" fill="#fff" stroke="#869cb3" stroke-miterlimit="10" stroke-width=".5"/><path d="m52.11,97.35c-1.79,0-3.24-1.45-3.24-3.24h0c0-1.79,1.45-3.24,3.24-3.24h.81" fill="#fff" stroke="#869cb3" stroke-miterlimit="10" stroke-width=".5"/><path d="m53.73,90.88c-1.79,0-3.24-1.45-3.24-3.24h0c0-1.79,1.45-3.24,3.24-3.24h.81" fill="#fff" stroke="#869cb3" stroke-miterlimit="10" stroke-width=".5"/><path d="m52.11,97.35c-1.79,0-3.24-1.45-3.24-3.24h0c0-1.79,1.45-3.24,3.24-3.24h1.62" fill="#fff" stroke="#869cb3" stroke-miterlimit="10" stroke-width=".5"/><path d="m54.54,78.73h11.33c3.25,0,9.16,2.97,9.16,2.97" fill="#fff" stroke="#869cb3" stroke-miterlimit="10" stroke-width=".5"/><path d="m55.35,84.4h-.4c-1.57,0-2.83-1.27-2.83-2.83h0c0-1.57,1.27-2.83,2.83-2.83h1.21" fill="#fff" stroke="#869cb3" stroke-miterlimit="10" stroke-width=".5"/><circle cx="78.83" cy="81.97" r=".81" fill="#fff" stroke="#869cb3" stroke-miterlimit="10" stroke-width=".5"/><rect x="75.03" y="78.01" width="12.93" height="25.86" rx="1" ry="1" transform="translate(162.99 181.88) rotate(180)" fill="#fff" stroke="#869cb3" stroke-miterlimit="10" stroke-width=".5"/></g><path d="m108.15,149.5l1.05.26c.06-.05.12-.1.19-.15l-1.35-.34c.02.08.07.15.11.22Z" fill="#869cb3"/><path d="m109.51,149.84l.28.07s-.02-.03-.03-.04c.09-.03.19-.06.28-.09l-.3-.08c-.08,0-.16.02-.23.03,0,.03,0,.07,0,.1Z" fill="#869cb3"/><path d="m122.59,152.9l-1.62-.4s0,.03,0,.04c-.07-.01-.13-.04-.18-.09l-.88-.22c-.01.06-.01.11.02.17,0,.01.01.03.02.04l2.49.62c.03-.06.08-.11.13-.16Z" fill="#869cb3"/><path d="m110.47,150.08l.6.15s-.05-.07-.07-.1c.07.02.14.04.2.06,0,.02,0,.04-.01.07l.17.04s-.02-.06.01-.08c.06-.06.16.04.09.1,0,0,0,0-.01,0l.09.02s.01-.03.02-.04c0,.02.02.04.03.05l1.36.34c-.08-.06-.16-.12-.26-.16.02-.03.04-.06.07-.08l-2.1-.52s0,0,0,0c-.07.04-.16.06-.18.14Z" fill="#869cb3"/><polygon points="107.84 150.1 107.84 150.1 107.85 150.1 107.84 150.1" fill="#869cb3"/><path d="m111.56,151.4s.1.03.13.04c0-.09-.01-.18-.02-.28-.05-.02-.11-.04-.16-.06.02.1.03.2.05.3Z" fill="#869cb3"/><path d="m124.02,153.26c-.06.02-.13.02-.18-.02,0,0-.02-.02-.02-.03l-.43-.11s-.02.03-.02.05c-.03.04-.02.09,0,.13l.88.22c-.03-.07-.06-.14-.09-.22l-.12-.03Zm-.2.13c-.07,0-.09-.02-.06-.09.07,0,.09.02.06.09Z" fill="#869cb3"/><path d="m109.36,152.03h.05s0,0,0,0c-.02,0-.03,0-.05,0Z" fill="#869cb3"/><path d="m122.65,153.11l.23.06s.02-.08.02-.11c-.05-.03-.09-.07-.14-.11l-.09-.02s0,.08,0,.13c-.01.02-.03.04-.04.06Z" fill="#869cb3"/><path d="m123,153.88l-.09-.02s.03.04.05.06c.01-.01.03-.02.04-.03Z" fill="#869cb3"/><path d="m108.68,151.86l.19.05s.06-.03.1-.05c-.09-.08-.19-.04-.29,0Z" fill="#869cb3"/><path d="m116.72,153.65c-.08-.04-.16-.11-.26-.1-.13.05-.26.1-.4.15l.32.08s.03,0,.05.01l.1.03s-.03-.07-.05-.1c.08-.02.16-.04.24-.06Z" fill="#869cb3"/><path d="m124.92,153.61c-.05-.05-.1-.11-.15-.17h-.05c-.09.02-.19.02-.28.02,0,.03.01.06.01.09l.72.18c-.03-.11-.14-.18-.25-.13Z" fill="#869cb3"/><path d="m109.11,151.97s.03-.08.05-.11c-.04.03-.09.06-.13.09l.08.02Z" fill="#869cb3"/><path d="m132.95,148.59s-.07,0-.1,0l-.23.93s.03-.07.05-.1c.07-.02.13-.04.19-.07l.24-.97s-.05,0-.07.01c-.03.06-.05.13-.08.19Z" fill="#869cb3"/><path d="m122.57,154.65c-.05.07-.03.11.06.1.04-.07.02-.11-.06-.1Z" fill="#869cb3"/><path d="m110.17,150l.25.06c-.04-.08-.09-.16-.15-.23h-.05s-.03.11-.05.17Z" fill="#869cb3"/><path d="m100.65,149.53c.02.09.04.19.06.28.05.02.1.04.15.06-.01-.04-.02-.07-.03-.11.03-.01.08-.04.11-.06-.09-.06-.19-.12-.29-.17Z" fill="#869cb3"/><path d="m122.02,153.81c0-.06,0-.12,0-.18l-2.43-.61c-.06.08-.12.17-.14.28.08-.02.16-.04.24-.06-.05.05-.11.1-.16.15.07.09.13.18.19.28-.08.04-.15.08-.23.12.04.07.08.14.12.22.09-.02.17-.06.26-.04.1.05.16.16.24.24.04-.04.08-.08.11-.11,0,.07,0,.14,0,.22.02,0,.07-.02.09-.03.06.05.11.11.17.16.03-.05.06-.1.1-.14,0,.16-.01.33-.13.45-.03-.06-.07-.12-.1-.17-.2-.04-.38-.14-.48-.31-.02.02-.07.05-.1.07-.03-.08-.06-.15-.08-.23-.03.08-.06.15-.09.23,0-.04,0-.11,0-.15-.06,0-.12.01-.18.02-.03.14-.14.21-.26.26l1.04.26s.03-.06.04-.1c.02.04.03.08.04.12l1.37.34s0-.06,0-.08c.07-.02.14-.04.22-.06-.04-.02-.11-.06-.15-.08.13-.04.27-.08.4-.14-.03-.13-.23-.17-.22-.31.08-.1.19-.15.3-.21.05.03.09.07.14.1-.06.04-.11.09-.16.14,0,.12.04.27-.05.37-.07.08-.12.18-.15.28-.02,0-.06.02-.08.02,0,0,0,.02,0,.03l.19.05s0,0,0,0c.07.02.13.04.2.06-.06-.09-.13-.19-.19-.28.12-.06.25-.13.35-.22.04-.08.06-.16.09-.24.22-.05.15-.3.17-.46.03-.08.08-.14.14-.21l-.47-.12c-.1.07-.21.1-.34.09Zm-.58,1.04c-.1-.03-.2-.06-.3-.08,0-.04-.02-.09-.03-.13.13.07.27.06.41.04-.03.05-.05.11-.08.17Zm.32-.45c-.06-.13-.22-.29-.12-.44.04-.07.14-.05.21-.07.02-.04.04-.08.07-.12.04.11.09.23.07.35-.05.11-.15.19-.23.28Z" fill="#869cb3"/><path d="m132.56,149.79l-.31,1.25s.03-.09.05-.14c.06,0,.11.02.16.04l.27-1.1c-.06-.03-.12-.05-.18-.06Z" fill="#869cb3"/><path d="m131.92,152.34l-.13.52s0,0,0,0c0,0,0,0,0,.01l-.05.19c.04.06.1.11.15.16l.18-.71c-.05-.06-.1-.11-.15-.17Z" fill="#869cb3"/><path d="m132.19,151.26s.02,0,.04.01c-.02.03-.04.07-.06.1l-.2.8s.02,0,.04,0c.04-.07.06-.15.09-.23.02,0,.07.02.09.03,0,.02,0,.04,0,.06l.23-.91c-.06,0-.13,0-.19-.02l-.04.14Z" fill="#869cb3"/><path d="m101,149.8s-.09.07-.13.12l.28.07c-.05-.06-.1-.12-.15-.19Z" fill="#869cb3"/><polygon points="105.25 148.59 105.24 148.58 105.24 148.59 105.25 148.59" fill="#869cb3"/><path d="m105.66,150.01s-.12-.05-.16-.06c-.06.05-.13.09-.19.14.13.06.24-.02.35-.08Z" fill="#869cb3"/><path d="m107.94,149.37c-.09-.01-.18-.02-.27-.04.01-.04.03-.09.04-.13l-1.15-.29c.08.07.16.15.21.25l1.14.28s0-.05.01-.08Z" fill="#869cb3"/><path d="m102.9,150.42l.06.02s0-.03,0-.05c-.02.01-.04.02-.06.04Z" fill="#869cb3"/><path d="m95.91,148.62s-.05.02-.06.04l.13.03s-.02-.08-.07-.07Z" fill="#869cb3"/><path d="m94.98,148.44l.13.03s0-.09,0-.14c-.04.03-.08.07-.12.11Z" fill="#869cb3"/><path d="m105.97,151.18l1.93.48s.04-.06.06-.09c.16.03.32.06.47.08.05.06.1.12.16.18.01-.1.02-.2.02-.31.21.09.43.15.64.21-.01-.04-.03-.08-.04-.13.1.06.21.12.31.18.03-.07.07-.14.1-.21.07-.01.14-.02.21-.03.03.19.05.38.03.57.04.02.07.03.1.06l.66.16c.17-.05.31-.15.46-.24.02.04.04.08.06.12.12.03.23.07.35.11-.02.06-.04.13-.05.2.02.01.05.02.07.03l.17.04s.09,0,.13-.04c.02-.09.02-.19.03-.28.13.08.26.17.34.31,0,.05.01.09.01.14l2.13.53s.04-.04.06-.06c.02.03.04.06.07.09l1.52.38c-.13-.21-.28-.41-.4-.63.02-.17.2-.19.34-.17.14.05.18.19.26.3-.02.07-.03.15-.04.22.14.03.29.06.43.09.11.07.21.16.31.24-.08,0-.16,0-.24.01-.01.02-.03.05-.05.08l.09.02s0,0,0-.01c.02,0,.05.02.07.03l1.38.34c.04-.06.09-.11.13-.17-.09-.02-.19-.03-.28-.05.09-.06.2-.09.27-.17,0-.14-.05-.28,0-.42.06.18.02.37.06.55.21.15.5.11.75.12-.1.03-.2.07-.29.12.06.08.15.13.23.17-.13-.07-.29-.09-.43-.03l.53.13c.07-.12.16-.23.28-.3,0-.07,0-.14,0-.22.03,0,.08,0,.1.01.02-.2.04-.4.05-.6-.2.02-.39-.01-.59.01-.12.02-.24,0-.36-.03.02-.07.03-.14.05-.21.1.02.21.09.32.05.09-.03.17-.09.24-.15-.16-.03-.31-.1-.44-.2.02.07.04.13.05.2-.14-.02-.29-.06-.43-.09-.02-.04-.04-.08-.06-.12.11.05.22.09.34.13,0-.05-.02-.11-.04-.16l-2.57-.64c-.08.13-.17.26-.31.33-.15.08-.24.23-.33.37-.04-.03-.08-.05-.13-.08.13-.16.29-.28.46-.39-.07-.04-.14-.09-.21-.13.03-.04.06-.08.09-.12-.04-.02-.08-.05-.12-.07-.03.05-.07.1-.1.15-.02,0-.05.02-.06.02.1.15-.01.29-.09.42-.13-.08-.22-.2-.29-.33.03-.13.06-.26.07-.4.07.04.14.08.22.11,0-.03,0-.06-.01-.08l-3.04-.76s.02,0,.03.01c-.04.07-.1.13-.17.17,0,.06,0,.12.01.18-.07.04-.14.08-.2.11,0-.11,0-.23,0-.34-.1.13-.17.28-.3.4-.09-.04-.19-.07-.29-.08,0-.03-.01-.05-.02-.08.1-.04.29-.09.23-.23-.01-.08-.11-.09-.17-.13,0-.08-.01-.16-.02-.23l-1.26-.31s0,0,0,0c-.05-.01-.11-.03-.16-.04,0,0,0,0,0,0l-.31-.08s-.01.05-.02.06c-.04-.03-.09-.07-.13-.1l-.78-.19c-.12.05-.25.1-.38.14,0-.03.02-.08.02-.11.06,0,.13-.01.19-.02-.15-.09-.31-.13-.48-.17-.02.02-.05.07-.06.09.11.07.22.16.24.3-.11-.02-.21-.07-.31-.09-.23,0-.48.05-.63.23-.03-.02-.06-.05-.09-.07-.12.08-.23.16-.35.24-.03-.02-.06-.04-.08-.06.02-.02.05-.05.07-.07-.01-.08-.02-.16-.03-.24.08,0,.2.03.23-.07.03-.13.02-.28.11-.39.11.11.22.21.35.3-.06-.11-.13-.2-.19-.31,0-.02.02-.03.03-.05l-.28-.07s0,.01.01.02c-.03-.01-.07-.03-.1-.04l-.3-.08c.03.06.06.13.1.18-.07-.03-.13-.07-.17-.13-.02-.03-.04-.06-.06-.09l-.7-.17c-.09.21-.08.48.1.65-.02.06-.04.11-.06.16.05.02.11.04.16.05,0-.06.02-.11.03-.17.14.08.21.23.3.36-.06.07-.12.14-.17.21-.14-.19-.33-.35-.56-.4.03.08.07.16.1.24-.06-.03-.12-.06-.19-.09-.08.12-.16.25-.24.37-.15-.24,0-.5.12-.72-.1-.13-.26-.27-.18-.45.1-.08.22.03.33.05,0-.11.03-.21.06-.31l-5.28-1.31c.03.06.05.13.08.19-.08.08-.15.16-.21.25.04.03.09.05.13.08.11-.06.23-.07.35-.07-.03-.05-.06-.09-.09-.14.04-.07.09-.13.13-.2.22.15.32.43.33.69-.06-.1-.11-.2-.17-.3-.02.16-.04.32-.07.48.06.03.11.07.17.1.02.09,0,.21.1.25.09,0,.17-.04.25-.07,0,.03-.03.08-.04.1.21.06.41.15.6.27-.07.07-.13.16-.24.15-.05-.02-.1-.06-.14-.1,0,.04,0,.09-.01.13l.31.08c.08-.03.17-.05.25-.06-.01.04-.02.08-.03.12l.63.16c.04-.05.08-.1.12-.15.07.03.14.06.21.09.12-.08.25-.12.4-.11-.05.13-.18.17-.3.21.02.03.04.06.07.09l2.18.54s0-.08.05-.08c.06,0,.08.08.04.1l.4.1c-.01-.06-.02-.12-.03-.17.09.05.15.13.19.21Zm12.71,2.41c0,.11-.01.22-.02.33-.05-.05-.09-.1-.14-.15.04-.07.09-.13.16-.18Zm-.2-.48c-.01.08-.02.15-.03.23-.12-.08-.23-.16-.36-.22,0-.03.02-.1.03-.14.12.04.25.09.37.13Zm-5.83-.76c-.06,0-.12-.02-.18-.03.07-.03.14-.06.21-.1,0,.03-.03.09-.04.13Zm.04.15c-.06-.05-.05-.08.03-.1.05.05.05.08-.03.1Zm1.8-.59c-.13.14-.26.3-.47.25.05-.21.28-.26.47-.25Zm-.65.39c.2-.18.46-.02.6.16-.03.06-.06.12-.08.18.16.17.18.4.15.62-.15-.13-.2-.32-.24-.5-.06,0-.12,0-.18.01-.03-.09-.06-.17-.09-.26-.02,0-.07.01-.09.02.03.14.05.27.07.41.03.02.06.04.1.06,0,.04,0,.09,0,.13-.16-.03-.2-.2-.28-.32-.06-.03-.13-.04-.19-.05.11-.13.17-.3.24-.46Zm-.05-.46c-.01.05-.03.1-.04.15-.04.02-.08.04-.12.06.02-.08.03-.16.05-.25.03,0,.09.03.12.03Zm-.17.25c0,.05,0,.11.01.16-.04.03-.09.06-.13.09.01-.1,0-.21.12-.25Zm-1.28-.46c-.07.03-.15.06-.22.09,0-.03.02-.1.03-.14.06.01.13.03.19.04Zm-.32.18c.03.07.06.13.08.2.05-.04.11-.08.16-.11.17.08.35.02.53-.02.08.08.16.15.25.22-.06.04-.11.08-.17.12-.11-.1-.22-.19-.35-.26,0,.1,0,.2.01.3-.14.03-.27-.02-.39-.08,0,.06-.01.11-.02.17-.07-.16-.21-.34-.1-.52Zm-.58.21c-.08.03-.16.07-.23.11,0-.15.02-.29.04-.44.09.1.15.21.19.33Zm-.4-.98c.05.06.11.12.17.17-.04.06-.09.11-.13.17-.08-.03-.17-.06-.25-.08.07-.09.15-.18.21-.27Zm-.82-.24c.01.07.03.14.04.21-.06.01-.11.03-.17.04-.02-.11.03-.2.13-.25Zm.05.71c-.09-.13-.17-.27-.23-.42.14.1.28.23.23.42Zm-2.05-.44c.2,0,.29.19.4.33-.1.03-.21.09-.32.08-.07-.04-.13-.09-.2-.14.04-.09.08-.18.12-.26Zm-.65,0c.06.05.05.08-.03.1-.06-.05-.05-.08.03-.1Zm-.09-.13c-.08.03-.17.05-.25.08.04.07.09.13.13.2-.18-.03-.28-.15-.34-.31.15.01.31.02.46.04Zm-.64-.78c.09.05-.06.17-.11.09-.03-.06.05-.11.11-.09Zm-.41.89c-.03.06-.06.12-.1.18-.05-.08-.1-.16-.14-.25.08.02.16.04.24.07Zm-3.71-1.97c.16.01.39.03.44.22.04.08-.03.16-.04.24-.15-.1-.29-.21-.45-.29.01-.05.03-.11.04-.16Zm-.08.83c.09.02.18.03.27.05,0,.06,0,.11.01.17-.1-.07-.19-.14-.29-.21Zm.79.14c-.09-.1-.18-.2-.28-.29-.01.1.02.2.05.3-.16-.04-.3-.12-.43-.22-.1,0-.19,0-.29,0-.05-.15-.16-.26-.3-.34.16,0,.34-.04.49.03.12.02.12.15.17.24.04-.05.08-.1.11-.16.17.15.41.18.6.31-.04.05-.09.1-.13.14Z" fill="#869cb3"/><path d="m87.86,144.25l-.09-.02s.05.03.07.05c0,0,.01-.02.02-.03Z" fill="#869cb3"/><path d="m86.84,145.25c.07-.03.03-.17-.05-.13-.07.03-.03.17.05.13Z" fill="#869cb3"/><path d="m86.39,144.08l1.13.28c-.04-.07-.06-.15-.09-.22l-1.01-.25s.03.1.04.15c-.03.01-.05.03-.07.04Z" fill="#869cb3"/><path d="m127.5,156.53s-.02,0-.03.01h.06s-.01,0-.03-.01Z" fill="#869cb3"/><path d="m88.66,144.61s-.06-.09-.09-.13c.01-.01.03-.03.04-.04l-.35-.09s-.03.05-.04.07c-.07.02-.14.04-.21.06l1.84.46c.03-.06.06-.12.1-.17l-1.19-.3s-.07.09-.1.13Zm.33-.03c0,.11-.31.09-.15-.02.06-.02.11-.02.15.02Z" fill="#869cb3"/><path d="m126.54,156.22c.12-.11.24-.23.36-.34-.06-.02-.13-.03-.19-.05,0-.04-.01-.13-.02-.17-.04.05-.08.1-.12.15.06.05.12.11.19.17-.03.02-.1.07-.14.1-.07-.01-.15-.02-.22-.04-.04.03-.08.07-.12.1.06-.19.18-.35.3-.52-.18.08-.25.3-.46.31.02.03.07.09.09.12-.07,0-.15.02-.22.02.06-.14.15-.27.19-.43.02-.22.03-.46.13-.66.08-.09.19-.15.28-.22l-1.08-.27s-.05.03-.08.05c-.03-.03-.06-.06-.1-.09l-1.5-.37c.05.1.08.22.05.33-.14-.07-.2-.25-.37-.24.12.13.24.25.32.41-.04.03-.09.06-.13.09-.11-.06-.21-.11-.32-.16-.01-.18-.03-.36,0-.54l-.27-.07c-.09.04-.19.08-.28.13-.06.1-.07.22-.1.34.21.06.38.19.53.35-.01-.07-.02-.13-.04-.2.07.04.14.07.21.11-.05.06-.11.12-.16.18-.1-.02-.21-.05-.32,0-.19.08-.4.14-.56.28.07.08.14.16.2.24l.32.08s.02-.09.03-.13c.07.06.15.12.21.19l.53.13c-.13-.14-.19-.34-.23-.52.06-.02.11-.04.17-.05.06.2.16.39.16.6l1.17.29s.03-.02.04-.03c.05,0,.07.03.06.05l.28.07c-.02-.07-.05-.14-.07-.21.03-.01.09-.04.12-.05.03.07.06.13.1.2-.02.03-.04.06-.06.09l.18.04c-.02-.17-.07-.33-.05-.5.1.02.21.04.31.06-.03-.17-.06-.35-.17-.49-.07-.06-.16-.1-.24-.15.05-.05.1-.11.15-.16.09.09.19.17.3.23-.05,0-.1.02-.15.03.08.1.18.18.26.28.01.1-.06.19-.1.28-.08.14-.13.29-.17.45l1.04.26s-.03-.06-.04-.1c-.08-.02-.15-.04-.23-.05Zm-3.66-1.28c.11.04.23.08.34.14.02.06.02.13.03.19-.16-.07-.26-.2-.37-.33Zm.38.13c0-.06-.02-.11-.03-.17.06.04.13.07.19.11-.06.02-.11.04-.17.05Z" fill="#869cb3"/><path d="m87.67,144.4l.24.06s-.05-.07-.08-.11c-.05.01-.11.03-.16.05Z" fill="#869cb3"/><path d="m133.13,148.05s.04,0,.05,0v-.03s-.03.01-.05.02Z" fill="#869cb3"/><path d="m133.38,146.47l-.37,1.49s0,0,0,0c.14-.04.17-.2.26-.3l.21-.85c-.09-.09-.09-.22-.11-.34Z" fill="#869cb3"/><path d="m126.48,155.56c.07-.12.15-.24.22-.36-.07-.03-.14-.06-.22-.09.01.12-.03.24-.09.34.03.04.06.07.09.11Z" fill="#869cb3"/><path d="m131.04,155.1c-.02-.06-.04-.12-.04-.18-.09.03-.19.03-.3,0l-.52-.13c-.09.06-.18.09-.28.12l.75.19c.13.03.26.03.38,0Z" fill="#869cb3"/><path d="m126.86,156.09c-.08.05.03.15.09.09.07-.06-.03-.15-.09-.09Z" fill="#869cb3"/><path d="m127.46,154.99l-.1-.02c.01.05.03.11.04.16-.09-.05-.16-.12-.2-.2l-.42-.11c-.02.07-.04.14-.04.21.03.13.06.26.08.39.04,0,.09-.01.13-.02-.01-.03-.03-.1-.04-.13.1.08.2.16.31.24.13-.15.2-.33.25-.52Z" fill="#869cb3"/><path d="m129.79,154.89s.03-.04.05-.06c-.1-.06-.19-.12-.29-.19l-.53-.13c.02.08,0,.14-.04.18l.8.2Z" fill="#869cb3"/><path d="m113.1,150.74l1.55.39s0,0,0,0c-.01-.06-.02-.13-.03-.19l-1.46-.36c-.02.06-.04.12-.06.18Z" fill="#869cb3"/><path d="m115.36,151.28c-.08-.06-.17-.07-.26-.05l.51.13s.07-.06.11-.08c.01.04.02.08.03.12l3.36.84c.08,0,.15.01.23.02,0,0-.02.02-.02.03l.27.07c0-.07-.01-.13-.01-.2l-1.47-.37c-.08.02-.16,0-.23-.06l-2.32-.58c-.07.04-.14.08-.21.13Z" fill="#869cb3"/><path d="m131.69,153.29l-.31,1.23s0,0,0,.01c.06,0,.13,0,.19,0l.27-1.07c-.05-.06-.1-.12-.15-.18Z" fill="#869cb3"/><path d="m105.56,148.82c0-.05,0-.1,0-.15l-.12-.03c.02.06.02.13,0,.19l.91.23s-.01-.02-.02-.03c.07.02.15.04.23.05-.04-.07-.08-.13-.13-.19l-.72-.18c-.05.04-.1.08-.15.12Z" fill="#869cb3"/><path d="m90.01,144.98l.27.07s.03-.05.05-.07c.02.01.07.03.09.04,0,.02,0,.04,0,.06l.93.23s.02-.03.04-.05c.04-.04.08-.07.13-.1l-.49-.12c0,.05,0,.11.01.16-.05-.06-.1-.13-.14-.2l-.81-.2c-.02.06-.05.12-.07.18Z" fill="#869cb3"/><path d="m91.52,145.36l1,.25s.05-.04.08-.06c-.01.02-.03.05-.04.07l3.36.84s0-.05,0-.07c.05,0,.09,0,.14,0,.02-.02.04-.04.07-.06l-4.44-1.11c-.05.05-.11.1-.17.15Z" fill="#869cb3"/><path d="m88.79,134.33c-.05.02-.11.03-.17.05l2,.5s0-.02-.01-.03c-.02-.06-.04-.12-.05-.18l-1.73-.43s0,.07-.03.09Z" fill="#869cb3"/><path d="m84.19,145.67s.15,0,.14.07c0,.02-.02.04-.04.04l1.76.44c-.05-.07-.08-.16-.14-.23-.09-.06-.2-.1-.3-.15.03,0,.07-.02.1-.03,0-.08,0-.16,0-.23.04,0,.11.02.14.03-.01.09-.02.17-.03.26.09-.05.15-.12.21-.2.03.05.06.11.09.16.03,0,.1,0,.14,0,.01-.03.04-.08.05-.1-.07-.02-.13-.03-.2-.05.14-.19.37-.26.59-.33-.03-.05-.07-.1-.1-.15-.14.08-.29.14-.45.16,0-.04,0-.11,0-.15-.05.05-.1.09-.15.14-.04-.09-.07-.18-.12-.27-.07-.03-.14-.05-.21-.07.13-.06.25-.13.38-.19-.01.08-.03.15-.04.23.03-.01.07-.02.1-.04.09.07.2.08.31.07-.03-.12-.06-.24-.09-.36,0,0,0,0,0,0l-.22-.05c.06.06.11.12.16.18-.12-.05-.25-.1-.37-.15.02-.02.04-.05.06-.07l-.31-.08c-.03.07-.06.14-.1.21,0-.08,0-.15.01-.23l-.63-.16c0,.07.02.14.05.2.08,0,.15,0,.23,0,0,.04,0,.07,0,.11-.06.02-.13.04-.19.05.07.03.13.05.2.08.03.05.06.09.08.14-.07.1-.16.2-.19.32.04.15.12.29.12.44-.08-.01-.2.04-.24-.05-.07-.1-.11-.22-.18-.31-.16-.11-.38-.14-.52-.29-.18-.19-.37-.4-.61-.5-.16-.04-.11.18-.08.27.09-.02.17-.03.26-.05.05.2.03.4,0,.6.04.02.11.05.15.06-.02-.15-.03-.3,0-.44.04.05.1.1.13.17-.03.15-.1.29-.11.44,0,.03,0,.06,0,.08l.16.04s-.03-.05,0-.09Zm1.24-.19c.07.04.16.05.17.14-.07-.01-.13-.03-.2-.04,0-.03.02-.08.03-.1Zm-1.22-.15c.08.06.15.13.2.22-.08-.02-.16-.04-.24-.06,0-.04.03-.12.04-.16Z" fill="#869cb3"/><path d="m83.52,143.37c.04-.05.09-.1.13-.15.05.03.1.05.14.08-.04.04-.07.08-.11.11l.32.08c0-.07-.01-.13-.02-.2l-1.03-.26c-.12-.03-.23-.1-.3-.19-.06-.02-.12-.04-.18-.06,0-.04-.02-.09-.03-.13.03,0,.07,0,.1,0-.03-.09-.03-.19,0-.29l.23-.92s0-.05,0-.07c0,0,.02,0,.03,0l.48-1.91c-.06-.03-.12-.05-.17-.08l-.06.26s.07.02.09.02c-.02.06-.05.12-.07.19-.03-.06-.03-.12-.03-.19l-.08.33s.04.03.06.04c-.03.02-.06.04-.08.06l-.16.63s.07.07.1.11c.06.12-.07.23-.11.33-.03-.01-.06-.02-.09-.03l-.02.09s.01,0,.02,0c-.01.02-.02.04-.03.05l-.26,1.04c-.06.22,0,.44.12.61.05.02.09.04.14.06,0,.02-.01.04-.02.07.09.07.19.13.31.16l.61.15Z" fill="#869cb3"/><path d="m132.09,144.2c-.06.04-.06.08.01.11.06-.05.06-.08-.01-.11Z" fill="#869cb3"/><path d="m125.16,142.44s-.11-.05-.15-.06c0,.07,0,.13,0,.2l.17.04c0-.06,0-.12-.01-.18Z" fill="#869cb3"/><path d="m80.88,140.4c-.08-.02-.17-.03-.25-.05l-.03.13c.1.02.19.04.29.06,0-.03,0-.1,0-.13Z" fill="#869cb3"/><path d="m103.62,138.1s0,.01,0,.02h.01s0-.01-.01-.02Z" fill="#869cb3"/><path d="m97.73,136.65l.87.22c.03-.06.06-.12.08-.17l-1.11-.28c.05.02.1.05.16.07,0,.05,0,.11,0,.16Z" fill="#869cb3"/><path d="m93.82,135.67l2.44.61s.01-.07.01-.11c.06.03.09.08.11.14l.58.15s.06,0,.09,0c-.01-.04-.03-.12-.05-.15-.18-.02-.36-.02-.53-.07.03-.02.05-.04.08-.07l-.44-.11s-.06.06-.08.08c.01-.03.02-.07.02-.1l-1.29-.32c-.06.04-.11.08-.16.12-.06-.01-.11-.02-.17-.04-.01-.06-.03-.12-.04-.18l-.77-.19c.05.09.11.17.19.24Z" fill="#869cb3"/><path d="m134.21,146.65s0,0,0,0h0Z" fill="#869cb3"/><path d="m88.65,133.42c-.08-.03-.16-.05-.25-.08-.02.02-.05.06-.07.08.02.01.05.02.07.03l.18.04s.05-.05.07-.08Z" fill="#869cb3"/><path d="m81.48,140.67c0,.18-.02.36-.01.53.03.15.08.3.12.45-.1.04-.21.08-.31.13.09.03.18.06.26.09-.09.21-.16.43-.34.57.15.09.32.16.46.27.03.03.05.06.07.09-.05-.21-.05-.44,0-.67l.24-.97s-.06.02-.08.03c-.11-.12-.22-.24-.33-.36.07-.11.13-.22.19-.33.11.07.22.13.33.2l.07-.28s-.02-.05-.04-.08c-.06.02-.12.05-.18.07,0-.07,0-.14,0-.2-.04-.02-.08-.04-.12-.06,0,.08.03.18-.03.26-.09.1-.21.18-.32.26Z" fill="#869cb3"/><path d="m120.19,142.11s.09,0,.14,0c.06.08.13.15.2.23l1.43.36s.02-.02.02-.03c.02.01.04.03.05.05l.36.09s.02-.01.04-.02c0,.01.01.02.02.03l8.78,2.19s.09-.08.15-.1c0-.02-.02-.04-.03-.06l-2.35-.59s-.08.09-.13.14c-.06-.1-.15-.17-.24-.23l-4.92-1.23s-.03.08-.08.07c-.04-.02-.05-.06-.05-.11l-3.4-.85s.02.04.03.06Zm1.73.39s-.03.11-.04.15c-.07-.04-.12-.11-.15-.18.07,0,.13.02.2.03Z" fill="#869cb3"/><path d="m81.17,141.02c-.1.06-.21.13-.32.18,0-.13,0-.26,0-.39.06-.05.12-.11.18-.16-.21.03-.36.19-.5.34-.02-.02-.03-.04-.05-.07l-.21.85c.08-.03.12.1.05.14-.03.02-.06,0-.08-.02-.31,1.52.62,3.03,2.14,3.41l1.46.36c.05-.04.11-.08.16-.12-.12-.12-.28-.2-.44-.25-.02-.14-.02-.3-.14-.4-.06-.07-.15-.06-.23-.07.15-.17.31-.35.53-.42.13-.05.28-.06.41-.08-.17.23-.04.6.24.68,0,.02-.01.06-.02.08.09.04.19.09.28.13,0-.29-.29-.46-.41-.7.03-.05.06-.1.09-.15.08.04.16.07.24.1-.02-.06-.03-.11-.05-.17l-1.77-.44c-.31-.08-.57-.26-.76-.49-.09.03-.18.05-.27.07.02-.08.05-.15.07-.23.05.02.1.04.14.07-.06-.09-.11-.18-.15-.28,0,.05.02.09.03.14-.15-.11-.29-.23-.44-.34-.12-.09-.28-.08-.42-.09.04-.08.09-.15.13-.23-.06-.14-.01-.29,0-.43-.07-.14-.12-.29-.17-.44-.1-.13-.26-.19-.39-.27,0-.03-.01-.09-.01-.11.16,0,.32.04.48.09,0,.11.02.22.02.33.1-.02.19-.05.29-.08-.06-.04-.12-.07-.17-.11.04-.11.08-.21.12-.32-.02-.02-.05-.07-.06-.1Zm-.14,2.93c-.14.04-.2-.14-.3-.22.06-.14.18-.2.32-.22.03.15.15.34-.03.44Zm.14-.79c.08-.04.14.1.07.14-.08.04-.14-.1-.07-.14Zm-.36.88c.09,0,.2,0,.26.09-.1.02-.2,0-.26-.09Zm.71-.36c-.1-.05-.16-.13-.14-.24.03,0,.09.03.12.04,0,.07,0,.14.01.2Zm-.51-.89c.13.22.5.1.58.37-.24-.07-.49-.12-.73-.16.05-.07.1-.13.16-.2Zm-.29-.75s.03.08.05.13c.05.02.1.04.16.06-.1.1-.23.05-.33-.01.04-.06.08-.12.12-.18Zm-.18.06c-.04.1-.08.19-.13.28-.04-.12-.05-.24-.01-.36.05.02.1.04.14.08Z" fill="#869cb3"/><path d="m133.68,143.49c.07-.04.13-.08.2-.1.08-.02.13.08.19.12-.1.13-.27.21-.44.17-.25-.06-.51-.09-.77-.09,0-.04,0-.08.01-.12.1-.03.27,0,.25-.15-.12-.2-.36-.25-.56-.33,0-.02.01-.05.02-.07l-.74-.18c.04.09.06.19.05.29-.09-.12-.19-.24-.29-.35l-1.08-.27s.01.01.02.02c-.08.01-.15.02-.23.03-.02-.04-.05-.08-.07-.12l-.47-.12c.1.04.2.07.3.1-.11.01-.22.03-.33.05-.03-.06-.07-.12-.1-.18l-1.58-.39s0,.03-.01.04c-.08-.02-.15-.03-.23-.05.02.08.04.15.06.23-.12,0-.24,0-.36.02.03.04.07.08.11.11-.06.07-.12.13-.18.2-.07-.15-.08-.33-.07-.49-.07.03-.14.06-.21.09-.05-.08-.09-.17-.14-.25.04-.04.07-.09.1-.14l-1.79-.45c.06.06.12.12.17.19.06.08-.05.13-.1.17-.21,0-.42,0-.63.02-.02.04-.03.08-.04.13-.15-.02-.37,0-.41-.2.2,0,.39,0,.59.01-.09-.12-.16-.25-.21-.39.07.03.13.06.2.1.03-.04.05-.07.07-.11l-1.65-.41s-.06.03-.1.04c0-.02.02-.04.03-.06l-1.43-.36c-.22.05-.45.07-.66.17-.03.1-.08.2-.14.29.07.13.14.25.24.37-.17-.05-.31-.15-.43-.28.02-.09.04-.17.06-.25-.13-.06-.3-.09-.35-.24-.05-.13.09-.23.17-.32l-2.29-.57s-.01.01-.02.02c0,0,0-.02,0-.03l-.23-.06c.05.06.1.11.15.18,0,.09-.1.06-.16.08-.01-.09-.02-.18-.03-.27l-.94-.23s.03.07.05.1c-.05.04-.09.07-.13.11.06.06.14.1.22.13.01.1.03.2.05.3.05.03.1.06.14.09,0-.06.02-.12.02-.18.1.13.1.28.08.43.12-.03.21-.11.29-.2,0,0,.02.02.03.03-.11.07-.15.17-.08.29-.07.04-.14.08-.22.11,0,.04-.03.11-.04.15.06.05.12.1.18.16,0,.06,0,.11,0,.17l1.95.49s-.01-.02-.02-.03c.05-.01.1-.03.15-.04.02.04.04.08.06.12l.11.03s0-.02,0-.02c.2-.09.43-.07.64-.12,0,.09-.02.17-.03.26.02.01.05.04.07.06h0s-.01-.07-.02-.11c.11-.09.23-.18.38-.22.03.05.05.11.08.16.05-.03.11-.06.16-.09.02.15.08.3.13.45l1.2.3s-.02-.11.02-.14c.09-.03.08.12.01.14l2.15.54s-.08-.06-.11-.1c.01-.05.02-.11.03-.16.06,0,.12,0,.19,0,.03-.13.03-.28.16-.35-.03.12-.05.24-.07.36.07-.04.13-.08.2-.13,0,.06-.02.13-.03.19.02,0,.05,0,.07.01.03-.19.07-.37.11-.55.03.01.1.04.14.06,0,.13-.04.24-.18.28.02.09.03.18.05.27.09,0,.18,0,.27-.03-.01.06-.02.13-.02.19.1.06.21.09.32.13,0-.03.02-.1.02-.13.07.08.14.17.25.2.09-.02.12-.13.18-.19.05.07.09.14.14.21-.06.04-.13.07-.2.11l1.93.48s.03-.06.04-.09c.05-.02.1-.03.16-.05-.01-.07-.03-.13-.04-.2.05.08.11.15.17.23-.06.05-.13.09-.19.14l.49.12c.03-.07.06-.14.1-.2.02.08.03.16.04.24l2.89.72s0,0,0-.01c-.04-.07-.08-.14-.12-.21.06-.12.12-.23.18-.35-.15-.08-.31-.13-.47-.16-.01.16.17.17.28.2-.02.07-.04.14-.06.22-.12-.11-.19-.26-.3-.37-.1-.02-.21-.02-.31-.02.14-.15.27-.32.38-.5-.12-.11-.25-.2-.41-.25-.06.04-.13.08-.19.11-.04-.07-.08-.15-.12-.22.2-.01.41.01.61,0,.14.13.26.29.39.43-.1.04-.2.09-.26.18.1,0,.2,0,.3,0,.02.05.05.1.08.14.21.15.47.18.71.28.07-.02.14-.11.22-.07.03.05.06.11.09.17-.09-.01-.18-.03-.28-.04.02.06.04.13.06.19-.15-.03-.3-.06-.46-.09-.01.09-.06.17-.04.26.07.09.16.17.24.24l.53.13s.06-.03.09-.06c.03.03.06.08.09.1l.07.02s.02,0,.03-.02c.1-.05.06-.17.07-.25.02,0,.06,0,.08,0-.03.1-.06.19-.11.28.23.06.43.17.59.32.01-.05.03-.09.04-.14.11-.03.22-.05.33-.09.05-.06.08-.13.12-.19.12.12.24.24.37.35,0,.14,0,.28,0,.42-.01,0-.04.02-.05.03.03-.12.04-.24.04-.36-.1-.04-.2-.08-.3-.11-.17.03-.31.14-.47.17.3.31.45.75.38,1.2,0,.02,0,.05-.01.07,0,.02,0,.03-.01.05l-.02.08s.05.02.08.03c.03.08.06.15.1.23.06.02.12.03.19.04-.03-.17-.11-.34-.16-.5-.05-.1.08-.15.14-.21.11.26.23.53.21.82-.05,0-.09,0-.14,0-.09.21-.29.31-.49.38-.04-.01-.07-.03-.09-.06l-.12.48s.04.03.06.04c.08-.03.16-.05.24-.08-.08.08-.17.18-.29.18-.01,0-.03-.01-.04-.02l-.05.22s.04,0,.06,0c-.03.04-.06.1-.1.14l-.16.63c.03.05.05.11.05.18-.03,0-.06,0-.09-.01l-.37,1.49c.04-.08.08-.15.12-.23.07.02.14.03.22.05.02-.06.04-.11.07-.17.07.21.16.41.28.59.12,0,.25,0,.37.01-.07.02-.13.03-.2.04-.06.1-.12.21-.18.32-.11-.02-.22-.06-.31-.11,0,.17-.12.29-.24.41.06.06.11.11.17.17-.07.05-.13.11-.2.16-.08-.25.03-.53-.1-.77-.04,0-.07-.01-.11-.02l-.08.33s.02.03.03.05c.02-.03.06-.09.08-.11.03,0,.08.01.11.02-.04.06-.08.12-.11.18-.04-.01-.09-.02-.14-.03l-.85,3.43c-.05.21-.15.4-.29.56.02.03.04.05.06.08-.01.02-.04.05-.05.07-.02-.03-.05-.05-.08-.08-.06.06-.12.11-.18.16.01.02.02.03.03.05.15.09.32-.02.48-.06.08.06.17.11.25.17.12-.06.24-.12.36-.18-.03.13-.06.26-.09.38.08,0,.17,0,.25,0-.12.04-.25.07-.37.1,0,.04-.03.13-.03.17.12.01.23.03.35.04.01.01.03.04.04.06-.07.05-.14.1-.21.15-.03-.05-.06-.11-.1-.16-.05.2-.12.39-.19.57,0,0,0,0,0,0,.59-.39,1.04-.99,1.23-1.72l.26-1.04c-.06,0-.12-.02-.16-.07-.1-.11-.2-.23-.32-.33.11-.02.23-.08.34-.05.07.07.13.16.19.24l.44-1.77c-.12,0-.24-.02-.34-.08,0-.03.02-.1.02-.13.13-.03.27-.07.4-.11v-.04c-.06-.11-.13-.22-.17-.34.07-.15.22-.23.34-.33l.43-1.74c-.07,0-.14.02-.19.06-.02.07-.02.13-.03.2-.07,0-.14,0-.2,0-.07.09.03.18.05.27-.06-.04-.12-.07-.18-.1.04-.13.1-.25.17-.36.14-.22.17-.49.21-.74.07.1.17.19.28.24l.06-.23s-.1-.04-.15-.07c.07-.05.13-.09.2-.14l.43-1.74s.01-.06.02-.1c-.06-.01-.13-.02-.19-.04.04-.12.09-.24.14-.36.03,0,.07.02.11.03.08-.94-.3-1.84-.99-2.43-.05.02-.1.05-.14.1.02-.06.04-.11.07-.16-.26-.21-.55-.38-.88-.49-.03.01-.06.02-.08.03,0-.02,0-.04.01-.05-.06-.02-.12-.04-.18-.06l-.07-.02c.03.12.08.23.13.34Zm-11.94-2.9c.07-.06.17.06.1.11-.07.06-.17-.05-.1-.11Zm-.25.48c0-.13-.06-.25-.08-.38,0-.1.06-.19.1-.28.05.07.1.15.12.24.04.21.13.41.12.62-.09-.07-.17-.13-.26-.2Zm.72.75c.09-.09.19-.17.29-.25-.04.13-.14.25-.29.25Zm.32-.32c-.15.03-.27-.04-.35-.16.04-.08.07-.17.1-.25.05.08.1.16.15.24.05.01.11.02.16.03-.02.05-.04.09-.06.14Zm.58-.3s-.04.08-.06.13c-.04-.13-.09-.25-.14-.38.05,0,.09,0,.14-.01.06.11.13.21.2.31-.05-.02-.1-.03-.15-.05Zm2.01.39s.07-.06.09-.08c.09.06.18.12.27.18-.13,0-.25-.05-.36-.1Zm1.15.97c-.07.05-.15-.06-.09-.11.06-.05.15.06.09.11Zm1.9-.73c.02.08.03.15.05.23-.1-.03-.19-.05-.29-.08.08-.05.16-.1.24-.15Zm-.48.91s.03-.08.04-.11c.13.03.26.06.39.11-.14.01-.28,0-.43,0Zm1.32-.68c.25.05.52.17.6.44-.21-.13-.45-.24-.6-.44Zm.5.55c.17-.04.31.04.42.17-.11.02-.21.05-.32.07-.04-.08-.07-.16-.1-.24Zm.09.45c.2-.02.41-.06.57-.19-.03-.06-.05-.13-.08-.19.06,0,.11,0,.17,0,0,.17,0,.34.03.51-.23-.08-.45-.18-.7-.14Zm1.33.65c.11-.03.11.19,0,.17-.07-.02-.07-.14,0-.17Zm2.74,5.39c-.01-.05-.03-.1-.04-.15.06.02.12.04.18.07,0,.03-.02.09-.03.12-.03,0-.09-.03-.12-.04Zm-.98,4.08c.04-.11.1-.21.17-.29.04.11.06.24.06.36-.08-.02-.16-.04-.23-.07Zm1.13-.88c-.08-.14-.12-.3-.11-.46.03,0,.1.03.13.04.02.14.06.29-.02.43Zm.24-.72s0,.07,0,.11c-.07.04-.14.09-.21.13.04-.15.02-.39.23-.4.06.05.12.12.18.18-.07,0-.13,0-.2-.01Zm.61-1.51c-.01.06-.03.11-.04.17-.09-.03-.18-.05-.27-.07.02-.04.03-.09.05-.13-.02-.01-.05-.04-.06-.05.03-.03.06-.05.09-.08.08.05.16.11.23.18Zm.19-1.51c0,.09-.02.18-.03.26-.1-.04-.17-.11-.22-.21.08-.02.16-.04.24-.05Zm-.04-1.37c-.09.04-.17-.11-.05-.13.09-.04.17.11.05.13Zm.18-3.07c.04.1.09.2.14.3-.11.1-.21.2-.3.31-.04-.13-.21-.2-.2-.35.07-.14.24-.19.36-.27Zm-.92-.4c.03.2.08.41,0,.61-.11.03-.21.08-.31.14.02.09.05.18.07.26-.08-.02-.18,0-.22-.09.06-.18.2-.32.29-.48.09-.14.11-.3.16-.45Z" fill="#869cb3"/><path d="m80.85,139.44l-.19.75c.09-.11.2-.21.35-.22.04.12.08.24.12.36.07.02.14.04.2.06,0-.03.01-.09.02-.11-.05-.06-.11-.12-.16-.18.03-.04.06-.09.09-.13-.19-.14-.28-.37-.45-.53Z" fill="#869cb3"/><path d="m90.8,133.85c-.01.09.01.16.06.21l.13.03c-.03-.11-.07-.21-.19-.25Z" fill="#869cb3"/><path d="m132.6,145.34s0,0,0-.01c-.02,0-.04,0-.06,0l.06.02Z" fill="#869cb3"/><path d="m116.33,141.28l.33.08s-.01-.02-.02-.03c.06-.04.12-.08.19-.12l-.21-.05s-.02.1-.04.15c-.05-.06-.1-.13-.15-.19l-.25-.06s0,.01.01.02c.06.06.1.13.12.21Z" fill="#869cb3"/><path d="m116.85,141.41l1.99.49c0-.07,0-.13-.02-.2l-1.88-.47c-.03.06-.06.12-.09.17Z" fill="#869cb3"/><path d="m121.09,141.47s.04.09.06.14l.25.06c-.1-.08-.2-.15-.31-.2Z" fill="#869cb3"/><path d="m96,135.2c.08-.02.04-.16-.04-.12-.08.02-.04.16.04.12Z" fill="#869cb3"/><path d="m94.39,134.88c-.03-.11-.12-.18-.21-.25-.01.08-.03.17-.04.25h.02c.08,0,.15,0,.23,0Z" fill="#869cb3"/><path d="m110.03,139.59s.04.09.05.13l3.55.88c-.02-.07-.04-.14-.07-.21l-3.69-.92c.06.03.13.05.16.11Z" fill="#869cb3"/><path d="m91.12,134.92s-.02.05-.04.07l2.6.65s-.08-.03-.12-.05c-.09-.07-.16-.16-.23-.24l-1.98-.49c-.08.02-.16.04-.24.06Z" fill="#869cb3"/><path d="m131.33,154.65s-.06.09-.1.13c.05.03.09.07.13.1-.01-.08-.02-.16-.03-.23Z" fill="#869cb3"/><path d="m127.88,154.36c-.03-.05-.03-.1,0-.13l-.09-.02s.01.02.02.03c-.06-.01-.12-.03-.19-.04.03.06.06.12.08.18l.24.06s-.04-.05-.06-.08Z" fill="#869cb3"/><path d="m125.41,153.8l1.91.48s-.03-.06-.05-.09c.09,0,.18-.02.25-.05l-2.14-.53c0,.07.01.13.02.2Z" fill="#869cb3"/><path d="m128.55,154.39l-.14-.03s-.02,0-.02,0c0,.07.01.13.02.2l.11.03c.01-.06.02-.12.02-.19Z" fill="#869cb3"/><path d="m128.58,154.4c.06.08.14.15.21.23.07-.04.15-.08.22-.12l-.43-.11Z" fill="#869cb3"/><path d="m132.7,145.3s0,.04,0,.06l.16.04c-.05-.03-.11-.06-.16-.1Z" fill="#869cb3"/><path d="m86.46,144.78c-.06.08.11.2.16.11,0-.03-.02-.06-.04-.08l-.11-.03s0,0,0,0Z" fill="#869cb3"/><path d="m85.6,143.86s0,.01,0,.02h.03s-.02,0-.03-.02Z" fill="#869cb3"/><path d="m86.19,146.26l2.43.61s0-.03,0-.05c.04.03.12.05.16.09l.85.21s-.05-.09-.08-.13c.07-.06.13-.12.2-.18.11.09.22.18.25.33.03-.03.06-.07.09-.1,0,.07,0,.13-.02.2l.81.2s-.01-.02-.02-.02c0-.13.15-.12.22-.04.09-.02.18-.04.27-.06,0,.08,0,.16-.02.24l3.6.9c.04-.06.07-.12.11-.18-.07,0-.15,0-.22,0,.06-.04.13-.08.19-.11.02-.08.03-.15.05-.23.08.05.15.1.23.15-.04.14-.06.29-.07.44,0,0-.01,0-.02,0l.43.11c.06-.04.11-.07.17-.11-.02-.04-.05-.07-.07-.11.14.04.29.14.3.3,0,0,0,.01,0,.02l.87.22c.03-.1.07-.19.14-.26.11-.04.09.1.1.17-.01.05-.03.09-.06.14l1.04.26c.08-.04.16-.06.25-.09.02.05.03.11.03.16l.22.06c-.1-.25.04-.53-.01-.79.14.08.27.19.41.27-.06.03-.11.07-.17.1.15.08.31.17.36.34-.22-.06-.41-.19-.61-.28,0,.12.02.24.06.35.14.02.29.02.43.08,0,0-.02.02-.03.03l.14.03s0-.02,0-.03c.06,0,.13.02.19.03,0,.02,0,.03,0,.05l1.17.29s0-.09.01-.14c0-.15-.18-.15-.29-.15,0,.06,0,.12,0,.18-.04-.03-.07-.07-.11-.1.02-.05.05-.1.07-.15-.06-.06-.12-.12-.17-.19.14,0,.27.06.4.06.09-.04.16-.11.24-.17-.07-.05-.14-.1-.21-.14,0,.08-.02.17-.03.25-.22-.22-.44-.43-.67-.64.05-.12.1-.24.16-.36-.06,0-.12-.01-.18-.02,0-.04-.01-.11-.01-.15-.1.03-.2.06-.29.09-.05-.07-.14-.15-.16-.24l-.46-.12c-.02.07-.05.14-.08.2-.1-.13-.22-.23-.39-.22.04.08.09.17.13.25-.05.06-.13.1-.16.18.01.13.06.25.09.37-.12-.06-.24-.11-.36-.15-.04-.1-.09-.2-.13-.31.03,0,.08,0,.11,0,0-.09.01-.17.02-.26.1-.04.23-.07.27-.19,0,0,0,0,0,0l-2.22-.55s-.03.06-.07.07c-.06,0-.08-.05-.06-.1l-2.29-.57s0,0,0,0c-.01.05-.02.1-.03.15.02.02.07.05.1.07-.08.04-.16.09-.24.13.03-.05.05-.1.08-.15-.04-.07-.08-.13-.12-.2,0-.02.01-.04.02-.06l-1.79-.45s-.02.01-.03.02c.07.02.14.04.21.06-.11.06-.22.11-.33.15-.03-.09-.07-.19-.05-.28l-1.27-.32c-.15-.01-.3-.04-.44-.11l-1.27-.32s-.03.06-.04.09c-.12-.12-.28-.15-.44-.1.02.1,0,.22.07.3.11.1.25.17.37.25-.05,0-.15,0-.2,0,.04.05.08.1.12.15-.07,0-.14,0-.21,0,.03-.04.05-.07.08-.11-.18-.08-.26-.25-.33-.42.04-.1.09-.2.16-.28l-1.15-.29s-.09.03-.13.05c.1.07.21.14.32.2-.01.07-.02.13-.03.2-.05-.02-.09-.04-.14-.05,0,.15,0,.3-.03.45-.07-.04-.15-.08-.22-.12-.08.05-.17.1-.26.15.01.12.05.26,0,.38-.1.05-.2.08-.31.1Zm13.64,2.97c-.08.01-.15.03-.23.04-.06-.07-.1-.15-.13-.24.13.05.25.12.37.2Zm-2.59-1.2c.02-.06.06-.07.12-.04.13.15.23.34.25.53-.08.11-.19.19-.28.29-.07-.11-.14-.22-.22-.33.03-.02.08-.05.1-.06,0-.13-.02-.27.03-.4Zm-1.09.17c-.07.03-.16-.09-.09-.14.08-.04.15.09.09.14Zm-.08-.56c-.03-.06.03-.13.08-.15.15-.01,0,.23-.08.15Zm.02-.33c.06-.05.16.05.09.1-.06.05-.16-.05-.09-.1Zm-.22.8c.06.05.05.08-.03.1-.06-.05-.05-.08.03-.1Zm-1.01-.16c.17,0-.06.21-.06.05.01-.01.04-.04.06-.05Zm-1.15-.72c.1,0,.14.11.2.17-.23.11-.48.11-.72.18,0,.07,0,.13,0,.2-.02,0-.06,0-.08-.01.03-.14.03-.28.02-.42.21,0,.38-.13.59-.12Zm-1.31.27c.07,0,.09.02.05.09-.07,0-.09-.03-.05-.09Zm.08-1.01c-.06-.02-.12-.03-.17-.05,0-.03,0-.1,0-.14.06.06.12.12.17.19Zm-.42.55c-.02.07-.03.14-.05.21-.15,0-.19-.14-.15-.26.07.02.14.03.2.05Zm-.38-.13c-.01.06-.03.13-.04.19-.1-.08-.2-.17-.26-.29.11,0,.21.05.31.1Zm-.65-.54c.08.02.03.15-.05.13-.08-.02-.03-.15.05-.13Zm-.26.61c-.07,0-.14,0-.21,0,.01-.02.04-.07.06-.1.03,0,.08-.01.11-.02.01.03.03.09.04.12Zm-.17-1.16c0,.07,0,.14,0,.21.08.02.17.04.25.06-.17.03-.33-.03-.48-.1.07-.07.14-.12.23-.16Zm-.34.03c.14.02,0,.16-.08.09-.07-.05.03-.11.08-.09Zm-.69-.17c.11.11.25.21.29.37.03.18,0,.37.02.56-.08.02-.16.04-.23.07-.08-.11-.18-.2-.23-.33,0-.17.02-.34-.03-.51.06-.05.12-.11.18-.16Zm-.41,1.07c.07-.05.15.06.09.11-.07.05-.15-.06-.09-.11Zm-.28-1.08c.05.11.13.2.2.3,0,.08-.05.16-.08.23-.06-.07-.12-.14-.18-.22-.04.02-.08.04-.12.06.07-.12.13-.25.18-.38Zm-.29.71c.1-.11.26-.22.41-.12,0,.07,0,.15-.01.22-.08.02-.16.04-.24.06,0,.09-.01.17-.02.26-.03-.06-.06-.11-.09-.17-.09-.01-.17-.03-.26-.05.09-.03.19-.05.28-.06,0-.02.02-.05.03-.06-.02-.02-.07-.06-.1-.08Zm-1.32-.57c.07.07.14.13.21.2-.09-.02-.18-.05-.27-.08.02-.04.04-.08.07-.11Zm-.05.18s-.04.08-.05.11c-.06,0-.11-.02-.17-.02,0-.05,0-.1,0-.15.08.02.15.04.23.06Zm-.07.2c-.06.08-.13.16-.2.23-.02-.08-.04-.16-.06-.24.09,0,.17,0,.25,0Z" fill="#869cb3"/><path d="m95.43,138.12s-.08-.02-.12-.04c0,.02,0,.03,0,.05.04,0,.09-.01.13-.02Z" fill="#869cb3"/><path d="m96.12,146.5l2.69.67s-.01-.01-.02-.02c.08-.04.16-.07.25-.05-.01.05-.04.08-.07.1l4.04,1.01s.05,0,.07.02l2.12.53c-.05-.06-.11-.12-.17-.17-.04-.04-.09-.07-.14-.1l-4.77-1.19s0,.06-.01.09c-.13-.06-.28-.1-.39-.19l-3.54-.88c0,.06-.02.12-.05.18Zm5.52,1.23c.06-.06.16.05.09.1-.06.05-.16-.05-.09-.1Z" fill="#869cb3"/><path d="m97.16,136.38s.02.09.03.13l.18.04c-.06-.06-.13-.12-.21-.18Z" fill="#869cb3"/><path d="m97.51,136.44c-.07.02-.08.08-.08.14l.26.06c-.04-.09-.09-.17-.18-.2Z" fill="#869cb3"/><path d="m85.36,133.37c-.4-.1-.81.15-.91.55l-.15.62s.09.07.14.09c0,0,.02,0,.03,0l.17-.68c.08-.3.38-.49.68-.41l.9.23s0,0,.01,0c-.07-.07-.16-.13-.25-.16.03-.02.06-.04.09-.06l-.71-.18Z" fill="#869cb3"/><path d="m114.71,140.76s0-.05,0-.07l-.7-.18s.01.04.02.06c-.07,0-.13,0-.2,0,0,.03-.01.05-.02.08l.36.09c-.03-.06-.07-.12-.1-.18.17.12.38.05.55.15-.03.04-.06.08-.09.12l.61.15c.15-.03.29.03.43.06.05-.04.09-.08.14-.11-.04.05-.07.11-.11.16l.24.06s.05-.04.07-.07c-.02-.04-.05-.08-.07-.13l-1.1-.28s-.02.04-.03.06Z" fill="#869cb3"/><path d="m131.52,145.07l.85.21c0-.07-.02-.13-.02-.2l-.82-.2s.04.05.05.08c-.02.04-.04.07-.06.11Z" fill="#869cb3"/><path d="m100.8,137.34s-.08-.03-.13-.05c0,.02-.02.05-.03.08l1.51.38c.03-.06.06-.12.1-.17l-1.4-.35s-.04.07-.05.11Zm.65.19c-.09,0-.11-.03-.06-.1.09,0,.11.03.06.1Z" fill="#869cb3"/><path d="m133.41,150.78c.05-.1.1-.2.13-.31-.09-.01-.18-.02-.27-.03v.04s.02.06.03.08c-.02-.01-.04-.02-.05-.03l-.03.12s.07-.01.11-.02c.03.05.06.1.09.15Z" fill="#869cb3"/><path d="m133.49,145.5c-.03.08-.04.17-.06.25.06.11.07.25.04.38v.06c.04.08.09.16.1.25,0,0,0,.02,0,.03l.07-.29s.02-.1.02-.14c-.04-.13-.07-.26-.1-.39,0,0,0,0,0,0-.03-.05-.06-.1-.1-.14Z" fill="#869cb3"/><path d="m102.45,137.82l.44.11s0,0,0-.01c0,0,.02.01.03.02l.09.02c-.03-.08-.07-.16-.13-.23l-.13-.03c.01.06.03.11.04.17-.11-.05-.23-.09-.35-.05Z" fill="#869cb3"/><path d="m103.61,137.97c-.05-.03-.1-.06-.15-.09l-.33-.08c.04.05.09.1.12.16.07,0,.15.01.22.02,0,.02-.01.06-.02.1l.06.02c.08-.03.16-.05.24-.08.02.05.04.1.06.15l.41.1c-.09-.08-.19-.16-.25-.26l-.35-.09s0,.03-.01.05Z" fill="#869cb3"/><path d="m114.23,139.89l.11.03s0-.03-.01-.05c-.03,0-.06.01-.09.02Z" fill="#869cb3"/><path d="m131.46,155.64c.15.06.19.23.28.34.17.02.36,0,.48-.13-.22-.08-.44-.18-.65-.27-.04.02-.07.04-.11.06Z" fill="#869cb3"/><path d="m104.35,138.1c.04.06.06.13.07.21l3.97.99s.02-.03.04-.05c-.03-.02-.09-.07-.12-.09.04-.02.08-.03.12-.05l-4.07-1.01Z" fill="#869cb3"/><path d="m119.25,141.9s-.05-.07-.08-.1l-.19-.05s.06.09.09.14c-.01.02-.02.05-.04.07l.99.25c-.01-.06-.02-.13-.02-.2l-.62-.16s-.07.09-.13.05Z" fill="#869cb3"/><path d="m132.5,156.39c-.06,0-.12,0-.18,0,0,.06.02.11.03.17.05-.06.1-.11.15-.17Z" fill="#869cb3"/><path d="m85.43,143.71c.15.03.3.08.44.13,0,.04-.01.07-.02.11l.44.11c.02-.06.01-.13,0-.2l-.09-.02s-.08.09-.11.14c-.11-.04-.17-.12-.21-.22l-.77-.19s.02.03.03.05c-.03-.02-.06-.04-.1-.06l-.27-.07s0,.02,0,.03c-.06.05-.13.08-.2.12l.92.23s-.05-.1-.06-.15Z" fill="#869cb3"/><path d="m83.26,139.25c0,.05.01.11.02.16l.27-1.1c-.07.02-.14.04-.21.05l-.21.85s.09.01.13.02Z" fill="#869cb3"/><path d="m84.54,143.43l-.15-.04s.07.04.11.06c.01,0,.03-.02.04-.03Z" fill="#869cb3"/><path d="m83.67,137.06c.08-.06.15-.12.22-.2,0,.2-.1.37-.22.53.02-.08.05-.15.07-.23-.03,0-.07,0-.1,0l-.22.9c.05.08.09.17.13.25l.63-2.54s-.1-.05-.14-.08c.05.01.11.01.16,0l.1-.39c-.06-.02-.12-.03-.18-.04l-.45,1.79Zm.28-.9c.08-.03.12.1.05.13-.08.03-.12-.1-.05-.13Z" fill="#869cb3"/><path d="m131.65,156.03c-.09-.12-.21-.22-.33-.32-.25.09-.54.11-.82.04l-2.08-.52s0,0,0,0c-.02,0-.06.03-.09.04-.04-.03-.08-.07-.13-.1l-.09-.02c.06.08.13.15.19.22-.12,0-.24-.02-.34-.09,0-.06,0-.11.01-.17l-.43-.11c.01.17,0,.34,0,.51-.03,0-.09-.01-.12-.02-.02.05-.04.1-.05.14-.08-.01-.15-.03-.22-.04-.04.12-.13.22-.23.31.11.04.23.05.35.07-.04.14-.08.29-.04.42.06.14.22.06.33.04,0-.05.01-.11.02-.16.12-.04.23-.08.36-.09-.05.11-.15.18-.24.25,0,.05,0,.1.01.16l2.43.61c.61.15,1.22.1,1.77-.12-.02-.03-.04-.05-.06-.08.04.02.07.04.1.06.15-.06.29-.13.43-.22-.06-.14-.12-.29-.24-.4-.16-.14-.35-.25-.48-.42Zm-4.27-.05c.02-.09.04-.17.06-.25.07.09.14.18.23.26-.1.06-.2.05-.29,0Zm.88-.29c.03-.07.07-.14.1-.21.06.05.13.1.19.15-.09.05-.19.08-.3.07Zm.51-.08c-.02.12-.04.23-.06.34-.06-.04-.13-.09-.19-.13.08-.07.17-.14.25-.21Zm.34,1.11c-.17-.25-.41-.45-.55-.72.06.01.11.03.17.04,0,.04,0,.11.01.14.04,0,.11.02.14.03-.02-.08-.03-.16-.05-.24.09-.01.18-.03.27-.04.07.25.15.54,0,.79Z" fill="#869cb3"/><path d="m83.83,131.57s-.08.01-.11.02c-.07.04-.13.08-.19.12.08.04.15.09.23.13-.1.16-.06.35,0,.52-.08-.06-.17-.13-.25-.19.01-.05.03-.09.04-.14-.06,0-.12.01-.19.02-.02-.05-.04-.11-.06-.16-.05.04-.1.09-.14.13.05.03.09.07.14.1-.04.02-.08.04-.12.07.05.05.1.1.14.14-.13-.02-.26-.04-.4-.05-.24.3-.43.66-.54,1.05.11-.11.28-.1.42-.1-.08.13-.16.27-.24.4-.06-.06-.18-.11-.21-.2l-.09.38c.07,0,.12.08.15.14-.06.02-.14.03-.19.01l-.66,2.66s.03,0,.05.02c.09.06.14.16.2.24-.1.01-.21.03-.32.04l-.57,2.3s.02.03.03.04c.13.01.27-.03.4-.06-.04-.18-.1-.38-.04-.56.08.06.16.11.22.19,0,.23-.04.47-.19.64.1.18.21.36.4.46.07-.31.05-.63.02-.94.16-.09.34-.12.51-.04-.05.2-.11.39-.19.58.09.07.17.13.26.2l.3-1.18s-.02,0-.04,0c-.05.07-.1.13-.15.19-.09-.01-.1-.12-.15-.18.12-.08.25-.14.38-.18l.07-.28c-.1-.02-.21-.05-.31-.08-.17-.06-.28-.21-.44-.29-.1-.05-.22-.06-.32-.1-.05-.08-.09-.16-.11-.25.18-.22.47-.32.74-.37.05-.07.1-.14.16-.19.18-.02.36.03.46.19.04-.04.08-.08.11-.11,0,.03,0,.05-.01.08l.15-.59c-.11-.03-.21-.11-.3-.19.13-.21.28-.41.43-.61.02.03.03.06.05.09l.24-.96c-.13-.05-.26-.1-.38-.15-.12.07-.25.16-.4.11-.1-.06-.1-.19-.14-.29.05-.02.09-.03.14-.05.06.08.11.16.17.24.12-.1.28-.18.44-.14.08.02.15.04.23.06l.18-.74c.19-.75.95-1.21,1.71-1.03l2.71.68s-.06-.07-.09-.1c.23-.05.47-.04.68.07-.03.04-.05.1-.08.16l1.77.44s.07-.08.11-.11c.14-.08.3-.22.46-.11.08.09.12.24.07.35-.01,0-.03.01-.04.02l.55.14s.01-.03.02-.05c.07,0,.1.02.08.07l.78.2c-.02-.07-.04-.13-.05-.2.11,0,.2.05.26.14-.04.03-.08.05-.13.08l1,.25s-.07-.09-.1-.15c.15-.08.3,0,.44.03.02-.04.03-.08.05-.13.08.02.17.08.25.03.02-.14.02-.27.02-.41.03.03.06.06.09.08-.02.08-.08.16-.03.24.04.11.15.13.24.16-.03.05-.06.09-.09.14.05.04.09.07.14.11.02-.07.04-.15.07-.22.08.05.17.09.24.17.04.08.06.17.09.25.12.06.26.03.39.04,0,.03,0,.06,0,.09l.07.02c0-.06.02-.13.03-.19.12,0,.24,0,.36,0,.02-.08.03-.15.05-.23.07-.02.14-.04.21-.07.01.03.04.08.05.11-.07.06-.15.12-.22.18.1-.01.21-.03.31-.05,0-.06.01-.12.02-.19.02.06.04.12.06.17.05-.07.1-.14.14-.21.1-.01.2-.02.3-.02-.08.12-.16.25-.11.4-.1,0-.19.02-.28.08-.03-.05-.06-.1-.09-.15-.06.1-.12.19-.18.29.1.02.19.04.29.06,0,.01,0,.03,0,.04l1.04.26c.01-.06.02-.12.03-.19-.08-.02-.16-.03-.24-.05.06-.05.12-.14.21-.12.2.02.33.23.54.23-.05-.06-.09-.11-.14-.16.17.06.34.15.49.26,0,.02-.02.06-.03.08-.04,0-.12.02-.16.03.04.04.09.09.13.13l.18.04c.05-.05.1-.09.16-.14,0,.05-.02.12-.02.17l.25.06s.05-.01.07-.02c0,.01,0,.03,0,.04l1.19.3s.02-.06.03-.08c.11-.03.22-.06.33-.09,0,.04.02.11.02.15.13-.09.3-.17.31-.35.05-.03.09-.05.14-.08-.09-.08-.22-.13-.25-.25.16-.04.28.13.43.18-.06.1-.14.2-.17.31.02.08.06.16.09.23.12,0,.25.04.37.02.02-.06.03-.13.03-.2.17.24.46.43.76.35.04.04.09.08.13.11-.04,0-.11-.01-.14-.02.03.08.06.16.09.25l.53.13c.09-.04.19-.04.28-.06.05-.05.09-.13.16-.16.23-.01.42.16.57.31-.11-.02-.21-.04-.32-.04,0,.04,0,.08.02.12l5.58,1.39c.16-.03.32-.09.46.01-.02.04-.05.06-.08.08l2.54.63s.04-.05.06-.08c.04.04.07.08.11.12l1.6.4s.04-.04.06-.06c.09-.02.19,0,.29.01.01-.02.03-.07.05-.1.03.06.07.12.11.18.02-.07.05-.15.07-.22.08.05.15.1.23.14,0,.08,0,.16-.01.24l1.94.48s.03,0,.05,0c0,0,0,.01,0,.02l.94.23s0-.05-.01-.07c-.05-.02-.1-.05-.15-.07,0-.05.02-.1.03-.14.04,0,.11.02.14.02-.02-.1.02-.19.07-.27-.05-.03-.1-.05-.14-.08-.02-.06-.03-.12-.05-.19-.09-.05-.17-.09-.26-.14,0-.05,0-.09,0-.14-.13.04-.26.08-.4.07.05-.02.1-.04.15-.05,0-.03.02-.05.03-.08.07-.05.17-.09.17-.19-.07-.15-.17-.27-.27-.4,0,0,.01,0,.02,0l-.93-.23s0,0-.01,0c0,.08,0,.17,0,.25-.14.03-.26.11-.36.2.19.1.2.32.23.51-.05-.06-.1-.13-.14-.19-.08.07-.17.13-.25.2-.08-.08-.17-.16-.23-.26-.03-.09-.01-.18-.01-.27-.05.03-.1.07-.14.1-.05-.21-.1-.42-.09-.63,0-.06,0-.12-.01-.18l-.76-.19s0,.02,0,.03c-.02-.02-.04-.03-.06-.05l-5.14-1.28s-.03.05-.04.08c.07,0,.16,0,.22.04.04.1.03.21.04.32.11,0,.21-.02.31-.05.01-.06.03-.12.05-.18.03,0,.08.02.11.03.06.12.13.24.17.37-.15.1-.34.14-.44.3-.02-.02-.05-.06-.06-.08.04-.06.07-.13.11-.19-.1-.03-.2-.06-.3-.08,0,.09-.02.18-.03.27-.21-.07-.41-.15-.61-.23-.2.18-.49.16-.71.03-.09.1-.19.21-.27.32-.1-.06-.25-.14-.18-.28.03-.13.18-.14.29-.16.02-.02.06-.07.08-.1-.07,0-.14,0-.21,0,.03-.06.06-.12.1-.19.09.02.18.04.26.06-.01.06-.03.12-.04.17.1-.04.21-.08.32-.06-.05.07-.13.11-.2.15.07.02.14.04.21.05.17-.06.32-.17.51-.13.1-.11.19-.23.27-.35-.14-.05-.29-.05-.44-.03.01-.07.03-.14.04-.21l-1.42-.35c.05.11.09.22.11.34-.09-.04-.18-.08-.27-.12.04.1.07.25.2.27.17-.02.32-.09.48-.14.04.09.09.17.13.26-.2.02-.39.09-.58.18-.24-.16-.45-.37-.61-.61-.15.03-.3.06-.45.09.03.03.09.08.12.1-.16,0-.32-.03-.48,0-.12.02-.19.12-.26.21-.15,0-.3,0-.44-.05-.12-.05-.21-.16-.31-.24.03-.04.07-.08.1-.13-.27-.13-.56-.21-.8-.39.23-.04.46.03.66.15-.02-.11-.05-.22-.07-.33.06.06.11.12.17.18.01-.07.02-.14.04-.21-.1-.05-.2-.1-.31-.15.02,0,.05,0,.07-.01l-.18-.05s-.02.04-.04.05c-.12-.01-.27.03-.37-.05-.07-.05-.14-.1-.2-.15l-.54-.14s.03.01.04.02c0,.07,0,.15,0,.22-.09-.05-.17-.1-.26-.15.02-.04.03-.09.05-.13l-.5-.12s-.05.04-.08.07c-.03-.01-.06-.03-.09-.04.02-.02.04-.04.06-.06l-.23-.06s0,.01,0,.01c-.02,0-.05-.02-.07-.03l-.36-.09c.2.1.41.19.6.33-.02.06-.04.12-.06.17.06.03.12.06.17.09-.14.04-.29.02-.43-.02.06-.04.13-.09.2-.13-.24-.13-.5-.22-.74-.34-.08-.04-.17-.03-.26-.04-.01-.01-.03-.03-.04-.04.11,0,.22-.02.32-.07l-.18-.05c-.09.01-.19.02-.27.06-.06.05-.1.12-.15.18-.07-.01-.15-.02-.22-.03.04-.12.09-.23.16-.33l-1.19-.3c.02.06.04.13.07.19.12.07.26.1.39.15.02.11.04.21.06.32-.16.01-.31.04-.47.08-.08-.08-.16-.17-.24-.25.02-.03.06-.09.07-.12.1.07.2.16.31.23-.12-.19-.32-.31-.46-.48-.01-.06-.02-.12-.03-.18l-.07-.02c-.01.07-.02.14-.02.21-.02,0-.07.01-.1.02-.03.08-.06.16-.08.24-.12-.05-.16-.17-.2-.27-.1-.11-.23-.21-.31-.35-.05,0-.1.01-.16.02,0,.15,0,.3-.05.45-.22-.13-.36-.35-.53-.53.02-.05.05-.09.08-.13l-1.06-.26s0,0,0,0c-.03.02-.08.07-.1.1-.1-.03-.21-.05-.31-.08,0-.04.02-.08.03-.13l-.71-.18c-.06,0-.12,0-.17-.04l-.53-.13c.1.14.17.3.25.46-.15-.03-.27-.12-.37-.22-.04,0-.08.02-.11.03-.05-.04-.11-.08-.16-.12.07-.01.15-.02.22-.03.01-.05.02-.1.03-.15l-.94-.23s-.01,0-.02,0c0,0,0,0-.01,0l-.2-.05s.04.08.06.12c-.14,0-.28,0-.42.01-.01.07-.02.13-.02.2.08.07.17.03.26,0,.04.03.09.07.13.1.07-.07.15-.13.24-.17,0,.13,0,.29-.1.39-.2.02-.42-.06-.61.05.03.01.1.03.13.05-.09.11-.17.22-.25.34-.16-.04-.32-.06-.48-.11-.08-.05-.15-.12-.23-.17-.1-.03-.2-.03-.3-.05.05,0,.1-.02.16-.02-.03-.14-.07-.28-.21-.34.07,0,.13,0,.2,0,.09-.12.19-.22.3-.32.04.07.08.14.12.2-.12.07-.25.14-.38.2.09.03.19.04.28.09.08.09.12.2.17.31.12-.09.23-.18.34-.28-.02.09-.04.19-.06.28.08-.01.15-.04.22-.08-.02-.06-.04-.11-.06-.17.1-.06.19-.13.29-.2-.1-.04-.2-.08-.3-.12,0,.07,0,.13-.01.2-.05,0-.1.02-.15.03-.03-.09-.05-.17-.08-.26.22-.09.43-.2.66-.27,0-.01-.01-.03-.02-.04l-.88-.22s-.04.04-.06.06c-.17-.03-.33-.02-.5.01,0,.11-.02.23-.03.34-.05-.13-.1-.26-.14-.38-.09.09-.18.17-.27.25.04-.11.07-.21.11-.32-.08-.05-.13-.13-.16-.22l-1.21-.3s.07.05.09.06c-.04.12-.17.13-.27.17-.04-.1-.07-.2-.09-.3l-.32-.08s-.04.07-.06.1c.1.05.19.09.29.14-.12-.04-.24-.07-.36-.06.06.08.11.17.14.27.08.03.16.05.24.08,0-.04.01-.09.02-.13.08.03.16.06.23.09.04-.03.09-.06.14-.09.07.03.13.08.2.12.07-.04.13-.11.21-.12.1.06.18.15.26.23,0,.1-.02.2,0,.31.12.19.36.25.56.32.08.07.11.18.16.27-.08,0-.17.01-.25.02-.02-.08-.04-.15-.06-.23-.03.05-.05.09-.08.14-.28.02-.55-.1-.79-.24-.12-.07-.17-.21-.27-.3-.11-.05-.24-.07-.35-.13-.08-.09-.15-.18-.22-.27-.07.1-.14.2-.24.28,0-.07,0-.13,0-.2-.03,0-.1-.02-.14-.03-.01.05-.03.11-.04.16-.11,0-.21.02-.32,0-.11-.14-.28-.25-.34-.43.05-.06.1-.12.15-.18-.09-.02-.19-.04-.28-.05.03,0,.1,0,.14,0,.04-.12.12-.22.24-.27l-2.05-.51c.09.06.15.16.19.25-.09.02-.18.04-.26.07.08.14.24.02.36,0,.03.06.05.12.08.17-.17-.04-.35-.11-.5.03-.18-.04-.36-.2-.31-.39.12-.02.23,0,.34.04.03-.06.05-.12.08-.18l-.75-.19s0,0,0,0c-.06.02-.08.02-.09-.02l-.21-.05c.03.09.04.19.05.29-.03-.01-.08-.04-.1-.06,0-.08,0-.16,0-.24l-.09-.02c-.71-.18-1.42-.07-2.03.24,0,.02-.02.04-.03.06Zm32.62,7.76c.05.08.09.17.14.26.07,0,.14-.02.21-.02-.04.04-.08.08-.12.12.01.02.04.07.05.09-.02.01-.05.03-.07.05.09.08.15.19.19.3.04-.01.08-.02.11-.03.04.09.08.18.12.27-.1.08-.22.23-.36.12-.03-.17-.06-.34-.01-.5-.12-.09-.27-.18-.34-.32-.04-.11.04-.22.07-.32Zm.03.58c-.01.13-.02.25-.02.38-.1,0-.2.01-.3-.02.06-.14.09-.3.11-.46.07.03.14.06.22.09Zm-1.16-.02s-.05.1-.07.15c.05,0,.1,0,.14.01.01.02.03.06.04.08-.13-.02-.27-.04-.4-.06.07-.09.17-.15.28-.18Zm-4.54-1.38c-.04-.06-.07-.13-.11-.19.13.01.26.02.36.12-.08.02-.16.05-.24.07Zm2.54.45c.08.11.11.24.14.37-.06-.06-.13-.12-.19-.18.02-.06.03-.13.05-.19Zm-.72,0c.03.08.02.17.02.26-.08-.08-.16-.18-.24-.26-.03.07-.06.13-.09.2-.04-.06-.07-.13-.1-.19.06-.05.12-.1.18-.16.08.04.21.05.24.15Zm-1.12-.92c.1-.06.22-.09.33-.1.01-.03.03-.08.04-.11.02.04.03.08.05.12.08-.03.17-.07.25-.1-.05.06-.1.11-.15.17.06.13.1.27.18.38.14.08.29.14.44.2,0,.03,0,.1-.01.14-.12.02-.24.02-.32-.07-.16-.15-.38-.18-.58-.24-.06-.13-.12-.25-.2-.36-.15.11-.25.29-.46.28,0-.09.01-.19.04-.28.13,0,.26.02.38-.05Zm-.75.07s.08.06.12.09c.05-.02.09-.03.14-.05-.02.03-.05.08-.07.1-.11-.01-.23-.02-.34-.03,0-.02-.02-.05-.02-.07.05-.01.11-.03.16-.04Zm-.59.07c-.02.06-.03.12-.05.18.03.03.05.05.08.08-.12.02-.24.05-.36.09,0-.11,0-.22,0-.33.11,0,.22-.02.33-.03Zm-.36-.32c.04.09.02.2.03.3-.11-.04-.21-.09-.31-.13.01-.07.03-.14.04-.21.08.01.16.02.24.04Zm-.56.51c-.06.04-.11.09-.17.13.01-.14.03-.27.06-.41.07.08.09.18.11.28Zm-.19-.41c.08-.01.09.12,0,.12-.08.01-.09-.12,0-.12Zm-2.87-.79c.15.04.32.01.44.12.11.08.21.18.3.28-.09.04-.18.09-.28.12-.12.02-.23-.03-.34-.06.01-.07.02-.14.03-.21-.12-.11-.27-.17-.43-.21.04.09.07.18.1.28-.07-.04-.14-.07-.2-.12,0-.09,0-.19,0-.28.12.02.24.06.37.09Zm-1.99-1.07c-.08.01-.16.03-.24.04-.03-.05-.05-.09-.08-.14.1.04.21.07.32.1Zm-.61.22s0-.09,0-.14c.16.04.32.11.45.22.28.22.68.37.81.73-.06.16-.28.15-.42.17.01-.07.02-.14.03-.21-.32-.17-.65-.4-1.03-.36.11-.09.23-.17.36-.24-.06-.05-.13-.11-.19-.16Zm-1.07-.21c.11.1.12.26.14.4-.08-.07-.15-.13-.23-.2-.09,0-.18.01-.27.02-.01-.08-.03-.16-.04-.24.13-.01.27-.02.4.03Zm-.65-.58c.06-.03.14.02.14.08-.03.09-.19-.01-.14-.08Zm-1.12.29c-.03.09-.05.19-.08.28-.03,0-.1-.03-.14-.03.07-.08.14-.17.21-.25Zm-.13-.6c.07-.03.1.1.04.12-.07.03-.1-.1-.04-.12Zm-.3.6c.04.09.08.19.13.28-.08.02-.16.04-.24.06,0-.12.05-.24.12-.34Zm-.05-.1c-.11.13-.25.03-.34-.06.11.01.23.03.34.06Zm-1.53.06c-.08.02-.2-.09-.17-.18.08,0,.2.09.17.18Zm-2.62-1.95c-.02.06-.05.11-.07.17.15.05.28.12.41.2-.07.02-.13.03-.2.05-.06-.07-.13-.15-.19-.21,0,.08-.01.17-.02.25-.05-.07-.1-.13-.14-.2-.02-.08.02-.16.04-.23.06,0,.12-.02.18-.03Zm-.5.2c.08-.04.13.09.05.13-.08.04-.13-.1-.05-.13Zm-.29,0c0,.08.01.16.01.24.21.02.29.23.4.37-.05.1-.12.2-.2.27,0-.08.01-.16.02-.24-.25-.02-.42-.24-.48-.47.08-.06.16-.12.24-.18Zm-.31.05c-.04.07-.08.14-.12.21-.11-.07-.07-.2-.05-.31.06.03.11.07.17.1Zm-1.16-.52c-.07,0-.09-.03-.06-.09.08,0,.09.03.06.09Zm.04.73c.09.01.17,0,.26.01-.09.05-.17.1-.26.15-.05-.02-.09-.03-.13-.05-.05.02-.1.03-.15.05,0-.13,0-.26.02-.39.08.08.17.16.26.22Zm-.43.09c.11-.01.09.16-.01.15-.11.01-.09-.15.01-.15Zm-10.43-.32c-.01-.24.08-.48.26-.64-.01.08-.03.16-.05.24.07.06.15.12.22.18-.14.09-.26.23-.43.21Zm1.57-1.69c0,.05.01.1.02.15-.06.04-.13.08-.19.12-.1-.18-.06-.37-.02-.56.03.12.07.24.2.29Zm-.3.59c-.08-.01-.17-.03-.25-.04.03.06.07.12.1.18-.17.01-.31-.08-.45-.17.13-.05.25-.11.39-.12.1,0,.16.08.21.15Zm-.55-.23c-.13,0-.14-.17-.18-.27.09,0,.18,0,.27,0-.02.09.02.22-.09.26Z" fill="#869cb3"/><path d="m90.75,133.17c.04.1.07.23.19.25.08.05.14-.03.21-.07-.12-.1-.25-.18-.4-.19Z" fill="#869cb3"/><path d="m91.13,133.12c0-.06-.08-.12-.14-.09-.05.07.11.17.14.09Z" fill="#869cb3"/><path d="m84.76,144.92c.06-.03.01-.15-.05-.12-.06.03-.02.15.05.12Z" fill="#869cb3"/><path d="m108.63,139.17s-.03.06-.04.08c.02.03.06.08.08.11.09-.02.17-.04.26-.06-.02.04-.03.08-.05.12,0,0,0,0,0,0l1,.25c-.11-.08-.24-.12-.36-.18.01-.03.02-.06.03-.09l-.91-.23Z" fill="#869cb3"/><path d="m89.37,132.18c-.18.04-.02.2.04.28.08,0,.15,0,.22-.02-.03-.13-.1-.28-.26-.26Z" fill="#869cb3"/><path d="m91.92,132.87c.07.02.13,0,.17-.05l-.25-.06s.03.13.09.11Z" fill="#869cb3"/><path d="m98.43,134.4l-.23-.06c.03.06.05.11.08.17.05-.04.1-.07.15-.11Z" fill="#869cb3"/><path d="m89.01,132.76s.06-.02.09-.03c.08.1.2.09.31.07,0-.08,0-.17-.01-.25-.15-.04-.29-.02-.44.02.02.06.03.13.05.19Z" fill="#869cb3"/><path d="m104.77,136.46c.08.15.13.31.19.47.27-.07.56.04.81-.1.19-.1.36-.22.53-.33.08-.06.18-.04.28-.03.05,0,.1,0,.15,0l-1.63-.41c-.08.02-.16.06-.23.12.28.09.58.08.85.21-.07.04-.14.07-.21.11,0,.06,0,.11,0,.17-.26-.02-.5-.11-.74-.21Z" fill="#869cb3"/><path d="m101.2,135.09l-.11-.03s.04.04.06.06c.01-.01.03-.03.05-.04Z" fill="#869cb3"/><path d="m104.73,137.08c-.11-.08-.22-.17-.32-.25,0,.07.01.14.02.21.1.01.2.03.3.04Z" fill="#869cb3"/><path d="m89.79,132.25s0,0,.01,0h-.02s0,0,0,0Z" fill="#869cb3"/><path d="m103.92,136.58c-.06.05-.12.09-.18.14.09.03.18.05.27.07-.02-.07-.05-.15-.08-.22Z" fill="#869cb3"/><path d="m104.29,136.7c-.04-.08-.1-.14-.18-.17,0,.04,0,.08,0,.12-.04.05-.07.09-.1.14.1.02.19-.03.28-.08Z" fill="#869cb3"/><path d="m101.54,136.57c-.09.01-.16.05-.23.1l.84.21c-.04-.06-.07-.11-.12-.16-.15-.08-.32-.12-.49-.15Z" fill="#869cb3"/><path d="m98.03,135.85h.05s-.03,0-.05,0Z" fill="#869cb3"/><path d="m94.4,134.95l.22.05c-.07-.05-.17-.08-.23-.12,0,.02,0,.04.01.06Z" fill="#869cb3"/><path d="m98.69,136.89l1.83.46s-.06-.03-.09-.04c.01-.02.03-.06.04-.08-.07-.02-.14-.03-.2-.05.05,0,.11.01.16.02,0-.02-.01-.04-.02-.06l-1.73-.43c0,.06.01.13,0,.19Z" fill="#869cb3"/><path d="m100.85,136.3s-.05-.06-.07-.08c-.02.02-.05.07-.06.09.03.08.06.16.09.24l.13.03c.03-.11.03-.22.03-.33-.04.02-.08.04-.12.06Z" fill="#869cb3"/><path d="m100.63,136.5l.11.03s-.06-.03-.08-.04c0,0-.02,0-.03.01Z" fill="#869cb3"/><path d="m115.66,138.7l-.36-.09c-.07.06-.08.19-.1.28-.03.12.12.15.2.19-.05-.09-.1-.17-.15-.26.11,0,.23,0,.34,0,.02-.04.04-.08.06-.12Z" fill="#869cb3"/><path d="m133.65,150.45c-.01.09-.03.18-.04.28.05,0,.11,0,.16,0,0-.11,0-.23-.13-.27Z" fill="#869cb3"/><path d="m93.51,135.45s0-.03.01-.04l-.06-.02s.04.04.05.06Z" fill="#869cb3"/><path d="m120.76,140.44c.05-.11.09-.23.13-.34.13.02.27.12.39.02,0,0,.02-.01.02-.02l-.62-.16c.03.16-.09.38.08.49Z" fill="#869cb3"/><path d="m86.45,133.64c-.02.07-.06.12-.11.17l2.07.52c0-.06.03-.12.07-.18l-2.07-.51s.02,0,.03,0Z" fill="#869cb3"/><path d="m91.11,134.84s.02-.02.03-.03l-.14-.04c0,.05.07.1.12.06Z" fill="#869cb3"/><path d="m89.1,132.27c.06-.01.12-.02.18-.03,0-.04,0-.07,0-.11l-.14-.03c-.01.06-.03.12-.04.18Z" fill="#869cb3"/><path d="m115.98,141.2l.19.05c-.05-.05-.1-.11-.15-.16-.01.04-.03.07-.04.11Z" fill="#869cb3"/><path d="m92.47,133.85c-.06.07.07.17.14.14.05-.07-.07-.18-.14-.14Z" fill="#869cb3"/><path d="m108.97,137.33c-.04.12-.06.25-.07.38.03.01.08.03.1.05,0-.14.02-.29-.04-.42Z" fill="#869cb3"/><path d="m154.31,101.51c-1.56,3.05-3.53,4.74-5.61,5.57-1.04.42-2.11.61-3.16.65-5.02.2-9.71-3.16-9.71-3.16,0,0-.04-.01-.12-.05-.81-.35-5.46-2.46-7.78-6.41-.53-.91-.94-1.91-1.15-3.01-.43-2.19-.07-4.76,1.66-7.72,3.65-6.26,12.02-6.11,15.17-11.87,5.54-10.13.51-26.03,9.35-42.2,8.84-16.17,20.81-13.28,27.18-9.78,6.38,3.5,15.28,11.99,6.45,28.16-8.84,16.17-24.94,20.53-30.48,30.66-3.15,5.76,1.5,12.72-1.8,19.17Z" fill="#fff" stroke="#869cb3" stroke-miterlimit="10"/><path d="m169.71,148.37l-44.65-24.4-44.37-24.25,15.09-16.68c.89-.98,2.34-1.23,3.5-.59l25.55,13.96,3.1,1.7,8.69,4.75,8.91,4.87,3.1,1.7,25.55,13.97c1.16.64,1.74,1.99,1.4,3.27l-5.89,21.71Z" fill="#fff" stroke="#869cb3" stroke-miterlimit="10"/><polygon points="166.59 149.48 123.87 126.13 81.45 102.94 82.61 100.8 125.04 123.99 167.75 147.34 166.59 149.48" fill="#fff" stroke="#869cb3" stroke-miterlimit="10"/><path d="m149.26,108.32l-.61,1.11-3.1-1.7-8.91-4.87-8.69-4.75-3.1-1.7.6-1.1c.22-.4.72-.55,1.13-.33l.22.12,10.85,5.93,11.07,6.05.22.12c.4.22.55.72.33,1.12Z" fill="#fff" stroke="#869cb3" stroke-miterlimit="10"/><path d="m174.78,23.36c-9.26-1.45-18.31,6.72-21.04,14.4" fill="#fff" stroke="#869cb3" stroke-miterlimit="10"/></svg>