<?xml version="1.0" encoding="UTF-8"?>
<svg xmlns="http://www.w3.org/2000/svg" xmlns:xlink="http://www.w3.org/1999/xlink" viewBox="0 0 250 180">
  <defs>
    <style>
      .cls-1 {
        opacity: .61;
      }

      .cls-2 {
        fill: none;
      }

      .cls-3 {
        fill: #fff;
        stroke: #869cb3;
        stroke-miterlimit: 10;
      }

      .cls-4 {
        fill: #e9f0f7;
      }

      .cls-5 {
        clip-path: url(#clippath);
      }
    </style>
    <clipPath id="clippath">
      <path class="cls-2" d="M223.41,73.94l-6.5-5.11c-.46-8.62-1.47-15.95-1.69-18.56-.69-8.14-15.38-22.75-33.93-19.75-18.56,3-28.11,19.99-25.11,38.54.4,2.48,3.45,13.51,5.72,21.56,1.63,5.8,1.89,11.91.74,17.83l-5.49,15.88,37.95-6.14-4.14-13.68c20.6,11.95,25.65-5.67,26.15-24.1l5.86-2.7c1.51-.7,1.75-2.74.44-3.77h0Z"/>
    </clipPath>
  </defs>
  <g id="graficas">
    <g class="cls-1">
      <g class="cls-5">
        <g>
          <path class="cls-4" d="M163.62,18.08l-.13.05c-.15-.28-.32-.53-.49-.8l-27.44,56.4,1.18-.41,26.88-55.24h0Z"/>
          <path class="cls-4" d="M166.04,18.3l-.13.05c-.15-.28-.32-.53-.49-.8l-27.44,56.4,1.18-.41,26.88-55.24h0Z"/>
          <path class="cls-4" d="M168.47,19.6l-.13.05c-.15-.28-.32-.53-.49-.8l-27.44,56.4,1.18-.41,26.88-55.24h0Z"/>
          <path class="cls-4" d="M170.89,20.03l-.13.05c-.15-.28-.32-.53-.49-.8l-27.44,56.4,1.18-.41,26.88-55.24h0Z"/>
          <path class="cls-4" d="M173.32,21.12l-.13.05c-.15-.28-.32-.53-.49-.8l-27.44,56.4,1.18-.41,26.88-55.24h0Z"/>
          <path class="cls-4" d="M175.75,22.2l-.13.05c-.15-.28-.32-.53-.49-.8l-27.44,56.4,1.18-.41,26.88-55.24h0Z"/>
          <path class="cls-4" d="M178.17,23.07l-.13.05c-.15-.28-.32-.53-.49-.8l-27.44,56.4,1.18-.41,26.88-55.24h0Z"/>
          <path class="cls-4" d="M180.6,23.72l-.13.05c-.15-.28-.32-.53-.49-.8l-27.44,56.4,1.18-.41,26.88-55.24h0Z"/>
          <path class="cls-4" d="M183.02,24.37l-.13.05c-.15-.28-.32-.53-.49-.8l-27.44,56.4,1.18-.41,26.88-55.24h0Z"/>
          <path class="cls-4" d="M185.45,25.24l-.13.05c-.15-.28-.32-.53-.49-.8l-44.9,95.67,1.18-.41,44.34-94.51h0Z"/>
          <path class="cls-4" d="M187.88,26.54l-.13.05c-.15-.28-.32-.53-.49-.8l-44.9,95.67,1.18-.41,44.34-94.51h0Z"/>
          <path class="cls-4" d="M190.3,27.62l-.13.05c-.15-.28-.32-.53-.49-.8l-44.9,95.67,1.18-.41,44.34-94.51h0Z"/>
          <path class="cls-4" d="M192.73,28.71l-.13.05c-.15-.28-.32-.53-.49-.8l-44.9,95.67,1.18-.41,44.34-94.51h0Z"/>
          <path class="cls-4" d="M195.15,29.79l-.13.05c-.15-.28-.32-.53-.49-.8l-44.9,95.67,1.18-.41,44.34-94.51h0Z"/>
          <path class="cls-4" d="M197.58,30.88l-.13.05c-.15-.28-.32-.53-.49-.8l-44.9,95.67,1.18-.41,44.34-94.51h0Z"/>
          <path class="cls-4" d="M200.01,31.53l-.13.05c-.15-.28-.32-.53-.49-.8l-44.9,95.67,1.18-.41,44.34-94.51h0Z"/>
          <path class="cls-4" d="M202.43,32.18l-.13.05c-.15-.28-.32-.53-.49-.8l-44.9,95.67,1.18-.41,44.34-94.51h0Z"/>
          <path class="cls-4" d="M205.68,32.61l-.13.05c-.15-.28-.32-.53-.49-.8l-44.9,95.67,1.18-.41,44.34-94.51h0Z"/>
          <path class="cls-4" d="M208.07,33.69l-.13.05c-.15-.28-.32-.53-.49-.8l-44.9,95.67,1.18-.41,44.34-94.51h0Z"/>
          <path class="cls-4" d="M210.88,34.99l-.13.05c-.15-.28-.32-.53-.49-.8l-44.9,95.67,1.18-.41,44.34-94.51h0Z"/>
          <path class="cls-4" d="M214.14,35.86l-.13.05c-.15-.28-.32-.53-.49-.8l-44.9,95.67,1.18-.41,44.34-94.51h0Z"/>
          <path class="cls-4" d="M216.74,36.73l-.13.05c-.15-.28-.32-.53-.49-.8l-44.9,95.67,1.18-.41,44.34-94.51h0Z"/>
          <path class="cls-4" d="M219.55,37.16l-.13.05c-.15-.28-.32-.53-.49-.8l-44.9,95.67,1.18-.41,44.34-94.51h0Z"/>
          <path class="cls-4" d="M221.94,38.46l-.13.05c-.15-.28-.32-.53-.49-.8l-44.9,95.67,1.18-.41,44.34-94.51h0Z"/>
          <path class="cls-4" d="M224.54,39.76l-.13.05c-.15-.28-.32-.53-.49-.8l-44.9,95.67,1.18-.41,44.34-94.51h0Z"/>
          <path class="cls-4" d="M227.14,41.06l-.13.05c-.15-.28-.32-.53-.49-.8l-44.9,95.67,1.18-.41,44.34-94.51h0Z"/>
          <path class="cls-4" d="M229.74,42.36l-.13.05c-.15-.28-.32-.53-.49-.8l-44.9,95.67,1.18-.41,44.34-94.51h0Z"/>
          <path class="cls-4" d="M232.12,43.88l-.13.05c-.15-.28-.32-.53-.49-.8l-44.9,95.67,1.18-.41,44.34-94.51h0Z"/>
          <path class="cls-4" d="M233.86,45.61l-.13.05c-.15-.28-.32-.53-.49-.8l-44.9,95.67,1.18-.41,44.34-94.51h0Z"/>
          <path class="cls-4" d="M235.81,46.48l-.13.05c-.15-.28-.32-.53-.49-.8l-44.9,95.67,1.18-.41,44.34-94.51h0Z"/>
          <path class="cls-4" d="M237.76,47.57l-.13.05c-.15-.28-.32-.53-.49-.8l-44.9,95.67,1.18-.41,44.34-94.51h0Z"/>
          <path class="cls-4" d="M239.28,48.87l-.13.05c-.15-.28-.32-.53-.49-.8l-44.9,95.67,1.18-.41,44.34-94.51h0Z"/>
        </g>
      </g>
    </g>
    <path class="cls-3" d="M221.32,130.7c-10.89,17.26-30.13,28.73-52.05,28.73s-41.16-11.47-52.05-28.73c1.94-4.52,5.16-8.42,10.36-11.43,4.74-2.74,11.37-4.58,18.72-5.73,7.34-1.15,15.39-1.61,22.98-1.61,15.17,0,32.2,1.85,41.69,7.34,5.2,3.01,8.42,6.91,10.36,11.43h0Z"/>
    <path class="cls-3" d="M184.42,112.83v-14.66h-30.31v14.66c-4.6.78-7.8,2.35-7.8,5.66,0,6.45,8.73,13.14,22.96,13.14s22.96-6.7,22.96-13.14c0-3.3-3.2-4.87-7.8-5.66h0Z"/>
    <path class="cls-3" d="M150.77,80.24c0-4.55-2-10.09-4.46-10.09s-4.99.88-4.99,5.43c0,2.19.78,7.1,1.53,9.26.81,2.32,2.18,3.65,3.45,3.65,2.46,0,4.46-3.69,4.46-8.24h.01Z"/>
    <path class="cls-3" d="M187.76,80.24c0-4.55,2-10.09,4.46-10.09s4.99.88,4.99,5.43c0,2.19-.78,7.1-1.53,9.26-.81,2.32-2.18,3.65-3.45,3.65-2.46,0-4.46-3.69-4.46-8.24h-.01Z"/>
    <path class="cls-3" d="M169.27,42.15h0c-18.24,0-23.22,15.72-23.22,35.11,0,12.86,4.02,22.03,11.52,27.31,5.28,3.72,7.45,4.78,11.7,4.78h0c4.25,0,6.42-1.06,11.7-4.78,7.5-5.29,11.52-14.45,11.52-27.31,0-19.39-4.98-35.11-23.22-35.11Z"/>
    <path class="cls-3" d="M192.46,77.56c-1.36,0-.78-4.16-.86-4.83-.12-1.05-.74-1.71-.97-2.68-.33-1.34.33-2.03.51-3.28.29-1.92-.79-4.5-1.23-6.4-.42-1.84-1.33-4-2.11-5.72-.6-1.32-1.43-2.14-2.89-2.39-2.28-.39-3.02.43-5.2-.77-2.15-1.19-3.28-1.25-5.47-.28-2.41,1.06-3.46.93-5.92.18-2-.61-3.07.03-5.05.12-2.57.12-4.6-1.79-7.29-1.43-2.2.3-3.6,1.62-4.73,3.46-.91,1.49-2.69,3.81-2.95,5.53-.24,1.59.1,2.96-.32,4.61-.35,1.38-.43,2.76-.52,4.19-.15,2.56.58,5.48-.27,7.94-1.64,4.76-3.65-2.52-3.76-4.28-.11-1.73-.41-3.44-.51-5.19-.17-2.96-1.46-4.86-2.19-7.62-.63-2.38.42-3.38,1.46-5.35,1.23-2.34-.74-3.17-.63-5.39.12-2.27,2.31-2.89,3.41-4.52,1.2-1.77.29-3.92,1.64-5.67,1.19-1.54,3.42-2.72,4.95-3.9,1.64-1.26,3.4-2.51,5.56-2.11,1.54.29,1.85.81,3.3-.06.85-.51,1.4-1.43,2.44-1.72,1.55-.43,1.92.48,3.2,1.04,1.85.81,2.54-.54,4.26-1.01,2.59-.72,4.43,1.01,6.78,1.71,1.76.53,3.27-.32,4.97.03,1.86.38,3.13,2.29,4.75,3.17,1.89,1.04,2.95,1.69,4.33,3.41.49.61,1.09,1.01,1.59,1.55.98,1.07.61.97.64,2.14.04,1.98,1.05,1.84,2.21,3.63,1.55,2.39.76,4.5.55,7.04-.18,2.21,1.33,3.62.48,5.88-.32.84-.94,1.51-1.02,2.45-.1,1.31.92,2.11,1.01,3.35.11,1.49-.96,2.29-1.47,3.58-.52,1.3-.49,2.81-.61,4.19-.09.95-.43,5.39-2.07,5.39h0Z"/>
    <path class="cls-4" d="M191.12,66.87c-.21-1.41-.89-2.98-1.21-4.21-.42-1.6-1.33-3.47-2.11-4.96-.6-1.15-1.42-3.1-2.89-3.31-2.27-.34-2.64,1.23-4.82.19-2.15-1.03-3.66-.71-5.85.13-2.41.92-3.47.8-5.92.16-2.01-.53-3.07.02-5.06.1-2.57.1-4.6-2.35-7.28-2.03-2.2.26-2.91,2.89-4.04,4.48-.91,1.29-2.7,3.31-2.95,4.79-.24,1.39.1,2.56-.31,4-.35,1.19-.43,2.39-.52,3.63-.16,2.22-.11,4.06-.96,6.2-.3.75-.56,1.11-.8,1.19.27-.22.54-.67.8-1.42.85-2.46.11-5.39.27-7.95.09-1.42.17-2.81.52-4.18.42-1.65.07-3.02.31-4.61.26-1.72,2.04-4.04,2.95-5.53,1.13-1.84,2.53-3.16,4.73-3.46,2.68-.36,4.71,1.55,7.28,1.43,1.99-.09,3.05-.72,5.06-.11,2.45.75,3.51.88,5.92-.18,2.19-.96,3.31-.91,5.47.28,2.17,1.2,2.92.38,5.2.77,1.47.26,2.29,1.07,2.89,2.39.78,1.73,1.69,3.88,2.11,5.72.43,1.9,1.52,4.48,1.23,6.4,0,.03,0,.06-.02.09h0Z"/>
    <path class="cls-3" d="M134.97,130.57c-11.83,14.33-29.74,23.48-49.78,23.48s-37.94-9.13-49.77-23.47c.52-9.84,3.15-18.37,11.79-23.9,4.32-2.77,10.36-4.62,17.05-5.77,6.69-1.16,14.02-1.63,20.93-1.63,13.82,0,29.34,1.86,37.98,7.4,8.63,5.53,11.27,14.06,11.79,23.9h.01Z"/>
    <path class="cls-3" d="M124.57,62.89c-.85-2.12,1.15-3.18,1.19-5.95.02-1.21-.77-2.54-1.79-3.4-1.3-1.09-2.88-1.53-4.27-2.43-1.35-.87-2.15-3.18-2.18-4.93-.03-2.09.04-5.66-1.94-7.64-1.81-1.82-4.14-2.57-4.75-5.25-.3-1.31,0-2.63-1.11-3.61-1.48-1.3-2.71-.68-3.75-2.66-.67-1.29-.62-2.33-1.82-3.35-1.06-.89-2.62-1.72-3.93-2.23-1.28-.49-2.48-.42-3.81-.63-1.63-.27-2.91-1.37-4.52-1.63-1.53-.25-2.78.24-4.29-.38-1.64-.67-2.49-1.62-4.48-1.41-1.33.14-2.37.88-3.59,1.31-1.78.62-3.36-.09-5.11.27-3.05.62-2.61,2.33-4.64,3.54-.96.57-2.65.88-3.7,1.44-1.73.93-1.05,2.27-1.5,3.91-.43,1.56-.46,1.61-1.92,2.27-1.37.62-4.26.66-5.5,4.11-.44,1.23-.23,2.94-.97,3.41-1.24.79-1.88.27-3.26-.07-1.47-.36-2.37,0-3.07,1.06-.37.56-.58,1.65-1.19,2-1.06.6-2.37.15-3.43.74-.92.51-1.74,1.5-1.51,2.81.2,1.16.34,2.39.29,3.39-.1,1.95-2.33,2.02-1.98,4.25.32,2.04,3.91,1.84,2.27,4.12-.63.87-1.58,1.67-2.13,2.77-.87,1.78-.73,3.01-.4,3.66.94,1.88.65,3.56,2.36,4.98,1.16.96,2.1.89,2.85,2.43.45.92-.24,1.82-.49,3.1-.42,2.08.42,4.19,2.34,4.83.81.27,2.21.4,2.77,1.21.83,1.22.35,1.77.43,3.18.22,3.61,3.8,1.71,5.63,3.5,1.11,1.08.37,2.54.99,3.73.52,1.01,1.18,1.72,3.97,1.72,1.35,0,1.46,2.26,2.61,2.87,1.7.9,2.72-.74,4.23.6,1.9,1.69,2.72,2.93,5.38,3.56,4.9,1.18,10.36,1.65,15.35.98,2.19-.29,4.82-.75,6.74-1.92,1.01-.61,1.2-1.15,1.87-1.98.73-.9,1.52-1.25,2.35-1.98,1.3-1.15,1.24-2.79,2.4-3.94,1.83-1.83,4.99-2.19,6.64-4.38.29-.39.28-1.15.72-1.63,1.57-1.74,3.69.67,5.28-.78,1.14-1.03.54-1.88,2.19-2.27,1.15-.27,1.35.32,2.52-.65,1.95-1.62,1.96-4.04,2.85-6.22.97-2.37,2.34-2.61,3.1-4.87.32-.97.14-2.45-.47-3.37-.55-.84-1.4-1.07-1.84-2.15l.02-.04Z"/>
    <path class="cls-3" d="M107.5,64.23c0,12.36-3.86,21.16-11.07,26.24-.29.2-.56.4-.83.58-.03.02-.06.04-.09.06-.29.21-.57.4-.85.58-.74.5-1.41.92-2.04,1.29-.2.13-.41.24-.6.35-.37.2-.73.39-1.07.54-.17.08-.34.16-.51.23-.21.09-.42.17-.62.24-.18.07-.37.13-.55.19-.04.01-.08.02-.11.03-.18.05-.37.1-.56.15-.22.05-.43.1-.65.13-.21.04-.42.07-.64.1-.14.02-.29.03-.43.05-.1,0-.21.02-.32.02-.44.04-.89.05-1.37.05s-.93,0-1.37-.05c-.1,0-.19-.01-.29-.02-.15-.01-.3-.03-.45-.05-.22-.03-.43-.06-.64-.1-.22-.03-.44-.08-.65-.13-.19-.05-.38-.1-.56-.15-.03,0-.07-.02-.11-.03-.18-.06-.37-.12-.55-.19-.2-.07-.41-.15-.62-.24-.17-.07-.34-.15-.51-.23-.35-.16-.71-.34-1.09-.55-.19-.11-.39-.22-.59-.34-.62-.37-1.29-.79-2.03-1.29-.27-.18-.56-.37-.85-.58-.03-.02-.06-.04-.09-.06-.27-.18-.54-.38-.83-.58-5.32-3.75-8.81-9.52-10.27-17.25-.53-2.75-.8-5.75-.8-8.99,0-1.81.04-3.58.14-5.31.91-16.11,6.34-28.42,22.16-28.42,17.53,0,22.31,15.1,22.31,33.73Z"/>
    <path class="cls-3" d="M101.14,109.31c0,8.15-5.71,21.65-15.95,21.65s-15.94-13.5-15.94-21.65c0-3.18,1.29-6.58,3.32-7.98,1.35-.93,2.22-2.42,2.22-4.05v-6.23s.06.04.09.06c.29.21.58.4.85.58.74.5,1.41.92,2.03,1.29.2.12.4.23.59.34.38.21.74.39,1.09.55.17.08.34.16.51.23.21.09.42.17.62.24.18.07.37.13.55.19.04.01.08.02.11.03.18.05.37.1.56.15.21.05.43.1.65.13.21.04.42.07.64.1.15.02.3.04.45.05.1,0,.19.02.29.02.44.04.89.05,1.37.05s.93,0,1.37-.05c.11,0,.22-.01.32-.02.14-.02.29-.03.43-.05.22-.03.43-.06.64-.1.22-.03.43-.08.65-.13.19-.05.38-.1.56-.15.03,0,.07-.02.11-.03.18-.06.37-.12.55-.19.2-.07.41-.15.62-.24.17-.07.34-.15.51-.23.34-.15.7-.34,1.07-.54.19-.11.4-.22.6-.35.63-.37,1.3-.79,2.04-1.29.28-.18.56-.37.85-.58.03-.02.06-.04.09-.06v6.23c0,1.63.87,3.12,2.21,4.05,2.04,1.4,3.33,4.8,3.33,7.98Z"/>
    <path class="cls-3" d="M111.1,65.47c-3.34,1.51-4.73-3.08-4.63-5.47.06-1.48.43-2.22-.29-3.72-.5-1.04-.65-2.21-.72-2.82-.19-1.55-1.3-2.65-1.96-4.07-.59-1.27-.69-2.46-1.24-3.35-1.1-1.78-3.27-3.6-4.92-5.01-.58-.5-2.34-2.26-3.21-2.2-1.18.09-4.16,4.04-5.27,4.89-1.89,1.43-2.64,2.42-4.98,2.76-1.4.21-3.25.03-4.67.68-1.55.72-2,2.18-3.12,2.76-1.76.9-3.81-.52-5.37.7-1.43,1.13-1.77,3.24-3.82,3.95-1.04.36-2.97,1-3.31,3.02-.33,1.9-1.05,3.67-1.18,5.65-.11,1.75,1.58,6.25.1,7.45-1.62,1.31-4.89-.83-6.04-1.81-2.87-2.44-4.7-6.12-4.97-9.87.45-.24.91-.49,1.33-.77,1.52-1.01,1.72-3.12,1.5-4.86-.11-.86-.57-1.38-.93-1.95-.18.25-.34.52-.49.79-1.15,2.1-1.58,4.46-1.41,6.79-1,.55-1.99,1.11-2.61,2.13-1.34,2.23.67,3.04,1.59,4.68.74,1.32,1.87,2.99,1.88,4.53.03,1.89-.74,1.56-1.89,2.95-.87,1.04.42,2.59-.17,3.65-.18.31-.61.59-1.16.84-.11-.03-.21-.06-.3-.09-1.93-.65-2.77-2.75-2.35-4.84.26-1.27.95-2.17.5-3.1-.75-1.53-1.69-1.47-2.86-2.43-1.7-1.42-1.41-3.09-2.35-4.97-.33-.66-.47-1.89.4-3.67.54-1.1,1.49-1.9,2.12-2.77,1.65-2.27-1.94-2.07-2.26-4.11-.35-2.23,1.88-2.31,1.97-4.26.06-.99-.09-2.22-.29-3.38-.22-1.32.59-2.31,1.52-2.81,1.06-.59,2.37-.14,3.43-.74.6-.34.82-1.44,1.19-2,.69-1.05,1.6-1.43,3.07-1.06,1.38.34,2.02.86,3.26.07.74-.47.53-2.18.97-3.41,1.25-3.44,4.14-3.48,5.5-4.11,1.46-.66,1.49-.71,1.92-2.26.45-1.65-.23-2.99,1.5-3.92,1.05-.55,2.74-.87,3.7-1.44,2.03-1.2,1.58-2.91,4.64-3.54,1.74-.36,3.32.35,5.11-.26,1.22-.43,2.26-1.17,3.59-1.31,1.99-.21,2.83.74,4.47,1.41,1.51.62,2.76.13,4.29.38,1.61.27,2.89,1.37,4.52,1.64,1.34.21,2.53.13,3.81.63,1.31.5,2.87,1.33,3.93,2.23,1.21,1.01,1.16,2.06,1.83,3.34-.24-.45-4.1-1.07-4.64-1.19-1.84-.41-3.55-.54-5.26-.29,11.27,3.39,17.45,12.9,17.45,25.23,0,3.34,1.56,12.9-2.42,14.71Z"/>
    <path class="cls-4" d="M106.54,59.22c-.07-.26-.18-.53-.35-.85-.5-.9-.65-1.9-.73-2.42-.18-1.33-1.29-2.27-1.96-3.5-.59-1.09-.68-2.11-1.24-2.87-1.1-1.53-3.27-3.09-4.92-4.31-.57-.43-2.34-1.94-3.21-1.89-1.18.08-4.16,3.47-5.27,4.2-1.89,1.23-2.65,2.08-4.98,2.37-1.4.18-3.26.02-4.67.59-1.55.62-2,1.87-3.12,2.37-1.76.78-3.81-.45-5.37.6-1.43.97-1.76,2.78-3.81,3.39-1.04.31-2.98.86-3.32,2.59-.3,1.52-.95,2.94-1.14,4.52-.03-.3-.05-.56-.03-.78.13-1.98.85-3.75,1.17-5.64.34-2.02,2.27-2.66,3.32-3.02,2.05-.71,2.39-2.82,3.81-3.95,1.56-1.22,3.61.2,5.37-.71,1.11-.57,1.57-2.04,3.12-2.76,1.42-.66,3.27-.47,4.67-.68,2.33-.34,3.09-1.33,4.98-2.76,1.11-.85,4.09-4.8,5.27-4.89.87-.06,2.63,1.7,3.21,2.19,1.65,1.42,3.82,3.24,4.92,5.02.55.89.64,2.08,1.24,3.34.66,1.42,1.78,2.52,1.96,4.07.08.61.23,1.78.73,2.82.58,1.21.45,1.93.35,2.94v.02Z"/>
    <path class="cls-3" d="M178.74,145.01c-11.48,13.92-28.86,22.79-48.31,22.79s-36.82-8.87-48.3-22.78c.5-9.55,3.06-17.83,11.44-23.2,4.19-2.69,10.06-4.48,16.55-5.61,3.19-.55,6.52-.94,9.89-1.18-.28.56-.73,1.02-1.31,1.3-2.27,1.1-3.74,2.99-3.74,6.35,0,7.91,5.88,16.13,15.47,16.13s15.48-8.22,15.48-16.13c0-3.36-1.48-5.25-3.75-6.35-.58-.28-1.04-.75-1.31-1.31,10.23.77,20.19,2.8,26.45,6.8,8.37,5.37,10.94,13.65,11.44,23.19h0Z"/>
    <path class="cls-3" d="M152.08,80.62v.02c0,.34,0,.68,0,1v.1c0,.19,0,.38-.02.56,0,.2,0,.41,0,.62,0,.3-.03.61-.06.93,0,.01,0,.01,0,.02,0,.11,0,.22-.03.34.04-.57.07-1.15.09-1.73,0-.13,0-.27,0-.4-.04-2.29-.54-4.18-1.58-5.8.17-.15.34-.29.51-.41.31-.2.63-.34.96-.39.1,1.68.14,3.39.14,5.14h0Z"/>
    <path class="cls-3" d="M157.18,79.61c0,1.68-.76,5.45-1.5,7.11-.79,1.78-2.13,2.8-3.38,2.8-.34,0-.67-.06-.99-.17.31-1.6.52-3.29.64-5.07h0c1.68-2.13,3.02-4.89,4-7.83.75.62,1.23,1.62,1.23,3.16h0Z"/>
    <path class="cls-3" d="M152.05,82.08c0,.13,0,.27,0,.4-.02.58-.05,1.16-.09,1.73v.07c-.12,1.78-.33,3.47-.64,5.07-1.42,7.5-4.81,13.1-9.97,16.74-.28.2-.55.39-.81.56-2.04,1.43-3.57,2.37-5.01,2.97-1.61.68-3.11.93-5.09.93-3.74,0-5.75-.88-10.1-3.9-.26-.18-.52-.36-.8-.56-5.02-3.54-8.36-8.93-9.85-16.11h0c-.03-.21-.06-.43-.08-.65-.67-5.06-.3-9.47.6-13.21,2.6-10.76,9.65-16.09,9.65-16.09,0,0,4.24,4.83,11.8,6.94,10.28,2.87,16.23,5.26,18.81,9.31,1.04,1.62,1.54,3.51,1.58,5.8h0Z"/>
    <path class="cls-3" d="M152.08,80.62v.02c0,.34,0,.68,0,1v.1c0,.19,0,.38-.02.56,0,.2,0,.41,0,.62,0,.13-.02.25-.03.38,0,.18-.02.37-.03.55,0,.01,0,.01,0,.02,0,.11,0,.22-.03.34.04-.57.07-1.15.09-1.73,0-.13,0-.27,0-.4-.04-2.29-.54-4.18-1.58-5.8-2.58-4.05-8.53-6.44-18.81-9.31-7.56-2.11-11.8-6.94-11.8-6.94,0,0-7.05,5.33-9.65,16.09-.9,3.74-1.27,8.15-.6,13.21.02.22.05.44.08.66h0c-.05-.22-.09-.43-.13-.64-.03-.14-.06-.28-.08-.42-.05-.28-.09-.56-.14-.85-.01-.04-.02-.09-.02-.14-.05-.31-.09-.62-.13-.93-.07-.54-.13-1.1-.18-1.66-.03-.21-.04-.43-.06-.64h0v-.26c-.01-.07-.02-.15-.02-.23-.03-.37-.05-.75-.06-1.13-.01-.13-.01-.25-.02-.38-.03-.68-.04-1.38-.04-2.08,0-.34,0-.67.01-1.01,0-.11,0-.21.01-.31.01-1.29.05-2.57.12-3.83.06.01.12.02.17.04.06-.46.12-.91.2-1.34.06-.41.13-.81.21-1.21.08-.46.18-.9.29-1.34.1-.43.21-.86.33-1.27.22-.83.48-1.62.76-2.38.09-.23.17-.47.26-.69.62-1.59,1.33-3,2.07-4.22.17-.29.34-.56.51-.82.17-.26.34-.52.51-.76.34-.49.68-.95,1.02-1.37.16-.21.33-.41.49-.6.17-.2.33-.38.49-.56.16-.17.32-.34.47-.5,1.69-1.77,2.98-2.55,2.98-2.55,0,0,.28.35.79.92.07.08.15.16.23.25,1.03,1.13,2.76,2.88,4.81,4.39.15.1.3.21.44.31.16.11.32.22.47.32.32.21.64.42.97.61.32.19.65.37.99.54.17.08.34.16.5.24.2.09.39.17.58.25.32.12.64.23.96.33,1.37.4,2.78.83,4.19,1.3,1.42.46,2.84.95,4.22,1.5.62.24,1.22.49,1.82.75,1.81.79,3.53,1.67,5.05,2.68.24.17.48.33.7.49.26.18.5.37.74.56.22.17.44.35.64.53.19.16.37.32.54.49.16.15.31.3.46.46.14.14.27.28.39.42.45.5.85,1.03,1.21,1.58.08.12.16.25.23.38.06.09.11.19.17.29.06.12.13.24.19.37.31-.2.63-.34.96-.39.1,1.68.14,3.39.14,5.14h-.02Z"/>
    <path class="cls-3" d="M109.61,89.33s-.04.02-.06.02c-.32.11-.65.17-.99.17-1.25,0-2.58-1.02-3.38-2.8-.74-1.66-1.5-5.43-1.5-7.11,0-1.12.25-1.95.68-2.56,1.12,2.76,2.7,5.34,4.58,7.65v-.25c-.01-.07-.02-.15-.02-.23-.03-.37-.05-.75-.06-1.13-.01-.13-.01-.25-.02-.38-.03-.68-.05-1.38-.05-2.09,0-.28,0-.56.01-.84,0-.05,0-.11.01-.16,0-.11,0-.21.01-.31.01-1.29.05-2.57.12-3.83.06.01.12.02.17.04.39.1.76.31,1.11.6-.9,3.74-1.27,8.15-.6,13.21h-.01Z"/>
    <path class="cls-3" d="M145.91,122.68c0,7.91-5.54,16.13-15.48,16.13s-15.47-8.22-15.47-16.13c0-3.36,1.47-5.25,3.74-6.35.58-.28,1.03-.74,1.31-1.3.21-.41.32-.87.32-1.34v-7.04c4.35,3.02,6.36,3.9,10.1,3.9,1.98,0,3.48-.25,5.09-.93,1.44-.6,2.97-1.54,5.01-2.97v7.04c0,.47.11.93.32,1.33.27.56.73,1.03,1.31,1.31,2.27,1.1,3.75,2.99,3.75,6.35Z"/>
    <path class="cls-3" d="M147.79,31.73c0,2.91-.99,5.63-2.71,7.92-3.77-1.76-8.57-2.77-14.65-2.77s-11.15.85-14.93,2.37c-1.54-2.2-2.42-4.78-2.42-7.52,0-8.15,7.77-14.75,17.35-14.75s17.36,6.6,17.36,14.75Z"/>
    <path class="cls-3" d="M152.05,82.3c0,.2,0,.41,0,.62,0,.3-.03.61-.06.93,0-.18.02-.37.03-.55,0-.27.02-.55.03-.82,0-.06,0-.12,0-.18Z"/>
    <path class="cls-4" d="M152.08,80.62v.02c0,.34,0,.68,0,1v.1c0,.12,0,.23-.02.34-.04-2.29-.54-4.18-1.58-5.8-2.58-4.05-8.53-6.44-18.81-9.31-7.56-2.11-11.8-6.94-11.8-6.94,0,0-7.05,5.33-9.65,16.09-.9,3.74-1.27,8.15-.6,13.21.02.22.05.44.08.66h0s-.01-.01-.01-.01l-.12-.63c-.03-.14-.06-.28-.08-.42-.05-.28-.09-.56-.14-.85-.01-.04-.02-.09-.02-.14-.05-.31-.09-.62-.13-.93-.07-.54-.13-1.1-.18-1.66-.03-.21-.04-.43-.06-.64h.01c-.01-.09-.01-.17-.02-.26-.01-.07-.02-.15-.02-.23-.03-.37-.05-.75-.06-1.13-.01-.13-.01-.25-.02-.38-.03-.68-.05-1.38-.05-2.09,0-.28,0-.56.01-.84,0-.05,0-.11.01-.16,0-.11,0-.21.01-.31.04-1.33.14-2.6.29-3.79.06-.46.12-.91.2-1.34.06-.41.13-.81.21-1.21.08-.46.18-.9.29-1.34.1-.43.21-.86.33-1.27.22-.83.48-1.62.76-2.38.09-.23.17-.47.26-.69.62-1.59,1.33-3,2.07-4.22.17-.29.34-.56.51-.82.17-.26.34-.52.51-.76.34-.49.68-.95,1.02-1.37.16-.21.33-.41.49-.6.17-.2.33-.38.49-.56.16-.17.32-.34.47-.5,1.69-1.77,2.98-2.55,2.98-2.55,0,0,.28.35.79.92.07.08.15.16.23.25,1.03,1.13,2.76,2.88,4.81,4.39.15.1.3.21.44.31.16.11.32.22.47.32.32.22.64.43.97.61.32.19.65.37.99.54.17.08.34.16.5.24.2.09.39.17.58.25.32.13.64.24.96.34,1.37.41,2.77.83,4.19,1.29s2.84.95,4.22,1.5c.62.24,1.22.49,1.82.75,1.81.79,3.53,1.67,5.05,2.68.24.17.48.33.7.49.26.18.5.37.74.56.22.17.44.35.64.53.19.16.37.32.54.49.16.15.31.3.46.46.14.14.27.28.39.42.45.5.85,1.03,1.21,1.58.08.12.16.25.23.38.06.09.11.19.17.29.06.12.13.24.19.37.11.23.22.46.31.7.09.19.16.4.23.6.02.05.04.1.05.16.05.15.1.3.14.46.03.11.06.21.08.32.02.05.03.1.03.15.05.2.09.41.12.61.04.24.07.47.09.71,0,.11.02.23.03.34,0,.23.02.46.02.7h-.01Z"/>
    <path class="cls-3" d="M157.92,65.02c0,5.91-2.08,14.35-5.97,19.25,0-.14.04-.27.03-.4.26-2.34.04-4.29-.41-6.54-.33.05-.28-1.66-.59-1.46-6.51-11.46-24.3-8.99-31.29-19.96-5.69,3.68-9.96,12.54-10.59,19.61-.05-.02-.11-.03-.17-.04-.15,3.04-.23,6.18,0,9.22-10.15-12.67-9.86-38.62,6.56-45.45,20.59-7.13,44.07.35,42.42,25.77h.01Z"/>
    <path class="cls-3" d="M108.83,82.71c-.03-.68-.05-1.38-.05-2.09,0-.28,0-.56.01-.84,0-.05,0-.11.01-.16,0-.11,0-.21.01-.31-.01.43-.02.87-.02,1.32,0,.7.01,1.4.04,2.08Z"/>
    <path class="cls-3" d="M109.1,75.52c-.15,1.19-.25,2.46-.29,3.79.01-1.29.05-2.57.12-3.83.06.01.12.02.17.04Z"/>
    <path class="cls-3" d="M110.89,67.98c-.27.75-.53,1.55-.76,2.38.22-.83.48-1.62.76-2.38Z"/>
    <path class="cls-3" d="M113.22,63.07c-.73,1.22-1.44,2.63-2.07,4.22.62-1.59,1.33-3,2.07-4.22Z"/>
    <path class="cls-3" d="M152.08,80.64c0,.34,0,.68,0,1v.1c0,.19,0,.38-.02.56,0,.2,0,.41,0,.62,0,.3-.03.61-.06.93,0,.01,0,.01,0,.02,0,.11,0,.22-.03.34.04-.57.07-1.15.09-1.73,0-.13,0-.27,0-.4.02-.47.03-.95.03-1.44h0Z"/>
  </g>
  <g id="FALTAN_" data-name="FALTAN?">
    <g id="e">
      <path class="cls-4" d="M198.18,137.62c0,.39-.46.83-.86.83h-.69v-6.92h1.56v6.09h0Z"/>
      <path class="cls-4" d="M200.01,131.53h2c.75,0,1.32.15,1.69.47.38.32.56.75.56,1.3,0,.39-.09.7-.26.94s-.39.42-.67.54v.02c.77.22,1.17.76,1.17,1.63,0,.31-.05.59-.14.84-.09.24-.24.46-.44.63-.2.18-.45.31-.76.4s-.68.13-1.12.13h-2.84v-6.1c0-.32.48-.82.81-.82v.02ZM202.96,136.32c0-.3-.07-.51-.21-.63-.14-.13-.38-.19-.72-.19h-1.33v1.67h1.37c.31,0,.54-.06.68-.18.14-.11.21-.34.21-.67ZM202.8,133.58c0-.28-.07-.47-.2-.58s-.34-.16-.63-.16h-1.25v1.5h1.29c.28,0,.48-.06.61-.18.13-.11.19-.31.19-.59h-.01Z"/>
      <path class="cls-4" d="M194.55,132.87c-1.93-.28-2.39.37-2.39,2.13s.47,2.33,2.55,2.12c.65-.07.81.14.93,1.16-.22.12-1.22.29-1.92.27-1.04-.03-1.91-.29-2.41-.88-.51-.59-.75-1.49-.75-2.72,0-2.48,1.11-3.5,3.27-3.5,1.06,0,1.76.32,1.76.32-.18,1.13-.37,1.21-1.04,1.1h0Z"/>
      <path class="cls-4" d="M208.36,135.5c.51,0,1.28-.82,1.28-1.27v-4.33h-3.97v5.6h2.69Z"/>
    </g>
  </g>
</svg>