<?xml version="1.0" encoding="UTF-8"?>
<svg xmlns="http://www.w3.org/2000/svg" viewBox="0 0 250 180">
  <defs>
    <style>
      .cls-1 {
        fill: none;
        stroke: #eff1f4;
      }

      .cls-1, .cls-2 {
        stroke-miterlimit: 10;
      }

      .cls-3 {
        fill: #e9f0f7;
      }

      .cls-4 {
        font-family: CascadiaMono-Regular, 'Cascadia Mono';
        font-size: 35.72px;
        font-variation-settings: 'wght' 400;
      }

      .cls-4, .cls-5 {
        fill: #869cb3;
      }

      .cls-2 {
        fill: #fff;
        stroke: #869cb3;
      }

      .cls-6 {
        fill: #e9f0f7;
      }
    </style>
  </defs>
  <g id="graficas">
    <circle class="cls-3" cx="59.13" cy="60.13" r="40.09"/>
    <g>
      <line id="linie" class="cls-1" x1="222.61" y1="149.02" x2="31.92" y2="149.02"/>
      <line id="linie-2" data-name="linie" class="cls-1" x1="222.61" y1="134.29" x2="31.92" y2="134.29"/>
      <line id="linie-3" data-name="linie" class="cls-1" x1="222.61" y1="119.57" x2="31.92" y2="119.57"/>
      <line id="linie-4" data-name="linie" class="cls-1" x1="222.61" y1="104.85" x2="31.92" y2="104.85"/>
      <line id="linie-5" data-name="linie" class="cls-1" x1="222.61" y1="90.12" x2="31.92" y2="90.12"/>
      <line id="linie-6" data-name="linie" class="cls-1" x1="222.61" y1="75.4" x2="31.92" y2="75.4"/>
      <line id="linie-7" data-name="linie" class="cls-1" x1="222.61" y1="60.68" x2="31.92" y2="60.68"/>
    </g>
    <text class="cls-4" transform="translate(26.96 73.19)"><tspan x="0" y="0">&lt;/&gt;</tspan></text>
    <g>
      <rect class="cls-5" x="71.97" y="114.6" width="13.76" height="34.41"/>
      <rect class="cls-5" x="92.08" y="134.84" width="13.76" height="14.17"/>
      <rect class="cls-5" x="112.2" y="98.12" width="13.76" height="50.88"/>
      <rect class="cls-5" x="132.71" y="114.87" width="13.76" height="34.13"/>
      <rect class="cls-5" x="152.83" y="107.43" width="13.76" height="41.58"/>
      <rect class="cls-5" x="172.94" y="83.23" width="13.76" height="65.78"/>
    </g>
    <path class="cls-2" d="M220.95,137.22h-4.96c-1.96,0-2.94-2.35-1.56-3.73l3.51-3.49c.43-.43.43-1.12,0-1.55l-4.66-4.63c-.43-.43-1.13-.43-1.56,0l-3.51,3.49c-1.39,1.38-3.75.4-3.75-1.55v-4.93c0-.6-.49-1.1-1.1-1.1h-6.6c-.61,0-1.1.49-1.1,1.1v4.93c0,1.95-2.37,2.92-3.75,1.55l-3.51-3.49c-.43-.43-1.13-.43-1.56,0l-4.66,4.63c-.43.43-.43,1.12,0,1.55l3.51,3.49c1.39,1.38.41,3.73-1.56,3.73h-4.96c-.61,0-1.1.49-1.1,1.1v6.56c0,.6.49,1.1,1.1,1.1h4.96c1.96,0,2.94,2.35,1.56,3.73l-3.51,3.49c-.43.43-.43,1.12,0,1.55l4.66,4.63c.43.43,1.13.43,1.56,0l3.51-3.49c1.39-1.38,3.75-.4,3.75,1.55v4.93c0,.6.49,1.1,1.1,1.1h6.6c.61,0,1.1-.49,1.1-1.1v-4.93c0-1.95,2.37-2.92,3.75-1.55l3.51,3.49c.43.43,1.13.43,1.56,0l4.66-4.63c.43-.43.43-1.12,0-1.55l-3.51-3.49c-1.39-1.38-.41-3.73,1.56-3.73h4.96c.61,0,1.1-.49,1.1-1.1v-6.56c0-.6-.49-1.1-1.1-1.1Z"/>
    <circle class="cls-2" cx="200.08" cy="141.73" r="7.69"/>
    <path class="cls-3" d="M233.31,103.44l-1.11-.08c-.09-.48-.21-.94-.38-1.39l.92-.63c.43-.29.55-.86.29-1.31l-.41-.7c-.26-.45-.82-.61-1.29-.38l-1,.5c-.27-.32-.57-.61-.89-.88l.49-1c.23-.46.06-1.02-.39-1.29l-.7-.41c-.45-.26-1.02-.13-1.31.29l-.63.92c-.44-.16-.89-.29-1.36-.37l-.08-1.11c-.04-.52-.47-.91-.98-.91h-.81c-.52,0-.95.4-.98.91l-.08,1.11c-.48.09-.94.21-1.39.38l-.63-.92c-.29-.43-.86-.55-1.31-.29l-.7.41c-.45.26-.61.82-.38,1.29l.5,1c-.32.27-.61.57-.88.89l-1-.49c-.46-.23-1.02-.06-1.29.39l-.41.7c-.26.45-.13,1.02.29,1.31l.92.63c-.16.44-.29.89-.37,1.36l-1.11.08c-.52.04-.91.47-.91.98v.81c0,.52.4.95.91.98l1.11.08c.09.48.21.94.38,1.39l-.92.63c-.43.29-.55.86-.29,1.31l.41.7c.26.45.82.61,1.29.38l1-.5c.27.32.57.61.89.88l-.49,1c-.23.46-.06,1.02.39,1.28l.7.41c.45.26,1.02.13,1.31-.29l.63-.92c.44.16.89.29,1.36.37l.08,1.11c.04.52.47.91.98.91h.81c.52,0,.95-.4.98-.91l.08-1.11c.48-.09.94-.21,1.39-.38l.63.92c.29.43.86.55,1.31.29l.7-.41c.45-.26.61-.82.38-1.29l-.5-1c.32-.27.61-.57.88-.89l1,.49c.46.23,1.02.06,1.29-.39l.41-.7c.26-.45.13-1.02-.29-1.31l-.92-.63c.16-.44.29-.89.37-1.36l1.11-.08c.52-.04.91-.47.91-.98v-.81c0-.52-.4-.95-.91-.98ZM221,99.82c1.05,0,1.9.85,1.9,1.9s-.85,1.9-1.9,1.9-1.9-.85-1.9-1.9.85-1.9,1.9-1.9ZM221,109.74c-1.05,0-1.9-.85-1.9-1.9s.85-1.9,1.9-1.9,1.9.85,1.9,1.9-.85,1.9-1.9,1.9ZM224.09,106.17c-.74,0-1.34-.6-1.34-1.34s.6-1.34,1.34-1.34,1.34.6,1.34,1.34-.6,1.34-1.34,1.34ZM227.19,109.74c-1.05,0-1.9-.85-1.9-1.9s.85-1.9,1.9-1.9,1.9.85,1.9,1.9-.85,1.9-1.9,1.9ZM227.19,103.61c-1.05,0-1.9-.85-1.9-1.9s.85-1.9,1.9-1.9,1.9.85,1.9,1.9-.85,1.9-1.9,1.9Z"/>
  </g>
  <g id="FALTAN_" data-name="FALTAN?">
    <g id="e">
      <path class="cls-6" d="M39.6,145.6c0,.39-.46.83-.86.83h-.69v-6.92h1.56v6.09h0Z"/>
      <path class="cls-6" d="M41.43,139.51h2c.75,0,1.32.15,1.69.47.38.32.56.75.56,1.3,0,.39-.09.7-.26.94s-.39.42-.67.54v.02c.77.22,1.17.76,1.17,1.63,0,.31-.05.59-.14.84-.09.24-.24.46-.44.63-.2.18-.45.31-.76.4s-.68.13-1.12.13h-2.84v-6.1c0-.32.48-.82.81-.82v.02ZM44.38,144.3c0-.3-.07-.51-.21-.63-.14-.13-.38-.19-.72-.19h-1.33v1.67h1.37c.31,0,.54-.06.68-.18.14-.11.21-.34.21-.67ZM44.22,141.56c0-.28-.07-.47-.2-.58s-.34-.16-.63-.16h-1.25v1.5h1.29c.28,0,.48-.06.61-.18.13-.11.19-.31.19-.59h-.01Z"/>
      <path class="cls-6" d="M35.97,140.85c-1.93-.28-2.39.37-2.39,2.13s.47,2.33,2.55,2.12c.65-.07.81.14.93,1.16-.22.12-1.22.29-1.92.27-1.04-.03-1.91-.29-2.41-.88-.51-.59-.75-1.49-.75-2.72,0-2.48,1.11-3.5,3.27-3.5,1.06,0,1.76.32,1.76.32-.18,1.13-.37,1.21-1.04,1.1h0Z"/>
      <path class="cls-6" d="M49.78,143.48c.51,0,1.28-.82,1.28-1.27v-4.33h-3.97v5.6h2.69Z"/>
    </g>
  </g>
</svg>