<?xml version="1.0" encoding="UTF-8"?>
<svg xmlns="http://www.w3.org/2000/svg" viewBox="0 0 250 180">
  <defs>
    <style>
      .cls-1, .cls-2 {
        fill: #e9f0f7;
      }

      .cls-3, .cls-4 {
        fill: #fff;
      }

      .cls-5 {
        fill: #efeefe;
      }

      .cls-6 {
        fill: #869cb3;
      }

      .cls-6, .cls-2, .cls-7, .cls-8, .cls-4, .cls-9, .cls-10 {
        stroke-miterlimit: 10;
      }

      .cls-6, .cls-7, .cls-4, .cls-9, .cls-10 {
        stroke: #869cb3;
      }

      .cls-2, .cls-8 {
        stroke: #e9f0f7;
      }

      .cls-7, .cls-8, .cls-9 {
        fill: none;
      }

      .cls-11 {
        fill: #869cb3;
      }

      .cls-9 {
        stroke-width: .5px;
      }

      .cls-10 {
        fill: #e9f0f7;
        stroke-width: .75px;
      }
    </style>
  </defs>
  <g id="graficas">
    <line class="cls-4" x1="12.91" y1="158.68" x2="239.13" y2="158.68"/>
    <polyline class="cls-7" points="29.09 158.17 29.09 74.77 66.7 84.3 66.7 158.68"/>
    <polyline class="cls-7" points="66.15 89.62 48.28 89.62 48.28 97.02 66.4 97.02"/>
    <polyline class="cls-7" points="66.15 102.26 48.28 102.26 48.28 109.66 66.4 109.66"/>
    <polyline class="cls-7" points="66.15 115.15 48.28 115.15 48.28 122.55 66.4 122.55"/>
    <polyline class="cls-7" points="66.15 128.04 48.28 128.04 48.28 135.45 66.4 135.45"/>
    <polyline class="cls-7" points="66.15 140.43 48.28 140.43 48.28 147.83 66.4 147.83"/>
    <g>
      <line class="cls-8" x1="40.62" y1="89.49" x2="28.49" y2="89.49"/>
      <line class="cls-8" x1="40.62" y1="92.27" x2="28.49" y2="92.27"/>
      <line class="cls-8" x1="40.62" y1="95.05" x2="28.49" y2="95.05"/>
      <line class="cls-8" x1="40.62" y1="97.82" x2="28.49" y2="97.82"/>
      <line class="cls-8" x1="40.62" y1="100.6" x2="28.49" y2="100.6"/>
      <line class="cls-8" x1="40.62" y1="103.38" x2="28.49" y2="103.38"/>
      <line class="cls-8" x1="40.62" y1="106.16" x2="28.49" y2="106.16"/>
      <line class="cls-8" x1="40.62" y1="108.94" x2="28.49" y2="108.94"/>
      <line class="cls-8" x1="40.62" y1="111.71" x2="28.49" y2="111.71"/>
      <line class="cls-8" x1="40.62" y1="114.49" x2="28.49" y2="114.49"/>
      <line class="cls-8" x1="40.62" y1="117.27" x2="28.49" y2="117.27"/>
      <line class="cls-8" x1="40.62" y1="120.05" x2="28.49" y2="120.05"/>
      <line class="cls-8" x1="40.62" y1="122.83" x2="28.49" y2="122.83"/>
      <line class="cls-8" x1="40.62" y1="125.6" x2="28.49" y2="125.6"/>
      <line class="cls-8" x1="40.62" y1="128.38" x2="28.49" y2="128.38"/>
      <line class="cls-8" x1="40.62" y1="131.16" x2="28.49" y2="131.16"/>
      <line class="cls-8" x1="40.62" y1="133.94" x2="28.49" y2="133.94"/>
      <line class="cls-8" x1="40.62" y1="136.72" x2="28.49" y2="136.72"/>
      <line class="cls-8" x1="40.62" y1="139.5" x2="28.49" y2="139.5"/>
      <line class="cls-8" x1="40.62" y1="142.27" x2="28.49" y2="142.27"/>
      <line class="cls-8" x1="40.62" y1="145.05" x2="28.49" y2="145.05"/>
      <line class="cls-8" x1="40.62" y1="147.83" x2="28.49" y2="147.83"/>
    </g>
    <polyline class="cls-7" points="74.19 158.43 74.19 100.6 106.49 108.94 106.49 158.3"/>
    <polyline class="cls-7" points="84.4 158.17 84.4 146.94 96.15 146.94 96.15 158.55"/>
    <rect class="cls-2" x="77.51" y="134.55" width="3.32" height="8.43"/>
    <rect class="cls-2" x="83.16" y="134.55" width="3.32" height="8.43"/>
    <rect class="cls-2" x="88.81" y="134.55" width="3.32" height="8.43"/>
    <rect class="cls-2" x="94.46" y="134.55" width="3.32" height="8.43"/>
    <rect class="cls-2" x="100.11" y="134.55" width="3.32" height="8.43"/>
    <rect class="cls-2" x="77.51" y="124.09" width="3.32" height="8.43"/>
    <rect class="cls-2" x="83.16" y="124.09" width="3.32" height="8.43"/>
    <rect class="cls-2" x="88.81" y="124.09" width="3.32" height="8.43"/>
    <rect class="cls-2" x="94.46" y="124.09" width="3.32" height="8.43"/>
    <rect class="cls-2" x="100.11" y="124.09" width="3.32" height="8.43"/>
    <rect class="cls-2" x="77.51" y="113.49" width="3.32" height="8.43"/>
    <rect class="cls-2" x="83.16" y="113.49" width="3.32" height="8.43"/>
    <rect class="cls-2" x="88.81" y="113.49" width="3.32" height="8.43"/>
    <rect class="cls-2" x="94.46" y="113.49" width="3.32" height="8.43"/>
    <rect class="cls-2" x="100.11" y="113.49" width="3.32" height="8.43"/>
    <rect class="cls-7" x="137.89" y="133.44" width="3.97" height="10.69"/>
    <rect class="cls-7" x="144.66" y="133.44" width="3.97" height="10.69"/>
    <rect class="cls-7" x="151.42" y="133.44" width="3.97" height="10.69"/>
    <rect class="cls-7" x="158.18" y="133.44" width="3.97" height="10.69"/>
    <rect class="cls-7" x="164.94" y="133.44" width="3.97" height="10.69"/>
    <rect class="cls-7" x="137.89" y="120.16" width="3.97" height="10.69"/>
    <rect class="cls-7" x="144.66" y="120.16" width="3.97" height="10.69"/>
    <rect class="cls-7" x="151.42" y="120.16" width="3.97" height="10.69"/>
    <rect class="cls-7" x="158.18" y="120.16" width="3.97" height="10.69"/>
    <rect class="cls-7" x="164.94" y="120.16" width="3.97" height="10.69"/>
    <rect class="cls-7" x="137.89" y="106.72" width="3.97" height="10.69"/>
    <rect class="cls-7" x="144.66" y="106.72" width="3.97" height="10.69"/>
    <rect class="cls-7" x="151.42" y="106.72" width="3.97" height="10.69"/>
    <rect class="cls-7" x="158.18" y="106.72" width="3.97" height="10.69"/>
    <rect class="cls-7" x="164.94" y="106.72" width="3.97" height="10.69"/>
    <rect class="cls-7" x="171.2" y="133.44" width="3.97" height="10.69"/>
    <rect class="cls-7" x="171.2" y="120.16" width="3.97" height="10.69"/>
    <rect class="cls-7" x="171.2" y="106.72" width="3.97" height="10.69"/>
    <rect class="cls-7" x="137.89" y="93.35" width="3.97" height="10.69"/>
    <rect class="cls-7" x="144.66" y="93.35" width="3.97" height="10.69"/>
    <rect class="cls-7" x="151.42" y="93.35" width="3.97" height="10.69"/>
    <rect class="cls-7" x="158.18" y="93.35" width="3.97" height="10.69"/>
    <rect class="cls-7" x="164.94" y="93.35" width="3.97" height="10.69"/>
    <rect class="cls-7" x="137.89" y="79.91" width="3.97" height="10.69"/>
    <rect class="cls-7" x="144.66" y="79.91" width="3.97" height="10.69"/>
    <rect class="cls-7" x="151.42" y="79.91" width="3.97" height="10.69"/>
    <rect class="cls-7" x="158.18" y="79.91" width="3.97" height="10.69"/>
    <rect class="cls-7" x="164.94" y="79.91" width="3.97" height="10.69"/>
    <rect class="cls-7" x="171.2" y="93.35" width="3.97" height="10.69"/>
    <rect class="cls-7" x="171.2" y="79.91" width="3.97" height="10.69"/>
    <line class="cls-7" x1="114.4" y1="158.43" x2="114.4" y2="101.36"/>
    <line class="cls-7" x1="132.02" y1="158.3" x2="132.02" y2="74.43"/>
    <line class="cls-7" x1="181.3" y1="158.3" x2="181.3" y2="74.43"/>
    <polyline class="cls-7" points="132.02 101.11 109.55 101.11 109.55 96.13 131.89 96.13"/>
    <rect class="cls-1" x="124.36" y="106.72" width="4.6" height="4.6"/>
    <rect class="cls-1" x="124.36" y="113.74" width="4.6" height="4.6"/>
    <rect class="cls-1" x="124.36" y="120.75" width="4.6" height="4.6"/>
    <rect class="cls-1" x="124.36" y="127.76" width="4.6" height="4.6"/>
    <rect class="cls-1" x="124.36" y="134.77" width="4.6" height="4.6"/>
    <rect class="cls-1" x="124.36" y="141.79" width="4.6" height="4.6"/>
    <rect class="cls-1" x="117.3" y="106.72" width="4.6" height="4.6"/>
    <rect class="cls-1" x="117.3" y="113.74" width="4.6" height="4.6"/>
    <rect class="cls-1" x="117.3" y="120.75" width="4.6" height="4.6"/>
    <rect class="cls-1" x="117.3" y="127.76" width="4.6" height="4.6"/>
    <rect class="cls-1" x="117.3" y="134.77" width="4.6" height="4.6"/>
    <rect class="cls-1" x="117.3" y="141.79" width="4.6" height="4.6"/>
    <line class="cls-7" x1="198.87" y1="158.43" x2="198.87" y2="101.36"/>
    <polyline class="cls-7" points="181.26 101.11 203.72 101.11 203.72 96.13 181.38 96.13"/>
    <rect class="cls-1" x="184.32" y="106.72" width="4.6" height="4.6" transform="translate(373.23 218.04) rotate(180)"/>
    <rect class="cls-1" x="184.32" y="113.74" width="4.6" height="4.6" transform="translate(373.23 232.07) rotate(180)"/>
    <rect class="cls-1" x="184.32" y="120.75" width="4.6" height="4.6" transform="translate(373.23 246.09) rotate(180)"/>
    <rect class="cls-1" x="184.32" y="127.76" width="4.6" height="4.6" transform="translate(373.23 260.12) rotate(180)"/>
    <rect class="cls-1" x="184.32" y="134.77" width="4.6" height="4.6" transform="translate(373.23 274.14) rotate(180)"/>
    <rect class="cls-1" x="184.32" y="141.79" width="4.6" height="4.6" transform="translate(373.23 288.17) rotate(180)"/>
    <rect class="cls-1" x="191.38" y="106.72" width="4.6" height="4.6" transform="translate(387.36 218.04) rotate(180)"/>
    <rect class="cls-1" x="191.38" y="113.74" width="4.6" height="4.6" transform="translate(387.36 232.07) rotate(180)"/>
    <rect class="cls-1" x="191.38" y="120.75" width="4.6" height="4.6" transform="translate(387.36 246.09) rotate(180)"/>
    <rect class="cls-1" x="191.38" y="127.76" width="4.6" height="4.6" transform="translate(387.36 260.12) rotate(180)"/>
    <rect class="cls-1" x="191.38" y="134.77" width="4.6" height="4.6" transform="translate(387.36 274.14) rotate(180)"/>
    <rect class="cls-1" x="191.38" y="141.79" width="4.6" height="4.6" transform="translate(387.36 288.17) rotate(180)"/>
    <rect class="cls-7" x="127.68" y="67.53" width="58.09" height="7.02"/>
    <polyline class="cls-7" points="147.6 158.55 147.6 151.91 165.47 151.91 165.47 158.55"/>
    <g>
      <path class="cls-7" d="M227.31,131.87c0,.4-.03,13.69-.08,14.07-.58,4.14-4.13,7.32-8.43,7.32s-7.74-3.09-8.4-7.14c-.07-.44-.11-13.79-.11-14.26,0-4.7,3.81-8.51,8.51-8.51s8.51,3.81,8.51,8.51Z"/>
      <line class="cls-7" x1="218.81" y1="158.17" x2="218.81" y2="129.74"/>
      <polyline class="cls-7" points="214.4 136.24 218.83 140.67 223.21 136.29"/>
      <polyline class="cls-7" points="214.4 131.98 218.83 136.41 223.21 132.04"/>
      <polyline class="cls-7" points="214.4 140.56 218.83 144.99 223.21 140.62"/>
      <polyline class="cls-7" points="214.4 145.31 218.83 149.74 223.21 145.36"/>
    </g>
    <g>
      <path class="cls-4" d="M215.35,139.77c0,.32-.02,8.64-.07,8.95-.46,3.34-3.33,5.91-6.8,5.91s-6.25-2.5-6.78-5.76c-.06-.36-.09-8.73-.09-9.1,0-3.79,3.07-6.87,6.87-6.87s6.87,3.07,6.87,6.87Z"/>
      <line class="cls-7" x1="208.48" y1="158.6" x2="208.48" y2="138.77"/>
      <polyline class="cls-7" points="204.93 140.89 208.51 144.47 212.04 140.94"/>
      <polyline class="cls-7" points="204.93 144.38 208.51 147.96 212.04 144.43"/>
      <polyline class="cls-7" points="204.93 148.21 208.51 151.79 212.04 148.26"/>
    </g>
    <line class="cls-7" x1="66.53" y1="132.51" x2="74.19" y2="129.45"/>
    <line class="cls-7" x1="114.28" y1="132.51" x2="106.62" y2="129.45"/>
    <g>
      <circle class="cls-5" cx="92.32" cy="73.95" r="8.08"/>
      <circle class="cls-10" cx="92.32" cy="73.95" r="8.08"/>
      <g>
        <g>
          <path class="cls-3" d="M92.32,82.03c2.82,0,5.3-1.44,6.75-3.63-1.29-2.4-3.83-4.03-6.75-4.03s-5.45,1.63-6.75,4.03c1.45,2.19,3.93,3.63,6.75,3.63Z"/>
          <path class="cls-11" d="M92.32,82.12c-2.75,0-5.3-1.37-6.82-3.67l-.03-.04.02-.04c1.36-2.51,3.97-4.07,6.82-4.07s5.46,1.56,6.82,4.07l.02.04-.03.04c-1.52,2.3-4.07,3.67-6.82,3.67ZM85.67,78.4c1.49,2.23,3.97,3.55,6.65,3.55s5.16-1.33,6.65-3.55c-1.33-2.43-3.88-3.94-6.65-3.94s-5.32,1.51-6.65,3.94Z"/>
        </g>
        <g>
          <path class="cls-11" d="M92.32,82.07c-2.73,0-5.27-1.36-6.77-3.65v-.02s0-.02,0-.02c1.35-2.5,3.94-4.05,6.78-4.05s5.43,1.55,6.78,4.05v.02s0,.02,0,.02c-1.51,2.28-4.04,3.65-6.77,3.65ZM85.61,78.4c1.5,2.26,4,3.6,6.71,3.6s5.21-1.35,6.71-3.6c-1.34-2.46-3.91-3.99-6.71-3.99s-5.37,1.53-6.71,3.99Z"/>
          <path class="cls-11" d="M92.32,82.15c-2.76,0-5.32-1.38-6.84-3.68l-.04-.06.03-.06c1.36-2.52,3.99-4.09,6.85-4.09s5.49,1.57,6.85,4.09l.03.06-.04.06c-1.52,2.31-4.08,3.68-6.84,3.68ZM85.71,78.4c1.49,2.21,3.95,3.52,6.61,3.52s5.13-1.32,6.61-3.52c-1.33-2.41-3.86-3.91-6.61-3.91s-5.28,1.5-6.61,3.91Z"/>
        </g>
      </g>
      <g>
        <g>
          <circle class="cls-3" cx="92.32" cy="70.47" r="3.11"/>
          <path class="cls-11" d="M92.32,73.66c-1.76,0-3.2-1.43-3.2-3.2s1.43-3.2,3.2-3.2,3.2,1.43,3.2,3.2-1.43,3.2-3.2,3.2ZM92.32,67.44c-1.67,0-3.03,1.36-3.03,3.03s1.36,3.03,3.03,3.03,3.03-1.36,3.03-3.03-1.36-3.03-3.03-3.03Z"/>
        </g>
        <g>
          <path class="cls-11" d="M92.32,73.62c-1.74,0-3.15-1.41-3.15-3.15s1.41-3.15,3.15-3.15,3.15,1.41,3.15,3.15-1.41,3.15-3.15,3.15ZM92.32,67.39c-1.7,0-3.08,1.38-3.08,3.08s1.38,3.08,3.08,3.08,3.08-1.38,3.08-3.08-1.38-3.08-3.08-3.08Z"/>
          <path class="cls-11" d="M92.32,73.7c-1.78,0-3.23-1.45-3.23-3.23s1.45-3.23,3.23-3.23,3.23,1.45,3.23,3.23-1.45,3.23-3.23,3.23ZM92.32,67.47c-1.65,0-3,1.35-3,3s1.35,3,3,3,3-1.35,3-3-1.35-3-3-3Z"/>
        </g>
      </g>
    </g>
    <path class="cls-6" d="M102.66,78.01c0,.65-.03,1.29-.11,1.94-.9,7.31-12.25,21.13-12.25,21.13,0,0-11.12-14.07-12.14-20.55-.13-.83-.2-1.67-.21-2.51-.12-6.82,5.53-12.36,12.36-12.36s12.36,5.53,12.36,12.36Z"/>
    <path class="cls-6" d="M60.76,53.16c0,.65-.03,1.29-.11,1.94-.9,7.31-12.25,21.13-12.25,21.13,0,0-11.12-14.07-12.14-20.55-.13-.83-.2-1.67-.21-2.51-.12-6.82,5.53-12.36,12.36-12.36s12.36,5.53,12.36,12.36Z"/>
    <g>
      <circle class="cls-5" cx="158.07" cy="37.12" r="8.08"/>
      <circle class="cls-10" cx="158.07" cy="37.12" r="8.08"/>
      <g>
        <g>
          <path class="cls-3" d="M158.07,45.2c2.82,0,5.3-1.44,6.75-3.63-1.29-2.4-3.83-4.03-6.75-4.03s-5.45,1.63-6.75,4.03c1.45,2.19,3.93,3.63,6.75,3.63Z"/>
          <path class="cls-11" d="M158.07,45.29c-2.75,0-5.3-1.37-6.82-3.67l-.03-.04.02-.04c1.36-2.51,3.97-4.07,6.82-4.07s5.46,1.56,6.82,4.07l.02.04-.03.04c-1.52,2.3-4.07,3.67-6.82,3.67ZM151.42,41.57c1.49,2.23,3.97,3.55,6.65,3.55s5.16-1.33,6.65-3.55c-1.33-2.43-3.88-3.94-6.65-3.94s-5.32,1.51-6.65,3.94Z"/>
        </g>
        <g>
          <path class="cls-11" d="M158.07,45.24c-2.73,0-5.27-1.36-6.77-3.65v-.02s0-.02,0-.02c1.35-2.5,3.94-4.05,6.78-4.05s5.43,1.55,6.78,4.05v.02s0,.02,0,.02c-1.51,2.28-4.04,3.65-6.77,3.65ZM151.36,41.57c1.5,2.26,4,3.6,6.71,3.6s5.21-1.35,6.71-3.6c-1.34-2.46-3.91-3.99-6.71-3.99s-5.37,1.53-6.71,3.99Z"/>
          <path class="cls-11" d="M158.07,45.32c-2.76,0-5.32-1.38-6.84-3.68l-.04-.06.03-.06c1.36-2.52,3.99-4.09,6.85-4.09s5.49,1.57,6.85,4.09l.03.06-.04.06c-1.52,2.31-4.08,3.68-6.84,3.68ZM151.46,41.57c1.49,2.21,3.95,3.52,6.61,3.52s5.13-1.32,6.61-3.52c-1.33-2.41-3.86-3.91-6.61-3.91s-5.28,1.5-6.61,3.91Z"/>
        </g>
      </g>
      <g>
        <g>
          <circle class="cls-3" cx="158.07" cy="33.64" r="3.11"/>
          <path class="cls-11" d="M158.07,36.84c-1.76,0-3.2-1.43-3.2-3.2s1.43-3.2,3.2-3.2,3.2,1.43,3.2,3.2-1.43,3.2-3.2,3.2ZM158.07,30.61c-1.67,0-3.03,1.36-3.03,3.03s1.36,3.03,3.03,3.03,3.03-1.36,3.03-3.03-1.36-3.03-3.03-3.03Z"/>
        </g>
        <g>
          <path class="cls-11" d="M158.07,36.79c-1.74,0-3.15-1.41-3.15-3.15s1.41-3.15,3.15-3.15,3.15,1.41,3.15,3.15-1.41,3.15-3.15,3.15ZM158.07,30.56c-1.7,0-3.08,1.38-3.08,3.08s1.38,3.08,3.08,3.08,3.08-1.38,3.08-3.08-1.38-3.08-3.08-3.08Z"/>
          <path class="cls-11" d="M158.07,36.87c-1.78,0-3.23-1.45-3.23-3.23s1.45-3.23,3.23-3.23,3.23,1.45,3.23,3.23-1.45,3.23-3.23,3.23ZM158.07,30.64c-1.65,0-3,1.35-3,3s1.35,3,3,3,3-1.35,3-3-1.35-3-3-3Z"/>
        </g>
      </g>
    </g>
    <path class="cls-6" d="M168.4,41.18c0,.65-.03,1.29-.11,1.94-.9,7.31-12.25,21.13-12.25,21.13,0,0-11.12-14.07-12.14-20.55-.13-.83-.2-1.67-.21-2.51-.12-6.82,5.53-12.36,12.36-12.36s12.36,5.53,12.36,12.36Z"/>
  </g>
  <g id="FALTAN_" data-name="FALTAN?">
    <g>
      <circle class="cls-1" cx="90.42" cy="77.76" r="10.5"/>
      <g>
        <g>
          <path class="cls-3" d="M90.42,88.26c3.66,0,6.89-1.88,8.76-4.72-1.68-3.12-4.98-5.23-8.76-5.23s-7.08,2.12-8.76,5.23c1.88,2.84,5.1,4.72,8.76,4.72Z"/>
          <path class="cls-11" d="M90.42,88.36c-3.57,0-6.88-1.78-8.85-4.77l-.04-.05.03-.06c1.76-3.26,5.15-5.29,8.86-5.29s7.1,2.03,8.86,5.29l.03.06-.04.05c-1.97,2.98-5.28,4.77-8.85,4.77ZM81.78,83.53c1.94,2.89,5.16,4.62,8.64,4.62s6.7-1.72,8.64-4.62c-1.73-3.16-5.04-5.12-8.64-5.12s-6.91,1.96-8.64,5.12Z"/>
        </g>
        <g>
          <path class="cls-11" d="M90.42,88.3c-3.55,0-6.84-1.77-8.8-4.74v-.02s0-.02,0-.02c1.75-3.24,5.12-5.26,8.8-5.26s7.05,2.01,8.8,5.26v.02s0,.02,0,.02c-1.96,2.97-5.25,4.74-8.8,4.74ZM81.71,83.53c1.95,2.93,5.2,4.68,8.71,4.68s6.77-1.75,8.71-4.68c-1.74-3.2-5.07-5.19-8.71-5.19s-6.98,1.99-8.71,5.19Z"/>
          <path class="cls-11" d="M90.42,88.41c-3.59,0-6.91-1.79-8.89-4.79l-.05-.08.04-.08c1.77-3.28,5.18-5.31,8.9-5.31s7.13,2.04,8.9,5.31l.04.08-.05.08c-1.98,3-5.3,4.79-8.89,4.79ZM81.83,83.53c1.93,2.87,5.14,4.58,8.59,4.58s6.66-1.71,8.59-4.58c-1.73-3.13-5.01-5.08-8.59-5.08s-6.86,1.94-8.59,5.08Z"/>
        </g>
      </g>
      <g>
        <g>
          <circle class="cls-3" cx="90.42" cy="73.23" r="4.05"/>
          <path class="cls-11" d="M90.42,77.38c-2.29,0-4.15-1.86-4.15-4.15s1.86-4.15,4.15-4.15,4.15,1.86,4.15,4.15-1.86,4.15-4.15,4.15ZM90.42,69.29c-2.17,0-3.94,1.77-3.94,3.94s1.77,3.94,3.94,3.94,3.94-1.77,3.94-3.94-1.77-3.94-3.94-3.94Z"/>
        </g>
        <g>
          <path class="cls-11" d="M90.42,77.32c-2.25,0-4.09-1.83-4.09-4.09s1.83-4.09,4.09-4.09,4.09,1.83,4.09,4.09-1.83,4.09-4.09,4.09ZM90.42,69.23c-2.21,0-4,1.8-4,4s1.8,4,4,4,4-1.8,4-4-1.8-4-4-4Z"/>
          <path class="cls-11" d="M90.42,77.43c-2.31,0-4.2-1.88-4.2-4.2s1.88-4.2,4.2-4.2,4.2,1.88,4.2,4.2-1.88,4.2-4.2,4.2ZM90.42,69.34c-2.15,0-3.89,1.75-3.89,3.89s1.75,3.89,3.89,3.89,3.89-1.75,3.89-3.89-1.75-3.89-3.89-3.89Z"/>
        </g>
      </g>
      <circle class="cls-9" cx="90.42" cy="77.76" r="10.5"/>
    </g>
    <g>
      <circle class="cls-1" cx="48.53" cy="52.91" r="10.5"/>
      <g>
        <g>
          <path class="cls-3" d="M48.53,63.4c3.66,0,6.89-1.88,8.76-4.72-1.68-3.12-4.98-5.23-8.76-5.23s-7.08,2.12-8.76,5.23c1.88,2.84,5.1,4.72,8.76,4.72Z"/>
          <path class="cls-11" d="M48.53,63.51c-3.57,0-6.88-1.78-8.85-4.77l-.04-.05.03-.06c1.76-3.26,5.15-5.29,8.86-5.29s7.1,2.03,8.86,5.29l.03.06-.04.05c-1.97,2.98-5.28,4.77-8.85,4.77ZM39.89,58.68c1.94,2.89,5.16,4.62,8.64,4.62s6.7-1.72,8.64-4.62c-1.73-3.16-5.04-5.12-8.64-5.12s-6.91,1.96-8.64,5.12Z"/>
        </g>
        <g>
          <path class="cls-11" d="M48.53,63.45c-3.55,0-6.84-1.77-8.8-4.74v-.02s0-.02,0-.02c1.75-3.24,5.12-5.26,8.8-5.26s7.05,2.01,8.8,5.26v.02s0,.02,0,.02c-1.96,2.97-5.25,4.74-8.8,4.74ZM39.82,58.68c1.95,2.93,5.2,4.68,8.71,4.68s6.77-1.75,8.71-4.68c-1.74-3.2-5.07-5.19-8.71-5.19s-6.98,1.99-8.71,5.19Z"/>
          <path class="cls-11" d="M48.53,63.55c-3.59,0-6.91-1.79-8.89-4.79l-.05-.08.04-.08c1.77-3.28,5.18-5.31,8.9-5.31s7.13,2.04,8.9,5.31l.04.08-.05.08c-1.98,3-5.3,4.79-8.89,4.79ZM39.94,58.68c1.93,2.87,5.14,4.58,8.59,4.58s6.66-1.71,8.59-4.58c-1.73-3.13-5.01-5.08-8.59-5.08s-6.86,1.94-8.59,5.08Z"/>
        </g>
      </g>
      <g>
        <g>
          <circle class="cls-3" cx="48.53" cy="48.38" r="4.05"/>
          <path class="cls-11" d="M48.53,52.53c-2.29,0-4.15-1.86-4.15-4.15s1.86-4.15,4.15-4.15,4.15,1.86,4.15,4.15-1.86,4.15-4.15,4.15ZM48.53,44.44c-2.17,0-3.94,1.77-3.94,3.94s1.77,3.94,3.94,3.94,3.94-1.77,3.94-3.94-1.77-3.94-3.94-3.94Z"/>
        </g>
        <g>
          <path class="cls-11" d="M48.53,52.47c-2.25,0-4.09-1.83-4.09-4.09s1.83-4.09,4.09-4.09,4.09,1.83,4.09,4.09-1.83,4.09-4.09,4.09ZM48.53,44.38c-2.21,0-4,1.8-4,4s1.8,4,4,4,4-1.8,4-4-1.8-4-4-4Z"/>
          <path class="cls-11" d="M48.53,52.57c-2.31,0-4.2-1.88-4.2-4.2s1.88-4.2,4.2-4.2,4.2,1.88,4.2,4.2-1.88,4.2-4.2,4.2ZM48.53,44.48c-2.15,0-3.89,1.75-3.89,3.89s1.75,3.89,3.89,3.89,3.89-1.75,3.89-3.89-1.75-3.89-3.89-3.89Z"/>
        </g>
      </g>
      <circle class="cls-9" cx="48.53" cy="52.91" r="10.5"/>
    </g>
    <g>
      <circle class="cls-1" cx="156.17" cy="40.93" r="10.5"/>
      <g>
        <g>
          <path class="cls-3" d="M156.17,51.43c3.66,0,6.89-1.88,8.76-4.72-1.68-3.12-4.98-5.23-8.76-5.23s-7.08,2.12-8.76,5.23c1.88,2.84,5.1,4.72,8.76,4.72Z"/>
          <path class="cls-11" d="M156.17,51.53c-3.57,0-6.88-1.78-8.85-4.77l-.04-.05.03-.06c1.76-3.26,5.15-5.29,8.86-5.29s7.1,2.03,8.86,5.29l.03.06-.04.05c-1.97,2.98-5.28,4.77-8.85,4.77ZM147.53,46.7c1.94,2.89,5.16,4.62,8.64,4.62s6.7-1.72,8.64-4.62c-1.73-3.16-5.04-5.12-8.64-5.12s-6.91,1.96-8.64,5.12Z"/>
        </g>
        <g>
          <path class="cls-11" d="M156.17,51.47c-3.55,0-6.84-1.77-8.8-4.74v-.02s0-.02,0-.02c1.75-3.24,5.12-5.26,8.8-5.26s7.05,2.01,8.8,5.26v.02s0,.02,0,.02c-1.96,2.97-5.25,4.74-8.8,4.74ZM147.46,46.7c1.95,2.93,5.2,4.68,8.71,4.68s6.77-1.75,8.71-4.68c-1.74-3.2-5.07-5.19-8.71-5.19s-6.98,1.99-8.71,5.19Z"/>
          <path class="cls-11" d="M156.17,51.58c-3.59,0-6.91-1.79-8.89-4.79l-.05-.08.04-.08c1.77-3.28,5.18-5.31,8.9-5.31s7.13,2.04,8.9,5.31l.04.08-.05.08c-1.98,3-5.3,4.79-8.89,4.79ZM147.58,46.7c1.93,2.87,5.14,4.58,8.59,4.58s6.66-1.71,8.59-4.58c-1.73-3.13-5.01-5.08-8.59-5.08s-6.86,1.94-8.59,5.08Z"/>
        </g>
      </g>
      <g>
        <g>
          <circle class="cls-3" cx="156.17" cy="36.4" r="4.05"/>
          <path class="cls-11" d="M156.17,40.55c-2.29,0-4.15-1.86-4.15-4.15s1.86-4.15,4.15-4.15,4.15,1.86,4.15,4.15-1.86,4.15-4.15,4.15ZM156.17,32.46c-2.17,0-3.94,1.77-3.94,3.94s1.77,3.94,3.94,3.94,3.94-1.77,3.94-3.94-1.77-3.94-3.94-3.94Z"/>
        </g>
        <g>
          <path class="cls-11" d="M156.17,40.49c-2.25,0-4.09-1.83-4.09-4.09s1.83-4.09,4.09-4.09,4.09,1.83,4.09,4.09-1.83,4.09-4.09,4.09ZM156.17,32.4c-2.21,0-4,1.8-4,4s1.8,4,4,4,4-1.8,4-4-1.8-4-4-4Z"/>
          <path class="cls-11" d="M156.17,40.6c-2.31,0-4.2-1.88-4.2-4.2s1.88-4.2,4.2-4.2,4.2,1.88,4.2,4.2-1.88,4.2-4.2,4.2ZM156.17,32.51c-2.15,0-3.89,1.75-3.89,3.89s1.75,3.89,3.89,3.89,3.89-1.75,3.89-3.89-1.75-3.89-3.89-3.89Z"/>
        </g>
      </g>
      <circle class="cls-9" cx="156.17" cy="40.93" r="10.5"/>
    </g>
  </g>
</svg>