<?xml version="1.0" encoding="UTF-8"?><svg id="a" xmlns="http://www.w3.org/2000/svg" xmlns:xlink="http://www.w3.org/1999/xlink" viewBox="0 0 250 180"><defs><clipPath id="b"><path d="M199.32,66.17l-6.5-5.11c-.46-8.62-1.47-15.95-1.69-18.56-.69-8.14-15.38-22.75-33.93-19.75-18.56,3-28.11,19.99-25.11,38.54.4,2.48,3.45,13.51,5.72,21.56,1.63,5.8,1.89,11.91.74,17.83l-5.49,15.88,37.95-6.14-4.14-13.68c20.6,11.95,25.65-5.67,26.15-24.1l5.86-2.7c1.51-.7,1.75-2.74.44-3.77Z" style="fill:none;"/></clipPath></defs><g style="opacity:.61;"><g style="clip-path:url(#b);"><path d="M139.54,10.3l-.13.05c-.15-.28-.32-.53-.49-.8l-27.44,56.4,1.18-.41,26.88-55.24Z" style="fill:#e9f0f8;"/><path d="M141.96,10.52l-.13.05c-.15-.28-.32-.53-.49-.8l-27.44,56.4,1.18-.41,26.88-55.24Z" style="fill:#e9f0f8;"/><path d="M144.39,11.82l-.13.05c-.15-.28-.32-.53-.49-.8l-27.44,56.4,1.18-.41,26.88-55.24Z" style="fill:#e9f0f8;"/><path d="M146.81,12.26l-.13.05c-.15-.28-.32-.53-.49-.8l-27.44,56.4,1.18-.41,26.88-55.24Z" style="fill:#e9f0f8;"/><path d="M149.24,13.34l-.13.05c-.15-.28-.32-.53-.49-.8l-27.44,56.4,1.18-.41,26.88-55.24Z" style="fill:#e9f0f8;"/><path d="M151.67,14.42l-.13.05c-.15-.28-.32-.53-.49-.8l-27.44,56.4,1.18-.41,26.88-55.24Z" style="fill:#e9f0f8;"/><path d="M154.09,15.29l-.13.05c-.15-.28-.32-.53-.49-.8l-27.44,56.4,1.18-.41,26.88-55.24Z" style="fill:#e9f0f8;"/><path d="M156.52,15.94l-.13.05c-.15-.28-.32-.53-.49-.8l-27.44,56.4,1.18-.41,26.88-55.24Z" style="fill:#e9f0f8;"/><path d="M158.94,16.59l-.13.05c-.15-.28-.32-.53-.49-.8l-27.44,56.4,1.18-.41,26.88-55.24Z" style="fill:#e9f0f8;"/><path d="M161.37,17.46l-.13.05c-.15-.28-.32-.53-.49-.8l-44.9,95.67,1.18-.41,44.34-94.51Z" style="fill:#e9f0f8;"/><path d="M163.8,18.76l-.13.05c-.15-.28-.32-.53-.49-.8l-44.9,95.67,1.18-.41,44.34-94.51Z" style="fill:#e9f0f8;"/><path d="M166.22,19.84l-.13.05c-.15-.28-.32-.53-.49-.8l-44.9,95.67,1.18-.41,44.34-94.51Z" style="fill:#e9f0f8;"/><path d="M168.65,20.93l-.13.05c-.15-.28-.32-.53-.49-.8l-44.9,95.67,1.18-.41,44.34-94.51Z" style="fill:#e9f0f8;"/><path d="M171.07,22.01l-.13.05c-.15-.28-.32-.53-.49-.8l-44.9,95.67,1.18-.41,44.34-94.51Z" style="fill:#e9f0f8;"/><path d="M173.5,23.1l-.13.05c-.15-.28-.32-.53-.49-.8l-44.9,95.67,1.18-.41,44.34-94.51Z" style="fill:#e9f0f8;"/><path d="M175.92,23.75l-.13.05c-.15-.28-.32-.53-.49-.8l-44.9,95.67,1.18-.41,44.34-94.51Z" style="fill:#e9f0f8;"/><path d="M178.35,24.4l-.13.05c-.15-.28-.32-.53-.49-.8l-44.9,95.67,1.18-.41,44.34-94.51Z" style="fill:#e9f0f8;"/><path d="M181.6,24.83l-.13.05c-.15-.28-.32-.53-.49-.8l-44.9,95.67,1.18-.41,44.34-94.51Z" style="fill:#e9f0f8;"/><path d="M183.99,25.92l-.13.05c-.15-.28-.32-.53-.49-.8l-44.9,95.67,1.18-.41,44.34-94.51Z" style="fill:#e9f0f8;"/><path d="M186.8,27.22l-.13.05c-.15-.28-.32-.53-.49-.8l-44.9,95.67,1.18-.41,44.34-94.51Z" style="fill:#e9f0f8;"/><path d="M190.05,28.08l-.13.05c-.15-.28-.32-.53-.49-.8l-44.9,95.67,1.18-.41,44.34-94.51Z" style="fill:#e9f0f8;"/><path d="M192.66,28.95l-.13.05c-.15-.28-.32-.53-.49-.8l-44.9,95.67,1.18-.41,44.34-94.51Z" style="fill:#e9f0f8;"/><path d="M195.47,29.38l-.13.05c-.15-.28-.32-.53-.49-.8l-44.9,95.67,1.18-.41,44.34-94.51Z" style="fill:#e9f0f8;"/><path d="M197.86,30.68l-.13.05c-.15-.28-.32-.53-.49-.8l-44.9,95.67,1.18-.41,44.34-94.51Z" style="fill:#e9f0f8;"/><path d="M200.46,31.98l-.13.05c-.15-.28-.32-.53-.49-.8l-44.9,95.67,1.18-.41,44.34-94.51Z" style="fill:#e9f0f8;"/><path d="M203.06,33.28l-.13.05c-.15-.28-.32-.53-.49-.8l-44.9,95.67,1.18-.41,44.34-94.51Z" style="fill:#e9f0f8;"/><path d="M205.66,34.59l-.13.05c-.15-.28-.32-.53-.49-.8l-44.9,95.67,1.18-.41,44.34-94.51Z" style="fill:#e9f0f8;"/><path d="M208.04,36.1l-.13.05c-.15-.28-.32-.53-.49-.8l-44.9,95.67,1.18-.41,44.34-94.51Z" style="fill:#e9f0f8;"/><path d="M209.78,37.84l-.13.05c-.15-.28-.32-.53-.49-.8l-44.9,95.67,1.18-.41,44.34-94.51Z" style="fill:#e9f0f8;"/><path d="M211.73,38.7l-.13.05c-.15-.28-.32-.53-.49-.8l-44.9,95.67,1.18-.41,44.34-94.51Z" style="fill:#e9f0f8;"/><path d="M213.68,39.79l-.13.05c-.15-.28-.32-.53-.49-.8l-44.9,95.67,1.18-.41,44.34-94.51Z" style="fill:#e9f0f8;"/><path d="M215.2,41.09l-.13.05c-.15-.28-.32-.53-.49-.8l-44.9,95.67,1.18-.41,44.34-94.51Z" style="fill:#e9f0f8;"/></g></g><circle cx="116.08" cy="98.11" r="64.51" style="fill:#fff; stroke:#879db4; stroke-miterlimit:10;"/><path d="M134.12,75.45c0-3.6,2.01-7.99,4.5-7.99s5.03.69,5.03,4.3c0,1.73-.79,5.62-1.55,7.32-.82,1.83-2.19,2.89-3.48,2.89-2.48,0-4.5-2.92-4.5-6.52Z" style="fill:#fff; stroke:#879db4; stroke-miterlimit:10;"/><path d="M94.58,81.8c-.33.12-.68.18-1.03.18-1.29,0-2.66-1.06-3.48-2.89-.76-1.71-1.55-5.59-1.55-7.33,0-3.6,2.55-4.29,5.03-4.29.12,0,.25.01.37.03-.1,1.73-.14,3.5-.14,5.31,0,3.24.27,6.24.8,8.99Z" style="fill:#fff; stroke:#879db4; stroke-miterlimit:10;"/><path d="M165.86,139.15c-11.83,14.33-29.74,23.48-49.78,23.48s-37.94-9.13-49.77-23.47c.52-9.84,3.15-18.37,11.79-23.9,4.32-2.77,10.36-4.62,17.05-5.77,6.69-1.16,14.02-1.63,20.93-1.63,13.82,0,29.34,1.86,37.98,7.4,8.63,5.53,11.27,14.06,11.79,23.9Z" style="fill:#fff; stroke:#879db4; stroke-miterlimit:10;"/><path d="M155.45,71.47c-.85-2.12,1.15-3.18,1.19-5.95.02-1.21-.77-2.54-1.79-3.4-1.3-1.09-2.88-1.53-4.27-2.43-1.35-.87-2.15-3.18-2.18-4.93-.03-2.09.04-5.66-1.94-7.64-1.81-1.82-4.14-2.57-4.75-5.25-.3-1.31,0-2.63-1.11-3.61-1.48-1.3-2.71-.68-3.75-2.66-.67-1.29-.62-2.33-1.82-3.35-1.06-.89-2.62-1.72-3.93-2.23-1.28-.49-2.48-.42-3.81-.63-1.63-.27-2.91-1.37-4.52-1.63-1.53-.25-2.78.24-4.29-.38-1.64-.67-2.49-1.62-4.48-1.41-1.33.14-2.37.88-3.59,1.31-1.78.62-3.36-.09-5.11.27-3.05.62-2.61,2.33-4.64,3.54-.96.57-2.65.88-3.7,1.44-1.73.93-1.05,2.27-1.5,3.91-.43,1.56-.46,1.61-1.92,2.27-1.37.62-4.26.66-5.5,4.11-.44,1.23-.23,2.94-.97,3.41-1.24.79-1.88.27-3.26-.07-1.47-.36-2.37,0-3.07,1.06-.37.56-.58,1.65-1.19,2-1.06.6-2.37.15-3.43.74-.92.51-1.74,1.5-1.51,2.81.2,1.16.34,2.39.29,3.39-.1,1.95-2.33,2.02-1.98,4.25.32,2.04,3.91,1.84,2.27,4.12-.63.87-1.58,1.67-2.13,2.77-.87,1.78-.73,3.01-.4,3.66.94,1.88.65,3.56,2.36,4.98,1.16.96,2.1.89,2.85,2.43.45.92-.24,1.82-.49,3.1-.42,2.08.42,4.19,2.34,4.83.81.27,2.21.4,2.77,1.21.83,1.22.35,1.77.43,3.18.22,3.61,3.8,1.71,5.63,3.5,1.11,1.08.37,2.54.99,3.73.52,1.01,1.18,1.72,3.97,1.72,1.35,0,1.46,2.26,2.61,2.87,1.7.9,2.72-.74,4.23.6,1.9,1.69,2.72,2.93,5.38,3.56,4.9,1.18,10.36,1.65,15.35.98,2.19-.29,4.82-.75,6.74-1.92,1.01-.61,1.2-1.15,1.87-1.98.73-.9,1.52-1.25,2.35-1.98,1.3-1.15,1.24-2.79,2.4-3.94,1.83-1.83,4.99-2.19,6.64-4.38.29-.39.28-1.15.72-1.63,1.57-1.74,3.69.67,5.28-.78,1.14-1.03.54-1.88,2.19-2.27,1.15-.27,1.35.32,2.52-.65,1.95-1.62,1.96-4.04,2.85-6.22.97-2.37,2.34-2.61,3.1-4.87.32-.97.14-2.45-.47-3.37-.55-.84-1.4-1.07-1.84-2.15Z" style="fill:#fff; stroke:#879db4; stroke-miterlimit:10;"/><path d="M138.39,72.81c0,12.36-3.86,21.16-11.07,26.24-.29.2-.56.4-.83.58-.03.02-.06.04-.09.06-.29.21-.57.4-.85.58-.74.5-1.41.92-2.04,1.29-.2.13-.41.24-.6.35-.37.2-.73.39-1.07.54-.17.08-.34.16-.51.23-.21.09-.42.17-.62.24-.18.07-.37.13-.55.19-.04.01-.08.02-.11.03-.18.05-.37.1-.56.15-.22.05-.43.1-.65.13-.21.04-.42.07-.64.1-.14.02-.29.03-.43.05-.1,0-.21.02-.32.02-.44.04-.89.05-1.37.05s-.93,0-1.37-.05c-.1,0-.19-.01-.29-.02-.15-.01-.3-.03-.45-.05-.22-.03-.43-.06-.64-.1-.22-.03-.44-.08-.65-.13-.19-.05-.38-.1-.56-.15-.03,0-.07-.02-.11-.03-.18-.06-.37-.12-.55-.19-.2-.07-.41-.15-.62-.24-.17-.07-.34-.15-.51-.23-.35-.16-.71-.34-1.09-.55-.19-.11-.39-.22-.59-.34-.62-.37-1.29-.79-2.03-1.29-.27-.18-.56-.37-.85-.58-.03-.02-.06-.04-.09-.06-.27-.18-.54-.38-.83-.58-5.32-3.75-8.81-9.52-10.27-17.25-.53-2.75-.8-5.75-.8-8.99,0-1.81.04-3.58.14-5.31.91-16.11,6.34-28.42,22.16-28.42,17.53,0,22.31,15.1,22.31,33.73Z" style="fill:#fff; stroke:#879db4; stroke-miterlimit:10;"/><path d="M132.03,117.89c0,8.15-5.71,21.65-15.95,21.65s-15.94-13.5-15.94-21.65c0-3.18,1.29-6.58,3.32-7.98,1.35-.93,2.22-2.42,2.22-4.05v-6.23s.06.04.09.06c.29.21.58.4.85.58.74.5,1.41.92,2.03,1.29.2.12.4.23.59.34.38.21.74.39,1.09.55.17.08.34.16.51.23.21.09.42.17.62.24.18.07.37.13.55.19.04.01.08.02.11.03.18.05.37.1.56.15.21.05.43.1.65.13.21.04.42.07.64.1.15.02.3.04.45.05.1,0,.19.02.29.02.44.04.89.05,1.37.05s.93,0,1.37-.05c.11,0,.22-.01.32-.02.14-.02.29-.03.43-.05.22-.03.43-.06.64-.1.22-.03.43-.08.65-.13.19-.05.38-.1.56-.15.03,0,.07-.02.11-.03.18-.06.37-.12.55-.19.2-.07.41-.15.62-.24.17-.07.34-.15.51-.23.34-.15.7-.34,1.07-.54.19-.11.4-.22.6-.35.63-.37,1.3-.79,2.04-1.29.28-.18.56-.37.85-.58.03-.02.06-.04.09-.06v6.23c0,1.63.87,3.12,2.21,4.05,2.04,1.4,3.33,4.8,3.33,7.98Z" style="fill:#fff; stroke:#879db4; stroke-miterlimit:10;"/><path d="M138.25,76.57c.05-.67.08-1.35.1-2.04,0,.65-.03,1.32-.1,2.04Z" style="fill:#fff; stroke:#879db4; stroke-miterlimit:10;"/><path d="M141.99,74.05c-3.34,1.51-4.73-3.08-4.63-5.47.06-1.48.43-2.22-.29-3.72-.5-1.04-.65-2.21-.72-2.82-.19-1.55-1.3-2.65-1.96-4.07-.59-1.27-.69-2.46-1.24-3.35-1.1-1.78-3.27-3.6-4.92-5.01-.58-.5-2.34-2.26-3.21-2.2-1.18.09-4.16,4.04-5.27,4.89-1.89,1.43-2.64,2.42-4.98,2.76-1.4.21-3.25.03-4.67.68-1.55.72-2,2.18-3.12,2.76-1.76.9-3.81-.52-5.37.7-1.43,1.13-1.77,3.24-3.82,3.95-1.04.36-2.97,1-3.31,3.02-.33,1.9-1.05,3.67-1.18,5.65-.11,1.75,1.58,6.25.1,7.45-1.62,1.31-4.89-.83-6.04-1.81-2.87-2.44-4.7-6.12-4.97-9.87.45-.24.91-.49,1.33-.77,1.52-1.01,1.72-3.12,1.5-4.86-.11-.86-.57-1.38-.93-1.95-.18.25-.34.52-.49.79-1.15,2.1-1.58,4.46-1.41,6.79-1,.55-1.99,1.11-2.61,2.13-1.34,2.23.67,3.04,1.59,4.68.74,1.32,1.87,2.99,1.88,4.53.03,1.89-.74,1.56-1.89,2.95-.87,1.04.42,2.59-.17,3.65-.18.31-.61.59-1.16.84-.11-.03-.21-.06-.3-.09-1.93-.65-2.77-2.75-2.35-4.84.26-1.27.95-2.17.5-3.1-.75-1.53-1.69-1.47-2.86-2.43-1.7-1.42-1.41-3.09-2.35-4.97-.33-.66-.47-1.89.4-3.67.54-1.1,1.49-1.9,2.12-2.77,1.65-2.27-1.94-2.07-2.26-4.11-.35-2.23,1.88-2.31,1.97-4.26.06-.99-.09-2.22-.29-3.38-.22-1.32.59-2.31,1.52-2.81,1.06-.59,2.37-.14,3.43-.74.6-.34.82-1.44,1.19-2,.69-1.05,1.6-1.43,3.07-1.06,1.38.34,2.02.86,3.26.07.74-.47.53-2.18.97-3.41,1.25-3.44,4.14-3.48,5.5-4.11,1.46-.66,1.49-.71,1.92-2.26.45-1.65-.23-2.99,1.5-3.92,1.05-.55,2.74-.87,3.7-1.44,2.03-1.2,1.58-2.91,4.64-3.54,1.74-.36,3.32.35,5.11-.26,1.22-.43,2.26-1.17,3.59-1.31,1.99-.21,2.83.74,4.47,1.41,1.51.62,2.76.13,4.29.38,1.61.27,2.89,1.37,4.52,1.64,1.34.21,2.53.13,3.81.63,1.31.5,2.87,1.33,3.93,2.23,1.21,1.01,1.16,2.06,1.83,3.34-.24-.45-4.1-1.07-4.64-1.19-1.84-.41-3.55-.54-5.26-.29,11.27,3.39,17.45,12.9,17.45,25.23,0,3.34,1.56,12.9-2.42,14.71Z" style="fill:#fff; stroke:#879db4; stroke-miterlimit:10;"/><path d="M83.72,66.82c-.42.28-.88.53-1.33.77-.17-2.33.26-4.69,1.41-6.79.15-.27.31-.54.49-.79.36.57.82,1.09.93,1.95.22,1.74.02,3.85-1.5,4.86Z" style="fill:#fff; stroke:#879db4; stroke-miterlimit:10;"/><path d="M137.42,67.8c-.07-.26-.18-.53-.35-.85-.5-.9-.65-1.9-.73-2.42-.18-1.33-1.29-2.27-1.96-3.5-.59-1.09-.68-2.11-1.24-2.87-1.1-1.53-3.27-3.09-4.92-4.31-.57-.43-2.34-1.94-3.21-1.89-1.18.08-4.16,3.47-5.27,4.2-1.89,1.23-2.65,2.08-4.98,2.37-1.4.18-3.26.02-4.67.59-1.55.62-2,1.87-3.12,2.37-1.76.78-3.81-.45-5.37.6-1.43.97-1.76,2.78-3.81,3.39-1.04.31-2.98.86-3.32,2.59-.3,1.52-.95,2.94-1.14,4.52-.03-.3-.05-.56-.03-.78.13-1.98.85-3.75,1.17-5.64.34-2.02,2.27-2.66,3.32-3.02,2.05-.71,2.39-2.82,3.81-3.95,1.56-1.22,3.61.2,5.37-.71,1.11-.57,1.57-2.04,3.12-2.76,1.42-.66,3.27-.47,4.67-.68,2.33-.34,3.09-1.33,4.98-2.76,1.11-.85,4.09-4.8,5.27-4.89.87-.06,2.63,1.7,3.21,2.19,1.65,1.42,3.82,3.24,4.92,5.02.55.89.64,2.08,1.24,3.34.66,1.42,1.78,2.52,1.96,4.07.08.61.23,1.78.73,2.82.58,1.21.45,1.93.35,2.94Z" style="fill:#e9f0f8;"/><path d="M83.72,66.82c-.42.28-.88.53-1.33.77-.17-2.33.26-4.69,1.41-6.79.15-.27.31-.54.49-.79.36.57.82,1.09.93,1.95.22,1.74.02,3.85-1.5,4.86Z" style="fill:#fff; stroke:#879db4; stroke-miterlimit:10;"/><path d="M92.07,127.49h-6.12c-2.42,0-3.63-2.92-1.92-4.63l4.33-4.33c.53-.53.53-1.39,0-1.92l-5.75-5.75c-.53-.53-1.39-.53-1.92,0l-4.33,4.33c-1.71,1.71-4.63.5-4.63-1.92v-6.12c0-.75-.61-1.36-1.36-1.36h-8.14c-.75,0-1.36.61-1.36,1.36v6.12c0,2.42-2.92,3.63-4.63,1.92l-4.33-4.33c-.53-.53-1.39-.53-1.92,0l-5.75,5.75c-.53.53-.53,1.39,0,1.92l4.33,4.33c1.71,1.71.5,4.63-1.92,4.63h-6.12c-.75,0-1.36.61-1.36,1.36v8.14c0,.75.61,1.36,1.36,1.36h6.12c2.42,0,3.63,2.92,1.92,4.63l-4.33,4.33c-.53.53-.53,1.39,0,1.92l5.75,5.75c.53.53,1.39.53,1.92,0l4.33-4.33c1.71-1.71,4.63-.5,4.63,1.92v6.12c0,.75.61,1.36,1.36,1.36h8.14c.75,0,1.36-.61,1.36-1.36v-6.12c0-2.42,2.92-3.63,4.63-1.92l4.33,4.33c.53.53,1.39.53,1.92,0l5.75-5.75c.53-.53.53-1.39,0-1.92l-4.33-4.33c-1.71-1.71-.5-4.63,1.92-4.63h6.12c.75,0,1.36-.61,1.36-1.36v-8.14c0-.75-.61-1.36-1.36-1.36Z" style="fill:#fff; stroke:#879db4; stroke-miterlimit:10;"/><circle cx="66.31" cy="132.92" r="9.49" style="fill:#fff; stroke:#879db4; stroke-miterlimit:10;"/><g id="c"><path d="M140.86,144.05c0,.39-.46.83-.86.83h-.69v-6.92h1.56v6.09Z" style="fill:#e9f0f7;"/><path d="M142.7,137.97h2c.75,0,1.32.15,1.69.47.38.32.56.75.56,1.3,0,.39-.09.7-.26.94s-.39.42-.67.54v.02c.77.22,1.17.76,1.17,1.63,0,.31-.05.59-.14.84-.09.24-.24.46-.44.63-.2.18-.45.31-.76.4s-.68.13-1.12.13h-2.84s0-6.1,0-6.1c0-.32.48-.82.81-.82ZM145.65,142.75c0-.3-.07-.51-.21-.63-.14-.13-.38-.19-.72-.19h-1.33v1.67h1.37c.31,0,.54-.06.68-.18.14-.11.21-.34.21-.67ZM145.48,140.02c0-.28-.07-.47-.2-.58s-.34-.16-.63-.16h-1.25v1.5h1.29c.28,0,.48-.06.61-.18.13-.11.19-.31.19-.59Z" style="fill:#e9f0f7;"/><path d="M137.23,139.31c-1.93-.28-2.39.37-2.39,2.13s.47,2.33,2.55,2.12c.65-.07.81.14.93,1.16-.22.12-1.22.29-1.92.27-1.04-.03-1.91-.29-2.41-.88-.51-.59-.75-1.49-.75-2.72,0-2.48,1.11-3.5,3.27-3.5,1.06,0,1.76.32,1.76.32-.18,1.13-.37,1.21-1.04,1.1Z" style="fill:#e9f0f7;"/><path d="M151.04,141.93c.51,0,1.28-.82,1.28-1.27v-4.33h-3.97v5.6h2.69Z" style="fill:#e9f0f7;"/></g></svg>