<?xml version="1.0" encoding="UTF-8"?>
<svg id="Capa_2" data-name="Capa 2" xmlns="http://www.w3.org/2000/svg" viewBox="0 0 561 975.79">
  <defs>
    <style>
      .cls-1 {
        opacity: .62;
      }

      .cls-1, .cls-2, .cls-3, .cls-4, .cls-5, .cls-6, .cls-7, .cls-8 {
        stroke-width: 0px;
      }

      .cls-1, .cls-3, .cls-4, .cls-9 {
        fill: #fff;
      }

      .cls-2, .cls-5 {
        fill: #dfe5ea;
      }

      .cls-10 {
        opacity: .35;
      }

      .cls-11 {
        opacity: .75;
      }

      .cls-4, .cls-5, .cls-8 {
        fill-rule: evenodd;
      }

      .cls-6, .cls-8 {
        fill: #869cb3;
      }

      .cls-7 {
        fill: #e9f0f7;
      }

      .cls-9 {
        stroke: #869cb3;
        stroke-miterlimit: 10;
      }
    </style>
  </defs>
  <g id="Illustration">
    <g>
      <ellipse class="cls-2" cx="282.62" cy="628.97" rx="153.78" ry="14.22"/>
      <ellipse class="cls-2" cx="88.79" cy="248.56" rx="53.87" ry="6.67"/>
      <g>
        <path class="cls-2" d="m200.07,303.13c-.66,0-1.29-.35-1.63-.94l-3.92-6.68c-3.66-.18-7.26-.89-10.73-2.12l-6.16,4.7c-.64.49-1.53.52-2.2.07l-8.4-5.59c-.67-.45-.99-1.28-.78-2.06l1.95-7.5c-2.47-2.72-4.52-5.77-6.1-9.08l-7.68-1.03c-.8-.11-1.45-.71-1.61-1.5l-1.99-9.89c-.16-.79.2-1.6.9-2.01l6.68-3.92c.18-3.66.89-7.26,2.12-10.73l-4.7-6.16c-.49-.64-.52-1.53-.07-2.2l5.59-8.4c.45-.67,1.28-.99,2.06-.78l7.5,1.95c2.72-2.47,5.77-4.52,9.08-6.1l1.03-7.68c.11-.8.71-1.45,1.51-1.61l9.89-1.99c.79-.16,1.6.2,2.01.9l3.92,6.68c3.66.18,7.26.89,10.73,2.11l6.16-4.7c.64-.49,1.53-.52,2.2-.07l8.4,5.59c.67.45.99,1.27.78,2.06l-1.95,7.5c2.47,2.72,4.52,5.77,6.1,9.08l7.68,1.03c.8.11,1.45.71,1.61,1.5l1.99,9.89c.16.79-.2,1.6-.9,2.01l-6.68,3.92c-.18,3.66-.89,7.26-2.12,10.73l4.7,6.16c.49.64.52,1.53.07,2.2l-5.59,8.4c-.45.67-1.27.99-2.06.79l-7.5-1.95c-2.73,2.47-5.77,4.52-9.08,6.1l-1.03,7.68c-.11.8-.71,1.45-1.51,1.61l-9.89,1.99c-.13.03-.25.04-.38.04Zm-16.7-12.45l.62.23c3.62,1.35,7.41,2.1,11.26,2.22l.67.02,4.4,7.51,9.17-1.84,1.16-8.63.61-.28c3.5-1.6,6.71-3.75,9.53-6.4l.49-.46,8.43,2.2,5.18-7.79-5.28-6.92.23-.62c1.35-3.63,2.1-7.41,2.22-11.26l.02-.67,7.51-4.4-1.84-9.17-8.63-1.16-.28-.61c-1.6-3.5-3.76-6.71-6.4-9.53l-.46-.49,2.2-8.43-7.79-5.18-6.92,5.28-.62-.23c-3.62-1.35-7.41-2.1-11.26-2.22l-.67-.02-4.4-7.51-9.17,1.84-1.16,8.63-.61.28c-3.5,1.6-6.71,3.75-9.53,6.4l-.49.46-8.43-2.2-5.18,7.79,5.28,6.92-.23.62c-1.35,3.63-2.1,7.41-2.22,11.26l-.02.67-7.51,4.4,1.84,9.17,8.63,1.16.28.61c1.6,3.5,3.75,6.71,6.4,9.53l.46.48-2.2,8.43,7.79,5.18,6.92-5.28Zm13.18-7.53c-4.98,0-9.85-1.46-14.1-4.28-5.68-3.78-9.55-9.55-10.9-16.24-.36-1.79-.53-3.61-.5-5.42,0-.67.57-1.19,1.22-1.19.67,0,1.2.56,1.19,1.22-.02,1.63.13,3.29.46,4.91,1.22,6.06,4.72,11.28,9.87,14.7,5.15,3.42,11.32,4.64,17.38,3.42,6.06-1.22,11.28-4.72,14.7-9.87,3.42-5.15,4.64-11.32,3.42-17.38-2.52-12.51-14.74-20.64-27.25-18.12-4.11.83-7.92,2.75-11,5.56-.49.45-1.25.41-1.7-.08-.45-.49-.41-1.25.08-1.7,3.41-3.1,7.61-5.23,12.15-6.14,13.81-2.78,27.31,6.2,30.09,20.01,2.78,13.81-6.2,27.31-20.01,30.09-1.7.34-3.4.51-5.09.51Z"/>
        <path class="cls-2" d="m196.43,267.65c-3.8,0-7.44-2.13-9.19-5.78h0c-2.42-5.06-.27-11.14,4.79-13.55,5.06-2.42,11.14-.27,13.55,4.79,1.17,2.45,1.32,5.21.41,7.77-.9,2.56-2.75,4.61-5.2,5.78-1.41.67-2.9.99-4.37.99Zm-7.01-6.82c1.84,3.86,6.48,5.5,10.34,3.65,3.86-1.84,5.5-6.48,3.65-10.34-1.84-3.86-6.48-5.5-10.34-3.65-3.86,1.84-5.5,6.48-3.65,10.34h0Z"/>
      </g>
      <path class="cls-2" d="m259.33,319.92c-.15,0-.3-.02-.44-.07l-4.65-1.4c-.63-.19-1.07-.76-1.09-1.41l-.13-3.39c-1.36-.85-2.6-1.86-3.69-3.01l-3.35.54c-.65.1-1.29-.21-1.6-.79l-2.3-4.27c-.31-.58-.22-1.29.22-1.77l2.3-2.49c-.36-1.55-.52-3.14-.48-4.74l-2.75-1.98c-.53-.38-.76-1.06-.57-1.69l1.4-4.65c.19-.63.75-1.07,1.41-1.09l3.39-.14c.85-1.36,1.86-2.6,3.01-3.69l-.54-3.35c-.11-.65.21-1.29.79-1.6l4.27-2.3c.58-.31,1.29-.22,1.77.22l2.49,2.3c1.55-.36,3.14-.52,4.74-.48l1.98-2.75c.38-.53,1.06-.76,1.69-.57l4.65,1.4c.63.19,1.07.76,1.09,1.41l.13,3.39c1.36.85,2.6,1.86,3.69,3.01l3.35-.54c.65-.11,1.29.21,1.6.79l2.3,4.27c.31.58.22,1.29-.23,1.77l-2.3,2.49c.36,1.55.52,3.14.48,4.74l2.75,1.98c.53.39.76,1.06.57,1.69l-1.4,4.65c-.19.63-.75,1.07-1.41,1.09l-3.39.14c-.85,1.36-1.86,2.6-3.01,3.69l.54,3.35c.11.65-.21,1.29-.79,1.6l-4.27,2.3c-.58.31-1.29.22-1.77-.22l-2.49-2.3c-1.55.36-3.14.52-4.74.48l-1.98,2.75c-.29.41-.76.64-1.25.64Zm-.71-2.05s0,0,0,0h0Zm-3.09-1.54l3.46,1.04,2.39-3.32.66.04c1.79.11,3.57-.07,5.29-.53l.64-.17,3,2.77,3.18-1.71-.66-4.03.5-.44c1.34-1.18,2.47-2.57,3.36-4.12l.33-.58,4.09-.16,1.04-3.46-3.32-2.39.04-.66c.11-1.79-.07-3.57-.53-5.29l-.17-.64,2.77-3-1.71-3.18-4.03.66-.44-.5c-1.18-1.34-2.57-2.47-4.12-3.36l-.58-.33-.16-4.09-3.46-1.04-2.39,3.32-.66-.04c-1.79-.11-3.57.07-5.29.53l-.64.17-3-2.77-3.18,1.71.66,4.03-.5.44c-1.34,1.18-2.47,2.57-3.36,4.12l-.33.58-4.09.16-1.04,3.46,3.32,2.39-.04.66c-.11,1.79.07,3.57.53,5.29l.17.64-2.77,3,1.71,3.18,4.03-.66.44.5c1.18,1.34,2.57,2.47,4.12,3.36l.58.33.16,4.09Zm-9.75-6.33h0,0Zm36.25-20.78s0,0,0,0h0Zm-18.86,21.33c-1.25,0-2.51-.18-3.74-.55-3.3-.99-6.02-3.21-7.66-6.25-.44-.81-.79-1.67-1.04-2.54-.18-.64.18-1.31.82-1.49.64-.18,1.31.19,1.49.82.21.71.49,1.41.85,2.07,1.33,2.47,3.54,4.28,6.23,5.09,2.69.81,5.53.52,8-.81,5.1-2.74,7.02-9.12,4.28-14.22-2.74-5.1-9.12-7.02-14.23-4.28-1.68.9-3.08,2.24-4.05,3.86-.34.57-1.08.76-1.65.42-.57-.34-.76-1.08-.42-1.65,1.19-2,2.91-3.65,4.98-4.75,6.27-3.37,14.12-1.01,17.49,5.26,3.37,6.27,1.01,14.12-5.26,17.49-1.91,1.02-3.99,1.55-6.1,1.55Z"/>
      <g class="cls-10">
        <polygon class="cls-6" points="399.47 671.49 285.42 529.71 278.9 529.53 392.98 671.31 399.47 671.49"/>
        <polygon class="cls-6" points="379.99 673.22 272.53 539.63 271.99 545.92 374.29 673.06 379.99 673.22"/>
        <polygon class="cls-6" points="270.64 561.56 270.09 567.84 357.31 676.24 363.01 676.4 270.64 561.56"/>
        <polygon class="cls-6" points="269 580.45 268.46 586.73 340.09 675.76 345.79 675.92 269 580.45"/>
        <polygon class="cls-6" points="267.5 597.84 266.95 604.12 324.25 675.32 329.95 675.48 267.5 597.84"/>
        <polygon class="cls-6" points="265.8 617.49 265.26 623.77 306.33 674.82 312.04 674.98 265.8 617.49"/>
        <polygon class="cls-6" points="296.88 674.56 264.36 634.12 263.82 640.39 291.18 674.4 296.88 674.56"/>
        <polygon class="cls-6" points="416.41 670.86 303.27 530.21 296.78 530.03 409.95 670.68 416.41 670.86"/>
        <polygon class="cls-6" points="433.73 669.53 322.08 530.73 315.69 530.55 427.38 669.36 433.73 669.53"/>
        <path class="cls-6" d="m443.42,656.35l-100.58-125.04-5.04-.14s-.01.03-.01.05c-.21,0-.4-.01-.64-.02l105.22,130.77.57.02.49-5.63Z"/>
        <polygon class="cls-6" points="363.66 531.89 357.93 531.73 444.86 639.76 445.4 633.5 363.66 531.89"/>
        <polygon class="cls-6" points="386.66 532.53 380.93 532.37 447.04 614.53 447.58 608.27 386.66 532.53"/>
        <polygon class="cls-6" points="408.7 533.14 402.98 532.98 449.13 590.35 449.67 584.08 408.7 533.14"/>
        <polygon class="cls-6" points="425.23 533.6 419.51 533.44 450.7 572.21 451.24 565.94 425.23 533.6"/>
      </g>
      <polygon class="cls-2" points="404.09 781.43 404.09 782.96 379.92 782.93 404.8 758.06 352.12 758.03 352.12 740.49 404.64 740.49 379.92 715.79 404.74 715.79 438.29 749.35 404.74 782.96 404.09 782.96 404.09 781.43 403.03 780.36 433.99 749.35 403.48 718.85 387.29 718.84 411.98 743.58 355.19 743.58 355.19 754.97 412.19 755.02 387.29 779.92 404.09 779.9 404.09 781.43 403.03 780.36 404.09 781.43"/>
      <polygon class="cls-2" points="463.77 856.68 463.77 858.2 439.59 858.18 464.47 833.3 411.8 833.28 411.8 815.74 464.31 815.74 439.59 791.04 464.41 791.04 497.96 824.59 464.41 858.2 463.77 858.2 463.77 856.68 462.71 855.61 493.66 824.59 463.15 794.1 446.96 794.09 471.65 818.83 414.86 818.83 414.86 830.22 471.86 830.27 446.96 855.17 463.77 855.15 463.77 856.68 462.71 855.61 463.77 856.68"/>
      <g class="cls-11">
        <g>
          <path class="cls-3" d="m382.35,105.35l-121.38-.68c-4.97-.03-8.06,5.39-5.5,9.65l.61,1.02c1.15,1.92,3.23,3.09,5.46,3.09h120.77c3.52,0,6.37-2.85,6.37-6.37v-.34c0-3.5-2.83-6.35-6.34-6.37Z"/>
          <path class="cls-3" d="m399.31,111.86v.2c0,3.52,2.85,6.37,6.37,6.37h26.95c2.89,0,5.41-1.94,6.16-4.73h0c1.08-4.03-1.94-7.99-6.11-8.02l-26.95-.2c-3.54-.03-6.42,2.83-6.42,6.37Z"/>
        </g>
        <g>
          <path class="cls-3" d="m311.63,128.22l-92.18-.68c-4.97-.03-8.06,5.39-5.5,9.65l.61,1.02c1.15,1.92,3.23,3.09,5.46,3.09h91.57c3.52,0,6.37-2.85,6.37-6.37v-.34c0-3.5-2.83-6.35-6.34-6.37Z"/>
          <path class="cls-3" d="m328.59,134.74v.2c0,3.52,2.85,6.37,6.37,6.37h26.95c2.89,0,5.41-1.94,6.16-4.73h0c1.08-4.03-1.94-7.99-6.11-8.02l-26.95-.2c-3.54-.03-6.42,2.83-6.42,6.37Z"/>
        </g>
      </g>
      <g>
        <path class="cls-6" d="m390.06,331.68c-2.02-2.08-4.81-3.26-7.71-3.26l-220.08.13c-2.91,0-5.69,1.18-7.71,3.27-2.02,2.09-3.11,4.9-3.02,7.81l8.72,281.13c.18,5.8,4.93,10.29,10.74,10.29h203.1c5.81,0,10.57-4.49,10.74-10.3l8.26-281.32c.09-2.9-1.01-5.66-3.03-7.74Z"/>
        <path class="cls-3" d="m380.32,344.62c-1.85-1.9-4.39-2.98-7.05-2.98l-201.15.12c-2.66,0-5.2,1.08-7.05,2.99-1.85,1.91-2.85,4.48-2.76,7.14l7.97,256.92c.16,5.3,4.51,9.39,9.82,9.39h185.63c5.31,0,9.66-4.1,9.82-9.41l7.55-257.1c.08-2.65-.92-5.16-2.77-7.07Z"/>
        <g>
          <g>
            <circle class="cls-6" cx="272.32" cy="369.84" r="21.76" transform="translate(-136.37 579.4) rotate(-80.78)"/>
            <circle class="cls-6" cx="272.83" cy="369.84" r="20.22" transform="translate(-124.57 600.69) rotate(-83.74)"/>
          </g>
          <g>
            <circle class="cls-6" cx="272.32" cy="584.69" r="21.76" transform="translate(-348.44 759.83) rotate(-80.78)"/>
            <circle class="cls-6" cx="272.83" cy="584.69" r="20.22" transform="translate(-338.14 792.09) rotate(-83.74)"/>
          </g>
          <rect class="cls-6" x="254.55" y="427.2" width="35.53" height="35.53" transform="translate(-234.58 321.64) rotate(-44.86)"/>
          <rect class="cls-7" x="256.01" y="428.66" width="32.62" height="32.62" transform="translate(-234.58 321.64) rotate(-44.86)"/>
          <g>
            <path class="cls-6" d="m361.85,506.14c0,7.66-6.21,13.88-13.88,13.88h-17.99c-7.66,0-13.88-6.21-13.88-13.88h0c0-7.66,6.21-13.88,13.88-13.88h17.99c7.66,0,13.88,6.21,13.88,13.88h0Z"/>
            <path class="cls-7" d="m359.95,506.14c0,7.17-5.72,12.85-12.77,12.85h-16.7c-7.05,0-12.77-5.68-12.77-12.85h0c0-7.17,5.72-12.85,12.77-12.85h16.7c7.05,0,12.77,5.68,12.77,12.85h0Z"/>
          </g>
          <g>
            <path class="cls-6" d="m295.54,506.14c0,7.66-6.21,13.88-13.88,13.88h-17.99c-7.66,0-13.88-6.21-13.88-13.88h0c0-7.66,6.21-13.88,13.88-13.88h17.99c7.66,0,13.88,6.21,13.88,13.88h0Z"/>
            <path class="cls-7" d="m293.65,506.14c0,7.17-5.72,12.85-12.77,12.85h-16.7c-7.05,0-12.77-5.68-12.77-12.85h0c0-7.17,5.72-12.85,12.77-12.85h16.7c7.05,0,12.77,5.68,12.77,12.85h0Z"/>
          </g>
          <g>
            <path class="cls-6" d="m227.7,506.14c0,7.66-6.21,13.88-13.88,13.88h-17.99c-7.66,0-13.88-6.21-13.88-13.88h0c0-7.66,6.21-13.88,13.88-13.88h17.99c7.66,0,13.88,6.21,13.88,13.88h0Z"/>
            <path class="cls-7" d="m225.8,506.14c0,7.17-5.72,12.85-12.77,12.85h-16.7c-7.05,0-12.77-5.68-12.77-12.85h0c0-7.17,5.72-12.85,12.77-12.85h16.7c7.05,0,12.77,5.68,12.77,12.85h0Z"/>
          </g>
          <g>
            <path class="cls-6" d="m272.67,414.91c-.43,0-.77-.35-.77-.77v-19.53c0-.43.35-.77.77-.77s.77.35.77.77v19.53c0,.43-.35.77-.77.77Z"/>
            <polygon class="cls-6" points="275.47 411.05 272.32 416.52 269.16 411.05 275.47 411.05"/>
          </g>
          <g>
            <path class="cls-6" d="m272.67,487.38c-.43,0-.77-.35-.77-.77v-14.39c0-.43.35-.77.77-.77s.77.35.77.77v14.39c0,.43-.35.77-.77.77Z"/>
            <polygon class="cls-6" points="275.47 483.52 272.32 488.99 269.16 483.52 275.47 483.52"/>
          </g>
          <g>
            <path class="cls-6" d="m271.64,556.77c-.43,0-.77-.35-.77-.77v-19.02c0-.43.35-.77.77-.77s.77.35.77.77v19.02c0,.43-.35.77-.77.77Z"/>
            <polygon class="cls-6" points="274.68 552.91 271.53 558.38 268.37 552.91 274.68 552.91"/>
          </g>
          <g>
            <path class="cls-6" d="m202.25,482.24c-.43,0-.77-.35-.77-.77v-36.75c0-.43.35-.77.77-.77h42.4c.43,0,.77.35.77.77s-.35.77-.77.77h-41.63v35.98c0,.43-.35.77-.77.77Z"/>
            <polygon class="cls-6" points="205.06 480.95 201.9 486.42 198.74 480.95 205.06 480.95"/>
          </g>
          <g>
            <path class="cls-6" d="m343.6,482.24c-.43,0-.77-.35-.77-.77v-35.98h-41.63c-.43,0-.77-.35-.77-.77s.35-.77.77-.77h42.4c.43,0,.77.35.77.77v36.75c0,.43-.35.77-.77.77Z"/>
            <polygon class="cls-6" points="340.53 480.95 343.69 486.42 346.85 480.95 340.53 480.95"/>
          </g>
          <path class="cls-6" d="m343.09,537.49h-141.35c-.43,0-.77-.35-.77-.77v-13.62c0-.43.35-.77.77-.77s.77.35.77.77v12.85h139.81v-12.85c0-.43.35-.77.77-.77s.77.35.77.77v13.62c0,.43-.35.77-.77.77Z"/>
        </g>
        <g>
          <rect class="cls-2" x="174.75" y="354.51" width="59.62" height="6.68" rx="3.26" ry="3.26"/>
          <rect class="cls-2" x="174.75" y="369.42" width="59.62" height="6.68" rx="3.26" ry="3.26"/>
        </g>
      </g>
      <ellipse class="cls-2" cx="215.63" cy="959.74" rx="215.63" ry="16.06"/>
      <g>
        <g>
          <path class="cls-6" d="m355.72,285.18l80.44-.08c4.44,0,8.1,3.47,8.33,7.9l6.05,116.62c.18,3.47-2.55,6.4-6.02,6.46l-92.19,1.77c-3.26.06-5.94-2.56-5.95-5.83l-.12-117.38c0-5.22,4.23-9.46,9.45-9.47Z"/>
          <path class="cls-3" d="m365.81,415.88s0,0,0,0l-10.32-.12c-3.46-.04-6.28-2.89-6.28-6.35l-.02-15.58c0-.13.11-.24.24-.24.13,0,.24.11.24.24l.02,15.58c0,3.2,2.61,5.83,5.8,5.87l10.32.12c.13,0,.24.11.24.25,0,.13-.11.24-.24.24Z"/>
          <path class="cls-3" d="m349.43,389.25s0,0,0,0c-.13,0-.24-.11-.24-.24v-2.52c0-.13.1-.25.24-.24.13,0,.24.11.24.24v2.52c0,.13-.1.24-.24.24Z"/>
          <g>
            <path class="cls-2" d="m355.97,284.24c10.99,1.48,48.77,6.05,79.99,3.62,1.42-.11,2.66.97,2.74,2.39l6.34,117.14c.09,1.61-1.14,2.98-2.74,3.08-13.13.79-67.23,3.85-86.52,1.85-1.17-.12-2.07-1.11-2.07-2.29l-.84-123.04c-.01-1.67,1.46-2.97,3.11-2.74Z"/>
            <path class="cls-3" d="m357.15,287.28c10.57,1.42,46.93,5.82,76.98,3.48,1.37-.11,2.56.93,2.64,2.3l6.1,112.73c.08,1.55-1.1,2.87-2.64,2.96-12.64.76-64.7,3.7-83.27,1.78-1.13-.12-1.99-1.07-2-2.2l-.81-118.41c-.01-1.61,1.4-2.85,3-2.64Z"/>
            <path class="cls-6" d="m432.95,300.67c.62,0,1.1-.37,1.07-.81-.03-.45-.56-.81-1.18-.82l-67.61-.47c-.62,0-.81.39-.42.87l.33.42c.39.48,1.21.88,1.82.88l65.98-.06Z"/>
            <path class="cls-6" d="m365.23,303.08c-.62,0-.81.39-.42.87l.33.42c.39.48,1.21.88,1.82.88l65.98-.06c.62,0,1.1-.37,1.07-.81-.03-.45-.56-.81-1.18-.82l-67.61-.47Z"/>
            <path class="cls-3" d="m376.71,344.01s-.02,0-.02,0l-9.05.22c-1.3.03-2.41-.83-2.57-2l-1.05-7.57c-.06-.45.06-.9.35-1.27.32-.41.83-.68,1.38-.74h0c.76-.08,1.81-.2,2.96-.34,2.51-.3,5.36-.64,7.03-.71.01,0,.02,0,.04,0,1.2-.04,2.26.66,2.58,1.7.53,1.73.6,5.03.63,8.55,0,1.15-1.01,2.12-2.27,2.16Zm-10.89-10.63c-.35.04-.67.2-.87.46-.16.21-.24.46-.2.71l1.05,7.57c.11.8.9,1.39,1.82,1.37l9.05-.21s.01,0,.02,0c.87-.03,1.56-.66,1.56-1.42-.03-3.46-.09-6.7-.59-8.34-.22-.72-1.03-1.24-1.87-1.18-1.65.08-4.61.43-6.98.71-1.16.14-2.21.26-2.98.34h0Z"/>
            <path class="cls-7" d="m366.81,334.11c1.9-.19,6.01-.75,7.97-.84.83-.04,1.57.44,1.79,1.15.42,1.39.47,4.17.49,6.75,0,.77-.68,1.41-1.55,1.43l-7.23.17c-.89.02-1.65-.56-1.76-1.35l-.84-6.05c-.09-.63.42-1.2,1.12-1.27Z"/>
            <path class="cls-6" d="m384.77,335.86c-.62,0-.98.49-.8,1.09l.7,2.33c.18.59.83,1.06,1.44,1.04l44.8-1.49c.62-.02,1.09-.54,1.06-1.16l-.06-1.13c-.03-.62-.57-1.12-1.18-1.11l-45.96.44Z"/>
            <path class="cls-3" d="m376.87,323.68s-.02,0-.02,0l-9.05.22c-1.3.03-2.41-.83-2.57-2l-1.05-7.57c-.06-.45.06-.9.35-1.27.32-.41.83-.68,1.38-.74h0c.76-.08,1.81-.2,2.96-.34,2.51-.3,5.36-.64,7.03-.71.01,0,.02,0,.04,0,1.2-.04,2.26.66,2.58,1.7.53,1.73.6,5.03.63,8.55,0,1.15-1.01,2.12-2.27,2.16Zm-10.89-10.63c-.35.04-.67.2-.87.46-.16.21-.24.46-.2.71l1.05,7.57c.11.8.9,1.39,1.82,1.37l9.05-.21s.01,0,.02,0c.87-.03,1.56-.66,1.56-1.42-.03-3.46-.09-6.7-.59-8.34-.22-.72-1.03-1.24-1.87-1.18-1.65.08-4.61.43-6.98.71-1.16.14-2.21.26-2.98.34h0Z"/>
            <path class="cls-7" d="m366.98,313.78c1.9-.19,6.01-.75,7.97-.84.83-.04,1.57.44,1.79,1.15.42,1.39.47,4.17.49,6.75,0,.77-.68,1.41-1.55,1.43l-7.23.17c-.89.02-1.65-.56-1.76-1.35l-.84-6.05c-.09-.63.42-1.2,1.12-1.27Z"/>
            <path class="cls-6" d="m384.93,315.53c-.62,0-.98.49-.8,1.09l.7,2.33c.18.59.83,1.06,1.44,1.04l44.8-1.49c.62-.02,1.09-.54,1.06-1.16l-.06-1.13c-.03-.62-.57-1.12-1.18-1.11l-45.96.44Z"/>
            <path class="cls-3" d="m377.36,363.4s-.02,0-.02,0l-9.05.21c-1.3.03-2.41-.83-2.57-2l-1.05-7.56c-.06-.45.06-.9.35-1.27.32-.41.83-.68,1.38-.74h0c.76-.08,1.81-.2,2.96-.34,2.51-.3,5.36-.64,7.03-.71.01,0,.02,0,.04,0,1.2-.04,2.26.66,2.58,1.71.53,1.73.6,5.03.63,8.55,0,1.15-1.01,2.12-2.27,2.16Zm-10.89-10.63c-.35.04-.67.2-.87.46-.16.21-.24.46-.2.71l1.05,7.56c.11.8.9,1.39,1.82,1.37l9.05-.21s.01,0,.02,0c.86-.03,1.56-.66,1.56-1.42-.03-3.46-.09-6.7-.59-8.34-.22-.72-1.03-1.23-1.87-1.18-1.65.08-4.61.43-6.98.71-1.16.14-2.21.26-2.98.34h0Z"/>
            <path class="cls-7" d="m367.46,353.5c1.9-.19,6.01-.75,7.97-.84.83-.04,1.57.44,1.79,1.15.42,1.39.47,4.17.49,6.75,0,.77-.68,1.41-1.55,1.43l-7.23.17c-.89.02-1.65-.56-1.76-1.35l-.84-6.05c-.09-.63.42-1.2,1.12-1.27Z"/>
            <path class="cls-6" d="m385.42,355.26c-.62,0-.98.49-.8,1.09l.7,2.33c.18.59.83,1.06,1.44,1.04l44.8-1.49c.62-.02,1.09-.54,1.06-1.16l-.06-1.13c-.03-.62-.57-1.12-1.18-1.11l-45.96.44Z"/>
            <path class="cls-3" d="m377.13,382.05s-.02,0-.02,0l-9.05.21c-1.3.03-2.41-.83-2.57-2l-1.05-7.56c-.06-.45.06-.9.35-1.27.32-.41.83-.68,1.38-.74h0c.76-.08,1.81-.2,2.96-.34,2.39-.28,5.36-.64,7.04-.71,1.19-.05,2.29.64,2.61,1.7.53,1.73.6,5.03.63,8.55,0,1.15-1.01,2.12-2.27,2.16Zm-10.89-10.63c-.35.04-.67.2-.87.46-.16.21-.24.46-.2.71l1.05,7.56c.11.8.9,1.39,1.82,1.37l9.05-.21c.85-.04,1.58-.66,1.57-1.42-.03-3.46-.09-6.7-.59-8.34-.22-.72-1.03-1.22-1.87-1.18-1.65.08-4.61.43-6.98.71-1.16.14-2.21.26-2.97.34h0Z"/>
            <path class="cls-7" d="m367.24,372.15c1.9-.19,6.01-.75,7.97-.84.83-.04,1.57.44,1.79,1.15.42,1.39.47,4.17.49,6.75,0,.77-.68,1.41-1.55,1.43l-7.23.17c-.89.02-1.65-.56-1.76-1.35l-.84-6.05c-.09-.63.42-1.2,1.12-1.27Z"/>
            <path class="cls-6" d="m385.19,373.9c-.62,0-.98.49-.8,1.09l.7,2.33c.18.59.83,1.06,1.44,1.04l44.8-1.49c.62-.02,1.09-.54,1.06-1.16l-.06-1.13c-.03-.62-.57-1.12-1.18-1.11l-45.96.44Z"/>
            <path class="cls-3" d="m376.74,401.29s-.02,0-.02,0l-9.05.21c-1.3.03-2.41-.83-2.57-2l-1.05-7.57c-.06-.45.06-.9.35-1.27.32-.41.83-.68,1.38-.74h0c.76-.08,1.81-.2,2.96-.34,2.51-.3,5.36-.64,7.03-.71,1.23-.02,2.29.64,2.61,1.7.53,1.73.6,5.03.63,8.55,0,1.15-1.01,2.12-2.27,2.16Zm-10.89-10.63c-.35.04-.67.2-.87.46-.16.21-.24.46-.2.71l1.05,7.57c.11.8.9,1.39,1.82,1.37l9.05-.22s.01,0,.02,0c.86-.03,1.56-.66,1.56-1.42-.03-3.46-.09-6.7-.59-8.34-.22-.72-1.03-1.21-1.87-1.18-1.65.08-4.61.43-6.98.71-1.16.14-2.21.26-2.98.34h0Z"/>
            <path class="cls-7" d="m366.85,391.39c1.9-.19,6.01-.75,7.97-.84.83-.04,1.57.44,1.79,1.15.42,1.39.47,4.17.49,6.75,0,.77-.68,1.41-1.55,1.43l-7.23.17c-.89.02-1.65-.56-1.76-1.35l-.84-6.05c-.09-.63.42-1.2,1.12-1.27Z"/>
            <path class="cls-6" d="m384.8,393.14c-.62,0-.98.49-.8,1.09l.7,2.33c.18.59.83,1.06,1.44,1.04l44.8-1.49c.62-.02,1.09-.54,1.06-1.16l-.06-1.13c-.03-.62-.57-1.12-1.18-1.11l-45.96.44Z"/>
          </g>
          <path class="cls-6" d="m400.92,269.24c-2.91-2.02-5.43-1.98-7.21-1.45-1.62.48-2.67,2.05-2.52,3.73l.78,8.37,9.13.8s5.53-7.5-.17-11.45Zm-4.01,6.76c-1.26,0-2.28-1.02-2.28-2.27,0-1.26,1.02-2.28,2.27-2.28,1.26,0,2.28,1.02,2.28,2.27,0,1.26-1.02,2.28-2.27,2.28Z"/>
          <path class="cls-7" d="m392.72,276.57c-.16-.06-.28-.2-.3-.38l-.12-1.33c-.02-.25.16-.47.41-.49.25-.02.47.16.49.41l.12,1.33c.02.25-.16.47-.41.49-.07,0-.14,0-.2-.03Zm-.24-2.61c-.16-.06-.28-.2-.3-.38l-.09-1.01c-.16-1.71.92-3.31,2.56-3.8,1.12-.33,2.29-.38,3.45-.15.24.05.4.29.35.53-.05.24-.29.4-.53.35-1.02-.21-2.03-.16-3.01.13-1.23.36-2.04,1.56-1.92,2.85l.09,1.01c.02.25-.16.47-.41.49-.07,0-.14,0-.2-.03Z"/>
          <path class="cls-6" d="m379.51,285.32v-4.21c0-1.45,1.2-2.62,2.65-2.57l29.02.97c1.29.04,2.33,1.06,2.41,2.34l.25,4.04-34.33-.58Z"/>
          <path class="cls-7" d="m390.33,280.14s0,0,0,0h-1.25c-.13,0-.24-.11-.24-.24,0-.13.11-.24.24-.24,0,0,0,0,0,0h1.25c.13,0,.24.11.24.24,0,.13-.11.24-.24.24Z"/>
          <path class="cls-7" d="m380.93,284.2c-.17-.06-.3-.23-.3-.42v-1.7c0-.7.27-1.36.76-1.85.49-.49,1.15-.77,1.85-.77h4.59c.25,0,.45.2.45.45,0,.25-.2.45-.45.45h-4.59c-.94,0-1.71.77-1.71,1.72v1.7c0,.25-.2.45-.45.45-.05,0-.11,0-.16-.03Z"/>
          <path class="cls-6" d="m370.42,283.78l50.75-.05c1.82,0,3.39,1.31,3.7,3.11l.04.25c.34,1.97-1.17,3.77-3.17,3.77l-52.06.05c-1.2,0-2.15-1-2.09-2.19l.11-2.33c.07-1.46,1.27-2.6,2.73-2.61Z"/>
        </g>
        <path class="cls-6" d="m369.52,320.84c-.94-.37-1.67-1.22-2.2-1.82-.85-.95-1.39-1.72-1.6-1.93l1.38-.6c.34.35.32.74,1.17,1.68.54.6.79.84,1.07,1.03.33.23.78.13.99-.21.62-1,1.52-2.89,2.07-4.03,1.67-3.4,2.87-5.68,4.28-6.43l.4,1.53c-.97.51-2.39,3.43-3.44,5.56-1.78,3.63-2.69,5.34-4.11,5.21h-.01Z"/>
        <path class="cls-6" d="m369.52,340.48c-.94-.37-1.67-1.22-2.2-1.82-.85-.95-1.39-1.72-1.6-1.93l1.38-.6c.34.35.32.74,1.17,1.68.54.6.79.84,1.07,1.03.33.23.78.13.99-.21.62-1,1.52-2.89,2.07-4.03,1.67-3.4,2.87-5.68,4.28-6.43l.4,1.53c-.97.51-2.39,3.43-3.44,5.56-1.78,3.63-2.69,5.34-4.11,5.21h-.01Z"/>
      </g>
      <g>
        <circle class="cls-2" cx="257.45" cy="37.86" r="37.86" transform="translate(194.96 290.47) rotate(-84.47)"/>
        <path class="cls-1" d="m222.56,36.72s-.03,0-.04,0c-.4-.02-.7-.36-.68-.76.08-1.5.25-3.01.52-4.48.07-.39.44-.65.84-.58.39.07.65.44.58.84-.25,1.41-.42,2.86-.5,4.3-.02.38-.34.68-.72.68Z"/>
        <path class="cls-1" d="m226.24,22.85c-.11,0-.22-.02-.32-.08-.35-.18-.5-.61-.32-.97,6.11-12.1,18.31-19.62,31.86-19.62,2.16,0,4.33.19,6.43.58.39.07.65.45.58.84-.07.39-.45.65-.84.58-2.02-.37-4.1-.56-6.18-.56-13,0-24.71,7.21-30.58,18.83-.13.25-.38.4-.64.4Z"/>
        <circle class="cls-1" cx="258.28" cy="38.68" r="32.04" transform="translate(4.12 98.73) rotate(-21.81)"/>
        <path class="cls-6" d="m268.09,26.58c0,5.43-4.4,11.28-9.82,11.28s-9.82-5.86-9.82-11.28,4.4-9.27,9.82-9.27,9.82,3.85,9.82,9.27Z"/>
        <path class="cls-6" d="m246.07,58.75h23.98c2.52,0,4.76-1.63,5.53-4.04l1.29-4.03c.94-2.95-.59-6.15-3.5-7.22-9.76-3.57-19.85-3.11-30.19.33-2.9.96-4.5,4.06-3.7,7.01l.99,3.66c.69,2.53,2.98,4.29,5.6,4.29Z"/>
      </g>
      <g>
        <circle class="cls-2" cx="186.61" cy="75.08" r="23.25"/>
        <path class="cls-1" d="m165.17,74.56s-.02,0-.03,0c-.35-.02-.61-.31-.59-.66.05-.93.16-1.86.32-2.77.06-.34.39-.57.73-.51.34.06.57.39.51.73-.16.86-.26,1.74-.3,2.62-.02.33-.29.59-.63.59Z"/>
        <path class="cls-1" d="m167.43,66.04c-.09,0-.19-.02-.28-.07-.31-.16-.43-.53-.28-.84,3.78-7.49,11.34-12.15,19.73-12.15,1.34,0,2.68.12,3.98.36.34.06.57.39.5.73-.06.34-.38.56-.73.5-1.23-.22-2.5-.34-3.76-.34-7.91,0-15.04,4.39-18.61,11.46-.11.22-.33.34-.56.34Z"/>
        <circle class="cls-1" cx="187.11" cy="75.58" r="19.68" transform="translate(1.36 154.45) rotate(-45)"/>
        <path class="cls-6" d="m193.14,68.15c0,3.33-2.7,6.93-6.03,6.93s-6.03-3.6-6.03-6.93,2.7-5.7,6.03-5.7,6.03,2.36,6.03,5.7Z"/>
        <path class="cls-6" d="m179.62,87.9h14.73c1.55,0,2.92-1,3.4-2.48l.79-2.48c.58-1.81-.36-3.78-2.15-4.43-5.99-2.19-12.19-1.91-18.54.2-1.78.59-2.77,2.49-2.27,4.3l.61,2.25c.42,1.55,1.83,2.63,3.44,2.63Z"/>
      </g>
      <g>
        <g>
          <rect class="cls-9" x="99.34" y="858.21" width="9.04" height="97.76" transform="translate(207.73 1814.19) rotate(180)"/>
          <path class="cls-9" d="m64.27,957.86h79.18c0-3.25-2.63-5.88-5.88-5.88h-67.41c-3.25,0-5.88,2.63-5.88,5.88h0Z"/>
          <rect class="cls-9" x="52.52" y="836.31" width="99.55" height="28.23" rx="9.72" ry="9.72"/>
        </g>
        <g>
          <path class="cls-9" d="m170.6,793.02s13.43,2.08,28.54,12.18c2.38,1.59,3.68,4.36,3.32,7.2-1.81,14.33-9.24,60.69-33.76,105.98-1.29,2.39-1.66,5.17-1.09,7.82l4.26,19.83,7.9,7.41h-20.35l-13.55-36.67,5.79-1.83c4.49-1.42,7.57-5.55,7.66-10.26l.68-39.33c-.58-17.52,10.74-29.61,10.74-29.61l-32.5-1.58,32.36-41.12Z"/>
          <path class="cls-9" d="m187.71,957.01c1.85,2.43-19.95,5.63-30.96.32,0,0-15.27-26.56-15.27-40.24,0,0,1.21-2.79,10.18-2.16,0,0,5.13,31.45,10.54,34.97,5.41,3.52,15.14.36,15.14.36,0,0,7.63,3.16,10.37,6.74Z"/>
          <path class="cls-9" d="m142.35,836.31c.17-.3,34.99-4.19,34.99-4.19,0,0-1.14,10.59,2.42,25.16,3.56,14.57,54.68,77.71,54.68,77.71l-5.36,16.99c16.57,5.77,32.87,6.7,48.91,2.94l-33.22-19.93s-31.09-105.94-50.13-124.84l-34.9-12.07-17.4,38.23Z"/>
          <path class="cls-9" d="m64.27,774.66s-20.06,29.84-21.71,43.45c-1.65,13.61,5.49,19.14,26.54,20.05,21.05.91,77.23.9,77.23.9l47.96-40.98s-34.95-12.47-44.03-16c-9.09-3.53-85.99-7.41-85.99-7.41Z"/>
          <path class="cls-9" d="m231.11,946.25s-5.77,5.59-1.87,11.81c0,0,45.71,8.1,58.12,4.43,0,0-2.58-5.88-16.55-12.58l1.03.79c1.3,1,.54,3.09-1.1,2.99-9.21-.53-28.27-2.21-39.63-7.44Z"/>
        </g>
        <path class="cls-9" d="m164.92,606.97c-7.36-15.54-40.83,0-39.75,16.94.23,3.65.8,6.89,1.62,9.78l-11.26,28.5c6.8,5.62,21.26,4.68,21.8,4.11.25-.26,1.85-6.3,3.53-12.8.09.07.18.13.27.2,6.48,4.61,16.7,2.97,22.92-15.73,6.22-18.7.88-30.99.88-30.99Z"/>
        <path class="cls-9" d="m177.92,600.54c-5.26-14.6-20.82-21.71-37.86-12.21-8.37,4.67-14.87,9.07-19.2,13.92-3.52-2.56-9.15-3.57-16.83,4.87-2.12,2.34-13.79,4.86-12.4,11.89.18.93-.68,1.72-1.59,1.47-4.65-1.27-14.93-2.86-21.3,5.21-5.63,7.13-1.42,13.85,2.01,17.55.83.89.13,2.34-1.07,2.19-8.55-1.09-27.14-1.35-30.18,16.25-2.84,16.42,8.47,21.05,15.17,22.36,1.13.22,1.4,1.73.42,2.35-3.34,2.15-7.22,6.58-5.65,15.33,2.45,13.71,29.04,12.59,32.14,12.41.2-.01.38-.07.55-.17l42.58-24.56c.33-.19.56-.52.63-.9l8.6-50.2c-6.76-4.9-7.9-9.65-8.19-9.94l-.03-1.22c.65-2.62,2.59-9.02,6.25-10.4,4.63-1.75,4.54,5.66,4.54,5.66l1.54.46s11.12-25.3,27.89-9.58l1.3,6.51s15.93-4.62,10.67-19.22Z"/>
        <path class="cls-9" d="m166.11,772.37l-17.16-16.54-23.74,10.03s-23.63,3.66-37.16,0l-13.53-3.66-30.56-9.52-4.8,13.57c-1.22,3.44,0,7.27,2.98,9.38,2.64,1.88,5.74,3.94,7.72,4.81,4.03,1.76,99.22-1.22,99.22-1.22l17.02-6.85Z"/>
        <g>
          <path class="cls-9" d="m101.16,780.16c.08,0,.15,0,.23,0l99.55-.11c2.46,0,4.45-2,4.45-4.46,0-2.46-2.01-4.5-4.46-4.45l-99.55.11c-2.46,0-4.45,2-4.45,4.46,0,2.38,1.88,4.33,4.23,4.45Z"/>
          <path class="cls-9" d="m290.44,689.77h-82.91c-6.12,0-11.68,3.53-14.29,9.06l-38.33,81.27h103.03c3.94,0,7.48-2.41,8.93-6.07l29.72-75.21c1.72-4.35-1.49-9.05-6.16-9.05Z"/>
        </g>
        <path class="cls-9" d="m413.23,783.92l-1.54-6.2c-.44-1.75-1.99-2.98-3.78-2.98H87.71c-1.78,0-3.33,1.22-3.77,2.96l-1.78,6.96c-.64,2.51,1.24,4.94,3.8,4.93l58.87-.14c-7.09,26.69-36.5,136.99-44.67,167.65-1.07,4.01,1.92,7.94,6.02,7.94,2.86,0,5.35-1.97,6.04-4.78l38.99-158.09h1.47v41.08c0,1.99,1.59,3.6,3.56,3.6s3.56-1.61,3.56-3.6v-41.08h1.77l38.99,158.09c.69,2.81,3.18,4.78,6.04,4.78,4.1,0,7.08-3.93,6.02-7.94-8.18-30.68-37.62-141.11-44.69-167.71l159.54-.37c-7.07,26.68-36.5,137.32-44.69,168.06-1.07,4.02,1.92,7.96,6.02,7.96,2.86,0,5.35-1.97,6.04-4.79l38.9-158.07h1.56v41.08c0,1.99,1.59,3.6,3.56,3.6s3.56-1.61,3.56-3.6v-41.08h1.77l38.99,158.09c.69,2.81,3.18,4.78,6.04,4.78,4.1,0,7.08-3.93,6.02-7.94-8.23-30.85-37.95-142.32-44.8-168.13l59.05-.14c2.53-.01,4.37-2.43,3.76-4.91Z"/>
        <path class="cls-9" d="m118.52,770.71s23.36-22.24,34.86-36.97c6.22-7.96,8.17-18.45,5.29-28.13-5.25-17.69-14.58-36-15.43-38.85-1.3-4.37-27.5-4.19-27.5-4.19,0,0-51.54,33.45-71.79,90.11l22.74,7.08s13.46-22.58,26.75-36.93c0,0-23.01,30.39-23.82,42.84l48.89,5.05Z"/>
      </g>
      <g>
        <path class="cls-9" d="m80.43,243.8l-.47,3.89c-.09.74-.67,1.32-1.41,1.41-1.25.14-3.25.29-5.21.08-.86-.09-1.42-.96-1.16-1.79.48-1.5,1.35-3.76,2.61-5.08h4.32c.8,0,1.42.7,1.32,1.49Z"/>
        <path class="cls-9" d="m114.24,198.21l.73,4.29s-2.44,24.72-2.87,34.6c-.07,1.55.33,3.08,1.15,4.4l4.24,6.89-10.78-6.36-.21-1.32,1.77-2.43-2.31-27.69c-.14-1.63.2-3.26.97-4.7l2.23-4.19,5.1-3.5Z"/>
        <path class="cls-9" d="m118.19,249.39h-3.44c-.64,0-1.25-.3-1.64-.81-1.07-1.39-3.3-4.11-4.36-4.18-1.43-.1-1.25,4.99-1.25,4.99h-.8l-1.02-6.32c-.26-1.59.54-3.17,1.96-3.91h0s.33,2.42,2.1,3.49c1.77,1.07,7.22,4.9,7.22,4.9,0,0,.67-.1,1.4.04,1.09.2.93,1.8-.17,1.8Z"/>
        <path class="cls-9" d="m99.47,200.24s-14.3,27.12-16.57,33.31c-2.27,6.19-3.07,11.36-3.1,11.85-.05.76-1,1.5-3.62,1.5-1.35,0-2.01-.54-2.34-1.07-.28-.45-.29-1.01-.06-1.48.83-1.67,3.45-7.02,4.42-9.45,1.16-2.9,3.66-16.02,5.03-20.58,1.37-4.56,2.92-9.51,8.88-14.07,0,0,4.09-4.01,7.36,0Z"/>
        <path class="cls-9" d="m108.5,155.81c3.69-15.63-5.65-24.46-5.65-24.46,5.89-5.66,16.63-8.23,16.63-8.23,0,0,10.25,7.49,9.03,13.36-.71,3.44-7.2,20.59-7.2,20.59,0,0-6,2.84-12.81-1.25Z"/>
        <path class="cls-9" d="m100.32,163.55c1.5-4.52,8.18-7.74,8.18-7.74,6.81,4.09,12.81,1.25,12.81,1.25,0,0,1.35,5.14.42,9.93s-6.76,35.51-6.76,35.51c-9.18,1.86-23.31-1.87-23.31-1.87,5.85-10.39,7.16-32.55,8.66-37.08Z"/>
        <path class="cls-9" d="m102.85,131.35s-20.93,14.97-2.68,30.7c0,0,.7.79,2.06,1.2.69.21,2.74,1.75,3.77,2.56.33.26.81.17,1.04-.19h0c.18-.28.2-.63.05-.93l-2.59-5.48c-.72-.67-1.82-.72-2.6-.11h0c-.49.39-1.22.22-1.49-.34-1.41-2.87-4.07-11.32,6.83-20.87.41-.36.51-.95.26-1.44-.77-1.47-2.52-4.39-4.66-5.1Z"/>
        <path class="cls-9" d="m123.09,108.17c-1.37-5.5-4.56-7.66-4.56-7.66-3.19-2.02-7.29,2.72-7.77,6.82-.44.51-.32,1.18.06,1.85.12.57.33,1.11.67,1.57.47.64.95,1.19,1.43,1.68-.06.11-.1.23-.13.36l-3,13.47c-.29,1.19.79.99,1.99.77,1.96-.37,4.5-1.13,5.34-2.66.09-.16.13-.33.15-.51l1.17-8.49c.53.09,1.04.15,1.5.17,2.28.12,4.51-1.85,3.14-7.35Z"/>
        <path class="cls-9" d="m159.04,87.42s-6.42,3.6-10.03,6.79c-.65.58-.93,4.22-1.09,5.25-4.82,6.61-15.22,20.33-28.4,23.72,0,0,4.3,8.05,6.92,9.15,0,0,18.02-14.8,24.22-31.52.58,0,1.62-.15,2.61-1.06.77-.71,1.63-1.66,2.27-2.39.64-.73.99-1.66.95-2.62-.06-1.26-.54-2.24-.88-3.35l3.21-2.16s.94-.72.22-1.82Z"/>
        <path class="cls-9" d="m120.73,96.9c-3.55-2.73-8.47-2.03-11.19,2.94-.63,1.16-1.17,2.23-1.6,3.25-.61.53-1.15,1.14-1.36,1.78-.49,1.48-4.15,1.67-4.51,4.59-.19,1.51-1.3,2.71-2.8,2.94-3.74.57-9.5,2.51-10.42,9-.7,4.95,1.82,6.83,4.47,7.48,1.95.48,3.24,2.37,2.85,4.33-.38,1.88.19,4.06,3.45,5.79,7.32,3.86,14.62-9.15,14.62-9.15l1.5-22.71-1.34-1.46c.33-2.12,1.51-4.53,5.35-3.83l1.32,1.38s3.2-3.61-.34-6.34Z"/>
      </g>
      <ellipse class="cls-2" cx="497.42" cy="582.68" rx="43.07" ry="6.69"/>
      <g>
        <g>
          <path class="cls-8" d="m462.82,478.6c.35-.63,1.15-.86,1.78-.51.63.35.86,1.15.51,1.78-1.81,3.25-3.26,6.75-4.29,10.42-1,3.57-1.61,7.31-1.77,11.16-.56,13.41,4.38,25.78,12.8,34.94,8.43,9.16,20.34,15.1,33.75,15.65,4.51.19,8.91-.25,13.12-1.23,4.34-1.01,8.46-2.61,12.27-4.7.63-.35,1.43-.12,1.78.52.35.63.12,1.43-.52,1.78-4.02,2.21-8.37,3.89-12.94,4.96-4.42,1.03-9.05,1.49-13.81,1.29-14.14-.59-26.7-6.85-35.58-16.49-8.88-9.65-14.08-22.68-13.49-36.82.17-4.08.81-8.02,1.86-11.77,1.09-3.87,2.62-7.55,4.53-10.99Z"/>
          <path class="cls-6" d="m505.59,552.28c-26.91-1.12-47.89-23.92-46.78-50.83.32-7.63,2.34-14.88,6-21.53l2.71,1.49c-3.43,6.23-5.33,13.01-5.62,20.16-1.05,25.2,18.61,46.56,43.81,47.6l-.13,3.09Z"/>
          <path class="cls-8" d="m467.24,481.48c.35-.63,1.14-.87,1.78-.52.63.35.87,1.14.52,1.78-1.56,2.87-2.82,5.93-3.71,9.16-.87,3.13-1.39,6.41-1.53,9.79-.5,11.96,3.9,23,11.42,31.16,7.52,8.17,18.14,13.46,30.1,13.96,1.3.05,2.6.05,3.88-.01,1.29-.06,2.57-.18,3.84-.35.72-.1,1.38.41,1.47,1.12.1.72-.41,1.38-1.12,1.47-1.34.18-2.7.31-4.08.37-1.35.06-2.72.07-4.1.01-12.69-.53-23.96-6.14-31.93-14.8-7.97-8.66-12.63-20.35-12.11-33.04.15-3.59.71-7.06,1.62-10.38.94-3.42,2.27-6.67,3.93-9.71Z"/>
          <path class="cls-4" d="m506.37,549.63c-.61-.39-1.42-.22-1.82.39-.39.61-.22,1.42.39,1.82.61.39,1.42.22,1.82-.39.39-.61.22-1.42-.39-1.82Z"/>
        </g>
        <g>
          <path class="cls-5" d="m553.9,528.27c-.35.62-1.13.85-1.76.5-.62-.35-.85-1.13-.5-1.76,1.79-3.21,3.22-6.65,4.23-10.28.98-3.51,1.58-7.17,1.74-10.96h0c0-.05,0-.1,0-.15.52-13.19-4.34-25.35-12.63-34.36-8.3-9.02-20.03-14.87-33.24-15.43h0s0,0,0,0c-.05,0-.1,0-.15,0-4.42-.17-8.72.26-12.83,1.22-4.28,1-8.34,2.57-12.1,4.64-.63.34-1.41.11-1.76-.51-.34-.63-.11-1.41.51-1.76,3.97-2.18,8.25-3.84,12.76-4.89,4.33-1.01,8.86-1.46,13.52-1.28.02,0,.03,0,.05,0h0s.05,0,.05,0h0c13.94.58,26.33,6.75,35.09,16.27,8.73,9.49,13.86,22.3,13.31,36.2,0,.02,0,.04,0,.06h0s0,0,0,0c0,.02,0,.03,0,.05h0c-.17,4.02-.8,7.91-1.84,11.61-1.07,3.82-2.58,7.45-4.47,10.84h0Zm6.3-22.44h0s0,0,0,0h0Zm-48.39-52.58h0,0Z"/>
          <path class="cls-2" d="m551.93,526.97l-2.67-1.47c3.39-6.14,5.25-12.83,5.54-19.89,1.03-24.86-18.35-45.92-43.21-46.95l.13-3.05c26.54,1.1,47.23,23.59,46.13,50.13-.31,7.53-2.3,14.67-5.92,21.23Z"/>
          <path class="cls-5" d="m549.55,525.43c-.34.63-1.13.86-1.75.52-.63-.34-.86-1.13-.52-1.75,1.54-2.83,2.78-5.85,3.66-9.03.85-3.09,1.37-6.32,1.51-9.65.49-11.8-3.85-22.68-11.26-30.73-7.41-8.05-17.89-13.28-29.69-13.77-1.29-.05-2.56-.05-3.83.01-1.27.06-2.54.18-3.79.35-.71.1-1.36-.4-1.45-1.11-.1-.71.4-1.36,1.11-1.45,1.32-.18,2.66-.3,4.02-.37,1.33-.06,2.68-.07,4.04-.01,12.51.52,23.63,6.06,31.49,14.6,7.86,8.54,12.46,20.07,11.94,32.58-.15,3.54-.7,6.97-1.6,10.24-.93,3.37-2.24,6.58-3.88,9.58Z"/>
          <path class="cls-5" d="m542.41,537.19l.24-20.14c0-.19.22-.31.38-.2l17.85,11.58c.16.11.15.35-.03.43l-18.09,8.56c-.17.08-.35-.04-.35-.23Z"/>
          <path class="cls-5" d="m510.95,458.22c.6.39,1.4.22,1.79-.38.39-.6.22-1.4-.38-1.79-.6-.39-1.4-.22-1.79.38-.39.6-.22,1.4.38,1.79Z"/>
        </g>
        <path class="cls-8" d="m474.63,467.96l-.24,19.94c0,.31-.34.49-.6.32l-17.68-11.47c-.26-.17-.23-.55.05-.68l17.92-8.48c.26-.12.56.07.56.36Z"/>
      </g>
      <g>
        <path class="cls-9" d="m494.45,572.78s.72,4.05,1.07,8.07c.14,1.57-1.07,2.93-2.65,3-5.34.22-16.78.66-20.88.47-.62-.03-1.02-.66-.79-1.23h0c.19-.48.56-.87,1.03-1.09l18.88-8.68,3.33-.54Z"/>
        <path class="cls-9" d="m495.03,570.4l-.58,4.85s-3.31,1.54-5.57-.19l1.37-5.4,4.77.75Z"/>
        <path class="cls-9" d="m516.17,574.89s1.14,2.05,2.24,7.49c.2.98-.49,1.92-1.48,2.02-1.76.17-4.48.4-6.66.38-1,0-1.79-.88-1.67-1.88.24-1.99.99-5.24,3.31-7.78l4.25-.23Z"/>
        <path class="cls-9" d="m517.17,568.66l-1.34,7.33s-1.33.99-3.96.27l.64-7.89,4.66.28Z"/>
        <path class="cls-9" d="m520.8,481.12l-12.56-1.61v-.29s-2.29,0-2.29,0l-11.9-1.52.75,11.25c.13,18.78-.43,60-5.49,81.23-.11.45.12.92.55,1.1,1.02.41,3.01,1.02,5.39,1.1.74.02,1.4-.46,1.61-1.16,1.71-5.81,9.26-32.65,11.58-60.48,2.64,21.69,2.32,54.06,2.57,60.28.02.58.41,1.08.97,1.24,1.61.47,3.24.33,4.23.17.58-.1,1.05-.54,1.19-1.11,2.22-9.41,8.81-57.5,3.4-90.17Z"/>
        <path class="cls-9" d="m538.08,446.82c-2.49-13.06-17.65-23.35-17.65-23.35,0,0-17.9-4.53-34.13-4.26-5,.08-10.81-.87-16.55-2.65-12.86-4-25.38-12.18-27.77-22.26,0,0-.1-.04-.26-.09.15-1.65.51-4.87,0-5.58-3.31-4.51-9.72-10.16-9.72-10.16-1.08,1.07-.19,2.12-.19,2.12l3.11,3.24c-.65,1.18-1.44,2.17-1.82,3.59-.28,1.08-.11,2.23.43,3.21.55.98,1.29,2.26,2,3.26,1,1.42,2.32,1.79,2.92,1.88.56,3.3,3.43,19.5,23.05,30.53,5.38,3.02,15.07,6.02,23,7,0,0,7.96,37.14,10.05,48.93,0,0,14.17,5.31,26.73,2.01,0,0,2.03-24.31,1.22-44.95,1.11,1.37,4.71,8.4,5,10,5.1-2.58,7.72-2.26,10.58-2.47Z"/>
        <path class="cls-9" d="m500.96,453.96s18.54,7.33,24.54,1.33c1.47-1.47,2.29-4.38,2-6,5.1-2.58,7.72-2.26,10.58-2.47.75,3.94.35,8.12-1.96,12.35-10.06,18.4-37.41-1.02-37.41-1.02l2.25-4.2Z"/>
        <g>
          <path class="cls-9" d="m503.01,466.13l-9.29-32.43c-.11-.37-.42-.64-.8-.68-1.68-.2-6.56-.75-12.19-1.22-6.78-.57-14.66-1.04-19.36-.64-.67.06-1.07.76-.78,1.37,2.68,5.41,13.68,27.43,19.19,34.65.18.24.46.38.77.38l21.55-.2c.63,0,1.08-.61.9-1.21Z"/>
          <path class="cls-9" d="m500.76,458.29s1.29-5.32.77-7.21c-.52-1.89-1.53-4.31-4.9-3.77-3.37.54-7.35,1.96-7.35,1.96,0,0,.2,2.46,2.76,1.67l-1.59,1.23s.23,1.97,2.39.92l-1.48,1.63s.93,1.62,2.52.58c1.59-1.04,2.35,3.64,6.87,3Z"/>
        </g>
        <path class="cls-9" d="m507.9,420.96l-5.16-14.93h-1.67l.44-1.19c1.38-.39,2.52-1.29,2.36-2.59-.09-.69-.5-.93-1.05-.93l1.92-5.16-13.23-3.96s-5.67,10.67-4.94,14.98c.42,2.5,2.96,3.44,6.22,3.11l1.12,8.65c.1.75.53,1.41,1.17,1.81,6.11,3.87,11.18,1.62,12.59.85.23-.13.33-.4.25-.65Z"/>
        <path class="cls-9" d="m472,417.21c-4.57,3.28-6.5,11.09-6.5,11.09"/>
        <path class="cls-9" d="m500.18,402.03c-.25-.11-.34-.42-.19-.64.45-.69,1.31-2.11,1.58-3.35,0,0,1.02-.65-2.59-1.52-3.61-.86-9-2.21-10.13-5.28-1.1-3,1.8-10.54,6.43-4.53.18.23.52.23.7,0,.76-.99,2.75-3.04,5.52-1.79,2.59,1.16,2.88,3.06,2.85,4.02-.01.28.24.5.52.45,1.31-.25,4.46-.46,5.92,2.76,1.21,2.66.42,4.16-.29,4.9-.23.24-.13.63.19.73.86.26,1.97.99,1.86,3.01-.15,2.79-3.27,2.54-4.16,2.42-.15-.02-.29.03-.39.14-.76.84-4.19,4.42-7.9,4.85-.32.04-.57-.28-.47-.59l1.61-4.67c.07-.22-.03-.45-.24-.55l-.8-.35Z"/>
      </g>
    </g>
  </g>
</svg>