<?xml version="1.0" encoding="UTF-8"?><svg id="a" xmlns="http://www.w3.org/2000/svg" viewBox="0 0 38 38"><path d="M7.51,25.23l1.83-2.05-5.08-8.84,4.54-2.56.49.88,9.83-5.54-.49-.88,3.82-2.15,1.79,3.19,1.8-2.04-2.61-4.65-6.06,3.41-.8-1.41c-.17-.31-.57-.42-.88-.25l-1.83,1.03-.67-1.19c-.09-.16-.29-.22-.45-.13l-4.48,2.53c-.16.09-.22.29-.13.45l.67,1.19-1.81,1.02c-.31.17-.42.57-.25.88l.8,1.41L.77,13.37l6.74,11.86ZM11.45,3.81c.54,0,.98.44.98.98s-.44.98-.98.98-.98-.44-.98-.98.44-.98.98-.98Z" style="fill:#e11e19; fill-rule:evenodd;"/><path d="M30.53,13.08l-1.84,1.97,1.73,3.17c1.69,3,.62,6.81-2.37,8.5h0l-12.68,7.11-1.36-2.43-1.93,2.05,2.24,3.95,15-8.45h0c4.23-2.38,5.73-7.76,3.35-11.99l-2.13-3.88Z" style="fill:#e11e19; fill-rule:evenodd;"/><path d="M6.67,30.55l-4-4.1-2.17,2.35,6.55,7.06s2.89-3.59,5.75-7.09l-2.01-3.62c-2.24,2.87-4.12,5.39-4.12,5.39Z" style="fill:#e11e19;"/><path d="M26.82,8.32c-.44.28-.97.69-1.55,1.19l1.8,3.51c.39-.41.73-.75.97-.99,5.38-5.4,11.07.6,7.11,6.28.16.14.38.52.54.67,5.04-6.98-1.29-15.5-8.87-10.65Z" style="fill:#e11e19;"/><path d="M23.3,14.39c-.55.99-1.04,1.92-1.48,2.79-.44.87-.82,1.73-1.15,2.57-.33.85-.62,1.71-.85,2.58-.24.88-.43,1.82-.58,2.83h-2.84c.16-.96.37-1.88.64-2.77.26-.89.57-1.75.92-2.59.35-.84.73-1.65,1.15-2.44.42-.79.87-1.57,1.34-2.33h-5.74v-2.22h8.59v1.57Z" style="fill:#e1211c;"/></svg>