<svg xmlns="http://www.w3.org/2000/svg" xmlns:xlink="http://www.w3.org/1999/xlink" viewBox="0 0 140 60"><defs><style>.a,.d,.e,.f,.g,.h,.k{fill:none;}.b{clip-path:url(#a);}.c{fill:#e9f0f7;}.d,.e,.f,.g,.h,.k{stroke:#b0bbce;stroke-linecap:round;}.d,.e,.f,.g,.h,.j,.k,.m{stroke-miterlimit:10;}.d{stroke-width:0.51px;}.d,.e,.f,.g,.h{opacity:0.6;}.e{stroke-width:0.45px;}.f,.k{stroke-width:0.63px;}.g{stroke-width:0.54px;}.h{stroke-width:0.49px;}.i{opacity:0.85;}.j,.m{fill:#fff;stroke:#869cb3;}.j{stroke-width:0.5px;}.l{fill:#b0bbce;}.m{stroke-width:0.75px;}</style><clipPath id="a"><rect class="a" width="140" height="60"/></clipPath></defs><g class="b"><path class="c" d="M61.17,35.18l1.44,2.76-.47.25-1.42-2.78Zm-.89.45,1.37,2.8-.48.23-1.34-2.81Zm-.9.43,1.31,2.83-.5.22-1.26-2.84Zm-.91.41,1.23,2.86-.49.21L58,36.67Zm-.92.38,1.16,2.89-.51.2L57.09,37Zm-.93.36,1.08,2.92-.5.18-1.05-2.93Zm-.94.34,1,2.94-.52.17-1-2.95Zm-1,.31.93,3-.51.16-.89-3Zm-.95.28.85,3-.52.14-.81-3Zm-1,.26.78,3-.52.13-.74-3A4.21,4.21,0,0,0,52.81,38.4Zm-1,.24.69,3-.52.12-.66-3Zm-1,.21.62,3L51,42l-.58-3.06Zm-1,.18.54,3.07-.53.09-.5-3.07Zm-1,.16.46,3.08-.54.08-.41-3.09Zm-1,.14.38,3.09-.54.06-.33-3.1Zm-1,.1.3,3.1-.54,0-.25-3.1Zm-1,.09.22,3.1-.54,0-.17-3.1Zm-1,0,.14,3.11-.54,0-.09-3.11Zm-1,0,0,3.11h-.53l0-3.11Zm-1,0,0,3.11H42.4l.07-3.11Zm-1,0-.11,3.11-.53,0,.14-3.1Zm-1-.05-.19,3.11-.54,0,.23-3.1Zm-1-.07-.26,3.1-.54,0,.31-3.1Zm-1-.1-.34,3.09-.54-.06.39-3.09Zm-1-.13-.43,3.09-.53-.08.46-3.08Zm-1-.14-.5,3.07L36,42.08,36.53,39Zm-1-.18L35.46,42l-.53-.11.62-3Zm-1-.2-.67,3-.52-.11.7-3Zm-1-.22-.73,3-.53-.13.78-3Zm-1-.25-.82,3-.52-.14.86-3Zm-1-.28-.89,3-.52-.16.94-3Zm-1-.29-1,3-.51-.17,1-2.94Zm-.95-.33-1,2.93-.51-.18,1.09-2.92ZM29.34,37l-1.12,2.91-.5-.2,1.16-2.89Zm-.92-.37-1.2,2.88-.5-.21L28,36.44Zm-.92-.39-1.27,2.84-.49-.22L27.05,36Zm-.91-.42-1.34,2.81-.48-.24,1.37-2.79Zm-.89-.44-1.41,2.77-.49-.25,1.45-2.75Zm-.89-.47-1.48,2.74-.47-.26,1.52-2.72Zm-.87-.48-1.55,2.69-.47-.27,1.59-2.68Zm-.85-.51-1.63,2.65L21,36.28l1.66-2.63Zm-.85-.54L20.55,36l-.45-.29,1.72-2.59Zm-.83-.55-1.76,2.56-.45-.3L21,32.54Zm-.82-.58-1.82,2.52-.44-.32L20.19,32Zm-.8-.6L17.9,34.13l-.43-.33,1.92-2.45ZM19,31l-1.95,2.42-.42-.34,2-2.4Zm-.77-.64-2,2.37-.41-.35,2-2.35Zm-.75-.66L15.4,32.06l-.4-.37,2.11-2.29Zm-.74-.68-2.13,2.26L14.22,31l2.16-2.23ZM16,28.37l-2.2,2.2c-.13-.13-.25-.26-.38-.38L15.68,28Zm-.7-.72L13.08,29.8c-.13-.13-.25-.26-.37-.4L15,27.29Zm-.68-.73L12.34,29l-.36-.4,2.34-2.06ZM14,26.17l-2.36,2-.35-.41,2.39-2Zm-.64-.76-2.41,2L10.6,27,13,25Zm-.61-.78-2.47,1.9L10,26.1l2.48-1.87Zm-.6-.8L9.62,25.66l-.31-.43,2.54-1.81C11.94,23.56,12,23.69,12.14,23.83ZM11.56,23,9,24.79l-.3-.45,2.58-1.74ZM11,22.19l-2.6,1.7c-.1-.15-.2-.3-.29-.45l2.62-1.67Zm-.53-.84L7.82,23c-.09-.15-.19-.3-.28-.46l2.67-1.6ZM10,20.49,7.27,22.06,7,21.59l2.71-1.53C9.79,20.21,9.87,20.35,10,20.49Zm-.5-.87-2.72,1.5c-.09-.15-.18-.31-.26-.47l2.75-1.46Z"/><rect class="c" x="17.6" y="17.09" width="84.86" height="36.77" rx="7.55"/><rect class="d" x="72.25" y="9.21" width="10.11" height="10.11" transform="matrix(0.68, -0.74, 0.74, 0.68, 14.51, 61.55)"/><circle class="e" cx="18.33" cy="13.27" r="8.7"/><rect class="f" x="31.98" y="28.91" width="17.28" height="17.28" transform="translate(-14.51 42.06) rotate(-47.44)"/><rect class="g" x="71.64" y="33.86" width="18.49" height="10.41" rx="2.44"/><rect class="f" x="98.57" y="5.44" width="21.3" height="11.99" rx="2.81"/><circle class="h" cx="108.32" cy="45.84" r="9.99"/><polygon class="c" points="70.91 5.6 67.41 9.1 65.86 9.1 69.36 5.6 65.86 2.1 67.41 2.1 70.91 5.6"/><polygon class="c" points="68.39 5.6 64.88 9.1 63.33 9.1 66.83 5.6 63.33 2.1 64.88 2.1 68.39 5.6"/><polygon class="c" points="65.86 5.6 62.36 9.1 60.81 9.1 64.31 5.6 60.81 2.1 62.36 2.1 65.86 5.6"/><polygon class="c" points="63.33 5.6 59.83 9.1 58.28 9.1 61.78 5.6 58.28 2.1 59.83 2.1 63.33 5.6"/><polygon class="c" points="60.81 5.6 57.3 9.1 55.76 9.1 59.26 5.6 55.76 2.1 57.3 2.1 60.81 5.6"/><g class="i"><path class="j" d="M132.69,28.73,133.5,24l-4.74.81a9,9,0,0,0-6,3.85L119.3,33.8h0c-.43.65.09,2,1.23,3.15s2.51,1.66,3.15,1.23h0l5.16-3.48A9.1,9.1,0,0,0,132.69,28.73Z"/><path class="j" d="M129.05,31.37a2.08,2.08,0,1,1,0-2.94A2.08,2.08,0,0,1,129.05,31.37Z"/><path class="j" d="M121.3,40.3A8.47,8.47,0,0,0,118.73,44a10.37,10.37,0,0,1-.33-2.77l-4.23,2.13,2.13-4.22a10.29,10.29,0,0,1-2.77-.34,8.39,8.39,0,0,0,3.65-2.57"/></g><line class="k" x1="53.81" y1="39.31" x2="65.56" y2="39.31"/><polygon class="l" points="63.49 41.87 63.06 41.41 65.32 39.31 63.06 37.21 63.49 36.75 66.24 39.31 63.49 41.87"/><line class="k" x1="80.06" y1="31.85" x2="80.06" y2="25.55"/><polygon class="l" points="82.61 27.63 82.16 28.05 80.06 25.79 77.95 28.05 77.5 27.63 80.06 24.87 82.61 27.63"/><line class="k" x1="108.32" y1="20.08" x2="108.32" y2="33.54"/><polygon class="l" points="105.76 31.47 106.22 31.04 108.32 33.3 110.42 31.04 110.88 31.47 108.32 34.22 105.76 31.47"/><line class="k" x1="86.96" y1="13.42" x2="93.62" y2="13.42"/><polygon class="l" points="91.54 15.98 91.11 15.53 93.38 13.43 91.11 11.32 91.54 10.87 94.29 13.43 91.54 15.98"/><path class="m" d="M32.89,55.29c.2.41.53.41.74,0L35,52.64a4,4,0,0,0,.37-1.56V12.55a.83.83,0,0,0-.82-.83H32a.82.82,0,0,0-.82.82V51.08a4,4,0,0,0,.37,1.56Z"/><path class="m" d="M37.8,15.56V34.81C47.16,24.28,56.52,41.48,65.88,31V11.71C56.52,22.23,47.16,5,37.8,15.56Z"/></g></svg>