<?xml version="1.0" encoding="UTF-8"?>
<svg xmlns="http://www.w3.org/2000/svg" xmlns:xlink="http://www.w3.org/1999/xlink" viewBox="0 0 237.43 173.1">
  <defs>
    <style>
      .cls-1 {
        stroke-linecap: round;
        stroke-linejoin: round;
      }

      .cls-1, .cls-2, .cls-3 {
        fill: #fff;
      }

      .cls-1, .cls-3, .cls-4 {
        stroke: #869cb3;
      }

      .cls-5 {
        fill: #e9f0f7;
      }

      .cls-6 {
        isolation: isolate;
      }

      .cls-3, .cls-7, .cls-4 {
        stroke-miterlimit: 10;
      }

      .cls-3, .cls-4 {
        stroke-width: .75px;
      }

      .cls-8 {
        clip-path: url(#clippath-1);
      }

      .cls-9 {
        fill: #68cbc0;
      }

      .cls-10 {
        clip-path: url(#clippath);
      }

      .cls-7 {
        fill: #1f1f39;
        opacity: .28;
        stroke: #c1cedd;
      }

      .cls-11, .cls-4 {
        fill: none;
      }

      .cls-12 {
        fill: #ccd7e4;
      }

      .cls-13 {
        fill: #869cb3;
      }

      .cls-14 {
        mix-blend-mode: overlay;
      }

      .cls-15 {
        fill: #dfe7f0;
      }

      .cls-16 {
        fill-rule: evenodd;
      }
    </style>
    <clipPath id="clippath">
      <path class="cls-11" d="m160.96,101.43s-7.19,29.55-9.35,71.29l33.96-.48.95-7.51,3.19,7.75h30.98s-16.81-70.72-42.13-83.57l-17.59,12.51Z"/>
    </clipPath>
    <clipPath id="clippath-1">
      <polygon class="cls-13" points="142.8 51.4 138.79 55.08 136.38 60.6 146.23 54.19 142.8 51.4"/>
    </clipPath>
  </defs>
  <g class="cls-6">
    <g id="Layer_2" data-name="Layer 2">
      <g id="FALTAN_" data-name="FALTAN?">
        <g>
          <path class="cls-9" d="m39.31.6c-7.11,0-12.94,5.82-12.94,12.94s5.82,12.94,12.94,12.94,12.94-5.82,12.94-12.94S46.42.6,39.31.6m-2.59,19.4l-6.47-6.47,1.82-1.82,4.64,4.63,9.82-9.82,1.82,1.84-11.64,11.64Z"/>
          <g>
            <ellipse class="cls-2" cx="219.61" cy="27.13" rx="7.16" ry="2.71"/>
            <ellipse class="cls-1" cx="219.61" cy="27.13" rx="7.16" ry="2.71"/>
            <g>
              <g>
                <path class="cls-3" d="m230.97,7.6c-2.88.27-3.41,2.82-6.71,3.08-.53.04-2.45.7-3.21,1.02-.07.03-.13.06-.19.08-.04.01-.08.03-.11.04-.47.17-.85.22-.97-.06-.03-.08-.05-.18-.04-.3.09-1.38.32-10.28.33-10.7v-.02s.03.01.05.02c.24.09.47.17.68.26.04.01.08.03.11.04.21.08.41.16.6.24,3.18,1.29,3.87,1.98,6.01,1.86,1.61-.09,2.18-.51,3.79-.5,2.08,0,4.71,2.07,5.48,3.33,1.09,1.78-1.14,1.18-5.82,1.61Z"/>
                <path class="cls-7" d="m221.51,1.3c-.42,3.68-.46,8.83-.46,10.4-.07.03-.13.06-.19.08-.04.01-.08.03-.11.04-.47.17-.85.22-.97-.06-.03-.08-.05-.18-.04-.3.09-1.38.32-10.28.33-10.7v-.02s.03.01.05.02c.24.09.47.17.68.26.04.01.08.03.11.04.21.08.41.16.6.24Z"/>
              </g>
              <path class="cls-13" d="m219.71,27.81s0,0,0,0c-.24.01-.82-.21-.82-.32-.37-14.78.78-26.45.76-26.61-.08-.5.55-.56.79-.56.24,0,.42.09.41.21-.02.17-1.07,12.29-.7,27.05,0,.12-.18.22-.42.24Z"/>
            </g>
          </g>
          <g>
            <g>
              <ellipse class="cls-15" cx="105" cy="85.65" rx="7.16" ry="2.71"/>
              <ellipse class="cls-15" cx="105" cy="85.65" rx="7.16" ry="2.71"/>
            </g>
            <g>
              <ellipse class="cls-15" cx="11.94" cy="58.45" rx="2.71" ry="7.16" transform="translate(-46.73 69.25) rotate(-88.9)"/>
              <ellipse class="cls-15" cx="11.94" cy="58.45" rx="2.71" ry="7.16" transform="translate(-46.73 69.25) rotate(-88.9)"/>
            </g>
            <rect class="cls-15" x="154.77" y="90.98" width="1.94" height="11.86"/>
            <rect class="cls-15" x="150.54" y="89.74" width="1.94" height="11.86"/>
            <rect class="cls-15" x="146.94" y="88.65" width="1.94" height="11.86"/>
            <rect class="cls-15" x="142.81" y="87.39" width="1.94" height="11.86"/>
            <rect class="cls-15" x="119.36" y="79.23" width="2.31" height="13.48"/>
            <rect class="cls-15" x="114.61" y="78.59" width="2.31" height="13.48"/>
            <rect class="cls-15" x="92.61" y="74.88" width="2.14" height="13.06" transform="translate(1.58 -1.79) rotate(1.1)"/>
            <rect class="cls-15" x="87.99" y="74.18" width="2.14" height="13.06" transform="translate(1.57 -1.7) rotate(1.1)"/>
            <rect class="cls-15" x="83.35" y="74.09" width="2.14" height="13.06" transform="translate(1.57 -1.61) rotate(1.1)"/>
            <rect class="cls-15" x="78.73" y="73.27" width="2.14" height="13.06" transform="translate(1.55 -1.52) rotate(1.1)"/>
            <rect class="cls-15" x="74.13" y="71.4" width="2.14" height="13.06" transform="translate(1.51 -1.43) rotate(1.1)"/>
            <rect class="cls-15" x="69.52" y="70.06" width="2.14" height="13.06" transform="translate(1.49 -1.35) rotate(1.1)"/>
            <rect class="cls-15" x="64.88" y="69.97" width="2.14" height="13.06" transform="translate(1.49 -1.26) rotate(1.1)"/>
            <rect class="cls-15" x="60.27" y="68.63" width="2.14" height="13.06" transform="translate(1.46 -1.17) rotate(1.1)"/>
            <rect class="cls-15" x="55.65" y="67.63" width="2.14" height="13.06" transform="translate(1.44 -1.08) rotate(1.1)"/>
            <rect class="cls-15" x="51.03" y="66.94" width="2.14" height="13.06" transform="translate(1.42 -.99) rotate(1.1)"/>
            <rect class="cls-15" x="46.5" y="64.96" width="2.01" height="12.31" transform="translate(1.38 -.9) rotate(1.1)"/>
            <rect class="cls-15" x="41.87" y="64.5" width="2.01" height="12.31" transform="translate(1.37 -.81) rotate(1.1)"/>
            <rect class="cls-15" x="37.26" y="63.28" width="2.01" height="12.31" transform="translate(1.34 -.72) rotate(1.1)"/>
            <rect class="cls-15" x="32.64" y="62.55" width="2.01" height="12.31" transform="translate(1.33 -.64) rotate(1.1)"/>
            <rect class="cls-15" x="28.02" y="61.21" width="2.01" height="12.31" transform="translate(1.3 -.55) rotate(1.1)"/>
            <rect class="cls-15" x="23.4" y="60.65" width="2.01" height="12.31" transform="translate(1.29 -.46) rotate(1.1)"/>
            <rect class="cls-15" x="18.79" y="58.87" width="2.01" height="12.31" transform="translate(1.26 -.37) rotate(1.1)"/>
            <rect class="cls-15" x="14.17" y="58.18" width="2.01" height="12.31" transform="translate(1.24 -.28) rotate(1.1)"/>
            <rect class="cls-15" x="8.86" y="55.63" width="2.01" height="12.31" transform="translate(1.19 -.18) rotate(1.1)"/>
          </g>
          <g>
            <g>
              <ellipse class="cls-15" cx="75.05" cy="44.07" rx="7.16" ry="2.71"/>
              <ellipse class="cls-15" cx="75.05" cy="44.07" rx="7.16" ry="2.71"/>
            </g>
            <rect class="cls-15" x="161.63" y="105.24" width="2.31" height="14.12"/>
            <rect class="cls-15" x="22.61" y="45.34" width="1.8" height="10.98"/>
            <rect class="cls-15" x="16.42" y="45.91" width="1.8" height="10.98"/>
            <rect class="cls-15" x="30.06" y="43.12" width="1.8" height="10.98"/>
            <rect class="cls-15" x="38.41" y="40.42" width="1.8" height="10.98"/>
            <rect class="cls-15" x="50.03" y="41.09" width="1.8" height="10.98"/>
            <rect class="cls-15" x="62.55" y="37.15" width="1.8" height="10.98"/>
            <rect class="cls-15" x="82.71" y="33.68" width="1.8" height="10.98"/>
            <rect class="cls-15" x="87.68" y="32.83" width="1.8" height="10.98"/>
            <rect class="cls-15" x="92.65" y="31.66" width="1.8" height="10.98"/>
            <rect class="cls-15" x="97.62" y="31.32" width="1.8" height="10.98"/>
            <rect class="cls-15" x="102.59" y="30.69" width="1.8" height="10.98"/>
            <rect class="cls-15" x="107.56" y="30.69" width="1.8" height="10.98"/>
            <rect class="cls-15" x="112.53" y="30.69" width="1.8" height="10.98"/>
            <rect class="cls-15" x="117.5" y="30.17" width="1.8" height="10.98"/>
            <rect class="cls-15" x="134.57" y="27.34" width="1.8" height="10.98"/>
            <rect class="cls-15" x="147.88" y="25.06" width="1.8" height="10.98"/>
            <rect class="cls-15" x="152.26" y="24.11" width="1.8" height="10.98"/>
            <rect class="cls-15" x="156.64" y="23.77" width="1.8" height="10.98"/>
            <rect class="cls-15" x="161.02" y="23.29" width="1.8" height="10.98"/>
            <rect class="cls-15" x="165.4" y="22.63" width="1.8" height="10.98"/>
            <rect class="cls-15" x="169.78" y="21.62" width="1.8" height="10.98"/>
            <rect class="cls-15" x="174.16" y="21.62" width="1.8" height="10.98"/>
            <rect class="cls-15" x="178.54" y="21.62" width="1.8" height="10.98"/>
            <rect class="cls-15" x="182.92" y="21.62" width="1.8" height="10.98"/>
            <rect class="cls-15" x="187.3" y="21.06" width="1.8" height="10.98"/>
            <rect class="cls-15" x="191.68" y="20.47" width="1.8" height="10.98"/>
            <rect class="cls-15" x="196.06" y="20.29" width="1.8" height="10.98"/>
            <rect class="cls-15" x="200.45" y="18.92" width="1.8" height="10.98"/>
            <rect class="cls-15" x="204.83" y="18.92" width="1.8" height="10.98"/>
          </g>
          <g>
            <path class="cls-12" d="m92.79,156.02v.79c0-.27-.02-.53-.06-.79h.06Z"/>
            <rect class="cls-12" x="59.85" y="141.77" width="2.31" height="14.12" transform="translate(123.11 .45) rotate(45)"/>
            <rect class="cls-12" x="65.65" y="139.94" width="2.31" height="14.12" transform="translate(129.18 -1.93) rotate(47.16)"/>
            <rect class="cls-12" x="71.25" y="137.64" width="2.31" height="14.12" transform="translate(110.11 -12.65) rotate(40.06)"/>
            <rect class="cls-12" x="76.53" y="135.56" width="2.31" height="14.12" transform="translate(115.68 -15.28) rotate(42.11)"/>
            <rect class="cls-12" x="82.1" y="133.16" width="2.31" height="14.12" transform="translate(123.54 -17.8) rotate(45)"/>
            <rect class="cls-12" x="87.53" y="131.25" width="2.31" height="14.12" transform="translate(87.31 -25.98) rotate(32.19)"/>
            <rect class="cls-12" x="92.71" y="129.01" width="2.31" height="14.12" transform="translate(62.66 -26.26) rotate(23.72)"/>
            <rect class="cls-12" x="98.55" y="125.31" width="2.31" height="14.12" transform="translate(114.5 -32.69) rotate(42.11)"/>
            <rect class="cls-12" x="103.74" y="124.2" width="2.31" height="14.12" transform="translate(94.6 -36.45) rotate(35.12)"/>
            <rect class="cls-12" x="125.57" y="118.17" width="2.31" height="14.12" transform="translate(79.59 -46.58) rotate(30)"/>
            <rect class="cls-12" x="130.49" y="116.33" width="2.31" height="14.12" transform="translate(29.42 -25.29) rotate(12.34)"/>
            <rect class="cls-12" x="135.11" y="114.69" width="2.31" height="14.12" transform="translate(35.67 -30.8) rotate(14.82)"/>
            <rect class="cls-12" x="139.28" y="114.16" width="2.31" height="14.12" transform="translate(29.15 -27.22) rotate(12.34)"/>
            <rect class="cls-12" x="144.82" y="111.52" width="2.31" height="14.12" transform="translate(28.72 -28.46) rotate(12.34)"/>
            <rect class="cls-12" x="150.15" y="110.09" width="2.31" height="14.12" transform="translate(28.54 -29.63) rotate(12.34)"/>
            <rect class="cls-12" x="155.37" y="107.47" width="2.31" height="14.12" transform="translate(28.1 -30.81) rotate(12.34)"/>
            <rect class="cls-12" x="109.75" y="122.53" width="2.31" height="14.12" transform="translate(30.26 -20.71) rotate(12.34)"/>
          </g>
          <g>
            <polygon points="184.24 90.74 183.22 94.52 189.3 101.9 192.6 96.32 184.24 90.74"/>
            <path class="cls-3" d="m111.74,147.83c.31.5.32,1.13.02,1.64l-1.16,1.98c-.18.3-.49.51-.83.57l-4.81.82c-.62.1-1.23-.2-1.53-.75l-1.35-2.53c-2.34,2.72-4.82,4.74-6.25,5.81-.35.26-.76.38-1.17.38-.43,0-.85-.13-1.21-.41-.33-.26-.37-.74-.09-1.05,1.32-1.45,4.9-5.41,8.34-9.47,3.54-4.19,5.59-10.59,5.59-10.59l1.33.53.99-1.57,2.94,3.18s.61,5.82-1.94,9.62l1.13,1.84Z"/>
            <path class="cls-3" d="m160.96,101.43s-7.19,29.55-9.35,71.29l33.96-.48.95-7.51,3.19,7.75h30.98s-16.81-70.72-42.13-83.57l-17.59,12.51Z"/>
            <g>
              <path class="cls-3" d="m136.79,38.97s-.05,0-.07,0l.05-.04.02.05Z"/>
              <path class="cls-3" d="m143.8,54.83l-6.09,4.15-8.13-11c2.25-.39,4.42-1.26,6.05-2.78.86-.8,1.57-2.24,2.15-4l6.02,13.63Z"/>
            </g>
            <g>
              <path class="cls-3" d="m140.44,23.84s-.18,3.95-.8,8.51c-1.96-1.34-3.86,1.43-3.86,1.43,0,0-2.12,3.61-.38,4.83.32.22.79.34,1.32.35.02,0,.04,0,.07,0l.99,2.23c-.58,1.76-1.29,3.2-2.15,4-1.63,1.52-3.8,2.39-6.05,2.78-3.27.56-6.69.09-8.74-.91-1.8-.88-2.9-5.07-2.26-10.05l-1.5-2.73h2.01c.71-2.91,2.04-5.94,4.16-8.63,6.56-8.31,17.19-1.82,17.19-1.82Z"/>
              <path class="cls-3" d="m139.64,32.35c-.28,2.09-.66,4.32-1.15,6.34-.21.88-.45,1.73-.71,2.51l-.99-2.23s-.05,0-.07,0c-.53-.01-1-.13-1.32-.35-1.74-1.22.38-4.83.38-4.83,0,0,1.9-2.77,3.86-1.43Z"/>
            </g>
            <g class="cls-10">
              <g>
                <path class="cls-13" d="m186.63,165.46s0,0-.01,0c-.1,0-.18-.1-.17-.2l2.51-33.98s0-.03.01-.05c1.06-2.87,2.8-5.04,4.07-6.35,1.38-1.42,2.49-2.15,2.54-2.18.09-.06.2-.03.26.05.06.09.03.2-.05.26-.01,0-1.13.75-2.48,2.14-1.24,1.28-2.94,3.39-3.97,6.19l-2.51,33.95c0,.1-.09.17-.18.17Z"/>
                <path class="cls-13" d="m193.31,117.96c-.08,0-.15-.05-.17-.12-1.21-3.43-3.97-9.27-10.24-17.56-3.76-4.97-7.04-8.51-7.07-8.55-.07-.07-.07-.19,0-.26.07-.07.19-.07.26,0,.03.04,3.32,3.59,7.09,8.57,3.48,4.6,8.09,11.4,10.3,17.67.03.1-.02.2-.11.24-.02,0-.04.01-.06.01Z"/>
                <path class="cls-13" d="m164.1,120.57s-.02,0-.02,0c-2.28-.28-3.84-1.66-4.74-2.77-.98-1.2-1.41-2.31-1.43-2.36-.04-.1.01-.2.11-.24.1-.04.2.01.24.11,0,.01.44,1.12,1.38,2.27.86,1.05,2.34,2.36,4.49,2.63.1.01.17.1.16.21-.01.09-.09.16-.18.16Z"/>
                <path class="cls-13" d="m162.54,174.54s0,0,0,0c-.1,0-.18-.09-.18-.19l2.17-75.89c0-.1.09-.18.19-.18.1,0,.18.09.18.19l-2.17,75.89c0,.1-.08.18-.18.18Z"/>
              </g>
            </g>
            <path class="cls-13" d="m104.88,137.64l9.98,5.21c.49-2.49.56-4.84.54-6.37l-8.43-3.89c-.4,1.11-1.1,2.94-2.08,5.06Z"/>
            <g>
              <polygon class="cls-13" points="142.8 51.4 138.79 55.08 136.38 60.6 146.23 54.19 142.8 51.4"/>
              <g class="cls-8">
                <g class="cls-14">
                  <path class="cls-16" d="m137.91,41.49s0,.02.01.03c.02,0,.07.08.07.17-.02-.08-.07-.11-.08-.2Z"/>
                  <path class="cls-16" d="m137.35,42.21s.02.09.03.13c-.02-.05-.06-.09-.03-.13Z"/>
                  <path class="cls-16" d="m137.46,42.43s.03.07.04.11c-.05,0-.04-.08-.04-.11Z"/>
                  <path class="cls-16" d="m137.42,42.54s.02.08.04.09c-.01,0-.02,0-.03,0,0,.1.05.1.06.19-.09-.04-.07-.2-.07-.29Z"/>
                  <path class="cls-16" d="m137.5,42.56s.04.05.05.09c-.02-.02-.04-.06-.05-.09Z"/>
                  <path class="cls-16" d="m137.5,42.63s.07.12.05.18c-.04-.02-.01-.09-.05-.18Z"/>
                  <path class="cls-16" d="m139.37,42.27s.02.05.05.04c0,0,0,.01,0,.01v.02s-.03-.04-.04-.08Z"/>
                  <path class="cls-16" d="m139.33,42.44s.04.03.05.06c-.03,0-.04-.03-.05-.06Z"/>
                  <path class="cls-16" d="m140.66,42.21s.03.08.04.12c-.03-.01-.02-.08-.04-.12Z"/>
                  <path class="cls-16" d="m137.5,42.99c.06.04.03.13.02.17-.03-.03,0-.11-.02-.17Z"/>
                  <path class="cls-16" d="m139.43,42.78s-.02-.04-.02-.08c.03-.01.04.08.06.04.03,0,.02.07.03.09-.03-.01-.04-.05-.07-.05Z"/>
                  <path class="cls-16" d="m140.71,42.55s.07.15.03.16c0-.04-.01-.09-.03-.16Z"/>
                  <path class="cls-16" d="m139.58,43.18s.05.05.03.08c-.03,0-.02-.06-.03-.08Z"/>
                  <path class="cls-16" d="m137.59,43.73c.05,0,.03.07,0,.08-.04-.01.02-.04,0-.08Z"/>
                  <path class="cls-16" d="m137.8,44.51s.04.07.02.08c-.05,0,0-.03-.02-.08Z"/>
                  <path class="cls-16" d="m137.91,44.48s.02.04.03.03c-.01.03.04.15.02.14l-.05-.17Z"/>
                  <path class="cls-16" d="m137.96,45.21s.09.19.04.21c0-.07,0-.13-.04-.21Z"/>
                  <path class="cls-16" d="m139.88,44.98c-.06-.03-.04-.18,0,0h0Z"/>
                  <path class="cls-16" d="m138.07,45.9c.07.02.07.1.08.18-.06-.02-.04-.13-.08-.18Z"/>
                  <path class="cls-16" d="m139.81,45.63s.04,0,.05.04c-.02.04-.04,0-.08.02-.02-.06.04-.01.03-.06Z"/>
                  <path class="cls-16" d="m140.07,46.43s.02.06.04.08c-.05,0-.02-.05-.04-.08Z"/>
                  <path class="cls-16" d="m138.36,47.03s.08.08.03.09c0-.04-.01-.04-.03-.09Z"/>
                  <path class="cls-16" d="m140.64,46.31s.05.09,0,.09c-.02-.04,0-.06,0-.09Z"/>
                  <path class="cls-16" d="m138.42,47.16c.08.09.06.09.11.23-.06-.03-.08-.14-.11-.23Z"/>
                  <path class="cls-16" d="m138.29,47.47s-.02.07.02.12c-.04-.02-.03-.1-.02-.12Z"/>
                  <path class="cls-16" d="m138.31,47.62s.03.04.05.04c0,.02-.02.02-.04.03,0-.02,0-.04-.01-.07Z"/>
                  <path class="cls-16" d="m138.61,47.53c-.03.06.02.13.05.21-.05-.03-.12-.16-.05-.21Z"/>
                  <path class="cls-16" d="m136.22,48.44s.03.04.03.05c.04.12-.04-.03-.03-.05Z"/>
                  <path class="cls-16" d="m140.24,47.1s.05,0,.05.04c-.04.03-.02-.05-.05-.04Z"/>
                  <path class="cls-16" d="m139.11,47.76s.08.07.08.11c-.05-.01-.02-.09-.08-.11Z"/>
                  <path class="cls-16" d="m138.85,47.9s.03.03.03,0c.03,0,.01.06-.02.06-.01,0-.02-.02-.03-.05.01,0,.02,0,.02-.02Z"/>
                  <path class="cls-16" d="m139.33,47.97s.04.07.03.07c0,0-.01,0-.02,0,0-.01,0-.01-.02,0,0-.02.03-.02,0-.06Z"/>
                  <path class="cls-16" d="m140.47,47.75s.04.09.05.12c-.04-.02-.03-.06-.05-.12Z"/>
                  <path class="cls-16" d="m140.05,48.07l.02.05s-.06-.04-.02-.05Z"/>
                  <path class="cls-16" d="m140.16,48.31c.07,0,.02.09.05.14-.03-.01-.05-.11-.05-.14Z"/>
                  <path class="cls-16" d="m138.44,49.2s-.01.05,0,.08c-.03.01-.04-.08,0-.08Z"/>
                  <path class="cls-16" d="m139.97,49.11s.06.07.06.1c-.03-.02-.04-.07-.06-.1Z"/>
                  <path class="cls-16" d="m140.03,49.29s.04.11.08.15c-.04,0-.08-.13-.08-.15Z"/>
                  <path class="cls-16" d="m138.64,50.1s.04.09,0,.09c-.02-.04.04-.04,0-.09Z"/>
                  <path class="cls-16" d="m140.06,49.63s.06.06.08.11c-.02.02-.05-.08-.06-.02-.03,0,0-.06-.02-.09Z"/>
                  <path class="cls-16" d="m140.19,49.84s-.02,0-.05,0c0-.03-.02-.07,0-.07,0,.01,0,.02,0,.04.01,0,.03,0,.04.03Z"/>
                  <path class="cls-16" d="m140.19,49.82s0,.09.05.12c-.06,0-.07-.09-.05-.12Z"/>
                  <path class="cls-16" d="m142.06,49.4s.04.05.02.06c-.04,0,0-.04-.02-.06Z"/>
                  <path class="cls-16" d="m141.28,49.99s.05.07.01.07c0-.02,0-.04-.01-.07Z"/>
                  <path class="cls-16" d="m141.87,50.04s.05.05.04.08c-.03,0-.03-.06-.04-.08Z"/>
                  <path class="cls-16" d="m143.8,49.56s.03.02.04.04c-.02,0-.02.02-.04.03v-.04s.02,0,0-.03Z"/>
                  <path class="cls-16" d="m141.08,51.18c.09.15.12.33.19.52-.18-.13-.09-.36-.19-.52Z"/>
                  <path class="cls-16" d="m142.92,50.48s.07.05.02.06l-.02-.06Z"/>
                  <path class="cls-16" d="m143.41,50.39s.04.07.03.08c-.04,0-.01-.06-.03-.08Z"/>
                  <path class="cls-16" d="m143.02,50.71s.04.04.05.08c-.04.03-.04-.05-.05-.08Z"/>
                  <path class="cls-16" d="m143.2,50.81c0-.06.07.06.02.06-.03-.02.01-.06-.02-.06Z"/>
                  <path class="cls-16" d="m143.24,50.9s.08.09.04.1c0-.04-.02-.04-.04-.1Z"/>
                  <path class="cls-16" d="m141.24,51.73s.04.08.09.06c0,.03,0,.06-.02.08-.04-.03-.04-.12-.07-.14Z"/>
                  <path class="cls-16" d="m141.79,51.72c.01-.06.04.05.05.08,0,0-.01,0-.02,0h-.02s0-.07-.02-.07Z"/>
                  <path class="cls-16" d="m141.82,51.96s.06.01.08.07c-.02-.03-.06-.03-.08-.07Z"/>
                  <path class="cls-16" d="m142.89,51.63s.04.03.05.06c-.03.02-.06-.04-.05-.06Z"/>
                  <path class="cls-16" d="m143.49,51.43s.02.02.03.02c-.02.03-.01.04,0,.07-.04,0-.03-.07-.02-.09Z"/>
                  <path class="cls-16" d="m144.39,51.15s.04.05.05.08c-.03.01-.04-.04-.05-.08Z"/>
                  <path class="cls-16" d="m139.41,53.6s.06.02.08.05c-.01.01-.04-.04-.04,0-.02,0-.04-.02-.05-.05Z"/>
                  <path class="cls-16" d="m143.51,52.05s.05.11.03.13c0-.04-.01-.08-.03-.13Z"/>
                  <path class="cls-16" d="m139.27,53.91s.02,0,.04,0c-.01.08,0,.08.05.16-.06-.01-.09-.1-.09-.16Z"/>
                  <path class="cls-16" d="m139.7,53.83s.05.09.08.14c-.04-.02-.04-.07-.08-.14Z"/>
                  <path class="cls-16" d="m139.35,54.11c.06-.03.02.09.06.05.03,0,.02.04,0,.04.08.17,0,.07-.02,0,0-.01-.02,0-.03,0-.02-.03,0-.04-.02-.08Z"/>
                  <path class="cls-16" d="m144.14,52.26s.06.03.05.06c-.02,0-.04-.03-.05-.06Z"/>
                  <path class="cls-16" d="m143.71,52.5c-.03.06.03.09.06.12-.01,0-.03,0-.05,0-.01-.04-.03-.07-.05-.09,0-.01.02-.02.04-.03Z"/>
                  <path class="cls-16" d="m143.85,52.47c.05.08.16.14.15.23-.02,0-.02-.05-.04-.07-.03.01,0,.06.01.09-.05-.04-.13-.18-.13-.26Z"/>
                  <path class="cls-16" d="m139.45,54.37s.04.04.06.08c-.03,0-.04-.04-.06-.08Z"/>
                  <path class="cls-16" d="m139.49,54.48s.04.01.06.05c-.02,0-.05,0-.06-.05Z"/>
                  <path class="cls-16" d="m139.54,54.56c.05-.02.01.19.09.12,0,.02-.03.05-.06.04-.02-.08,0-.08-.03-.16Z"/>
                  <path class="cls-16" d="m144.05,52.91h.03s0,.06.03.12c-.03.02-.02-.07-.05-.04,0-.03.02-.04,0-.08Z"/>
                  <path class="cls-16" d="m142.26,53.63s.04.09,0,.11c-.02-.04-.05-.1,0-.11Z"/>
                  <path class="cls-16" d="m144.06,53.05s.03.02.06,0c-.01.03.02.06.05.05.02.04-.05.03-.02.07-.03-.04-.06-.06-.08-.11Z"/>
                  <path class="cls-16" d="m144.3,52.99s.07.07.02.08c0-.02,0-.05-.02-.08Z"/>
                  <path class="cls-16" d="m144.12,53.18s.06.04.06.09c-.03-.01-.04-.05-.06-.09Z"/>
                  <path class="cls-16" d="m144.09,53.22s.05.03.04.07c-.02,0-.02-.05-.04-.07Z"/>
                  <path class="cls-16" d="m144.41,53.24s.07.1.06.12c-.03,0-.04-.08-.06-.12Z"/>
                  <path class="cls-16" d="m139.84,55.1s.04.02.05.05c-.03.02-.04,0-.07.01,0-.03.03-.04.02-.07Z"/>
                  <path class="cls-16" d="m144.11,53.46s.11.12.09.13c0,0-.07-.12-.09-.13Z"/>
                  <path class="cls-16" d="m145.03,53.25v.04s-.04.03-.05,0c.03,0,.02-.03.05-.03Z"/>
                  <path class="cls-16" d="m140.1,55.24s.05,0,.06.03c-.03,0-.05.01-.06-.03Z"/>
                  <path class="cls-16" d="m140.17,55.4s.04.03.06.06c-.03.01-.04-.03-.06-.06Z"/>
                  <path class="cls-16" d="m144.39,53.8s.01,0,.04-.02c0,.02.01.06-.02.07l-.02-.05Z"/>
                  <path class="cls-16" d="m144.39,54.01s-.02,0-.03-.02c-.01,0-.02.01-.02.02-.05-.03.03-.06.05,0Z"/>
                  <path class="cls-16" d="m144.92,53.78c.06.06.01.1.07.15-.06.03-.09-.13-.07-.15Z"/>
                  <path class="cls-16" d="m144.4,54.09s.06.03.08.05c-.01,0-.05-.01-.03.03-.01.01-.04-.04-.04,0-.06-.02.04-.05-.02-.08Z"/>
                  <path class="cls-16" d="m144.53,54.04c.06,0,.05.13.07.17-.06-.06-.01-.11-.07-.17Z"/>
                  <path class="cls-16" d="m140.25,55.82s.01.09.04.14c-.04-.02-.04-.1-.04-.14Z"/>
                  <path class="cls-16" d="m145.09,54.28s.02-.02.03-.02c0,.04.07.07.07.04.05.05.04.12.08.18-.01,0-.03,0-.05,0,0-.12-.08-.12-.13-.2Z"/>
                  <path class="cls-16" d="m144.69,54.56s.08.12.01.09c.03-.03-.03-.05-.01-.09Z"/>
                  <path class="cls-16" d="m145.33,54.43s.06.07.02.06l-.02-.06Z"/>
                  <path class="cls-16" d="m144.76,54.69s.05.09.07.11c-.06,0-.05-.06-.07-.11Z"/>
                  <path class="cls-16" d="m144.73,54.71c.05.06.04.18.02.24-.05-.04,0-.15-.02-.24Z"/>
                  <path class="cls-16" d="m145.25,54.52c.07-.01-.01.09.05.06,0,.02-.02.02-.04.03,0-.05,0-.06-.01-.09Z"/>
                  <path class="cls-16" d="m144.88,54.72s.02.04.04.06c-.04,0-.02,0-.05.02,0-.03.02-.05.02-.08Z"/>
                  <path class="cls-16" d="m144.99,54.76s.07.03.05.05c-.02,0-.04-.02-.05-.05Z"/>
                  <path class="cls-16" d="m144.96,54.91s.1.09.08.14c-.03-.01-.02-.04-.05,0,.02-.03,0-.08-.03-.13Z"/>
                  <path class="cls-16" d="m142.77,56.12s.02-.02.03-.03c.02.04,0,.04,0,.07-.04.01,0-.06-.03-.04Z"/>
                  <path class="cls-16" d="m145.08,55.26s.14.2.05.19c0-.01.02-.02.03-.03-.04-.04-.03-.13-.08-.16Z"/>
                  <path class="cls-16" d="m142.75,56.4s.06.02.05.05h-.03s-.02-.03-.01-.05Z"/>
                  <path class="cls-16" d="m142.96,56.46s.06.08.08.13c-.03-.01-.05-.07-.08-.13Z"/>
                  <path class="cls-16" d="m140.77,57.5s-.01.05,0,.09c-.02,0-.02-.08,0-.09Z"/>
                  <path class="cls-16" d="m142.9,56.76s.07,0,.09.06c-.03-.01-.07-.02-.09-.06Z"/>
                  <path class="cls-16" d="m145.43,55.88s.03.06.04.08c-.03,0-.04-.04-.04-.08Z"/>
                  <path class="cls-16" d="m143.05,56.9s.03.04.05.04c0,0,0,.01,0,.02,0,0,0,0,0,.02-.02,0-.05-.04-.04-.07Z"/>
                  <path class="cls-16" d="m140.95,58.02h.03s.11.23.02.08c-.02-.02-.04-.03-.06-.08Z"/>
                  <path class="cls-16" d="m140.58,58.22s.05.06.05.09c-.03,0-.03-.07-.05-.09Z"/>
                  <path class="cls-16" d="m143.3,57.39s.07.11.07.14c-.02-.01-.03-.11-.07-.14Z"/>
                  <path class="cls-16" d="m140.69,58.52s.07.04.04.07c-.03-.02-.06-.03-.04-.07Z"/>
                  <path class="cls-16" d="m140.69,58.64h.03s.01.05-.02.05c-.01-.02,0-.03,0-.05Z"/>
                  <path class="cls-16" d="m145.82,56.73s.05.01.06.06c-.03,0-.04-.04-.06-.06Z"/>
                  <path class="cls-16" d="m141.24,58.67c0-.06.03.04.06.02,0,.02,0,.04-.03.04-.03-.02.01-.06-.03-.06Z"/>
                  <path class="cls-16" d="m140.86,58.87s.01.05.05.06h-.03s0-.03-.02-.06Z"/>
                  <path class="cls-16" d="m141,58.88s.03.09.07.04c0,.07-.06.02-.07-.04Z"/>
                  <path class="cls-16" d="m140.89,59.08s.01.01.02.02c0,.01.01,0,.01,0,.02,0,.02.03.03.04-.04.02-.05-.02-.06-.06Z"/>
                  <path class="cls-16" d="m141.14,59.18l.04-.02s.01.06.02.09c-.04.01-.05-.05-.07-.07Z"/>
                  <path class="cls-16" d="m141.03,59.58s.06.07.09.1c-.04,0-.07-.04-.09-.1Z"/>
                  <path class="cls-16" d="m146.16,57.45s.04.11.06.16c-.03.02-.02-.07-.05-.04.03-.05,0-.06-.01-.12Z"/>
                  <path class="cls-16" d="m141.54,60.8s.03-.01.04-.02c-.03,0-.02.09,0,.04.04,0,0,.04.01.07-.03-.01-.05-.05-.06-.09Z"/>
                  <path class="cls-16" d="m141.82,61.46s.04.04.06.08c-.03-.03-.06-.03-.06-.08Z"/>
                  <path class="cls-16" d="m147.35,59.21s.02.05.05.05c0-.01,0-.03,0-.05.04,0,.02.07-.02.07,0-.05-.04-.04-.03-.07Z"/>
                  <path class="cls-16" d="m142.15,61.57s.02,0,.02,0c.03.02-.01.03.03.07-.03,0-.04-.03-.05-.06Z"/>
                  <path class="cls-16" d="m142.05,61.66s.06.1.05.12c-.03,0-.06-.1-.05-.12Z"/>
                  <path class="cls-16" d="m142.21,61.65s.03.08.06.13c-.03-.01-.04-.09-.07-.11.01,0,.02-.01.02-.02Z"/>
                  <path class="cls-16" d="m142.04,62.42s.01.08.06.11c-.06.02-.04-.07-.06-.11Z"/>
                  <path class="cls-16" d="m142.15,62.38s.02.04.05,0c.01.03-.02.03-.02.05-.04,0-.01-.02-.04-.06Z"/>
                  <path class="cls-16" d="m142,62.48s.02.06,0,.08c-.04-.02-.05-.06,0-.08Z"/>
                  <path class="cls-16" d="m142.24,62.59s.1.14.09.18c-.02,0-.04-.02-.06-.05.05.04,0-.12-.04-.07-.02-.03.04-.03.01-.06Z"/>
                  <path class="cls-16" d="m142.49,63.01h.03s-.03.02,0,.06c-.03,0-.03-.05-.03-.06Z"/>
                  <path class="cls-16" d="m142.48,63.27c.06-.01.03.07.08.1-.04,0-.05-.08-.08-.1Z"/>
                  <path class="cls-16" d="m142.26,63.4h.03s.05.07,0,.07l-.03-.07Z"/>
                  <path class="cls-16" d="m148.28,61.61s.05.05.08.09c-.02,0-.02.02-.01.03-.03-.02-.03-.09-.07-.13Z"/>
                  <path class="cls-16" d="m142.35,64.25s.04.07.06.09c-.04,0-.06-.06-.06-.09Z"/>
                  <path class="cls-16" d="m148.8,62.84s.04.02.06.05c-.04.03-.04-.01-.06-.05Z"/>
                  <path class="cls-16" d="m149.38,63.93s.03.03.03,0c.05.04.07.13.08.19-.04-.07-.06-.11-.11-.19Z"/>
                  <path class="cls-16" d="m149.25,64.01s.07.05.1.07c-.07.01-.08-.01-.1-.07Z"/>
                  <path class="cls-16" d="m149.41,64.17s0-.03,0-.04c.04,0,.05.06.09.06,0,.02-.02.02-.03,0-.03.03-.03.01-.06.04-.02-.04-.05-.07-.08-.09,0-.02.02-.04.04-.05.05.02,0,.07.04.08Z"/>
                  <path class="cls-16" d="m149.53,64.19s.04.05.06.07c.03.04.05-.04.02.05-.05-.04-.04-.07-.08-.12Z"/>
                  <path class="cls-16" d="m143.43,66.93c.07-.02.01.06.06.09-.04.03-.04-.06-.06-.09Z"/>
                  <path class="cls-16" d="m149.69,64.56s.06.08.08.12c-.03-.02-.06-.07-.08-.12Z"/>
                  <path class="cls-16" d="m149.71,64.84s.01.03.03.06c-.04.03-.07-.05-.03-.06Z"/>
                  <path class="cls-16" d="m149.59,65.03s.01.03.04.07c-.03.03-.05-.05-.04-.07Z"/>
                  <path class="cls-16" d="m143.63,67.91c0,.05.03.05.05.09-.03,0-.11-.06-.05-.09Z"/>
                  <path class="cls-16" d="m148.58,65.78h.03s.03.06.05.09c-.02-.04-.06-.05-.08-.09Z"/>
                  <path class="cls-16" d="m149.16,66.09s.03.01.04.04c-.01,0-.02.01-.02.02-.03,0-.03-.05-.03-.06Z"/>
                  <path class="cls-16" d="m149.23,66.1s.02.05.05.08c-.03.02-.05-.02-.06-.06.01,0,.02-.01.02-.02Z"/>
                  <path class="cls-16" d="m149.6,66.11s.04.05.09.09c0,0-.01.02-.01.03-.02.02-.02-.06-.05-.02,0-.04-.02-.04-.03-.1Z"/>
                  <path class="cls-16" d="m148.64,67.03c.06-.03.03.08.08.11.05-.02,0-.07-.02-.09.09-.02.01.14.1.1,0,.03,0,.06.03.1-.03.03-.04-.04-.05-.06-.02.06-.05-.02-.08.05,0-.07-.03-.12-.07-.2Z"/>
                  <path class="cls-16" d="m144.18,69.21c.06-.03.02.07.07.05,0,.03-.07-.01-.08.05-.06-.02.02-.07,0-.1Z"/>
                  <path class="cls-16" d="m144.49,69.49c.05.05.04-.06.09.04l-.05.02s-.04-.02-.04-.07Z"/>
                  <path class="cls-16" d="m144.43,69.59c.05.06.12.05.17.13.02,0,.01-.02.03-.03-.03-.02-.05-.06-.07-.08.03-.02.11,0,.08-.09.08.04-.03.13.02.21-.05.02-.06.05-.07.09-.04-.01-.08-.03-.11-.05-.02-.04-.01-.07.01-.09-.04-.02-.02-.03-.05-.08Z"/>
                  <path class="cls-16" d="m144.82,69.59c.04.08-.06.03-.03.11-.02-.02-.04-.02-.06-.05.05-.01.04-.05.08-.07Z"/>
                  <path class="cls-16" d="m149.62,67.93s.03,0,.06-.03c0,.02.02.02.03.04-.03-.01-.08.05-.09-.02Z"/>
                  <path class="cls-16" d="m150.27,67.77s.06.06,0,.07c-.02-.03.02-.04,0-.07Z"/>
                  <path class="cls-16" d="m150.65,68.03s.07.1.06.11c.02.03.05,0,.08,0,0,.04-.05.07-.07.1-.03-.01-.07-.13-.03-.12-.02-.04-.04-.07-.05-.11Z"/>
                  <path class="cls-16" d="m149.59,68.71s.04.08.03.1c-.03,0-.02-.07-.03-.1Z"/>
                  <path class="cls-16" d="m149.47,69.18s.06.05.09.09c-.06.02-.08-.04-.09-.09Z"/>
                  <path class="cls-16" d="m148.04,69.9h.03s.04.04.02.05c-.03.03-.03-.03-.05-.05Z"/>
                  <path class="cls-16" d="m147.99,70.01s.05.02.07.04c-.03.01-.02.06-.06.04-.02-.04.02-.04-.01-.08Z"/>
                  <path class="cls-16" d="m145.16,71.49c.03.05.06.06.05.12-.01,0-.03-.03-.02-.04-.02-.01-.03-.03-.06-.02-.01-.03,0-.05.02-.07Z"/>
                  <path class="cls-16" d="m145.12,71.54c-.02.1.07.2.02.3,0-.06-.08-.23-.02-.3Z"/>
                  <path class="cls-16" d="m149.07,70.02s.06.08.02.09c-.01-.03,0-.06-.02-.09Z"/>
                  <path class="cls-16" d="m145.47,71.82s.07,0,.09.03c-.03.01-.06.03-.08.02,0-.01,0-.03-.01-.05Z"/>
                  <path class="cls-16" d="m148.74,70.39c.1.09.12.3.05.39-.03-.1.02-.24-.05-.39Z"/>
                  <path class="cls-16" d="m148.55,71.04s.02.05.05.09c.02,0,.03-.02.02-.05.05.02,0,.08,0,.1-.03.02-.03-.02-.06,0-.02-.06,0-.1,0-.14Z"/>
                  <path class="cls-16" d="m146.38,72.35c.05.04.04.14.05.19-.05-.04,0-.13-.05-.19Z"/>
                  <path class="cls-16" d="m147.32,73.9s.03,0,.05,0c0,.04,0,.09-.05.08-.02-.04,0-.06,0-.09Z"/>
                  <path class="cls-16" d="m138.05,41.79s0-.05,0-.07c.02,0,.03,0,.03-.02.01.02.04.02.04.05-.05,0-.09.12-.11.02.01,0,.03.01.05,0Z"/>
                  <path class="cls-16" d="m137.52,44.29c.04.05.06.18.04.22,0-.05-.02-.14-.04-.22Z"/>
                  <path class="cls-16" d="m137.9,44.92s.02-.05,0-.08c.03,0,.08,0,.05-.06.03.03.05.08.08.1-.05,0-.07.07-.1,0-.03.02,0,.04,0,.07,0,.05-.02-.05-.04-.03Z"/>
                  <path class="cls-16" d="m137.61,45.72c.06-.03.11.08.07.11-.01-.12-.02-.05-.07-.11Z"/>
                  <path class="cls-16" d="m138.08,45.77s-.05-.08-.04-.1c.02,0,.02.02.04.02-.02.01-.03.03,0,.08Z"/>
                  <path class="cls-16" d="m138.09,47.52c.02.12.05.27.1.35-.07.07.11.25,0,.31.01.05.07,0,.08.06,0,.05-.02.08-.01.13.05.02.06.1.02.13,0-.02-.02,0-.03-.02.02-.06-.04-.18-.08-.23.03.09.05.22.1.29,0-.02-.01-.03,0-.04.01.04.04.03.05.07-.02.02-.05-.02-.03.02.02.01.04.01.05.04,0,.09.02.23.08.3-.05.15.15.35.02.42.06.09.1.19.09.31,0,.02.04,0,.05.03-.03.12.12.24.14.37-.05,0-.04-.13-.07-.07.11.16.07.34.13.48-.03,0-.03-.05-.06-.03.02.04.03.13.06.17-.01,0-.01.03-.04.03.06.08.04.18.06.29.03,0,.03-.05.04-.02l.03.07s-.05,0-.04.03c.06.1.08.24.16.32-.05-.02,0,.04,0,.04,0,0-.02,0-.02,0,.02.21.27.55.24.66.02-.03.09.03.07.09-.03.02-.03-.02-.05,0,.13.29.23.63.37.98,0-.01,0-.02,0-.03.05.17.05.25.12.38.03.13.13.36.15.42,0-.01,0-.08.02-.05-.02.16.03.27.1.46-.05.03,0,.17.06.15,0-.04-.03-.06-.05-.07,0-.02-.03-.07.02-.07.02.06.11.25.03.17.11.18.06.26.15.42-.09.07.08.27.02.28.04.03.07.11.04.17-.07-.1-.08-.18-.13-.23.02.04.03.08.01.09.06.04.07.1.06.16.05-.02.03.05.02.06.04,0,0-.04.03-.04.05.07.07.18.07.27-.01-.02-.02-.04-.04-.04.04.06.02.16.08.15,0-.03-.05-.08-.02-.09.05.08.07.15.06.22,0-.02-.03-.09-.03-.04.01.06.04.07.07.1-.03.15.03.23.06.37.05,0,.06.08.09.13-.02,0-.02.02-.03.03-.03.01-.03-.04-.06-.02.02.05.08.16.06.25.03.02.12.16.06.2-.04-.08-.09-.15-.08-.21-.04,0-.08-.26-.14-.22.01-.02.03-.03.01-.06-.02-.01-.05-.04-.1-.06.08-.02-.07-.06,0-.1,0-.04-.04-.01-.05-.04,0-.04.02-.06,0-.1-.19-.25-.22-.6-.36-.87.01.07.05.14.03.19-.01-.02,0-.07-.03-.07,0,.03.02.06,0,.08-.04-.06,0-.13-.03-.14.02.07-.04.01-.04.02,0,.03.04.06,0,.11.02,0,.02-.02.04-.03,0,.03-.02.04-.01.06.18.13.18.43.32.61-.05.03,0,.06.02.05,0,.06-.01.08-.03.11.09.02.07.2.15.25-.03.1.11.24.13.33,0-.01,0-.02.02-.02.02.04.04.06.03.1-.04-.02,0-.03-.01-.07-.04.12.08.24.1.37.02.01.04.04.06.06-.02.03.02.1.04.16.03,0,.06,0,.08.07.05-.09-.02-.2-.06-.27.06.03.04-.04.08,0-.05.06.08.24.08.29,0-.03-.02-.05.01-.06.02.04.07.09.05.13-.02-.06-.06-.03-.03-.09-.02.04-.04.08-.03.13.04,0,0-.05.04-.05,0,.01.01.01.02.02-.02.03.04.14-.01.12.05.08.1.22.05.28.09.14.16.24.2.4-.02,0-.04.01-.04.03.03,0,.04.03.07.04-.04.02.01.03,0,.05,0-.02-.03,0-.04-.01.01.03.02.05.01.07.04,0,0-.05.04-.05.01.03.03.03.05.05-.02.06.08.11.07.21-.02,0-.03,0-.05,0,.02.04.07.02.09.06-.02,0-.03-.01-.04-.01.1.03.08.21.09.25,0-.01,0-.04.02-.02.06.21.15.36.23.55-.01,0-.02-.01-.02,0,.04.08.34.45.18.43,0,.01,0,.02,0,.03,0-.01-.01-.04-.03-.03,0,.04.06.1.09.15,0,.02-.02.03-.03.05.11.06.02.17.09.25-.03.02-.03-.04-.06-.02.14.09.15.33.25.49-.03.02-.02-.07-.05-.04.08.11.14.37.24.51-.05-.02,0,.05-.02.07-.12-.08-.1-.22-.22-.34-.01.01-.06,0-.05.03.11,0,.12.17.2.26-.01.01,0,.04-.03.04.1.07.16.26.19.42.06.02.04.12.1.17-.03-.02-.07,0-.09-.03.02-.03.06.02.04-.03-.08.02-.1-.16-.14-.18.01.03-.03,0-.04.02.05.04.04.1.09.13-.02.04-.01.16.03.07-.04.07.05.14.01.21-.05-.14-.12-.16-.16-.26-.01.07.02.1.04.15-.01,0-.03,0-.04,0,.07.18.13.29.11.45.01,0,.03-.01.04,0-.01.1.07.23.11.31,0-.02,0-.03.01-.03.02.05.06.11.02.14.02.03.05,0,.06.03,0,.05-.04.08-.04.13.03-.06.13.14.04.11.02.08.07.11.04.18.03.01.06.02.08.05.1-.05.12-.03.2-.07-.05-.06-.08-.1-.02-.15-.03,0-.07-.1-.06-.13-.1-.05-.06-.21-.13-.33.05-.01,0-.05.03-.08.02.04.05.08.07.11-.04,0-.04.02-.05.05.04,0,.06.07.04.1.05,0,0-.06.02-.08.04.04.07.09.1.13-.05.05,0,.14.04.18-.01.03-.02.04-.05.02.09.09.14.24.13.33.09,0,.03.14.07.17,0-.02,0-.04.02-.05,0,.04.03.03.04.07-.04.01-.02.06-.02.1.02,0,.02-.05.04-.02.03.11.04.15.1.21-.03.03-.06.03-.03.1.02,0,.03-.01.05,0,0-.04-.05-.04-.03-.06.05.06,0,.14.1.17,0,.02.01.05-.03.05,0-.03.04-.03.01-.06-.04.04-.07-.03-.09-.06.03.08-.07.18.02.18.03.13.02.23.03.37-.02,0-.03-.01-.04-.01,0,.07.1.08.04.11-.03-.06-.05-.13-.09-.15,0,.02.01.04,0,.06,0-.06-.05,0-.07-.1-.04.03-.05-.02-.08,0,0,.04.02.09,0,.12-.07-.08-.09-.14-.07-.22.01.02.01.07.04.06-.03-.06.06.03.02-.04-.06-.02-.08-.06-.11-.09.05,0-.05-.04,0-.09-.02-.02-.05,0-.06-.03.03-.12-.06-.3-.09-.41,0,.02.01.06-.02.07,0-.01-.01-.01-.02-.02.03-.06-.06-.12,0-.16-.03-.06-.04-.06-.03-.1-.03,0-.05.03-.07-.04.02,0,.03.02.06.02-.04-.1-.15-.25-.12-.34-.23-.09-.11-.43-.28-.51.01,0,0-.03.01-.03,0,.03.02.04.05.02-.03-.06-.02-.06-.04-.15-.05.04,0,.13-.03.19-.03-.02-.04-.09-.07-.13-.02.03.02.14.03.17,0,0,.04,0,.04.01,0,.02-.02.04-.01.06.02.09.13.18.08.25-.01-.05-.04-.06-.06-.06.11.19.13.33.24.56-.01,0-.02,0-.03,0,.06.07.05.17.14.24-.02,0-.03-.01-.04-.01.03.05.06.08.1.12-.04-.01-.02.06-.04.08.02-.01.04,0,.05.02,0,.03-.03,0-.03.03.04.06.07.13.12.16-.02,0-.06-.05-.06,0,.09.05.1.29.12.37,0-.04.05.02.03.04.03,0,.01-.06.04-.03-.03.03.03.1.01.12-.03.04-.02-.04-.05-.02,0,.06,0,.12.02.19-.09-.09-.11-.35-.25-.48-.02.02.03.05.04.07-.07.04.01.04,0,.09-.1,0-.05-.13-.1-.17,0,.02,0,.03-.01.03,0-.01-.01-.01-.02-.02-.03-.08-.04-.23-.1-.21-.02-.06.03-.14-.01-.18,0,.07,0,.14-.03.19-.02,0-.04-.08-.04-.04.07.07.08.11.12.19.01-.02-.03-.06.01-.06.01.04.05.09.02.11-.03-.03-.05.04-.02.04,0-.04.04,0,.05,0-.01,0,0,.03.01.05-.02,0-.03.02-.04.03.01.04.04.05.06.08,0,.18.21.35.24.51,0,0,0-.01-.02,0,.06,0,.05.1.08.08,0,.02,0,.09.03.09.02-.02-.03-.06,0-.07.01,0,.02,0,.03.02-.02.04,0,.04.03.07,0,.02-.01.03-.02.05.05.07.06.1.1.17-.01,0-.03,0-.04,0,.02.03.04.06.03.09-.03-.03-.06-.05-.09-.06.04.05.07.14.12.13,0-.02-.05-.04-.03-.06.03.03.05.06.08.08-.02,0-.02.02,0,.05-.04-.02-.05.04-.06.07.04,0,.03-.04.06-.06.02.06.02,0,.04.03.03.06,0,.09,0,.14-.04,0-.06-.05-.1-.06.02.07.07.06.1.12-.03.01-.04,0-.04.03.1.05.14.21.19.3.02-.03-.03-.03-.01-.05.02,0,.02.02.04.03-.02.02,0,.06-.05.06.07.05.07.14.12.22-.01.02-.07.06-.02.08,0-.02,0-.03.01-.03.03.05.05.08.08.17-.07.04-.02.14-.04.2.03.02.02-.03.04,0,0,.15.04.22.08.4-.05-.07.02.08-.03.04.05.04.1.13.1.17-.02-.02.04-.04.04-.02,0,.03-.04.02,0,.06-.04,0-.06.03-.05.06.01.01.04-.02.05,0,0,.04.01.05.01.08-.01-.01-.03-.02-.05-.02.02.04-.01.03-.03.03,0,.04.01.08,0,.12.05-.02.06-.06.12-.05-.01-.04.03-.05.05-.08.08.18.14.43.13.62-.04,0-.08,0-.09.05.23-.01.1.32.25.44.07,0,.06-.04.12-.07.03.1.1.1.15.12.05.06.05.1.1.17-.01,0-.02.01-.01.03.02.03,0-.04.05-.04.04.08.15.06.16.14.05-.05.09-.04.12-.04-.01,0,0,.04.02.04,0-.02.02,0,.02.02-.03-.02-.05.1,0,.09,0-.05-.01-.14.06-.13-.02-.04-.02-.07,0-.09.02,0,.04.02.06.03.02-.02.02-.05.03-.07.06.04.15.16.1.26.03.04.15.06.09.13-.01-.02-.05-.05-.08-.05.02.05.11.08.07.14-.11-.07-.22-.21-.26-.36-.02.11.1.26.19.36,0,.06.06.17.12.22,0,.03-.02.05-.02.08.04.09.23.25.11.3,0,.05.04,0,.05.02,0,.03,0,.05-.04.06-.15-.08-.27-.22-.41-.31-.01.05,0,.1-.06.13.11.27.41.26.52.53.08-.08.17.01.24-.09,0,.02.02.04.03.04.08-.05.13-.1.21-.06.02,0,0-.04,0-.05.02.04.06.01.08.02.01-.01-.02-.05,0-.06.21-.15.3-.28.5-.49,0-.12.09-.2.1-.32.06.01.06-.1.13-.08-.02-.03-.02-.05,0-.06,0,.03.02.04.04.04-.03-.05.04-.04.04-.05.07-.07.09-.2.17-.26.09.11.01.3.12.38-.01.06.01.13-.04.16-.02-.04-.04-.07-.07-.05,0,.1,0,.2.04.33-.09.06.01.2.02.31-.02,0-.03-.03-.05,0,.07.12.12.29.14.44-.1.1.04.36-.08.42.01.06.03.13,0,.17-.06,0-.11-.02-.18.02-.04.06,0,.16-.01.22.04-.01.11.04.1.1-.02,0-.04-.03-.06-.03-.04.08-.1.09-.15.15.02.04.06.09.02.12-.02-.02,0-.06-.03-.06.02.04-.02.05-.01.09.07-.03.02.05.03.07.04.02.05-.03.09-.01.07.15-.08.34.07.4,0-.02-.01-.06-.03-.09.05-.12.07-.25.09-.39.02,0,.03,0,.05,0-.02-.04-.06-.05-.08-.09.01-.03.03-.05,0-.1.07.03.03-.06.07-.07.03.03.04.03.07,0,.01.02.04,0,.04.04.02.12.04.26.1.4.05-.08,0-.21.01-.31.1-.02.11-.08.15-.18,0-.04-.04,0-.04-.04.09-.08.12-.23.26-.26.06.15.18.1.24.25.05-.02.08.02.12.02.02-.01.02-.04.03-.05.03,0,.05.02.08.04.16-.02.05-.17.16-.21.07.09.13.25.21.31-.01-.05.05-.1.09-.07,0-.08.08-.13.08-.21-.11-.1-.22-.04-.33-.15.13-.15-.04-.5-.06-.62,0,.02,0,.03-.02.04-.03-.05-.03-.09-.03-.13-.04.03-.04-.05-.07-.05,0,.02,0,.05-.03.05-.08-.19-.19-.27-.28-.45-.01,0-.03.02-.04,0-.1-.26-.23-.41-.35-.63-.01,0-.03.02-.04,0,0-.06-.03-.12-.04-.15,0,.01,0,.02-.02.02-.06-.19-.23-.41-.09-.52,0,.02,0,.03.03.03,0-.04,0-.12.07-.1-.04-.06,0-.12.05-.11.01-.01.01-.03.04-.03,0-.04,0-.03-.03-.04.01,0,.02-.02.03-.03,0,.02.02.04.04.03-.04-.08.04-.04.05-.08-.03-.04-.08,0-.09-.07.04.02.04-.02.07-.03,0,0,0,.06.02.05-.01-.03.03-.04.04-.06,0-.02-.02-.04-.03-.04.06.03-.03-.06.04-.06,0,.09.05.15.11.22-.06.06.03.19-.03.26-.01-.01-.02-.02-.04-.03,0,.03-.02.05-.03.07.07.13-.09.22-.04.36.06-.02.09.04.09.1.05-.02.06.02.07.07.09-.07.16.06.22-.02,0,.02,0,.05.03.04.01-.02-.03-.06.01-.06.02,0,.02.02.03.04.11-.06.04-.19.09-.27.14.16.03.32.13.46l-.04.02c.03.16.2.08.23.21.09.03.17.1.25.19,0-.02.06.06.1.06.09.2.2-.09.28-.08.02-.06.03-.12.08-.16.02.04.03.03.04,0l.02.05c.06-.03.09,0,.1-.06-.08-.1-.08-.23-.02-.32,0,.02.03,0,.04.03.05-.01,0-.07.04-.09.02.09-.05.13-.04.22.03-.02.03,0,.06-.01,0-.02-.02-.02-.03-.04.03.01.02-.04.05-.05-.02-.05,0-.05-.01-.11-.02,0-.07-.05-.05-.08.03.08.02-.03.06.02-.03-.11-.01-.15-.04-.21.03.03.07.05.12.03-.02-.03.01-.03.02-.05-.05-.16.03-.27-.03-.46.08.02.09.15.16.26.04,0,.07.03.13,0-.07-.13-.05-.33-.18-.44.03-.11-.15-.25-.19-.4-.01-.06-.08-.19-.16-.19-.07-.17-.18-.34-.28-.55.02-.03.06.02.04-.03-.08-.04-.11-.19-.17-.24.08.21.13.4.22.6-.01,0,0,.03-.02.04-.03-.14-.27-.24-.17-.25-.02,0,0-.08-.03-.12-.11.01-.05-.13-.1-.2-.03.02-.03-.04-.06-.02-.03.02,0,.06-.04.08-.11-.04-.09-.14-.15-.25.01-.01.01-.02.03-.01-.02-.03-.08-.1-.03-.12.05.05,0,.02.02.06.05,0,.06-.03.06-.07.04.03.09,0,.12.05,0-.02-.01-.04,0-.06.03,0,.04.04.07.03-.03-.04-.05-.1-.05-.17-.06.03-.07-.06-.07-.08.04,0,.06.03.06.07.04-.04.04.04.07.01,0-.05-.19-.13-.12-.23.03.12.1.11.15.16.16-.02.05-.15.07-.24-.06-.1-.06-.28-.13-.34,0,.04.06.12,0,.16-.06,0,0-.08-.06-.07,0,.06.04.07,0,.11,0-.02-.02,0-.03-.01,0-.05,0-.12.03-.13-.03.02.01-.05-.03-.03,0,.02-.03.03-.04.05.03.06.03.1,0,.13-.09-.06-.06-.16-.16-.2.02-.02,0-.11-.03-.12.01.02,0,.03-.02.04-.03-.19-.08-.29-.13-.46.05.03.04.06.08.11,0-.03,0-.07.02-.1.04.03.07.06.11.04.04.06.09.09.1.17.03-.05-.01-.09-.04-.12.01,0,0-.02.02-.02.08.03.12-.01.19-.07.16.22.12.48.29.7.03.09,0,.21.08.33-.03,0-.01.03-.05.04.07.09.08.21.08.29.08-.02.02.11.07.14-.01.01-.01.02-.03.01.11.06,0,.18.08.28-.01-.05.08.02.03-.07-.03,0-.03.05-.04.02.07-.02,0-.12.05-.18-.09-.04-.06-.13-.1-.23.02-.02.07-.07.03-.08.03.05-.04,0-.06.01-.03-.07-.02-.15-.04-.21.06,0,.04,0,.05.06.04-.02.02-.03.06-.03-.01-.06-.04-.05-.07-.07.08-.01-.03-.15-.01-.21-.02.01-.04,0-.05-.02.02,0,.02,0,.03-.01-.1-.23-.23-.42-.29-.64-.07-.05-.18-.25-.07-.28-.05-.28-.21-.51-.29-.8-.09-.07-.13-.19-.14-.28,0,.01-.04-.01-.03-.04.02-.11.1.03.13.1-.03-.06.07-.03.1-.03.08.12.13.23.21.34,0,.03-.02.05,0,.09.06.03.03.12.06.17.02.03.08.04.09.07.02.04-.01.09,0,.13,0,.02.04.05.05.06,0,0-.02,0-.03,0,.02.04.05.04.07.07,0,0-.03.02-.03.03,0,.05.08.08.1.13-.02.05-.07-.02-.05.03.04-.01.05.04.08.05-.04.06.06.13,0,.14.05.07.14.21.17.28,0-.01.01-.02.03-.03.04.09.05.12.09.16-.01,0-.02,0-.03,0,.06.13.12.25.15.34.02,0,.04,0,.06.02-.01.04,0,.04.04.06,0,.03-.06.04-.02.07.01-.05.06.03.07.05-.02,0,0,.04-.03.04-.02.01-.03-.03-.05-.02.04.08.07.06.12.05,0-.04-.02-.08-.02-.12-.07,0-.09-.14-.08-.18,0,.02.02,0,.03.01-.01,0-.03.01-.03.03.1.04.09.13.12.23.03-.05.04,0,.08,0-.04-.09-.09-.19-.12-.28,0,.05-.05-.02-.06-.03,0-.03,0-.11-.02-.12,0,.01-.01.02-.03.03.03-.07-.03-.14-.04-.21.03.08.04.03.07.08,0-.06,0-.09-.06-.12h.03c-.08-.11-.09-.32-.19-.45.01,0,.03-.01.03-.03-.09-.11-.1-.32-.17-.37.04-.02.08.03.07.07.07-.04-.02-.08-.04-.11,0,0,.02-.01.02,0-.03-.04-.09-.04-.11-.09-.03-.06.01-.1-.04-.18-.04.05-.04-.09-.08-.11.05.13-.11-.12-.04-.15.01.04.04.04.06.06-.03-.06,0-.04.03-.07-.03-.05,0-.07-.02-.11-.03.02,0,.07-.02.09,0-.02-.02-.02-.03-.03,0-.03.05-.07,0-.08.02,0,.03-.02.04-.03.11.18.15.25.19.44.08.09.06.24.17.33-.02,0,0,.04-.02.05.09.14.05.34.19.43-.01-.03-.04-.08-.02-.09.01.04.12.19.03.19.02.03.04.05.05.09.05,0-.03-.06,0-.07.03.05.1.16.06.23.1.22.18.38.19.55.06-.02-.01.03,0,.06.03.02.05-.03.06-.01,0,.01.01.01.02.02.03.04,0,.05,0,.09.04,0,.05.07.07.11-.08.04.01.11.03.16.07.2.15.48.22.63-.02-.14-.07-.16-.06-.29-.1-.12-.12-.33-.2-.48.03,0,.02-.03.04-.05.02,0,.04.04.06.05,0-.06-.12-.16-.09-.26-.04,0-.03-.04-.04-.07-.09,0-.16-.19-.18-.26.02,0,.05.11.05.06-.02-.04-.03-.07,0-.09.02.02.02.08.04.07,0-.04-.05-.11.02-.12-.01-.05-.03.03-.06-.02,0,0,0-.02,0-.03.04-.04.06,0,.09,0,0-.07-.04-.05-.06-.05.01-.05.05.01.06-.03,0-.06-.02-.12-.04-.14,0,.01,0,.02-.01.03,0-.02-.05-.04-.03-.06,0,.01.01.03.03.03,0-.08-.07-.18-.04-.24-.03-.02-.02.04-.05,0-.04-.06.01-.08,0-.13-.02,0-.05.04-.06.01-.01-.04-.07-.11-.02-.12.01,0,.05.09.05.05-.05-.06-.05-.12-.1-.13,0-.05.06-.02.05-.06-.01-.01-.04.02-.05,0,.01-.02,0-.17-.02-.09-.01-.05-.02-.06-.05-.14-.02,0-.04.02-.05,0-.05-.22-.17-.37-.22-.56-.02,0-.02.03-.03.01-.01-.07-.02-.14-.08-.16.01,0,.03,0,.04,0-.04-.04-.04-.11-.05-.17.06.01.05.09.12.08-.04-.08-.14-.08-.17-.18-.03,0-.03.05-.04.02,0-.04-.01-.05-.04-.07.04-.01.02-.05.03-.08-.08-.08-.05-.2-.15-.26-.05-.2-.18-.48-.29-.61.02-.02-.02-.07.03-.08-.07-.05-.02-.12-.09-.15,0,.02,0,.03-.01.03-.02-.02-.02-.03-.05-.08.02,0,.04-.01.02-.04-.08,0-.06-.13-.07-.2-.02,0-.01.03-.02.04-.03-.04-.07-.13-.02-.16.02.03-.03.06.01.06,0-.02.02-.02.02-.04-.12-.1-.17-.29-.2-.38,0-.03-.05-.03-.06-.05-.01-.04.02-.09-.02-.15,0,.01,0-.02-.02-.05,0-.01-.08-.13-.05-.18.02-.02.05.09.06.05-.02-.04-.04-.05-.04-.1-.05.03-.07-.04-.06-.08.03.03.06.08.1.09-.05-.07-.15-.19-.05-.22-.01,0-.02-.02-.01-.02.05.04.06,0,.1.04-.16-.12-.06-.31-.25-.39.02-.01.03,0,.05,0-.01-.04-.05-.02-.06-.08.02,0,.02-.02.04-.03-.02-.03-.03-.06-.06-.08.03.05.01.08-.02.11-.02-.09-.08-.11-.06-.2,0,.05.05.02.06.08.02-.02.07-.03.04-.08-.02,0-.04.02-.05,0,.05-.01,0-.18-.03-.24-.04,0-.02.04-.05.05,0-.02,0-.05-.02-.08.04.01.03,0,.07-.01,0-.04-.04,0-.05-.03.04-.02,0-.07.02-.09-.06-.04-.03-.07,0-.07-.05-.03-.05-.06-.09-.07.01-.03.01,0,.04-.02-.03-.05-.03-.04-.02-.09-.02-.01-.04-.02-.06-.03.01-.03-.01-.05.03-.03-.03-.14-.17-.13-.17-.21-.08.03-.07-.04-.07-.1-.03,0-.03.05-.04.02,0-.04,0-.07-.03-.11.03-.02.04,0,.06,0-.03-.02-.02-.07-.04-.07,0,.02,0,.04-.02.05-.01-.03-.03-.03-.04-.07h.03c-.1-.09-.11-.26-.17-.28-.03-.03.02-.04.01-.06-.01,0-.02.02-.03.03-.04-.02-.01-.2-.04-.1-.02-.06.02-.09-.02-.12,0,.03-.02.04-.03.01.02.01.04,0,.02-.04-.02,0-.04-.03-.06-.05.04.02,0-.06-.02-.08,0,.01,0,.02,0,.03-.01-.02-.06-.08-.04-.11.02,0,.02.05.04.04,0-.05-.04-.05-.06-.09.06-.05-.1-.1-.02-.15,0,.11.16.12.1.21.06-.02.04.03.08.08.03-.03.03,0,.05,0-.01-.06-.03-.03-.04-.04,0-.02-.02-.05.02-.05,0,.01.01.03.03.03-.03-.05-.03-.08,0-.1-.05-.05-.04-.11-.11-.24-.03-.01-.03.03-.05,0-.02-.18-.17-.28-.2-.41-.04-.01-.05.05-.08,0,0-.04.03-.04.06-.04-.09-.09-.05-.19-.11-.31-.11-.01-.09-.21-.19-.26.04.05.07.12.04.17-.06-.03-.13-.17-.05-.18-.06-.05,0-.14-.08-.14.06-.04,0-.18-.05-.25,0,.01,0-.02,0-.05-.07-.16-.14-.36-.25-.49.02,0,.04-.01.02-.04-.03,0-.06.02-.07-.01.02-.02.05.02.03-.03-.02,0-.05-.02-.04-.06-.03-.02-.02.03-.04,0,0-.02,0-.04,0-.06.02,0,.02.03.04.01-.04-.03-.04-.05-.08-.1-.04.01.02.04-.02.07-.24-.2-.33-.53-.46-.8.02-.02.05.07.05.02-.08-.1-.12-.12-.1-.22-.02-.04-.06-.03-.08-.05,0-.05-.12-.15-.07-.23-.04,0-.02-.06-.07-.07.04-.02.02-.03,0-.04.06-.03-.01-.07.02-.11-.04,0-.05-.04-.05-.09-.03-.02-.02.03-.04,0,0-.07-.09-.14-.03-.2-.06-.01-.11-.18-.08-.23-.06.02-.11-.13-.08-.14-.05-.03-.09-.07-.13-.11.02,0,.03,0,.05,0-.08-.23-.21-.38-.27-.68-.02,0-.03,0-.04-.01.05-.11-.17-.25-.05-.3-.02-.06-.04,0-.07-.03-.04-.14-.12-.23-.1-.32-.06-.06-.06-.1-.12-.19.02-.01.03.03.05.02-.05-.11-.1-.16-.08-.27-.05.02-.06-.05-.1-.04.02.07.05.15,0,.21-.04-.04.01-.09-.03-.1-.03.15.08.18.13.33-.01,0-.03,0-.04,0,0,.05.05.1.08.14.02.26.25.49.25.74.08.05.12.18.18.29-.06,0-.07-.13-.13-.13.02.06.15.29.06.28.03-.01.06-.03.07,0,.02.03-.01.03,0,.06.07,0,.11.21.14.28,0-.01,0-.02.02-.02-.01.03.08.09.06.14,0-.03-.02-.04-.04-.04-.02.07.06.02.07.08-.02.01-.03-.03-.05-.02.05.1.1.29.16.37.04,0,0-.04.03-.04,0,.02.04.06.01.06-.02,0-.03-.01-.04-.01.07.19.16.36.24.59-.04.05.08.17.1.24.02.09.1.22.16.34.09.19.14.4.26.54-.02,0-.04.01-.02.04.02,0,.04-.02.05,0,.02.06.01.11-.01.15.03,0,.05.01.07.03,0-.02-.05-.05-.03-.07.01.02.04,0,.05.05-.05.08-.01.03,0,.11,0-.02-.02-.03-.04-.03.06.04.03.15.09.19,0-.07-.03-.09-.02-.15.03.06.03.08.08.12-.02.02-.05-.02-.04.02.07.04-.01.18.07.24-.02-.02-.01-.07,0-.04.01.03,0,.04,0,.07.09.02.06.13.12.18,0,.04-.02.04-.03.05.04,0,.1.11.11.14-.03.02-.03-.05-.06-.05.06.12.11.14.15.19.01.03-.03.03-.02.05.04-.04.09.05.12.11-.04.01-.06.02-.07.01,0-.02-.02-.06-.04-.07,0,.04-.05-.02-.08,0,0-.03,0-.03.03-.03-.06-.08-.08-.2-.14-.28.01,0,.03.01.03-.01-.03.03-.02-.04-.05-.02,0,.04-.06,0-.07-.03.02,0,.03,0,.03-.03-.08,0-.03-.09-.08-.11,0-.03.04,0,.02-.04l-.04.02s-.08-.17-.09-.2c0-.03-.04.06-.05,0,.05-.01-.07-.13,0-.17-.08-.1-.05-.16-.14-.24.02-.01,0-.09-.02-.09.02.02,0,.06-.01.03-.02-.2-.15-.42-.2-.62,0,.01,0,.02-.01.03l-.02-.05s.03,0,.04,0c-.04-.03,0-.12-.03-.14,0,.04-.02-.01,0-.02-.03,0-.03,0-.06-.02,0,.02.02.04,0,.05-.09-.09-.1-.26-.14-.37-.03-.03-.02.06-.05.02.02-.05-.09-.07-.04-.11.03,0,.07.12.09.05-.05-.05-.14-.06-.12-.15-.1.05-.12-.13-.19-.16,0-.04,0-.13-.04-.17.02.09.03.18-.02.23,0-.01-.01-.04-.03-.03,0,.08.06.02.08.1.04-.01-.01-.08.02-.09.04.09.09.18.09.26,0-.04-.04,0-.05-.04,0-.01,0-.08-.02-.08-.06,0-.16-.11-.14-.21-.08-.01-.04-.11-.05-.12,0,.04-.04,0-.05,0,.05-.02-.01-.14-.04-.06-.02-.05,0-.07.02-.08-.04-.03-.08-.06-.12-.08.03,0,.04,0,.04-.03-.03-.02-.02,0-.04-.01,0-.01,0-.02.02-.02-.09-.01-.02-.16-.07-.17,0,.02,0,.03-.01.03-.02-.06-.04-.12-.01-.15-.06,0,0-.05-.02-.09-.08.01-.17-.19-.1-.2-.04-.03-.09-.04-.07-.11-.06,0,.02.09,0,.11-.04-.02-.05-.13-.09-.16.02-.04.03-.07.07-.08-.02-.03-.05-.02-.08-.04,0,.01.02.03,0,.04-.06-.03-.08-.13-.01-.15,0,.03.06.02.05,0-.05,0-.07-.08-.12-.09,0,.06.05.02.05.08-.03.03-.05,0-.05.05-.02-.08-.04-.11-.07-.15.02,0,.03.03.05,0,0-.05-.05,0-.06-.03,0-.03,0-.06.02-.08-.1-.08-.1-.16-.16-.3-.05,0,.03.07,0,.09-.11-.11-.15-.26-.26-.37.02,0,.03.01.04.01-.08-.05-.04-.13-.1-.13-.02-.2-.21-.57-.21-.76-.04-.09-.15-.19-.1-.28-.06-.03-.06-.17-.11-.19,0,.02-.02,0-.03,0-.03-.21-.17-.27-.22-.5-.05.03.08.15-.01.16.04.12.02.17.06.28,0-.01-.01-.04-.02-.03,0,.01,0,.02,0,.03-.02-.06-.04-.09-.07-.1.04.08.1.19.09.29-.06,0-.06-.18-.1-.19,0,.08,0,.16.04.25-.05-.03.01.04-.03.04-.05-.04-.03-.08-.06-.12,0,.01-.01.05-.03.02,0-.04-.01-.04-.03-.09.01,0,.05.04.05,0-.05-.04-.13-.11-.09-.16-.02,0-.02.02-.04.03-.01-.03-.02-.06-.04-.07h.03c-.05-.08-.08-.11-.13-.13,0-.04-.04-.2-.09-.2,0,.07.1.14.04.21.07.16.12.37.18.46.04.06.04.17.07.22.03.06.09.13.05.19,0-.05-.05-.08-.04-.13-.03-.02-.02.03-.04,0-.16-.63-.63-1.2-.84-1.88-.1.04-.13-.16-.12-.23-.07,0-.04-.11-.09-.11-.01.04.05.12,0,.14-.02,0-.06.04-.07.01-.08-.14-.02-.26-.09-.31.03.08-.03.17.02.28,0-.02-.09.02-.05.02.07-.04.03.05.09.07.01.04-.01.07-.04.09-.06-.02-.09-.12-.14-.15-.04.02-.05.07-.01.1-.02.22.2.5.26.71,0,.02-.02.03,0,.06.05.1.18.26.14.39.05.07.06.14.08.22.03,0,.05.01.06.06-.03-.01-.01,0-.04.02-.02-.03-.03-.06-.05-.08,0,.02.02.06-.02.07-.03-.08-.09-.09-.12-.16,0,.03-.02.03,0,.07.08.03.12.16.22.15,0,.03-.04.07-.07.05-.02.12.09.24.08.35-.04.02-.06-.03-.09-.04.03.09-.03,0-.06,0,.06.05.1.17.15.25.11.66.52,1.32.68,1.93.1.16.17.34.23.46.08.05.16.19.15.26.04.03.12.21.14.27-.03-.08-.01,0-.03.03-.04-.1-.06-.18-.12-.18,0-.02,0-.03,0-.05,0,0,0,.02.02.02-.02-.09-.06.04-.09-.02.05-.03-.04-.08.03-.1.02.04,0,.06.03.06-.04-.11-.09-.21-.13-.26-.02.06.06.12.07.18,0,.02-.03.03-.04.05,0,.07.06.12.02.18-.1-.15-.02-.15-.07-.26,0,0,0,.02-.01,0-.04-.07-.04-.12-.08-.18,0-.03.04-.14-.04-.11.03.04.05.1.02.13.02.11.13.14.11.22-.02-.05-.06-.08-.1-.09.01.06.06.02.07.08-.02,0-.03-.01-.04-.01.04.05.1.15.06.19-.06-.09-.1-.18-.15-.25.02,0,.04-.02.02-.02,0,0-.01,0-.02,0,0,.13.11.14.06.24-.02-.06-.07-.09-.06-.15-.07,0-.12-.11-.14-.19,0,.2.17.28.24.42-.03.03-.07-.07-.09,0,.13.14.12.41.19.56-.1-.13-.16-.25-.19-.38-.01-.04-.02.04-.04,0,0-.11-.12-.3-.2-.44.02,0,.02,0,.03-.01-.11-.04-.1-.21-.16-.28,0,.01,0,.02,0,.03-.05-.19-.14-.44-.27-.58l.04-.02c-.11-.17-.27-.43-.3-.67-.02.01-.04,0-.05-.02-.18-.54-.53-1.11-.68-1.62,0,.02.02.04,0,.05-.03-.25-.13-.44-.21-.65,0-.03.03-.06.04-.09-.05.02-.02.03-.07.05.01-.11-.04-.24-.1-.34.01,0,.02,0,.03-.01-.07-.06-.12-.16-.11-.24,0,.02-.01.02-.03.02-.03-.06-.06-.11-.02-.13-.02-.03-.03-.08,0-.11-.03-.04-.05.02-.07,0-.12-.49-.38-1.12-.59-1.63.14.43.27.86.47,1.28-.03,0,.04.08,0,.07.12.22.15.57.29.77-.01,0-.03,0-.03.02.04-.03.05.01.07.03-.04.04.04.11.01.19.05,0,.06.17.06.2.02,0,.04,0,.06.02-.04.02.03.06,0,.1.06.02.06.09.09.15-.06.04,0,.1.02.16.03.02.02-.03.04,0,.09.32.23.61.33.97,0,0,0-.02-.02-.02,0,.04.04.01.04.05-.03.01-.01.03-.04.02.04.05.05.14.07.2.04,0,.02-.03.03-.04,0,.03.03.02.03.06-.02,0-.03-.03-.05,0,0,.06.05.03.06.09-.05.01.01.07,0,.11.05,0,.05.01.07,0,0,.04,0,.06.04.07-.01,0-.02,0-.03.01.02.02.1.1.05.13,0-.06-.09-.09-.07-.17-.08.04.11.23.05.31-.12-.27-.18-.48-.28-.76-.02,0-.02.03-.03.01,0-.02-.04-.07-.02-.08.03,0,0,.06.04.04-.02-.06-.07-.18-.09-.2,0,.02,0,.09-.04.06-.03-.24-.17-.49-.24-.68-.1-.28-.18-.58-.28-.89h.02c-.09-.1-.06-.23-.15-.3,0-.04,0-.08.03-.09-.01-.02-.01-.08-.04-.07.02.05.02.09-.02.11-.03-.07-.09-.25-.1-.34-.08-.1-.11-.29-.19-.38,0,.08.13.22.03.27,0-.09-.1-.12-.09-.22-.04.02-.05-.01-.05-.07-.11-.03-.09-.25-.18-.33.02-.04.01-.08.01-.13-.04,0,0,.05-.04.03,0,.02.04.07.02.08-.12-.26-.21-.44-.31-.67-.1.04-.07-.13-.11-.16-.03.07-.05-.1-.06-.15-.04-.11-.12-.22-.16-.28-.03.08.06.12.06.2-.03,0-.05,0-.07-.02.01-.02-.03-.08-.06-.06.04.06.03.1.04.17-.06-.06-.16-.13-.12-.24-.07-.04-.08-.13-.13-.23-.05.04-.08-.08-.1-.16-.07-.04-.07.02-.12-.07-.01.04.03.05.02.08-.06,0-.12-.01-.15-.1.02,0,.03.01.04.01-.03-.06-.08-.13-.11-.13,0-.07-.02-.04-.04-.08-.03-.06-.03-.18-.1-.19,0,.06.05.1,0,.14-.05-.04,0-.09-.04-.08-.02.05.07.15.01.18l-.03-.08s0,.08-.06.05c.01.02,0,.07.03.06-.01-.03,0-.04.02-.05.01.03.03.1.04.15-.1-.07-.17-.28-.19-.38-.02,0-.05,0-.07-.02.02.06.04.12.04.04.02.05,0,.07-.02.09-.08-.07-.01-.08-.05-.15,0,.05,0,.07-.05.04Zm6.14,4.96s.03.04.02.06c-.03,0-.03-.05-.02-.06Zm.82,1.87s.05.06.08.1c-.01,0-.02,0-.04,0-.01-.04-.03-.06-.05-.06,0-.01.02-.02.01-.03Zm2.21,4.51s-.02.02-.02.04c-.02,0-.04-.02-.05-.05.03.01.02-.02.05,0,0-.02-.04-.07,0-.07,0,.02.01.06.02.09Zm1.51,7.79s0,.03.02.05h-.03s0-.02-.01-.04c.01,0,.03,0,.02,0Zm-3.57,2.89c0,.07.1.11.05.15-.03-.02-.1-.12-.05-.15Zm-4.24-11.92c.04.06.06.11.08.2-.05-.05-.07-.12-.08-.2Zm-2.75-9.98s.03.03.05.01c.02.04,0,.05.02.09-.01,0-.02-.02-.02-.03-.01,0-.02,0-.02.02-.03,0-.04-.07-.03-.09Zm.56.41s.04.04.05.08c-.03,0-.05-.04-.07-.06.01,0,.02,0,.02-.02Zm.55.53s.1.1.04.11c0-.05-.02-.05-.04-.11Zm-.56,1.82c0-.05.08.08.03.09,0-.02-.01-.07-.03-.09Zm.07.34s.04.06.04.01c.02,0,.07.11.03.12-.02-.07-.05-.09-.07-.13Zm4.46,1.11s.06.07.05.09c-.05,0-.04-.07-.05-.09Zm-1.74,1.26s.03.05.04.07c-.03.01-.05-.05-.04-.07Zm.59,1.42s-.03-.06-.06-.06c-.01.01.02.03.01.07.16.08.18.34.26.52.07.14.16.25.19.36,0,.01,0,.03-.02.04.05.03.03.09.06.15-.03.03-.03,0,0,.06-.03-.01-.03,0-.05.02-.02-.03.01-.03.02-.05-.02-.01-.04-.03-.07-.03,0-.03.02-.04.02-.07-.01-.02-.04-.01-.05-.04-.03.04.04.12,0,.17-.03-.06,0-.09-.03-.14,0,.04,0,.08.01.12.08.09.18.03.23.15.02-.02,0-.06,0-.09.09.07.06.18.14.23,0,.02,0,.05-.01.06.02.03.09.09.06.12.01.02.04,0,.05.02-.04.11.13.23.11.34.07.04.12.19.12.25.11.03.16.27.15.38.04.09.07.07.1.16,0-.03,0-.09-.01-.09.04-.01.06.05.09.13,0,0-.02,0-.02-.02.03.13.25.33.18.52-.02-.05-.04-.09-.07-.11.03.02.03.18.11.17.02.04,0,.06,0,.07-.03,0-.05.01-.06-.03-.03,0,.03.05-.02.05-.03-.08-.03-.14-.06-.22-.01.04,0,.09.03.17-.13-.15-.18-.26-.24-.47-.05.02,0,.09-.04.12-.03-.14-.13-.2-.14-.29h.02s.03,0,.04.02c.02-.03-.03-.06-.06-.03-.02-.04-.04-.05-.06-.11.02,0,.04.02.05.05.03-.05-.06-.12-.11-.17-.03-.04.03-.02.02-.05-.04-.04-.15-.3-.14-.37-.03-.03-.04-.03-.06,0-.02-.04-.02-.07,0-.09-.07-.03-.06-.12-.06-.19-.02-.04-.02.04-.04,0-.01-.03,0-.02.02-.02-.02-.05-.06-.02-.07-.08.03,0,.06,0,.1-.03-.01-.03-.05.01-.07.01-.03-.05.01-.06,0-.1-.04.04-.14-.01-.08-.08.03.04,0,.06,0,.08.03-.01.02-.04.05-.02-.05-.05-.03-.06-.04-.13-.03,0-.07-.01-.1.04,0-.04,0-.1,0-.14.03,0,.04.03.05.06.01.02.03-.03.04-.05-.02-.03-.01.02-.04,0,0-.03,0-.05-.02-.09.01-.03.01,0,.04-.02-.06-.06-.12,0-.14-.08-.01.01-.02.02,0,.05-.14-.1-.1-.35-.21-.43,0-.05.03-.03-.01-.07.05-.05.08,0,.13.03-.02.01-.03,0-.05,0,.02.06,0,.17.09.23-.05-.11-.03-.19-.06-.29.04,0,.03,0,.05-.03-.03-.04-.05.06-.08.02.02-.03-.06-.09-.04-.17-.01-.02-.02,0-.02.02-.03,0,.01-.06-.01-.09,0,.01,0,.03,0,.05-.04,0,0-.03-.02-.05-.01,0,0,.02,0,.03-.03,0-.03-.06-.06-.06.01-.03.03-.08-.02-.09-.02-.18-.08-.36-.15-.52h.03c-.09-.11-.1-.23-.16-.35.11.06.11.23.18.35.04.07.1.11.11.19Zm-.43-.91c.11.05.11.24.18.35-.1-.05-.13-.26-.18-.35Zm-1.49,1.36c.06.02.05.08.1.15-.04-.02-.1-.09-.1-.15Zm2.38.59s.04,0,.05.04h-.03s-.02-.04-.02-.04Zm-2.16.98s.03.09.05.12c-.03-.01-.04-.09-.05-.12Zm2.08-.79s-.05.05-.07.04c0-.05.04-.03.07-.04Zm0,.04s.02.02.03.03c-.03,0-.02.03-.05.03-.01-.03.02-.04.02-.07Zm-1.85.77s.07.07.02.08c-.02-.03,0-.05-.02-.08Zm.04.43s0,.07.03.09c0,.03-.1-.07-.03-.09Zm2.33-.92s.04.05.04.08c-.04,0-.03-.05-.04-.08Zm-2.41,1.01s.04.1.08.1c.01.04-.06,0-.04.03-.02-.03-.03-.08-.04-.13Zm4.51-1.58s.03.02.06.02c0,.02-.03.02,0,.06-.03.01-.04-.04-.06-.08Zm.03.13c.03.05.06.09.07.15-.05,0-.06-.11-.07-.15Zm.28-.07s.04.06.02.09c-.04.02-.07-.09-.02-.09Zm-.23.11s.06.03.05.06c-.02-.01-.06-.04-.05-.06Zm.07.2s.06.04.06.09c-.02.01-.02-.04-.04-.06-.02,0,.01.04.01.06-.05-.02-.03-.05-.04-.1Zm.23.37c.06-.01.04.1.07.11-.05-.01-.03-.07-.07-.11Zm-.02.07s.05.09.04.11c-.02.02-.02-.06-.05-.02,0-.03,0-.06,0-.09Zm-2.04.88c.09.08.11.13.17.23-.02,0-.02-.06-.06-.02-.03-.09-.08-.13-.11-.21Zm2.11-.81s.11.1.06.16c0-.05-.04-.11-.06-.16Zm-.06.1s.07.02.06.05c-.02,0-.05,0-.06-.05Zm.07.04s.05.12.08.18c-.06,0-.04-.13-.1-.1-.01-.02,0-.03,0-.05.02.02.06.03.03-.03Zm-4.25,2.07s.03.03.05.05c-.03.02-.06-.03-.05-.05Zm4.36-1.76c.06.08.09.22.18.35.04-.03-.03-.05-.01-.09.04-.01.05.06.07.1-.03.04-.06,0-.1.04-.06-.15-.13-.24-.14-.39Zm-2.09,1.15c.05-.02.07.06.1.12-.06.01-.08-.07-.1-.12Zm.15.12c.05-.02.08.19.03.04-.01,0-.02-.02-.03-.04Zm2.22-.75s.04.05.06.08c-.04,0-.02-.03-.06-.08Zm0,.11s.05.02.07.04c-.01,0-.03,0-.05,0l-.02-.05Zm.24.24s.05.03.03.04c0,.01.02,0,.03,0,0,.04-.01.02-.04.03-.02-.03,0-.04-.02-.08Zm.04.13s.03,0,.02,0c.02-.01.02.04.04.06-.02,0-.05,0-.06-.05Zm.21.25s.02.05.06.08c-.04.03-.04-.05-.06-.08Zm.38-.11c0,.05.01.1-.05.12.02-.04,0-.09.05-.12Zm-.3.15s.07.07.05,0c.05,0,.04.07.06.12-.05-.03-.06-.05-.11-.11Zm-4.64,2.01s.02-.02.05,0c0,.09.02.11.05.18-.05-.01-.07-.11-.1-.17Zm4.91-2.02s.09.08.03.08c0-.05-.05-.05-.03-.08Zm-.24.13s.06.07.05.09c-.03-.02-.02-.05-.05-.09Zm-4.57,2.1s.05.06.04.07c-.02,0-.05-.04-.04-.07Zm4.76-1.95s.06.03.05.05c-.02,0-.04-.02-.05-.05Zm.18.21c.03.08.1.13.11.2-.03.02-.04,0-.07.01.01-.03-.04-.08.01-.09-.05,0-.03-.08-.05-.12Zm0,.03s-.06.04-.07-.01c.08,0-.03-.05.03-.08.01.05.02.04.04.1Zm.26.05s.03.04.04.08c-.04-.02-.03-.04-.04-.08Zm-4.84,2.92s.02,0,.04,0c.02.04,0,.06.03.1-.04,0-.07-.07-.07-.1Zm4.99-1.96s.03.08.08.08c.02.06,0,.1.06.13l-.05.02c-.01-.07-.08-.15-.08-.23Zm-4.89,2.16c0,.05.03.06.03.1-.04.01-.07-.09-.03-.1Zm5.01-1.93c.07.02.11.12.09.18.07.03.12.05.12.16-.04-.02-.04-.12-.13-.1-.03-.11-.08-.18-.07-.24Zm-.13.08s.05.06.05.08c-.03,0-.06-.02-.07-.05.02,0,.03-.01.03-.03Zm.02.12s.02.05.05.09c-.02,0-.02.02-.04.03,0-.04-.02-.09-.01-.12Zm-4.98,2.24s.04.05.05.08c-.05,0-.02-.04-.05-.08Zm5.33-2.24s.03.05.04.07c-.03-.02-.02.01,0,.04-.05,0-.02-.08-.03-.11Zm-.13.13h.03s.03.05.03.05c-.03.02-.04-.03-.06-.05Zm-5.17,2.23s.04.03.05.06c-.03,0-.06-.03-.05-.06Zm.17-.03s.01.05.01.07c-.05,0-.03-.05-.01-.07Zm.08.08s.04.03.05.06c-.03.02-.06-.04-.05-.06Zm.02.13s0-.01.01,0c.03,0-.01-.05.03-.05,0,.03.03.02.04.06,0,0-.01.02-.01.03-.03.01-.04-.04-.06-.03Zm5.23-2.13s0,.03,0,.04c-.01.02-.05-.02-.04.02-.02,0,.01-.06.03-.08.02.04.04.02.04.07-.02,0-.02-.03-.03-.04Zm-5.42,2.33s.08.05.03.06c-.02-.01-.03-.04-.03-.06Zm.23-.08s.04.02.07.01c0,.02-.01.03-.03.04-.01-.01-.03-.03-.04-.06Zm5.19-2.01s.02,0,.04,0c0,.02,0,.04-.02.02,0,.01,0,.03-.02.04,0-.01,0-.03,0-.02,0-.01.02-.02.01-.03Zm.08.07s-.04.03-.08.02c.01-.03.06-.07.08-.02Zm-5.25,2.31s.02-.01.02-.02c.03.02-.01.03.03.07-.02,0-.02.02-.01.03-.04-.01.01-.06-.04-.08Zm4.98-1.95c.09.07.16.3.22.37-.08,0-.16-.25-.22-.37Zm.13.1h.03s.03.04.02.06c-.03.01-.04-.03-.05-.06Zm.07.07s.02,0,.03-.01c0,.02.02.05-.01.06l-.02-.05Zm.19-.01s.01,0,0,.01c.07.02-.02.02,0,.06-.02,0-.02-.03-.03-.04.02,0,.03-.01.03-.03Zm-.13.32s.05.06.07.08c-.06,0-.04-.05-.07-.08Zm-5.15,2.75s.06.05.05.08c-.03,0-.03-.06-.05-.08Zm5.67-1.02c-.03.13-.11.08-.15-.06-.01.02,0,.05,0,.07-.03.02-.03-.05-.06-.05,0-.02.02-.02.04-.03-.06-.11-.07-.12-.13-.24.03-.03-.03-.06,0-.1-.02-.03,0,.05-.04.02-.03-.09,0-.09-.05-.18-.03.01.05.07,0,.07,0-.06-.03-.1-.07-.14.02-.01.04-.02.06-.01-.01-.03-.03-.03-.06-.02-.04-.06-.01-.08,0-.11.11.03.12.28.21.34.03.15.1.28.15.43.02-.01-.01-.04,0-.06.03-.01.05.06.02.08.04.02.05.02.08,0Zm-5.74,1.57s.06.04.05.06c-.02,0-.04-.03-.05-.06Zm-.06.07s.07.04.02.05l-.02-.05Zm.78-.34s.08.12.01.12c.01-.05,0-.08-.01-.12Zm-.67.34c.08.05.07.18.11.24-.02-.01-.05-.02-.08,0-.02-.06,0-.12-.05-.17.01-.02.04-.03.01-.06Zm5.19-2.14s.03.07.05.09c-.06,0-.03-.04-.05-.09Zm-4.73,2.06s.03,0,.05,0c.02.03-.02.04,0,.07-.03.01-.04-.03-.05-.06Zm.11,0h.03s.03.08.05.15c-.05-.04-.03-.1-.08-.15Zm.09.15c.08.09.05.2.13.3-.03,0-.02,0-.07.02.01-.07-.02-.2-.07-.2,0-.02,0-.04.03-.04-.02-.03-.02,0-.05,0-.01-.04.03-.05.03-.08Zm4.55-1.91s.01.04.04.07c-.03,0-.04-.03-.04-.07Zm-.24.25c.1.11.16.34.22.48.02.03.04-.03.03-.05.03,0,.02.05.03.07-.02,0-.03,0-.05,0-.02.02.02.06.03.09-.17-.12-.16-.32-.28-.56.02,0,.03-.01.03-.03Zm.62-.24s.03.05.05.06c-.02,0-.02.02-.04.03-.03-.04.02-.05-.01-.09Zm-4.84,2.25s.06.04.08.08c-.02,0-.03,0-.05,0,.01-.04-.02-.05-.04-.08Zm4.83-1.94s.05,0,.08-.02c.02.07,0,.11.02.19-.06-.02-.05-.11-.1-.17Zm.35.29s-.02-.04-.03-.06c.12.18.24.44.3.7,0,.01.02,0,.03.01,0,.03,0,.06,0,.08-.03.01-.04-.05-.06-.09-.02,0-.03.01-.03.03-.07-.11-.13-.33-.27-.48,0-.04,0-.09.01-.12-.02-.03-.03.02-.05.02-.02-.03.02-.07-.02-.08,0-.04,0-.02.04-.03-.04-.05-.07-.09-.08-.14-.04,0,0,.04,0,.07-.05-.02-.07-.11-.07-.16.04-.03.09.03.07-.04.06.04.05.21.1.21-.01-.1-.12-.25-.08-.32.1.11.09.24.16.37l-.04.02Zm-.54-.16s.06,0,.05.03c-.03.02-.04-.01-.05-.03Zm.11.09s-.02,0-.03,0c.06.15.09.16.16.29-.09.1-.18-.19-.22-.26,0-.06.05-.09.09-.02Zm.19,0s.05.03.07.03c-.02.03.04.1,0,.13,0-.07-.07-.08-.08-.15Zm-.26.65s0,.02,0,.03c-.02,0-.02-.03-.04-.03-.02.02.03.08.04.11-.07-.03-.11-.16-.16-.19.01-.03.05-.03.06-.03.03-.03-.01-.03,0-.06-.03-.03,0,.05-.04.05-.04-.09-.04-.12-.09-.15,0-.05.02,0-.02-.08.07-.04.05.07.09.09.03-.06-.11-.14-.03-.17.05.15.21.31.21.51-.03-.02.01-.05-.01-.09Zm.26-.47s.05.01.04-.03c.04,0,.01.04.01.05-.02.01-.03-.03-.05-.02Zm.06.03c.06.08.13.29.06.26.02-.08-.06-.14-.06-.26Zm-.76.57s.02,0,.02-.02c.06,0,.05.1.06.14-.06,0-.03-.11-.08-.12Zm.05.12l.03.06s-.03,0-.02,0c-.02,0-.02-.03-.04-.03,0-.02,0-.04.03-.04Zm.82-.41c.06.07.11.26.19.39-.12-.05-.12-.21-.19-.33.04,0,0-.03,0-.06Zm-.74.81s.06.1.02.13c.02.02.04.03.06.08-.02.02-.02.05-.05.03-.02-.03.02-.03.02-.05-.02-.03-.04-.02-.03.01-.07-.11-.1-.17-.12-.29.02.02.07.04.06.08.07-.03,0-.07-.03-.09.01,0,.02-.06.03-.04.03-.02.03.06.06.09.02-.05-.07-.14-.06-.16-.02.02-.04.05-.06,0,.08-.02.06-.09.04-.16.01,0,.03,0,.05,0,.02.15.21.39.26.57-.02,0-.03,0-.05,0,.02.04.06.02.08.07l-.04.02s.02.02.03.04c.02.02.01-.02.04,0l.03.06s-.02.01-.02.02c-.03-.01-.07,0-.09-.06,0,.01-.02.02-.04.03,0-.04-.05-.06-.03-.1-.01-.01-.03-.01-.05,0-.03-.1-.05-.16-.1-.27Zm1.04-.4s-.04,0-.06,0c-.02-.07-.03-.09-.06-.16-.02.09-.1-.14-.07-.17.09.09.1.27.19.33Zm.02-.07s.03.05.03.06c-.04,0-.03-.04-.03-.06Zm-.06.11s.05,0,.07.04c-.03.02-.03-.01-.05,0,.01.11.08.19.02.26-.02-.09-.06-.11-.11-.17,0-.02.02-.04.01-.06.03,0,.03.02.04.06.04-.03.04-.07.02-.12Zm.18.38s.04.07,0,.07c-.01,0-.02-.02-.03-.04.02,0,.03-.01.03-.03Zm-5.4,2.66c.06.01.02.07.04.11-.03.02-.02-.07-.05-.05-.02-.03.04-.03.01-.06Zm.29.33c.05.06.03.15.11.2.02.04-.04.05-.01.09-.01.02-.05-.02-.04.02-.05-.05-.07-.09-.1-.16,0-.02.03-.03.05-.02,0-.04-.02-.09,0-.13Zm5.23-2.02s.03.05.04.07c-.03.01-.05-.05-.04-.07Zm.22-.04s.03.06.05.08c-.06.02-.02-.04-.05-.08Zm.07.51s.05.01.06.05c-.05.03-.04-.05-.06-.05Zm-4.47,2.4s.05.09.08.05c.05.09-.06.17-.14.12,0-.06-.02-.14.05-.17Zm3.72-1.1s.04.01.06.05c-.02,0-.02.02-.04.03-.01-.03-.03-.06-.02-.08Zm-3.08,2.3s.06.03.09.04c.09-.03.09-.09.16-.06.02.04,0,.07,0,.1-.09.05-.09.05-.18.05-.02-.03-.04-.1-.08-.07,0-.02,0-.05,0-.07Zm2.12-.83s.04.06.03.07c-.02,0-.03-.02-.04-.04.02,0,.02-.02.01-.03Zm-1.89,1.01s0,.03.01.05c-.03.02-.03,0-.06.01.01-.02,0-.05.05-.06Zm3.46-1.47s.07.08.02.08c-.03-.01-.02-.05-.02-.08Zm.05.57v.02s-.03.05-.05,0c.04,0,.02-.04.05-.02Z"/>
                  <path class="cls-16" d="m140.92,57.93c0-.07-.05-.13-.09-.19.05,0-.03-.03,0-.05.05.01.07.19.14.22.01,0,0-.03,0-.05.02-.03.05.1,0,.11-.02-.05-.02-.07-.05-.04Z"/>
                  <path class="cls-16" d="m146.06,56.16s.04,0,.04.04c0,.06.03.13.09.15,0,.03,0,.03-.03.03.09.13.11.24.22.35-.05-.01.02.13.04.08.04.18.15.43.29.54-.04-.05-.05-.18-.11-.21.06,0-.01-.06-.04-.06h.03c-.22-.53-.47-1.09-.64-1.55-.06-.03-.07-.22-.17-.24,0-.08,0-.1-.05-.16.07,0-.02-.08.03-.08-.05-.05-.02-.13-.07-.14.02.08.07.11.03.16-.02-.08-.07-.14-.05-.21-.04-.05-.12-.14-.09-.2-.05.01-.02-.07-.06-.09-.02,0-.02.03-.03.01-.04-.04-.02-.12-.06-.14,0,.02,0,.03-.01.03-.02-.03,0-.04-.02-.08-.04,0,0,.06,0,.09.04.01.1.15.08.18-.04-.03-.07-.04-.05-.09-.03,0-.01.03-.03.04.02.04.05.03.07.07-.03,0-.05-.02-.08-.02.01.04.06.02.07.06-.02.02-.05-.02-.04.02.04.01.01.07.01.09.06-.03.02.06.07.07-.03-.03,0-.08.03-.05-.03.04,0,.06,0,.11-.01,0,0,.01-.02.02-.02-.06-.08-.02-.02,0,.02.08.04.17.05.22,0-.02,0-.03,0-.04.03.07-.02.08.04.07.02.05-.03.06-.03.1.03-.03.03.05.06.03,0-.02-.04-.07,0-.07.02.08.03.09.07.15-.02,0-.02.02-.04.03,0-.04-.02-.09-.06-.09.01.07.05.1.1.13-.02.04.02.08.04.07,0,.04-.03.03-.06.03.04.07.05.09.04.15,0-.02-.03,0-.04-.01.05.04.04.05.03.1.05.03.15.17.13.27.06.03.07.08.13.19.05,0-.03-.07,0-.09.04,0,.11.07.08.12-.02.02-.02-.06-.05-.02.09.12.09-.07.08-.13Zm-.53-1.26h.03s0,.02,0,.04c-.02,0-.02-.03-.03-.04Zm0,.11c.05.03.12.06.11.14l-.04.02s.01-.06-.02-.06c0-.04.03,0,.04,0,.01-.04-.07-.03-.08-.1Zm.24.57s.08.12.05.15c-.02-.05-.06-.11-.05-.15Zm-.05.1s.05.06.07.1c-.05,0-.06-.05-.07-.1Zm.1.07s.04.03.05.06c-.04.03-.06-.04-.05-.06Zm-.07.08s.04,0,.05.04c-.03.02-.04,0-.05-.04Zm.1,0c.08,0,.05.16.01.15.02-.05.01-.1-.01-.15Zm.09.09s.02.05.05.09c-.05,0-.06-.06-.05-.09Zm-.1.1s.07.02.06-.03c.02.06.02.07.04.17-.05,0-.08-.06-.11-.14Z"/>
                  <path class="cls-16" d="m138.52,47.41s.08.09.04.11c0-.06-.02-.06-.04-.11Z"/>
                  <path class="cls-16" d="m141.82,46.48s.03.15.07.17c-.03.05-.08-.14-.07-.17Z"/>
                  <path class="cls-16" d="m139.41,48.26s.05.02.06.06c-.03.01,0,.05-.04.06.01-.04.02-.07-.02-.12Z"/>
                  <path class="cls-16" d="m140.25,48.64s.03-.04,0-.09c.03,0,.04.07,0,.07.01.01.02.02.04.01,0,.05-.03.02-.05,0Z"/>
                  <path class="cls-16" d="m141.38,49.73s.05.01.07.03c.04.19,0-.02-.07-.03Z"/>
                  <path class="cls-16" d="m141.72,49.67s.02,0,.03-.01c0,.04.01.09.01.13-.05-.01,0-.11-.05-.12Z"/>
                  <path class="cls-16" d="m143.69,49.2s-.02,0-.04,0c-.03-.08.02-.16-.04-.22-.02.01.02.06,0,.08-.03-.02,0-.05-.05-.09.03-.02.03-.01.06-.04.05.1.03.09.08.22-.05-.02,0,.07,0,.07.04-.02.05.03.03.07.02.03.02-.03.05,0,0,.05.07.13.01.13,0,.01,0,.02,0,.03.02.03.04-.04.06.02-.05-.03-.02.04-.03.06-.09-.04-.1-.22-.16-.29,0-.02.02-.03.03-.05Z"/>
                  <path class="cls-16" d="m142.39,49.43s.02.1.04.14c-.05-.03-.03-.1-.04-.14Z"/>
                  <path class="cls-16" d="m141.7,49.89s0,.07.03.11c-.03.02-.02-.07-.04-.05,0-.02.02-.04.01-.06Z"/>
                  <path class="cls-16" d="m141.62,51.09s.04.08.05.13c-.02-.03-.05-.08-.05-.13Z"/>
                  <path class="cls-16" d="m143.31,51.08s.06.07.06.1c-.03-.02-.04-.07-.06-.1Z"/>
                  <path class="cls-16" d="m143.74,51.33s.04.08.08.07c-.01.04-.09-.04-.08-.07Z"/>
                  <path class="cls-16" d="m144.44,51.36s.05-.08,0-.11c.05,0,.08.13.14.17-.03-.04-.08-.02-.07-.06-.01-.03-.05.01-.04.03-.02,0-.02-.03-.04-.03Z"/>
                  <path class="cls-16" d="m139.47,53.74c.09.09.09.29.2.35-.02.02,0,.07-.03.08-.02-.13-.1-.16-.09-.26-.05-.02-.06-.12-.08-.17Z"/>
                  <path class="cls-16" d="m143.76,52.1s0,.02,0,.05c0,.05-.02-.05-.04-.01-.02-.03-.03-.07,0-.07,0,0,0,.01,0,.02.01,0,.03.01.04.01,0,.01,0,.01-.01,0Z"/>
                  <path class="cls-16" d="m143.92,52.47s.02.05-.01.06c0-.06-.04-.05-.06-.09-.01,0,0,.02,0,.03-.08-.04-.08-.18-.08-.27.02,0,.04.01.06.02-.06.04.06.22.1.25Z"/>
                  <path class="cls-16" d="m144.65,52.34s.03.03.04.07c-.02,0-.03,0-.05,0,.12.16.13.48.29.64-.04.09.11.12.05.19.03-.02.02-.02.05-.02-.07-.07-.09-.21-.03-.24-.06.03.07,0,.03.06.03,0,.03-.05.04-.02,0,.03-.02.06-.03.08.01.03.03.04.05.06-.01,0-.03.01-.03.02.06-.04.04.06.04.08.03-.04,0-.1.03-.14-.04,0-.01-.02-.03-.06.01,0,.03,0,.03-.02-.02,0,0-.06-.04-.08,0,.03,0,.03-.03.02,0-.07-.07-.12-.04-.21-.06.02-.05-.04-.06-.09-.02,0-.04.02-.05,0,0-.03.02-.04.03-.05,0,.02.05.06.05.02-.03.01-.02-.09-.05-.08.01.03,0,.04-.02.05.02-.04-.03-.02-.04-.07-.03,0-.06.02-.08,0,.04-.05-.05-.06-.06-.1.01-.04.03-.08.07-.11-.02-.03-.02-.05-.03-.06,0,.03-.02.04-.03.05-.05-.07-.05-.1-.07-.18-.04,0-.06-.02-.06-.06-.02.05.09.17.05.22Zm.21.46s.02-.02.03-.02c.01.01.03.03.03.06-.04.04-.02-.07-.06-.03Z"/>
                  <path class="cls-16" d="m139.7,54.2s0,.07.03.1c-.04,0-.05-.06-.08-.1.02,0,.05.05.05,0Z"/>
                  <path class="cls-16" d="m144,52.84s-.04,0-.04-.04c.02-.02.04-.04.03-.07.01,0,.02.02.03.02-.05.04.02.09-.05.13,0-.02,0-.03.02-.04Z"/>
                  <path class="cls-16" d="m144.02,52.88s.03.02,0,.02c0,.02.01.03.02.03,0,.03-.05,0-.06-.02.02,0,.03-.02.02-.04Z"/>
                  <path class="cls-16" d="m139.67,54.65s.01,0,.01,0c.04.02.04.12.08.14,0,0-.15-.13-.09-.16,0,.01,0,.02,0,.03Z"/>
                  <path class="cls-16" d="m139.72,54.83s-.02.08-.03.12c.03-.02.07.12.11.21-.05-.03-.17-.25-.11-.31-.02-.07-.03-.07-.04-.14.07.07.14.26.17.34-.04,0-.07-.17-.1-.23Z"/>
                  <path class="cls-16" d="m144.21,53.36c0-.05.01,0,.04-.02l.02.06s-.02.01-.04.03c.01.04.06-.02.07.04-.02.02-.02-.02-.04-.01.04.03.06.08.05.13-.04,0-.03-.04-.03-.07-.02,0-.04-.02-.07-.01,0-.01,0-.03,0-.05.01,0,.02.02.03.03,0-.02.01-.13-.03-.13Z"/>
                  <path class="cls-16" d="m139.88,55.2s0,.04-.01.06c-.02,0-.02-.03-.03-.05.02.01.04,0,.02-.04.03.02.07,0,.08.05-.04.03-.04-.02-.06-.03Z"/>
                  <path class="cls-16" d="m140.02,55.31s.02.07.05.09c-.04,0-.04-.07-.05-.09Z"/>
                  <path class="cls-16" d="m144.35,53.65s.02.05,0,.06c.02.03.02,0,.05,0l.02.05c-.06-.05,0,.03-.04.05,0-.06-.06-.1-.02-.15Z"/>
                  <path class="cls-16" d="m144.47,53.95s-.05-.07-.04-.1c.02,0,.03.01.04.01,0,.04.02.12-.04.1,0-.02.02,0,.03-.01Z"/>
                  <path class="cls-16" d="m142.77,54.76s-.1-.13-.06-.08c.01.04.05.02.06.08Z"/>
                  <path class="cls-16" d="m142.73,54.78s.03.09.05.12c-.03-.01-.01-.08-.05-.12Z"/>
                  <path class="cls-16" d="m144.49,54.35s0-.04.03-.05c.04.08.04.12.08.18-.04-.02-.03,0-.06,0v-.04s0,.02.01.03c.03-.03-.02-.13-.06-.12Z"/>
                  <path class="cls-16" d="m144.87,54.42s.02.09.06.14c-.04-.03-.05-.09-.06-.14Z"/>
                  <path class="cls-16" d="m145.36,54.37s.03-.03,0-.07c.03,0,.05.05.09.03-.02.05-.07-.04-.09.03Z"/>
                  <path class="cls-16" d="m144.84,54.58s.01.08.01.12h.02c-.02.06-.09-.11-.03-.12Z"/>
                  <path class="cls-16" d="m145.29,54.62s.03,0,.05,0c0,.03-.07.05-.01.09,0,.04-.03-.02-.04-.01,0-.02.02-.04,0-.07Z"/>
                  <path class="cls-16" d="m144.9,54.81c.05,0,.03.08.03.11-.01,0-.02,0-.04,0,.04.04-.01.04,0,.09,0,.01.02,0,.03.02.02.04.01.06-.02.07,0-.07,0-.06-.05-.12h.03s-.02-.06-.01-.08c-.02.02-.03.03-.06,0-.03,0,.03.05-.02.05,0-.03,0-.06,0-.09.04.05.04,0,.08-.02-.01.03.01.03.02.06.05,0,.01-.06,0-.1Z"/>
                  <path class="cls-16" d="m145.36,54.68s0,.05.02.08c-.02,0-.02.02-.02.04,0,0-.03-.1,0-.11Z"/>
                  <path class="cls-16" d="m144.95,55.06c.05.02,0,.07-.01.09.01,0,.03,0,.04.03-.08,0-.01-.07-.02-.12Z"/>
                  <path class="cls-16" d="m140.43,57.74s.04.12.05.16c-.04-.03-.04-.12-.05-.16Z"/>
                  <path class="cls-16" d="m143.04,56.88s-.03-.04-.02-.02c-.03-.06,0-.08.05-.03,0,.01-.04.04,0,.04,0,.02-.02,0-.03.01Z"/>
                  <path class="cls-16" d="m143.21,57.3s.01,0,0,.01c.02,0,.04,0,.05.05-.03,0-.06-.03-.05-.06Z"/>
                  <path class="cls-16" d="m140.71,58.4s.04.07.05.12c-.03,0-.02-.08-.05-.12Z"/>
                  <path class="cls-16" d="m141.18,59.79v-.02s0,0,0-.02c.03.03.06.04.08.08-.03.02-.03-.05-.08-.04Z"/>
                  <path class="cls-16" d="m141.41,60.24s-.03-.13-.05-.05c0-.12-.03-.21-.1-.3.03.08,0,.1.01.15-.06-.07,0-.15-.08-.18,0,.02-.02.02-.03.01.01.03.04.07,0,.08-.03,0-.02-.11-.07-.1.14.3.23.55.35.85,0-.03,0-.06,0-.09,0,0,.01.02.02.02,0-.01,0-.02,0-.03,0,.05.06.11.07.07-.04,0-.04-.07-.05-.11-.03-.02-.04.05-.07,0,0-.09-.12-.19-.07-.26.05.03.04.19.13.19-.03-.07-.09-.14-.06-.22-.02,0-.03-.02-.05-.02,0-.05.02,0,.03-.03Zm-.13-.19s.06.04.05.06c-.02,0-.04-.03-.05-.06Z"/>
                  <path class="cls-16" d="m141.65,59.68s.03.05.04.07c-.01,0-.03,0-.02,0-.03,0,0-.05-.02-.08Z"/>
                  <path class="cls-16" d="m141.78,60.56s.09.08.09.15c-.04-.03-.06-.11-.09-.15Z"/>
                  <path class="cls-16" d="m141.75,60.67s.02-.02.04-.03c0,.03.09.09.02.11,0-.04,0-.1-.06-.08Z"/>
                  <path class="cls-16" d="m141.7,61.23s.02-.01.02-.02c.05.03.05.09.05.14-.03-.02-.02-.08-.06-.12Z"/>
                  <path class="cls-16" d="m147.27,59.06s0-.08.04-.06c.02,0-.03.03-.04.06Z"/>
                  <path class="cls-16" d="m142.07,61.31s0-.03,0-.05c.05.01.04.04.07.08,0,.04-.03-.06-.06-.03Z"/>
                  <path class="cls-16" d="m142.15,61.66c.05.03.06.15.13.19-.07-.01-.09-.12-.13-.19Z"/>
                  <path class="cls-16" d="m142.14,61.82s-.02.02-.01.03c-.03,0-.04-.02-.03-.04.02-.01.1.02.05.04,0,0,0-.02,0-.02Z"/>
                  <path class="cls-16" d="m147.6,59.67s0,.09.05.11c-.04-.02-.03.04-.03.07-.05,0-.03-.06-.06-.1.05.04.04-.04.04-.07Z"/>
                  <path class="cls-16" d="m148.69,59.39s-.02-.04-.04-.06c.05-.02.09.03.12.08-.07-.02-.07-.02-.08-.02Z"/>
                  <path class="cls-16" d="m142.18,62.45s.02.06.04.1c-.03,0,0-.06-.04-.1Z"/>
                  <path class="cls-16" d="m148.33,61.26s0-.02-.02-.04c.02.01.04.03.02-.02.01-.02.05.06.05.09-.02,0-.05-.08-.05-.03Z"/>
                  <path class="cls-16" d="m148.82,62.63s.06.07.09.07c-.01.02-.03.09,0,.1-.05.05-.02-.06-.05-.12-.02.01,0,.04-.01.06-.03-.01,0-.07-.04-.11Z"/>
                  <path class="cls-16" d="m148.88,63.06s-.04-.07,0-.07c.02.08.08.06.09.02.01,0,.02.02.04.01-.02.06-.08.03-.13.04Z"/>
                  <path class="cls-16" d="m149.08,63.22s-.05.07-.07.04c0-.04.04-.02.06-.07,0,.02.02.02.03.01,0,.08.06.09.08.19-.02,0-.05-.03-.04-.06-.03.04-.05-.03-.1-.06l.05-.02-.02-.05Z"/>
                  <path class="cls-16" d="m149.77,63.5c-.06,0-.02.05-.03.08-.05-.01-.01-.17.03-.08Z"/>
                  <path class="cls-16" d="m149.38,64.31s-.07-.17,0-.05c0,.01,0,.03,0,.05Z"/>
                  <path class="cls-16" d="m149.48,64.44s-.06-.07-.08-.13c.04.02.03-.03.05-.05.02.03.04.09,0,.11.02.01.01-.01.05,0,0,.02,0,.06.03.07,0,.03-.04-.04-.06.01Z"/>
                  <path class="cls-16" d="m149.39,64.46c.07.03.21.2.27.33,0,.01.02,0,.04,0,0,.04,0,.05-.04.05.02.05.04.05.03.09.01.01.02.02.04.01.09.27.21.46.31.62-.05-.02,0,.05-.05.05,0,0,.02.01.03.03.02-.01-.01-.05.03-.05,0,.07.03.09-.02.14-.04,0,.02-.09-.05-.05-.15-.37-.23-.57-.4-.99,0-.04-.03-.01-.05-.02.02-.02-.03-.06,0-.07-.02-.01-.03-.03-.06-.02-.02-.03-.03-.1-.06-.1Z"/>
                  <path class="cls-16" d="m148.92,65.81s.04.05.06.06c0-.01,0-.03,0-.05.1.04.1.19.17.3-.08,0,.02.28.09.27.03.03-.02.04-.01.06.03.02.06.03.09.06-.01,0-.03,0-.05,0,.04.04-.02.1-.02.15.04,0,.04.04.05.08-.05-.04-.03.03,0,.07-.06-.06-.1-.06-.14-.14.02,0,.03.01.04.01.01-.05,0-.12-.04-.17,0-.02.03-.03.05-.02-.05-.02-.05-.15-.13-.14,0-.03,0-.06-.02-.09.05,0,.01.04.03.07.01,0,.03,0,.04.01-.06-.14-.15-.38-.23-.54Z"/>
                  <path class="cls-16" d="m148.58,66.1s-.02-.1,0-.13c.02.05.02.13.04.15,0,.03-.03-.02-.05-.02Z"/>
                  <path class="cls-16" d="m143.43,68.46s.03,0,.05,0c-.03.03-.03.08.01.11,0,.01-.03.02-.02.04-.04,0-.01-.03-.04-.07.04,0,.02-.04,0-.07Z"/>
                  <path class="cls-16" d="m149.61,66.09c-.05-.06-.05-.1-.1-.17.02,0,.03,0,.04.03,0-.01.01-.02.03-.03,0,.08.04.13.09.18-.02-.01-.09-.08-.05,0Z"/>
                  <path class="cls-16" d="m149.7,66.25s.01.05-.03.05c0-.01,0-.03-.01-.05.01-.01.05.04.04,0Z"/>
                  <path class="cls-16" d="m149.97,66.21s.01,0,.02,0h.02s.06.13-.02.15c-.02-.02,0-.03.02-.04-.01-.06-.03-.09-.04-.12Z"/>
                  <path class="cls-16" d="m150.92,66.33s0,.05,0,.08c-.02-.02-.07-.03-.07-.08-.02,0-.02.02-.04.03-.02-.04,0-.05-.04-.08-.01.01-.01.02,0,.05-.04,0-.02-.04-.07-.04,0-.03.05-.02.06-.01,0-.02.02-.04,0-.07.01,0,.02.02.04.01.05.07.05.11.1.12Z"/>
                  <path class="cls-16" d="m148.64,67.19s0-.01.01,0c0-.01,0-.03.02-.04.01.04,0,.07,0,.1-.02.05,0-.08-.03-.06Z"/>
                  <path class="cls-16" d="m148.94,67.18s.06,0,.07.05c-.07-.02.05.06.04.11,0,0,.06.01.05,0,0,.06.09.24.07.34.08,0,.01.1.09.09,0,.02-.03.02-.03.04.06.04.03.13.06.17,0,.02-.09.02-.03.05-.03.04-.05-.06-.01-.08-.03-.05-.03-.09-.04-.14-.01-.02-.03-.02-.05,0-.02-.07,0-.09-.06-.13.12-.02-.07-.17-.01-.26-.07-.04-.09-.15-.15-.23Z"/>
                  <path class="cls-16" d="m149.81,67.1s.04.03.05.06c.03,0,.02-.03.05-.04.03.07.07.09.1.13-.08,0,.07.26-.01.32.01,0,.02.02.03.04-.02.03-.02.08,0,.13-.05.09-.01.23-.06.3,0-.04-.06-.1-.05-.08-.12-.2-.13-.62-.34-.72,0,.05.08.05.1.14-.06-.05-.11-.04-.17-.11-.03.01.05.07,0,.07-.03-.01,0-.04-.04-.08.09.02.01-.14-.02-.18.02,0,.03.03.05,0,.03.04,0,.09.05.11.05-.08-.03-.15-.06-.25.05.08.19.12.27.21.01.05.04.12.09.1,0,.03-.03.04,0,.07.04.03.06-.03.08.07.01.01.03.01.05,0,.03-.05-.08-.15-.02-.15,0-.03-.03,0-.04-.03-.03,0,.03.05-.02.05-.03-.01-.03-.06.01-.06-.03-.06-.09-.05-.12-.12Z"/>
                  <path class="cls-16" d="m148.92,67.37s0,.04.03.06c-.03.03-.03.02-.06.01.02-.02.05-.02.03-.07Z"/>
                  <path class="cls-16" d="m149.16,67.86s.04.1.05.17c0-.01-.08-.14-.05-.17Z"/>
                  <path class="cls-16" d="m149.69,67.87c-.1.03-.06-.14-.07-.21.03.08.07.15.07.21Z"/>
                  <path class="cls-16" d="m147.3,69.16s-.03.06-.02.1c0,.03-.03-.09.02-.1Z"/>
                  <path class="cls-16" d="m145.17,71.33s-.03.06-.03.1c-.01,0,0-.08.03-.1Z"/>
                  <path class="cls-16" d="m146.63,70.91s0,.04.02.06c-.02,0-.04-.02-.06-.05.02,0,.05.03.04-.02Z"/>
                  <path class="cls-16" d="m145.23,71.75s.04.09,0,.13c0-.07-.02-.07,0-.13Z"/>
                  <path class="cls-16" d="m145.14,71.83s0,.06.01.08c.02.09-.03-.06-.01-.08Z"/>
                  <path class="cls-16" d="m146.54,72.29s.02.02.03.04c-.04.02-.08-.07-.08-.09.05.04.05-.03.08-.05.04.02.08.05.1,0,0,.05.02.11,0,.15-.02-.06-.04-.12-.12-.05Z"/>
                  <path class="cls-16" d="m147.27,73.54c0-.06-.02-.03-.04,0,.05-.02.05.07.1.13-.02.02-.02.04-.05.05-.02-.04-.03-.15-.1-.1-.08-.07-.13-.23-.21-.28-.09.09,0,.15.08.23-.04,0-.02.05-.03.07-.14-.01-.12-.2-.14-.31.03.02.03-.04.06-.01.04-.09.01-.22.08-.3,0-.03-.03-.02-.04-.06.03,0,.04-.02.05-.04-.04-.03-.07-.08,0-.09-.01-.02-.02-.07-.04-.04,0-.03.03-.04.03-.07,0-.04-.04,0-.04-.04.05-.03,0-.11.05-.14-.06-.04-.01-.15.03-.2.16.12.05.29.14.5-.07.03-.05.1,0,.16,0,.03-.02.04-.05.05.02.04.03.08.04.11.11.09.24.13.34.32-.03.03,0,.03,0,.07-.05-.04-.12-.05-.17-.08,0,.02-.04.03-.07.04Z"/>
                  <path class="cls-16" d="m138.15,43.82s.03,0,.05,0c0,.06.04.07.05.13-.03,0-.07.03-.04.04,0,.04-.07-.04-.03.05-.04,0-.04-.08-.09-.06.05-.05.06-.08.07-.16Z"/>
                  <path class="cls-16" d="m144.61,51.67s.07.07.11.08c0,.03-.02.04-.04.05.02.01.02.02,0,.03.04.02.03.06.07.1-.01.03-.04.06-.02.12-.06-.08-.05-.18-.1-.21,0-.03.03-.06.03-.09-.03-.03-.06-.02-.08-.08.02,0,.03-.02.02-.04.01,0,.02,0,.04,0,0,.02-.02.04-.03.05Z"/>
                  <path class="cls-16" d="m144.92,54.59s.04,0,.05.04c-.05.01-.02.07,0,.11-.04.02-.04-.07-.06-.1,0-.02.04-.02.02-.05Z"/>
                  <path class="cls-16" d="m150.4,65.94s-.02-.04-.07-.01c.03-.03-.02-.1.04-.12-.05-.06-.1-.09-.18-.04-.12-.09-.13-.29-.09-.39.11-.1.23-.09.29,0,.09.13,0,.35.11.43,0,.05.05.17.04.24-.04,0-.02,0-.06.03-.03-.04-.04-.13-.09-.1,0-.02,0-.04.02-.05Z"/>
                </g>
              </g>
            </g>
            <g>
              <path class="cls-2" d="m148.17,52.35s-17.26,8.94-21.21,18.62c-3.68,9-21.22,64.76-21.22,64.76l11.76,6.19,25.65-50.39s11.31,10.93,17.75,10.93c0,0,14.47-11.57,20.83-11.57,0,0-1.99-11.78-5.4-18.17l11.93-.79-4.79,19.71,9.36,10.77,11.54-27.73c2.59-6.22-.41-13.34-6.66-15.85-9.92-3.98-25.77-8.78-44.57-8.78l-4.98,2.32Z"/>
              <path class="cls-4" d="m148.17,52.35s-17.26,8.94-21.21,18.62c-3.68,9-21.22,64.76-21.22,64.76l11.76,6.19,25.65-50.39s11.31,10.93,17.75,10.93c0,0,14.47-11.57,20.83-11.57,0,0-1.99-11.78-5.4-18.17l11.93-.79-4.79,19.71,9.36,10.77,11.54-27.73c2.59-6.22-.41-13.34-6.66-15.85-9.92-3.98-25.77-8.78-44.57-8.78l-4.98,2.32Z"/>
            </g>
            <g>
              <path class="cls-2" d="m130.82,21.42c3.59-.29,8.25,0,12.66,3.65,6.52,5.4,4.72,12.75,5.48,17.03,1.77,9.97,11.97,9.43,11.97,9.43,0,0-4.59.71-8.37,4.49-3.78,3.78-11.72,4.04-14.48-4.37-2.72-8.29-2.74-16.18-2.74-16.18-5.93-2.05-6.62-10.63-6.62-10.63,0,0-2.71.02-6.19,1.75,0,0,2.31-4.69,8.28-5.18Z"/>
              <path class="cls-4" d="m130.82,21.42c3.59-.29,8.25,0,12.66,3.65,6.52,5.4,4.72,12.75,5.48,17.03,1.77,9.97,11.97,9.43,11.97,9.43,0,0-4.59.71-8.37,4.49-3.78,3.78-11.72,4.04-14.48-4.37-2.72-8.29-2.74-16.18-2.74-16.18-5.93-2.05-6.62-10.63-6.62-10.63,0,0-2.71.02-6.19,1.75,0,0,2.31-4.69,8.28-5.18Z"/>
            </g>
            <path class="cls-3" d="m138.49,38.69c-.57.19-1.17.29-1.7.28-.03,0-.05,0-.07,0-.53-.01-1-.13-1.32-.35-1.74-1.22.38-4.83.38-4.83,0,0,1.9-2.77,3.86-1.43.38.27.76.69,1.13,1.31,1.56,2.63-.27,4.4-2.28,5.03Z"/>
            <path class="cls-13" d="m142.47,77.23c-.05,0-.1-.02-.14-.07-.01-.02-1.5-2.02-3.88-3.88-1.39-1.09-2.82-1.93-4.23-2.48-1.76-.69-3.5-.94-5.19-.75-.09.01-.18-.06-.19-.15-.01-.09.06-.18.15-.19,1.74-.2,3.54.06,5.35.77,1.44.57,2.89,1.42,4.31,2.53,2.41,1.89,3.92,3.92,3.94,3.94.05.07.04.18-.04.23-.03.02-.06.03-.1.03Z"/>
            <path class="cls-13" d="m135.29,37.08s-.03,0-.05,0c-.06-.03-.09-.1-.07-.16.65-1.56,1.86-2.31,2.75-2.66.96-.38,1.77-.4,1.8-.4h0c.07,0,.12.05.12.12,0,.07-.05.12-.12.13-.03,0-3.14.09-4.33,2.91-.02.05-.07.08-.11.08Z"/>
            <path class="cls-13" d="m137.14,37.08s-.07-.01-.09-.04l-1.13-1.27c-.05-.05-.04-.13,0-.17.05-.05.13-.04.17,0l1.13,1.27c.05.05.04.13,0,.17-.02.02-.05.03-.08.03Z"/>
            <path class="cls-13" d="m176.71,73.6c-.06,0-.11-.03-.14-.08-.95-1.63-2.94-4.56-7-9.26-2.43-2.82-4.47-4.97-4.49-4.99-.06-.07-.06-.17,0-.24.07-.06.17-.06.24,0,.02.02,2.07,2.17,4.5,5,4.07,4.73,6.07,7.67,7.03,9.31.05.08.02.18-.06.23-.03.02-.06.02-.08.02Z"/>
            <path class="cls-13" d="m187.69,72.22c-.06,0-.11-.05-.12-.11,0-.07.04-.12.11-.13l7.77-.62c.07,0,.12.04.13.11,0,.07-.04.12-.11.13l-7.77.62s0,0,0,0Z"/>
            <path class="cls-13" d="m143.1,92.04s-.05,0-.07-.02c-.08-.04-.12-.14-.08-.22l1.43-2.98c.04-.08.14-.12.22-.08.08.04.12.14.08.22l-1.43,2.98c-.03.06-.09.1-.15.1Z"/>
            <path class="cls-13" d="m106.71,152.71s-.02,0-.02,0c-.04-.01-1.05-.31-2.31-4.46-.02-.05.01-.1.06-.12.05-.02.1.01.12.06,1.21,3.99,2.17,4.33,2.18,4.33.05.01.08.06.07.12-.01.04-.05.07-.09.07Z"/>
            <path class="cls-13" d="m109.25,152.28s-.03,0-.04,0c-.04-.02-.95-.45-2.21-4.22-.02-.05.01-.1.06-.12.05-.02.1.01.12.06,1.22,3.65,2.1,4.11,2.11,4.11.05.02.07.08.05.12-.02.04-.05.06-.09.06Z"/>
            <path class="cls-13" d="m109.54,147.54s-.04,0-.06-.02c-.04-.03-.05-.09-.01-.13l1.22-1.45s.09-.05.13-.01c.04.03.05.09.01.13l-1.22,1.45s-.05.03-.07.03Z"/>
            <path class="cls-13" d="m110.36,149.72s-.07-.02-.09-.06l-.97-2.4s0-.1.05-.12c.05-.02.1,0,.12.05l.97,2.4s0,.1-.05.12c-.01,0-.02,0-.04,0Z"/>
            <path class="cls-13" d="m109.88,148.52s-.03,0-.04,0c-.05-.02-.07-.08-.04-.13.09-.19.31-.35.59-.42.29-.07.57-.04.74.08.04.03.05.09.02.13s-.09.05-.13.02c-.13-.09-.35-.11-.58-.05-.23.06-.4.17-.47.32-.02.03-.05.05-.09.05Z"/>
            <path class="cls-13" d="m102.08,149.87s-.07-.02-.09-.06c-.03-.07-.65-1.71,0-3.13.02-.05.08-.07.13-.05.05.02.07.08.05.13-.61,1.34,0,2.97,0,2.98.02.05,0,.1-.05.12-.01,0-.02,0-.03,0Z"/>
          </g>
          <g>
            <g>
              <path class="cls-13" d="m42.22,136.07c-.8,0-1.45-.65-1.45-1.45s.65-1.45,1.45-1.45,1.45.65,1.45,1.45-.65,1.45-1.45,1.45Zm0-2.47c-.56,0-1.02.46-1.02,1.02s.46,1.02,1.02,1.02,1.02-.46,1.02-1.02-.46-1.02-1.02-1.02Z"/>
              <path class="cls-13" d="m68.26,134.84c-.8,0-1.45-.65-1.45-1.45s.65-1.45,1.45-1.45,1.45.65,1.45,1.45-.65,1.45-1.45,1.45Zm0-2.47c-.56,0-1.02.46-1.02,1.02s.46,1.02,1.02,1.02,1.02-.46,1.02-1.02-.46-1.02-1.02-1.02Z"/>
              <path class="cls-13" d="m19.15,144.32c-1.25,0-2.27-1.02-2.27-2.27s1.02-2.27,2.27-2.27,2.27,1.02,2.27,2.27-1.02,2.27-2.27,2.27Zm0-4.1c-1.01,0-1.83.82-1.83,1.83s.82,1.83,1.83,1.83,1.83-.82,1.83-1.83-.82-1.83-1.83-1.83Z"/>
              <path class="cls-13" d="m61.18,152.53c-1.25,0-2.27-1.02-2.27-2.27s1.02-2.27,2.27-2.27,2.27,1.02,2.27,2.27-1.02,2.27-2.27,2.27Zm0-4.1c-1.01,0-1.83.82-1.83,1.83s.82,1.83,1.83,1.83,1.83-.82,1.83-1.83-.82-1.83-1.83-1.83Z"/>
              <path class="cls-13" d="m81.62,132.11c-1.14,0-2.07-.93-2.07-2.07s.93-2.07,2.07-2.07,2.07.93,2.07,2.07-.93,2.07-2.07,2.07Zm0-3.71c-.9,0-1.64.73-1.64,1.64s.73,1.64,1.64,1.64,1.64-.73,1.64-1.64-.73-1.64-1.64-1.64Z"/>
              <g>
                <path class="cls-13" d="m43.23,150.03c-.12,0-.22-.1-.22-.22v-1.28c0-.12.1-.22.22-.22s.22.1.22.22v1.28c0,.12-.1.22-.22.22Z"/>
                <path class="cls-13" d="m43.23,147.13c-.12,0-.22-.1-.22-.22v-1.27c0-.12.1-.22.22-.22s.22.1.22.22v1.27c0,.12-.1.22-.22.22Z"/>
                <path class="cls-13" d="m42.54,147.94h-1.4c-.12,0-.22-.1-.22-.22s.1-.22.22-.22h1.4c.12,0,.22.1.22.22s-.1.22-.22.22Z"/>
                <path class="cls-13" d="m45.31,147.94h-1.38c-.12,0-.22-.1-.22-.22s.1-.22.22-.22h1.38c.12,0,.22.1.22.22s-.1.22-.22.22Z"/>
              </g>
              <g>
                <path class="cls-13" d="m73.43,144.45c-.12,0-.22-.1-.22-.22v-.63c0-.12.09-.22.21-.22h0c.12,0,.22.1.22.22v.63c0,.12-.09.22-.21.22h0Z"/>
                <path class="cls-13" d="m73.43,142.28h0c-.12,0-.22-.1-.22-.22v-.62c0-.12.1-.22.22-.22h0c.12,0,.22.1.22.22v.62c0,.12-.1.22-.22.22Z"/>
                <path class="cls-13" d="m72.77,143.05h-.74c-.12,0-.22-.1-.22-.22s.1-.22.22-.22h.74c.12,0,.22.1.22.22s-.1.22-.22.22Z"/>
                <path class="cls-13" d="m74.11,143.05c-.12,0-.22-.1-.22-.22s.1-.22.22-.22h.72c.12,0,.22.1.22.22s-.1.22-.22.22h-.72Z"/>
              </g>
              <g>
                <path class="cls-13" d="m10.9,123.92c-.12,0-.22-.1-.22-.22v-.63c0-.12.11-.24.21-.22.12,0,.22.1.22.22v.63c0,.12-.08.23-.21.22Z"/>
                <path class="cls-13" d="m10.89,121.75h0c-.12,0-.22-.1-.22-.22v-.62c0-.12.09-.24.22-.22.12,0,.22.1.22.22v.62c0,.12-.1.22-.22.22Z"/>
                <path class="cls-13" d="m10.24,122.53h-.74c-.12,0-.22-.1-.22-.22s.1-.22.22-.22h.74c.12,0,.22.1.22.22s-.1.22-.22.22Z"/>
                <path class="cls-13" d="m11.57,122.53c-.12,0-.22-.1-.22-.22s.1-.22.22-.22h.72c.12,0,.22.1.22.22s-.1.22-.22.22h-.72Z"/>
              </g>
              <path class="cls-13" d="m33.32,118.52c-.75,0-1.37-.61-1.37-1.37s.61-1.37,1.37-1.37,1.37.61,1.37,1.37-.61,1.37-1.37,1.37Zm0-2.3c-.51,0-.93.42-.93.93s.42.93.93.93.93-.42.93-.93-.42-.93-.93-.93Z"/>
              <path class="cls-13" d="m6.59,156.67c-.75,0-1.37-.61-1.37-1.37s.61-1.37,1.37-1.37,1.37.61,1.37,1.37-.61,1.37-1.37,1.37Zm0-2.3c-.51,0-.93.42-.93.93s.42.93.93.93.93-.42.93-.93-.42-.93-.93-.93Z"/>
              <g>
                <path class="cls-13" d="m93.65,116.69c-.12,0-.22-.1-.22-.22v-.52c0-.12.09-.22.21-.22h0c.12,0,.22.1.22.22v.52c0,.12-.09.22-.21.22h0Z"/>
                <path class="cls-13" d="m93.64,114.53c-.13-.01-.22-.1-.22-.22v-.52c0-.12.1-.22.22-.22.11-.02.22.1.22.22v.52c0,.12-.1.22-.22.22Z"/>
                <path class="cls-13" d="m94.81,116.02s-.07,0-.11-.03l-.51-.29c-.1-.06-.14-.19-.08-.3.06-.1.19-.14.3-.08l.51.29c.1.06.14.19.08.3-.04.07-.11.11-.19.11Z"/>
                <path class="cls-13" d="m92.96,114.96s-.07,0-.11-.03l-.47-.28c-.1-.06-.14-.19-.08-.3.06-.11.19-.14.3-.08l.47.28c.1.06.14.19.08.3-.04.07-.11.11-.19.11Z"/>
                <path class="cls-13" d="m94.35,114.94c-.07,0-.15-.04-.19-.11-.06-.1-.02-.24.08-.3l.45-.26c.1-.06.24-.02.3.08.06.1.02.24-.08.3l-.45.26s-.07.03-.11.03Z"/>
                <path class="cls-13" d="m92.48,116.02c-.07,0-.15-.04-.19-.11-.06-.1-.03-.24.08-.3l.47-.28c.1-.06.24-.03.3.08.06.1.03.24-.08.3l-.47.28s-.07.03-.11.03Z"/>
              </g>
              <g>
                <path class="cls-13" d="m46.41,109.83c-.12,0-.22-.1-.22-.22v-.83c0-.12.08-.24.21-.22.12,0,.22.1.22.22v.83c0,.12-.1.2-.21.22Z"/>
                <path class="cls-13" d="m46.4,106.37h0c-.12,0-.22-.1-.22-.22v-.83c0-.12.12-.24.23-.22.12,0,.22.1.22.22v.83c0,.12-.11.22-.22.22Z"/>
                <path class="cls-13" d="m48.27,108.76s-.07,0-.11-.03l-.81-.47c-.1-.06-.14-.19-.08-.3.06-.1.19-.14.3-.08l.81.47c.1.06.14.19.08.3-.04.07-.11.11-.19.11Z"/>
                <path class="cls-13" d="m45.31,107.06s-.08,0-.11-.03l-.76-.44c-.1-.06-.14-.19-.08-.3.06-.11.19-.14.3-.08l.76.44c.1.06.14.19.08.3-.04.07-.11.11-.19.11Z"/>
                <path class="cls-13" d="m47.54,107.03c-.07,0-.15-.04-.19-.11-.06-.1-.02-.24.08-.3l.73-.42c.1-.06.24-.02.3.08.06.1.02.24-.08.3l-.73.42s-.07.03-.11.03Z"/>
                <path class="cls-13" d="m44.55,108.76c-.07,0-.15-.04-.19-.11-.06-.1-.03-.24.08-.3l.76-.44c.1-.06.24-.03.3.08.06.1.03.24-.08.3l-.76.44s-.07.03-.11.03Z"/>
              </g>
              <path class="cls-13" d="m32.16,130.75c-1.36.13-2.03,1.04-2.35,2.35-.23-1.3-.98-2.07-2.35-2.35,1.32-.26,2.12-1.03,2.35-2.35.4,1.32,1.04,2.08,2.35,2.35Z"/>
              <path class="cls-13" d="m70.33,116.14c-2.22.21-3.33,1.69-3.85,3.85-.5-2.15-1.57-3.53-3.85-3.85,2.17-.42,3.47-1.69,3.85-3.85.52,2.13,1.6,3.38,3.85,3.85Z"/>
            </g>
            <path class="cls-3" d="m104.89,168.23c0,2.61-104.52,2.61-104.52,0l5.77-2.22s0-.03,0-.06c-.06-.33-.1-.67-.1-1.02,0-3.19,2.59-5.77,5.78-5.77h.03s.03-.03.05-.05c.78-1.64,2.45-2.78,4.4-2.78,1.73,0,3.25.9,4.11,2.27.5-4.05,3.94-7.19,8.13-7.19,4.52,0,8.19,3.66,8.19,8.19,0,.12-.01.23-.02.34.92-2,2.93-3.39,5.28-3.39s4.48,1.47,5.35,3.57c-.03-.15-.05-.31-.07-.47-.3-.64-.47-1.34-.47-2.09,0-1.71.88-3.2,2.2-4.08-.01-.03-.01-.07-.02-.1-.55-.78-.88-1.73-.88-2.76,0-1.63.81-3.04,2.04-3.9V59.21c0-1.35,1.1-2.45,2.45-2.45s2.45,1.1,2.45,2.45v85.19c1.06.96,1.72,2.33,1.72,3.87,0,.68-.13,1.33-.37,1.93.11.09.22.18.33.3,1.01.88,1.67,2.17,1.67,3.62,0,.53-.11,1.03-.27,1.51.54-.2,1.12-.32,1.72-.32,1.49,0,2.82.67,3.72,1.72.8-.71,1.84-1.16,3-1.16.81,0,1.57.23,2.23.61.03-.03.06-.04.09-.07,1.32-2.75,4.12-4.65,7.38-4.65,3.89,0,7.14,2.71,7.97,6.35.96.54,1.71,1.38,2.13,2.4.86-1.79,2.68-3.02,4.8-3.02,2.89,0,5.24,2.3,5.33,5.17,1.36.15,2.42,1.29,2.42,2.69,0,.38-.08.74-.22,1.07l6.19,1.82Z"/>
            <g>
              <g>
                <rect class="cls-13" x="50.18" y="61.79" width="4.84" height="1.06"/>
                <rect class="cls-13" x="50.55" y="59.21" width="4.11" height="1.06"/>
                <rect class="cls-13" x="50.88" y="56.63" width="3.44" height="1.06"/>
                <rect class="cls-13" x="51.26" y="54.04" width="2.77" height="1.06"/>
                <path class="cls-3" d="m56.21,63.61c0,.43-.34.77-.76.77h-5.7c-.42,0-.76-.34-.76-.77s.34-.76.76-.76h5.7c.42,0,.76.34.76.76Z"/>
                <path class="cls-3" d="m55.8,61.03c0,.42-.35.76-.77.76h-4.86c-.42,0-.77-.34-.77-.76s.35-.76.77-.76h4.86c.42,0,.77.34.77.76Z"/>
                <path class="cls-3" d="m55.46,58.45c0,.42-.34.76-.76.76h-4.2c-.42,0-.76-.34-.76-.76s.34-.77.76-.77h4.2c.42,0,.76.35.76.77Z"/>
                <path class="cls-3" d="m55.07,55.86c0,.43-.34.77-.77.77h-3.39c-.42,0-.76-.34-.76-.77s.34-.76.76-.76h3.39c.43,0,.77.34.77.76Z"/>
              </g>
              <path class="cls-3" d="m58.09,39.51s2.34,6.49,2.79,10.46c.45,3.97-.45,14.86-.45,14.86,0,0-.78-10.55-1.73-11.62-.95-1.08-1.82,3.95-1.82,3.95l-1.4-7.67,2.62-9.99Z"/>
              <path class="cls-3" d="m47.55,39.41s-2.34,6.49-2.79,10.46c-.45,3.97.45,14.86.45,14.86,0,0,.78-10.55,1.73-11.62.95-1.08,1.93,3.95,1.93,3.95l1.53-7.67-2.85-9.99Z"/>
              <path class="cls-3" d="m49.02,9.99c-7.33,8.77-5.09,25,1.83,44.37h3.55c7.19-20.46,9.55-35.53,1.78-44.37h-7.16Z"/>
              <polygon class="cls-3" points="49.03 9.99 56.19 9.99 52.6 3.83 49.03 9.99"/>
              <g>
                <path class="cls-13" d="m55.69,23.33c0,1.7-1.38,3.08-3.08,3.08s-3.08-1.38-3.08-3.08,1.38-3.08,3.08-3.08,3.08,1.38,3.08,3.08Z"/>
                <path class="cls-2" d="m52.61,25.33c-1.1,0-1.99-.89-1.99-1.99s.89-1.99,1.99-1.99,1.99.89,1.99,1.99-.89,1.99-1.99,1.99Z"/>
                <path class="cls-5" d="m53.87,22.39c0,.3-.25.55-.55.55s-.55-.25-.55-.55.25-.55.55-.55.55.25.55.55Z"/>
              </g>
            </g>
          </g>
          <rect class="cls-13" x="88.12" y="155.36" width="14.7" height="11.03" rx=".84" ry=".84"/>
          <rect class="cls-3" x="80.6" y="161.64" width="30.3" height="7.49"/>
        </g>
      </g>
    </g>
  </g>
</svg>