<svg id="Group_1823" data-name="Group 1823" xmlns="http://www.w3.org/2000/svg" xmlns:xlink="http://www.w3.org/1999/xlink" width="160.214" height="168.163" viewBox="0 0 160.214 168.163">
  <defs>
    <clipPath id="clip-path">
      <rect id="Rectangle_905" data-name="Rectangle 905" width="160.214" height="168.163" fill="none"/>
    </clipPath>
    <clipPath id="clip-path-3">
      <rect id="Rectangle_894" data-name="Rectangle 894" width="20.738" height="20.739" transform="translate(132.923 107.538)" fill="none"/>
    </clipPath>
    <clipPath id="clip-path-4">
      <rect id="Rectangle_897" data-name="Rectangle 897" width="21.924" height="12.615" transform="translate(88.801)" fill="none"/>
    </clipPath>
    <clipPath id="clip-path-5">
      <rect id="Rectangle_899" data-name="Rectangle 899" width="21.924" height="12.615" transform="translate(78.152 37.747)" fill="none"/>
    </clipPath>
    <clipPath id="clip-path-6">
      <rect id="Rectangle_901" data-name="Rectangle 901" width="21.924" height="12.615" transform="translate(132.33 73.472)" fill="none"/>
    </clipPath>
    <clipPath id="clip-path-7">
      <rect id="Rectangle_903" data-name="Rectangle 903" width="21.251" height="21.251" transform="translate(138.963 98.214)" fill="none"/>
    </clipPath>
  </defs>
  <g id="Group_1822" data-name="Group 1822" clip-path="url(#clip-path)">
    <path id="Path_4294" data-name="Path 4294" d="M134.746,12.305l-3.5,3.5h-1.55l3.5-3.5-3.5-3.5h1.55Z" fill="#e9f0f7"/>
    <path id="Path_4295" data-name="Path 4295" d="M132.22,12.305l-3.5,3.5h-1.55l3.5-3.5-3.5-3.5h1.55Z" fill="#e9f0f7"/>
    <path id="Path_4296" data-name="Path 4296" d="M129.694,12.305l-3.5,3.5h-1.55l3.5-3.5-3.5-3.5h1.55Z" fill="#e9f0f7"/>
    <path id="Path_4297" data-name="Path 4297" d="M127.168,12.305l-3.5,3.5h-1.55l3.5-3.5-3.5-3.5h1.55Z" fill="#e9f0f7"/>
    <path id="Path_4298" data-name="Path 4298" d="M124.642,12.305l-3.5,3.5h-1.55l3.5-3.5-3.5-3.5h1.55Z" fill="#e9f0f7"/>
    <path id="Path_4299" data-name="Path 4299" d="M138.246,67.516l-3.5-3.5v-1.55l3.5,3.5,3.5-3.5v1.55Z" fill="#e9f0f7"/>
    <path id="Path_4300" data-name="Path 4300" d="M138.246,64.99l-3.5-3.5v-1.55l3.5,3.5,3.5-3.5v1.55Z" fill="#e9f0f7"/>
    <path id="Path_4301" data-name="Path 4301" d="M138.246,62.464l-3.5-3.5v-1.55l3.5,3.5,3.5-3.5v1.55Z" fill="#e9f0f7"/>
    <path id="Path_4302" data-name="Path 4302" d="M138.246,59.938l-3.5-3.5v-1.55l3.5,3.5,3.5-3.5v1.55Z" fill="#e9f0f7"/>
    <path id="Path_4303" data-name="Path 4303" d="M138.246,57.412l-3.5-3.5V52.36l3.5,3.5,3.5-3.5v1.55Z" fill="#e9f0f7"/>
    <g id="Group_1821" data-name="Group 1821">
      <g id="Group_1820" data-name="Group 1820" clip-path="url(#clip-path)">
        <path id="Path_4304" data-name="Path 4304" d="M28.559,50.238A14.28,14.28,0,1,1,14.28,35.959,14.279,14.279,0,0,1,28.559,50.238" fill="#e9f0f7"/>
        <path id="Path_4305" data-name="Path 4305" d="M21.274,50.049a6.978,6.978,0,0,1-5.91,6.9,6.382,6.382,0,0,1-1.08.09,7.136,7.136,0,0,1-2.13-.33,6.991,6.991,0,1,1,9.12-6.66" fill="#869cb3"/>
        <g id="Group_1807" data-name="Group 1807" opacity="0.6">
          <g id="Group_1806" data-name="Group 1806">
            <g id="Group_1805" data-name="Group 1805" clip-path="url(#clip-path-3)">
              <path id="Path_4306" data-name="Path 4306" d="M153.286,117.907a9.994,9.994,0,1,1-9.994-9.994,9.994,9.994,0,0,1,9.994,9.994" fill="#fff"/>
              <path id="Path_4307" data-name="Path 4307" d="M153.286,117.907a9.994,9.994,0,1,1-9.994-9.994A9.994,9.994,0,0,1,153.286,117.907Z" fill="none" stroke="#869cb3" stroke-width="0.75"/>
            </g>
          </g>
        </g>
        <circle id="Ellipse_9" data-name="Ellipse 9" cx="8.745" cy="8.745" r="8.745" transform="translate(5.534 41.304)" fill="none" stroke="#869cb3" stroke-width="0.219"/>
        <path id="Path_4308" data-name="Path 4308" d="M24.7,50.049A10.446,10.446,0,1,1,14.252,39.6,10.446,10.446,0,0,1,24.7,50.049Z" fill="none" stroke="#869cb3" stroke-width="0.261"/>
        <line id="Line_326" data-name="Line 326" x2="3" transform="translate(24.698 49.288)" fill="none" stroke="#b0bbce" stroke-linecap="round" stroke-width="0.511"/>
        <line id="Line_327" data-name="Line 327" x2="16.479" transform="translate(29.896 49.288)" fill="none" stroke="#b0bbce" stroke-linecap="round" stroke-width="0.511" stroke-dasharray="6.592 2.197"/>
        <path id="Path_4309" data-name="Path 4309" d="M47.473,49.288h3v-3" fill="none" stroke="#b0bbce" stroke-linecap="round" stroke-width="0.511"/>
        <line id="Line_328" data-name="Line 328" y1="13.719" transform="translate(50.473 30.74)" fill="none" stroke="#b0bbce" stroke-linecap="round" stroke-width="0.511" stroke-dasharray="5.488 1.829"/>
        <path id="Path_4310" data-name="Path 4310" d="M50.473,29.825v-3H53.6" fill="none" stroke="#b0bbce" stroke-linecap="round" stroke-width="0.511"/>
        <path id="Path_4311" data-name="Path 4311" d="M60.939,18.3V6.307H89.114" fill="none" stroke="#b0bbce" stroke-linecap="round" stroke-width="0.511" stroke-dasharray="6 2"/>
        <path id="Path_4312" data-name="Path 4312" d="M61.572,32.059v12H78.465" fill="none" stroke="#b0bbce" stroke-linecap="round" stroke-width="0.511" stroke-dasharray="6 2"/>
        <rect id="Rectangle_895" data-name="Rectangle 895" width="10.114" height="10.114" transform="translate(54.171 26.149) rotate(-47.436)" fill="#e9f0f7"/>
        <g id="Group_1810" data-name="Group 1810" opacity="0.6">
          <g id="Group_1809" data-name="Group 1809">
            <g id="Group_1808" data-name="Group 1808" clip-path="url(#clip-path-4)">
              <rect id="Rectangle_896" data-name="Rectangle 896" width="21.297" height="11.989" rx="2.811" transform="translate(89.114 0.313)" fill="none" stroke="#b0bbce" stroke-linecap="round" stroke-width="0.626"/>
            </g>
          </g>
        </g>
        <g id="Group_1813" data-name="Group 1813" opacity="0.6">
          <g id="Group_1812" data-name="Group 1812">
            <g id="Group_1811" data-name="Group 1811" clip-path="url(#clip-path-5)">
              <rect id="Rectangle_898" data-name="Rectangle 898" width="21.297" height="11.989" rx="2.811" transform="translate(78.465 38.06)" fill="none" stroke="#b0bbce" stroke-linecap="round" stroke-width="0.626"/>
            </g>
          </g>
        </g>
        <g id="Group_1816" data-name="Group 1816" opacity="0.6">
          <g id="Group_1815" data-name="Group 1815">
            <g id="Group_1814" data-name="Group 1814" clip-path="url(#clip-path-6)">
              <rect id="Rectangle_900" data-name="Rectangle 900" width="21.297" height="11.989" rx="2.811" transform="translate(132.643 73.785)" fill="none" stroke="#b0bbce" stroke-linecap="round" stroke-width="0.626"/>
            </g>
          </g>
        </g>
        <path id="Path_4313" data-name="Path 4313" d="M111.045,6.307h32.247V73.784" fill="none" stroke="#b0bbce" stroke-linecap="round" stroke-width="0.511" stroke-dasharray="6 2"/>
        <line id="Line_329" data-name="Line 329" x2="41.102" transform="translate(99.763 44.054)" fill="none" stroke="#b0bbce" stroke-linecap="round" stroke-width="0.511" stroke-dasharray="6 2"/>
        <line id="Line_330" data-name="Line 330" y2="18.158" transform="translate(143.292 87.764)" fill="none" stroke="#b0bbce" stroke-linecap="round" stroke-width="0.511" stroke-dasharray="6 2"/>
        <rect id="Rectangle_902" data-name="Rectangle 902" width="10.114" height="10.114" transform="translate(136.147 32.144) rotate(-47.436)" fill="#e9f0f7"/>
        <path id="Path_4314" data-name="Path 4314" d="M29.857,97.731c-1.78.667-14.86,3.054-16.465,2.95a3.21,3.21,0,0,1-.816-.162l-.013.02S8.355,100,7.675,94.421c-.259-2.156,1.9-19.575,2.184-23.815.051-.712-.318-2.007-.279-2.544A11.2,11.2,0,0,0,9.088,65.1s-1.107-3.813-.6-5.335a1.635,1.635,0,0,1,1.094-.99,1.721,1.721,0,0,1,.647-1.392,1.887,1.887,0,0,1,1.217-.24,1.486,1.486,0,0,1,1.353-.854,1.634,1.634,0,0,1,1.237.666c-.007-1.068-.052-2.136-.02-3.2,0-.13.007-.259.013-.4a4.68,4.68,0,0,1,.3-1.709.7.7,0,0,1,1.061-.194,2.416,2.416,0,0,1,.674,1.858c.013.161.019.362.026.6.051,1.289.077,3.509.084,4.26.867.227,1.6,1.068,1.321,3.257A15.692,15.692,0,0,1,15.99,65.7l-.11.88-.48,4.027L16.487,88.75l11.559-1.7c.356,4.48-.6,7.622,1.811,10.684" fill="#fff"/>
        <path id="Path_4315" data-name="Path 4315" d="M29.857,97.731c-1.78.667-14.86,3.054-16.465,2.95a3.21,3.21,0,0,1-.816-.162l-.013.02S8.355,100,7.675,94.421c-.259-2.156,1.9-19.575,2.184-23.815.051-.712-.318-2.007-.279-2.544A11.2,11.2,0,0,0,9.088,65.1s-1.107-3.813-.6-5.335a1.635,1.635,0,0,1,1.094-.99,1.721,1.721,0,0,1,.647-1.392,1.887,1.887,0,0,1,1.217-.24,1.486,1.486,0,0,1,1.353-.854,1.634,1.634,0,0,1,1.237.666c-.007-1.068-.052-2.136-.02-3.2,0-.13.007-.259.013-.4a4.68,4.68,0,0,1,.3-1.709.7.7,0,0,1,1.061-.194,2.416,2.416,0,0,1,.674,1.858c.013.161.019.362.026.6.051,1.289.077,3.509.084,4.26.867.227,1.6,1.068,1.321,3.257A15.692,15.692,0,0,1,15.99,65.7l-.11.88-.48,4.027L16.487,88.75l11.559-1.7C28.4,91.527,27.442,94.669,29.857,97.731Z" fill="none" stroke="#869cb3" stroke-width="0.75"/>
        <path id="Path_4316" data-name="Path 4316" d="M91.129,125.208c-.25,5.12-4.86,8.25-9.92,9.36a19.676,19.676,0,0,1-3.39.44,9.337,9.337,0,0,1-8.73-5.67H78.7c.71-3.33,1.44-7,2.14-10.81l10.05.79a34.775,34.775,0,0,1,.24,5.89" fill="#fff"/>
        <path id="Path_4317" data-name="Path 4317" d="M91.129,125.208c-.25,5.12-4.86,8.25-9.92,9.36a19.676,19.676,0,0,1-3.39.44,9.337,9.337,0,0,1-8.73-5.67H78.7c.71-3.33,1.44-7,2.14-10.81l10.05.79A34.775,34.775,0,0,1,91.129,125.208Z" fill="none" stroke="#869cb3" stroke-width="0.75"/>
        <path id="Path_4318" data-name="Path 4318" d="M67.309,65.551c-.43.34.089,3.848-.461,3.948-.01,0-6.691,2.959-6.691,3.369a1.462,1.462,0,0,1-.13.09,8.359,8.359,0,0,1-5.67.88,16.923,16.923,0,0,1-1.84-.39v-.01c-3.22-.87-4.86-2.51-5.019-4.17a13.268,13.268,0,0,1,1.25-4.15c.049-.12.109-.24.149-.36a.2.2,0,0,1,.04-.08c.01-.03.02-.05.03-.08a1.214,1.214,0,0,0,.07-.18,2.879,2.879,0,0,0,.13-.31c.16-.37.321-.74.48-1.1-.61-.61-1.26-1.39-1.14-1.56a20.478,20.478,0,0,1,2.57-1.5l.01-.01c.13-.07.26-.14.38-.2a9.4,9.4,0,0,1,.71-1.99,9.532,9.532,0,0,1,3.76-4.13c1.58.47,6.25.549,6.86,2.139.67,1.74.935,1.8.435,3.487-.059.2,4.667,5.827,4.077,6.307" fill="#fff"/>
        <path id="Path_4319" data-name="Path 4319" d="M67.309,65.551c-.43.34.089,3.848-.461,3.948-.01,0-6.691,2.959-6.691,3.369a1.462,1.462,0,0,1-.13.09,8.359,8.359,0,0,1-5.67.88,16.923,16.923,0,0,1-1.84-.39v-.01c-3.22-.87-4.86-2.51-5.019-4.17a13.268,13.268,0,0,1,1.25-4.15c.049-.12.109-.24.149-.36a.2.2,0,0,1,.04-.08c.01-.03.02-.05.03-.08a1.214,1.214,0,0,0,.07-.18,2.879,2.879,0,0,0,.13-.31c.16-.37.321-.74.48-1.1-.61-.61-1.26-1.39-1.14-1.56a20.478,20.478,0,0,1,2.57-1.5l.01-.01c.13-.07.26-.14.38-.2a9.4,9.4,0,0,1,.71-1.99,9.532,9.532,0,0,1,3.76-4.13c1.58.47,6.25.549,6.86,2.139.67,1.74.935,1.8.435,3.487C63.173,59.444,67.9,65.071,67.309,65.551Z" fill="none" stroke="#869cb3" stroke-width="0.75"/>
        <path id="Path_4320" data-name="Path 4320" d="M52.177,57.748a9.4,9.4,0,0,0-.71,1.99c-.12.06-.25.13-.38.2.62-1.3,1.08-2.19,1.08-2.19Z" fill="#fff"/>
        <path id="Path_4321" data-name="Path 4321" d="M52.177,57.748a9.4,9.4,0,0,0-.71,1.99c-.12.06-.25.13-.38.2.62-1.3,1.08-2.19,1.08-2.19Z" fill="none" stroke="#869cb3" stroke-width="0.75"/>
        <path id="Path_4322" data-name="Path 4322" d="M62.14,84.979H54.07l-1.343-8.5-.21-2.99v-.04a16.923,16.923,0,0,0,1.84.39,8.359,8.359,0,0,0,5.67-.88,1.462,1.462,0,0,0,.13-.09,14.327,14.327,0,0,0,.23,2.38c.2,1.11.6,2.17.79,3.28.14.81,1.113,5.681.963,6.451" fill="#fff"/>
        <path id="Path_4323" data-name="Path 4323" d="M62.14,84.979H54.07l-1.343-8.5-.21-2.99v-.04a16.923,16.923,0,0,0,1.84.39,8.359,8.359,0,0,0,5.67-.88,1.462,1.462,0,0,0,.13-.09,14.327,14.327,0,0,0,.23,2.38c.2,1.11.6,2.17.79,3.28C61.317,79.338,62.29,84.209,62.14,84.979Z" fill="none" stroke="#869cb3" stroke-width="0.75"/>
        <path id="Path_4324" data-name="Path 4324" d="M95.722,123.429c-3.5-14.12-.445-30.841-13.735-37.841,1.3,1.66-6.483-3.573-10.913-3.363-5.5.26-9.288-1.743-9.068-2.553-3.225,3.426-9.206.09-9.206.09-.263.021-7.139,1.783-9.483,3.484-2.717,1.991-10.245.318-17.489,1.586.01.1-2.133,12.284-1.59,17.716,4.89.906,13.768-5.361,21.192.615,1.161,7.62-.729,27.278,1.758,32.728l32.519.247c3.208-2.371-.208-22.1.492-25.913l1.63,14.85,9.779,1.81c2.159,0,4.634-1.356,4.114-3.456" fill="#fff"/>
        <path id="Path_4325" data-name="Path 4325" d="M95.722,123.429c-3.5-14.12-.445-30.841-13.735-37.841,1.3,1.66-6.483-3.573-10.913-3.363-5.5.26-9.288-1.743-9.068-2.553-3.225,3.426-9.206.09-9.206.09-.263.021-7.139,1.783-9.483,3.484-2.717,1.991-10.245.318-17.489,1.586.01.1-2.133,12.284-1.59,17.716,4.89.906,13.768-5.361,21.192.615,1.161,7.62-.729,27.278,1.758,32.728l32.519.247c3.208-2.371-.208-22.1.492-25.913l1.63,14.85,9.779,1.81C93.767,126.885,96.242,125.529,95.722,123.429Z" fill="none" stroke="#869cb3" stroke-width="0.75"/>
        <path id="Path_4326" data-name="Path 4326" d="M37.838,167.914c.635-5.42.74-14.029,2.832-19.92,3.266-9.21,6.677-12.3,6.677-12.3H80.389a27.775,27.775,0,0,1,3.676,5.23,35.7,35.7,0,0,1,3.314,8.18c1.29,4.89,2.678,13.5,3.509,19" fill="#fff"/>
        <path id="Path_4327" data-name="Path 4327" d="M37.838,167.914c.635-5.42.74-14.029,2.832-19.92,3.266-9.21,6.677-12.3,6.677-12.3H80.389a27.775,27.775,0,0,1,3.676,5.23,35.7,35.7,0,0,1,3.314,8.18c1.29,4.89,2.678,13.5,3.509,19" fill="none" stroke="#869cb3" stroke-width="0.742"/>
        <path id="Path_4328" data-name="Path 4328" d="M84.9,92.848a1.663,1.663,0,0,1-.21.88c-1.69,2.05-5.86,3.18-10.29,3.39-5.5.26-11.42-.88-13.56-3.39-.12-.14.07-.37.11-.55.25-.93.7-1.79.87-2.74a5.8,5.8,0,0,0-.87-3.53,5.86,5.86,0,0,1-.56-2.5,9.243,9.243,0,0,1,.37-2.28c.12-.43.23-.85.31-1.26a6.33,6.33,0,0,0,.07-2.34c-.19-1.11-.59-2.17-.79-3.28a14.327,14.327,0,0,1-.23-2.38c.43-.3.42-3.33.57-3.9.03-.12.07-.23.11-.35h.01c.06.01,2.51-1.82,2.69-2.62a3.4,3.4,0,0,0-2.6-4.05,3.355,3.355,0,0,0-1.99.17,3.2,3.2,0,0,1,.13-.56c.5-1.69,1.04-3.07.37-4.81a5.254,5.254,0,0,0-3.51-3.13,9.634,9.634,0,0,1,6.19-1.32h.02a.761.761,0,0,1,.21.03.037.037,0,0,0,.03.01h.03c.58.12,1.12.25,1.63.4h.02c3.69,1.06,5.83,2.7,7.21,4.88a2.223,2.223,0,1,1,2.16,2.76,2.08,2.08,0,0,1-.93-.21,29.961,29.961,0,0,1,1.11,4.14c.4,1.93.18,5.46,1.62,6.91a17.991,17.991,0,0,1,3.1,3.59,7.86,7.86,0,0,1,1.11,4.17,6.6,6.6,0,0,0,.36,3.09,9.011,9.011,0,0,0,1.51,2.07c.42.47.83.96,1.21,1.45a10.433,10.433,0,0,1,2.49,5.49v.03a7.351,7.351,0,0,1-.08,1.74" fill="#fff"/>
        <path id="Path_4329" data-name="Path 4329" d="M84.9,92.848a1.663,1.663,0,0,1-.21.88c-1.69,2.05-5.86,3.18-10.29,3.39-5.5.26-11.42-.88-13.56-3.39-.12-.14.07-.37.11-.55.25-.93.7-1.79.87-2.74a5.8,5.8,0,0,0-.87-3.53,5.86,5.86,0,0,1-.56-2.5,9.243,9.243,0,0,1,.37-2.28c.12-.43.23-.85.31-1.26a6.33,6.33,0,0,0,.07-2.34c-.19-1.11-.59-2.17-.79-3.28a14.327,14.327,0,0,1-.23-2.38c.43-.3.42-3.33.57-3.9.03-.12.07-.23.11-.35h.01c.06.01,2.51-1.82,2.69-2.62a3.4,3.4,0,0,0-2.6-4.05,3.355,3.355,0,0,0-1.99.17,3.2,3.2,0,0,1,.13-.56c.5-1.69,1.04-3.07.37-4.81a5.254,5.254,0,0,0-3.51-3.13,9.634,9.634,0,0,1,6.19-1.32h.02a.761.761,0,0,1,.21.03.037.037,0,0,0,.03.01h.03c.58.12,1.12.25,1.63.4h.02c3.69,1.06,5.83,2.7,7.21,4.88a2.223,2.223,0,1,1,2.16,2.76,2.08,2.08,0,0,1-.93-.21,29.961,29.961,0,0,1,1.11,4.14c.4,1.93.18,5.46,1.62,6.91a17.991,17.991,0,0,1,3.1,3.59,7.86,7.86,0,0,1,1.11,4.17,6.6,6.6,0,0,0,.36,3.09,9.011,9.011,0,0,0,1.51,2.07c.42.47.83.96,1.21,1.45a10.433,10.433,0,0,1,2.49,5.49v.03A7.351,7.351,0,0,1,84.9,92.848Z" fill="none" stroke="#869cb3" stroke-width="0.75"/>
        <path id="Path_4330" data-name="Path 4330" d="M68.076,166.6l-.309-14.254a73.384,73.384,0,0,0-1.87-16.21h.43" fill="#fff"/>
        <path id="Path_4331" data-name="Path 4331" d="M68.076,166.6l-.309-14.254a73.384,73.384,0,0,0-1.87-16.21h.43" fill="none" stroke="#869cb3" stroke-width="0.75"/>
        <path id="Path_4332" data-name="Path 4332" d="M55.624,158.282a5.01,5.01,0,0,0,5.005-5.005v-5.071H50.619v5.071a5.01,5.01,0,0,0,5.005,5.005m4.672-9.743v4.738a4.672,4.672,0,1,1-9.344,0v-4.738Z" fill="#fff"/>
        <path id="Path_4333" data-name="Path 4333" d="M55.624,158.282a5.01,5.01,0,0,0,5.005-5.005v-5.071H50.619v5.071A5.01,5.01,0,0,0,55.624,158.282Zm4.672-9.743v4.738a4.672,4.672,0,1,1-9.344,0v-4.738Z" fill="none" stroke="#869cb3" stroke-width="0.589"/>
        <path id="Path_4334" data-name="Path 4334" d="M77.046,158.282a5.01,5.01,0,0,0,5.005-5.005v-5.071H72.041v5.071a5.01,5.01,0,0,0,5,5.005m4.672-9.743v4.738a4.672,4.672,0,1,1-9.344,0v-4.738Z" fill="#fff"/>
        <path id="Path_4335" data-name="Path 4335" d="M77.046,158.282a5.01,5.01,0,0,0,5.005-5.005v-5.071H72.041v5.071A5.01,5.01,0,0,0,77.046,158.282Zm4.672-9.743v4.738a4.672,4.672,0,1,1-9.344,0v-4.738Z" fill="none" stroke="#869cb3" stroke-width="0.589"/>
        <path id="Path_4336" data-name="Path 4336" d="M13.974,49.574c.166.333.439.333.605,0L15.667,47.4a3.419,3.419,0,0,0,.3-1.281V14.531a.675.675,0,0,0-.676-.674H13.265a.678.678,0,0,0-.677.676V46.121a3.414,3.414,0,0,0,.3,1.281Z" fill="#fff"/>
        <path id="Path_4337" data-name="Path 4337" d="M13.974,49.574c.166.333.439.333.605,0L15.667,47.4a3.419,3.419,0,0,0,.3-1.281V14.531a.675.675,0,0,0-.676-.674H13.265a.678.678,0,0,0-.677.676V46.121a3.414,3.414,0,0,0,.3,1.281Z" fill="none" stroke="#869cb3" stroke-width="0.5"/>
        <path id="Path_4338" data-name="Path 4338" d="M18,17V32.78c7.675-8.628,15.349,5.472,23.024-3.156V13.841C33.349,22.469,25.675,8.37,18,17" fill="#fff"/>
        <path id="Path_4339" data-name="Path 4339" d="M18,17V32.78c7.675-8.628,15.349,5.472,23.024-3.156V13.841C33.349,22.469,25.675,8.37,18,17Z" fill="none" stroke="#869cb3" stroke-width="0.5"/>
        <g id="Group_1819" data-name="Group 1819" opacity="0.85">
          <g id="Group_1818" data-name="Group 1818">
            <g id="Group_1817" data-name="Group 1817" clip-path="url(#clip-path-7)">
              <path id="Path_4340" data-name="Path 4340" d="M159.1,103.262l.812-4.741-4.742.811a9.048,9.048,0,0,0-5.968,3.85l-3.485,5.155c-.434.646.083,2.008,1.227,3.152s2.505,1.66,3.151,1.226l5.155-3.485a9.046,9.046,0,0,0,3.85-5.968" fill="#fff"/>
              <path id="Path_4341" data-name="Path 4341" d="M159.1,103.262l.812-4.741-4.742.811a9.048,9.048,0,0,0-5.968,3.85l-3.485,5.155c-.434.646.083,2.008,1.227,3.152s2.505,1.66,3.151,1.226l5.155-3.485A9.046,9.046,0,0,0,159.1,103.262Z" fill="none" stroke="#869cb3" stroke-width="0.5"/>
              <path id="Path_4342" data-name="Path 4342" d="M155.46,105.907a2.077,2.077,0,1,1,0-2.938,2.078,2.078,0,0,1,0,2.938" fill="#fff"/>
              <circle id="Ellipse_10" data-name="Ellipse 10" cx="2.077" cy="2.077" r="2.077" transform="translate(151.913 102.36)" fill="none" stroke="#869cb3" stroke-width="0.5"/>
              <path id="Path_4343" data-name="Path 4343" d="M147.709,114.839a8.406,8.406,0,0,0-2.567,3.647,10.33,10.33,0,0,1-.337-2.769l-4.222,2.128,2.128-4.222a10.33,10.33,0,0,1-2.769-.337,8.406,8.406,0,0,0,3.647-2.567" fill="#fff"/>
              <path id="Path_4344" data-name="Path 4344" d="M147.709,114.839a8.406,8.406,0,0,0-2.567,3.647,10.33,10.33,0,0,1-.337-2.769l-4.222,2.128,2.128-4.222a10.33,10.33,0,0,1-2.769-.337,8.406,8.406,0,0,0,3.647-2.567" fill="none" stroke="#869cb3" stroke-width="0.5"/>
            </g>
          </g>
        </g>
      </g>
    </g>
  </g>
</svg>
