<svg id="Group_1825" data-name="Group 1825" xmlns="http://www.w3.org/2000/svg" xmlns:xlink="http://www.w3.org/1999/xlink" width="152.99" height="162.049" viewBox="0 0 152.99 162.049">
  <defs>
    <clipPath id="clip-path">
      <rect id="Rectangle_906" data-name="Rectangle 906" width="152.99" height="162.049" fill="none"/>
    </clipPath>
  </defs>
  <g id="Group_1824" data-name="Group 1824" clip-path="url(#clip-path)">
    <path id="Path_4345" data-name="Path 4345" d="M144.147,0h0L85.174.007A8.853,8.853,0,0,0,76.331,8.85V85.328a8.853,8.853,0,0,0,8.843,8.843h58.972a8.853,8.853,0,0,0,8.844-8.843V8.843A8.853,8.853,0,0,0,144.147,0" fill="#e9f0f7"/>
    <path id="Path_4346" data-name="Path 4346" d="M146.052,51.076V27.743a2.312,2.312,0,0,0-2.312-2.311l-58.16,0a2.311,2.311,0,0,0-2.311,2.311V51.076a2.311,2.311,0,0,0,2.311,2.311h58.16a2.31,2.31,0,0,0,2.312-2.311" fill="#fff"/>
    <path id="Path_4347" data-name="Path 4347" d="M146.052,51.076V27.743a2.312,2.312,0,0,0-2.312-2.311l-58.16,0a2.311,2.311,0,0,0-2.311,2.311V51.076a2.311,2.311,0,0,0,2.311,2.311h58.16A2.31,2.31,0,0,0,146.052,51.076Z" fill="none" stroke="#869cb3" stroke-width="0.75"/>
    <path id="Path_4348" data-name="Path 4348" d="M146.052,82.745V59.412A2.312,2.312,0,0,0,143.74,57.1l-58.16,0a2.311,2.311,0,0,0-2.311,2.311V82.745a2.311,2.311,0,0,0,2.311,2.311h58.16a2.31,2.31,0,0,0,2.312-2.311" fill="#fff"/>
    <path id="Path_4349" data-name="Path 4349" d="M146.052,82.745V59.412A2.312,2.312,0,0,0,143.74,57.1l-58.16,0a2.311,2.311,0,0,0-2.311,2.311V82.745a2.311,2.311,0,0,0,2.311,2.311h58.16A2.31,2.31,0,0,0,146.052,82.745Z" fill="none" stroke="#869cb3" stroke-width="0.75"/>
    <path id="Path_4350" data-name="Path 4350" d="M128.955,34.016H100.7a2.025,2.025,0,1,1,0-4.05h28.258a2.025,2.025,0,0,1,0,4.05" fill="#869cb3"/>
    <path id="Path_4351" data-name="Path 4351" d="M114.536,14.02H86.278a2.025,2.025,0,1,1,0-4.05h28.258a2.025,2.025,0,0,1,0,4.05" fill="#869cb3"/>
    <path id="Path_4352" data-name="Path 4352" d="M114.731,42.267H100.7a1.736,1.736,0,1,1,0-3.472h14.035a1.736,1.736,0,0,1,0,3.472" fill="#e9f0f7"/>
    <path id="Path_4353" data-name="Path 4353" d="M141.615,74.619H127.579a1.736,1.736,0,1,1,0-3.472h14.036a1.736,1.736,0,0,1,0,3.472" fill="#e9f0f7"/>
    <path id="Path_4354" data-name="Path 4354" d="M129.722,42.267H119.644a1.736,1.736,0,1,1,0-3.472h10.078a1.736,1.736,0,0,1,0,3.472" fill="#e9f0f7"/>
    <path id="Path_4355" data-name="Path 4355" d="M141.878,51.006H131.8a1.736,1.736,0,1,1,0-3.472h10.078a1.736,1.736,0,0,1,0,3.472" fill="#e9f0f7"/>
    <path id="Path_4356" data-name="Path 4356" d="M142.794,83.094H132.716a1.736,1.736,0,1,1,0-3.472h10.078a1.736,1.736,0,0,1,0,3.472" fill="#e9f0f7"/>
    <path id="Path_4357" data-name="Path 4357" d="M118.109,67.937H100.985a2.025,2.025,0,1,1,0-4.05h17.124a2.025,2.025,0,1,1,0,4.05" fill="#869cb3"/>
    <path id="Path_4358" data-name="Path 4358" d="M123.176,74.619h-22.22a1.736,1.736,0,0,1,0-3.472h22.22a1.736,1.736,0,0,1,0,3.472" fill="#e9f0f7"/>
    <path id="Path_4359" data-name="Path 4359" d="M47.861,54.136c5.518-4.7,7.539-12.15,1.9-17.27-1.37-1.243-3.622-1.064-6.335-1.888-7.915-4.229-21.36-3.487-25.518,5.613C12.829,51.7,14.5,58.006,9.165,67c-2.218,3.737-7.936,7.68-7.056,11.8s2.319,4.366.882,6.418A11.624,11.624,0,0,0,.48,94.329c.534,4.71,3.93,11.416,9.969,12.807s33.007-.56,36.44-2.866a6.423,6.423,0,0,0,2.075-8.453c-.815-1.586-2.633-3.084-2.437-4.911s4.91-2.437,4.99-8.332-2.549-9.055-2.98-11.842S39.4,55.8,47.861,54.136" fill="#fff"/>
    <path id="Path_4360" data-name="Path 4360" d="M47.861,54.136c5.518-4.7,7.539-12.15,1.9-17.27-1.37-1.243-3.622-1.064-6.335-1.888-7.915-4.229-21.36-3.487-25.518,5.613C12.829,51.7,14.5,58.006,9.165,67c-2.218,3.737-7.936,7.68-7.056,11.8s2.319,4.366.882,6.418A11.624,11.624,0,0,0,.48,94.329c.534,4.71,3.93,11.416,9.969,12.807s33.007-.56,36.44-2.866a6.423,6.423,0,0,0,2.075-8.453c-.815-1.586-2.633-3.084-2.437-4.911s4.91-2.437,4.99-8.332-2.549-9.055-2.98-11.842S39.4,55.8,47.861,54.136Z" fill="none" stroke="#869cb3" stroke-width="0.75"/>
    <path id="Path_4361" data-name="Path 4361" d="M38.5,89.443c13.416,6.022,11.988,20.3,17.272,42.294,0,0,13.563-2.148,16.665-2.148,7.488,0,14.472,3.1,12.333,5.615-4.049,4.753-26.713,13.761-32.654,12.976-10.125-1.337-14.766-21.87-15.052-26.868-.2-3.537,4.814-29.8,1.436-31.869" fill="#fff"/>
    <path id="Path_4362" data-name="Path 4362" d="M38.5,89.443c13.416,6.022,11.988,20.3,17.272,42.294,0,0,13.563-2.148,16.665-2.148,7.488,0,14.472,3.1,12.333,5.615-4.049,4.753-26.713,13.761-32.654,12.976-10.125-1.337-14.766-21.87-15.052-26.868C36.863,117.775,41.879,91.509,38.5,89.443Z" fill="none" stroke="#869cb3" stroke-width="0.75"/>
    <path id="Path_4363" data-name="Path 4363" d="M50.73,161.969c-.011-1.16-1.1-8.7-1.068-9.841a87.811,87.811,0,0,1,1.624-16.177c1.1-3.993,3.165-4.876,4.358-9.263,1.585-5.841-3.583-9.417-4.724-18.675-.485-3.934-.025-12.278-9.829-17.466-5.926-2.251-26.067-.721-26.067-.721C6.995,93.5,3.342,97.737,3.342,103.7a230.68,230.68,0,0,0,3.236,35.045c.841,5.214,2.984,17.228,4.3,23.223" fill="#fff"/>
    <path id="Path_4364" data-name="Path 4364" d="M50.73,161.969c-.011-1.16-1.1-8.7-1.068-9.841a87.811,87.811,0,0,1,1.624-16.177c1.1-3.993,3.165-4.876,4.358-9.263,1.585-5.841-3.583-9.417-4.724-18.675-.485-3.934-.025-12.278-9.829-17.466-5.926-2.251-26.067-.721-26.067-.721C6.995,93.5,3.342,97.737,3.342,103.7a230.68,230.68,0,0,0,3.236,35.045c.841,5.214,2.984,17.228,4.3,23.223" fill="none" stroke="#869cb3" stroke-width="0.75"/>
    <path id="Path_4365" data-name="Path 4365" d="M22.852,85.568c.31-.991,1.237-14.007,1.47-18.7l13.4,8.076c-1.167.353-2.581,4.76-2.744,10.978-.04,1.531,5.737,4.031,6.3,4.822,2.318,3.237,1.495,13.835-7.451,12.765S18.847,91.279,15.024,89.826c2.064-1.3,7.446-3.035,7.828-4.258" fill="#fff"/>
    <path id="Path_4366" data-name="Path 4366" d="M22.852,85.568c.31-.991,1.237-14.007,1.47-18.7l13.4,8.076c-1.167.353-2.581,4.76-2.744,10.978-.04,1.531,5.737,4.031,6.3,4.822,2.318,3.237,1.495,13.835-7.451,12.765S18.847,91.279,15.024,89.826C17.088,88.526,22.47,86.791,22.852,85.568Z" fill="none" stroke="#869cb3" stroke-width="0.75"/>
    <path id="Path_4367" data-name="Path 4367" d="M43.331,38.373c-2.594,8.291-14.23,6.907-16.28,12.593a4.786,4.786,0,0,0-.251,1.617,30.187,30.187,0,0,1-.535,5.943c-.108-.225-.218-.45-.333-.68-2.14-4.269-6.231-3.166-6.63.541-.305,2.835,2.237,6.64,5.127,7.13-1.045,2.675,6.362,8.551,6.362,8.551a13.538,13.538,0,0,0,5.832,3.9,11.813,11.813,0,0,0,1.755.446c4.361.712,7.061-.78,8.677-3.925,1.822-3.545,4.11-7.88,4.176-9.851.2-6.055-.785-4.765.308-11.009.434-6.624-1.441-12.824-8.208-15.259" fill="#fff"/>
    <path id="Path_4368" data-name="Path 4368" d="M43.331,38.373c-2.594,8.291-14.23,6.907-16.28,12.593a4.786,4.786,0,0,0-.251,1.617,30.187,30.187,0,0,1-.535,5.943c-.108-.225-.218-.45-.333-.68-2.14-4.269-6.231-3.166-6.63.541-.305,2.835,2.237,6.64,5.127,7.13-1.045,2.675,6.362,8.551,6.362,8.551a13.538,13.538,0,0,0,5.832,3.9,11.813,11.813,0,0,0,1.755.446c4.361.712,7.061-.78,8.677-3.925,1.822-3.545,4.11-7.88,4.176-9.851.2-6.055-.785-4.765.308-11.009C51.973,47.008,50.1,40.808,43.331,38.373Z" fill="none" stroke="#869cb3" stroke-width="0.75"/>
    <path id="Path_4369" data-name="Path 4369" d="M39.96,141.267c2.693.192,4.947.661,6.673-.92s1.919-10.172.188-11.006-5-.9-5.963,1.667-.9,10.259-.9,10.259" fill="#fff"/>
    <path id="Path_4370" data-name="Path 4370" d="M39.96,141.267c2.693.192,4.947.661,6.673-.92s1.919-10.172.188-11.006-5-.9-5.963,1.667S39.96,141.267,39.96,141.267Z" fill="none" stroke="#869cb3" stroke-width="0.75"/>
    <path id="Path_4371" data-name="Path 4371" d="M42.159,129.375a2.215,2.215,0,0,1,.992-.941c2.921-1.485,9.052-8.139,10.35-9.293,1.347-1.2,8.777-5.54,9.5-5.317a1.813,1.813,0,0,1,1.206,1.918c-.012,1.031-7.174,4.471-8.415,5.836,2.209,1.174,3.979,5.083,4.486,5.867s-.155,4.047-.793,4.474-4.721,2.248-5.052,1.97a3.982,3.982,0,0,1-.635-1.346s-8.271,4.9-11.409,4.43c-2.637-.4-1.344-5.42-.229-7.6" fill="#fff"/>
    <path id="Path_4372" data-name="Path 4372" d="M42.159,129.375a2.215,2.215,0,0,1,.992-.941c2.921-1.485,9.052-8.139,10.35-9.293,1.347-1.2,8.777-5.54,9.5-5.317a1.813,1.813,0,0,1,1.206,1.918c-.012,1.031-7.174,4.471-8.415,5.836,2.209,1.174,3.979,5.083,4.486,5.867s-.155,4.047-.793,4.474-4.721,2.248-5.052,1.97a3.982,3.982,0,0,1-.635-1.346s-8.271,4.9-11.409,4.43C39.751,136.576,41.044,131.553,42.159,129.375Z" fill="none" stroke="#869cb3" stroke-width="0.75"/>
    <path id="Path_4373" data-name="Path 4373" d="M66.558,104.431l32.1-.031a1.819,1.819,0,0,1,1.617,2.455L87.054,134.986a2.125,2.125,0,0,1-2.143,1.2l-30.4.263c-1.844-.251-2.462-1.446-1.986-2.576l11.89-28.242a2.055,2.055,0,0,1,2.143-1.2" fill="#869cb3"/>
    <path id="Path_4374" data-name="Path 4374" d="M67.566,105.313l31.752-.079a1.065,1.065,0,0,1,.96,1.621L88.4,135.17a2.126,2.126,0,0,1-2.142,1.2l-31.752.078a1.126,1.126,0,0,1-.96-1.62l11.874-28.315a2.1,2.1,0,0,1,2.142-1.2" fill="#fff"/>
    <path id="Path_4375" data-name="Path 4375" d="M67.566,105.313l31.752-.079a1.065,1.065,0,0,1,.96,1.621L88.4,135.17a2.126,2.126,0,0,1-2.142,1.2l-31.752.078a1.126,1.126,0,0,1-.96-1.62l11.874-28.315A2.1,2.1,0,0,1,67.566,105.313Z" fill="none" stroke="#869cb3" stroke-width="0.75"/>
    <path id="Path_4376" data-name="Path 4376" d="M66.555,109.1c.318-.853.947-1.566,1.4-1.592s.571.645.253,1.5-.946,1.567-1.4,1.592-.571-.645-.253-1.5" fill="#fff"/>
    <path id="Path_4377" data-name="Path 4377" d="M66.555,109.1c.318-.853.947-1.566,1.4-1.592s.571.645.253,1.5-.946,1.567-1.4,1.592S66.237,109.951,66.555,109.1Z" fill="none" stroke="#869cb3" stroke-width="0.75"/>
    <path id="Path_4378" data-name="Path 4378" d="M77.173,120.274c.625-1.679,1.862-3.081,2.761-3.132s1.124,1.269.5,2.948-1.862,3.081-2.762,3.132-1.122-1.269-.5-2.948" fill="#869cb3"/>
    <path id="Path_4379" data-name="Path 4379" d="M96.476,124.394a4.865,4.865,0,0,0-.275-.766.273.273,0,0,1-.021-.042,6.024,6.024,0,0,0-.848-1.148c-.655-.75-1.418-1.451-1.418-1.451l-1.88-2.06a12.015,12.015,0,0,0-1.209-1.126,17.4,17.4,0,0,0-3.806-2.258c-.426.043-1.618,1.208-.816,2.2.788.978,4.325,3.594,4.738,5.027,0,0-4.505-4.148-6.913-4.677-1.013-.221-2.144,1.472-1.063,2.764.069.232-.747.979-.558,1.872.419,2.013,1.293,3.006,1.491,4.109-.649.566-.656,1.135.092,2.1.625.794,2.913,3.293,3.789,4.211a5.3,5.3,0,0,0,.494.452,5.861,5.861,0,0,1,.474.773c.673.563,5.336-.774,6.73-3.627a9.38,9.38,0,0,0,1-6.353" fill="#fff"/>
    <path id="Path_4380" data-name="Path 4380" d="M96.476,124.394a4.865,4.865,0,0,0-.275-.766.273.273,0,0,1-.021-.042,6.024,6.024,0,0,0-.848-1.148c-.655-.75-1.418-1.451-1.418-1.451l-1.88-2.06a12.015,12.015,0,0,0-1.209-1.126,17.4,17.4,0,0,0-3.806-2.258c-.426.043-1.618,1.208-.816,2.2.788.978,4.325,3.594,4.738,5.027,0,0-4.505-4.148-6.913-4.677-1.013-.221-2.144,1.472-1.063,2.764.069.232-.747.979-.558,1.872.419,2.013,1.293,3.006,1.491,4.109-.649.566-.656,1.135.092,2.1.625.794,2.913,3.293,3.789,4.211a5.3,5.3,0,0,0,.494.452,5.861,5.861,0,0,1,.474.773c.673.563,5.336-.774,6.73-3.627A9.38,9.38,0,0,0,96.476,124.394Z" fill="none" stroke="#869cb3" stroke-width="0.75"/>
    <path id="Path_4381" data-name="Path 4381" d="M4.372,98.719c-4.465,12.115,1.82,40.292,4.842,47.961,1.677,4.255,4.428,9.3,8.069,8.9,10.2-1.121,23.57-10.527,29.349-15.23-2.648,2.381-5.608-9.468-3.016-12.22-8.139,5.02-18.842,6.7-21.313,9.762,0,0-1.048-10.249-2.886-22.813l-1.357-2.309" fill="#fff"/>
    <path id="Path_4382" data-name="Path 4382" d="M4.372,98.719c-4.465,12.115,1.82,40.292,4.842,47.961,1.677,4.255,4.428,9.3,8.069,8.9,10.2-1.121,23.57-10.527,29.349-15.23-2.648,2.381-5.608-9.468-3.016-12.22-8.139,5.02-18.842,6.7-21.313,9.762,0,0-1.048-10.249-2.886-22.813l-1.357-2.309" fill="none" stroke="#869cb3" stroke-width="0.75"/>
    <path id="Path_4383" data-name="Path 4383" d="M16.011,141.635a6.372,6.372,0,0,1,2.171-2.54,6.1,6.1,0,0,1,1.453-.722,7.692,7.692,0,0,0,1.693-.6,15.241,15.241,0,0,0-3.584.906c-.429.165-.615-.524-.19-.687a15.781,15.781,0,0,1,4.593-1.015.3.3,0,0,1,.339.282.321.321,0,0,1-.013.333c-.668,1.114-1.868,1.134-2.963,1.594a5.62,5.62,0,0,0-2.883,2.812c-.2.413-.814.052-.616-.36" fill="#869cb3"/>
    <path id="Path_4384" data-name="Path 4384" d="M92.35,36.762H87.227A2.071,2.071,0,0,1,85.162,34.7V29.574a2.071,2.071,0,0,1,2.065-2.065H92.35a2.071,2.071,0,0,1,2.065,2.065V34.7a2.071,2.071,0,0,1-2.065,2.065" fill="#e9f0f7"/>
    <path id="Path_4385" data-name="Path 4385" d="M89.859,35.439a6.575,6.575,0,0,1-2.281-1.887c-.878-.981-1.444-1.777-1.652-2l1.425-.624a16.41,16.41,0,0,0,1.207,1.745,6.267,6.267,0,0,0,1.11,1.07.725.725,0,0,0,1.026-.213c.643-1.034,1.571-3,2.147-4.169,1.728-3.515,2.97-5.881,4.433-6.661l.416,1.585c-1,.531-2.479,3.553-3.563,5.76-1.842,3.761-2.784,5.534-4.255,5.4l-.013,0" fill="#869cb3"/>
    <path id="Path_4386" data-name="Path 4386" d="M93.114,69.316H87.991a2.071,2.071,0,0,1-2.065-2.065V62.128a2.071,2.071,0,0,1,2.065-2.065h5.123a2.071,2.071,0,0,1,2.065,2.065v5.123a2.071,2.071,0,0,1-2.065,2.065" fill="#e9f0f7"/>
    <path id="Path_4387" data-name="Path 4387" d="M127.307,49.269a.946.946,0,1,0-.945-.945.945.945,0,0,0,.945.945m0,.473c-.631,0-1.891.317-1.891.945v.473H129.2v-.473c0-.628-1.26-.945-1.891-.945" fill="#869cb3"/>
    <path id="Path_4388" data-name="Path 4388" d="M127.983,81.357a.945.945,0,1,0-.945-.945.944.944,0,0,0,.945.945m0,.473c-.631,0-1.891.317-1.891.946v.473h3.782v-.473c0-.629-1.26-.946-1.891-.946" fill="#869cb3"/>
    <path id="Path_4389" data-name="Path 4389" d="M90.84,66.861a6.575,6.575,0,0,1-2.281-1.887c-.878-.981-1.444-1.777-1.652-2l1.425-.624A16.41,16.41,0,0,0,89.539,64.1a6.267,6.267,0,0,0,1.11,1.07.725.725,0,0,0,1.026-.213c.643-1.034,1.571-3,2.147-4.169,1.728-3.515,2.97-5.881,4.433-6.661l.416,1.585c-1,.531-2.479,3.553-3.563,5.76C93.266,65.23,92.324,67,90.853,66.864l-.013,0" fill="#869cb3"/>
  </g>
</svg>
