<?xml version="1.0" encoding="UTF-8"?><svg id="a" xmlns="http://www.w3.org/2000/svg" viewBox="0 0 24 24"><path d="M5.17,15.72l1.09-1.22-3.02-5.28,2.7-1.53.29.52,5.85-3.31-.29-.52,2.27-1.29,1.06,1.91,1.07-1.22-1.55-2.78-3.6,2.04-.47-.84c-.1-.19-.34-.25-.52-.15l-1.09.62-.4-.71c-.05-.1-.18-.13-.27-.08l-2.67,1.51c-.1.05-.13.18-.08.27l.4.71-1.08.61c-.18.1-.25.34-.15.53l.47.84-4.03,2.28,4.01,7.09ZM7.86,2.95c.62,0,1.13.51,1.13,1.13s-.51,1.13-1.13,1.13-1.13-.51-1.13-1.13.51-1.13,1.13-1.13Z" style="fill:#fff; fill-rule:evenodd;"/><path d="M18.85,8.46l-1.09,1.18,1.03,1.9c1,1.79.37,4.07-1.41,5.08h0l-7.54,4.25-.81-1.45-1.15,1.23,1.33,2.36,8.92-5.05h0c2.52-1.42,3.41-4.64,1.99-7.17l-1.27-2.32Z" style="fill:#fff; fill-rule:evenodd;"/><path d="M16.65,5.62c-1.43.92-4.4,4.07-5.96,5.71-1.79,1.89-6.02,7.57-6.02,7.57l-2.38-2.45-1.29,1.41,3.89,4.22s5.45-6.8,6.52-7.97c1.48-1.6,4.96-5.28,5.96-6.29,3.2-3.23,6.58.36,4.23,3.75.1.09.23.31.32.4,2.99-4.17-.77-9.26-5.28-6.36Z" style="fill:#fff; fill-rule:evenodd;"/><path d="M5.17,15.72l1.09-1.22-3.02-5.28,2.7-1.53.29.52,5.85-3.31-.29-.52,2.27-1.29,1.06,1.91,1.07-1.22-1.55-2.78-3.6,2.04-.47-.84c-.1-.19-.34-.25-.52-.15l-1.09.62-.4-.71c-.05-.1-.18-.13-.27-.08l-2.67,1.51c-.1.05-.13.18-.08.27l.4.71-1.08.61c-.18.1-.25.34-.15.53l.47.84-4.03,2.28,4.01,7.09ZM7.86,2.95c.62,0,1.13.51,1.13,1.13s-.51,1.13-1.13,1.13-1.13-.51-1.13-1.13.51-1.13,1.13-1.13Z" style="fill:#ee6d65; fill-rule:evenodd;"/><path d="M18.85,8.46l-1.09,1.18,1.03,1.9c1,1.79.37,4.07-1.41,5.08h0l-7.54,4.25-.81-1.45-1.15,1.23,1.33,2.36,8.92-5.05h0c2.52-1.42,3.41-4.64,1.99-7.17l-1.27-2.32Z" style="fill:#ee6d65; fill-rule:evenodd;"/><path d="M16.65,5.62c-1.43.92-4.4,4.07-5.96,5.71-1.79,1.89-6.02,7.57-6.02,7.57l-2.38-2.45-1.29,1.41,3.89,4.22s5.45-6.8,6.52-7.97c1.48-1.6,4.96-5.28,5.96-6.29,3.2-3.23,6.58.36,4.23,3.75.1.09.23.31.32.4,2.99-4.17-.77-9.26-5.28-6.36Z" style="fill:#ee6d65; fill-rule:evenodd;"/></svg>