<svg xmlns="http://www.w3.org/2000/svg" xmlns:xlink="http://www.w3.org/1999/xlink" viewBox="0 0 140 60"><defs><style>.a,.f,.g,.l,.n,.p,.r,.s{fill:none;}.b,.i,.m{fill:#fff;}.b,.l,.m,.n{stroke:#869cb3;}.b,.f,.g,.l,.m,.n,.p,.r,.s{stroke-miterlimit:10;}.b,.l,.m{stroke-width:0.5px;}.c{isolation:isolate;}.d{clip-path:url(#a);}.e{fill:#e9f0f7;}.f,.g,.p,.r,.s{stroke:#b0bbce;}.f{opacity:0.23;}.g{opacity:0.26;}.h{fill:#dfe5ea;}.j{fill:#869cb3;}.k{clip-path:url(#b);}.m{mix-blend-mode:multiply;}.n,.p,.r{stroke-linecap:round;}.o{opacity:0.74;}.q{opacity:0.45;}.r,.s{stroke-width:0.63px;}.t{opacity:0.32;}</style><clipPath id="a"><rect class="a" x="0.44" width="140" height="60"/></clipPath><clipPath id="b"><path class="b" d="M48.89,29.61c-6-5.45-12.14-17.78-13.57-20.1-.15-.25-.86-1.29-1-1.43-.43-.52-15.42,5-15.38,5.14C19.74,15.79,25,30.9,33.43,38.88,44.23,49.14,63.19,41,63.19,41l18-6.68C69,36.47,59.44,39.22,48.89,29.61Z"/></clipPath></defs><g class="c"><g class="d"><rect class="e" x="9.57" y="14.45" width="84.86" height="36.77" rx="7.55"/><path class="f" d="M2.48,42.2a6.19,6.19,0,0,0,6.67,0h0a6.21,6.21,0,0,1,6.68,0h0a6.19,6.19,0,0,0,6.67,0h0a6.19,6.19,0,0,1,6.67,0h0a6.19,6.19,0,0,0,6.67,0h0a6.21,6.21,0,0,1,6.68,0h0a6.19,6.19,0,0,0,6.67,0"/><path class="g" d="M84.37,50.09a6.19,6.19,0,0,0,6.67,0h0a6.19,6.19,0,0,1,6.67,0h0a6.19,6.19,0,0,0,6.67,0h0a6.19,6.19,0,0,1,6.67,0h0a6.19,6.19,0,0,0,6.67,0h0a6.21,6.21,0,0,1,6.68,0h0a6.19,6.19,0,0,0,6.67,0"/><path class="h" d="M82.36,51c.12.43-1.79,1-2.46,1.26-2.3.87-22,7.31-22,7.31a7.32,7.32,0,0,1-1.76-1.14l-.1-.08c-.38-.3-.77-.64-1.16-1l0,0,0,0h0l-8.74-10-.61-.69h0l-.47.15-.48.23-.07-.06-.33.1a1.53,1.53,0,0,1,.61.35l-1,.12,5.74,6.56c-4.07-.39-17.74-1-19.65-.49a.82.82,0,0,1-1.07.06,1.57,1.57,0,0,1-.62-1.59v0a3.92,3.92,0,0,1,.9-1.75,2.16,2.16,0,0,0,.86-.45c.19-.15.42-.3.62-.45,3.27-1.4,7.87-2.26,11.8-3.46l1-.33.08,0c.3-.09.59-.2.87-.31l.18-.06c.25-.09.5-.19.74-.3a10.07,10.07,0,0,0,1-.44h1.16c.71,0,1.47,0,2.27.08s1.42.1,2.16.16l2.12.22h0c4,.47,8.38,1.19,11.81,1.82L67.55,46l1.86-.7.91-.34L75.55,43c1.47.07,2.94.16,4.41.26l-8.59,2.88-.93.32-1.91.64-.22.07.34.07.55.11.75.16c.85.18,1.46.33,1.76.4l.14,0a17.26,17.26,0,0,1,1.67.64A23.28,23.28,0,0,0,77.15,50C79,50.42,82.12,50,82.36,51Z"/><polygon class="b" points="82.5 33.42 83.34 33.01 84.12 35.28 83.28 35.68 82.5 33.42"/><polygon class="b" points="62.16 19.01 63 18.6 64.4 19.78 63.55 20.19 62.16 19.01"/><polygon class="b" points="44.56 46.9 44.49 47 44.42 46.94 44.56 46.9"/><polygon class="b" points="46.19 44.62 46.05 44.8 46.05 44.81 45.36 45.02 45.3 45.04 45.2 44.92 46.19 44.62"/><path class="b" d="M55.21,31.92l-.25.36-.84,1.18c-.52-.29-1-.6-1.55-1l1-1.38.44-.61Z"/><path class="b" d="M47,43.47l-.13.18,0,.05h-.12l-2,.64-.69.21.13-.18.26-.37.28-.39c.54,0,1.08.07,1.62.08Z"/><polygon class="b" points="63.55 20.2 56.86 29.6 55.63 28.2 62.16 19.02 63.55 20.2"/><path class="b" d="M19.38,13.88l-1.12.29-.56-.64,1.19-.3H19a1.17,1.17,0,0,1,.35.43C19.33,13.72,19.35,13.8,19.38,13.88Z"/><path class="b" d="M35.7,9.65l-.26.07-.12-.21A1.66,1.66,0,0,0,35,9.15l.23-.06Z"/><path class="b" d="M19.66,14.75l-.73.19-.67-.77,1.12-.29C19.45,14.11,19.54,14.4,19.66,14.75Z"/><path class="b" d="M36.41,10.45l-.48.13c-.19-.34-.35-.63-.49-.86l.26-.07Z"/><path class="b" d="M62.69,36.25c-.46,0-.92-.12-1.38-.2h0l-4.67-5.34-.31-.35L55.09,29,33.85,4.71l.77-.5,21,24,1.23,1.4.31.35Z"/><polygon class="b" points="75.61 51 74.84 51.5 66.41 41.88 65.78 41.16 65.78 41.15 65.61 40.96 64.81 40.05 64.76 39.99 64.69 39.91 64.4 39.58 64.36 39.54 64.05 39.18 63.95 39.07 63.94 39.06 64.11 39.02 64.19 38.99 64.9 38.77 64.91 38.79 64.92 38.79 65 38.89 65.31 39.24 65.37 39.31 65.66 39.64 65.73 39.73 65.74 39.73 65.78 39.78 66.53 40.63 66.73 40.86 75.61 51"/><polygon class="b" points="74.84 51.49 75.61 51 74.25 52.26 73.48 52.77 74.84 51.49"/><path class="b" d="M61.3,36.05a21.16,21.16,0,0,1-3.16-.79l-2.62-3-.31-.35L54,30.52h0L36.41,10.45l-.71-.8-.48-.56-2-2.3a1.05,1.05,0,0,1,0-1.44l.68-.64L55.09,29l1.23,1.4.31.35Z"/><path class="b" d="M63,38.48l-.84.4.23.68.05.13.27-.08a.54.54,0,0,0,0,.25.53.53,0,0,0,.13.23l-.25.11.08.23-.16-.19-.4-.45-.1-.12-.52-.59L61.4,39Z"/><path class="b" d="M74.84,51.5l-1.36,1.27-3.47-4L69.32,48l-.47-.54-4.62-5.27-.39-.45-.1-.11L63.19,41l.57-.28-.13-.38,0-.07,0-.09-.13-.37-.11,0,.1,0-.14-.4,0-.14-.17,0,.14-.07h0l.69-.19h0l.1.11.31.36,0,0,.29.33.07.08,0,.06.8.91.17.19h0l.63.72Z"/><polygon class="b" points="46.9 44.39 46.89 44.41 46.77 44.58 46.05 44.8 46.05 44.81 45.36 45.02 45.3 45.04 45.2 44.92 46.19 44.62 46.2 44.61 46.9 44.39"/><polygon class="b" points="62.37 39.56 62.42 39.69 62.11 39.79 62.01 39.67 62.37 39.56"/><path class="b" d="M83.34,33l-.85.41-5.25,1.64-9.07,2.83-.26.08-1.36.43L65,38.89l-1,.29-.75.24,0-.14.69-.21.16,0,.08,0,.71-.22,11.23-3.51h0Z"/><path class="b" d="M43.24,47h-.05l0-.12Z"/><polygon class="b" points="46.05 44.8 46.05 44.81 45.36 45.02 46.05 44.8"/><polygon class="b" points="44.97 46.77 44.49 47 44.42 46.94 44.56 46.9 44.57 46.89 44.97 46.77"/><polygon class="b" points="45.44 46.62 44.97 46.77 45.34 46.59 45.38 46.54 45.44 46.62"/><polygon class="b" points="45.97 45.8 45.88 45.83 45.93 45.76 45.97 45.8"/><path class="b" d="M62.51,40.24l-.4-.45.31-.1.27-.08a.54.54,0,0,0,0,.25.53.53,0,0,0,.13.23l-.25.11.08.23Z"/><path class="b" d="M83.27,35.69,66.73,40.86l-1,.29h0l-1.94.6-2.72.85-.09,0-7.16,2.23L47,47l-1,.3-.61-.69,1-.3h0l5.32-1.66,11.18-3.49-.21-.62,0-.1.09.09.43.5.57-.28-.13-.38,0-.07,0-.09-.13-.37-.11,0,.1,0-.14-.4.75-.24,1-.29,1.55-.49L67.91,38l.26-.08,9.07-2.83,5.25-1.64Z"/><path class="b" d="M32.62,34.9l1,1.12-1.25,1.77a52.36,52.36,0,0,1-8.55-13Z"/><path class="b" d="M35.3,33.63l-.55.78-.2-.23L21.2,19c-.37-.92-.68-1.76-.95-2.5Z"/><path class="b" d="M36.84,35.38,44,43.54c-.47,0-.94-.12-1.41-.2l-6.3-7.18-1.14,1.61,4.09,4.68A16.58,16.58,0,0,1,34,39.38l-.33-.3,1.17-1.65L36,35.81l.55-.78,6.66-9.36L41.8,24.48l.85-.41L44,25.25Z"/><path class="b" d="M63,38.48l-.84.4.23.68.05.13.27-.08a.54.54,0,0,0,0,.25.53.53,0,0,0,.13.23l-.25.11-.08,0-.4-.45-.1-.12-.52-.59-13.9,4.35-.72.22,0,.05h-.55l.71-.22.71-.22h0L61.4,39Z"/><path class="b" d="M18.89,12.86h0"/><polygon class="i" points="52.13 52.95 69.53 47.26 69.81 47.34 52.34 53.15 52.13 52.95"/><polygon class="j" points="69.53 47 51.68 52.83 52.26 53.44 70.66 47.32 69.53 47 69.53 47"/><polygon class="b" points="70.39 47.68 70.44 48.67 52.99 54.18 52.26 53.44 70.39 47.68"/><path class="i" d="M48.89,29.61c-6-5.45-12.14-17.78-13.57-20.1-.15-.25-.86-1.29-1-1.43-.43-.52-15.42,5-15.38,5.14C19.74,15.79,25,30.9,33.43,38.88,44.23,49.14,63.19,41,63.19,41l18-6.68C69,36.47,59.44,39.22,48.89,29.61Z"/><g class="k"><path class="b" d="M48,32.64C38.45,25.13,32.68,8.47,32.62,8.31l-3,1.12c.26.71,5.19,17.25,15.88,24.92,12.49,8.95,35.28.45,35.28.45C80.57,34.85,60.68,42.53,48,32.64Z"/><path class="b" d="M39.88,35.68C30,27.88,25.05,10.48,25,10.3l-3.16,1c.24.74,5.21,18.39,16,26.63C49,46.41,73.68,39.62,73.68,39.62,73.47,39.67,51.56,44.92,39.88,35.68Z"/></g><path class="l" d="M48.89,29.61c-6-5.45-12.14-17.78-13.57-20.1-.15-.25-.86-1.29-1-1.43-.43-.52-15.42,5-15.38,5.14C19.74,15.79,25,30.9,33.43,38.88,44.23,49.14,63.19,41,63.19,41l18-6.68C69,36.47,59.44,39.22,48.89,29.61Z"/><g class="c"><polygon class="b" points="35.3 33.63 34.75 34.41 34.55 34.18 21.2 18.95 13.54 10.2 14.33 9.69 17.7 13.53 18.26 14.17 18.93 14.94 20.25 16.45 35.3 33.63"/><polygon class="b" points="44.69 44.34 44 44.55 43.71 44.64 43.62 44.53 42.58 43.34 36.28 36.16 35.98 35.81 36.53 35.03 36.84 35.38 43.99 43.54 44.39 44 44.59 44.23 44.69 44.34"/><polygon class="b" points="45.97 45.8 45.88 45.83 45.93 45.76 45.97 45.8"/><polygon class="b" points="56.63 57.97 55.84 58.48 54.86 57.37 54.83 57.34 54.81 57.32 54.8 57.31 46.06 47.31 45.45 46.62 46.42 46.32 47.02 47 47.03 47.01 52.04 52.73 52.57 53.34 53.24 54.1 56.63 57.97"/><polygon class="b" points="56.63 57.97 55.22 59.28 54.43 59.8 55.84 58.48 56.63 57.97"/><path class="b" d="M34.75,34.41,33.6,36l-1-1.12L23.8,24.83c-1-2.12-1.91-4.14-2.6-5.88L34.55,34.18Z"/><path class="b" d="M23.8,24.83l-11-12.51a1.07,1.07,0,0,1,0-1.46l.71-.66L21.2,19C21.89,20.69,22.76,22.71,23.8,24.83Z"/><polygon class="b" points="43.62 44.53 41.6 45.16 39.23 42.45 35.14 37.77 36.28 36.16 42.58 43.34 43.62 44.53"/><polygon class="b" points="36.28 36.16 35.14 37.77 34.83 37.43 35.98 35.81 36.28 36.16"/><polygon class="b" points="55.84 58.48 54.43 59.8 49.41 54.07 43.67 47.51 43.44 47.25 44.09 47.04 44.42 46.94 44.49 47 44.97 46.77 45.44 46.62 45.45 46.62 46.06 47.31 54.8 57.31 54.81 57.32 54.83 57.34 54.86 57.37 55.84 58.48"/><polygon class="b" points="43.71 44.64 41.7 45.27 41.6 45.16 43.62 44.53 43.71 44.64"/><path class="b" d="M44.09,47l-.65.21h0L43.24,47a1.52,1.52,0,0,1,.38-.05A1.73,1.73,0,0,1,44.09,47Z"/><polygon class="b" points="44.97 46.77 44.49 47 44.42 46.94 44.56 46.9 44.57 46.89 44.97 46.77"/><polygon class="b" points="45.44 46.62 44.97 46.77 45.34 46.59 45.38 46.54 45.44 46.62"/></g><polygon class="b" points="44.04 25.25 43.19 25.67 41.8 24.48 42.65 24.07 44.04 25.25"/><polygon class="b" points="43.83 25.55 36.84 35.38 36.28 36.16 35.14 37.77 33.99 39.38 26.54 49.87 26.41 50.05 25.7 50.27 25.83 50.09 33.66 39.08 34.83 37.43 35.98 35.81 36.53 35.03 43.19 25.67 43.83 25.55"/><polygon class="b" points="43.19 25.67 36.53 35.03 35.98 35.81 34.83 37.43 33.66 39.08 25.83 50.09 23.26 50.89 22.92 51.06 32.35 37.79 33.6 36.02 34.75 34.41 35.3 33.63 41.47 24.73 43.19 25.67"/><polygon class="b" points="25.83 50.09 25.7 50.27 24.97 50.5 22.84 51.17 22.84 51.16 22.92 51.06 23.26 50.89 25.83 50.09"/><polygon class="b" points="62.76 40.53 63.19 41.03 62.92 41.16 62.71 40.54 62.67 40.44 62.76 40.53"/><path class="b" d="M63.45,39.84l-.11,0,.1,0Z"/><polygon class="b" points="24.97 50.5 22.84 51.17 22.84 51.16 24.97 50.5"/><path class="b" d="M43.24,47h-.05l0-.12Z"/><path class="b" d="M44.09,47l-.65.21h0L43.24,47a1.52,1.52,0,0,1,.38-.05A1.73,1.73,0,0,1,44.09,47Z"/><polygon class="b" points="45.44 46.62 44.97 46.77 45.34 46.59 45.38 46.54 45.44 46.62"/><polygon class="b" points="45.97 45.8 45.88 45.83 45.93 45.76 45.97 45.8"/><polygon class="b" points="46.87 43.65 46.84 43.7 46.73 43.7 46.87 43.65"/><polygon class="b" points="46.9 44.39 46.89 44.41 46.77 44.58 46.05 44.8 46.05 44.81 45.36 45.02 45.3 45.04 45.2 44.92 46.19 44.62 46.2 44.61 46.9 44.39"/><polygon class="m" points="44.97 46.77 44.49 47 44.42 46.94 44.56 46.9 44.57 46.89 44.97 46.77"/><polygon class="b" points="44.97 46.77 44.49 47 44.56 46.9 44.57 46.89 44.97 46.77"/><polygon class="b" points="46.9 44.39 46.89 44.41 46.77 44.58 46.05 44.8 46.19 44.62 46.2 44.61 46.9 44.39"/><path class="b" d="M62.67,40.43l-1.18-1.35-13.9,4.35-.72.22,0,.05h-.12l-2,.64-.69.21-.29.09-2,.63L26.41,50.05l-.71.22L25,50.5l-2.13.67-.43.13.44,1.25a1.11,1.11,0,0,0,1.37.7l3.85-1.2,15.36-4.8,2-.63h0l1-.3h0l5.32-1.66,11.18-3.49Z"/><polygon class="b" points="47.71 43.25 47.59 43.43 46.87 43.65 47 43.47 47.71 43.25"/><path class="b" d="M55.52,32.27l-1,1.41-.39-.22L55,32.28l.25-.36Z"/><polygon class="i" points="64.39 19.79 57.17 29.95 56.86 29.6 63.55 20.2 64.39 19.79"/><polygon class="j" points="64.39 19.79 63.55 20.2 56.86 29.6 57.17 29.95 64.39 19.79 64.39 19.79"/><polygon class="b" points="62.98 38.48 62.14 38.88 61.49 39.08 47.59 43.43 46.87 43.65 46.73 43.7 46.72 43.7 44.69 44.34 44 44.55 43.71 44.64 41.7 45.27 26.41 50.05 25.7 50.27 24.97 50.5 22.84 51.17 22.41 51.3 22.92 51.06 23.26 50.89 25.83 50.09 26.54 49.87 41.6 45.16 43.62 44.53 44.13 44.37 44.59 44.23 46.29 43.69 47 43.47 47.71 43.25 47.72 43.25 61.4 38.98 62.98 38.48"/><line class="l" x1="62.98" y1="38.48" x2="63.94" y2="41"/><line class="n" x1="81.22" y1="34.02" x2="63.94" y2="40.36"/><g class="o"><circle class="p" cx="96.93" cy="20.67" r="9.54"/><line class="p" x1="96.93" y1="9.08" x2="96.93" y2="4.99"/><line class="p" x1="96.93" y1="36.34" x2="96.93" y2="32.25"/><line class="p" x1="108.52" y1="20.67" x2="112.61" y2="20.67"/><line class="p" x1="81.26" y1="20.67" x2="85.35" y2="20.67"/><line class="p" x1="105.13" y1="12.48" x2="108.02" y2="9.58"/><line class="p" x1="85.85" y1="31.75" x2="88.74" y2="28.86"/><line class="p" x1="88.74" y1="12.48" x2="85.85" y2="9.58"/><line class="p" x1="108.02" y1="31.75" x2="105.13" y2="28.86"/></g><g class="q"><path class="r" d="M14.81,25.45V10.72a3,3,0,0,0-3-3h0a3,3,0,0,0-3,3V25.45a6.06,6.06,0,1,0,6.05,0Z"/><circle class="r" cx="11.79" cy="30.68" r="3.02"/><line class="r" x1="11.79" y1="27.66" x2="11.79" y2="10.11"/><line class="s" x1="14.81" y1="22.82" x2="13" y2="22.82"/><line class="s" x1="14.81" y1="19.19" x2="13" y2="19.19"/><line class="s" x1="14.81" y1="15.56" x2="13" y2="15.56"/><line class="s" x1="14.81" y1="11.93" x2="13" y2="11.93"/></g><g class="t"><path class="j" d="M114.27,15a4.37,4.37,0,0,0-.5-.09L102.38,26.3H103Z"/><path class="j" d="M119.36,13.47l-.39,0h-.19L105.94,26.3h.59Z"/><path class="j" d="M117.34,13.7a5.77,5.77,0,0,0-1,.46L104.16,26.3h.59Z"/><path class="j" d="M122,14.38l-.37-.22L109.51,26.3h.58Z"/><path class="j" d="M123,15.21a4,4,0,0,0-.29-.29L111.29,26.3h.59Z"/><path class="j" d="M120.82,13.78l-.44-.14L107.73,26.3h.58Z"/><path class="j" d="M100.33,20a5.44,5.44,0,0,0-1.33.74l-1,1a5.26,5.26,0,0,0-.74,1.33Z"/><path class="j" d="M107.62,16.29a8.83,8.83,0,0,0-2.36,2.36Z"/><path class="j" d="M102.28,19.64l-.41,0-5,5c0,.14,0,.27,0,.41s0,.13,0,.19l5.61-5.61Z"/><path class="j" d="M112.67,14.81h-.18l-.42,0L100.59,26.3h.59Z"/><path class="j" d="M110.7,15c-.27.06-.53.12-.79.2L98.8,26.3h.59Z"/><path class="j" d="M104,19.92l-.46-.13L97,26.3h.59Z"/><path class="j" d="M123.71,16.25c-.07-.13-.14-.25-.22-.37L113.07,26.3h.59Z"/><path class="j" d="M131.58,22.64a3.12,3.12,0,0,0-.43-.15l-3.81,3.81h.59Z"/><path class="j" d="M132.65,23.35a3.88,3.88,0,0,0-.31-.26l-3.22,3.21h.59Z"/><path class="j" d="M130.11,22.33h0a2.92,2.92,0,0,0-.6.05l-3.92,3.92h.59Z"/><path class="j" d="M133.82,25.75a4,4,0,0,0-.07-.5l-1.06,1.05h.59Z"/><path class="j" d="M133.42,24.37c-.06-.13-.14-.25-.21-.37l-2.31,2.3h.59Z"/><path class="j" d="M127,21.86l-.3-.3L122,26.3h.59Z"/><path class="j" d="M124.83,20.48a3.57,3.57,0,0,0-.47-.11l-5.94,5.93H119Z"/><path class="j" d="M127.74,22.92a2.82,2.82,0,0,0-.21-.38l-3.76,3.76h.59Z"/><path class="j" d="M124.38,19.15c0-.09,0-.18,0-.27s0-.21,0-.32l-7.74,7.74h.59Z"/><path class="j" d="M126.05,21a2.71,2.71,0,0,0-.37-.21L120.2,26.3h.59Z"/><path class="j" d="M124.22,17.53c0-.16-.09-.31-.14-.46l-9.23,9.23h.59Z"/></g></g></g></svg>