<svg xmlns="http://www.w3.org/2000/svg" xmlns:xlink="http://www.w3.org/1999/xlink" viewBox="0 0 140 60"><defs><style>.a,.i{fill:none;}.b{isolation:isolate;}.c{clip-path:url(#a);}.d{fill:#e9f0f7;}.e{opacity:0.28;}.f{fill:#869cb3;}.g{opacity:0.29;}.h{mix-blend-mode:multiply;}.i{stroke:#b0bbce;stroke-linecap:round;stroke-width:0.63px;}.i,.k,.l{stroke-miterlimit:10;}.j,.k,.l{fill:#fff;}.k,.l{stroke:#869cb3;}.k{stroke-width:0.48px;}.l{stroke-width:0.5px;}</style><clipPath id="a"><rect class="a" width="140" height="60"/></clipPath></defs><g class="b"><g class="c"><rect class="d" x="109.03" y="20.3" width="27.98" height="24.24" rx="3.52" transform="translate(155.44 -90.61) rotate(90)"/><rect class="d" x="14.83" y="15.81" width="84.86" height="36.77" rx="7.55"/><g class="e"><path class="f" d="M18.56,6.39l-.34-.06-7.8,7.81h.4Z"/><path class="f" d="M22.05,5.35h-.4l-8.79,8.79h.4Z"/><path class="f" d="M20.66,5.51a4.93,4.93,0,0,0-.71.31l-8.31,8.32H12Z"/><path class="f" d="M23.87,6l-.26-.16L15.3,14.14h.4Z"/><path class="f" d="M24.52,6.55l-.2-.21-7.8,7.8h.4Z"/><path class="f" d="M23.05,5.57l-.3-.1-8.67,8.67h.4Z"/><path class="f" d="M9,9.83a3.87,3.87,0,0,0-.91.51l-.71.71a3.54,3.54,0,0,0-.51.91Z"/><path class="f" d="M14,7.29A5.87,5.87,0,0,0,12.4,8.9Z"/><path class="f" d="M10.36,9.58h-.28L6.65,13c0,.09,0,.18,0,.27s0,.09,0,.14l3.83-3.84Z"/><path class="f" d="M17.47,6.27h-.41L9.2,14.14h.4Z"/><path class="f" d="M16.12,6.4l-.54.13L8,14.14h.41Z"/><path class="f" d="M11.52,9.77l-.31-.09L6.75,14.14h.41Z"/><path class="f" d="M25,7.25,24.88,7l-7.14,7.14h.41Z"/><path class="f" d="M30.42,11.63l-.3-.1-2.6,2.61h.39Z"/><path class="f" d="M31.15,12.12a1.92,1.92,0,0,0-.22-.18l-2.19,2.2h.4Z"/><path class="f" d="M29.41,11.42h0a2.73,2.73,0,0,0-.41,0l-2.69,2.69h.41Z"/><path class="f" d="M32,13.76a1.86,1.86,0,0,0-.05-.34l-.72.72h.4Z"/><path class="f" d="M31.68,12.82l-.15-.26L30,14.14h.41Z"/><path class="f" d="M27.29,11.1a1.89,1.89,0,0,0-.2-.2l-3.24,3.24h.4Z"/><path class="f" d="M25.79,10.15l-.32-.07-4.06,4.06h.4Z"/><path class="f" d="M27.79,11.82l-.14-.26-2.58,2.58h.4Z"/><path class="f" d="M25.49,9.24c0-.06,0-.12,0-.18s0-.15,0-.22l-5.3,5.3h.4Z"/><path class="f" d="M26.63,10.54c-.08-.06-.17-.1-.25-.15l-3.75,3.75H23Z"/><path class="f" d="M25.38,8.13a2.81,2.81,0,0,0-.1-.31L19,14.14h.41Z"/></g><polygon class="d" points="94.46 44.61 94.46 45.67 100.63 59.4 101.11 59.4 94.46 44.61"/><polygon class="d" points="94.46 48.1 94.46 49.04 99.12 59.4 99.54 59.4 94.46 48.1"/><polygon class="d" points="94.46 51.38 94.46 52.32 97.64 59.4 98.06 59.4 94.46 51.38"/><polygon class="d" points="94.46 54.2 94.46 55.14 96.37 59.4 96.8 59.4 94.46 54.2"/><polygon class="d" points="94.46 56.8 94.46 57.74 95.21 59.4 95.63 59.4 94.46 56.8"/><polygon class="d" points="94.46 41.68 94.46 42.74 101.95 59.4 102.43 59.4 94.46 41.68"/><polygon class="d" points="94.46 38.11 94.46 39.16 103.55 59.4 104.01 59.4 94.46 38.11"/><path class="d" d="M104.44,57.06,95.61,37.44h-.33s0,.06,0,.08h0L104.44,58Z"/><polygon class="d" points="96.8 37.44 104.44 54.42 104.44 53.49 97.22 37.44 96.8 37.44"/><polygon class="d" points="98.75 37.44 98.33 37.44 104.44 51.02 104.44 50.09 98.75 37.44"/><polygon class="d" points="100.11 37.44 99.69 37.44 104.44 47.99 104.44 47.06 100.11 37.44"/><polygon class="d" points="101.55 37.44 101.12 37.44 104.44 44.81 104.44 43.87 101.55 37.44"/><polygon class="d" points="102.78 37.44 102.35 37.44 104.44 42.08 104.44 41.14 102.78 37.44"/><polygon class="d" points="125.58 44.94 125.58 46.01 131.75 59.73 132.23 59.73 125.58 44.94"/><polygon class="d" points="125.58 48.44 125.58 49.38 130.24 59.73 130.66 59.73 125.58 48.44"/><polygon class="d" points="125.58 51.71 125.58 52.65 128.76 59.73 129.19 59.73 125.58 51.71"/><polygon class="d" points="125.58 54.54 125.58 55.47 127.5 59.73 127.92 59.73 125.58 54.54"/><polygon class="d" points="125.58 57.13 125.58 58.07 126.33 59.73 126.75 59.73 125.58 57.13"/><polygon class="d" points="125.58 42.01 125.58 43.08 133.07 59.73 133.55 59.73 125.58 42.01"/><polygon class="d" points="125.58 38.45 125.58 39.5 134.67 59.73 135.13 59.73 125.58 38.45"/><path class="d" d="M135.56,57.4l-8.83-19.62h-.33s0,0,0,.08h0l9.22,20.47Z"/><polygon class="d" points="127.92 37.78 135.56 54.76 135.56 53.83 128.34 37.78 127.92 37.78"/><polygon class="d" points="129.87 37.78 129.45 37.78 135.56 51.36 135.56 50.42 129.87 37.78"/><polygon class="d" points="131.24 37.78 130.81 37.78 135.56 48.33 135.56 47.39 131.24 37.78"/><polygon class="d" points="132.67 37.78 132.25 37.78 135.56 45.15 135.56 44.21 132.67 37.78"/><polygon class="d" points="133.9 37.78 133.47 37.78 135.56 42.41 135.56 41.47 133.9 37.78"/><g class="g"><g class="h"><polygon class="i" points="125.33 23.31 125.33 42.27 120.42 42.27 120.42 60.25 117.27 60.25 117.27 17.89 121.49 17.89 121.49 19.69 122.63 19.69 122.63 21.5 123.82 21.5 123.82 23.31 125.33 23.31"/><rect class="i" x="120.42" y="42.27" width="12.18" height="17.98"/><polygon class="i" points="14.5 22.48 14.5 41.44 19.41 41.44 19.41 59.43 22.57 59.43 22.57 17.06 18.34 17.06 18.34 18.86 17.2 18.86 17.2 20.67 16.01 20.67 16.01 22.48 14.5 22.48"/><rect class="i" x="7.24" y="41.44" width="12.18" height="17.98"/><rect class="i" x="85.42" y="17.89" width="4.03" height="42.36"/><rect class="i" x="105.09" y="42.27" width="12.18" height="17.98"/><rect class="i" x="107.49" y="11.34" width="8.07" height="30.93"/><polygon class="i" points="105.66 5.57 105.66 42.27 105.09 42.27 105.09 60.25 89.45 60.25 89.45 5.57 105.66 5.57"/><polygon class="i" points="78.03 22.17 78.03 41.96 69.96 41.96 69.96 16.76 74.19 16.76 74.19 18.56 75.32 18.56 75.32 20.37 76.52 20.37 76.52 22.17 78.03 22.17"/><rect class="i" x="78.03" y="28.42" width="7.39" height="13.54"/><polygon class="i" points="86.09 56.25 86.09 59.12 69.96 59.12 69.96 41.96 85.42 41.96 85.42 56.25 86.09 56.25"/><polygon class="i" points="69.96 13.89 69.96 59.12 58.36 59.12 58.36 32.15 57.79 32.15 57.79 13.89 69.96 13.89"/><polygon class="i" points="46.19 22.17 46.19 32.15 42.15 32.15 42.15 59.12 38.12 59.12 38.12 16.76 42.35 16.76 42.35 18.56 43.48 18.56 43.48 20.37 44.67 20.37 44.67 22.17 46.19 22.17"/><rect class="i" x="30.05" y="28.42" width="8.07" height="30.7"/><rect class="i" x="48.09" y="23.3" width="8.06" height="8.85"/><rect class="i" x="21.99" y="41.29" width="8.06" height="17.83"/><rect class="i" x="42.15" y="32.15" width="16.21" height="26.98"/></g></g><path class="j" d="M80.33,8.35c0-.28-.32-.83-.71-.82-.16,0-.32,0-.47,0a1,1,0,0,1-.8-.62.91.91,0,0,0-.89-.51c-.59.1-.88.88-1.55.29-.44-.38-.47-.91-1-1.28a1.63,1.63,0,0,0-1.35-.26c-.59.18-.81.77-1.45.87a1.44,1.44,0,0,1-1.42-.8c-.28-.47-.38-1-.61-1.45a1.59,1.59,0,0,0-1.42-1,1.69,1.69,0,0,0-1.27.75c-.42.43-1.29,2-2.26,1.78-.38-.07-.57-.37-.91-.5a1.56,1.56,0,0,0-1.59.45c-.33.38-.47.83-.84,1.19a.91.91,0,0,1-.37.22c-.52.14-1-.3-1.57-.33a1.28,1.28,0,0,0-1,.38,4.05,4.05,0,0,0-.52.73.62.62,0,0,1-.18.18,1.55,1.55,0,0,1-.9,0,1.7,1.7,0,0,0-1.8.73Z"/><path class="k" d="M56.46,17.72a4.16,4.16,0,0,0-.26,2.05c-.44-.05-.9-.09-1.34-.12a.06.06,0,0,0,0,0,8.89,8.89,0,0,1-.45-1.11l0-.13c0-.1,0-.19,0-.28s0-.2,0-.29a2.71,2.71,0,0,1,0-.29,6.17,6.17,0,0,0,1.83-2.83c.5.39,1.32-.26,1.61-.66a2.87,2.87,0,0,0,.45-1,2.48,2.48,0,0,0-.06-1.23,1.6,1.6,0,0,0-.28-.57.82.82,0,0,0-1.12-.12h0a1.92,1.92,0,0,0-.78,1.3l0,.14a6.19,6.19,0,0,0-1.26-1.89A4.5,4.5,0,0,0,52.1,9.39a8.16,8.16,0,0,1-1.67-.48,2.79,2.79,0,0,1-1-.89c0,.14-.73.79-.83.88a6.45,6.45,0,0,0-.81.76,4,4,0,0,0-.72,1.17.24.24,0,0,0,0,.09h0a6.37,6.37,0,0,1,1-3.6,5.64,5.64,0,0,0-1,1.61,4.78,4.78,0,0,0-.21,2,1.15,1.15,0,0,0-.35.24A2.36,2.36,0,0,0,46.14,13a2.87,2.87,0,0,0,.45,1,2.1,2.1,0,0,0,1.14.78,7.31,7.31,0,0,0,1.63,2.58c0,.27-.06.55-.11.83a3,3,0,0,1-.28.89c-.08.19-.18.36-.27.54-.61,0-1.23.1-1.84.16a4.76,4.76,0,0,0-1,.22,2.75,2.75,0,0,0-1.1.1c-.21-2,1-4.42.46-5.65-.48-1.06.4-4.2.51-5.35s-.56-2.25-.26-3.44a3.15,3.15,0,0,1,2.46-2.4c.95-.1,1.76.54,2.7.59,1.77.06,3.48-1.13,5.24-.53,1.55.64,2,1.91,3.35,3.52C61.67,9.8,58.47,15.36,56.46,17.72Z"/><path class="k" d="M47.09,10.83a.28.28,0,0,1,0,.09h0A.24.24,0,0,1,47.09,10.83Z"/><path class="k" d="M47,10.92h0a.34.34,0,0,0-.05.14,3,3,0,0,0-.12.61L46.83,11a4.78,4.78,0,0,1,.21-2,5.64,5.64,0,0,1,1-1.61A6.37,6.37,0,0,0,47,10.92Z"/><path class="k" d="M49.37,17.4a4.53,4.53,0,0,1-.12.81c0-.28.08-.56.11-.83Z"/><path class="k" d="M54.29,17.8a2.66,2.66,0,0,1,0-.28h0A2.71,2.71,0,0,0,54.29,17.8Z"/><path class="k" d="M45.81,20a3.66,3.66,0,0,0-1,.56,2.44,2.44,0,0,1-.07-.46A2.75,2.75,0,0,1,45.81,20Z"/><path class="k" d="M49.29,22.3a2.31,2.31,0,0,1-.73-.73,1.72,1.72,0,0,1,.14-1.93c.09-.18.19-.35.27-.54a3,3,0,0,0,.28-.89l.36.26a4.28,4.28,0,0,0,3.27.53,5.53,5.53,0,0,0,1.49-.63l0,.13a8.89,8.89,0,0,0,.45,1.11.06.06,0,0,1,0,0C56.09,22.66,51.61,23.82,49.29,22.3Z"/><path class="k" d="M40.6,48.42l-.23-.15c-2.16-1.31-4.24-2.62-6.56-3.76l-.26-.12c-.53-.25-1.06-.5-1.63-.73a3.56,3.56,0,0,0-.89-.24h.13c.23,0,.44,0,.67,0a57.64,57.64,0,0,1,6.4.91h0a29.54,29.54,0,0,0,2,2.33l-.19-2,.22,0L40.46,47Z"/><path class="k" d="M59.91,50a93.09,93.09,0,0,0-8.24,5.18c-1.24.23-2.8.45-1.64-1.36-2.17-1.08-4.71-2.58-6.75-3.82Z"/><path class="k" d="M73.21,43.42a3.64,3.64,0,0,0-1.94.24,57.94,57.94,0,0,0-8.37,4.58,1.27,1.27,0,0,0-.22.13l.15-1.65.22-2.27h0l.23,0-.21,2.06a26.28,26.28,0,0,0,2.07-2.51,26.32,26.32,0,0,1,6.8-.79A4.07,4.07,0,0,1,73.21,43.42Z"/><path class="k" d="M40.46,47l-.25-.28-.19-2-.63-6.42-.39-4a.53.53,0,0,1,0-.13l.22,0L39.59,38l.65,6.79Z"/><path class="k" d="M64.27,34.3l-.38,3.87-.61,6.22-.21,2.06a3.08,3.08,0,0,1-.24.27l.22-2.27h0l.63-6.59L64,34.18a.83.83,0,0,1,.22,0A.38.38,0,0,1,64.27,34.3Z"/><path class="k" d="M39,34.06l0,0h0a.14.14,0,0,0,0,.07.53.53,0,0,0,0,.13l.39,4L40,44.7l.19,2a29.54,29.54,0,0,1-2-2.33h0a11.24,11.24,0,0,1-2.69-6.95,7.12,7.12,0,0,1,.29-2.4h0a34.87,34.87,0,0,1,1.41-3.92c.15-.41.3-.8.45-1.2.81.35,2.11,1,2.31,1.1a14.23,14.23,0,0,1,2.45,1.6c-.13.24-.24.48-.36.71H39.68a.49.49,0,0,0-.45.3Z"/><path class="k" d="M42.09,33.3a2,2,0,0,0-.15.29,1.3,1.3,0,0,0-.08.17,3.59,3.59,0,0,0-.17.34H39.22v.11L39.59,38l-.2.32-.39-4a.53.53,0,0,1,0-.13.14.14,0,0,1,0-.07h0l0,0,.19-.46a.49.49,0,0,1,.45-.3Z"/><path class="k" d="M44.78,20.58a3.42,3.42,0,0,0-.74.73c-1.21,1.59-1.43,4.12-1.37,6.1,0,1.37.22,2.71.38,4.07.08.52.14,1.05.19,1.57a.69.69,0,0,0,0,.19l-.78-.65A14.23,14.23,0,0,0,40,31c-.2-.09-1.5-.75-2.31-1.1-.36-.16-.62-.24-.64-.19.6-1.36,1.22-2.84,2-4.25C40.31,23.12,42,21,44.5,20.18l.21-.06A2.44,2.44,0,0,0,44.78,20.58Z"/><path class="k" d="M45.81,20a3.66,3.66,0,0,0-1,.56,2.44,2.44,0,0,1-.07-.46A2.75,2.75,0,0,1,45.81,20Z"/><path class="k" d="M67.48,38.26a11.32,11.32,0,0,1-2.34,5.68,26.28,26.28,0,0,1-2.07,2.51l.21-2.06.61-6.22.38-3.87a.38.38,0,0,0,0-.15s0,0,0,0h0l0,0L64,33.64a.54.54,0,0,0-.05-.11.48.48,0,0,0-.4-.23H61.26l-.37-.72A14.36,14.36,0,0,1,63.34,31c.2-.09,1.51-.76,2.31-1.1.16.4.31.79.46,1.2C66.82,33,68.38,36.07,67.48,38.26Z"/><path class="k" d="M64.27,34.3l-.38,3.87-.21-.32L64,34.18V34.1H61.67c-.07-.12-.12-.23-.18-.34l-.1-.22a1.36,1.36,0,0,1-.13-.24h2.33a.48.48,0,0,1,.4.23.54.54,0,0,1,.05.11l.19.42,0,0h0s0,0,0,0A.38.38,0,0,1,64.27,34.3Z"/><path class="k" d="M66.28,29.7c0-.05-.27,0-.63.19-.8.34-2.11,1-2.31,1.1a14.36,14.36,0,0,0-2.45,1.59l-.73.61c.05-.54.12-1.07.19-1.6a41.91,41.91,0,0,0,.4-4.18c.06-2-.16-4.53-1.39-6.12A3.79,3.79,0,0,0,57.62,20a3,3,0,0,1,1.21.17c2.55.85,4.2,2.94,5.47,5.27C65.06,26.86,65.68,28.34,66.28,29.7Z"/><path class="k" d="M60.75,27.41a41.91,41.91,0,0,1-.4,4.18c-.07.53-.14,1.06-.19,1.6h0a.38.38,0,0,1,0,.1H43.27l0-.25c-.05-.52-.11-1-.19-1.57-.16-1.36-.34-2.7-.38-4.07-.06-2,.16-4.51,1.37-6.1a3.42,3.42,0,0,1,.74-.73,3.66,3.66,0,0,1,1-.56,4.76,4.76,0,0,1,1-.22c.61-.06,1.23-.12,1.84-.16a1.72,1.72,0,0,0-.14,1.93,2.31,2.31,0,0,0,.73.73c2.32,1.52,6.8.36,5.57-2.65.44,0,.9.07,1.34.12l.36,0a5.32,5.32,0,0,1,1,.21h0a3.79,3.79,0,0,1,1.74,1.28C60.59,22.88,60.81,25.42,60.75,27.41Z"/><path class="k" d="M49.29,22.3a2.31,2.31,0,0,1-.73-.73,1.72,1.72,0,0,1,.14-1.93c.95-.09,1.89-.16,2.84-.17h.34c1,0,2,.09,3,.18C56.09,22.66,51.61,23.82,49.29,22.3Z"/><path class="k" d="M53.16,42.13a1.53,1.53,0,1,1-1.53-1.53A1.53,1.53,0,0,1,53.16,42.13Z"/><path class="k" d="M60.15,33.3a1.94,1.94,0,0,1,0,.24c0,.07,0,.14,0,.22s0,.22,0,.34H43.34c0-.12,0-.24,0-.34a.88.88,0,0,0,0-.17,2.83,2.83,0,0,0,0-.29Z"/><path class="k" d="M49.37,17.4a4.53,4.53,0,0,1-.12.81c0-.28.08-.56.11-.83Z"/><path class="k" d="M49.29,22.3a2.31,2.31,0,0,1-.73-.73,1.72,1.72,0,0,1,.14-1.93c.09-.18.19-.35.27-.54a3,3,0,0,0,.28-.89l.36.26a4.28,4.28,0,0,0,3.27.53,5.53,5.53,0,0,0,1.49-.63l0,.13a8.89,8.89,0,0,0,.45,1.11.06.06,0,0,1,0,0C56.09,22.66,51.61,23.82,49.29,22.3Z"/><path class="k" d="M54.29,17.8a2.66,2.66,0,0,1,0-.28h0A2.71,2.71,0,0,0,54.29,17.8Z"/><path class="k" d="M64.25,34.1H39l0,0,.19-.46h4.06l16.84-.05H64a.54.54,0,0,1,.05.11l.19.42Z"/><path class="k" d="M60.55,59c-.74.56-7.78,1-7.25-.34-.57-.08-1.15-.16-1.7-.28.59-.09,1.19-.16,1.78-.29a1.45,1.45,0,0,1-.13-.29,2.91,2.91,0,0,0,.65-2.21l0,0c-1.13-1.13,4.61-1,5.38-1.25C62.42,54.11,63.33,57.6,60.55,59Z"/><path class="k" d="M53.16,42.13a1.53,1.53,0,1,1-1.53-1.53A1.53,1.53,0,0,1,53.16,42.13Z"/><path class="k" d="M64.07,33.84v0l0,.24H39.22l0-.24v0a.41.41,0,0,1,0-.24.49.49,0,0,1,.45-.3H63.59a.48.48,0,0,1,.4.23.54.54,0,0,1,.05.11A.75.75,0,0,1,64.07,33.84Z"/><path class="k" d="M39.22,34.1v.11L39.59,38l.65,6.79L40.46,47l.14,1.44c.87.54,1.76,1.09,2.68,1.62H59.91c1-.55,1.87-1.12,2.77-1.67l.15-1.65.22-2.27h0l.63-6.59L64,34.18V34.1Zm12.41,9.56a1.53,1.53,0,1,1,1.53-1.53A1.53,1.53,0,0,1,51.63,43.66Z"/><path class="k" d="M53.16,42.13a1.53,1.53,0,1,1-1.53-1.53A1.53,1.53,0,0,1,53.16,42.13Z"/><path class="k" d="M43.28,50l.79.45H59.13l.78-.45Zm21-15.89s0,0,0,0v0a.45.45,0,0,0-.16-.2.49.49,0,0,0-.3-.1H39.49a.51.51,0,0,0-.3.1.5.5,0,0,0-.15.2v0a.14.14,0,0,0,0,.07.53.53,0,0,0,0,.13l.39,4L40,44.7l.19,2,.16,1.57.23.15L40.46,47l-.22-2.23L39.59,38l-.36-3.75V34.1H64v.08l-.36,3.67-.63,6.59h0l-.22,2.27-.15,1.65a1.27,1.27,0,0,1,.22-.13l.17-1.79.21-2.06.61-6.22.38-3.87A.38.38,0,0,0,64.26,34.15Z"/><path class="k" d="M59.13,50.49c-.43.25-1,.63-1.62,1H45.68c-.58-.37-1.19-.74-1.61-1Z"/><path class="k" d="M53.16,42.13a1.53,1.53,0,1,1-1.53-1.53A1.53,1.53,0,0,1,53.16,42.13Z"/><path class="k" d="M33.55,44.39c-.53-.25-1.06-.5-1.63-.73a3.56,3.56,0,0,0-.89-.24h.13a3.76,3.76,0,0,1,.84.23C32.53,43.88,33.05,44.13,33.55,44.39Z"/><path class="k" d="M51.22,55.2c-.68.3-.88,0-1.77.13C49.71,53.74,50.19,54.88,51.22,55.2Z"/><path class="k" d="M54.2,57.13a5.66,5.66,0,0,1-4.74,1.68c.82-1.41,0-2.85,2.11-3.18C53.51,54.25,53.54,55.47,54.2,57.13Z"/><path class="k" d="M50,53.86l-.19.49-.39,1h-.07a.38.38,0,0,0,0-.15.48.48,0,0,0-.33-.32,1.5,1.5,0,0,0-.47-.08A12,12,0,0,1,46,54.56a8.2,8.2,0,0,0-2.2-.24,5.29,5.29,0,0,0-1.68.34,3.29,3.29,0,0,0-.42.21,2.68,2.68,0,0,0-.36.29,2.15,2.15,0,0,0-.31.38c0,.06-.06.12-.08.18a43.39,43.39,0,0,1-11.39-5.18,6.36,6.36,0,0,1-2.39-2.75,3.23,3.23,0,0,1,2.72-4.35l.32,0a2.15,2.15,0,0,1,.62,0l.14,0h0a3.56,3.56,0,0,1,.89.24c.57.23,1.1.48,1.63.73l.26.12c2.32,1.14,4.4,2.45,6.56,3.76l.23.15c.87.54,1.76,1.09,2.68,1.62l.79.45c.42.25,1,.62,1.61,1l1,.63C47.33,52.47,49.42,53.51,50,53.86Z"/><path class="k" d="M49.85,56.15a2.07,2.07,0,0,1-.41,2.32c1.16.29,0,1.08-.68.91-2-.12-4.24.54-6.17-.38-1.74-.86-2.59-3.57-.44-4.34,1.09-.52,6.82-.27,7.23.68A10.3,10.3,0,0,1,51,55.5,8.92,8.92,0,0,0,49.85,56.15Z"/><path class="k" d="M47,10.92h0a.34.34,0,0,0-.05.14A.66.66,0,0,1,47,10.92Z"/><path class="k" d="M47.1,10.92h0a.24.24,0,0,1,0-.09A.28.28,0,0,1,47.1,10.92Z"/><path class="k" d="M47,10.92h0a.34.34,0,0,0-.05.14,3,3,0,0,0-.12.61L46.83,11a4.78,4.78,0,0,1,.21-2,5.64,5.64,0,0,1,1-1.61A6.37,6.37,0,0,0,47,10.92Z"/><path class="k" d="M47.09,10.83a.28.28,0,0,1,0,.09h0A.24.24,0,0,1,47.09,10.83Z"/><path class="k" d="M47,10.92h0a.34.34,0,0,0-.05.14,3,3,0,0,0-.12.61L46.83,11a4.78,4.78,0,0,1,.21-2,5.64,5.64,0,0,1,1-1.61A6.37,6.37,0,0,0,47,10.92Z"/><path class="k" d="M58.17,13a2.87,2.87,0,0,1-.45,1c-.29.4-1.11,1.05-1.61.66a6.17,6.17,0,0,1-1.83,2.83h0a2.66,2.66,0,0,0,0,.28c0,.09,0,.19,0,.29s0,.18,0,.28a5.53,5.53,0,0,1-1.49.63,4.28,4.28,0,0,1-3.27-.53l-.36-.26a4.53,4.53,0,0,0,.12-.81v0a7.31,7.31,0,0,1-1.63-2.58A2.1,2.1,0,0,1,46.59,14a2.87,2.87,0,0,1-.45-1,2.36,2.36,0,0,1,.34-1.81,1.15,1.15,0,0,1,.35-.24l.06.71a3,3,0,0,1,.12-.61.34.34,0,0,1,.05-.14h0a.28.28,0,0,0,0-.09,4,4,0,0,1,.72-1.17,6.45,6.45,0,0,1,.81-.76c.1-.09.83-.74.83-.88a2.79,2.79,0,0,0,1,.89,8.16,8.16,0,0,0,1.67.48,4.5,4.5,0,0,1,2.52,1.26,6.19,6.19,0,0,1,1.26,1.89l0-.14a1.92,1.92,0,0,1,.78-1.3h0a.82.82,0,0,1,1.12.12,1.6,1.6,0,0,1,.28.57A2.48,2.48,0,0,1,58.17,13Z"/><path class="k" d="M47.06,10.92a.34.34,0,0,0-.05.14,3,3,0,0,0-.12.61L46.83,11l.19,0Z"/><path class="k" d="M76,47.79a6.21,6.21,0,0,1-2.38,2.75,43.34,43.34,0,0,1-11.49,5.21.76.76,0,0,0,0-.11,2,2,0,0,0-.72-.77,2.74,2.74,0,0,0-.42-.21,5.23,5.23,0,0,0-1.66-.34,8.07,8.07,0,0,0-2.2.24,8,8,0,0,1-1.61.2l-1,0a1.61,1.61,0,0,0-.48.08.5.5,0,0,0-.33.32v0l-.33-.82-.21-.53c.62-.35,2.69-1.39,3.3-1.75.29-.16.66-.38,1-.63.58-.36,1.19-.74,1.62-1l.78-.45c1-.55,1.87-1.12,2.77-1.67a1.27,1.27,0,0,1,.22-.13,57.94,57.94,0,0,1,8.37-4.58,3.64,3.64,0,0,1,1.94-.24A3.23,3.23,0,0,1,76,47.79Z"/><path class="f" d="M67.27,28.63l-.09.92a2.06,2.06,0,0,1,1.25.49,2,2,0,0,1,.66,1.29l.91-.19a2.88,2.88,0,0,0-2.73-2.51Z"/><path class="f" d="M70.13,28.17a3.84,3.84,0,0,0-2.73-.93l-.09.94a2.86,2.86,0,0,1,2.21.69,2.89,2.89,0,0,1,1,2.16l.92-.2A3.8,3.8,0,0,0,70.13,28.17Z"/><path class="f" d="M71.17,27a4.66,4.66,0,0,0-3.63-1.16l-.1,1a3.82,3.82,0,0,1,4.42,3.95l.94-.2A4.62,4.62,0,0,0,71.17,27Z"/><path class="l" d="M125.14,25.1h0l0-.05-.09-.13a.24.24,0,0,0-.09-.06,1.07,1.07,0,0,0,.24.34S125.15,25.13,125.14,25.1Zm.45.61a.16.16,0,0,1,0,.08,1.59,1.59,0,0,1,.07-.2A1.13,1.13,0,0,0,125.59,25.71Z"/><path class="l" d="M127.62,26.93c-.5.43-1.74.4-2-.28-.43-1.11,1-1.6.9-2.59.13-.65,1.34-.58,1.52.43,0,.38-.66.87-.66.94C127.34,25.73,127.92,26.66,127.62,26.93Z"/><path class="l" d="M128.42,24c-.44,1-1.6-.72-1.91.07.12.75-.82,1-.92,1.65-.19,1.32.81.83,1.79,1.35-.08.21-1-.12-.24.37,1,2-3.27,2.52-2.41-1.36.5.37.42-.57.45-.86,0,0,0-.08,0-.11h0c-.43-.78-1.09.07-.71.66-.32.64-.86.28-.84-.35-.67-2.06.27-2.86,1.73-3.68C126.12,21.57,128.88,22.72,128.42,24Z"/><path class="l" d="M125.18,25.21c.09.83-.38,1.37-.81.38C124.22,24.87,124.81,24.46,125.18,25.21Z"/><path class="l" d="M124.73,26.07a1.27,1.27,0,0,0,0,.28,4.64,4.64,0,0,0-.22,1,5.06,5.06,0,0,0,0,.54,4.16,4.16,0,0,0-.81-.64l-.27-.14a2.48,2.48,0,0,0,.23-.4,2.66,2.66,0,0,0,.19-.65.17.17,0,0,0,.1,0h.16a.33.33,0,0,0,.31-.2l.08-.13A.8.8,0,0,0,124.73,26.07Z"/><path class="l" d="M125.53,28.75l0,0a8.59,8.59,0,0,1-1-.89,5.06,5.06,0,0,1,0-.54,4.64,4.64,0,0,1,.22-1,.66.66,0,0,0,0,.14,2.91,2.91,0,0,0,.25,1.66A1.7,1.7,0,0,0,125.53,28.75Z"/><path class="l" d="M125.66,29.26h0l-.24.28v0a.15.15,0,0,1-.18,0l-2.58-1.79s0,0,0,0a.14.14,0,0,1,0-.14l.33-.47a.23.23,0,0,1,.28-.08l.16.07.26.14a4.3,4.3,0,0,1,.82.63,7.83,7.83,0,0,0,1,.9l.12.08A.27.27,0,0,1,125.66,29.26Z"/><path class="l" d="M130.35,35.34a.28.28,0,0,1-.17.33l-3.08,1.21-.56.23a1.43,1.43,0,0,1-1.61-.42,21,21,0,0,1-1.79-2.51,19.62,19.62,0,0,1-1.2-2.29,1.42,1.42,0,0,1-.1-.29,1.69,1.69,0,0,1,1.06-2l.2-.06h.08a1.64,1.64,0,0,1,1.89,1.41,11.75,11.75,0,0,0,.3,1.45,10.93,10.93,0,0,0,.76,2,.55.55,0,0,0,.69.27l1-.4.59-.25a8.87,8.87,0,0,0,1-.54.18.18,0,0,1,.21,0,.14.14,0,0,1,.06.07l.23.45a4.27,4.27,0,0,1,.18.43c0,.05,0,.13.08.22s.11.35.15.51A1.46,1.46,0,0,1,130.35,35.34Z"/><path class="l" d="M130.57,34.88a.21.21,0,0,1-.13.21l-.14,0q-.06-.24-.15-.51c0-.09-.06-.17-.08-.22a4.27,4.27,0,0,0-.18-.43l-.23-.45a.14.14,0,0,0-.06-.07l.26-.15a.2.2,0,0,1,.13,0l.07.06.06.12a3,3,0,0,1,.31.74l0,.05a1.16,1.16,0,0,1,0,.18A4,4,0,0,1,130.57,34.88Z"/><path class="l" d="M126.88,41.22a1.55,1.55,0,0,1-.67.21h0c-.42,0-.81.06-1.17.07l-.84,0a8,8,0,0,1-2.72-.28,3.85,3.85,0,0,1-.71-.34,2.1,2.1,0,0,1-.33-.22.56.56,0,0,1-.21-.64s0-.09,0-.14,0-.06,0-.08a15.08,15.08,0,0,0,.4-1.48.3.3,0,0,1,0-.1l0-.15a16.53,16.53,0,0,0,.29-2.67c0-1.08-.09-2-.13-2.93,0-.22,0-.44,0-.66a5.35,5.35,0,0,1,.67-2.81,5.09,5.09,0,0,1,1.06-1.29s0,0,0,0l2.58,1.79a.17.17,0,0,0,.18,0l.2.37a10.33,10.33,0,0,1,.9,2.35,9.74,9.74,0,0,1,.29,2c0,.13,0,.25,0,.39a.55.55,0,0,1-.69-.27,10.93,10.93,0,0,1-.76-2,11.75,11.75,0,0,1-.3-1.45,1.64,1.64,0,0,0-1.89-1.41h-.08l-.2.06a1.69,1.69,0,0,0-1.06,2,1.42,1.42,0,0,0,.1.29,19.62,19.62,0,0,0,1.2,2.29,21,21,0,0,0,1.79,2.51,1.43,1.43,0,0,0,1.61.42l.56-.23c.12.73.28,1.57.49,2.55a.36.36,0,0,1,0,.1A1.58,1.58,0,0,1,126.88,41.22Z"/><path class="f" d="M125.65,29.26c0,.15,0,.3,0,.45s0,.15,0,.22c-.07-.14-.14-.26-.2-.37v0Z"/><path class="l" d="M133.58,31.52c.08.14-.65.53-.74.64.39.55-.59.66-.43,1.27-.21.8-1.48.42-1.92,1a2.67,2.67,0,0,0-.5-1.15c.56-.68,1.12-2,2.12-1.92.33.27-.36.61-.43.85C132.15,32.3,133.28,31.23,133.58,31.52Z"/><path class="f" d="M133.56,30.77l-1.07,1.11-.21.13a1.68,1.68,0,0,1-.28.13l1.43-1.49a.08.08,0,0,1,.12,0A.08.08,0,0,1,133.56,30.77Z"/><path class="l" d="M122.28,43.47c-.08.53-.16,1.06-.23,1.59L117.7,44a.83.83,0,0,1-.22-.08l-.09-.13a.85.85,0,0,1-.08-.71l1.07-3.66,1.89.52c0,.05,0,.1,0,.14a.56.56,0,0,0,.21.64,2.1,2.1,0,0,0,.33.22,3.85,3.85,0,0,0,.71.34l0,.2c0,.14,0,.3.09.47A4.92,4.92,0,0,0,122.28,43.47Z"/><path class="f" d="M118.52,38.93l-.12.37,1.89.52,0,.09-1.88-.52-1.08,3.66a.86.86,0,0,0,.09.7.67.67,0,0,0,.09.14.91.91,0,0,1-.23-.17,1,1,0,0,1,0-.7l1.08-3.66,0-.09.11-.37a1.23,1.23,0,0,1,1.46-.85l.84.19,0,.11-.83-.2a1.15,1.15,0,0,0-.26,0A1.11,1.11,0,0,0,118.52,38.93Z"/><path class="l" d="M120.68,38.35c-.1.46-.23,1-.39,1.47l-1.89-.52.12-.37a1.11,1.11,0,0,1,1.07-.81,1.15,1.15,0,0,1,.26,0Z"/><path class="f" d="M120.9,32.5,118.71,38h0l-.12.08-.33-.13h0a.08.08,0,0,1,0,0h0v0l2.68-6C120.88,32.05,120.89,32.27,120.9,32.5Z"/><path class="f" d="M118.41,38.27l0,.07-.15-.07a.16.16,0,0,1-.09-.09.2.2,0,0,1,0-.13l.07-.16a.08.08,0,0,0,0,0h0l-.06.14s0,.05,0,.07,0,.05,0,.05Z"/><path class="l" d="M128.91,58.3a5.76,5.76,0,0,1-.62.13.24.24,0,0,1-.21-.06.15.15,0,0,1-.06-.09Z"/><path class="l" d="M130.86,57.25a.19.19,0,0,1,0,.18.27.27,0,0,1-.07.08,6.73,6.73,0,0,1-1.14.56l-.11,0a6.14,6.14,0,0,1-.62.19h0l-.89,0a.08.08,0,0,1,0,0c-.22-.82-.52-2-.89-3.41-1-3.91-1.07-4.1-1.28-4.72-.34-1-.63-1.81-.89-2.51a14.39,14.39,0,0,0-.74-1.67,5.09,5.09,0,0,0-.85-1.19,8.6,8.6,0,0,1-1.07-1.27,4.92,4.92,0,0,1-.69-1.55c0-.17-.07-.33-.09-.47a15.19,15.19,0,0,0,2.14.27c.52,0,1,0,1.48,0s.72,0,1-.08a.75.75,0,0,0,0-.16v-.06h0a1.55,1.55,0,0,0,.67-.21c0,.27,0,.54,0,.82a.94.94,0,0,0,.08.43,23.35,23.35,0,0,1,1.33,3.69c1,3.84.57,6.24,2.19,10.14C130.6,56.69,130.75,57,130.86,57.25Z"/><path class="l" d="M124.94,47.6c-.19.56-.38,1.13-.58,1.69a2.74,2.74,0,0,1-.86,1.24,23.59,23.59,0,0,0-1.9,1.7,26.55,26.55,0,0,0-3.27,4,.35.35,0,0,1-.36.16.38.38,0,0,1-.17-.08.69.69,0,0,0-.13-.11l-.68-.59-.75-.64h0a.41.41,0,0,1,0-.59q1.58-1.7,3.13-3.4l.91-1a6.39,6.39,0,0,0,1.59-3.35L122,45.3s0-.06,0-.1a.59.59,0,0,1,0-.14c.07-.53.15-1.06.23-1.59a8.6,8.6,0,0,0,1.07,1.27,5.09,5.09,0,0,1,.85,1.19A14.39,14.39,0,0,1,124.94,47.6Z"/><path class="l" d="M126.2,41.44v.06a.75.75,0,0,1,0,.16c-.32,0-.67.06-1,.08l-.09-.23C125.39,41.5,125.78,41.47,126.2,41.44Z"/><path class="l" d="M134.3,58.75a5.87,5.87,0,0,1-1.42.65,5.57,5.57,0,0,1-1.43.25,7.61,7.61,0,0,1-1.63-.18,9.73,9.73,0,0,0-1.86-.09l.12-1a.24.24,0,0,0,.21.06,5.76,5.76,0,0,0,.62-.13h0a6.14,6.14,0,0,0,.62-.19l.11,0a6.73,6.73,0,0,0,1.14-.56.27.27,0,0,0,.07-.08,4.32,4.32,0,0,0,1.45.78,4.23,4.23,0,0,0,1.53.21.42.42,0,0,1,.3.12s0,0,0,0Z"/><path class="l" d="M134.33,59.05a8.81,8.81,0,0,1-1.05.47,7.13,7.13,0,0,1-1.78.38,2,2,0,0,1-.64,0l-.48-.13a1.55,1.55,0,0,0-.37,0l-1.81,0a.24.24,0,0,1-.24-.27h0a10.63,10.63,0,0,1,1.86.09,7.63,7.63,0,0,0,1.63.19,6.18,6.18,0,0,0,1.43-.25,6.27,6.27,0,0,0,1.42-.66l.07.1A.15.15,0,0,1,134.33,59.05Z"/><path class="l" d="M119.73,59.18a2.86,2.86,0,0,1-2.06-.16,2.52,2.52,0,0,1-.7-.59c-.2-.21-.42-.48-.7-.82L114.93,56l.85-.77a.11.11,0,0,1,.14,0,.05.05,0,0,1,0,0,1.37,1.37,0,0,0,1.14,1,1,1,0,0,0,.58-.15.69.69,0,0,1,.13.11.38.38,0,0,0,.17.08c0,.5.09,1,.13,1.5a.83.83,0,0,0,.27.52h0a.82.82,0,0,0,.34.16l.61.13a.49.49,0,0,1,.39.44Z"/><path class="l" d="M119.55,59.48h-1.21a1.17,1.17,0,0,1-.52-.12l-.51-.25a1.57,1.57,0,0,1-.54-.45l-.62-.8c-.42-.54-.84-1-1.25-1.55a.22.22,0,0,1,0-.32h0l1.34,1.63a5.45,5.45,0,0,0,1.4,1.41,2.91,2.91,0,0,0,2.06.16v.09A.19.19,0,0,1,119.55,59.48Z"/><path class="l" d="M117.67,56.15a1,1,0,0,1-.58.15,1.37,1.37,0,0,1-1.14-1,.05.05,0,0,0,0,0l.32-.29.75.64Z"/><path class="l" d="M125.12,41.74c-.46,0-1,0-1.48,0a15.19,15.19,0,0,1-2.14-.27l0-.2a8,8,0,0,0,2.72.28l.84,0Z"/><path class="f" d="M133.72,29l0,.34a.7.7,0,0,1,.45.17.72.72,0,0,1,.24.46l.33-.07a1.05,1.05,0,0,0-.35-.64A1,1,0,0,0,133.72,29Z"/><path class="f" d="M134.74,28.81a1.38,1.38,0,0,0-1-.33l0,.33a1,1,0,0,1,.79.25,1,1,0,0,1,.36.77l.33-.07A1.36,1.36,0,0,0,134.74,28.81Z"/><path class="f" d="M135.12,28.38a1.69,1.69,0,0,0-1.31-.41l0,.34a1.37,1.37,0,0,1,1.59,1.42l.33-.08A1.66,1.66,0,0,0,135.12,28.38Z"/></g></g></svg>