<svg xmlns="http://www.w3.org/2000/svg" xmlns:xlink="http://www.w3.org/1999/xlink" viewBox="0 0 140 60"><defs><style>.a,.d,.f{fill:none;}.b{clip-path:url(#a);}.c{fill:#e9f0f7;}.d,.f{stroke:#b0bbce;stroke-linecap:round;stroke-width:0.63px;}.d,.f,.h{stroke-miterlimit:10;}.d{opacity:0.47;}.e{opacity:0.44;}.g{opacity:0.41;}.h,.j{fill:#fff;}.h{stroke:#869cb3;stroke-width:0.5px;}.i{fill:#869cb3;}</style><clipPath id="a"><rect class="a" width="140" height="60"/></clipPath></defs><g class="b"><rect class="c" x="7.56" y="18.5" width="84.86" height="36.77" rx="7.55"/><polygon class="d" points="77.32 51.11 68.75 51.27 62.29 56.89 55.63 51.51 47.06 51.66 45.42 43.25 38.76 37.86 42.91 30.37 41.27 21.96 49.27 18.88 53.42 11.39 61.52 14.17 69.52 11.1 73.93 18.44 82.03 21.22 80.7 29.68 85.12 37.03 78.65 42.65 77.32 51.11"/><polygon class="c" points="102.03 27.01 102.82 27.05 88.09 10.93 87.29 10.89 102.03 27.01"/><polygon class="c" points="99.75 27.17 100.45 27.2 86.57 12.01 86.53 12.71 99.75 27.17"/><polygon class="c" points="86.46 14.46 86.42 15.16 97.69 27.48 98.39 27.51 86.46 14.46"/><polygon class="c" points="86.36 16.56 86.33 17.26 95.58 27.39 96.28 27.42 86.36 16.56"/><polygon class="c" points="86.28 18.5 86.24 19.2 93.65 27.3 94.34 27.33 86.28 18.5"/><polygon class="c" points="86.18 20.7 86.14 21.4 91.45 27.2 92.15 27.23 86.18 20.7"/><polygon class="c" points="89.6 27.12 90.3 27.15 86.09 22.55 86.06 23.25 89.6 27.12"/><polygon class="c" points="104.89 27.02 90.27 11.03 89.48 10.99 104.1 26.98 104.89 27.02"/><polygon class="c" points="91.79 11.1 106.22 26.88 107 26.91 92.58 11.13 91.79 11.1"/><path class="c" d="M95.12,11.25l-.62,0h-.08L108,26.09h.07l0-.63Z"/><polygon class="c" points="97.67 11.36 96.97 11.33 108.2 23.61 108.23 22.91 97.67 11.36"/><polygon class="c" points="100.48 11.49 99.78 11.46 108.32 20.8 108.35 20.1 100.48 11.49"/><polygon class="c" points="103.18 11.61 102.48 11.58 108.44 18.1 108.47 17.4 103.18 11.61"/><polygon class="c" points="105.2 11.7 104.5 11.67 108.53 16.07 108.56 15.37 105.2 11.7"/><g class="e"><path class="f" d="M96.06,45.68l.26,1.39a.64.64,0,0,1-.48.75l-3.26.76A.63.63,0,0,1,91.8,48l-.13-1"/><path class="f" d="M94.91,34.78l-.18.62-8,8.12-1.12.62a.64.64,0,0,0-.25.87L87,47.82a.64.64,0,0,0,.88.24L89,47.44l11.09-2.51.61.17a.64.64,0,0,0,.49-.05l.33-.19a.64.64,0,0,0,.25-.87l-5.31-9.53a.64.64,0,0,0-.88-.24l-.33.18A.67.67,0,0,0,94.91,34.78Z"/><line class="f" x1="86.77" y1="43.52" x2="88.96" y2="47.44"/></g><g class="g"><path class="f" d="M121.13,33.16V19.32A1.16,1.16,0,0,0,120,18.17H106.14A1.16,1.16,0,0,0,105,19.32V33.16h-4.61l12.68,11.53,12.69-11.53Z"/><circle class="f" cx="109.59" cy="23.94" r="1.73"/><circle class="f" cx="116.51" cy="30.85" r="1.73"/><line class="f" x1="117.67" y1="21.63" x2="109.59" y2="32.01"/></g><path class="h" d="M45,22.29,34.43,18.12a2.46,2.46,0,0,0-2.75.67l-7.26,8.34a2.45,2.45,0,0,0-.53,2.2l6.88,27.58a2.45,2.45,0,0,0,2.94,1.79l17.42-4.11a2.46,2.46,0,0,0,1.82-3L46.43,24A2.43,2.43,0,0,0,45,22.29ZM34.4,24.06a1.62,1.62,0,1,1,1.21-1.95A1.62,1.62,0,0,1,34.4,24.06Z"/><path class="h" d="M50.43,50.85a2.59,2.59,0,0,1-3.55-.59L29.63,26.57a2.48,2.48,0,0,1-.33-2.31l3.9-10.74a2.38,2.38,0,0,1,.25-.44,2.58,2.58,0,0,0-1.89,1.6L27.67,25.43a2.43,2.43,0,0,0,.32,2.3l17.25,23.7a2.58,2.58,0,0,0,3.55.58"/><path class="h" d="M46.3,11.16H34.18a2.62,2.62,0,0,0-2.48,1.75L27.77,24.09a2.6,2.6,0,0,0,.34,2.4L45.85,51.24a2.62,2.62,0,0,0,3.64.62l15.71-11a2.62,2.62,0,0,0,.65-3.65l-17.4-25A2.61,2.61,0,0,0,46.3,11.16ZM36.5,17.1a1.74,1.74,0,1,1,.43-2.43A1.75,1.75,0,0,1,36.5,17.1Z"/><path class="h" d="M32.64,7.32c-3.22-3.46-7.49-4.55-9.72-2.47s-1.47,6.42,1.74,9.88a11.72,11.72,0,0,0,4.32,3,2.54,2.54,0,0,1,.59-1,10.48,10.48,0,0,1-4-2.76c-2.68-2.88-3.5-6.64-1.81-8.22s5.38-.46,8.05,2.41c2.13,2.29,3.16,5.22,2.5,7.12l1,1.38C36.05,14.29,35.08,10,32.64,7.32Z"/><path class="h" d="M44,34a2.89,2.89,0,0,1-2.3.23,3.14,3.14,0,0,1-1.77-1.66,3.44,3.44,0,0,1-.36-2.61A3.07,3.07,0,0,1,41.23,28a2.86,2.86,0,0,1,2.31-.25A3.26,3.26,0,0,1,45.3,29.5a3.42,3.42,0,0,1,.35,2.59A3,3,0,0,1,44,34Zm5.26-9.84L47.71,39l-1.9,1L47.35,25.1Zm-7.39,5.32c-.75.38-.86,1.11-.32,2.16s1.12,1.31,1.84.94.84-1.08.31-2.12S42.58,29.07,41.88,29.43Zm12,6.62a2.85,2.85,0,0,1-2.3.23,3.14,3.14,0,0,1-1.77-1.66A3.44,3.44,0,0,1,49.43,32a3.07,3.07,0,0,1,1.65-1.88,2.87,2.87,0,0,1,2.31-.26,3.29,3.29,0,0,1,1.76,1.72,3.47,3.47,0,0,1,.35,2.59A3,3,0,0,1,53.86,36.05Zm-2.15-4.51c-.75.38-.86,1.1-.32,2.16s1.13,1.31,1.86.93.84-1.08.31-2.12a2,2,0,0,0-.87-1A1,1,0,0,0,51.71,31.54Z"/><circle class="i" cx="63.84" cy="41.72" r="5.54"/><path class="j" d="M64.71,42.66v1.88H63.46V42.66H61.6V41.42h1.86V39.56h1.25v1.86h1.88v1.24Z"/></g></svg>