<svg xmlns="http://www.w3.org/2000/svg" xmlns:xlink="http://www.w3.org/1999/xlink" viewBox="0 0 140 60"><defs><style>.a,.e{fill:none;}.b{clip-path:url(#a);}.c{fill:#e9f0f7;}.d{opacity:0.5;}.e{stroke:#b0bbce;stroke-linecap:round;stroke-width:0.63px;}.e,.h,.i{stroke-miterlimit:10;}.f{opacity:0.3;}.g{fill:#869cb3;}.h,.i{fill:#fff;stroke:#869cb3;}.h{stroke-width:0.75px;}.i{stroke-width:0.5px;}.j{fill:#030303;}.k{fill:#1660a5;}.l{fill:#040404;}.m{fill:#179fb1;}.n{fill:#4c96ca;}.o{fill:#135fa4;}.p{fill:#014d7e;}.q{fill:#559ac8;}.r{fill:#119caf;}.s{fill:#161616;}.t{fill:#121212;}.u{fill:#181818;}.v{fill:#1c1c1c;}</style><clipPath id="a"><rect class="a" width="140" height="60"/></clipPath></defs><g class="b"><rect class="c" x="8.58" y="6.73" width="41.72" height="51.84" rx="6.28"/><g class="d"><rect class="e" x="94.58" y="5.89" width="25.1" height="28.87" rx="1.12" transform="translate(-1.81 15.73) rotate(-8.33)"/><rect class="e" x="97.35" y="9.72" width="17.57" height="7.53" transform="translate(-0.83 15.51) rotate(-8.33)"/><polyline class="e" points="99.78 22.03 102.26 21.67 102.62 24.15"/><polyline class="e" points="105.98 21.12 108.47 20.76 108.83 23.24"/><polyline class="e" points="112.19 20.21 114.68 19.85 115.04 22.33"/><polyline class="e" points="100.87 29.48 103.35 29.12 103.71 31.6"/><polyline class="e" points="107.08 28.57 109.56 28.21 109.92 30.69"/><polyline class="e" points="113.28 27.66 115.77 27.3 116.13 29.79"/></g><g class="f"><path class="g" d="M95.09,42.38l.36-.68L70.75,14l-.82.17Z"/><path class="g" d="M67.56,14.56l26.5,29.55c.11-.19.23-.36.35-.56L68.34,14.47Z"/><path class="g" d="M93.24,45.34,65.79,14.69h-.62l0,.12H65L92.87,45.88Z"/><path class="g" d="M92,47.07l-27-30.15,0,.94L91.56,47.57C91.7,47.41,91.83,47.24,92,47.07Z"/><path class="g" d="M64.91,20c0,.33,0,.66,0,1L90.23,49.1l.43-.47Z"/><path class="g" d="M65.09,23.85l23.82,26.6c.15-.14.3-.3.45-.45L65,22.8C65,23.16,65.06,23.5,65.09,23.85Z"/><path class="g" d="M65.3,26.15c0,.38.09.75.14,1.12l22,24.52.48-.41Z"/><path class="g" d="M65.82,29.75c.07.41.15.81.23,1.21l19.8,22.09.5-.39Z"/><path class="g" d="M66.56,33.25c.11.45.22.9.35,1.34L84.37,54.08l.54-.36Z"/><path class="g" d="M68.73,39.85,82.48,55.19l.57-.31-15-16.74C68.28,38.73,68.5,39.3,68.73,39.85Z"/><path class="g" d="M70.4,43.34A30.56,30.56,0,0,0,80.75,54.9Z"/><path class="g" d="M96.05,40.52l.33-.72L72.92,13.5l-.79.21Z"/><path class="g" d="M97,38.39c.1-.25.2-.49.29-.74L75.1,12.82c-.24.08-.49.17-.74.24Z"/><path class="g" d="M97.82,36.15c.08-.23.16-.45.24-.69L77.42,12l-.64.25Z"/><path class="g" d="M79.12,11.29,98.61,33.57c.06-.25.12-.51.19-.76L79.74,11Z"/><path class="g" d="M81.92,10l-.6.29,18,20.22c0-.26.09-.53.14-.79Z"/><path class="g" d="M84.05,8.9l-.36.2L99.8,27.28c0-.28.07-.56.1-.85l-14.18-16A22.61,22.61,0,0,1,84.05,8.9Z"/><path class="g" d="M92.14,14.48c-.53-.23-1-.48-1.51-.74l9.44,10.65c0-.29,0-.61,0-.91Z"/><path class="g" d="M96.08,15.83c-.37-.09-.75-.18-1.11-.29l5.2,5.86c0-.31,0-.64,0-1Z"/><path class="g" d="M98.87,16.28l-1-.1,2.21,2.5c0-.34,0-.68,0-1Z"/></g><path class="h" d="M43.79,50.52A14.85,14.85,0,0,1,30,42.35l11.75-.5L43.4,37.4,28.57,38l-.24-2.18.05-2.19L45,33l1.62-4.45-17.13.73a14.84,14.84,0,0,1,13-9.3,14.64,14.64,0,0,1,11.89,5.33l-.26-6.06a18.63,18.63,0,0,0-11.81-3.64A19.16,19.16,0,0,0,24.88,29.44l-3.52.15-1.93,4.46,4.68-.2V36l.2,2.18-2.58.11L19.8,42.78l5.64-.23A19.18,19.18,0,0,0,44,54.89a18.54,18.54,0,0,0,11.46-4.6l-.26-6.1A14.61,14.61,0,0,1,43.79,50.52Z"/><path class="i" d="M20.71,20.26l2.7.29a5.7,5.7,0,0,1,1.46-3.65A5.77,5.77,0,0,1,28.67,15l-.55-2.67a8.46,8.46,0,0,0-7.41,7.94Z"/><path class="i" d="M19.45,11.87a11.07,11.07,0,0,0-2.81,8l2.74.29a8.42,8.42,0,0,1,8.43-9.27l-.56-2.71A11.15,11.15,0,0,0,19.45,11.87Z"/><path class="i" d="M16,8.78A13.56,13.56,0,0,0,12.49,19.4l2.79.29A10.69,10.69,0,0,1,18,10.59a10.65,10.65,0,0,1,9-3.74L26.4,4.09A13.53,13.53,0,0,0,16,8.78Z"/><path class="j" d="M99.57,32.59l2.27,4.64h-2c-.21,0-.23-.17-.28-.29-.56-1.22-1.13-2.44-1.68-3.67a.4.4,0,0,0-.46-.29,10.65,10.65,0,0,1-1.13,0c-.21,0-.25.07-.25.26,0,1.22,0,2.43,0,3.64,0,.3-.09.37-.36.35-.45,0-.9,0-1.35,0-.2,0-.28,0-.28-.25q0-4.95,0-9.9c0-.17,0-.26.23-.26,1.52,0,3-.08,4.55.06a2.6,2.6,0,0,1,2.4,1.68,3.16,3.16,0,0,1-.35,3.21A2.7,2.7,0,0,1,99.57,32.59ZM96,28.45v2.61a.65.65,0,0,1,0,.14c0,.12,0,.18.16.18a12.65,12.65,0,0,0,2.22-.09,1.2,1.2,0,0,0,1-.68A1.45,1.45,0,0,0,98,28.46C97.38,28.43,96.71,28.45,96,28.45Z"/><path class="j" d="M103.57,32V27.14c0-.14-.06-.32.21-.32,1.27,0,2.55-.06,3.82.05a3.94,3.94,0,0,1,3.82,3.29,7.59,7.59,0,0,1-.19,4.4,4,4,0,0,1-4.06,2.67h-3.25c-.27,0-.36,0-.36-.35C103.58,35.26,103.57,33.64,103.57,32Zm2,0c0,1.09,0,2.18,0,3.27,0,.2,0,.28.26.27.41,0,.83,0,1.24,0a2.35,2.35,0,0,0,2.43-1.94,6.32,6.32,0,0,0,0-3.23,2.34,2.34,0,0,0-2.34-1.87c-.42,0-.85,0-1.27,0-.25,0-.3.07-.3.3C105.55,29.87,105.55,31,105.55,32Z"/><path class="j" d="M78.25,32c0-1.63,0-3.25,0-4.87,0-.25.06-.33.32-.33h6c.24,0,.33.06.31.3a9.91,9.91,0,0,0,0,1.09c0,.23-.06.29-.28.29h-4c-.25,0-.34,0-.34.31,0,.63,0,1.26,0,1.89,0,.24.07.28.28.28.94,0,1.87,0,2.81,0,.32,0,.39.09.37.39a6.81,6.81,0,0,0,0,1c0,.23-.06.29-.28.29-1,0-1.92,0-2.88,0-.24,0-.31.07-.3.31,0,1.32,0,2.64,0,4,0,.27-.06.36-.34.34q-.68,0-1.35,0c-.25,0-.3-.07-.3-.3C78.26,35.29,78.25,33.65,78.25,32Z"/><path class="k" d="M93.17,44.37a24.08,24.08,0,0,1-12.85-3.54,16,16,0,0,1-1.91-1.39c-.18-.14-.19-.23,0-.39.46-.48.45-.48,1-.08a21.07,21.07,0,0,0,9,4,28.11,28.11,0,0,0,14.43-1.18,41.08,41.08,0,0,0,7-3.12c.27-.15.38-.11.52.16.26.52.28.52-.24.8A39.81,39.81,0,0,1,98.5,43.86,28.82,28.82,0,0,1,93.17,44.37Z"/><path class="l" d="M87,33.79A2.65,2.65,0,0,0,87.19,35a1.58,1.58,0,0,0,2.52.49c.18-.14.28-.46.54-.41a1.77,1.77,0,0,1,.59.34c.21.12.41.25.62.39a3.25,3.25,0,0,1-2.88,1.51,3.11,3.11,0,0,1-3.36-3.08,5.63,5.63,0,0,1,.26-2.61,3,3,0,0,1,3.14-2A3,3,0,0,1,91.34,32a6.28,6.28,0,0,1,.13,1.44c0,.27,0,.37-.35.36-1.25,0-2.5,0-3.75,0Zm1.39-1.22c.4,0,.8,0,1.2,0,.24,0,.28-.09.25-.3A1.4,1.4,0,0,0,88.39,31,1.42,1.42,0,0,0,87,32.33c0,.19,0,.25.23.25C87.58,32.56,88,32.57,88.36,32.57Z"/><path class="m" d="M75.57,36.59a2.14,2.14,0,0,1-1.33.69,2.3,2.3,0,0,1-2.64-1.81,4.72,4.72,0,0,1,.13-3A2.35,2.35,0,0,1,74.08,31a2.25,2.25,0,0,1,2.2,1.45s0,.07,0,.12a7.14,7.14,0,0,1-.93.28c-.16.05-.21-.07-.27-.17a1.29,1.29,0,0,0-.56-.55,1.18,1.18,0,0,0-1.62.6,3.57,3.57,0,0,0,0,2.83,1.15,1.15,0,0,0,1.37.75,1.19,1.19,0,0,0,1-1.15,3.88,3.88,0,0,0-.9,0c-.18,0-.25-.06-.26-.25,0-.76,0-.76.72-.76h1.39c.17,0,.23,0,.23.23,0,.9,0,1.79,0,2.69,0,.16,0,.25-.23.24a.7.7,0,0,0-.25,0c-.34.06-.44-.09-.39-.4A1.77,1.77,0,0,0,75.57,36.59Z"/><path class="n" d="M70.42,33.31c0,.6,0,1.19,0,1.79a2.07,2.07,0,0,1-2.17,2.18,4.42,4.42,0,0,1-.73,0,2,2,0,0,1-1.87-2.06c0-1.3,0-2.61,0-3.92,0-.22.1-.26.29-.26.9,0,.9,0,.9.86,0,1.08,0,2.16,0,3.24a1.08,1.08,0,0,0,.48,1,1.21,1.21,0,0,0,1.91-1c0-1.17,0-2.33,0-3.49,0-.61,0-.61.62-.61s.57,0,.57.59Z"/><path class="o" d="M63.13,32H60.81c-.25,0-.37,0-.36-.33,0-.68,0-.68.69-.68h3.21c.25,0,.32.07.32.32a1.67,1.67,0,0,1-.34,1.14c-.82,1.12-1.6,2.26-2.4,3.39a.65.65,0,0,0-.19.38h2.35c.61,0,.6,0,.61.62,0,.29,0,.4-.37.39-1.25,0-2.5,0-3.75,0-.26,0-.31-.08-.33-.32a1.85,1.85,0,0,1,.41-1.31c.77-1.06,1.5-2.15,2.24-3.22C63,32.3,63,32.2,63.13,32Z"/><path class="p" d="M114.11,33.92c0-2.26,0-4.53,0-6.79,0-.21.07-.26.27-.27.91,0,.91,0,.91.86,0,2.07,0,4.14,0,6.21Z"/><path class="q" d="M114.11,33.92h1.16a.21.21,0,0,1,0,.07c0,2.19,0,4.37,0,6.56h-1.17Z"/><path class="r" d="M114.11,40.56h1.17c0,2.11,0,4.21,0,6.32,0,.3-.06.4-.37.39-.81,0-.81,0-.81-.83C114.1,44.48,114.11,42.52,114.11,40.56Z"/><path class="s" d="M124.94,29.09c.08-.33.15-.65.22-1,0-.09.08-.21,0-.25a.21.21,0,0,0-.27.18,8,8,0,0,0-.18.85c0,.22-.14.29-.37.21,0-.21.1-.42.14-.63a2,2,0,0,0,.09-.61c-.2,0-.3.05-.34.23s-.11.55-.18.82-.06.22-.35.18c.09-.42.19-.85.27-1.27,0-.2.13-.21.34-.22s.57.13.86,0,.44.05.38.36-.14.63-.22,1S125.24,29.12,124.94,29.09Z"/><path class="t" d="M118.85,41.28l.42-2s0-.11.06-.12a1,1,0,0,1,.78.06c.19.09.2.29.16.48s-.11.47-.16.71C119.94,41.23,119.69,41.4,118.85,41.28Zm.4-.28c.21,0,.37,0,.41-.15.1-.39.18-.78.26-1.17,0-.13,0-.2-.18-.21s-.17.06-.19.16C119.45,40.08,119.35,40.52,119.25,41Z"/><path class="t" d="M120,37.31c-.66-.08-.22-.65-.53-.88-.22.11-.16.37-.21.56s-.11.38-.41.26l.42-2c0-.11.09-.13.18-.13h.18c.23,0,.49,0,.61.22a.6.6,0,0,1-.11.71c-.29.29-.2.61-.18.93A1.73,1.73,0,0,0,120,37.31Zm-.55-1.19c.36,0,.51-.18.48-.47,0-.11,0-.19-.16-.19s-.19,0-.22.13S119.49,35.92,119.45,36.12Z"/><path class="u" d="M131.45,39.88c.05-.21.1-.38.13-.56s.09-.15.2-.14.12.11.1.2c-.12.59-.25,1.18-.38,1.77,0,.11-.13.22-.2.15s-.65.24-.71-.17a1.73,1.73,0,0,1,.29-1.24C131,39.69,131.24,39.77,131.45,39.88Zm-.54.88c0,.18,0,.28.1.29a.19.19,0,0,0,.22-.15c.05-.21.09-.43.14-.64s0-.2-.09-.23a.17.17,0,0,0-.22.13C131,40.38,131,40.61,130.91,40.76Z"/><path class="s" d="M126.78,39.22l-.11.59c.1.06.17,0,.25,0,.24-.06.36,0,.32.27s-.16.74-.24,1.1-.18.14-.34.15c.08-.36.15-.69.21-1,0-.09.12-.23-.06-.26a.23.23,0,0,0-.25.21c-.06.28-.13.56-.18.85,0,.14-.08.26-.26.22s-.07-.19-.05-.27c.11-.54.24-1.08.35-1.62C126.47,39.23,126.54,39.1,126.78,39.22Z"/><path class="s" d="M131.32,33.18c.08-.35.15-.66.21-1,0-.1.13-.23-.05-.27a.23.23,0,0,0-.26.21c-.06.28-.14.56-.18.85s-.13.26-.36.19c.14-.65.29-1.3.43-1.95,0-.2.18-.15.33-.12l-.11.58c.12.08.2,0,.29,0s.31.07.28.27c-.07.38-.16.76-.24,1.14C131.61,33.28,131.47,33.21,131.32,33.18Z"/><path class="s" d="M122.85,37.26c.14-.63.28-1.25.41-1.86.06-.23.06-.23.36-.2l-.13.65a1.55,1.55,0,0,1,.29-.09c.22,0,.34.06.3.28s-.16.73-.24,1.09c0,.19-.17.17-.34.14l.21-1c0-.09.1-.21,0-.25a.23.23,0,0,0-.27.19c-.06.28-.12.56-.19.84S123.16,37.28,122.85,37.26Z"/><path class="s" d="M122.6,32.12c.29-.15.34-.55.72-.44-.34.55-.34.55-.24,1.47-.23.06-.23.06-.42-.65-.19.09-.22.28-.25.45s-.11.32-.36.23c.14-.65.29-1.3.43-1.95,0-.22.19-.12.34-.15Z"/><path class="u" d="M123,27.61l-.25,1.22c.23.05.32,0,.36-.22s.14-.54.18-.81.14-.26.36-.18a10.17,10.17,0,0,1-.31,1.35c-.12.35-.48.07-.73.13s-.21-.18-.17-.35.14-.63.2-.95S122.75,27.53,123,27.61Z"/><path class="s" d="M129.24,41.27c.1-.44.19-.86.29-1.29a.17.17,0,0,1,0-.07c.19-.32.49,0,.74-.13s.21.17.17.35-.15.66-.22,1c0,.15-.1.23-.24.19s-.07-.19-.06-.27c0-.25.12-.5.17-.75,0-.09.11-.23-.07-.26a.23.23,0,0,0-.25.21l-.18.85C129.56,41.28,129.47,41.36,129.24,41.27Z"/><path class="u" d="M128.19,40.19a.59.59,0,0,1,.49-.41c.37-.06.53.09.47.46,0,.14-.07.28-.1.42-.14.64-.14.64-.74.65-.28,0-.39-.14-.3-.42a.89.89,0,0,1,.6-.52c.1,0,.23,0,.21-.2s0-.11,0-.13-.2,0-.27.12S128.33,40.25,128.19,40.19Zm.55.35c-.23.09-.42.18-.42.44,0,.06.08.09.14.07C128.72,41,128.74,40.78,128.74,40.54Z"/><path class="u" d="M124.76,37.28c.08-.38.15-.7.21-1,0-.08.11-.2,0-.24a.21.21,0,0,0-.27.18c-.07.29-.14.59-.2.88s-.15.24-.35.17l.3-1.34a0,0,0,0,1,0,0c.2-.29.49-.05.75-.11s.18.17.15.32c-.07.35-.16.69-.22,1S124.92,37.28,124.76,37.28Z"/><path class="t" d="M119.49,27.89l.41,0c0,.2,0,.33-.25.3s-.3.06-.32.27-.06.26-.08.39-.14.32-.4.23l.42-2c0-.13.11-.13.21-.13h.77c0,.2,0,.33-.23.3C119.58,27.23,119.49,27.49,119.49,27.89Z"/><path class="s" d="M127.3,37.26c.07-.35.14-.67.21-1,0-.09.1-.21,0-.24a.21.21,0,0,0-.27.18c-.06.28-.14.56-.19.84s-.12.3-.36.21c.1-.43.19-.86.28-1.29,0,0,0-.05,0-.07.19-.31.49,0,.74-.13s.21.19.17.35c-.06.32-.15.63-.2,1S127.52,37.33,127.3,37.26Z"/><path class="s" d="M126.67,35.78c-.1.44-.19.86-.29,1.28v0c-.17.39-.51.07-.76.16s-.19-.19-.16-.35c.07-.32.15-.64.21-1s.14-.25.35-.18c-.07.33-.14.65-.2,1,0,.09-.13.23.05.26s.22-.06.25-.2.14-.57.19-.85S126.44,35.69,126.67,35.78Z"/><path class="s" d="M126.36,33.17c.1-.44.19-.87.28-1.3,0-.18.13-.27.31-.18a.22.22,0,0,0,.18,0c.42-.1.52,0,.43.41s-.13.57-.2.85,0,.23-.35.21c.07-.33.14-.66.2-1,0-.09.14-.23,0-.27a.22.22,0,0,0-.25.2c-.06.29-.14.57-.19.85S126.57,33.25,126.36,33.17Z"/><path class="s" d="M121.32,40.82a.54.54,0,0,1-.48.47c-.34.06-.51-.09-.49-.43a2.23,2.23,0,0,1,.19-.77.56.56,0,0,1,.7-.29c.31.11.22.35.2.57s-.25.21-.41.21-.37,0-.37.26c0,.08,0,.15.07.19A.15.15,0,0,0,121,41C121,40.83,121.1,40.72,121.32,40.82Zm-.53-.46c.13-.09.31.1.37-.16,0-.09,0-.17-.12-.17S120.8,40.14,120.79,40.36Z"/><path class="s" d="M119.88,32.72a.54.54,0,0,1-.41.46c-.37.11-.61-.08-.55-.46a2,2,0,0,1,.2-.76.58.58,0,0,1,.72-.26c.28.14.19.38.16.6a.18.18,0,0,1-.22.18c-.12,0-.24,0-.36,0s-.16.12-.19.22,0,.2.09.24a.19.19,0,0,0,.23-.13C119.62,32.63,119.75,32.68,119.88,32.72Zm-.53-.5c.15,0,.32.1.37-.12s0-.18-.11-.18S119.37,32,119.35,32.22Z"/><path class="s" d="M133,32.72a.57.57,0,0,1-.5.48.36.36,0,0,1-.47-.42,2.06,2.06,0,0,1,.2-.81.58.58,0,0,1,.72-.27c.28.13.2.37.17.6s-.25.17-.4.18-.37,0-.38.25c0,.08,0,.15.07.19a.15.15,0,0,0,.22-.05A.25.25,0,0,1,133,32.72Zm-.52-.5c.13,0,.29.1.36-.1s0-.21-.14-.2S132.46,32,132.48,32.22Z"/><path class="s" d="M121.84,32.71a.55.55,0,0,1-.47.48c-.33.07-.53-.09-.5-.42a2.23,2.23,0,0,1,.19-.77.56.56,0,0,1,.7-.31c.3.11.23.35.2.58s-.25.2-.41.21-.35,0-.37.23c0,.08,0,.17.07.22a.16.16,0,0,0,.22-.07A.26.26,0,0,1,121.84,32.71Zm-.53-.46c.14,0,.32.08.37-.14s0-.19-.12-.19S121.31,32,121.31,32.25Z"/><path class="u" d="M120.23,28.63c0-.17.08-.4.15-.62a.59.59,0,0,1,.68-.42.33.33,0,0,1,.24.14,1.17,1.17,0,0,1-.61,1.39C120.38,29.16,120.21,29,120.23,28.63Zm.82-.58c0-.09,0-.2-.13-.21a.19.19,0,0,0-.22.15c0,.2-.09.42-.15.62s0,.21.08.25a.18.18,0,0,0,.25-.14C120.94,28.5,121,28.28,121.05,28.05Z"/><path class="s" d="M121.31,36.79a.52.52,0,0,1-.46.48c-.34.07-.52-.09-.5-.43a2.35,2.35,0,0,1,.19-.77.56.56,0,0,1,.7-.3c.3.11.23.35.21.58a.21.21,0,0,1-.27.21c-.11,0-.22,0-.33,0s-.16.11-.18.22,0,.2.08.24a.17.17,0,0,0,.23-.12C121.05,36.72,121.17,36.75,121.31,36.79Zm-.5-.46c.13,0,.31.08.35-.15s0-.19-.12-.18S120.78,36.12,120.81,36.33Z"/><path class="s" d="M125.16,32.77c.06-.25.11-.5.19-.73a.57.57,0,0,1,.71-.35c.32.11.27.36.21.6a1.81,1.81,0,0,1-.22.68.58.58,0,0,1-.65.21C125.2,33.12,125.17,33,125.16,32.77Zm.84-.63c0-.1,0-.2-.13-.22a.18.18,0,0,0-.22.14c-.06.21-.1.42-.15.63s0,.23.11.26.2-.07.23-.18S125.94,32.35,126,32.14Z"/><path class="v" d="M125.16,40.77c0,.15,0,.24.09.27a.18.18,0,0,0,.22-.13c.06-.15.15-.27.29-.18s0,.24-.06.34a.54.54,0,0,1-.68.2c-.25-.1-.2-.33-.16-.54a5.07,5.07,0,0,1,.13-.56.58.58,0,0,1,.76-.37.35.35,0,0,1,.22.34.14.14,0,0,1-.12.16c-.17,0-.16-.11-.23-.2s-.26-.06-.32.1S125.2,40.62,125.16,40.77Z"/><path class="v" d="M130.49,32.65a.59.59,0,0,1-.35.5.51.51,0,0,1-.52,0,.4.4,0,0,1-.11-.46,4.34,4.34,0,0,1,.14-.6.59.59,0,0,1,.72-.39.34.34,0,0,1,.26.31c0,.1,0,.18-.11.2s-.18,0-.21-.08,0-.2-.16-.19-.18.12-.21.22l-.12.57c0,.11,0,.2.1.23a.16.16,0,0,0,.2-.11C130.18,32.65,130.27,32.55,130.49,32.65Z"/><path class="u" d="M122.66,36.73a.58.58,0,0,1-.35.5.54.54,0,0,1-.52,0,.4.4,0,0,1-.11-.44,4.44,4.44,0,0,1,.15-.63.58.58,0,0,1,.8-.34.35.35,0,0,1,.17.34c0,.08,0,.12-.14.13s-.15-.08-.2-.18-.25-.1-.3,0a6.14,6.14,0,0,0-.18.74.14.14,0,0,0,.11.16.18.18,0,0,0,.21-.11C122.36,36.73,122.45,36.63,122.66,36.73Z"/><path class="v" d="M129,31.67a.35.35,0,0,1,.36.18c0,.06.08.13,0,.19a.17.17,0,0,1-.21,0c-.09-.08-.19-.23-.31,0s.09.23.18.31a.47.47,0,0,1,.18.6.53.53,0,0,1-.55.28.31.31,0,0,1-.29-.18c0-.07-.1-.16,0-.23s.19-.1.25,0,.16.2.27.08,0-.23-.1-.33c-.34-.34-.36-.55-.1-.77A.53.53,0,0,1,129,31.67Z"/><path class="u" d="M124.06,41.3a.38.38,0,0,1-.29-.1c-.06-.08-.16-.19-.07-.28s.21-.15.29,0a.13.13,0,0,0,.23.06c.11-.09.08-.19,0-.28s-.17-.14-.24-.22a.37.37,0,0,1,0-.55.47.47,0,0,1,.62-.13c.11.06.21.18.13.3s-.19.07-.27,0-.17-.1-.24,0,0,.17.06.24.26.19.31.35A.49.49,0,0,1,124.06,41.3Z"/><path class="v" d="M123.61,39.57c0,.09,0,.15.08.2s0,.17,0,.24a.86.86,0,0,0-.22,1,.18.18,0,0,1,0,.2c-.07.1-.17,0-.26,0a.19.19,0,0,1-.18-.23c0-.21.08-.42.12-.64s.15-.3,0-.45,0-.17,0-.18.17-.17.2-.3.1-.15.21-.14S123.63,39.46,123.61,39.57Z"/><path class="v" d="M128.11,36.93c.07-.24-.06-.48,0-.73s.41-.57.8-.39c.17.08.24-.07.41,0-.34.44-.33,1.13-1.07,1.21Zm.66-.69c0-.1,0-.25-.1-.24s-.21.26-.27.41,0,.23.13.21S128.73,36.39,128.77,36.24Z"/><path class="s" d="M124.06,31.47c0,.1,0,.15.07.2s.08.15,0,.22a.9.9,0,0,0-.23,1,.18.18,0,0,1,0,.2c-.08.11-.19.06-.3,0a.21.21,0,0,1-.16-.25c0-.23.11-.45.14-.68s.16-.26,0-.38,0-.17.06-.2.15-.14.17-.24,0-.21.2-.19S124.07,31.38,124.06,31.47Z"/><path class="u" d="M127.34,41.27c.15-.65.3-1.29.43-1.94,0-.14.11-.17.23-.15s.09.14.07.22c-.12.57-.25,1.14-.37,1.7C127.66,41.3,127.56,41.36,127.34,41.27Z"/><path class="u" d="M120.15,33.19c.14-.64.28-1.25.41-1.87,0-.21.12-.29.36-.2-.14.64-.28,1.27-.41,1.9C120.46,33.24,120.34,33.22,120.15,33.19Z"/><path class="u" d="M121.41,29.1c.1-.45.2-.88.29-1.31,0-.2.15-.3.32-.16s.27-.16.44,0c0,.1,0,.24-.21.22s-.28.15-.32.32-.12.47-.16.71S121.65,29.17,121.41,29.1Z"/><path class="u" d="M128.11,36.93l.18.06a.75.75,0,0,0,.39.06c.15,0,.3.06.33.22a.35.35,0,0,1-.22.38,1.18,1.18,0,0,1-.67.08c-.33,0-.37-.12-.17-.38S127.88,37,128.11,36.93Zm.06.54a.57.57,0,0,0,.51,0,.07.07,0,0,0,0-.12.41.41,0,0,0-.49.06A.45.45,0,0,1,128.17,37.47Z"/><path class="t" d="M125.1,31.78v.06c-.57.19-.52.72-.63,1.16,0,.22-.15.25-.35.17.1-.45.2-.89.29-1.34,0-.15.15-.23.25-.15S125,31.69,125.1,31.78Z"/><path class="s" d="M122.18,41.2a.35.35,0,0,1-.43.07c-.18-.1-.1-.26-.07-.39.06-.31.14-.61.2-.92s.15-.24.34-.17c-.07.33-.14.66-.2,1,0,.11-.1.24.09.29Z"/><path class="u" d="M122.18,41.2l-.07-.13a.38.38,0,0,0,.23-.3c0-.27.13-.54.18-.81s.15-.24.35-.17c-.1.45-.19.9-.3,1.34S122.33,41.31,122.18,41.2Z"/><path class="u" d="M128.27,31.69c-.1.45-.2.9-.29,1.35,0,.21-.17.18-.35.14.1-.47.21-.92.31-1.38C128,31.59,128.12,31.66,128.27,31.69Z"/><path class="v" d="M128.37,31.16c0,.17,0,.3-.23.28s-.12,0-.1-.14S128.23,31.14,128.37,31.16Z"/></g></svg>