<svg xmlns="http://www.w3.org/2000/svg" xmlns:xlink="http://www.w3.org/1999/xlink" viewBox="0 0 140 60"><defs><style>.a,.e,.k{fill:none;}.b{clip-path:url(#a);}.c{fill:#e9f0f7;}.d{opacity:0.5;}.e,.k{stroke:#b0bbce;stroke-linecap:round;}.e,.h,.i,.k{stroke-miterlimit:10;}.e{stroke-width:0.63px;}.f{opacity:0.32;}.g{fill:#869cb3;}.h,.i{fill:#fff;stroke:#869cb3;}.h{stroke-width:0.75px;}.i{stroke-width:0.5px;}.j{opacity:0.61;}.k{stroke-width:0.55px;}.l{fill:#b0bbce;}</style><clipPath id="a"><rect class="a" width="140" height="60"/></clipPath></defs><g class="b"><rect class="c" x="18.95" y="24.22" width="64.39" height="31.45" rx="6.08"/><g class="d"><rect class="e" x="5.93" y="26.88" width="25.1" height="28.87" rx="1.12" transform="translate(-5.79 3.11) rotate(-8.33)"/><rect class="e" x="8.7" y="30.72" width="17.57" height="7.53" transform="translate(-4.81 2.89) rotate(-8.33)"/><polyline class="e" points="11.12 43.02 13.61 42.66 13.97 45.14"/><polyline class="e" points="17.33 42.11 19.82 41.75 20.18 44.23"/><polyline class="e" points="23.54 41.2 26.02 40.84 26.39 43.33"/><polyline class="e" points="12.21 50.47 14.7 50.11 15.06 52.59"/><polyline class="e" points="18.42 49.56 20.91 49.2 21.27 51.68"/><polyline class="e" points="24.63 48.66 27.11 48.29 27.48 50.78"/></g><g class="f"><path class="g" d="M91.54,46.92l.35-.55L72.64,21.29c-.23,0-.47.07-.71.09Z"/><path class="g" d="M69.9,21.54,90.55,48.33c.11-.15.23-.29.34-.45L70.56,21.51Z"/><path class="g" d="M89.78,49.33l-21.4-27.8-.52,0a1,1,0,0,0,0,.1h-.08L89.43,49.76Z"/><path class="g" d="M88.59,50.72,67.51,23.37c0,.27-.06.54-.08.8L88.21,51.12Z"/><path class="g" d="M67.3,26c0,.28,0,.56,0,.84L87,52.33l.4-.37Z"/><path class="g" d="M67.21,29.27,85.77,53.4l.42-.35-19-24.67Z"/><path class="g" d="M67.24,31.25c0,.32,0,.64.05,1L84.43,54.45l.43-.33Z"/><path class="g" d="M67.45,34.34l.12,1L83,55.41l.45-.29Z"/><path class="g" d="M67.86,37.36l.21,1.16L81.69,56.19l.47-.27Z"/><path class="g" d="M69.29,43.11,80,57l.51-.23L68.83,41.61C69,42.13,69.13,42.63,69.29,43.11Z"/><path class="g" d="M70.49,46.18a25.86,25.86,0,0,0,8.07,10.48Z"/><path class="g" d="M92.48,45.41c.11-.19.21-.4.32-.59L74.52,21l-.68.13Z"/><path class="g" d="M93.41,43.65c.1-.2.2-.4.29-.61L76.42,20.53l-.65.16Z"/><path class="g" d="M94.26,41.81l.24-.58L78.44,20l-.56.16Z"/><path class="g" d="M79.93,19.49,95.09,39.66,95.3,39,80.47,19.3Z"/><path class="g" d="M82.39,18.58l-.53.2,14,18.33c.06-.22.11-.44.17-.67Z"/><path class="g" d="M84.27,17.77l-.32.15L96.5,34.39c0-.24.09-.48.14-.72l-11-14.49C84.75,18.35,84.27,17.77,84.27,17.77Z"/><path class="g" d="M90.8,23c-.44-.23-.85-.48-1.24-.73L96.91,32c0-.25.06-.52.09-.78Z"/><path class="g" d="M94.06,24.41l-.92-.31,4,5.32c0-.27,0-.55,0-.83Z"/><path class="g" d="M96.4,25l-.8-.15,1.73,2.26c0-.28,0-.58,0-.87Z"/></g><path class="h" d="M49,49a14.87,14.87,0,0,1-13.77-8.17L47,40.34l1.61-4.45-14.83.63-.24-2.17.06-2.19,16.6-.71L51.8,27l-17.12.73a14.83,14.83,0,0,1,13-9.3,14.64,14.64,0,0,1,11.88,5.33l-.26-6.06a18.61,18.61,0,0,0-11.81-3.64A19.17,19.17,0,0,0,30.08,27.93l-3.52.15-1.93,4.46,4.69-.2v2.19l.2,2.18-2.58.11L25,41.27,30.64,41A19.17,19.17,0,0,0,49.18,53.38a18.47,18.47,0,0,0,11.46-4.61l-.26-6.09A14.6,14.6,0,0,1,49,49Z"/><path class="i" d="M25.91,18.75l2.71.29a5.75,5.75,0,0,1,5.26-5.56l-.56-2.67a8.46,8.46,0,0,0-7.41,7.94Z"/><path class="i" d="M24.65,10.36a11.16,11.16,0,0,0-2.81,8l2.74.29A8.44,8.44,0,0,1,33,9.34l-.56-2.71A11.13,11.13,0,0,0,24.65,10.36Z"/><path class="i" d="M21.19,7.27a13.53,13.53,0,0,0-3.5,10.62l2.8.29a10.65,10.65,0,0,1,2.73-9.1,10.62,10.62,0,0,1,9-3.74l-.57-2.76A13.5,13.5,0,0,0,21.19,7.27Z"/><g class="j"><path class="k" d="M82.58,12.11l5.77-.85L90.28,11l5.77-.84,9.61-1.41,7.7-1.13A5.83,5.83,0,0,1,120,12.53L125.6,51l-4.41-3.28-3.28,4.41-4.41-3.28-3.21,4.4L105.8,50l-3.28,4.41-4.41-3.28L94.83,55.5,89.76,20.88,89.2,17"/><path class="l" d="M83.43,12.59a5.34,5.34,0,0,1,5.23,4.52l.48,3.31L78.68,22l-.48-3.31a5.29,5.29,0,0,1,4.46-6,5.09,5.09,0,0,1,.77-.06m0-.55a5,5,0,0,0-.85.07,5.81,5.81,0,0,0-4.92,6.61l.56,3.85,11.54-1.69L89.2,17a5.86,5.86,0,0,0-5.77-5Z"/><line class="k" x1="112.08" y1="40.56" x2="115.93" y2="40"/><line class="k" x1="111.68" y1="37.85" x2="115.53" y2="37.29"/><line class="k" x1="99.06" y1="26.27" x2="114.52" y2="24.01"/><line class="k" x1="99.46" y1="29.02" x2="114.92" y2="26.76"/><path class="l" d="M119.24,35.94l-.32,0a1.77,1.77,0,0,0-1.13.6,2.19,2.19,0,0,0-.49,1.3l-.46.07.08.45.38-.05a3.39,3.39,0,0,0,0,.35,1.11,1.11,0,0,0,0,.24L117,39l.08.45.42-.06a1.8,1.8,0,0,0,1.73,1.42,1.84,1.84,0,0,0,.33,0,2,2,0,0,0,1-.37l-.08-.49a1.9,1.9,0,0,1-.91.41h-.19c-.56,0-1-.34-1.23-1l1.77-.24-.07-.45-1.83.25a3.76,3.76,0,0,1-.1-.6l1.83-.25-.07-.45-1.75.24a1.67,1.67,0,0,1,.34-.94,1.08,1.08,0,0,1,.73-.43l.25,0a1.65,1.65,0,0,1,.69.15l-.08-.52a1.9,1.9,0,0,0-.58-.09Z"/></g></g></svg>