<?xml version="1.0" encoding="UTF-8"?>
<svg xmlns="http://www.w3.org/2000/svg" xmlns:xlink="http://www.w3.org/1999/xlink" viewBox="0 0 140 60">
  <defs>
    <style>
      .cls-1, .cls-2, .cls-3, .cls-4, .cls-5, .cls-6 {
        stroke-miterlimit: 10;
      }

      .cls-1, .cls-3, .cls-5, .cls-6 {
        fill: #fff;
        stroke-width: .48px;
      }

      .cls-1, .cls-3, .cls-6 {
        stroke: #8399b0;
      }

      .cls-7 {
        fill: #8399b0;
      }

      .cls-7, .cls-8, .cls-9, .cls-10, .cls-11 {
        stroke-width: 0px;
      }

      .cls-12 {
        isolation: isolate;
      }

      .cls-2 {
        stroke-linecap: round;
      }

      .cls-2, .cls-10, .cls-4 {
        fill: none;
      }

      .cls-2, .cls-4 {
        stroke: #b0bbce;
        stroke-width: .63px;
      }

      .cls-8 {
        fill: #869cb3;
      }

      .cls-8, .cls-3 {
        opacity: .21;
      }

      .cls-9 {
        fill: #e6eef5;
      }

      .cls-13 {
        opacity: .35;
      }

      .cls-3, .cls-6 {
        mix-blend-mode: overlay;
      }

      .cls-14 {
        opacity: .45;
      }

      .cls-15 {
        clip-path: url(#clippath);
      }

      .cls-5 {
        stroke: #8398af;
      }

      .cls-6 {
        opacity: .29;
      }

      .cls-11 {
        fill: #8398af;
      }
    </style>
    <clipPath id="clippath">
      <rect class="cls-10" width="140" height="60"/>
    </clipPath>
  </defs>
  <g class="cls-12">
    <g id="graficas">
      <g class="cls-15">
        <g>
          <rect class="cls-9" x="74.12" y="16.48" width="60.38" height="35.6" rx="7.55" ry="7.55"/>
          <rect class="cls-9" x="11.04" y="4.96" width="60.38" height="50.19" rx="7.55" ry="7.55"/>
          <g class="cls-13">
            <polygon class="cls-7" points="37.93 35 36.55 34.96 62.1 52.47 63.49 52.51 37.93 35"/>
            <polygon class="cls-7" points="41.88 34.83 40.67 34.8 64.74 51.3 64.8 50.53 41.88 34.83"/>
            <polygon class="cls-7" points="64.93 48.64 64.99 47.88 45.45 34.49 44.23 34.46 64.93 48.64"/>
            <polygon class="cls-7" points="65.1 46.35 65.15 45.59 49.1 34.59 47.89 34.56 65.1 46.35"/>
            <polygon class="cls-7" points="65.25 44.24 65.3 43.48 52.47 34.69 51.25 34.66 65.25 44.24"/>
            <polygon class="cls-7" points="65.42 41.86 65.47 41.1 56.27 34.8 55.06 34.76 65.42 41.86"/>
            <polygon class="cls-7" points="60.44 34.89 59.23 34.85 65.71 39.29 65.77 38.53 60.44 34.89"/>
            <polygon class="cls-7" points="32.97 34.99 58.31 52.36 59.69 52.4 34.34 35.03 32.97 34.99"/>
            <polygon class="cls-7" points="55.68 52.29 30.66 35.15 29.31 35.11 54.32 52.25 55.68 52.29"/>
            <path class="cls-7" d="m49.91,52.13l1.07.03s0,0,0,0c.04,0,.09,0,.14,0l-23.57-16.15h-.12s-.05.68-.05.68l22.53,15.44Z"/>
            <polygon class="cls-7" points="45.49 52 46.71 52.04 27.23 38.7 27.18 39.45 45.49 52"/>
            <polygon class="cls-7" points="40.61 51.86 41.83 51.9 27.02 41.75 26.96 42.51 40.61 51.86"/>
            <polygon class="cls-7" points="35.93 51.73 37.15 51.77 26.81 44.68 26.75 45.44 35.93 51.73"/>
            <polygon class="cls-7" points="32.42 52.3 33.64 52.33 26.65 47.54 26.59 48.3 32.42 52.3"/>
          </g>
          <g>
            <path class="cls-2" d="m120.21,12.41c-3.48-3.05-7.92-.37-7.99,3.26-.02.93.25,1.83.78,2.66h3.45l.61-1.02c.18-.3.61-.31.8-.01l1.29,2.03,1.89-3.98c.16-.35.65-.36.84-.02l1.62,3h3.93c2.91-4.55-2.84-9.74-7.21-5.92h0Z"/>
            <path class="cls-2" d="m122.8,19.02l-1.31-2.43-1.85,3.91c-.16.33-.62.36-.82.05l-1.34-2.11-.36.6c-.08.14-.24.23-.4.23h-2.97c.09.1-.4-.4,6.14,6.11.18.18.48.18.66,0,6.44-6.41,6.04-6.01,6.14-6.11h-3.47c-.17,0-.33-.09-.41-.25h0Z"/>
          </g>
          <g>
            <path class="cls-5" d="m61.58,12.49c-.18-.59-.58-1.09-.99-1.55-.54-.62-1.2-1.26-2.03-1.27-.72-.01-1.41.54-1.56,1.24-.03.13-.03.26-.02.39-.24-.06-.49-.11-.75-.13-5.04-.53-6.64,2.85-6.28,6.19.04.37.13.72.27,1.05,0,.02,0,.03,0,.03,0,0,0,0,0,0,.9,2.2,3.65,3.54,5.8,3.41.82-.05,1.54-.35,2.14-.83,0,0,0,0,.01.01.11.1.2.22.24.37.04.17,0,.35-.07.51-.15.34-.43.6-.61.93-.09.16-.15.32-.16.5-.01.17.03.33.1.48.15.29.4.5.59.75.35.48.34,1.19-.04,1.66-.05.06-.1.11-.16.16-.09.08.04.2.13.13.48-.42.64-1.15.4-1.74-.13-.31-.38-.54-.59-.8-.1-.12-.18-.25-.23-.4-.05-.17-.02-.34.04-.5.14-.35.43-.62.61-.94.18-.32.28-.71.06-1.04-.05-.08-.11-.14-.18-.21,1.12-.98,1.79-2.63,1.91-4.45.04-.67,0-1.31-.11-1.91.01,0,.02-.02.02-.03.4.04.8-.05,1.1-.31.46-.41.56-1.12.38-1.72Z"/>
            <polygon class="cls-5" points="50.72 46.36 48.14 54.98 68.56 54.98 65.35 46.22 50.72 46.36"/>
            <path class="cls-5" d="m63.52,35.14c-.79.46-1.65.81-2.53,1.08-2.35.72-4.87.89-7.3.48-1.57-.27-3.13-.79-4.41-1.74-1.28-.96-2.25-2.39-2.42-3.98-.03-.25-.03-.51-.01-.77.06-.8.32-1.58.79-2.23.91-1.28,2.51-1.65,4-1.83.17-.02.33-.04.47-.06.41-.06.72-.14.86-.34.01-.02.02-.04.04-.05.08-.13.17-.29.26-.47,0-.01.01-.03.02-.04.05-.1.09-.2.14-.3.1-.21.19-.43.28-.65.31-.75.56-1.46.56-1.46l1.11-.22,2.48-.49s.01.75.58,1.52c.48.65,1.34,1.32,2.93,1.58,1.27.21,2.52.29,3.75.69.71.23,1.28,1.09,1.58,1.72.35.72.5,1.54.46,2.33-.1,1.56-.92,3.02-2.06,4.09-.47.44-1,.82-1.55,1.14Z"/>
            <path class="cls-5" d="m66.21,42.92c0,3.07-.5,4.29-.5,4.29l-15.27.09c-.29-.46-.37-1.34-.32-2.53-.54.63-1.22.99-1.61,1.1-.75.2-2.23-.22-2.81-1.73-1.26-3.3-.41-13.1,1.99-16.25,1.35-1.78,3.32-1.65,4.41-1.8.45,1.05,1.85,3.56,5.01,3.34,3.21-.22,4.04-3.46,4.23-4.59,1.92,0,4.93,0,6.22,2.22,1.81,3.12,3.21,7.68,3.93,13.19.49,3.73-3.3,4.16-5.29,2.67Z"/>
            <ellipse class="cls-5" cx="50.98" cy="20.39" rx=".98" ry="1.53" transform="translate(-3.83 23.56) rotate(-25.1)"/>
            <path class="cls-5" d="m59.76,18.66c-.2-.09-.42-.07-.64.03-.04-1.56-.45-3.37-2.34-4.1-3.09-1.2-7.72-1.02-6.04,5.98.05.22.11.43.16.63.1.36.2.7.31,1.02.98,2.81,2.36,3.75,4.15,3.37,1.64-.35,2.9-2.17,3.44-4.08.44-.02.93-.43,1.21-1.05.35-.77.24-1.58-.26-1.8Z"/>
            <path class="cls-5" d="m52.69,21.85c-.33.19-.63.46-.89.73-1.43,1.45-2.81,2.95-4.23,4.42-.24.25-.49.52-.51.86-.03.45.44.85.88.75-.2.71.04,1.53.58,2.03.55.5,1.38.66,2.08.39.62.78,1.55,1.32,2.54,1.47.99.15,2.03-.09,2.86-.66.34-.23.66-.54.79-.93.14-.4.07-.84,0-1.26l-.89-5.37c-.15-.89-.57-1.92-1.33-2.46-.64-.46-1.31-.33-1.89.02Z"/>
            <path class="cls-5" d="m51.81,32.24s1.26-1.5,1.9-2.89c.64-1.39.89-3.12.9-3.8,0-.55-.36-1.06-.36-1.06,0-.71-.25-1.04-.66-1.14-.19-.55-.5-.67-.93-.41-.65-.22-1.37,1.24-2.14,3.62-.36,1.1-1.11,3.33-1.17,4.21-.06.88,2.46,1.48,2.46,1.48Z"/>
            <path class="cls-5" d="m57.49,31.8s-1.58-1.15-2.54-2.34c-.95-1.19-1.62-2.81-1.79-3.47-.14-.54.09-1.12.09-1.12-.18-.69-.02-1.07.36-1.27.05-.58.32-.77.8-.62.58-.37,1.63.87,2.96,2.99.62.98,1.89,2.96,2.16,3.8.27.84-2.03,2.03-2.03,2.03Z"/>
            <path class="cls-5" d="m52.98,30.9s.47,4.73-.59,9.05c-1.22,4.98-4.16,6.9-5.09,6.38-1.4-.79-3.89-3.65-1.19-9.71,1.31-2.94,3.28-7.33,3.28-7.33l3.59,1.61Z"/>
            <path class="cls-5" d="m67.43,43.9s-2.02-.57-5.24-3.88-6.09-8.82-6.09-8.82l3.17-2.56s6.43,3.7,9.69,6.22c1.77,1.37,3.95,4.57,2.6,7.55-1.09,2.38-4.13,1.49-4.13,1.49Z"/>
            <path class="cls-11" d="m48.41,20.65c-.13-.18-.31-.32-.52-.38s-.46,0-.6.17-.16.44-.02.6c.11.12.28.17.45.16.16,0,.33-.04.49-.05.13,0,.27,0,.39.06.03.01.06.03.05-.02,0-.03-.02-.08-.03-.11-.02-.07-.05-.15-.09-.22-.04-.08-.08-.16-.13-.23Z"/>
            <path class="cls-11" d="m48.51,22.55c-.22-.03-.45,0-.63.11-.18.12-.31.33-.3.55.02.22.2.42.42.43.16,0,.32-.09.43-.21s.2-.26.31-.39c.09-.1.19-.19.32-.24.03,0,.06-.02.03-.05-.03-.02-.07-.04-.1-.05-.07-.03-.14-.06-.22-.09-.08-.03-.17-.05-.25-.06Z"/>
            <path class="cls-11" d="m61.12,20.95c.13-.18.31-.32.52-.38s.46,0,.6.17.16.44.02.6c-.11.12-.28.17-.45.16-.16,0-.33-.04-.49-.05-.13,0-.27,0-.39.06-.03.01-.06.03-.05-.02,0-.03.02-.08.03-.11.02-.07.05-.15.09-.22.04-.08.08-.16.13-.23Z"/>
            <path class="cls-11" d="m61.03,22.86c.22-.03.45,0,.63.11.18.12.31.33.3.55-.02.22-.2.42-.42.43-.16,0-.32-.09-.43-.21-.11-.12-.2-.26-.31-.39-.09-.1-.19-.19-.32-.24-.03,0-.06-.02-.03-.05.03-.02.07-.04.1-.05.07-.03.14-.06.22-.09.08-.03.17-.05.25-.06Z"/>
            <path class="cls-11" d="m46.63,21.95c-.11,0-.22.04-.3.1-.09.06-.15.16-.15.27,0,.11.09.21.19.22.11.01.2-.07.29-.13.13-.1.27-.19.42-.26.04-.02.08-.03.12-.05.05-.02,0-.04-.03-.06-.08-.04-.16-.06-.25-.08-.1-.02-.19-.02-.29-.02Z"/>
            <path class="cls-11" d="m63.54,22.25c.11,0,.22.04.3.1.09.06.15.16.15.27,0,.11-.09.21-.19.22-.11.01-.2-.07-.29-.13-.13-.1-.27-.19-.42-.26-.04-.02-.08-.03-.12-.05-.05-.02,0-.04.03-.06.08-.04.16-.06.25-.08.1-.02.19-.02.29-.02Z"/>
          </g>
          <g>
            <path class="cls-8" d="m108.34,33.36h-2.46V11.69c.82,0,1.48-.66,1.48-1.48v-2.46c0-.27-.22-.49-.49-.49h-25.61c-.27,0-.49.22-.49.49v2.46c0,.82.66,1.48,1.48,1.48v21.67h-2.46c-.27,0-.49.22-.49.49v2.46c0,.27.22.49.49.49h28.57c.27,0,.49-.22.49-.49v-2.46c0-.27-.22-.49-.49-.49Zm-26.6-23.15v-1.97h24.63v1.97c0,.27-.22.49-.49.49h-23.64c-.27,0-.49-.22-.49-.49Zm23.15,1.48v21.67h-21.67V11.69h21.67Zm2.96,24.14h-27.58v-1.48h27.58v1.48Z"/>
            <path class="cls-8" d="m103.9,12.18h-19.7c-.27,0-.49.22-.49.49v19.7c0,.27.22.49.49.49h19.7c.27,0,.49-.22.49-.49V12.67c0-.27-.22-.49-.49-.49Zm-10.34,19.7h-8.87v-9.36h8.87v9.36Zm0-10.34h-8.87v-8.37h8.87v8.37Zm9.85,10.34h-8.87v-9.36h8.87v9.36Zm0-10.34h-8.87v-8.37h8.87v8.37Z"/>
            <path class="cls-8" d="m85.82,16.27l1.97-1.97.7.7-1.97,1.97-.7-.7Z"/>
            <path class="cls-8" d="m85.82,18.73l4.43-4.43.7.7-4.43,4.43-.7-.7Z"/>
          </g>
          <g>
            <g>
              <rect class="cls-1" x="98.4" y="32.48" width="32.59" height="20.47"/>
              <rect class="cls-1" x="98.4" y="33" width="32.59" height="20.47"/>
              <g>
                <rect class="cls-1" x="129.5" y="31.37" width="1.49" height="24.16"/>
                <rect class="cls-3" x="129.5" y="31.37" width=".4" height="24.16"/>
                <circle class="cls-1" cx="130.24" cy="30.24" r="1.57"/>
              </g>
              <g>
                <rect class="cls-1" x="97.58" y="31.37" width="1.49" height="24.16"/>
                <rect class="cls-3" x="97.58" y="31.37" width=".4" height="24.16"/>
                <circle class="cls-1" cx="98.32" cy="30.24" r="1.57"/>
              </g>
            </g>
            <path class="cls-1" d="m132.71,51.92s-1.86-4.09-2.55-4.75c-.69-.65-10.15-.97-14.34-.55-4.19.42-14.65.09-15.87.89-1.21.79-2.8,6.84-2.8,6.84l35.56-2.44Z"/>
            <path class="cls-1" d="m104.84,37.13c-.59.72-2.95,8.51-4.15,9.68-1.19,1.18-3.17,6.21-3.17,6.21,0,0,33.45-2.57,33.24-2.65-.21-.08-6.17-3.39-6.17-3.39l-19.76-9.85Z"/>
            <path class="cls-1" d="m125.76,48.66c-.16.32-.61.6-1.28.82-4.52,1.52-19,.79-19.79-1.64-.91-2.79.16-6.24.18-7.48.02-1.23-.34-3.17.25-4,.07-.1.14-.17.22-.23.58-.42,1.44.16,3.28-.61.99-.42,2.57-.32,4.18-.11,1.79.24,3.6.63,4.67.64.58,0,1.29-.04,2.04-.09,1.9-.13,4.04-.3,4.85.27,1.12.8.61,3.15.28,4.67-.33,1.52.55,2.63.93,4.19.39,1.55.17,3.57.17,3.57Z"/>
            <g>
              <path class="cls-1" d="m116.92,31c.03-.11-1.03-1.55,0-2.61,1.03-1.06,1.81-.57,2.41,0,.59.57,1.98.54,2.02,1.65s-2.4,1.59-2.4,1.59c0,0,1.35,1.04,2.33,1,0,0-.58.86-1.63.3,0,0,.2,1.12,1.9.66,0,0-.29,1.8-2.5.55-2.2-1.25-2.37-2.04-2.13-3.14Z"/>
              <path class="cls-1" d="m116.4,30.85s.07-.77,1.09-.74,1.94.89,1.76,1.39c-.18.5-.61.74-.65.72-.04-.02-2.2-1.38-2.2-1.38Z"/>
              <path class="cls-1" d="m123.88,50.07h-15.27c.14-1.28.44-3.64.81-4.74.08-.24.16-.41.25-.51.45-.51,1.37-.93,2.24-1.31.25-.11.5-.22.73-.32.64-.28,1.15-.55,1.3-.81.19-.34.21-1,.18-1.58-.03-.58-.11-1.08-.11-1.08l3.61-.12c-.01.18-.02.62.02,1.12.05.64.17,1.35.44,1.66.25.28,1.03.6,1.9.93.23.09.47.18.71.27.77.29,1.51.59,1.91.87.18.13.35.45.49.89.42,1.27.68,3.5.79,4.74Z"/>
              <path class="cls-1" d="m119.55,35.73c.04-1.16-.12-2.28-.41-2.75-.44-.71-1.45-2.34-4.63-1.82-2.25.37-2.59,2.91-2.51,4.78-.54-.08-.81.53-.43,1.55.25.67.64.89.89.97.66,1.58,2.09,2.49,3.27,2.49,1.66,0,2.71-1.31,3.27-2.67.25-.09.63-.33.87-1.01.33-.95.12-1.54-.33-1.54Z"/>
              <path class="cls-1" d="m124.05,43.27c-.2-.15-.48-.11-.64.09l-4.69,6.17c-.15.2-.11.48.09.64.2.15.48.11.64-.09l4.69-6.17c.15-.2.11-.48-.09-.64Z"/>
              <path class="cls-1" d="m121.12,50.41l-10.15-.33c.04-1.8-.26-4.14.93-6.56.25-.11.5-.22.73-.32-.02.82.16,2.13.16,2.13,3.91.84,7.14-.12,7.14-.12,0-.5.1-1.28.05-1.9.23.09.47.18.71.27.96,2.2,1.39,6.34.42,6.83Z"/>
              <path class="cls-1" d="m112.1,36.33s-.57-.35-.61-1.14c-.04-.79-.11-2.02.7-3.03.81-1,2.29-1.68,3.89-1.52.94.1,2.17.3,2.85,1.19s.99,2.4.9,2.97c-.09.57-.43.99-.43.99,0,0,.2-.97-.4-1.96s-1.34-1.51-3.39-.99c0,0-1.97-.98-2.99.43s-.54,3.04-.54,3.04Z"/>
            </g>
            <g>
              <path class="cls-1" d="m115.59,38.5c.18.23.91,2.05.85,2.93s.07,2.45-.48,3.33c-.55-.29-.69-1.3-1.81-.7-.88.46-1.32-1.47-1.32-1.47,0,0,.72-1.18,1.16-2.49.44-1.31,1.42-1.81,1.6-1.6Z"/>
              <path class="cls-1" d="m115.18,40.82c-.09.18.52.89.74,1.11.1.1.15.08.28.02l.09-.04c.09-.15-.03-.74-.38-.92,0,0,.24.18.38.12.14-.06.18.49.36.84.27.67.76,1,1.18,1.18.06.34.63,4.65,1.06,4.97.89.66,2.82-.08,2.82-.08,0,0-2.02-5.11-2.51-5.83-.2-.27-1.53-2.65-1.66-2.91-.05-.11-.24-.14-.47-.13-.4-.1-1.01-.19-1.26-.18-.44,0-.99,1.18-.85,1.27"/>
              <path class="cls-1" d="m115.26,41.1s-.47-.68-.28-1.16"/>
            </g>
            <g>
              <path class="cls-1" d="m137.41,61.14h-43.36s.59-2.09,1.32-3.64c.02-.05.05-.1.07-.16.3-.62,1-1.5,1.73-2.33,1.12-1.28,2.32-2.46,2.32-2.46,0,0,15.5-5.1,21.06-4.31,5.56.79,11.89,3.7,12.57,4.31.68.61,2.59,4.47,2.59,4.47.85,1.05,1.69,4.11,1.69,4.11Z"/>
              <path class="cls-1" d="m135.37,56.71c-.5-.59-1.48-1.8-2.4-2.6-1.04-.89-12.33-4.11-14.54-3.86-.56.06-1.23.08-1.94.08h0c-2.1,0-4.59-.17-5.84.12-.7.16-2.32.64-4.09,1.2-2.46.78-5.19,1.72-6.07,2.18-1.51.79-4.43,2.75-4.75,3.4-.1.2-.23.29-.36.27-.3-.04-.56-.64-.24-1.79.46-1.65.74-2.34,1.04-2.74.31-.4,5.37-3.25,7.62-4.09,2.25-.84,6.07-1.78,9.62-1.78,3.56,0,6.3-.44,9.98.35,3.03.65,7.28,2.3,8.63,3.09,1.35.79,1.76,1.28,1.99,1.92s1.61,4.23,1.69,4.56c.03.1-.11-.04-.35-.32Z"/>
              <path class="cls-6" d="m134.73,58.61c.22,1.36-2.65-4.02-3.75-4.6-1.1-.58-4.84-1.87-5.71-2.09s-5.96-1.71-6.84-1.67c-.28.01-1.02.04-1.94.08h0c-2.02.09-4.86.23-5.28.38-.61.21-4.15,5.44-4.68,6.07-.53.62,3.03-5.26,3.08-5.35-.07.01-3.24.76-4.23,1.38-1,.63-5.41,5.7-6.3,6.02-.89.32-2.34-.16-2.94.62-.6.78-.68,1.7-.68,1.7h-1.39s.59-2.09,1.32-3.64c-.3-.04-.56-.64-.24-1.79.32.09,1.04-.2,2.04-.7.92-.45,2.08-1.07,3.37-1.69,2.67-1.3,6.01-1.67,6.01-1.67,0,0,3.66-1.89,5.65-2.15,1.99-.25,5.07.55,6.56-.06,1.49-.61,1.39-.17.52.32-.87.49,3.51.84,7.04,1.97,3.47,1.11,5.64,1.57,5.71,1.59-.06-.04-2.11-1.34-2.23-1.89-.13-.56,3.13,1.76,3.57,2.4.43.64,2.29,3.12,2.35,3.2-.02-.02-.15-.14-.34-.32-.69-.64-2.22-2-2.66-2.05-.58-.07,1.8,2.59,2.03,3.95Z"/>
              <path class="cls-6" d="m111.94,61.14s1.48-4.17,2.42-5.86-.26,5.86-.26,5.86h-2.15Z"/>
            </g>
            <path class="cls-1" d="m111.38,35.29c-.78.61-1.96,1.84-1.96,1.84l-1.15-1.69,1.46-1.51s2.29.85,1.64,1.36Z"/>
            <path class="cls-1" d="m111.38,35.29c.49-.57,1.09-1.13,1.25-1.89.16-.76.8-1.3.62-1.52-.18-.22-.54-.16-.54-.16,0,0,.84-.59,1.15-.66.32-.07,1.96-.08,2.02-.41.1-.53-2.14-.84-2.51-.76s-2.15,1.25-2.4,1.46-1.41,2.93-1.54,3.39c-.13.46,1.43,1.16,1.95.56Z"/>
            <path class="cls-1" d="m108.95,34.4s.86,1.92,1.8,2.34c0,0-.61.94-.9,1.59-.28.65-.33,2.37-.6,2.62-.27.25-4.27,5.37-7.51,6.95-3.24,1.59-8.56-1.82-8.56-1.82l.45-7.75s4.43.77,5.61,1.4c1.18.63,1.62,1.3,1.99,1.01.37-.29,1.67-1.69,2.57-2.07.9-.38,1.31-1.95,2.21-1.93l2.94-2.34Z"/>
            <g>
              <g>
                <path class="cls-1" d="m98.51,38.92s-.66.21-1.51.65c-.66.36-1.44.86-2.07,1.54l-3.31-4.15s2.11-.86,2.61-1.42l.34-1.6,3.61-.43.15,2.39.19,3.02Z"/>
                <path class="cls-1" d="m94.76,28.22s-.04-.63.64-1.14c.68-.5,3.85-1.46,5.92-.64,2.56,1.01,4.4,2.37,5.77,4.7,0,0-.38-.2-1.37-.7,0,0,1.29,1.58.79,2.95,0,0-3.18-2.59-4.38-2.4-1.2.2-4.34,3.67-4.34,3.67,0,0-2.28,1.17-3.57.89,0,0-1.09-4.31-.85-5.24.25-.93,1.53-2.26,1.53-2.26"/>
                <path class="cls-1" d="m97.37,38.78c.9,1.26,1.46,1.61,2.13,1.85.37.13.95.06,1.11-.49.1-.36.18-.64.47-.88.29-.24.24-.37.24-.37l.2-.51c.46-.18.23-.63.41-.84.18-.21,1.3.18,1.43-.24.25-.79-.7-1.98-.51-2.45.19-.47.99-1.35,1.04-2.02.09-1.13-.1-2.52-.1-2.52,0,0-2.86-.07-3.53.05-1.27.24-3.08,2.57-3.08,2.57,0,0-.8-1.07-1.5-.55s-.1,2.69.92,3.11"/>
              </g>
              <g>
                <path class="cls-1" d="m108.64,38.15h-4.85c-.14,0-.26.12-.26.26s.12.26.26.26h.22v.22c-.42-.27-.93-.3-1.27-.03-.48.37-.49,1.15-.03,1.75.3.39.73.6,1.12.6.06,0,.12-.02.18-.03v.37c0,.91.74,1.66,1.66,1.66h1.09c.91,0,1.66-.74,1.66-1.66v-2.88h.22c.14,0,.26-.12.26-.26s-.12-.26-.26-.26Zm-5.06,2.33c-.29-.37-.42-.44-.39-.93,0-.1.07-.21.18-.21.23,0,.45.16.64.4v.91c-.26.12-.18.15-.43-.18Z"/>
                <path class="cls-1" d="m102.32,43.53s.49-1.05.64-1.55c.15-.5-.05-1.19.14-1.61s.56-1.59.81-1.54c.25.05.17,1.39.17,1.39,0,0-.09.47.16.62.25.15,1.82.1,2.29-.04.23-.07.87-.15,1.28-.58.44-.46.63-1.29.88-1.32.47-.06.17,1.14,0,1.47-.17.33.08,1.44.04,1.61s-.8,1.86-1.12,1.92-2.62.45-2.79.59c-.17.14-.74.68-.81.69-.07,0-1.7-1.64-1.7-1.64Z"/>
              </g>
              <path class="cls-1" d="m104.1,49.15c-.19.41-1.08,3.64-1.29,4.32s-2.63,4.55-3.29,5.25c-.66.7-4.96-1.97-5.79-2.84-.83-.87-1.44-1.28-1.44-1.28,0,0-.58,1.92-1,3.14-.31.91-.16,2.49-.22,3.41h-11.34v-7.42c.96-3.33,2.39-7.9,3.52-9.73,1.87-3.04,4.94-6.09,8.37-7.32l1.74-1.14s2.57,2.77,2.99,5.06l-.48,2.44s.76,4.09,1.23,4.68c.47.58.72,2.13.72,2.13,0,0,.16-1.09.88-1.39.72-.3.71-1.23,1.46-2.49s1.84-3.11,1.84-3.11c0,0,2.62.32,2.95,2.62,0,0-.76.93-.98,1.36-.22.44.32,1.92.12,2.34Z"/>
            </g>
          </g>
          <g class="cls-14">
            <path class="cls-2" d="m16.05,22.74V6.41c0-1.85-1.5-3.35-3.35-3.35h0c-1.85,0-3.35,1.5-3.35,3.35v16.33c-2.18,1.26-3.59,3.72-3.32,6.48.3,3.11,2.81,5.65,5.91,5.99,4.05.45,7.47-2.71,7.47-6.67,0-2.48-1.35-4.64-3.35-5.8Z"/>
            <circle class="cls-2" cx="12.7" cy="28.55" r="3.35"/>
            <line class="cls-2" x1="12.7" y1="25.19" x2="12.7" y2="5.74"/>
            <line class="cls-4" x1="16.05" y1="19.83" x2="14.04" y2="19.83"/>
            <line class="cls-4" x1="16.05" y1="15.8" x2="14.04" y2="15.8"/>
            <line class="cls-4" x1="16.05" y1="11.78" x2="14.04" y2="11.78"/>
            <line class="cls-4" x1="16.05" y1="7.75" x2="14.04" y2="7.75"/>
          </g>
          <g>
            <g>
              <polygon class="cls-5" points="17.34 50.68 17.03 55.08 34.93 55.08 34.48 50.15 17.34 50.68"/>
              <path class="cls-5" d="m15.78,28.54c-2.32,2.52-6.35,11.79-4.34,15.48,2.01,3.69,4.98,1.65,4.98,1.65,0,0-1.11,5.38.93,6.54,1.57.89,15.76.71,19.58.07,3.17-.53,4.31-2.59,4.31-7.97,0-5.86-1.98-13.63-5.37-16.33-3.19-2.54-16.27-3.59-20.09.56Z"/>
              <path class="cls-5" d="m31.46,26.25s-.61,3.97-5.14,4.03c-4.53.06-4.61-4.26-4.61-4.26,0,0,.67-.26,1.6-.65.42-.17.36-.84.45-1.28.2-.98.13-1.88.13-1.88h4.07s.03.9.25,1.88c.11.5.09,1.22.52,1.45.87.46,2.73.71,2.73.71Z"/>
              <path class="cls-5" d="m24.82,48.13s-3.45-1.7-3.75-1.42,1.47,1.27,1.43,1.43c-.02.07-.65.29-1.63.36-1.34.1-3.03-.25-3.09.21-.03.28,2.81.88,2.81.88,0,0-2.99-.36-3.05.14-.04.31,3.13.76,3.13.76,0,0-2.66-.25-2.67.21,0,.18,2.86.52,2.86.52,0,0-1.88.04-1.82.33.06.29,3.14.34,3.78.2.65-.13,2.32-.61,2.32-.61l-.33-3.02Z"/>
              <path class="cls-5" d="m30.78,17.63c-.22-.12-.48-.11-.73-.01.08-.82.11-1.55.11-2.05.01-1.57-.68-2.93-2.16-3.55-.44-.18-.93-.31-1.43-.36-1.92-.21-4.05.55-4.69,2.49-.15.46-.21.94-.2,1.42,0,.66.05,1.33.13,2.01-.21-.05-.42-.04-.6.06-.5.26-.62,1.02-.27,1.7.31.6.89.93,1.36.82.08.29.17.58.27.86.27.75,1.91,2.98,3.52,2.98s3.2-2.54,3.39-3.19c.06-.21.12-.43.17-.66.48.13,1.08-.2,1.39-.81.35-.68.23-1.44-.27-1.7Z"/>
              <circle class="cls-11" cx="25.79" cy="25.96" r="1"/>
              <path class="cls-5" d="m25.77,27.54c-.87,0-1.59-.71-1.59-1.59s.71-1.59,1.59-1.59,1.59.71,1.59,1.59-.71,1.59-1.59,1.59Zm0-3.09c-.83,0-1.5.67-1.5,1.5s.67,1.5,1.5,1.5,1.5-.67,1.5-1.5-.67-1.5-1.5-1.5Z"/>
              <path class="cls-5" d="m25.86,28.51c-1.34,0-2.44-1.09-2.44-2.44s1.09-2.44,2.44-2.44,2.44,1.09,2.44,2.44-1.09,2.44-2.44,2.44Zm0-4.82c-1.31,0-2.38,1.07-2.38,2.38s1.07,2.38,2.38,2.38,2.38-1.07,2.38-2.38-1.07-2.38-2.38-2.38Z"/>
              <path class="cls-5" d="m30.36,14.13c1.25-1.11,1.09-2.47,1.09-2.47,0,0-.8.14-5.32-.63-2.82-.48-4.33.86-4.65,1.89-.09.29-.09.76.03,1.19-1.23.83.32,4.18.32,4.18,0,0,.51-1.9.54-3.18.04.01.07.03.11.03.87.19,2.12.46,3.65.37,1.51-.09,2.59-.4,3.37-.81-.1,1.24.53,3.58.53,3.58,0,0,1.53-3.32.34-4.17Z"/>
              <path class="cls-5" d="m22.29,29.8s.41-3.82.82-3.92c.4-.1.28,1.92.44,1.97.07.02.59-.4,1.18-1.18.8-1.07,1.41-2.69,1.83-2.49.25.12-.77,2.85-.77,2.85,0,0,1.3-2.72,1.76-2.5.29.14-1.04,3.05-1.04,3.05,0,0,1.21-2.38,1.61-2.13.15.09-1.1,2.69-1.1,2.69,0,0,1.04-1.56,1.25-1.35.21.2-1.4,2.83-1.86,3.3-.46.48-1.75,1.63-1.75,1.63l-2.37-1.9Z"/>
              <path class="cls-5" d="m24.98,21.93s.31-.47,1.09-.49c.65-.02,1.07.49,1.07.49-.73-.19-1.45-.21-2.16,0Z"/>
              <path class="cls-5" d="m16.42,45.67s7.4-10.08,8.25-13.98"/>
            </g>
            <path class="cls-5" d="m22.29,29.8s-7.58,7.52-8.02,8.37"/>
            <path class="cls-5" d="m25.15,51.16s7.54,1.59,9.54,1.38"/>
            <path class="cls-5" d="m24.82,48.13l9.49-1.45s-.4-5.76-.29-9.1"/>
          </g>
        </g>
      </g>
    </g>
  </g>
</svg>