<?xml version="1.0" encoding="UTF-8"?>
<svg xmlns="http://www.w3.org/2000/svg" xmlns:xlink="http://www.w3.org/1999/xlink" viewBox="0 0 140 60">
  <defs>
    <style>
      .cls-1, .cls-2, .cls-3, .cls-4, .cls-5, .cls-6, .cls-7, .cls-8, .cls-9 {
        stroke-width: 0px;
      }

      .cls-1, .cls-10 {
        fill: #dce2e7;
      }

      .cls-2 {
        fill: #dde3e8;
      }

      .cls-3 {
        fill: #8399b0;
      }

      .cls-11 {
        isolation: isolate;
      }

      .cls-12 {
        stroke: #b0bbce;
        stroke-linecap: round;
        stroke-width: .63px;
      }

      .cls-12, .cls-10, .cls-13 {
        stroke-miterlimit: 10;
      }

      .cls-12, .cls-5 {
        fill: none;
      }

      .cls-10 {
        stroke: #8399b0;
      }

      .cls-10, .cls-13 {
        stroke-width: .48px;
      }

      .cls-4 {
        fill: #e6eef5;
      }

      .cls-14 {
        opacity: .35;
      }

      .cls-15 {
        clip-path: url(#clippath-1);
      }

      .cls-6, .cls-13, .cls-9 {
        fill: #fff;
      }

      .cls-16 {
        clip-path: url(#clippath);
      }

      .cls-13 {
        stroke: #8398af;
      }

      .cls-7 {
        fill: #869cb3;
      }

      .cls-8 {
        fill: #8398af;
      }

      .cls-9 {
        mix-blend-mode: soft-light;
        opacity: .75;
      }
    </style>
    <clipPath id="clippath">
      <rect class="cls-5" width="140" height="60"/>
    </clipPath>
    <clipPath id="clippath-1">
      <path class="cls-5" d="m40.04,14.51c-7.24,7.22-6.06,3.72-4.46,13.78.06.35-.08.71-.37.92-.29.21-.67.24-.99.07-9.08-4.67-5.4-4.63-14.44,0-.65.37-1.51-.25-1.36-.99,0,0,1.38-8.07,1.38-8.07l-5.84-5.71c-.55-.51-.23-1.52.52-1.6,0,0,8.07-1.18,8.07-1.18,5.15-10.37,3.74-10.44,8.9,0,0,0,8.07,1.18,8.07,1.18.75.09,1.08,1.09.52,1.6h0Z"/>
    </clipPath>
  </defs>
  <g class="cls-11">
    <g id="graficas">
      <g class="cls-16">
        <g>
          <rect class="cls-4" x="9.23" y="19.19" width="89.3" height="25.74" rx="7.55" ry="7.55"/>
          <rect class="cls-4" x="101.78" y="13.02" width="30" height="42.11" rx="7.55" ry="7.55"/>
          <ellipse class="cls-2" cx="80.71" cy="56.76" rx="9.68" ry=".95"/>
          <ellipse class="cls-2" cx="50.74" cy="56.26" rx="11.03" ry="1.56"/>
          <path class="cls-13" d="m56.42,56.76c-2.11-4.26-4.23-9.83-5-12.72.95-1.33,1.4-3.03,1.22-4.66l-4.95-10.76c-3.14,3.2-4.47,7.84-4.53,12.33-.05,4.31.98,10.84,2.72,15.8h10.54Z"/>
          <path class="cls-3" d="m52.11,11.01c-1.8.23-3,.97-3.86,2.49-.87,1.52-.98,4.33-1.09,6.08-.33,5.77-.12,10.5.8,16.21.28,1.71.56,3.37,1.76,4.62,1.66,1.73,4.15,1.88,6.54,2.03,8.75.55,17.63.27,26.42.27,1.63,0,3.26-.28,4.78-.88,1.52-.61,2.86-1.96,2.97-3.6L52.11,11.01Z"/>
          <g>
            <path class="cls-10" d="m90.55,38.13c1.47-7.76,1.61-15.77.41-23.58-.25-1.62-1.55-2.88-3.17-3.1-11.85-1.63-23.86-1.74-35.72-.43-1.73.19-3.09,1.55-3.29,3.28-.91,8.13-.71,15.5,1.03,23.69.34,1.61,1.69,2.8,3.32,2.93,11.23.91,22.54,1.01,34.02.24,1.69-.11,3.08-1.37,3.39-3.04Z"/>
            <path class="cls-13" d="m70.86,38.4c-.36-.34-.94-.42-1.39-.2-.45.22-.73.73-.67,1.23.05.49.44.94.93,1.05.48.11,1.03-.12,1.28-.55.25-.43.3-1.11-.15-1.52Z"/>
            <g>
              <path class="cls-1" d="m84.46,13.83c-.12-.33-.63-.43-.86-.16-.23.27-.06.76.28.83.35.07.7-.32.58-.67Z"/>
              <path class="cls-1" d="m86.65,13.87c-.12-.33-.63-.43-.86-.16-.23.27-.06.76.28.83.35.07.7-.32.58-.67Z"/>
              <path class="cls-1" d="m88.84,13.91c-.12-.33-.63-.43-.86-.16-.23.27-.06.76.28.83.35.07.7-.32.58-.67Z"/>
            </g>
          </g>
          <path class="cls-13" d="m90.83,36.74c1.08-6.53,1.22-13.21.43-19.78-14.16-.64-28.34-.88-42.66-.69-.65,6.93-.44,13.38.9,20.38,13.78.31,27.56.34,41.33.1Z"/>
          <g>
            <path class="cls-3" d="m71.81,23.52c1.41.94,1.85,3.07.94,4.5-.91,1.43-3.03,1.91-4.47,1.02-1.44-.89-1.96-3-1.09-4.46.86-1.46,3.03-2.12,4.62-1.05Z"/>
            <path class="cls-9" d="m69.15,23.79c-.17-.38-.98,0-1.34.41-.36.41-.47.77-.23.89.13.06.43-.36.64-.51.37-.26,1.07-.46.93-.79Z"/>
            <path class="cls-9" d="m67.45,25.19c-.19-.14-.32.19-.16.3.16.11.36-.16.16-.3Z"/>
            <path class="cls-13" d="m69.69,25.42c-.18-.44-.88-.55-1.18-.17-.3.37-.06,1.03.41,1.12.47.09.97-.46.77-.95Z"/>
            <path class="cls-13" d="m71.72,25.42c-.18-.44-.87-.54-1.17-.17-.3.37-.06,1.03.41,1.12.47.09.96-.45.76-.94Z"/>
            <path class="cls-13" d="m71.87,26.67c-1.21,0-2.41-.02-3.67.05.13.85.92,1.55,1.78,1.56.86.01,1.67-.65,1.89-1.62Z"/>
          </g>
          <g>
            <path class="cls-13" d="m60.52,23.4c1.41.94,1.85,3.07.94,4.5-.91,1.43-3.03,1.91-4.47,1.02-1.44-.89-1.96-3-1.09-4.46.86-1.46,3.03-2.12,4.62-1.05Z"/>
            <path class="cls-13" d="m57.86,25.4c-.11-.27-.53-.33-.72-.11-.18.23-.04.63.25.68.29.05.59-.28.47-.58Z"/>
            <path class="cls-13" d="m60.43,25.4c-.11-.27-.53-.33-.72-.11-.18.23-.04.63.25.68.29.05.59-.28.47-.58Z"/>
            <path class="cls-13" d="m56.97,27.68c.3-.66,1.01-1.12,1.74-1.12.73,0,1.44.45,1.75,1.11"/>
          </g>
          <g>
            <path class="cls-13" d="m83.13,23.57c1.41.94,1.85,3.07.94,4.5-.91,1.43-3.03,1.91-4.47,1.02-1.44-.89-1.96-3-1.09-4.46.86-1.46,3.03-2.12,4.62-1.05Z"/>
            <path class="cls-13" d="m80.47,25.72c-.11-.27-.53-.33-.72-.11-.18.23-.04.63.25.68.29.05.59-.28.47-.58Z"/>
            <path class="cls-13" d="m83.04,25.72c-.11-.27-.53-.33-.72-.11-.18.23-.04.63.25.68.29.05.59-.28.47-.58Z"/>
            <path class="cls-13" d="m79.53,27.15c1.23,0,2.45.01,3.68.02"/>
          </g>
          <path class="cls-13" d="m45.88,36.72c1.31-1.79,2.79-3.47,4.4-5,.19-.18.39-.37.64-.47.24-.1.55-.11.76.06.38.3.24.91.05,1.36-.48,1.12-1.03,2.21-1.7,3.38.93,2.35.85,5.08-.22,7.38"/>
          <path class="cls-13" d="m85.86,56.76c.02-4.96-.8-12.7-1.64-17.44-.24-1.38-.55-2.8-1.36-3.94-.8-1.13-2.05-1.88-3.35-2.32-1.31-.45-2.69-.62-4.06-.79-.37-1.77-.71-3.44-1.18-5.06-.12-.39-.29-.84-.69-.95-.38-.11-.78.18-.94.54-.16.36-.14.78-.11,1.17.1,1.55.21,3.59.38,5.52-.49.74-.94,1.52-1.38,2.43-.29.59-.31,1.28-.07,1.9.84,2.12,2.09,3.02,3.92,4.77.75,3.42.97,10.02.38,14.18h10.1Z"/>
          <path class="cls-13" d="m71.02,5.61c-.03-.61-.39-1.1-.87-1.18-2.27-.35-4.52-.35-6.75,0-.51.08-.9.63-.91,1.29-.03,1.62-.06,3.31-.03,5.09.01.66.41,1.18.92,1.23.47.04.94.07,1.41.09.01.43.03.87.11,1.37.45-.39.85-.84,1.2-1.33,1.31.02,2.61-.04,3.92-.16.51-.05.93-.57.96-1.22.09-1.68.11-3.43.03-5.16Z"/>
          <g>
            <path class="cls-6" d="m65.67,8.35c.4.49.5.62,1.06,1.09.53-.73,1.75-2.13,2.2-2.91"/>
            <path class="cls-8" d="m65.46,8.57c.33.4.66.76,1.06,1.09.16.13.35.11.47-.06.71-.98,1.59-1.86,2.2-2.91.2-.33-.32-.64-.52-.3-.61,1.05-1.49,1.93-2.2,2.91l.47-.06c-.4-.33-.74-.69-1.06-1.09-.1-.13-.32-.11-.42,0-.12.12-.1.3,0,.42h0Z"/>
          </g>
          <path class="cls-13" d="m95.09,30.54c-.03-.62-.43-1.12-.96-1.2-2.52-.39-5.02-.42-7.49-.1-.57.07-1,.63-1.02,1.29-.04,1.64-.08,3.36-.05,5.15.01.66.45,1.2,1.02,1.25.53.05,1.06.09,1.6.12,0,.46.01.96.06,1.64.5-.49.95-1.01,1.35-1.58,1.46.04,2.91,0,4.37-.11.57-.04,1.03-.57,1.07-1.23.11-1.71.13-3.47.05-5.23Z"/>
          <g>
            <polygon class="cls-3" points="90.35 33.54 89.78 33.84 89.89 33.2 89.43 32.75 90.07 32.66 90.35 32.07 90.64 32.66 91.28 32.75 90.82 33.2 90.93 33.84 90.35 33.54"/>
            <polygon class="cls-3" points="90.35 33.54 89.78 33.84 89.89 33.2 89.43 32.75 90.07 32.66 90.35 32.07 90.64 32.66 91.28 32.75 90.82 33.2 90.93 33.84 90.35 33.54"/>
          </g>
          <g>
            <polygon class="cls-3" points="87.71 33.54 87.14 33.84 87.25 33.2 86.79 32.75 87.43 32.66 87.71 32.07 88 32.66 88.64 32.75 88.17 33.2 88.28 33.84 87.71 33.54"/>
            <polygon class="cls-3" points="87.71 33.54 87.14 33.84 87.25 33.2 86.79 32.75 87.43 32.66 87.71 32.07 88 32.66 88.64 32.75 88.17 33.2 88.28 33.84 87.71 33.54"/>
          </g>
          <g>
            <polygon class="cls-3" points="93 33.54 92.42 33.84 92.53 33.2 92.07 32.75 92.71 32.66 93 32.07 93.28 32.66 93.92 32.75 93.46 33.2 93.57 33.84 93 33.54"/>
            <polygon class="cls-3" points="93 33.54 92.42 33.84 92.53 33.2 92.07 32.75 92.71 32.66 93 32.07 93.28 32.66 93.92 32.75 93.46 33.2 93.57 33.84 93 33.54"/>
          </g>
          <g class="cls-15">
            <g class="cls-14">
              <path class="cls-3" d="m39.95,30.52c.13-.22.27-.45.4-.67L16.59.71c-.28.05-.56.09-.84.14l24.2,29.68Z"/>
              <path class="cls-3" d="m13.34,1.1l25.49,31.13c.13-.18.26-.36.38-.55-.77.02-24.6-31.93-25.87-30.59Z"/>
              <path class="cls-3" d="m37.95,33.45c-.65-.06-25.98-33.19-27.03-32.32-.01.04-.03.08-.04.12-.03,0-.06,0-.1-.01l26.77,32.74c.13-.17.27-.35.4-.52Z"/>
              <path class="cls-3" d="m36.58,35.15L10.57,3.38c-1.32,1.27,25.6,31.34,25.58,32.26.14-.16.29-.32.43-.49Z"/>
              <path class="cls-3" d="m10.42,6.45c0,.34-.02.67-.02,1l24.33,29.68c.15-.15.3-.3.46-.46L10.42,6.45Z"/>
              <path class="cls-3" d="m10.43,10.41l22.91,28.03c.16-.14.32-.29.48-.43L10.4,9.35c0,.36.02.71.03,1.06Z"/>
              <path class="cls-3" d="m10.54,12.76c.03.39.06.76.09,1.14l21.15,25.84c.17-.13.33-.27.5-.4L10.54,12.76Z"/>
              <path class="cls-3" d="m10.91,16.42c.06.42.11.83.18,1.24l19.05,23.27c.17-.12.35-.24.53-.37L10.91,16.42Z"/>
              <path class="cls-3" d="m11.51,20c.09.46.19.93.29,1.38l16.8,20.53c.18-.11.36-.22.56-.34L11.51,20Z"/>
              <path class="cls-3" d="m13.41,26.8l13.22,16.16c.17-.08.37-.17.59-.29l-14.42-17.63c.19.61.4,1.19.61,1.76Z"/>
              <path class="cls-3" d="m14.94,30.41c3.46,7.14,7.94,10.8,9.96,12.17l-9.96-12.17Z"/>
              <path class="cls-3" d="m41,28.68c.12-.23.24-.48.36-.71L18.8.25c-.27.06-.53.12-.8.18l23,28.25Z"/>
              <path class="cls-3" d="m42.05,26.56c.11-.24.22-.48.33-.73L21.04-.33c-.25.07-.5.14-.76.21l21.77,26.68Z"/>
              <path class="cls-3" d="m42.98,24.33c1.66-.85-19.79-24.73-19.57-25.41-.22.07-.43.15-.66.22l20.22,25.19Z"/>
              <path class="cls-3" d="m25.17-1.71l18.72,23.45c.08-.25.15-.51.22-.76L25.81-1.95c-.21.08-.42.16-.63.24Z"/>
              <path class="cls-3" d="m28.06-2.88c-.2.09-.4.17-.62.27l17.29,21.3c.06-.26.12-.53.18-.8L28.06-2.88Z"/>
              <path class="cls-3" d="m30.26-3.91s-.14.07-.38.19l15.49,19.14c.61-1.63-14.48-18.53-15.11-19.33Z"/>
              <path class="cls-3" d="m38.2,2.11c-.52-.26-1.02-.54-1.5-.82l9.08,11.22c1.07-.63-7.45-9.91-7.58-10.4Z"/>
              <path class="cls-3" d="m42.12,3.64c-.37-.11-.75-.22-1.11-.34l5,6.18c.02-.32.02-.65.04-.98l-3.93-4.86Z"/>
              <path class="cls-3" d="m44.92,4.22c-.32-.04-.64-.09-.95-.15l2.13,2.63c0-.34,0-.69,0-1.04l-1.17-1.45Z"/>
            </g>
          </g>
          <path class="cls-12" d="m117.14,27.19c-6.25,0-11.34,4.59-11.34,10.23,0,1.97.62,3.88,1.8,5.53-.22,2.48-.82,4.32-1.69,5.19-.11.12-.14.29-.07.44.06.13.2.21.34.21.02,0,.03,0,.05,0,.15-.02,3.71-.53,6.28-2.02,1.46.59,3.02.89,4.63.89,6.25,0,11.34-4.59,11.34-10.23s-5.08-10.23-11.34-10.23Zm-5.29,11.75c-.83,0-1.51-.68-1.51-1.52s.68-1.52,1.51-1.52,1.51.68,1.51,1.52-.68,1.52-1.51,1.52Zm5.29,0c-.83,0-1.51-.68-1.51-1.52s.68-1.52,1.51-1.52,1.51.68,1.51,1.52-.68,1.52-1.51,1.52Zm5.29,0c-.83,0-1.51-.68-1.51-1.52s.68-1.52,1.51-1.52,1.51.68,1.51,1.52-.68,1.52-1.51,1.52Z"/>
          <g>
            <path class="cls-7" d="m121.78,13.56c.09.19.36.94-.43,1.45.11.25.09.54-.06.77-.32.47-1.15.71-2.5.71-.79-.03-1.97-.03-3.05-.31v-4.64c.16-.28.46-.49.63-.74.68-.95,1.23-1.87,1.3-2.99.02-.39.13-.59.33-.62.03,0,.58-.04.91.41.34.46.3,1.26-.12,2.35-.11.27-.15.56-.13.85,0,.03.04.06.08.05,0,0,0,0,0,0,.54-.13,2.34-.52,2.97.16.24.25.29.63.15,1.1.3.44.28,1.04-.07,1.45h0Z"/>
            <path class="cls-7" d="m113.93,11.26h1.19c.16,0,.3.13.3.3v4.76c0,.16-.13.3-.3.3h-1.19c-.16,0-.3-.13-.3-.3v-4.76c0-.16.13-.3.3-.3Z"/>
          </g>
        </g>
      </g>
    </g>
  </g>
</svg>