<svg xmlns="http://www.w3.org/2000/svg" xmlns:xlink="http://www.w3.org/1999/xlink" viewBox="0 0 140 60"><defs><style>.a,.h{fill:none;}.b{clip-path:url(#a);}.c{opacity:0.3;}.d{fill:#869cb3;}.e{fill:#e9f0f7;}.f,.m{fill:#fff;}.f{stroke:#869cb3;stroke-width:0.5px;}.f,.h{stroke-miterlimit:10;}.g{opacity:0.61;}.h{stroke:#b0bbce;stroke-linecap:round;stroke-width:0.55px;}.i{fill:#b0bbce;}.j{clip-path:url(#b);}.k{fill:#212934;}.l{fill:#e11e19;}</style><clipPath id="a"><rect class="a" width="140" height="60"/></clipPath><clipPath id="b"><rect class="a" x="42.03" y="24.71" width="88.5" height="14.62"/></clipPath></defs><g class="b"><g class="c"><path class="d" d="M126.69,24.23c.08-.14.15-.28.22-.42L111.89,7l-.5.11Z"/><path class="d" d="M110,7.31l16.11,18a4,4,0,0,0,.22-.34L110.42,7.26Z"/><path class="d" d="M125.57,26,108.87,7.39h-.37a.24.24,0,0,0,0,.08h-.06l16.92,18.89C125.42,26.25,125.49,26.14,125.57,26Z"/><path class="d" d="M124.79,27.08,108.35,8.75c0,.19,0,.38,0,.56l16.22,18.08Z"/><path class="d" d="M108.34,10.59c0,.2,0,.4,0,.6l15.38,17.13L124,28Z"/><path class="d" d="M108.45,13l14.48,16.18c.09-.09.19-.18.28-.28L108.4,12.32C108.42,12.54,108.43,12.75,108.45,13Z"/><path class="d" d="M108.58,14.36c0,.23,0,.46.08.68L122,30l.29-.25Z"/><path class="d" d="M108.89,16.55c0,.25.09.49.14.73l12,13.44.31-.24Z"/><path class="d" d="M109.34,18.67c.07.28.14.56.21.82l10.62,11.85.33-.21Z"/><path class="d" d="M110.66,22.69,119,32l.35-.19-9.12-10.18C110.39,22,110.52,22.36,110.66,22.69Z"/><path class="d" d="M111.68,24.81a18.55,18.55,0,0,0,6.29,7Z"/><path class="d" d="M127.28,23.1c.07-.14.13-.29.2-.44l-14.27-16-.48.13Z"/><path class="d" d="M127.85,21.8l.18-.45L114.54,6.25l-.45.15Z"/><path class="d" d="M128.35,20.44l.15-.42L116,5.74l-.39.15Z"/><path class="d" d="M117,5.32l11.85,13.55.12-.46L117.36,5.16Z"/><path class="d" d="M118.68,4.54l-.36.18L129.25,17l.09-.49Z"/><path class="d" d="M120,3.87l-.22.12,9.8,11.06.06-.52L121,4.8A12.9,12.9,0,0,1,120,3.87Z"/><path class="d" d="M124.9,7.26c-.32-.14-.63-.29-.92-.45l5.74,6.48,0-.56Z"/><path class="d" d="M127.3,8.08c-.23-.05-.46-.11-.68-.18l3.16,3.57c0-.19,0-.39,0-.59Z"/><path class="d" d="M129,8.36l-.58-.07,1.35,1.52,0-.62Z"/></g><rect class="e" x="13.13" y="5.1" width="41.72" height="34.87" rx="5.15"/><path class="f" d="M35.86,49.12A14.87,14.87,0,0,1,22.09,41l11.76-.5L35.46,36l-14.83.64-.24-2.18.06-2.19,16.6-.71,1.61-4.44-17.13.72a14.85,14.85,0,0,1,13-9.3,14.64,14.64,0,0,1,11.88,5.33l-.26-6.06a18.61,18.61,0,0,0-11.81-3.64A19.16,19.16,0,0,0,16.94,28l-3.52.15-1.93,4.46,4.69-.2v2.19l.2,2.18-2.58.11-1.93,4.46,5.64-.24A19.16,19.16,0,0,0,36,53.49a18.51,18.51,0,0,0,11.46-4.6l-.26-6.1A14.61,14.61,0,0,1,35.86,49.12Z"/><path class="f" d="M12.77,18.86l2.7.29a5.77,5.77,0,0,1,5.27-5.56l-.56-2.67a8.46,8.46,0,0,0-7.41,7.94Z"/><path class="f" d="M11.51,10.47a11.12,11.12,0,0,0-2.81,8l2.74.28a8.44,8.44,0,0,1,8.43-9.27l-.56-2.71A11.17,11.17,0,0,0,11.51,10.47Z"/><path class="f" d="M8.05,7.38A13.53,13.53,0,0,0,4.55,18l2.79.29a10.69,10.69,0,0,1,2.74-9.1,10.62,10.62,0,0,1,9-3.74l-.57-2.76A13.53,13.53,0,0,0,8.05,7.38Z"/><g class="g"><path class="h" d="M79,6.93h31.1a5.83,5.83,0,0,1,5.83,5.83V51.64L112,47.75l-3.89,3.89-3.88-3.89-3.81,3.89-4-3.89-3.89,3.89-3.88-3.89L84.8,51.64V12.76"/><path class="i" d="M79,7.48a5.23,5.23,0,0,1,3.52,1.36,5.17,5.17,0,0,1,1.76,3.92V16.1H73.68V12.76A5.29,5.29,0,0,1,79,7.48m0-.55a5.82,5.82,0,0,0-5.83,5.83v3.89H84.8V12.76a5.69,5.69,0,0,0-2-4.33A5.77,5.77,0,0,0,79,6.93Z"/><line class="h" x1="104.03" y1="39.36" x2="107.92" y2="39.36"/><line class="h" x1="104.03" y1="36.62" x2="107.92" y2="36.62"/><line class="h" x1="93.22" y1="23.33" x2="108.84" y2="23.33"/><line class="h" x1="93.22" y1="26.11" x2="108.84" y2="26.11"/><path class="i" d="M111.44,35.8a1.68,1.68,0,0,0-1.18.43,2.15,2.15,0,0,0-.67,1.22h-.46v.46h.39c0,.13,0,.25,0,.36a.94.94,0,0,0,0,.25h-.39V39h.43a1.77,1.77,0,0,0,1.83,1.67h0a2,2,0,0,0,1-.23v-.5a2,2,0,0,1-.94.28h0c-.66,0-1.08-.41-1.26-1.21L112,39v-.46l-1.84,0a3,3,0,0,1,0-.6l1.84,0v-.45l-1.77,0a1.67,1.67,0,0,1,.47-.87,1.07,1.07,0,0,1,.77-.32h0a1.69,1.69,0,0,1,.91.26V36a2,2,0,0,0-.87-.19Z"/></g><g class="j"><path class="k" d="M60.83,35.68a4.54,4.54,0,0,1-2.13.45,3.43,3.43,0,0,1-2.64-1.06,3.89,3.89,0,0,1-1-2.78,4.08,4.08,0,0,1,1.12-3A3.77,3.77,0,0,1,59,28.15a4.53,4.53,0,0,1,1.82.32v1A3.66,3.66,0,0,0,59,29a2.81,2.81,0,0,0-2.15.89A3.3,3.3,0,0,0,56,32.23a3.18,3.18,0,0,0,.77,2.25,2.63,2.63,0,0,0,2,.84,3.71,3.71,0,0,0,2-.52Z"/><path class="k" d="M63.59,36h-.91V28.28h.91Z"/><path class="k" d="M65.89,36V28.28h2.2a2.38,2.38,0,0,1,1.59.49,1.59,1.59,0,0,1,.59,1.28,1.85,1.85,0,0,1-.36,1.14,1.91,1.91,0,0,1-1,.69v0a2,2,0,0,1,1.25.59,1.82,1.82,0,0,1,.47,1.3,2,2,0,0,1-.71,1.6,2.63,2.63,0,0,1-1.79.62Zm.91-6.91v2.49h.93a1.78,1.78,0,0,0,1.16-.35,1.24,1.24,0,0,0,.43-1c0-.75-.49-1.13-1.48-1.13Zm0,3.31v2.78H68a1.83,1.83,0,0,0,1.23-.38,1.27,1.27,0,0,0,.44-1c0-.92-.62-1.37-1.86-1.37Z"/><path class="k" d="M75.5,35.21h0v3.33H74.6v-8h.88v1h0a2.1,2.1,0,0,1,1.91-1.1,2,2,0,0,1,1.66.74,3.07,3.07,0,0,1,.6,2A3.39,3.39,0,0,1,79,35.3a2.22,2.22,0,0,1-1.84.83A1.84,1.84,0,0,1,75.5,35.21Zm0-2.23v.77a1.61,1.61,0,0,0,.45,1.16,1.45,1.45,0,0,0,1.12.48,1.47,1.47,0,0,0,1.26-.61,2.78,2.78,0,0,0,.46-1.71,2.23,2.23,0,0,0-.43-1.44,1.41,1.41,0,0,0-1.15-.53,1.55,1.55,0,0,0-1.24.54A2,2,0,0,0,75.48,33Z"/><path class="k" d="M86.07,36h-.89v-.94h0a2,2,0,0,1-1.89,1.06,2.06,2.06,0,0,1-1.67-.74,3,3,0,0,1-.62-2,3.31,3.31,0,0,1,.69-2.2,2.27,2.27,0,0,1,1.84-.82,1.76,1.76,0,0,1,1.65.89h0V27.84h.89Zm-.89-2.5V32.7a1.55,1.55,0,0,0-.44-1.13,1.48,1.48,0,0,0-1.12-.47,1.52,1.52,0,0,0-1.27.6,2.57,2.57,0,0,0-.46,1.63,2.32,2.32,0,0,0,.44,1.51,1.46,1.46,0,0,0,1.19.55,1.51,1.51,0,0,0,1.2-.53A2,2,0,0,0,85.18,33.51Z"/><path class="k" d="M90.86,28.61a1.28,1.28,0,0,0-.59-.14q-.93,0-.93,1.17v.85h1.3v.75h-1.3V36h-.87V31.24h-1v-.75h1V29.6a1.86,1.86,0,0,1,.5-1.38,1.7,1.7,0,0,1,1.25-.5,1.62,1.62,0,0,1,.64.1Z"/><path class="k" d="M95.69,35.21h0V36h-.89V27.84h.89v3.62h0a2.09,2.09,0,0,1,1.9-1.1,2,2,0,0,1,1.67.74,3.07,3.07,0,0,1,.6,2,3.39,3.39,0,0,1-.68,2.21,2.22,2.22,0,0,1-1.84.83A1.79,1.79,0,0,1,95.69,35.21Zm0-2.23v.77a1.6,1.6,0,0,0,.44,1.16,1.47,1.47,0,0,0,1.13.48,1.49,1.49,0,0,0,1.26-.61A2.85,2.85,0,0,0,99,33.07a2.23,2.23,0,0,0-.42-1.44,1.43,1.43,0,0,0-1.16-.53,1.58,1.58,0,0,0-1.24.54A2,2,0,0,0,95.67,33Z"/><path class="k" d="M104.42,31.38a1.07,1.07,0,0,0-.67-.17,1.11,1.11,0,0,0-.94.53,2.4,2.4,0,0,0-.38,1.45V36h-.89V30.49h.89v1.14h0a1.89,1.89,0,0,1,.58-.91,1.27,1.27,0,0,1,.86-.33,1.44,1.44,0,0,1,.53.08Z"/><path class="k" d="M110.09,33.47h-3.9a2.07,2.07,0,0,0,.5,1.42,1.72,1.72,0,0,0,1.3.5,2.72,2.72,0,0,0,1.72-.61v.83a3.24,3.24,0,0,1-1.93.52,2.31,2.31,0,0,1-1.83-.75,3,3,0,0,1-.67-2.11,3,3,0,0,1,.73-2.1,2.33,2.33,0,0,1,1.81-.81,2.08,2.08,0,0,1,1.68.7,3,3,0,0,1,.59,1.95Zm-.91-.75a1.73,1.73,0,0,0-.37-1.19,1.26,1.26,0,0,0-1-.43,1.43,1.43,0,0,0-1.06.45,2.06,2.06,0,0,0-.54,1.17Z"/><path class="k" d="M118.65,30.49,117,36h-.92l-1.14-3.95a2.48,2.48,0,0,1-.08-.51h0a3.13,3.13,0,0,1-.12.5l-1.23,4h-.88l-1.67-5.52h.92L113,34.64a2.49,2.49,0,0,1,.08.49h0a2.46,2.46,0,0,1,.1-.5l1.27-4.14h.81l1.14,4.16a2.78,2.78,0,0,1,.08.49h0a2.13,2.13,0,0,1,.1-.49l1.12-4.16Z"/><path class="k" d="M124.38,33.47h-3.89a2.06,2.06,0,0,0,.49,1.42,1.73,1.73,0,0,0,1.31.5,2.7,2.7,0,0,0,1.71-.61v.83a3.23,3.23,0,0,1-1.92.52,2.33,2.33,0,0,1-1.84-.75,3,3,0,0,1-.67-2.11,3,3,0,0,1,.73-2.1,2.34,2.34,0,0,1,1.81-.81,2.07,2.07,0,0,1,1.68.7,3,3,0,0,1,.59,1.95Zm-.9-.75a1.84,1.84,0,0,0-.37-1.19,1.27,1.27,0,0,0-1-.43,1.41,1.41,0,0,0-1.06.45,2.06,2.06,0,0,0-.54,1.17Z"/><path class="k" d="M128.87,31.38a1.07,1.07,0,0,0-.67-.17,1.11,1.11,0,0,0-.94.53,2.4,2.4,0,0,0-.38,1.45V36H126V30.49h.89v1.14h0a1.89,1.89,0,0,1,.58-.91,1.27,1.27,0,0,1,.86-.33,1.44,1.44,0,0,1,.53.08Z"/><path class="l" d="M51.4,29.41H50.24V28l-6.31,0v1.28h.61v-.67h5.09v.84H42.74v4.68h1.19v2.52h4.74a1.56,1.56,0,0,0,1.57-1.56v-1H51.4Zm-1.77,5.64a1,1,0,0,1-1,1H44.54V34.09h5.09Z"/><path class="m" d="M43.48,30.45a3.86,3.86,0,0,1,.78-.05,1.22,1.22,0,0,1,.79.21.82.82,0,0,1,.27.62.88.88,0,0,1-.24.64,1.14,1.14,0,0,1-.84.27H44v1h-.58Zm.57,1.21a.53.53,0,0,0,.19,0c.31,0,.5-.16.5-.43s-.16-.4-.45-.4a.62.62,0,0,0-.24,0Z"/><path class="m" d="M46.08,30.46a5.78,5.78,0,0,1,.78-.05,1.55,1.55,0,0,1,1,.29,1.18,1.18,0,0,1,.43,1,1.37,1.37,0,0,1-.43,1.08,1.82,1.82,0,0,1-1.19.34,4.88,4.88,0,0,1-.66,0Zm.57,2.18a.62.62,0,0,0,.2,0,.82.82,0,0,0,.88-.93.77.77,0,0,0-.81-.86.75.75,0,0,0-.26,0Z"/><path class="m" d="M49.11,30.44h1.58v.49h-1v.61h.93v.5h-.93v1.08H49.1Z"/></g></g></svg>