<svg xmlns="http://www.w3.org/2000/svg" xmlns:xlink="http://www.w3.org/1999/xlink" viewBox="0 0 140 60"><defs><style>.a,.g,.i{fill:none;}.b{clip-path:url(#a);}.c{fill:#e9f0f7;}.d{fill:#fff;stroke:#869cb3;stroke-width:0.43px;}.d,.g,.i{stroke-miterlimit:10;}.e{fill:#869cb3;}.f{opacity:0.63;}.g,.i{stroke:#b0bbce;stroke-linecap:round;}.g{stroke-width:0.65px;}.h{opacity:0.75;}.i{stroke-width:0.88px;}.j{opacity:0.55;}.k{opacity:0.19;}.l{opacity:0.62;}.m{opacity:0.67;}.n{clip-path:url(#b);}.o{fill:#212934;}.p{fill:#e11e19;}</style><clipPath id="a"><rect class="a" width="140" height="60"/></clipPath><clipPath id="b"><rect class="a" x="43.49" y="22.8" width="96.56" height="12.65"/></clipPath></defs><g class="b"><rect class="c" x="28.76" y="17.96" width="84.86" height="36.77" rx="7.55"/><polygon class="c" points="25.13 47.43 26.05 47.47 8.87 28.67 7.94 28.63 25.13 47.43"/><polygon class="c" points="22.47 47.6 23.29 47.64 7.09 29.93 7.06 30.75 22.47 47.6"/><polygon class="c" points="6.97 32.78 6.93 33.6 20.07 47.97 20.89 48.01 6.97 32.78"/><polygon class="c" points="6.86 35.24 6.82 36.06 17.61 47.86 18.43 47.9 6.86 35.24"/><polygon class="c" points="6.75 37.5 6.72 38.32 15.35 47.76 16.16 47.79 6.75 37.5"/><polygon class="c" points="6.64 40.06 6.6 40.88 12.79 47.64 13.61 47.68 6.64 40.06"/><polygon class="c" points="10.63 47.55 11.44 47.58 6.54 42.22 6.51 43.04 10.63 47.55"/><polygon class="c" points="28.46 47.43 11.42 28.79 10.49 28.74 27.54 47.39 28.46 47.43"/><polygon class="c" points="13.19 28.86 30.02 47.27 30.92 47.31 14.1 28.91 13.19 28.86"/><path class="c" d="M17.07,29l-.72,0h-.1L32.11,46.35h.08l0-.73Z"/><polygon class="c" points="20.04 29.17 19.22 29.13 32.32 43.46 32.35 42.64 20.04 29.17"/><polygon class="c" points="23.32 29.32 22.5 29.28 32.47 40.17 32.5 39.36 23.32 29.32"/><polygon class="c" points="26.47 29.46 25.65 29.42 32.61 37.03 32.64 36.21 26.47 29.46"/><polygon class="c" points="28.83 29.57 28.01 29.53 32.71 34.67 32.75 33.85 28.83 29.57"/><path class="d" d="M39.58,29.06,31.81,39.58h0l-.06.06a4.63,4.63,0,0,0-.68.93v.05c0,.38-1.23.77-3.34,1.18l-1.76.3a3.89,3.89,0,0,1-1.91-.06h0l0-.11-.2-.13,0-.13-.34-.22h0L12.06,34.28h0l-.18-.11a2.24,2.24,0,0,1-.93-1.48L9,22.27a2.36,2.36,0,0,0,.35.23,6.42,6.42,0,0,0,1.81.58c2.84.53,7.64.34,13-.68,6.72-1.28,12.19-3.46,13.76-5.33l2,10.58A1.77,1.77,0,0,1,39.58,29.06Z"/><path class="d" d="M31.78,51.64s0,.07,0,.06a5.23,5.23,0,0,0-2,.1,5.09,5.09,0,0,0-2.07.73s-.13-.22-.13-.18L23.84,41.92h0l0-.1.2.13,0,.11h0a3.89,3.89,0,0,0,1.91.06l1.76-.3c2.11-.41,3.34-.8,3.34-1.18Z"/><path class="d" d="M23.8,41.81l-.24-.15-.32-.21-11-7.06-.14-.11,11.35,7.18h0l.34.22Z"/><path class="d" d="M31.74,39.65l-.68.93A4.63,4.63,0,0,1,31.74,39.65Z"/><path class="d" d="M11.11,23.08A6.42,6.42,0,0,1,9.3,22.5l0-.16a6.55,6.55,0,0,0,1.81.57Z"/><path class="d" d="M10.47,19.75a1.08,1.08,0,0,1-.26-.18l.23,0Z"/><path class="d" d="M11.11,23.08A6.42,6.42,0,0,1,9.3,22.5,2.36,2.36,0,0,1,9,22.27l0-.14a2,2,0,0,0,.35.21,6.55,6.55,0,0,0,1.81.57Z"/><path class="d" d="M8.36,21a.09.09,0,0,0,0,.06v0Zm2.08-1.44-.23,0a1.08,1.08,0,0,0,.26.18Zm0,.2,0,.06h.12Zm.61,3.16a6.55,6.55,0,0,1-1.81-.57,2,2,0,0,1-.35-.21,1.45,1.45,0,0,1-.43-.47,1.22,1.22,0,0,0,.46.61,2.36,2.36,0,0,0,.35.23,6.42,6.42,0,0,0,1.81.58Z"/><path class="d" d="M37.9,14.27l-.06-.1c-1.24-1.66-7.8-1.89-15.43-.44-8.23,1.57-14.58,4.49-14.2,6.53a.78.78,0,0,0,0,.14,1.27,1.27,0,0,0,.42.45,2.36,2.36,0,0,0,.35.23,6.81,6.81,0,0,0,1.81.56c2.83.53,7.61.33,12.91-.68,6.78-1.29,12.29-3.5,13.8-5.38C38,15,38.07,14.82,37.9,14.27Z"/><path class="d" d="M37.83,17.07c-2.68,3.68-21.76,7.83-26.75,5.84-1.68-.25-2.8-.86-2.82-2.51,5.51,4.22,25.71-.87,29.29-4.82C38.29,13.89,38.5,16.61,37.83,17.07Z"/><path class="d" d="M8.36,21a.69.69,0,0,1-.1-.25.81.81,0,0,1,0-.31l.08.15a.78.78,0,0,0,0,.34A.19.19,0,0,0,8.36,21Z"/><path class="d" d="M8.49,21.65a.75.75,0,0,1-.11-.28.76.76,0,0,1,0-.3l.07.15a1.22,1.22,0,0,0,0,.33A.17.17,0,0,0,8.49,21.65Z"/><path class="d" d="M38.16,15.59s0,0,0-.05Z"/><path class="d" d="M31.74,51.7c0,.28-.89.66-2,.87a3.49,3.49,0,0,1-2.12,0,5.09,5.09,0,0,1,2.07-.73A5.23,5.23,0,0,1,31.74,51.7Z"/><path class="d" d="M24,42.05a.46.46,0,0,1-.2-.13h0a.18.18,0,0,1-.07-.08,1.79,1.79,0,0,0-.21-.17l-.32-.21h.18l.34.22,0,.13.2.13Z"/><path class="d" d="M36.06,14.68c-1.27,3.64-22.92,7.13-26,5.49,0,0-.18-.19-.26-.18C7.54,16.78,36.26,11.73,36.06,14.68Z"/><path class="e" d="M32,36.18h0a23.26,23.26,0,0,1-9.53,1.45,2.22,2.22,0,0,1-1.21-.49,1.61,1.61,0,0,1-.63-1q-.68-3.61-1.33-7.25a1.73,1.73,0,0,1,1.23-1.8h0A46.19,46.19,0,0,1,30,25.25a1.82,1.82,0,0,1,1.2.32,1.49,1.49,0,0,1,.64.93l1.41,7.69A1.68,1.68,0,0,1,33,35.35,1.94,1.94,0,0,1,32,36.18Zm-.11-.57a1.17,1.17,0,0,0,.59-.49,1,1,0,0,0,.16-.7q-.74-3.93-1.45-7.85a.9.9,0,0,0-.38-.57,1.14,1.14,0,0,0-.72-.18,55.65,55.65,0,0,0-9.45,1.87h0a1.1,1.1,0,0,0-.59.42.88.88,0,0,0-.16.65q.69,3.74,1.37,7.46a1.18,1.18,0,0,0,1.11.85A25.12,25.12,0,0,0,31.93,35.61Z"/><path class="e" d="M27.07,35.94A7.43,7.43,0,0,1,24,34.52c-1.26-.83-2.1-1.49-2.39-1.66.46-.28.91-.58,1.36-.9.49.27.58.67,1.84,1.46a7,7,0,0,0,1.54.82.83.83,0,0,0,1.06-.52c.39-1.27.8-3.6,1.07-5,.81-4.13,1.49-6.68,2.88-7.38l.9,1.47c-.94.46-1.83,2.82-2.34,5.38-.87,4.32-1.17,7.47-2.82,7.72Z"/><g class="f"><line class="g" x1="104.6" y1="41.54" x2="125.58" y2="41.54"/><polyline class="g" points="125.58 41.54 125.58 56.69 104.6 56.69"/><polyline class="g" points="104.6 41.54 115.09 50.86 125.58 41.54"/><line class="g" x1="104.6" y1="56.69" x2="112.62" y2="48.68"/><line class="g" x1="125.58" y1="56.69" x2="117.57" y2="48.68"/><line class="g" x1="104.02" y1="43.87" x2="99.94" y2="43.87"/><line class="g" x1="105.19" y1="47.37" x2="102.27" y2="47.37"/><line class="g" x1="104.6" y1="50.86" x2="101.11" y2="50.86"/><line class="g" x1="104.02" y1="54.36" x2="99.36" y2="54.36"/></g><g class="h"><rect class="i" x="7.72" y="6.91" width="14.91" height="10.65" transform="translate(0.95 -1.09) rotate(4.25)"/><polyline class="i" points="8.13 6.37 15.04 14 23 7.47"/></g><g class="h"><rect class="i" x="21.08" y="3.54" width="13.86" height="9.9" transform="translate(-0.52 1.97) rotate(-3.99)"/><polyline class="i" points="20.75 4.04 28.13 10.13 34.58 3.07"/></g><g class="j"><rect class="i" x="3.73" y="5.22" width="13.44" height="9.6" transform="translate(-2.07 2.74) rotate(-13.63)"/><polyline class="i" points="2.79 6.93 10.82 11.57 15.84 3.77"/></g><g class="k"><rect class="i" x="17.63" y="8.62" width="14.91" height="10.65" transform="translate(2.75 -4.08) rotate(9.82)"/><polyline class="i" points="18.65 7.43 24.79 15.7 33.34 9.97"/></g><g class="l"><rect class="i" x="19.02" y="10.7" width="12.13" height="8.67" transform="translate(-3.38 8.33) rotate(-17.69)"/><polyline class="i" points="17.99 12.74 25.53 16.41 29.55 9.06"/></g><g class="m"><polygon class="e" points="58.13 54.66 58.13 54.94 53.67 54.94 58.26 50.36 48.55 50.35 48.55 47.12 58.23 47.12 53.67 42.57 58.25 42.57 64.43 48.75 58.25 54.94 58.13 54.94 58.13 54.66 57.93 54.46 63.63 48.75 58.01 43.13 55.03 43.13 59.58 47.69 49.12 47.69 49.12 49.79 59.62 49.8 55.03 54.38 58.13 54.38 58.13 54.66 57.93 54.46 58.13 54.66"/></g><g class="m"><polygon class="e" points="75.87 52.98 75.87 53.2 72.41 53.19 75.97 49.63 68.43 49.63 68.43 47.12 75.95 47.12 72.41 43.58 75.96 43.58 80.77 48.39 75.96 53.2 75.87 53.2 75.87 52.98 75.72 52.83 80.15 48.39 75.78 44.02 73.46 44.02 77 47.56 68.87 47.56 68.87 49.19 77.03 49.2 73.46 52.76 75.87 52.76 75.87 52.98 75.72 52.83 75.87 52.98"/></g><polygon class="c" points="123.19 24.22 124.11 24.26 106.93 5.46 106 5.42 123.19 24.22"/><polygon class="c" points="120.53 24.39 121.35 24.43 105.16 6.72 105.12 7.54 120.53 24.39"/><polygon class="c" points="105.03 9.57 104.99 10.39 118.13 24.76 118.95 24.8 105.03 9.57"/><polygon class="c" points="104.92 12.03 104.88 12.85 115.67 24.65 116.49 24.68 104.92 12.03"/><polygon class="c" points="104.82 14.29 104.78 15.11 113.41 24.55 114.23 24.58 104.82 14.29"/><polygon class="c" points="104.7 16.85 104.67 17.66 110.86 24.43 111.67 24.47 104.7 16.85"/><polygon class="c" points="108.69 24.34 109.51 24.37 104.61 19.01 104.57 19.83 108.69 24.34"/><polygon class="c" points="126.53 24.22 109.48 5.57 108.55 5.53 125.6 24.18 126.53 24.22"/><polygon class="c" points="111.25 5.65 128.08 24.06 128.99 24.1 112.16 5.69 111.25 5.65"/><path class="c" d="M115.13,5.83l-.72,0h-.09l15.85,17.33h.08l0-.74Z"/><polygon class="c" points="118.1 5.96 117.28 5.92 130.38 20.25 130.42 19.43 118.1 5.96"/><polygon class="c" points="121.38 6.11 120.57 6.07 130.53 16.96 130.56 16.15 121.38 6.11"/><polygon class="c" points="124.53 6.25 123.72 6.21 130.67 13.82 130.71 13 124.53 6.25"/><polygon class="c" points="126.89 6.35 126.08 6.32 130.78 11.46 130.81 10.64 126.89 6.35"/><g class="n"><path class="o" d="M59.55,32.33a3.93,3.93,0,0,1-1.85.39,3,3,0,0,1-2.28-.92,3.38,3.38,0,0,1-.86-2.41,3.52,3.52,0,0,1,1-2.59,3.26,3.26,0,0,1,2.44-1,3.82,3.82,0,0,1,1.58.28v.83a3.17,3.17,0,0,0-1.58-.4,2.45,2.45,0,0,0-1.87.77,2.88,2.88,0,0,0-.72,2.05,2.78,2.78,0,0,0,.67,1.95,2.3,2.3,0,0,0,1.76.73,3.27,3.27,0,0,0,1.74-.45Z"/><path class="o" d="M61.93,32.61h-.78V25.92h.78Z"/><path class="o" d="M63.93,32.61V25.92h1.9a2.05,2.05,0,0,1,1.38.43,1.38,1.38,0,0,1,.5,1.1,1.66,1.66,0,0,1-.3,1,1.7,1.7,0,0,1-.85.6v0a1.67,1.67,0,0,1,1.08.51,1.55,1.55,0,0,1,.4,1.12,1.76,1.76,0,0,1-.61,1.39,2.31,2.31,0,0,1-1.55.53Zm.78-6v2.16h.8a1.53,1.53,0,0,0,1-.31,1.1,1.1,0,0,0,.36-.87c0-.65-.42-1-1.28-1Zm0,2.86V31.9h1.06a1.57,1.57,0,0,0,1.07-.33,1.09,1.09,0,0,0,.38-.89c0-.79-.53-1.19-1.61-1.19Z"/><path class="o" d="M72.24,31.92h0V34.8h-.76v-7h.76v.84h0a1.82,1.82,0,0,1,1.65-1,1.75,1.75,0,0,1,1.44.64,2.63,2.63,0,0,1,.52,1.72A3,3,0,0,1,75.27,32a2,2,0,0,1-1.6.72A1.62,1.62,0,0,1,72.24,31.92Zm0-1.93v.67a1.4,1.4,0,0,0,.39,1,1.27,1.27,0,0,0,1,.42,1.26,1.26,0,0,0,1.08-.54,2.36,2.36,0,0,0,.4-1.47,2,2,0,0,0-.37-1.25,1.23,1.23,0,0,0-1-.45,1.35,1.35,0,0,0-1.07.46A1.71,1.71,0,0,0,72.22,30Z"/><path class="o" d="M78.08,32.61h-.77V25.54h.77Z"/><path class="o" d="M83.28,32.61h-.77v-.75h0a1.62,1.62,0,0,1-1.47.86,1.58,1.58,0,0,1-1.12-.38,1.29,1.29,0,0,1-.4-1c0-.89.52-1.41,1.57-1.56l1.43-.2c0-.81-.32-1.21-1-1.21A2.38,2.38,0,0,0,80,29v-.78a3,3,0,0,1,1.63-.45c1.12,0,1.68.6,1.68,1.78Zm-.77-2.42-1.15.16a2,2,0,0,0-.8.26.77.77,0,0,0-.27.67.7.7,0,0,0,.25.57,1,1,0,0,0,.66.23,1.24,1.24,0,0,0,.94-.4,1.42,1.42,0,0,0,.37-1Z"/><path class="o" d="M88.92,32.61h-.77V29.89c0-1-.36-1.52-1.1-1.52a1.19,1.19,0,0,0-1,.43,1.59,1.59,0,0,0-.38,1.09v2.72H85V27.83h.76v.8h0a1.71,1.71,0,0,1,1.57-.91,1.43,1.43,0,0,1,1.19.51,2.21,2.21,0,0,1,.42,1.46Z"/><path class="o" d="M105.57,26a1.07,1.07,0,0,0-.51-.13c-.53,0-.8.34-.8,1v.73h1.12v.65h-1.12v4.12h-.76V28.24h-.81v-.65h.81v-.77a1.65,1.65,0,0,1,.43-1.19A1.47,1.47,0,0,1,105,25.2a1.42,1.42,0,0,1,.55.08Z"/><path class="o" d="M108.43,32.48a2.26,2.26,0,0,1-1.69-.67,2.5,2.5,0,0,1-.63-1.78,2.56,2.56,0,0,1,.66-1.87,2.34,2.34,0,0,1,1.78-.68,2.13,2.13,0,0,1,1.66.66,3,3,0,0,1,0,3.65A2.27,2.27,0,0,1,108.43,32.48Zm.06-4.36a1.48,1.48,0,0,0-1.17.5A2.12,2.12,0,0,0,106.9,30a1.92,1.92,0,0,0,.43,1.33,1.45,1.45,0,0,0,1.16.49,1.41,1.41,0,0,0,1.14-.48A2,2,0,0,0,110,30a2.08,2.08,0,0,0-.4-1.38A1.39,1.39,0,0,0,108.49,28.12Z"/><path class="o" d="M114.76,28.37a.89.89,0,0,0-.58-.16,1,1,0,0,0-.82.46,2.14,2.14,0,0,0-.32,1.26v2.43h-.77V27.59H113v1h0a1.71,1.71,0,0,1,.5-.79,1.15,1.15,0,0,1,.75-.28,1.38,1.38,0,0,1,.46.06Z"/><path class="o" d="M119.66,30.17h-3.37a1.84,1.84,0,0,0,.43,1.23,1.48,1.48,0,0,0,1.13.43,2.3,2.3,0,0,0,1.48-.53V32a2.79,2.79,0,0,1-1.66.46,2,2,0,0,1-1.59-.65A2.66,2.66,0,0,1,115.5,30a2.62,2.62,0,0,1,.63-1.82,2,2,0,0,1,1.57-.7,1.77,1.77,0,0,1,1.45.61,2.52,2.52,0,0,1,.51,1.68Zm-.78-.65a1.55,1.55,0,0,0-.32-1,1.1,1.1,0,0,0-.87-.37,1.23,1.23,0,0,0-.92.39,1.77,1.77,0,0,0-.47,1Z"/><path class="o" d="M124.31,32.15a2.46,2.46,0,0,1-1.3.33,2.15,2.15,0,0,1-1.65-.67,2.38,2.38,0,0,1-.63-1.72,2.66,2.66,0,0,1,.68-1.9,2.38,2.38,0,0,1,1.8-.71,2.59,2.59,0,0,1,1.11.23v.79a1.92,1.92,0,0,0-1.13-.38,1.57,1.57,0,0,0-1.21.53,2,2,0,0,0-.46,1.37,1.88,1.88,0,0,0,.44,1.33,1.51,1.51,0,0,0,1.18.48,1.94,1.94,0,0,0,1.17-.41Z"/><path class="o" d="M129.12,32.36h-.76v-.74h0a1.6,1.6,0,0,1-1.47.86,1.57,1.57,0,0,1-1.11-.38,1.31,1.31,0,0,1-.41-1c0-.89.53-1.41,1.58-1.56l1.43-.2c0-.81-.33-1.22-1-1.22a2.35,2.35,0,0,0-1.56.59v-.78a3,3,0,0,1,1.62-.45c1.12,0,1.68.59,1.68,1.78ZM128.36,30l-1.15.16a1.92,1.92,0,0,0-.8.26.77.77,0,0,0-.27.67.72.72,0,0,0,.25.57.92.92,0,0,0,.66.22,1.22,1.22,0,0,0,.94-.4,1.39,1.39,0,0,0,.37-1Z"/><path class="o" d="M130.51,32.19v-.82a2.27,2.27,0,0,0,1.38.46c.67,0,1-.22,1-.67a.55.55,0,0,0-.09-.32.87.87,0,0,0-.23-.24,1.64,1.64,0,0,0-.35-.18l-.42-.17a5,5,0,0,1-.56-.26,1.77,1.77,0,0,1-.4-.28,1,1,0,0,1-.24-.37,1.21,1.21,0,0,1-.09-.48,1.22,1.22,0,0,1,.16-.6,1.4,1.4,0,0,1,.41-.43,2,2,0,0,1,.58-.26,2.59,2.59,0,0,1,.68-.09,2.82,2.82,0,0,1,1.11.21v.78a2.15,2.15,0,0,0-1.21-.35,1.6,1.6,0,0,0-.39.05.87.87,0,0,0-.29.14.66.66,0,0,0-.2.21.6.6,0,0,0-.06.27.76.76,0,0,0,.06.32,1,1,0,0,0,.2.22,1.92,1.92,0,0,0,.32.18l.42.17a5.12,5.12,0,0,1,.57.25,1.71,1.71,0,0,1,.43.29,1.07,1.07,0,0,1,.27.37,1.09,1.09,0,0,1,.1.5,1.11,1.11,0,0,1-.16.61,1.33,1.33,0,0,1-.41.44,2,2,0,0,1-.61.25,2.93,2.93,0,0,1-2-.2Z"/><path class="o" d="M137.31,32.32a1.48,1.48,0,0,1-.72.15c-.83,0-1.25-.47-1.25-1.4V28.24h-.82v-.65h.82V26.43l.76-.25v1.41h1.21v.65H136.1v2.69a1.13,1.13,0,0,0,.17.69.64.64,0,0,0,.54.2.84.84,0,0,0,.5-.15Z"/><path class="o" d="M98.48,32.71a1.31,1.31,0,0,1-.46-.07,1.38,1.38,0,0,1-.38-.2,2.06,2.06,0,0,1-.33-.33c-.11-.12-.22-.27-.34-.43a4.18,4.18,0,0,1-.43.39,4.86,4.86,0,0,1-.54.33,3.93,3.93,0,0,1-.66.23,3.09,3.09,0,0,1-.77.08,3.36,3.36,0,0,1-.92-.12,2.23,2.23,0,0,1-.72-.37,1.73,1.73,0,0,1-.46-.61,2,2,0,0,1,.24-2,2.92,2.92,0,0,1,1.15-.83,2.09,2.09,0,0,1-.28-.24,1.69,1.69,0,0,1-.43-.7,1.35,1.35,0,0,1-.07-.46,1.64,1.64,0,0,1,.13-.65,1.47,1.47,0,0,1,.37-.48,1.72,1.72,0,0,1,.55-.3,2.17,2.17,0,0,1,.69-.1,2,2,0,0,1,.66.1,1.55,1.55,0,0,1,.52.29,1.41,1.41,0,0,1,.34.45,1.34,1.34,0,0,1,.12.58,1.4,1.4,0,0,1-.32.93,2.51,2.51,0,0,1-1,.63,3.15,3.15,0,0,1,1.06.71,4.81,4.81,0,0,1,.42.48l.37.53a3.49,3.49,0,0,0,.57-1.16A4.44,4.44,0,0,0,97.79,28a1.88,1.88,0,0,0,0-.34c0-.1,0-.21,0-.31h.74a1.55,1.55,0,0,1,0,.29c0,.1,0,.2,0,.33a4.26,4.26,0,0,1-.09.86,6,6,0,0,1-.24.83,4.78,4.78,0,0,1-.35.76,5.94,5.94,0,0,1-.41.67c.1.15.2.28.29.39a2.46,2.46,0,0,0,.28.28,1,1,0,0,0,.61.22,1.45,1.45,0,0,0,.29,0l.3-.09v.7a1.4,1.4,0,0,1-.35.1Zm-3.91-.66a2.73,2.73,0,0,0,.66-.07,3.29,3.29,0,0,0,.55-.21,2,2,0,0,0,.45-.3,4.26,4.26,0,0,0,.38-.35c-.19-.3-.37-.55-.53-.76a4.36,4.36,0,0,0-.48-.54,2.84,2.84,0,0,0-.53-.4,3.48,3.48,0,0,0-.64-.3,4.49,4.49,0,0,0-.54.26,1.74,1.74,0,0,0-.42.34,1.35,1.35,0,0,0-.29.44,1.9,1.9,0,0,0-.1.61,1.28,1.28,0,0,0,.12.56,1.13,1.13,0,0,0,.32.4A1.23,1.23,0,0,0,94,32,1.85,1.85,0,0,0,94.57,32.05Zm1.17-4.76a.8.8,0,0,0-.09-.39.84.84,0,0,0-.22-.27.83.83,0,0,0-.29-.16,1.25,1.25,0,0,0-.32,0,1,1,0,0,0-.73.25.83.83,0,0,0-.28.67,1,1,0,0,0,.06.36A1.14,1.14,0,0,0,94,28a1.23,1.23,0,0,0,.25.26,1.81,1.81,0,0,0,.29.19,2.55,2.55,0,0,0,.88-.48A.91.91,0,0,0,95.74,27.29Z"/><path class="p" d="M48.29,26a3.24,3.24,0,0,1,2.51,3.15,3.38,3.38,0,0,1-.29,1.33,2.94,2.94,0,0,1-.73,1,3.11,3.11,0,0,1-2.16.88,3.23,3.23,0,0,1-1.4-.32l.48-.66a3,3,0,0,0,1,.16A2.39,2.39,0,0,0,50,29.12a2.36,2.36,0,0,0-1.81-2.31V26m-.46-.57v1.87a1.87,1.87,0,1,1-1.15,3.45l-1.08,1.53a3.66,3.66,0,0,0,2.16.64,3.76,3.76,0,0,0,2.56-1A3.51,3.51,0,0,0,51,30.66a3.56,3.56,0,0,0,.28-1.51,3.77,3.77,0,0,0-1.09-2.63A3.64,3.64,0,0,0,47.69,25.4Z"/><path class="p" d="M44.91,31.8a3.69,3.69,0,0,1-1.09-2.65h1.87a2,2,0,0,0,.56,1.32Z"/><path class="p" d="M45.75,28.7l-1.89-.09a3.92,3.92,0,0,1,1-2.14,3.56,3.56,0,0,1,2.24-1.07l.05,1.91A1.91,1.91,0,0,0,45.75,28.7Z"/></g></g></svg>