<svg id="Ebene_1" data-name="Ebene 1" xmlns="http://www.w3.org/2000/svg" viewBox="0 0 24 24"><defs><style>.cls-1{fill:#fff;}</style></defs><path d="M19.43,13a7.77,7.77,0,0,0,.07-1,8.55,8.55,0,0,0-.07-1l2.11-1.63a.5.5,0,0,0,.12-.64l-2-3.46a.49.49,0,0,0-.61-.22l-2.49,1a7.25,7.25,0,0,0-1.69-1L14.5,2.42A.51.51,0,0,0,14,2H10a.51.51,0,0,0-.5.42L9.13,5.07a7.25,7.25,0,0,0-1.69,1L5,5.05a.49.49,0,0,0-.61.22l-2,3.46a.49.49,0,0,0,.12.64L4.57,11a8.55,8.55,0,0,0-.07,1,7.77,7.77,0,0,0,.07,1L2.46,14.63a.49.49,0,0,0-.12.64l2,3.46A.5.5,0,0,0,5,19l2.49-1a7,7,0,0,0,1.69,1l.37,2.65A.51.51,0,0,0,10,22h4a.51.51,0,0,0,.5-.42l.37-2.65a7.28,7.28,0,0,0,1.69-1l2.49,1a.5.5,0,0,0,.61-.22l2-3.46a.5.5,0,0,0-.12-.64Z"/><path class="cls-1" d="M10,16l6-4L10,8Z"/></svg>