<svg xmlns="http://www.w3.org/2000/svg" viewBox="0 0 24 24">
	<title>Dialog_Enquiry</title>
	<g id="Basic_Icons" data-name="Basic Icons">
	    <path d="M12,2A10,10,0,1,1,2,12,10,10,0,0,1,12,2m0-2A12,12,0,1,0,24,12,12,12,0,0,0,12,0Z" fill="#0087be"/>
	    <path d="M13.58,17.33a1.5,1.5,0,1,1-1.5-1.49A1.5,1.5,0,0,1,13.58,17.33Z" fill="#0087be"/>
	    <path d="M13.15,13.12c-.47.4-.32,1.1-.52,1.29A1.14,1.14,0,0,1,11,14.36a2.45,2.45,0,0,1-.32-1.17,2,2,0,0,1,.48-1.85c.61-.59,2.32-.61,2.78-1A1.62,1.62,0,0,0,14.53,9a1.54,1.54,0,0,0-.64-1.25,2.63,2.63,0,0,0-1.84-.59,3,3,0,0,0-1.83.41,2.21,2.21,0,0,0-.61.72c-.12.24-.09.71-.3.94a1.15,1.15,0,0,1-1.65,0A1.91,1.91,0,0,1,7.41,8.1a3.87,3.87,0,0,1,.7-1.74,3.67,3.67,0,0,1,2-1.27,5,5,0,0,1,2-.21,5,5,0,0,1,3.44,1.28,4.13,4.13,0,0,1,1.3,3.13A3.41,3.41,0,0,1,16,11.55C15.51,12.17,13.49,12.84,13.15,13.12Z" fill="#0087be"/>
	</g>
</svg>