<?xml version="1.0" encoding="UTF-8"?><svg xmlns="http://www.w3.org/2000/svg" xmlns:xlink="http://www.w3.org/1999/xlink" viewBox="0 0 210.59 157.55"><defs><clipPath id="g"><circle cx="122.38" cy="43.59" r="19.71" style="fill:#fff;"/></clipPath><clipPath id="f"><path d="M122.38,63.69c-11.08,0-20.1-9.02-20.1-20.1s9.02-20.1,20.1-20.1,20.1,9.02,20.1,20.1-9.02,20.1-20.1,20.1ZM122.38,24.28c-10.65,0-19.31,8.66-19.31,19.31s8.66,19.31,19.31,19.31,19.31-8.66,19.31-19.31-8.66-19.31-19.31-19.31Z" style="clip-path:url(#g); fill:#859cb3;"/></clipPath><clipPath id="e"><circle cx="122.38" cy="43.59" r="22.58" style="clip-path:url(#f); fill:#e9f0f7;"/></clipPath><clipPath id="d"><path d="M122.38,66.44c-12.6,0-22.84-10.25-22.84-22.84s10.25-22.84,22.84-22.84,22.84,10.25,22.84,22.84-10.25,22.84-22.84,22.84ZM122.38,21.28c-12.31,0-22.32,10.01-22.32,22.32s10.01,22.32,22.32,22.32,22.32-10.01,22.32-22.32-10.01-22.32-22.32-22.32Z" style="clip-path:url(#e); fill:#859cb3;"/></clipPath><clipPath id="i"><polygon points="60.75 99.31 13.26 90.92 30.25 60.27 60.75 48.98 60.75 99.31" style="fill:#fff;"/></clipPath><clipPath id="h"><path d="M61.14,99.78l-48.5-8.57,17.33-31.26,31.16-11.53v51.37ZM13.87,90.62l46.48,8.22v-49.29l-29.83,11.04-16.66,30.04Z" style="clip-path:url(#i); fill:#859cb3;"/></clipPath><clipPath id="k"><circle cx="122.55" cy="42.79" r="19.71" style="fill:#fff; stroke:#859cb3; stroke-miterlimit:10; stroke-width:.75px;"/></clipPath><clipPath id="j"><circle cx="122.55" cy="42.79" r="22.58" style="clip-path:url(#k); fill:#e9f0f7; stroke:#859cb3; stroke-miterlimit:10; stroke-width:.5px;"/></clipPath></defs><g style="isolation:isolate;"><g id="b"><g id="c"><path d="M199.92,93.88c-1.69,2.87-3.76,5.12-5.87,7.44-.67.74-1.37,1.45-2.1,2.14-.33.31-.65.61-.97.91-4.16,3.91-9.04,6.9-14.31,8.64-.17.06-.34.11-.51.16-4.96,1.53-9.96,2.6-15.13,2.66-5.27.28-10.57.03-16.01-.32-.7-.04-1.4-.07-2.1-.07-2.24,0-4.35,0-6.47.29-8.43.77-15.58,4.78-22.03,10.1-3.22,2.66-6.27,5.65-9.22,8.71-10.42,13.2-24.96,24.85-41.9,22.4-1.47-.18-2.84-.37-4.31-.55-2.44-.55-4.87-.99-7.23-1.87-1.29-.53-2.58-.95-3.87-1.48-5.08-2.23-9.27-4.93-13.35-8.72-1.13-.98-2.05-2-2.98-3.12-2.32-2.7-4.11-5.28-5.62-8.22-6.49-12.13-1.74-26.38.8-39.73.19-1.1.28-2.2.31-3.29.02-1.09-.03-2.18-.13-3.26-.04-1.57-.15-3.12-.3-4.67-2.35-13.13-5.7-29.81,8.31-38.32,2.41-1.46,4.73-2.67,7.22-3.61,3.01-1.2,6.02-1.98,9.05-2.89,1.44-.33,2.88-.59,4.32-.8,1.44-.21,2.87-.37,4.27-.5,7.99-.72,15.87-1.38,23.61-3.53,1.75-.46,3.49-.96,5.2-1.66,1.71-.69,3.38-1.61,5-2.81,1.95-1.39,3.89-2.79,5.82-4.21,1.93-1.42,3.85-2.84,5.77-4.26,2.01-1.61,4.08-3.15,6.21-4.59,2.13-1.44,4.32-2.79,6.55-4.02,13.51-7.41,29.02-12.55,43.17-9.88,54.33,10.24,49.97,73.85,38.76,92.92Z" style="fill:#e9f0f7;"/><path d="M67.86,157.55c-1.5,0-3.03-.11-4.58-.33-.74-.09-1.45-.18-2.17-.28-.7-.09-1.41-.18-2.13-.27-.48-.11-.93-.2-1.38-.3-1.95-.42-3.97-.86-5.91-1.58-.65-.26-1.29-.5-1.93-.74-.65-.24-1.3-.48-1.95-.74-5.23-2.29-9.36-5-13.43-8.77-.99-.86-1.89-1.81-3-3.15-2.38-2.78-4.18-5.41-5.65-8.27-5.51-10.31-2.98-22.13-.53-33.56.45-2.09.91-4.25,1.31-6.34.18-1.04.28-2.13.3-3.24.02-1.03-.02-2.11-.13-3.22-.04-1.53-.14-3.06-.3-4.67l-.16-.87c-2.34-13.05-5.26-29.29,8.59-37.7,2.62-1.59,4.93-2.75,7.27-3.63,2.33-.93,4.7-1.62,6.99-2.28.69-.2,1.38-.4,2.08-.61,1.37-.32,2.8-.58,4.36-.81,1.34-.19,2.74-.36,4.29-.51l.83-.08c7.86-.71,15.28-1.38,22.73-3.45,1.66-.44,3.43-.94,5.17-1.65,1.74-.71,3.41-1.65,4.95-2.78,1.75-1.24,3.6-2.58,5.82-4.21,1.48-1.08,2.95-2.17,4.42-3.26l1.35-1c2.03-1.63,4.12-3.18,6.22-4.6,2.17-1.47,4.38-2.83,6.57-4.04C133.9,1.81,148.89-1.61,161.21.71c18.69,3.52,32.47,13.98,39.86,30.24,10.29,22.64,6.07,51.18-.92,63.07h0c-1.67,2.84-3.67,5.04-5.79,7.36l-.12.13c-.68.74-1.39,1.47-2.11,2.15l-.97.92c-4.22,3.98-9.2,6.98-14.4,8.69-.17.06-.34.11-.51.16-5.76,1.77-10.6,2.62-15.21,2.67-5.03.27-10.04.07-16.03-.32-.67-.04-1.37-.07-2.08-.07-2.39,0-4.39.01-6.43.29-7.48.69-14.44,3.88-21.9,10.05-2.76,2.29-5.69,5.05-9.2,8.69-8.44,10.68-21.54,22.8-37.54,22.81ZM153.38.53c-10.53,0-22.56,3.58-35.26,10.55-2.18,1.2-4.38,2.55-6.53,4.01-2.08,1.41-4.17,2.95-6.19,4.58l-1.36,1c-1.47,1.09-2.95,2.18-4.43,3.26-2.23,1.63-4.08,2.97-5.82,4.21-1.57,1.16-3.27,2.12-5.06,2.84-1.77.72-3.56,1.23-5.23,1.67-7.49,2.09-15.28,2.79-22.82,3.47l-.83.08c-1.54.14-2.93.31-4.26.5-1.55.23-2.96.49-4.3.79-.68.2-1.37.41-2.07.61-2.28.66-4.64,1.34-6.95,2.27-2.31.87-4.59,2.02-7.18,3.59-13.54,8.23-10.66,24.27-8.35,37.16l.16.89c.17,1.65.27,3.18.31,4.71.11,1.12.15,2.22.13,3.27-.02,1.14-.13,2.26-.31,3.33-.4,2.1-.86,4.27-1.31,6.36-2.43,11.34-4.94,23.06.48,33.2,1.45,2.83,3.23,5.43,5.58,8.17,1.1,1.32,1.98,2.24,2.95,3.1,4.02,3.74,8.12,6.41,13.28,8.68.64.26,1.28.5,1.93.73.65.24,1.29.48,1.94.74,1.9.71,3.9,1.14,5.83,1.56.45.1.9.2,1.36.3.7.08,1.41.18,2.11.27.71.09,1.43.19,2.17.28,17.84,2.59,32.5-10.7,41.66-22.3,3.54-3.68,6.48-6.45,9.26-8.75,7.55-6.24,14.59-9.47,22.17-10.16,2.07-.28,4.08-.3,6.49-.29.72,0,1.43.02,2.11.07,5.96.38,10.96.58,15.97.32,4.57-.05,9.36-.89,15.07-2.65.17-.05.33-.11.5-.16,5.13-1.69,10.04-4.65,14.21-8.58l.97-.91c.71-.68,1.42-1.39,2.09-2.12l.12-.13c2.1-2.3,4.08-4.47,5.73-7.27h0c6.94-11.79,11.11-40.1.9-62.59-7.42-16.33-20.7-26.4-39.48-29.94-2.47-.47-5.05-.7-7.73-.7Z" style="fill:#859cb3;"/><ellipse cx="126.95" cy="130.49" rx="82.5" ry="6.31" style="fill:#e9f0f7;"/><path d="M126.95,137.07c-40.12,0-82.76-2.3-82.76-6.57s42.08-6.57,82.76-6.57,82.76,2.46,82.76,6.57-42.64,6.57-82.76,6.57ZM126.95,124.45c-49.19,0-82.24,3.13-82.24,6.04s33.05,6.04,82.24,6.04,82.24-3.13,82.24-6.04-33.05-6.04-82.24-6.04Z" style="fill:#859cb3;"/><rect x="71.03" y="44.39" width="122.6" height="85.8" rx="7.71" ry="7.71" style="fill:#fff;"/><path d="M185.52,130.59h-106.38c-4.69,0-8.51-3.82-8.51-8.51V52.5c0-4.69,3.82-8.51,8.51-8.51h106.38c4.69,0,8.51,3.82,8.51,8.51v69.58c0,4.69-3.82,8.51-8.51,8.51ZM79.14,44.78c-4.26,0-7.72,3.46-7.72,7.72v69.58c0,4.26,3.46,7.72,7.72,7.72h106.38c4.26,0,7.72-3.46,7.72-7.72V52.5c0-4.26-3.46-7.72-7.72-7.72h-106.38Z" style="fill:#859cb3;"/><rect x="76.4" y="49.72" width="111.84" height="70.44" style="fill:#fff;"/><path d="M188.64,120.56h-112.63V49.32h112.63v71.23ZM76.8,119.77h111.06V50.11h-111.06v69.66Z" style="fill:#859cb3;"/><circle cx="132.33" cy="47.13" r="1.13" style="fill:#fff;"/><path d="M132.33,48.65c-.84,0-1.52-.68-1.52-1.52s.68-1.52,1.52-1.52,1.52.68,1.52,1.52-.68,1.52-1.52,1.52ZM132.33,46.4c-.4,0-.73.33-.73.73s.33.73.73.73.73-.33.73-.73-.33-.73-.73-.73Z" style="fill:#859cb3;"/><rect x="54.46" y="124.9" width="155.73" height="5.9" rx="1.43" ry="1.43" style="fill:#fff;"/><path d="M208.69,131.2H55.96c-1.05,0-1.9-.85-1.9-1.9v-2.9c0-1.05.85-1.9,1.9-1.9h152.73c1.05,0,1.9.85,1.9,1.9v2.9c0,1.05-.85,1.9-1.9,1.9ZM55.96,125.3c-.61,0-1.11.5-1.11,1.11v2.9c0,.61.5,1.11,1.11,1.11h152.73c.61,0,1.11-.5,1.11-1.11v-2.9c0-.61-.5-1.11-1.11-1.11H55.96Z" style="fill:#859cb3;"/><path d="M119.16,124.9h26.64v.12c0,1.29-1.05,2.34-2.34,2.34h-21.96c-1.29,0-2.34-1.05-2.34-2.34v-.12h0Z" style="fill:#e9f0f7;"/><path d="M143.34,127.63h-21.71c-1.5,0-2.73-1.22-2.73-2.73v-.26h27.16v.26c0,1.5-1.22,2.73-2.73,2.73ZM119.44,125.17c.13,1.09,1.06,1.94,2.18,1.94h21.71c1.12,0,2.05-.85,2.18-1.94h-26.08Z" style="fill:#859cb3;"/><g style="mix-blend-mode:multiply; opacity:.19;"><rect x="71.16" y="44.59" width="113.57" height="73.28" style="fill:#fff;"/><path d="M70.79,118.31l-.06-74.07h.39s113.97-.09,113.97-.09l.06,74.07h-.39s-113.97.09-113.97.09ZM71.52,45.03l.06,72.49,112.78-.09-.06-72.49-112.78.09Z" style="fill:#859cb3;"/></g><path d="M66.76,34.84h112.96v74.82c0,2.11-1.71,3.82-3.82,3.82h-109.14V34.84h0Z" style="fill:#fff;"/><path d="M66.39,113.92l-.06-79.44h.39s113.36-.09,113.36-.09l.06,75.01c0,2.44-1.98,4.42-4.42,4.42l-109.33.08ZM67.12,35.27l.06,77.86,108.54-.08c2,0,3.63-1.63,3.63-3.63l-.06-74.22-112.17.09Z" style="fill:#859cb3;"/><path d="M69.91,32.22h106.26c1.94,0,3.52,1.58,3.52,3.52v5.9h-112.96v-6.23c0-1.76,1.43-3.18,3.18-3.18Z" style="fill:#fff;"/><path d="M66.34,42.08v-6.46c0-2.07,1.67-3.75,3.74-3.75l105.91-.08h0c1.09,0,2.12.43,2.9,1.2.77.77,1.2,1.8,1.2,2.9v6.11s-.39,0-.39,0l-113.36.09ZM175.99,32.57h0l-105.91.08c-1.63,0-2.96,1.33-2.96,2.96v5.67s112.18-.09,112.18-.09v-5.32c0-.88-.35-1.72-.98-2.34-.62-.62-1.46-.97-2.34-.97Z" style="fill:#859cb3;"/><g style="opacity:.33;"><path d="M71.61,36.86c0,.69-.56,1.25-1.24,1.25-.69,0-1.25-.56-1.25-1.24,0-.69.56-1.25,1.24-1.25.69,0,1.25.56,1.25,1.24Z" style="fill:#fff;"/><path d="M70.37,38.51c-.44,0-.85-.17-1.16-.48-.31-.31-.48-.72-.48-1.16,0-.44.17-.85.48-1.16.31-.31.72-.48,1.16-.48h0c.9,0,1.64.73,1.64,1.64,0,.44-.17.85-.48,1.16-.31.31-.72.48-1.16.48h0ZM70.37,36.02c-.2.01-.44.09-.6.25-.16.16-.25.37-.25.6s.09.44.25.6c.16.16.37.25.6.25h0c.23,0,.44-.09.6-.25s.25-.37.25-.6c0-.47-.38-.85-.85-.85Z" style="fill:#859cb3;"/><path d="M75.46,36.86c0,.69-.56,1.25-1.24,1.25-.69,0-1.25-.56-1.25-1.24,0-.69.56-1.25,1.24-1.25.69,0,1.25.56,1.25,1.24Z" style="fill:#fff;"/><path d="M74.21,38.5c-.44,0-.85-.17-1.16-.48s-.48-.72-.48-1.16c0-.9.73-1.64,1.64-1.64h0c.44,0,.85.17,1.16.48.31.31.48.72.48,1.16,0,.44-.17.85-.48,1.16-.31.31-.72.48-1.16.48h0ZM74.21,36.01h0c-.47,0-.85.38-.85.85,0,.23.09.44.25.6s.37.25.6.25h0c.23,0,.44-.09.6-.25.16-.16.25-.37.25-.6,0-.23-.09-.44-.25-.6s-.37-.25-.6-.25Z" style="fill:#859cb3;"/><path d="M79.3,36.86c0,.69-.56,1.25-1.24,1.25s-1.25-.56-1.25-1.24c0-.69.56-1.25,1.24-1.25.69,0,1.25.56,1.25,1.24Z" style="fill:#fff;"/><path d="M78.06,38.5c-.44,0-.85-.17-1.16-.48-.31-.31-.48-.72-.48-1.16,0-.44.17-.85.48-1.16.31-.31.72-.48,1.16-.48h0c.9,0,1.64.73,1.64,1.64,0,.44-.17.85-.48,1.16-.31.31-.72.48-1.16.48h0ZM78.06,36.01h0c-.23,0-.44.09-.6.25-.16.16-.25.37-.25.6,0,.23.09.44.25.6s.37.25.6.25h0c.23,0,.44-.09.6-.25.16-.16.25-.37.25-.6,0-.47-.38-.85-.85-.85Z" style="fill:#859cb3;"/></g><g style="opacity:.33;"><line x1="104.27" y1="36.71" x2="144.26" y2="36.68" style="fill:#fff;"/><rect x="104.27" y="36.3" width="40" height=".79" style="fill:#859cb3;"/></g><g style="opacity:.33;"><line x1="134.76" y1="49.51" x2="171.25" y2="49.48" style="fill:#fff;"/><rect x="134.76" y="49.1" width="36.49" height=".79" style="fill:#859cb3;"/></g><g style="opacity:.33;"><line x1="153.98" y1="54.06" x2="171.25" y2="54.05" style="fill:#fff;"/><rect x="153.98" y="53.66" width="17.27" height=".79" style="fill:#859cb3;"/></g><g style="opacity:.33;"><line x1="73.87" y1="49.55" x2="89.36" y2="49.54" style="fill:#fff;"/><rect x="73.87" y="49.15" width="15.49" height=".79" style="fill:#859cb3;"/></g><rect x="73" y="60.89" width="29.21" height="45.02" rx="2.11" ry="2.11" style="fill:#fff;"/><path d="M75.13,106.32c-.67,0-1.29-.26-1.77-.73-.47-.47-.73-1.1-.73-1.77l-.03-40.81c0-.67.26-1.3.73-1.77.47-.47,1.1-.73,1.77-.73l24.99-.02h0c.67,0,1.3.26,1.77.73.47.47.73,1.1.73,1.77l.03,40.81c0,.67-.26,1.3-.73,1.77s-1.1.73-1.77.73l-24.99.02h0ZM100.09,61.27h0l-24.99.02c-.94,0-1.71.77-1.71,1.71l.03,40.81c0,.46.18.89.5,1.21.32.32.75.5,1.21.5h0l24.99-.02c.46,0,.89-.18,1.21-.5.32-.32.5-.75.5-1.21l-.03-40.81c0-.46-.18-.89-.5-1.21-.32-.32-.75-.5-1.21-.5Z" style="fill:#859cb3;"/><rect x="107.9" y="60.86" width="29.21" height="45.02" rx="2.11" ry="2.11" style="fill:#fff;"/><path d="M110.03,106.29c-1.38,0-2.5-1.12-2.5-2.5l-.03-40.81c0-1.38,1.12-2.5,2.5-2.5l24.99-.02h0c.67,0,1.3.26,1.77.73.47.47.73,1.1.73,1.77l.03,40.81c0,.67-.26,1.3-.73,1.77-.47.47-1.1.73-1.77.73l-24.99.02h0ZM134.98,61.25h0l-24.99.02c-.94,0-1.71.77-1.71,1.71l.03,40.81c0,.94.77,1.71,1.71,1.71h0l24.99-.02c.94,0,1.71-.77,1.71-1.71l-.03-40.81c0-.46-.18-.89-.5-1.21-.32-.32-.75-.5-1.21-.5Z" style="fill:#859cb3;"/><rect x="142.8" y="60.84" width="29.21" height="45.02" rx="2.11" ry="2.11" style="fill:#fff;"/><path d="M144.92,106.26c-.67,0-1.29-.26-1.77-.73-.47-.47-.73-1.1-.73-1.77l-.03-40.81c0-.67.26-1.3.73-1.77s1.1-.73,1.77-.73l24.99-.02h0c1.38,0,2.5,1.12,2.5,2.5l.03,40.81c0,.67-.26,1.3-.73,1.77-.47.47-1.1.73-1.77.73l-24.99.02h0ZM169.88,61.22h0l-24.99.02c-.46,0-.89.18-1.21.5-.32.32-.5.75-.5,1.21l.03,40.81c0,.46.18.89.5,1.21.32.32.75.5,1.21.5h0l24.99-.02c.46,0,.89-.18,1.21-.5s.5-.75.5-1.21l-.03-40.81c0-.94-.77-1.71-1.71-1.71Z" style="fill:#859cb3;"/><g style="mix-blend-mode:multiply; opacity:.11;"><path d="M161.08,105.39h-66.19c-1.78,0-3.23-1.45-3.22-3.24l.11-66.77c0-1.78,1.44-3.22,3.22-3.22l66.19-.05c1.78,0,3.23,1.45,3.23,3.23l-.11,66.83c0,1.78-1.45,3.22-3.22,3.22Z" style="fill:#fff;"/><path d="M161.08,105.79h-66.19c-.97,0-1.88-.38-2.56-1.07-.68-.68-1.06-1.59-1.06-2.56l.11-66.77c0-1.99,1.63-3.61,3.62-3.61l66.19-.05h0c.97,0,1.88.38,2.56,1.06.68.69,1.06,1.6,1.06,2.56l-.11,66.83c0,1.99-1.63,3.61-3.62,3.61ZM161.19,32.51h0l-66.19.05c-1.56,0-2.82,1.27-2.83,2.82l-.11,66.77c0,.76.29,1.47.83,2,.53.54,1.25.83,2,.83h66.19s0,0,0,0c1.56,0,2.83-1.27,2.83-2.82l.11-66.83c0-.76-.29-1.47-.83-2-.53-.54-1.25-.83-2-.83Z" style="fill:#859cb3;"/></g><rect x="86.21" y="16.03" width="73.21" height="84.68" rx="4.98" ry="4.98" transform="translate(.09 -.2) rotate(.09)" style="fill:#fff;"/><path d="M154.12,101.15h0l-62.73-.1c-1.5,0-2.92-.59-3.98-1.66-1.06-1.07-1.65-2.48-1.64-3.99l.12-74.2c0-3.1,2.53-5.62,5.63-5.62h0l62.73.1c1.5,0,2.92.59,3.98,1.66,1.06,1.07,1.65,2.48,1.64,3.99l-.12,74.2c0,1.5-.59,2.92-1.66,3.98-1.06,1.06-2.48,1.64-3.98,1.64ZM154.11,100.36h0c1.29,0,2.51-.5,3.42-1.41.92-.91,1.42-2.13,1.42-3.42l.12-74.2c0-1.29-.5-2.51-1.41-3.43-.91-.92-2.13-1.42-3.42-1.42l-62.73-.1h0c-2.67,0-4.84,2.17-4.84,4.84l-.12,74.2c0,1.29.5,2.51,1.41,3.43.91.92,2.13,1.42,3.42,1.42l62.73.1Z" style="fill:#859cb3;"/><circle cx="122.38" cy="43.59" r="19.71" style="fill:#fff;"/><path d="M122.38,63.69c-11.08,0-20.1-9.02-20.1-20.1s9.02-20.1,20.1-20.1,20.1,9.02,20.1,20.1-9.02,20.1-20.1,20.1ZM122.38,24.28c-10.65,0-19.31,8.66-19.31,19.31s8.66,19.31,19.31,19.31,19.31-8.66,19.31-19.31-8.66-19.31-19.31-19.31Z" style="fill:#859cb3;"/><circle cx="122.38" cy="43.59" r="22.58" style="fill:#e9f0f7;"/><path d="M122.38,66.44c-12.6,0-22.84-10.25-22.84-22.84s10.25-22.84,22.84-22.84,22.84,10.25,22.84,22.84-10.25,22.84-22.84,22.84ZM122.38,21.28c-12.31,0-22.32,10.01-22.32,22.32s10.01,22.32,22.32,22.32,22.32-10.01,22.32-22.32-10.01-22.32-22.32-22.32Z" style="fill:#859cb3;"/><g style="clip-path:url(#d);"><path d="M132.09,77.32c-4.54.11-9.12.08-13.66-.09-1.2-1.89-3.25-3.5-4.99-5.29-2.58-2.62-3.47-5.53-2.99-8.44.08-.65.2-1.3.34-1.95.44-1.95,1.13-2.34,1.72-4.3.27-.78,1.02-1.47,2-2.07,1.19-.76,2.74-1.38,4.37-1.8,6.12-1.63,13.88-.36,17.38,2.78.7.63,1.23,1.33,1.54,2.1.6,1.55.75,1.58.48,3.17-.09.53-.22,1.05-.4,1.58-1.51,4.4-3.43,8.74-5.15,13.12-.39.74-.65,1.19-.65,1.19Z" style="fill:#fff;"/><path d="M126.63,77.78c-2.77,0-5.52-.05-8.22-.15h-.21s-.11-.18-.11-.18c-.81-1.27-2.01-2.41-3.29-3.62-.56-.53-1.12-1.06-1.65-1.6-2.55-2.59-3.62-5.62-3.1-8.78.07-.61.19-1.26.35-1.97.25-1.1.57-1.71.9-2.37.27-.53.56-1.08.82-1.95.28-.82.99-1.57,2.17-2.29,1.15-.74,2.7-1.38,4.47-1.85,6.18-1.65,14.14-.36,17.74,2.86.76.68,1.32,1.44,1.64,2.24l.21.54c.46,1.14.53,1.4.3,2.84-.09.54-.23,1.1-.41,1.64-1.01,2.95-2.22,5.91-3.39,8.77-.59,1.45-1.19,2.91-1.76,4.37-.41.78-.67,1.24-.67,1.24l-.11.19h-.22c-1.83.05-3.65.07-5.46.07ZM118.65,76.85c4.31.16,8.75.19,13.21.08.11-.2.3-.54.53-.99.56-1.42,1.15-2.88,1.75-4.34,1.17-2.85,2.37-5.8,3.38-8.73.17-.5.3-1.01.38-1.51.21-1.27.16-1.4-.25-2.42l-.21-.54c-.28-.68-.76-1.34-1.44-1.94-3.43-3.07-11.06-4.28-17.01-2.69-1.7.45-3.17,1.05-4.26,1.75-1.01.62-1.63,1.24-1.84,1.86-.28.93-.58,1.51-.87,2.08-.31.61-.61,1.18-.83,2.18-.15.69-.26,1.31-.34,1.91-.49,2.96.48,5.68,2.88,8.11.53.54,1.08,1.06,1.63,1.58,1.2,1.14,2.44,2.31,3.3,3.59Z" style="fill:#859cb3;"/><g style="opacity:.33;"><path d="M123.4,58.97c-1.9,10.06.01,6.37,1.29,16.62" style="fill:#fff;"/><path d="M124.3,75.64c-.48-3.85-1.05-5.72-1.47-7.09-.72-2.34-1.01-3.31.18-9.65l.78.15c-1.16,6.15-.88,7.06-.2,9.27.43,1.39,1.01,3.3,1.5,7.22l-.78.1Z" style="fill:#859cb3;"/></g><g style="opacity:.33;"><line x1="125.57" y1="61.56" x2="126.86" y2="61.64" style="fill:#fff;"/><rect x="125.82" y="60.96" width=".79" height="1.29" transform="translate(56.69 183.63) rotate(-86.35)" style="fill:#859cb3;"/></g><path d="M122.55,50.03c0,.59-.05,1.2-.15,1.82-.03.26-.08.52-.14.78v-2.64c-2.01-.31-3.83-1.59-4.95-3.49-.47-.8-.82-1.71-1.01-2.68l-.38-2.14c.18.01.36.03.54.06.63.08,1.2.28,1.74.56.4.2.79.44,1.18.72,1.16.88,1.96,2.02,2.52,3.35.15.48.29.93.4,1.4.01.05.02.12.03.17.15.67.22,1.37.22,2.11Z" style="fill:#fff;"/><path d="M122.66,52.64h-.8v-2.31c-2-.41-3.77-1.71-4.89-3.63-.51-.85-.86-1.8-1.06-2.81l-.47-2.64.5.03c.19.01.39.03.58.07.62.08,1.23.28,1.85.6.39.19.79.44,1.23.74,1.17.89,2.03,2.04,2.65,3.52l.1.32c.12.39.23.76.32,1.15l.02.1c.17.77.24,1.49.24,2.25,0,.59-.05,1.22-.15,1.88-.03.24-.08.48-.12.72ZM116.41,42.13l.29,1.61c.18.91.5,1.77.96,2.55,1.03,1.75,2.66,2.94,4.49,3.28-.02-.54-.09-1.05-.2-1.56l.35-.25-.39.09c-.08-.37-.19-.72-.3-1.09l-.09-.28c-.55-1.31-1.34-2.35-2.38-3.15-.39-.27-.76-.5-1.12-.68-.55-.28-1.07-.45-1.61-.52,0,0,0,0,0,0Z" style="fill:#859cb3;"/><path d="M106.61,44.31c.61-.07,1.21-.18,1.8-.32-.42.29-.8.56-1.19.89-.25.21-.49.42-.75.65.03-.41.07-.83.13-1.23h.01Z" style="fill:#fff;"/><path d="M106,46.51l.08-1c.03-.42.08-.85.13-1.25l.05-.34h.33c.58-.07,1.17-.17,1.73-.31l1.99-.46-1.67,1.17c-.44.31-.8.56-1.16.87-.25.21-.49.42-.74.65l-.74.68Z" style="fill:#859cb3;"/><path d="M118.61,37.77c0,.35-.01.72-.04,1.08,0,.15-.01.31-.02.46-.02.49-.07,1-.13,1.52-.06.49-.14.98-.22,1.46-.24,1.44-.54,2.85-.88,4.2-.47-.8-.82-1.71-1.01-2.68l-.38-2.14c-.47-.05-.95-.07-1.42-.03-.13.01-.25.02-.38.04.56-.34,1.09-.71,1.61-1.11,1.06-.82,2.03-1.76,2.87-2.81Z" style="fill:#fff;"/><path d="M117.46,47.52l-.48-.82c-.51-.86-.86-1.8-1.06-2.81l-.33-1.85c-.39-.03-.73-.03-1.05,0-.12,0-.23.02-.35.04l-2.03.34,1.76-1.07c.55-.33,1.07-.69,1.57-1.08,1.06-.82,2.01-1.74,2.81-2.75l.7-.88v1.13c0,.36-.01.74-.04,1.12,0,.12,0,.29-.02.46-.02.48-.07.97-.12,1.48-.07.56-.15,1.05-.23,1.54-.25,1.48-.55,2.9-.89,4.23l-.24.92ZM115.51,41.24c.15,0,.3.02.46.04l.29.03.43,2.43c.11.56.27,1.11.49,1.62.23-1,.44-2.05.62-3.13.08-.48.16-.96.22-1.45.05-.53.1-1.01.12-1.48,0-.15.02-.29.02-.42-.66.72-1.4,1.39-2.2,2.01-.15.12-.31.24-.47.35Z" style="fill:#859cb3;"/><path d="M128.88,45.64c.13.15.26.28.42.41-.25-.2-.49-.43-.71-.68.09.09.19.19.28.27Z" style="fill:#fff;"/><path d="M129.06,46.36s0,0,0,0h0c-.28-.22-.54-.47-.76-.74l.58-.53c.09.09.18.18.27.26l.04.04c.11.13.23.25.37.36l-.49.62Z" style="fill:#859cb3;"/><path d="M129.35,46.09s.09.07.14.12c-.05-.03-.09-.06-.14-.11,0,0,.01,0,0-.01Z" style="fill:#fff;"/><path d="M132.06,48.22l-2.78-1.68c-.08-.05-.15-.1-.21-.16l-.67-.67h.95v.34l.24-.27c.05.04.12.1.18.15l2.3,2.3Z" style="fill:#859cb3;"/><path d="M131.01,32.93c.45,1.25.58,2.69.31,4.17l-.28,1.6c-.36.15-.69.33-1.02.54-1.22.79-2.09,1.99-2.31,3.14-.19.85-.03,1.65.39,2.35-1-1.45-1.47-3.39-.14-5.84.02-1.91.55-3.65,1.41-5.03.38-.62.84-1.18,1.35-1.63.65-.59,1.38-1.03,2.18-1.28-.46.78-1.11,1.45-1.88,2Z" style="fill:#fff;"/><path d="M127.77,44.94c-1.3-1.89-1.37-3.97-.21-6.17.04-1.89.54-3.66,1.47-5.14.39-.64.88-1.24,1.42-1.72.71-.65,1.5-1.11,2.32-1.37l.99-.31-.53.89c-.44.74-1.03,1.39-1.76,1.95.41,1.28.49,2.69.23,4.09l-.32,1.81-.2.08c-.33.14-.64.3-.96.5-1.12.73-1.94,1.83-2.13,2.88-.16.74-.05,1.43.34,2.07l-.66.43ZM130.58,32.9c-.32.35-.62.74-.87,1.15-.87,1.38-1.33,3.05-1.35,4.83l-.05.18c-.46.85-.71,1.67-.76,2.46.4-.99,1.22-1.96,2.25-2.63.29-.19.58-.35.88-.48l.25-1.39c.25-1.37.15-2.74-.29-3.97l-.06-.16Z" style="fill:#859cb3;"/><path d="M125.19,48.34v5.65c0,.81-.65,1.46-1.46,1.46s-1.46-.65-1.46-1.46v-5.65c0-.15.02-.28.06-.41.18-.6.74-1.05,1.4-1.05.81,0,1.46.66,1.46,1.46Z" style="fill:#fff;"/><path d="M123.73,55.85c-1.02,0-1.86-.83-1.86-1.86v-5.65c0-.19.03-.37.08-.54.23-.77.96-1.32,1.77-1.32,1.02,0,1.86.83,1.86,1.86v5.65c0,1.02-.83,1.86-1.86,1.86ZM123.73,47.27c-.47,0-.89.32-1.02.77-.03.1-.05.19-.05.3v5.65c0,.59.48,1.07,1.07,1.07s1.07-.48,1.07-1.07v-5.65c0-.59-.48-1.07-1.07-1.07Z" style="fill:#859cb3;"/><path d="M131.32,37.1l-.28,1.6c-.36.15-.69.33-1.02.54-1.22.79-2.09,1.99-2.31,3.14-.19.85-.03,1.65.39,2.35.01.02.03.05.04.07.09.12.18.23.26.34.05.08.13.17.2.24.09.09.19.19.28.27.06.07.13.15.2.21.06.07.15.14.22.2.01.01.02.02.04.03h0c-.91,1.79-2.42,3.11-4.16,3.66-.63.22-1.29.33-1.97.33-.22,0-.45-.01-.67-.04-.09,0-.19-.02-.28-.04-2.01-.31-3.83-1.59-4.95-3.49-.47-.8-.82-1.71-1.01-2.68l-.38-2.14-.19-1.09c1.06-.82,2.03-1.76,2.87-2.81,1-1.25,1.81-2.66,2.38-4.22.92.45,1.95.78,3.07.94,1.89.26,3.75,0,5.31-.64.38-.62.84-1.18,1.35-1.63.12.23.22.46.29.72.45,1.25.58,2.69.31,4.17Z" style="fill:#fff;"/><path d="M123.22,50.47c-.24,0-.49-.01-.73-.05-.08.01-.21-.02-.31-.05-2.11-.32-4.02-1.66-5.2-3.68-.51-.85-.86-1.8-1.06-2.81l-.61-3.47.19-.15c1.06-.82,2.01-1.74,2.81-2.74,1-1.25,1.78-2.63,2.32-4.11l.15-.41.39.19c.91.45,1.9.75,2.95.9,1.7.24,3.46.03,4.98-.57.38-.6.85-1.16,1.35-1.61l.38-.34.23.46c.11.22.23.48.32.78.48,1.33.59,2.85.31,4.35l-.32,1.81-.2.08c-.33.14-.64.3-.96.5-1.12.73-1.94,1.83-2.13,2.88-.16.74-.05,1.43.34,2.07l.28.37c.05.07.09.13.17.21.09.09.18.18.27.26.09.1.14.16.19.21.08.08.12.12.16.15l.08.07.22.11-.11.39c-.94,1.85-2.54,3.26-4.39,3.85-.65.23-1.36.34-2.09.34ZM116.17,40.75l.53,3c.18.91.5,1.77.96,2.55,1.06,1.81,2.76,3.02,4.67,3.31.09.02.17.04.22.04.26.03.47.04.67.04.64,0,1.26-.1,1.84-.3,1.57-.5,2.93-1.66,3.79-3.19-.02-.02-.05-.05-.07-.07-.05-.03-.13-.12-.2-.21-.06-.05-.16-.15-.26-.25-.11-.11-.19-.21-.26-.31l-.32-.45c-.47-.78-.62-1.69-.42-2.61.23-1.24,1.18-2.54,2.48-3.38.29-.19.58-.35.88-.48l.25-1.39c.25-1.37.15-2.74-.29-3.96-.02-.06-.04-.11-.06-.17-.33.35-.62.74-.88,1.16l-.07.11-.12.05c-1.7.7-3.61.93-5.51.67-.99-.14-1.93-.4-2.8-.79-.56,1.41-1.33,2.73-2.29,3.93-.79.99-1.72,1.91-2.75,2.73Z" style="fill:#859cb3;"/><path d="M120.72,38.92c-.06.74-2.86.62-2.79-.09" style="fill:#fff;"/><path d="M119.43,39.82c-.6,0-1.22-.13-1.55-.36-.33-.23-.35-.51-.34-.66l.79.07s.45.16,1.08.16c.6.02.89-.13.94-.19l.77.11c-.01.16-.1.46-.52.65-.3.14-.73.21-1.17.21Z" style="fill:#859cb3;"/><path d="M127.75,38.13c.08.74-2.68,1.16-2.76.45" style="fill:#fff;"/><path d="M125.87,39.33c-.31,0-.6-.04-.81-.13-.37-.16-.45-.43-.46-.58l.79-.08s.16.02.39.02c.18,0,.42-.01.71-.07.57-.11.85-.3.89-.36l.78-.04c.02.16,0,.47-.38.74-.43.32-1.22.51-1.89.51Z" style="fill:#859cb3;"/><path d="M122.26,40.48l-.2.29c-.34.48-.18,1.15.34,1.42l.15.08" style="fill:#fff;"/><path d="M122.36,42.61l-.15-.08c-.35-.18-.6-.51-.69-.89-.09-.38-.01-.78.21-1.11l.2-.29.64.46-.2.29c-.1.14-.13.3-.09.47.04.16.14.3.29.38l.15.08-.37.7Z" style="fill:#859cb3;"/><path d="M133.59,29.28c-7.14,9.89-9.61-.15-19.46,12.41,3.52-.47,2.07,8.3,8.14,8.3-1.33,23.94-36.81,11.03-13.85-6-21.27,2.69-20.78-14.76-2.04-20.01,3.97-1.81,10.16-3.74,13.5-.57,4.75-4.17,15.33-1.53,13.72,5.86Z" style="fill:#fff;"/><path d="M110.43,63.53c-4.22,0-8.11-2.14-9.54-5.47-1.75-4.07.49-8.95,6.17-13.53-9.83.89-14.17-2.71-14.94-6.5-.97-4.8,3.66-11.5,14.14-14.43,3.5-1.61,9.93-3.82,13.62-.71,2.85-2.27,7.6-2.5,10.99-.5,2.6,1.53,3.73,4.08,3.1,6.97l-.07.15c-3.47,4.8-5.92,5.05-8.52,5.31-2.78.28-5.66.57-10.48,6.51,1.24.32,1.81,1.83,2.4,3.41.85,2.28,1.82,4.85,4.95,4.86h.42l-.02.42c-.41,7.3-4.16,12.28-10.05,13.32-.73.13-1.46.19-2.18.19ZM109.86,43.41l-1.21.9c-6.18,4.58-8.74,9.48-7.03,13.44,1.51,3.51,6.28,5.62,10.86,4.81,5.39-.96,8.88-5.5,9.37-12.18-3.35-.22-4.41-3.06-5.27-5.36-.72-1.92-1.22-3.09-2.39-2.94l-.96.13.6-.76c5.31-6.78,8.6-7.11,11.49-7.41,2.51-.25,4.68-.48,7.91-4.92.71-3.43-1.41-5.26-2.74-6.04-3.17-1.87-7.81-1.58-10.34.64l-.27.24-.26-.25c-3.3-3.13-9.61-.94-13.07.64-10.09,2.83-14.54,9.08-13.64,13.54.73,3.62,5.18,7.03,15.47,5.72l1.5-.19Z" style="fill:#859cb3;"/><path d="M140.88,39.03c.35,7.7-8.86,11.14-12.79,5.68-2.28-3.5,2.91-4.87,3.22-7.62-1.86-9.84,10.13-7.1,9.57,1.94Z" style="fill:#fff;"/><path d="M133.3,47.78c-2.18,0-4.21-1-5.52-2.83-1.56-2.4,0-3.94,1.37-5.3.84-.83,1.64-1.61,1.77-2.54-.69-3.73.63-5.31,1.48-5.93,1.29-.93,3.18-.92,4.93.04,2.07,1.14,4.19,3.79,3.95,7.81.2,4.65-2.82,7.38-5.47,8.3-.84.29-1.68.43-2.51.43ZM134.65,31.28c-.67,0-1.29.18-1.79.54-1.21.88-1.62,2.73-1.16,5.21v.06s0,.06,0,.06c-.14,1.23-1.09,2.16-2.01,3.07-1.33,1.31-2.48,2.45-1.28,4.29,1.94,2.69,4.95,2.85,7.12,2.09,2.4-.83,5.14-3.31,4.94-7.54v-.02s0-.02,0-.02c.23-3.67-1.68-6.07-3.55-7.1-.77-.42-1.57-.64-2.3-.64Z" style="fill:#859cb3;"/><path d="M120.3,44.4c-.13-.02-.22.14-.13.24.5.61,1.87,2.55,3.15,2.55s2.41-2.17,2.97-2.94c.09-.12-.03-.28-.17-.23-.62.25-2.85-.15-2.86.64-.71-.8-2.37-.16-2.96-.25Z" style="fill:#fff;"/><path d="M123.31,47.58c-1.34,0-2.6-1.61-3.28-2.47l-.17-.22c-.14-.18-.16-.42-.05-.61.11-.19.33-.3.55-.26h0c.12.02.4-.02.67-.06.65-.09,1.48-.21,2.11.12.41-.32,1.2-.33,1.88-.34.36,0,.8-.01.96-.07.22-.09.48-.02.62.17.15.19.15.46,0,.66-.1.13-.21.31-.34.5-.68,1.04-1.71,2.6-2.95,2.6ZM120.78,44.78c.56.71,1.65,2.01,2.54,2.01.82,0,1.74-1.41,2.29-2.25.01-.02.02-.03.03-.05-.19.01-.39.01-.61.02-.41,0-1.25.02-1.39.17v1.02s-.68-.79-.68-.79c-.35-.4-1.17-.28-1.82-.18-.13.02-.25.04-.36.05ZM120.24,44.79s0,0,0,0c0,0,0,0,0,0h0ZM120.47,44.39h0s0,0,0,0Z" style="fill:#859cb3;"/><path d="M120.45,44.71s1.33,1.67,2.73,1.67,2.88-2.06,2.88-2.06c0,0-1.45.62-2.8.62s-2.8-.23-2.8-.23Z" style="fill:#fff;"/></g><rect x="99.45" y="70.91" width="47.35" height="15.85" style="fill:#fff;"/><path d="M147.2,87.15h-48.14v-16.64h48.14v16.64ZM99.85,86.36h46.56v-15.06h-46.56v15.06Z" style="fill:#859cb3;"/><rect x="100.4" y="87.35" width="45.46" height=".79" style="fill:#859cb3;"/><rect x="107.88" y="76.76" width=".79" height="5.27" style="fill:#859cb3;"/><rect x="105.64" y="79" width="5.27" height=".79" transform="translate(-25.49 67.83) rotate(-31.31)" style="fill:#859cb3;"/><rect x="107.88" y="76.76" width=".79" height="5.27" transform="translate(-15.8 130.69) rotate(-58.71)" style="fill:#859cb3;"/><rect x="117.66" y="76.76" width=".79" height="5.27" style="fill:#859cb3;"/><rect x="115.42" y="79" width="5.27" height=".79" transform="translate(-24.06 72.91) rotate(-31.31)" style="fill:#859cb3;"/><rect x="117.66" y="76.76" width=".79" height="5.27" transform="translate(-11.1 139.04) rotate(-58.71)" style="fill:#859cb3;"/><rect x="127.43" y="76.76" width=".79" height="5.27" style="fill:#859cb3;"/><rect x="125.19" y="79" width="5.27" height=".79" transform="translate(-22.64 77.99) rotate(-31.31)" style="fill:#859cb3;"/><rect x="127.43" y="76.76" width=".79" height="5.27" transform="translate(-6.4 147.4) rotate(-58.71)" style="fill:#859cb3;"/><rect x="137.21" y="76.76" width=".79" height="5.27" style="fill:#859cb3;"/><rect x="134.97" y="79" width="5.27" height=".79" transform="translate(-21.22 83.07) rotate(-31.31)" style="fill:#859cb3;"/><rect x="137.21" y="76.76" width=".79" height="5.27" transform="translate(-1.7 155.75) rotate(-58.71)" style="fill:#859cb3;"/><line x1="163.23" y1="15.12" x2="167.55" y2="15.17" style="fill:#fff;"/><rect x="164.99" y="12.99" width=".79" height="4.32" transform="translate(148.45 180.36) rotate(-89.38)" style="fill:#859cb3;"/><line x1="162.23" y1="12.59" x2="166.81" y2="8.1" style="fill:#fff;"/><rect x="161.31" y="9.95" width="6.42" height=".79" transform="translate(39.67 117.99) rotate(-44.37)" style="fill:#859cb3;"/><rect x="159.07" y="7.07" width=".79" height="4.32" style="fill:#859cb3;"/><path d="M153.41,92.94l-7.41-7.41c-.34-.34-.34-.88,0-1.22l1.76-1.76c.34-.34.88-.34,1.22,0l4.35,4.35c.34.34.9.34,1.23-.02l24.02-25.29c.33-.34.87-.36,1.22-.03l1.8,1.71c.34.33.36.87.03,1.22l-27,28.43c-.33.35-.89.36-1.23.02Z" style="fill:#e9f0f7;"/><path d="M154.02,93.46c-.3,0-.58-.12-.79-.33l-7.41-7.41c-.21-.21-.33-.49-.33-.8s.12-.58.33-.8l1.76-1.76c.42-.43,1.17-.43,1.59,0l4.35,4.35c.11.12.25.17.43.18.16,0,.31-.07.43-.19l24.02-25.29c.43-.45,1.14-.47,1.59-.04l1.8,1.71c.22.21.34.49.35.79,0,.3-.1.59-.31.8l-27,28.43c-.21.22-.49.35-.8.35h-.01ZM148.37,82.57c-.16,0-.31.06-.42.18l-1.76,1.76c-.11.11-.18.26-.18.42s.06.31.18.42l7.41,7.41c.11.12.25.17.43.18.16,0,.31-.07.43-.19l27-28.43c.11-.12.17-.27.16-.43s-.07-.31-.19-.42l-1.8-1.71c-.24-.23-.62-.22-.85.02l-24.02,25.29c-.21.22-.49.35-.8.35-.3.02-.59-.11-.81-.33l-4.35-4.35c-.11-.11-.26-.18-.42-.18Z" style="fill:#859cb3;"/><polygon points="60.75 99.31 13.26 90.92 30.25 60.27 60.75 48.98 60.75 99.31" style="fill:#fff;"/><path d="M61.14,99.78l-48.5-8.57,17.33-31.26,31.16-11.53v51.37ZM13.87,90.62l46.48,8.22v-49.29l-29.83,11.04-16.66,30.04Z" style="fill:#859cb3;"/><g style="clip-path:url(#h);"><g style="mix-blend-mode:multiply; opacity:.19;"><polygon points="59.89 60.39 5.09 60.39 5.09 88.26 43 88.26 46.07 92.77 49.28 88.26 59.89 88.26 59.89 60.39" style="fill:#fff;"/><path d="M46.06,93.46l-3.27-4.8H4.7v-28.66h55.59v28.66h-10.8l-3.42,4.8ZM5.49,87.87h37.72l2.87,4.21,3-4.21h10.42v-27.08H5.49v27.08Z" style="fill:#859cb3;"/></g></g><polygon points="55.97 56.17 .39 56.17 .39 84.44 .39 84.44 38.84 84.44 41.95 89.01 45.21 84.44 55.97 84.44 55.97 56.17" style="fill:#fff;"/><path d="M41.95,89.7l-3.31-4.87H0v-29.06h56.37v29.06h-10.95l-3.47,4.87ZM.79,84.05h38.26l2.91,4.28,3.05-4.28h10.57v-27.48H.79v27.48Z" style="fill:#859cb3;"/><rect x="26.96" y="68.92" width="24.4" height="8.17" style="fill:#fff;"/><path d="M51.76,77.49h-25.19v-8.96h25.19v8.96ZM27.36,76.7h23.61v-7.38h-23.61v7.38Z" style="fill:#859cb3;"/><rect x="27.45" y="77.21" width="23.43" height=".79" style="fill:#859cb3;"/><rect x="31.11" y="71.94" width=".79" height="2.71" style="fill:#859cb3;"/><line x1="32.67" y1="72.59" x2="30.35" y2="74" style="fill:#fff;"/><rect x="30.15" y="72.9" width="2.71" height=".79" transform="translate(-33.5 27.05) rotate(-31.31)" style="fill:#859cb3;"/><line x1="30.35" y1="72.59" x2="32.67" y2="74" style="fill:#fff;"/><rect x="31.11" y="71.94" width=".79" height="2.71" transform="translate(-47.49 62.16) rotate(-58.71)" style="fill:#859cb3;"/><rect x="36.15" y="71.94" width=".79" height="2.71" style="fill:#859cb3;"/><line x1="37.71" y1="72.59" x2="35.39" y2="74" style="fill:#fff;"/><rect x="35.19" y="72.9" width="2.71" height=".79" transform="translate(-32.77 29.67) rotate(-31.31)" style="fill:#859cb3;"/><line x1="35.39" y1="72.59" x2="37.71" y2="74" style="fill:#fff;"/><rect x="36.15" y="71.94" width=".79" height="2.71" transform="translate(-45.07 66.46) rotate(-58.71)" style="fill:#859cb3;"/><rect x="41.19" y="71.94" width=".79" height="2.71" style="fill:#859cb3;"/><line x1="42.75" y1="72.59" x2="40.43" y2="74" style="fill:#fff;"/><rect x="40.23" y="72.9" width="2.71" height=".79" transform="translate(-32.03 32.28) rotate(-31.31)" style="fill:#859cb3;"/><line x1="40.43" y1="72.59" x2="42.75" y2="74" style="fill:#fff;"/><rect x="41.19" y="71.94" width=".79" height="2.71" transform="translate(-42.65 70.76) rotate(-58.71)" style="fill:#859cb3;"/><rect x="46.23" y="71.94" width=".79" height="2.71" style="fill:#859cb3;"/><line x1="47.79" y1="72.59" x2="45.47" y2="74" style="fill:#fff;"/><rect x="45.27" y="72.9" width="2.71" height=".79" transform="translate(-31.3 34.9) rotate(-31.31)" style="fill:#859cb3;"/><line x1="45.47" y1="72.59" x2="47.79" y2="74" style="fill:#fff;"/><rect x="46.23" y="71.94" width=".79" height="2.71" transform="translate(-40.22 75.07) rotate(-58.71)" style="fill:#859cb3;"/><rect x="27.68" y="64.81" width="16.16" height=".79" style="fill:#859cb3;"/><rect x="27.68" y="62.31" width="10.46" height=".79" style="fill:#859cb3;"/><rect x="35.76" y="62.31" width="12.83" height=".79" style="fill:#859cb3;"/><path d="M13.36,79.36c-.24,0-.46-.09-.63-.25l-6.19-5.89c-.45-.43-.73-1-.8-1.62l-.98-8.67c-.04-.32.06-.64.26-.89.2-.25.5-.41.82-.44l3.18-.31c1.44-.14,2.9-.21,4.34-.21s2.9.07,4.34.21l3.18.31c.32.03.61.19.82.44.2.25.3.57.26.89l-.98,8.67c-.07.62-.35,1.19-.8,1.62l-6.19,5.89c-.17.16-.4.25-.63.25Z" style="fill:#fff;"/><path d="M13.36,79.75c-.34,0-.66-.13-.9-.36l-6.19-5.89c-.52-.49-.84-1.15-.92-1.86l-.98-8.67c-.05-.43.07-.85.35-1.19.27-.34.66-.54,1.09-.59l3.18-.32c2.9-.29,5.86-.29,8.76,0l3.18.32c.43.04.82.25,1.09.59.27.34.39.76.35,1.19l-.98,8.67c-.08.71-.41,1.37-.92,1.86l-6.19,5.89c-.24.23-.57.36-.9.36ZM13.36,61.45c-1.43,0-2.88.07-4.3.21l-3.18.32c-.22.02-.41.13-.55.3-.14.17-.2.38-.18.6l.98,8.67c.06.52.3,1.01.68,1.38l6.19,5.89c.2.19.52.19.72,0l6.19-5.89c.38-.36.62-.85.68-1.38l.98-8.67c.02-.22-.04-.43-.18-.6-.14-.17-.33-.28-.55-.3l-3.18-.32c-1.43-.14-2.87-.21-4.3-.21Z" style="fill:#859cb3;"/><path d="M13.36,61.6c1.43,0,2.86.07,4.29.21l3.18.31c.37.04.64.37.59.73l-.98,8.67c-.06.49-.28.94-.64,1.28l-6.19,5.89c-.07.07-.16.1-.26.1s-.19-.03-.26-.1l-6.19-5.89c-.36-.34-.58-.79-.64-1.28l-.98-8.67c-.04-.37.23-.7.59-.73l3.18-.31c1.43-.14,2.86-.21,4.29-.21M13.36,60.24c-1.5,0-3.03.08-4.52.22l-3.27.32c-.48.05-.92.28-1.22.66s-.44.85-.39,1.33l1,8.92c.09.76.44,1.48,1,2.01l6.37,6.06c.28.27.65.41,1.04.41s.76-.15,1.04-.41l6.37-6.06c.56-.53.91-1.24,1-2.01l1-8.92c.05-.48-.08-.96-.39-1.33-.31-.38-.74-.61-1.22-.66l-3.27-.32c-1.5-.15-3.02-.22-4.52-.22h0Z" style="fill:#fff;"/><path d="M13.36,80.58c-.49,0-.95-.19-1.31-.52l-6.37-6.06c-.62-.59-1.02-1.39-1.12-2.25l-1-8.92c-.07-.59.1-1.17.47-1.63.37-.46.9-.75,1.49-.8l3.27-.32c3.03-.3,6.1-.3,9.12,0l3.27.32c.59.06,1.12.34,1.49.8.37.46.54,1.04.47,1.63l-1,8.92c-.1.86-.49,1.65-1.12,2.25l-6.37,6.06c-.35.34-.82.52-1.31.52ZM13.36,60.63c-1.49,0-3,.07-4.48.22l-3.27.32c-.38.04-.72.22-.95.51-.24.3-.35.67-.3,1.04l1,8.92c.08.67.39,1.3.88,1.76l6.37,6.06c.41.39,1.11.39,1.53,0l6.37-6.06c.49-.47.8-1.09.88-1.76l1-8.92c.04-.38-.07-.75-.3-1.04-.24-.29-.58-.48-.95-.51l-3.27-.32c-1.49-.15-3-.22-4.48-.22ZM13.36,79.21c-.2,0-.39-.08-.53-.21l-6.19-5.89c-.42-.4-.69-.94-.76-1.53l-.98-8.67c-.03-.28.05-.56.23-.78.18-.22.43-.36.72-.39l3.18-.32c2.86-.28,5.79-.28,8.65,0l3.18.32c.28.03.54.17.72.39.18.22.26.5.23.78l-.98,8.67c-.07.58-.33,1.12-.76,1.53l-6.19,5.89c-.14.14-.33.21-.53.21ZM13.36,62c-1.41,0-2.84.07-4.25.21l-3.18.32c-.07,0-.14.04-.18.1-.05.06-.07.13-.06.2l.98,8.67c.04.4.23.77.52,1.04l6.19,5.89,6.16-5.89c.29-.28.47-.65.52-1.04l.98-8.67c0-.07-.01-.14-.06-.2-.05-.06-.11-.09-.18-.1l-3.18-.32c-1.4-.14-2.83-.21-4.25-.21Z" style="fill:#859cb3;"/><path d="M13.1,78.71l-6.18-5.89c-.36-.34-.59-.81-.65-1.3l-.98-8.66c-.04-.37.23-.7.59-.73l3.18-.31c2.85-.28,5.72-.28,8.58,0l3.18.31c.37.04.64.37.59.73l-.98,8.66c-.06.5-.28.96-.65,1.3l-6.18,5.89c-.14.14-.37.14-.51,0Z" style="fill:#fff;"/><path d="M13.36,79.21c-.19,0-.38-.07-.53-.21l-6.18-5.89c-.43-.41-.7-.96-.77-1.54l-.98-8.66c-.03-.28.05-.56.23-.78.18-.22.43-.36.72-.39l3.18-.32c2.87-.28,5.78-.28,8.65,0l3.18.32c.28.03.54.17.72.39.18.22.26.5.23.78l-.98,8.66c-.07.59-.34,1.14-.77,1.54l-6.18,5.89c-.15.14-.34.21-.53.21ZM13.37,78.43h0s0,0,0,0ZM13.36,62c-1.42,0-2.84.07-4.25.21l-3.18.32c-.07,0-.14.04-.18.1-.05.06-.07.13-.06.2l.98,8.66c.05.4.23.78.53,1.06l6.17,5.87,6.17-5.87c.29-.28.48-.66.53-1.06l.98-8.66c0-.07-.01-.14-.06-.2-.05-.06-.11-.09-.18-.1l-3.18-.32c-1.41-.14-2.83-.21-4.25-.21Z" style="fill:#859cb3;"/><polyline points="10.66 68.09 13.18 70.61 22.63 60.65" style="fill:#fff;"/><polygon points="13.19 71.17 10.38 68.37 10.94 67.81 13.17 70.04 22.35 60.38 22.92 60.93 13.19 71.17" style="fill:#859cb3;"/><circle cx="122.55" cy="42.79" r="19.71" style="fill:#fff;"/><circle cx="122.55" cy="42.79" r="22.58" style="fill:#e9f0f7;"/><g style="clip-path:url(#j);"><path d="M132.26,76.52c-4.54.11-9.12.08-13.66-.09-1.2-1.89-3.25-3.5-4.99-5.29-2.58-2.62-3.47-5.53-2.99-8.44.08-.65.2-1.3.34-1.95.44-1.95,1.13-2.34,1.72-4.3.27-.78,1.02-1.47,2-2.07,1.19-.76,2.74-1.38,4.37-1.8,6.12-1.63,13.88-.36,17.38,2.78.7.63,1.23,1.33,1.54,2.1.6,1.55.75,1.58.48,3.17-.09.53-.22,1.05-.4,1.58-1.51,4.4-3.43,8.74-5.15,13.12-.39.74-.65,1.19-.65,1.19Z" style="fill:#fff;"/><path d="M126.8,76.98c-2.77,0-5.52-.05-8.22-.15h-.21s-.11-.18-.11-.18c-.81-1.27-2.01-2.41-3.29-3.62-.56-.53-1.12-1.06-1.65-1.61-2.55-2.58-3.62-5.62-3.1-8.78.07-.61.19-1.26.35-1.97.25-1.1.57-1.71.9-2.37.27-.53.56-1.08.82-1.95.28-.82.99-1.57,2.17-2.29,1.15-.74,2.7-1.38,4.47-1.85,6.18-1.65,14.14-.37,17.74,2.86.76.68,1.32,1.44,1.64,2.24l.21.54c.46,1.14.53,1.4.3,2.84-.09.54-.23,1.1-.41,1.64-1.01,2.95-2.22,5.91-3.4,8.78-.59,1.45-1.19,2.9-1.76,4.36-.41.78-.67,1.24-.67,1.24l-.11.19h-.22c-1.83.05-3.65.07-5.46.07ZM118.81,76.05c4.31.16,8.75.19,13.21.08.11-.2.3-.54.53-.99.55-1.42,1.15-2.88,1.74-4.33,1.17-2.85,2.37-5.81,3.38-8.73.17-.5.3-1.01.38-1.51.21-1.27.16-1.4-.25-2.42l-.21-.54c-.28-.68-.76-1.34-1.44-1.94-3.43-3.07-11.06-4.28-17.01-2.69-1.7.45-3.17,1.05-4.26,1.75-1.01.62-1.63,1.24-1.84,1.86-.28.93-.58,1.51-.87,2.08-.31.61-.61,1.18-.83,2.18-.15.69-.26,1.31-.34,1.91-.49,2.96.48,5.68,2.88,8.11.53.54,1.08,1.06,1.63,1.58,1.2,1.14,2.44,2.31,3.3,3.59Z" style="fill:#859cb3;"/><g style="opacity:.33;"><path d="M123.57,58.17c-1.9,10.06.01,6.37,1.29,16.62" style="fill:#fff;"/><path d="M124.46,74.84c-.48-3.85-1.05-5.72-1.47-7.09-.72-2.34-1.01-3.31.18-9.65l.78.15c-1.16,6.15-.88,7.06-.2,9.27.43,1.39,1.01,3.3,1.5,7.22l-.78.1Z" style="fill:#859cb3;"/></g><g style="opacity:.33;"><line x1="125.74" y1="60.76" x2="127.02" y2="60.84" style="fill:#fff;"/><rect x="125.98" y="60.16" width=".79" height="1.29" transform="translate(57.64 183.05) rotate(-86.35)" style="fill:#859cb3;"/></g><path d="M122.72,49.23c0,.59-.05,1.2-.15,1.82-.03.26-.08.52-.14.78v-2.64c-2.01-.31-3.83-1.59-4.95-3.49-.47-.8-.82-1.71-1.01-2.68l-.38-2.14c.18.01.36.03.54.06.63.08,1.2.28,1.74.56.4.2.79.44,1.18.72,1.16.88,1.96,2.02,2.52,3.35.15.48.29.93.4,1.4.01.05.02.12.03.17.15.67.22,1.37.22,2.11Z" style="fill:#fff;"/><path d="M122.83,51.84h-.8v-2.31c-2-.41-3.77-1.71-4.89-3.63-.51-.85-.86-1.8-1.06-2.81l-.47-2.64.5.03c.19.01.39.03.58.07.62.08,1.23.28,1.85.6.39.19.79.44,1.23.74,1.17.89,2.03,2.04,2.65,3.52l.1.32c.12.39.23.76.32,1.15l.02.1c.17.77.24,1.49.24,2.25,0,.59-.05,1.22-.15,1.88-.03.24-.08.48-.12.72ZM116.58,41.33l.29,1.61c.18.91.5,1.77.96,2.55,1.03,1.75,2.66,2.94,4.49,3.28-.02-.54-.09-1.05-.2-1.56l.35-.25-.39.09c-.08-.37-.19-.72-.3-1.09l-.09-.28c-.55-1.31-1.34-2.35-2.38-3.15-.39-.27-.76-.5-1.12-.68-.55-.28-1.07-.45-1.61-.52,0,0,0,0,0,0Z" style="fill:#859cb3;"/><path d="M106.78,43.51c.61-.07,1.21-.18,1.8-.32-.42.29-.8.56-1.19.89-.25.21-.49.42-.75.65.03-.41.07-.83.13-1.23h.01Z" style="fill:#fff;"/><path d="M106.17,45.71l.08-1c.03-.42.08-.85.13-1.25l.05-.34h.33c.58-.07,1.17-.17,1.73-.31l1.99-.46-1.67,1.17c-.44.31-.8.56-1.16.87-.25.21-.49.42-.74.65l-.74.68Z" style="fill:#859cb3;"/><path d="M118.78,36.97c0,.35-.01.72-.04,1.08,0,.15-.01.31-.02.46-.02.49-.07,1-.13,1.52-.06.49-.14.98-.22,1.46-.24,1.44-.54,2.85-.88,4.2-.47-.8-.82-1.71-1.01-2.68l-.38-2.14c-.47-.05-.95-.07-1.42-.03-.13.01-.25.02-.38.04.56-.34,1.09-.71,1.61-1.11,1.06-.82,2.03-1.76,2.87-2.81Z" style="fill:#fff;"/><path d="M117.63,46.72l-.48-.82c-.51-.86-.86-1.8-1.06-2.81l-.33-1.85c-.39-.03-.73-.03-1.05,0-.12,0-.23.02-.35.04l-2.03.34,1.76-1.07c.55-.33,1.07-.69,1.57-1.08,1.06-.82,2.01-1.74,2.81-2.75l.7-.88v1.13c0,.36-.01.74-.04,1.12,0,.12,0,.29-.02.46-.02.48-.07.97-.12,1.48-.07.56-.15,1.05-.23,1.54-.25,1.48-.55,2.9-.89,4.23l-.24.92ZM115.68,40.44c.15,0,.3.02.46.04l.29.03.43,2.43c.11.56.27,1.11.49,1.62.23-1,.44-2.05.62-3.13.08-.48.16-.96.22-1.45.05-.53.1-1.01.12-1.48,0-.15.02-.29.02-.42-.66.72-1.4,1.39-2.2,2.01-.15.12-.31.24-.47.35Z" style="fill:#859cb3;"/><path d="M129.05,44.84c.13.15.26.28.42.41-.25-.2-.49-.43-.71-.68.09.09.19.19.28.27Z" style="fill:#fff;"/><path d="M129.23,45.56s0,0,0,0h0c-.28-.22-.54-.47-.76-.74l.58-.53c.09.09.18.18.27.26l.04.04c.11.13.23.25.37.36l-.49.62Z" style="fill:#859cb3;"/><path d="M129.52,45.29s.09.07.14.12c-.05-.03-.09-.06-.14-.11,0,0,.01,0,0-.01Z" style="fill:#fff;"/><path d="M132.23,47.42l-2.78-1.68c-.08-.05-.15-.1-.21-.16l-.67-.67h.95v.34l.24-.27c.05.04.12.1.18.15l2.3,2.3Z" style="fill:#859cb3;"/><path d="M131.18,32.13c.45,1.25.58,2.69.31,4.17l-.28,1.6c-.36.15-.69.33-1.02.54-1.22.79-2.09,1.99-2.31,3.14-.19.85-.03,1.65.39,2.35-1-1.45-1.47-3.39-.14-5.84.02-1.91.55-3.65,1.41-5.03.38-.62.84-1.18,1.35-1.63.65-.59,1.38-1.03,2.18-1.28-.46.78-1.11,1.45-1.88,2Z" style="fill:#fff;"/><path d="M127.94,44.14c-1.3-1.89-1.37-3.97-.21-6.17.04-1.89.54-3.66,1.47-5.14.39-.64.88-1.24,1.42-1.72.71-.65,1.5-1.11,2.32-1.37l.99-.31-.53.89c-.44.74-1.03,1.39-1.76,1.95.41,1.28.49,2.69.23,4.09l-.32,1.81-.2.08c-.33.14-.64.3-.96.5-1.12.73-1.94,1.83-2.13,2.88-.16.74-.05,1.43.34,2.07l-.66.43ZM130.75,32.1c-.32.35-.62.74-.87,1.15-.87,1.38-1.33,3.05-1.35,4.83l-.05.18c-.46.85-.71,1.67-.76,2.46.4-.99,1.22-1.96,2.25-2.63.29-.19.58-.35.88-.48l.25-1.39c.25-1.37.15-2.74-.29-3.97l-.06-.16Z" style="fill:#859cb3;"/><path d="M125.36,47.54v5.65c0,.81-.65,1.46-1.46,1.46s-1.46-.65-1.46-1.46v-5.65c0-.15.02-.28.06-.41.18-.6.74-1.05,1.4-1.05.81,0,1.46.66,1.46,1.46Z" style="fill:#fff;"/><path d="M123.89,55.05c-1.02,0-1.86-.83-1.86-1.86v-5.65c0-.19.03-.37.08-.54.23-.77.96-1.32,1.77-1.32,1.02,0,1.86.83,1.86,1.86v5.65c0,1.02-.83,1.86-1.86,1.86ZM123.89,46.47c-.47,0-.89.32-1.02.77-.03.1-.05.19-.05.3v5.65c0,.59.48,1.07,1.07,1.07s1.07-.48,1.07-1.07v-5.65c0-.59-.48-1.07-1.07-1.07Z" style="fill:#859cb3;"/><path d="M131.48,36.3l-.28,1.6c-.36.15-.69.33-1.02.54-1.22.79-2.09,1.99-2.31,3.14-.19.85-.03,1.65.39,2.35.01.02.03.05.04.07.09.12.18.23.26.34.05.08.13.17.2.24.09.09.19.19.28.27.06.07.13.15.2.21.06.07.15.14.22.2.01.01.02.02.04.03h0c-.91,1.79-2.42,3.11-4.16,3.66-.63.22-1.29.33-1.97.33-.22,0-.45-.01-.67-.04-.09,0-.19-.02-.28-.04-2.01-.31-3.83-1.59-4.95-3.49-.47-.8-.82-1.71-1.01-2.68l-.38-2.14-.19-1.09c1.06-.82,2.03-1.76,2.87-2.81,1-1.25,1.81-2.66,2.38-4.22.92.45,1.95.78,3.07.94,1.89.26,3.75,0,5.31-.64.38-.62.84-1.18,1.35-1.63.12.23.22.46.29.72.45,1.25.58,2.69.31,4.17Z" style="fill:#fff;"/><path d="M123.39,49.67c-.24,0-.49-.01-.73-.05-.09.01-.21-.02-.31-.05-2.11-.32-4.02-1.66-5.2-3.68-.51-.85-.86-1.8-1.06-2.81l-.61-3.47.19-.15c1.06-.82,2.01-1.74,2.81-2.74,1-1.25,1.78-2.63,2.32-4.11l.15-.41.39.19c.91.45,1.9.75,2.95.9,1.7.24,3.46.03,4.98-.57.38-.6.85-1.16,1.35-1.61l.38-.34.23.46c.11.22.23.48.32.78.48,1.33.59,2.85.31,4.35l-.32,1.81-.2.08c-.33.14-.64.3-.96.5-1.12.73-1.94,1.83-2.13,2.88-.16.74-.05,1.43.34,2.07l.28.37c.05.07.09.13.17.21.09.09.18.18.27.26.09.1.14.16.19.21.08.08.12.12.16.15l.08.07.22.11-.11.39c-.94,1.85-2.54,3.26-4.39,3.85-.65.23-1.36.34-2.09.34ZM116.33,39.95l.53,3c.18.91.5,1.77.96,2.55,1.06,1.81,2.76,3.02,4.67,3.31.09.02.17.04.22.04.26.03.47.04.67.04.64,0,1.26-.1,1.84-.3,1.57-.5,2.93-1.66,3.79-3.19-.02-.02-.05-.05-.07-.07-.05-.03-.13-.12-.2-.21-.06-.05-.16-.15-.26-.25-.11-.11-.19-.21-.26-.31l-.32-.45c-.47-.78-.62-1.69-.42-2.61.23-1.24,1.18-2.54,2.48-3.38.29-.19.58-.35.88-.48l.25-1.39c.25-1.37.15-2.74-.29-3.96-.02-.06-.04-.11-.06-.17-.33.35-.62.74-.88,1.16l-.07.11-.12.05c-1.7.7-3.61.93-5.51.67-.99-.14-1.93-.4-2.8-.79-.56,1.41-1.33,2.73-2.29,3.93-.79.99-1.72,1.91-2.75,2.73Z" style="fill:#859cb3;"/><path d="M120.89,38.12c-.06.74-2.86.62-2.79-.09" style="fill:#fff;"/><path d="M119.6,39.02c-.6,0-1.22-.13-1.55-.36-.33-.23-.35-.51-.34-.66l.79.07h0s.45.16,1.08.16c.58.01.89-.13.94-.19l.77.11c-.01.16-.1.46-.52.65-.3.14-.73.21-1.17.21Z" style="fill:#859cb3;"/><path d="M127.91,37.33c.08.74-2.68,1.16-2.76.45" style="fill:#fff;"/><path d="M126.03,38.54c-.31,0-.6-.04-.81-.13-.37-.16-.45-.43-.46-.58l.79-.08s.16.02.39.02c.18,0,.42-.01.71-.07.57-.11.85-.3.89-.36l.78-.04c.02.16,0,.47-.38.74-.43.32-1.22.51-1.89.51Z" style="fill:#859cb3;"/><path d="M122.43,39.68l-.2.29c-.34.48-.18,1.15.34,1.42l.15.08" style="fill:#fff;"/><path d="M122.53,41.81l-.15-.08c-.35-.18-.6-.51-.69-.89-.09-.38-.01-.78.21-1.11l.2-.29.64.46-.2.29c-.1.14-.13.3-.09.47.04.16.14.3.29.38l.15.08-.37.7Z" style="fill:#859cb3;"/><path d="M133.76,28.48c-7.14,9.89-9.61-.15-19.46,12.41,3.52-.47,2.07,8.3,8.14,8.3-1.33,23.94-36.81,11.03-13.85-6-21.27,2.69-20.78-14.76-2.04-20.01,3.97-1.81,10.16-3.74,13.5-.57,4.75-4.17,15.33-1.53,13.72,5.86Z" style="fill:#fff;"/><path d="M110.59,62.73c-4.22,0-8.11-2.14-9.54-5.47-1.75-4.07.49-8.95,6.17-13.53-9.83.88-14.17-2.71-14.94-6.5-.97-4.8,3.66-11.49,14.14-14.43,3.5-1.6,9.93-3.82,13.62-.71,2.85-2.27,7.6-2.5,10.99-.5,2.6,1.53,3.73,4.08,3.1,6.97l-.07.15c-3.47,4.8-5.92,5.05-8.52,5.31-2.78.28-5.66.57-10.48,6.51,1.24.32,1.81,1.83,2.4,3.41.85,2.28,1.82,4.85,4.95,4.86h.42l-.02.42c-.41,7.3-4.16,12.28-10.05,13.32-.73.13-1.46.19-2.18.19ZM110.02,42.61l-1.21.9c-6.18,4.58-8.74,9.48-7.03,13.44,1.51,3.51,6.29,5.62,10.86,4.81,5.39-.96,8.88-5.5,9.37-12.18-3.35-.22-4.41-3.06-5.27-5.36-.72-1.92-1.22-3.09-2.39-2.94l-.96.13.6-.76c5.31-6.78,8.6-7.11,11.49-7.41,2.51-.25,4.68-.48,7.91-4.92.71-3.43-1.41-5.26-2.74-6.04-3.17-1.87-7.81-1.58-10.34.64l-.27.24-.26-.25c-3.3-3.13-9.6-.94-13.07.64-10.09,2.83-14.54,9.08-13.64,13.54.73,3.62,5.18,7.02,15.47,5.72l1.5-.19Z" style="fill:#859cb3;"/><path d="M141.05,38.23c.35,7.7-8.86,11.14-12.79,5.68-2.28-3.5,2.91-4.87,3.22-7.62-1.86-9.84,10.13-7.1,9.57,1.94Z" style="fill:#fff;"/><path d="M133.47,46.98c-2.18,0-4.21-1-5.52-2.83-1.56-2.4,0-3.94,1.37-5.3.84-.83,1.64-1.61,1.77-2.54-.69-3.73.63-5.31,1.48-5.93,1.29-.94,3.18-.92,4.93.04,2.07,1.14,4.19,3.79,3.95,7.81.2,4.65-2.82,7.38-5.47,8.3-.84.29-1.68.43-2.51.43ZM134.81,30.48c-.67,0-1.29.18-1.79.54-1.21.88-1.62,2.73-1.16,5.21v.06s0,.06,0,.06c-.14,1.23-1.09,2.16-2.01,3.07-1.33,1.31-2.48,2.45-1.28,4.29,1.94,2.69,4.95,2.85,7.12,2.09,2.4-.83,5.14-3.31,4.94-7.54v-.02s0-.02,0-.02c.23-3.67-1.68-6.07-3.55-7.1-.77-.42-1.57-.64-2.3-.64Z" style="fill:#859cb3;"/><path d="M120.46,43.6c-.13-.02-.22.14-.13.24.5.61,1.87,2.55,3.15,2.55s2.41-2.17,2.97-2.94c.09-.12-.03-.28-.17-.23-.62.25-2.85-.15-2.86.64-.71-.8-2.37-.16-2.96-.25Z" style="fill:#fff;"/><path d="M123.48,46.78c-1.34,0-2.6-1.61-3.28-2.47l-.17-.22c-.14-.18-.16-.42-.05-.61.11-.2.33-.3.55-.26h0c.12.02.4-.02.67-.06.65-.09,1.48-.21,2.11.12.41-.32,1.2-.33,1.88-.34.36,0,.8-.01.96-.07.22-.09.48-.02.62.17.15.19.15.46.01.65-.1.13-.21.31-.34.5-.68,1.04-1.71,2.6-2.95,2.6ZM120.94,43.98c.56.71,1.65,2.01,2.54,2.01.82,0,1.74-1.41,2.29-2.24.01-.02.02-.03.03-.05-.19.01-.39.01-.61.02-.41,0-1.25.02-1.39.17v1.02s-.68-.79-.68-.79c-.35-.4-1.17-.28-1.82-.18-.13.02-.25.04-.36.05ZM120.4,43.99s0,0,0,0c0,0,0,0,0,0h0ZM120.64,43.59h0s0,0,0,0Z" style="fill:#859cb3;"/><path d="M120.62,43.91s1.33,1.67,2.73,1.67,2.88-2.06,2.88-2.06c0,0-1.45.62-2.8.62s-2.8-.23-2.8-.23Z" style="fill:#fff;"/></g><circle cx="122.55" cy="42.79" r="19.71" style="fill:none; stroke:#859cb3; stroke-miterlimit:10; stroke-width:.75px;"/><circle cx="122.55" cy="42.79" r="22.58" style="fill:none; stroke:#859cb3; stroke-miterlimit:10; stroke-width:.5px;"/></g></g></g></svg>