<svg id="Layer_2" data-name="Layer 2" xmlns="http://www.w3.org/2000/svg" xmlns:xlink="http://www.w3.org/1999/xlink" viewBox="0 0 400 400"><defs><style>.cls-1{fill:none;}.cls-2{clip-path:url(#clip-path);}.cls-3{fill:#bec8d2;}.cls-4{fill:#f2f4f6;}.cls-5{fill:#cacfd2;}.cls-6{fill:#f08e8c;}.cls-7{fill:#dee3e8;}</style><clipPath id="clip-path"><rect class="cls-1" width="400" height="400"/></clipPath></defs><g class="cls-2"><path class="cls-3" d="M56.66,266.87q-.09-.51-.15-1l.51-.07c0,.34.09.67.14,1Z"/><path class="cls-3" d="M128.76,317q-1,0-2.07,0v-.51c.68,0,1.37,0,2.06,0Zm2.06,0v-.52l2.06,0,0,.51Zm-6.19-.1c-.7,0-1.38-.07-2.07-.12l0-.51c.68.05,1.36.08,2.05.11Zm10.32,0,0-.51,2.06-.12,0,.51Zm-14.45-.24-2-.2,0-.51c.68.07,1.36.14,2,.19Zm18.57,0,0-.51,2.05-.19,0,.51Zm4.11-.41-.06-.51,2-.25.07.51Zm-26.78,0c-.69-.08-1.37-.18-2.05-.28l.08-.51,2,.28Zm30.87-.52-.07-.51,2-.32.08.51Zm-35-.1-2-.38.1-.51c.67.14,1.34.26,2,.38Zm39-.56-.09-.51,2-.37.1.5Zm-43.09-.25-2-.48.13-.5c.66.17,1.32.32,2,.48Zm47.14-.53-.1-.5,2-.43.11.5Zm-51.15-.48c-.66-.18-1.33-.38-2-.58l.15-.49c.65.2,1.31.39,2,.57Zm55.19-.4-.12-.5,2-.48.12.5Zm-59.14-.81c-.66-.22-1.31-.44-2-.68l.18-.48c.63.23,1.28.46,1.94.68Zm63.15-.18-.13-.49,2-.53.13.5Zm4-1.08-.14-.49,2-.58.15.5Zm-71-.15q-1-.37-1.92-.78l.21-.48c.62.27,1.25.53,1.9.78Zm75-1-.16-.49,2-.62.15.49Zm-78.78-.6c-.63-.29-1.25-.58-1.86-.89l.23-.46c.6.3,1.22.6,1.85.88Zm82.7-.66-.16-.49,1.95-.65.17.48C176.62,308.45,176,308.67,175.31,308.88Zm-86.4-1.17c-.62-.32-1.22-.65-1.82-1l.26-.45q.89.51,1.8,1Zm90.31-.17-.17-.48,1.93-.7.18.49Zm3.87-1.41-.18-.48,1.93-.74.18.48Zm-97.78-.45c-.6-.36-1.18-.73-1.75-1.1l.28-.43c.57.37,1.15.73,1.73,1.09Zm101.63-1-.19-.48,1.91-.77.2.48Zm-105.1-1.21c-.58-.39-1.14-.79-1.69-1.2l.31-.41c.54.4,1.1.8,1.67,1.19Zm108.92-.35-.19-.47,1.89-.8.2.47Zm3.8-1.62-.21-.47,1.88-.83.21.47ZM78.5,301c-.54-.43-1.08-.86-1.61-1.3l.33-.39,1.6,1.29Zm119.82-1.2-.21-.47,1.17-.54.7-.32.22.46-.7.33Zm-123-1.45c-.52-.46-1-.92-1.53-1.39l.35-.38c.5.47,1,.93,1.52,1.39ZM202.06,298l-.23-.47c.62-.3,1.23-.61,1.83-.92l.24.46Zm3.67-1.9-.25-.45,1.8-1,.25.45C206.94,295.46,206.33,295.79,205.73,296.12Zm-133.41-.63c-.49-.49-1-1-1.44-1.49l.38-.35c.46.5.94,1,1.42,1.48Zm137-1.4-.26-.45c.59-.35,1.18-.7,1.76-1.06l.27.44C210.5,293.38,209.92,293.74,209.32,294.09ZM69.5,292.47c-.46-.53-.91-1.05-1.34-1.58l.4-.33c.43.53.87,1.05,1.32,1.57Zm143.33-.56-.28-.43c.58-.37,1.15-.75,1.72-1.13l.29.43Zm3.43-2.31-.3-.42c.56-.39,1.12-.79,1.67-1.2l.3.42Zm-149.38-.33c-.43-.56-.84-1.11-1.23-1.67l.42-.3c.39.55.8,1.1,1.21,1.65Zm152.7-2.12-.31-.4,1.62-1.27.32.4ZM64.47,285.89q-.57-.87-1.11-1.74l.44-.27c.35.58.72,1.15,1.1,1.73Zm158.34-1.32-.34-.4,1.57-1.33.34.39Zm-160.5-2.2c-.34-.61-.67-1.22-1-1.83l.45-.23c.31.6.64,1.2,1,1.8Zm163.61-.52-.35-.38c.51-.46,1-.93,1.5-1.4l.36.37C226.93,280.92,226.43,281.39,225.92,281.85Zm3-2.84-.36-.37c.49-.48,1-1,1.44-1.46l.37.36Zm-168.5-.32c-.3-.64-.58-1.27-.84-1.9l.47-.2c.26.63.54,1.25.84,1.88ZM231.78,276l-.38-.35q.71-.76,1.38-1.53l.39.34C232.71,275,232.25,275.53,231.78,276Zm-173-1.17c-.24-.65-.47-1.31-.68-2l.49-.16c.21.65.43,1.3.67,1.94Zm175.72-1.93-.39-.33c.44-.52.88-1.05,1.31-1.58l.4.33C235.41,271.89,235,272.42,234.52,272.94Zm-177-2c-.19-.68-.35-1.36-.49-2l.5-.11c.14.65.3,1.32.48,2Zm179.6-1.18-.4-.32c.42-.54.83-1.08,1.24-1.63l.41.31C238,268.65,237.56,269.2,237.13,269.74Zm2.48-3.31-.42-.3c.4-.56.79-1.13,1.18-1.69l.43.29C240.41,265.3,240,265.86,239.61,266.43ZM242,263l-.44-.28c.38-.57.75-1.15,1.11-1.73l.44.27C242.7,261.84,242.32,262.43,242,263Zm2.19-3.51-.44-.26c.35-.59.7-1.18,1-1.78l.44.25C244.84,258.3,244.49,258.9,244.14,259.49Zm2.05-3.59-.45-.25c.33-.6.65-1.21,1-1.82l.46.24C246.84,254.68,246.52,255.29,246.19,255.9Zm1.91-3.68-.47-.22q.47-.93.9-1.86l.46.22C248.7,251,248.4,251.61,248.1,252.22Zm1.76-3.74-.47-.21c.28-.62.55-1.25.82-1.88l.47.2C250.41,247.22,250.14,247.85,249.86,248.48Zm1.61-3.8-.48-.2c.26-.63.51-1.27.75-1.91l.49.18C252,243.4,251.73,244,251.47,244.68Zm1.48-3.86-.49-.18c.23-.64.46-1.29.68-1.94l.49.17C253.41,239.52,253.18,240.17,253,240.82Zm1.33-3.92-.49-.15c.21-.66.41-1.31.61-2l.49.15C254.7,235.59,254.49,236.25,254.28,236.9Zm1.2-4-.5-.14q.28-1,.54-2l.5.13C255.85,231.62,255.66,232.29,255.48,233Zm1-4-.5-.13c.17-.66.33-1.33.48-2l.5.12Q256.79,228,256.53,229Zm.93-4-.5-.11c.14-.67.28-1.34.41-2l.5.09C257.74,223.58,257.6,224.26,257.46,224.93ZM308,222.49V222l2.06,0v.52Zm-2.06,0-2.07,0V222l2.06,0Zm6.19-.08,0-.51c.69,0,1.38-.05,2.06-.09l0,.52Zm-10.32,0-2.06-.08,0-.51,2.06.08Zm-4.13-.18-2.06-.13,0-.51,2.05.13Zm18.57,0,0-.51,2.05-.15,0,.51C317.61,222.12,316.93,222.17,316.23,222.21ZM293.54,222l-2.05-.17,0-.52,2.05.17Zm26.81-.08-.05-.52c.69-.06,1.37-.14,2.05-.22l.06.52Zm-30.92-.29-2.05-.21.05-.51,2.05.21Zm35-.19-.06-.51,2-.3.08.51Zm-39.12-.25-2.05-.26.06-.51,2.05.26Zm-27.08-.28-.5-.09c.12-.67.23-1.35.35-2l.5.09C258.49,219.52,258.38,220.2,258.25,220.87Zm70.29-.11-.09-.51q1-.18,2-.39l.11.51Zm-47.31-.14-2-.29.08-.51,2,.29Zm-4.08-.6-2-.33.09-.51,2,.33Zm55.44-.09-.12-.5c.68-.15,1.34-.31,2-.48l.13.5Q333.61,219.71,332.59,219.93Zm-59.51-.59-2-.37.09-.51,2,.37Zm63.51-.43-.14-.5c.67-.19,1.32-.39,2-.59l.15.49ZM269,218.59l-2-.4.11-.51,2,.4Zm-4-.82-2-.44.11-.5,2,.43Zm75.56-.13-.17-.48q1-.34,1.92-.72l.19.47C341.84,217.17,341.19,217.41,340.53,217.64Zm-79.59-.77-2-.46-.06.39-.51-.08c.1-.68.2-1.36.28-2l.52.07c-.06.4-.11.81-.17,1.21v-.06l2,.47Zm83.44-.76-.21-.47q.94-.42,1.86-.87l.22.46C345.65,215.53,345,215.83,344.38,216.11Zm-87.45-.2-2-.5.13-.5,2,.5Zm-4-1c-.67-.17-1.33-.35-2-.54l.14-.49,2,.54Zm95.17-.61-.25-.45c.6-.33,1.2-.68,1.76-1l.28.43C349.3,213.58,348.7,213.93,348.09,214.27Zm-99.16-.48-2-.58.14-.49,2,.57Zm10.53-1.09-.51-.06c.08-.68.15-1.37.22-2l.51,0C259.61,211.33,259.54,212,259.46,212.7ZM245,212.62l-2-.6.15-.5,2,.61Zm106.64-.54-.3-.42c.56-.39,1.11-.81,1.64-1.22l.32.4C352.73,211.26,352.17,211.68,351.61,212.08ZM241,211.39l-2-.64.17-.49,1.95.64Zm-3.91-1.29-1.94-.68.17-.48,1.94.67Zm117.73-.61-.34-.38c.5-.46,1-.94,1.46-1.42l.37.36C355.87,208.54,355.37,209,354.85,209.49Zm-121.61-.76L231.3,208l.18-.48,1.94.71Zm26.63-.15-.51,0c.06-.68.11-1.37.16-2l.52,0C260,207.21,259.93,207.9,259.87,208.58Zm-30.5-1.29-1.92-.74.19-.48,1.92.74Zm128.35-.8-.4-.32c.43-.53.85-1.08,1.24-1.63l.42.3C358.58,205.4,358.16,206,357.72,206.49Zm-132.19-.71c-.64-.25-1.27-.52-1.91-.78l.2-.48,1.9.79Zm34.64-1.32-.52,0c0-.69.07-1.37.1-2.06l.52,0C260.24,203.08,260.21,203.77,260.17,204.46Zm-38.45-.26-1.89-.82.2-.47,1.89.81Zm138.38-1.11-.45-.26c.34-.59.66-1.19,1-1.8l.47.22C360.77,201.87,360.44,202.49,360.1,203.09Zm-142.16-.55-1.88-.86.22-.47,1.87.86Zm-3.74-1.74-1.86-.9.23-.47c.61.31,1.23.6,1.85.9Zm46.14-.47-.52,0c0-.68,0-1.37.05-2.05h.51C260.37,199,260.36,199.64,260.34,200.33Zm101.54-1-.48-.19c.24-.62.45-1.27.64-1.93l.5.14C362.35,198,362.13,198.7,361.88,199.34ZM210.49,199c-.61-.31-1.23-.62-1.83-.94l.23-.46,1.84.94Zm-3.66-1.9-1.81-1,.25-.45,1.8,1Zm53-.87c0-.69,0-1.38,0-2.07h.52c0,.68,0,1.38,0,2.07Zm-56.66-1.13-1.79-1,.26-.44,1.78,1Zm-3.56-2.1-1.76-1.08.27-.44,1.75,1.08Zm60.16-.9c0-.69-.05-1.37-.08-2.06l.52,0c0,.69.05,1.37.07,2.06Zm-63.66-1.29-1.73-1.14.29-.43,1.72,1.14Zm-3.43-2.3L191,187.29l.3-.42c.56.4,1.11.79,1.68,1.18Zm66.91-.52c0-.69-.08-1.37-.13-2.06l.51,0c.05.68.1,1.37.13,2.06Zm-70.27-1.9-1.64-1.25.32-.41c.53.42,1.08.84,1.63,1.25Zm70-2.21c-.06-.68-.12-1.37-.19-2l.52-.05c.06.69.13,1.37.18,2.06Zm-73.24-.32-1.59-1.32.33-.39c.52.44,1.05.87,1.59,1.31ZM183,180.86l-1.53-1.38.35-.38,1.52,1.38Zm76-1.1-.24-2,.51-.06c.08.68.17,1.36.24,2Zm-79-1.7c-.5-.49-1-1-1.47-1.46l.37-.36c.47.49,1,1,1.45,1.45Zm78.52-2.39-.3-2,.51-.08.3,2ZM177,175.1q-.71-.76-1.38-1.53l.39-.34c.44.51.9,1,1.37,1.52ZM174.3,172q-.66-.81-1.29-1.62l.41-.31c.41.54.84,1.07,1.28,1.6Zm83.51-.38c-.11-.68-.23-1.36-.35-2l.51-.09c.12.67.24,1.35.35,2Zm-86-2.9c-.4-.57-.8-1.13-1.17-1.71l.43-.28c.37.57.76,1.13,1.16,1.69Zm85.3-1.15c-.14-.68-.27-1.35-.41-2l.5-.11c.14.68.28,1.35.41,2Zm-87.58-2.3c-.36-.6-.71-1.2-1-1.8l.45-.25c.32.59.67,1.19,1,1.78Zm86.73-1.73c-.15-.67-.31-1.34-.47-2l.5-.12c.16.66.32,1.33.47,2Zm-88.72-1.9c-.31-.63-.6-1.26-.87-1.88l.47-.21c.27.61.56,1.24.86,1.86Zm87.76-2.1c-.17-.67-.34-1.33-.52-2l.49-.14c.18.67.36,1.33.53,2Zm-89.41-1.7c-.24-.65-.47-1.31-.68-2l.49-.15c.21.64.43,1.29.67,1.93Zm88.34-2.27c-.19-.67-.39-1.32-.59-2l.5-.15c.2.66.39,1.32.58,2Zm-89.59-1.68c-.17-.67-.33-1.35-.46-2l.5-.1c.13.66.29,1.33.46,2Zm88.4-2.26c-.21-.66-.43-1.31-.64-2l.49-.16c.21.65.43,1.3.64,2Zm-89.21-1.8c-.09-.68-.17-1.37-.22-2.06l.51,0c.06.68.13,1.36.22,2Zm87.9-2.1c-.23-.65-.46-1.3-.7-1.94l.48-.18c.24.65.47,1.29.7,1.94Zm-88.22-2c0-.2,0-.41,0-.61,0-.49,0-1,0-1.46l.52,0q0,.72,0,1.44v.6Zm86.79-1.83c-.25-.64-.5-1.28-.76-1.91l.48-.2.76,1.92Zm-86.1-2.26-.51,0c.06-.68.16-1.37.27-2.06l.51.08C164.33,140.25,164.24,140.93,164.17,141.6Zm84.55-1.55c-.27-.63-.55-1.26-.83-1.89l.47-.21c.28.63.56,1.26.83,1.9Zm-83.9-2.49-.5-.11q.23-1,.51-2l.49.14C165.14,136.24,165,136.91,164.82,137.56ZM247,136.3c-.29-.63-.59-1.25-.89-1.86l.46-.23c.31.62.6,1.24.9,1.87Zm-81.1-2.68-.49-.16q.33-1,.72-2l.48.19C166.38,132.34,166.14,133,165.93,133.62Zm79.29-1c-.32-.62-.64-1.22-1-1.82l.45-.25c.33.61.65,1.21,1,1.83Zm-77.79-2.79-.46-.22c.28-.62.58-1.25.89-1.86l.46.23C168,128.58,167.72,129.2,167.43,129.82Zm75.83-.83c-.34-.6-.69-1.19-1-1.78l.44-.26c.35.59.7,1.18,1,1.79Zm-74-2.83-.45-.25c.33-.59.68-1.19,1-1.79l.44.27C170,125,169.62,125.57,169.29,126.16Zm71.86-.7c-.36-.59-.73-1.16-1.11-1.73l.44-.28,1.11,1.73Zm-69.71-2.79-.43-.29c.37-.56.77-1.13,1.18-1.7l.41.3C172.2,121.55,171.81,122.11,171.44,122.67Zm67.45-.64c-.39-.57-.79-1.13-1.19-1.68l.42-.3q.6.83,1.2,1.68Zm-65.06-2.69-.41-.32q.62-.81,1.29-1.62l.4.33C174.67,118.27,174.24,118.8,173.83,119.34Zm62.64-.63c-.42-.55-.85-1.08-1.28-1.61l.4-.32q.65.8,1.29,1.62Zm-60-2.55-.39-.34c.46-.53.92-1,1.37-1.54l.38.35C177.34,115.12,176.88,115.63,176.43,116.16Zm57.44-.63c-.46-.52-.91-1-1.37-1.52l.38-.36c.46.51.92,1,1.38,1.55Zm-54.67-2.4-.37-.36c.49-.5,1-1,1.47-1.46l.36.38C180.17,112.15,179.69,112.63,179.2,113.13Zm51.88-.61c-.49-.49-1-1-1.47-1.43l.35-.38c.5.47,1,1,1.49,1.45Zm-48.92-2.23-.34-.39,1.56-1.35.33.4C183.19,109.38,182.68,109.82,182.16,110.29Zm45.93-.58c-.52-.45-1-.89-1.57-1.31l.32-.41c.54.43,1.07.88,1.59,1.33Zm-42.78-2-.31-.41c.56-.42,1.12-.84,1.67-1.22l.3.42C186.42,106.84,185.86,107.25,185.31,107.67Zm39.59-.52c-.55-.41-1.11-.8-1.68-1.18l.29-.43c.57.38,1.14.78,1.69,1.19Zm-36.23-1.82-.27-.44c.59-.37,1.19-.72,1.78-1l.26.45C189.85,104.61,189.26,105,188.67,105.33Zm32.82-.45c-.59-.35-1.19-.69-1.78-1l.24-.46c.6.32,1.21.66,1.8,1Zm-29.24-1.54-.23-.46c.62-.31,1.26-.6,1.89-.86l.2.48C193.49,102.76,192.86,103,192.25,103.34Zm25.62-.36c-.62-.29-1.25-.55-1.88-.8l.19-.48c.64.25,1.28.52,1.91.81ZM196,101.77l-.17-.49c.66-.22,1.33-.43,2-.61l.13.5C197.33,101.34,196.67,101.55,196,101.77Zm18-.26c-.65-.21-1.31-.39-2-.55l.12-.5c.67.16,1.34.35,2,.56ZM200,100.7l-.1-.51c.68-.13,1.37-.24,2-.33l.07.51C201.31,100.46,200.63,100.57,200,100.7Zm10.14-.15c-.67-.11-1.35-.2-2-.27l0-.51c.68.07,1.38.16,2.06.27Zm-6.09-.36,0-.51c.7,0,1.39-.05,2.08,0v.51Q205,100.15,204,100.19Z"/><path class="cls-3" d="M363.05,195.22l-.5-.1c.07-.33.12-.66.18-1l.51.08C363.18,194.55,363.12,194.89,363.05,195.22Z"/><path class="cls-4" d="M193.72,271.63l4.67.3a1.55,1.55,0,0,0,1.64-1.44l.25-4a1.54,1.54,0,0,0-1.43-1.64l-4.68-.3a1.54,1.54,0,0,1-1.41-1.27,17.45,17.45,0,0,0-1.38-4.09,1.57,1.57,0,0,1,.35-1.86l3.5-3.08a1.54,1.54,0,0,0,.14-2.18l-2.62-3a1.53,1.53,0,0,0-2.17-.14l-3.26,2.86a1.93,1.93,0,0,1-2.3.22,18.2,18.2,0,0,0-3.43-1.69,2.08,2.08,0,0,1-1.34-2.11l.27-4.23a1.54,1.54,0,0,0-1.44-1.63l-4-.26a1.54,1.54,0,0,0-1.63,1.44l-.31,4.67a1.54,1.54,0,0,1-1.27,1.41,17.69,17.69,0,0,0-4.08,1.38,1.57,1.57,0,0,1-1.87-.34l-3.08-3.51a1.54,1.54,0,0,0-2.17-.14l-3,2.63a1.54,1.54,0,0,0-.14,2.17l3.08,3.51a1.55,1.55,0,0,1,.1,1.89,17.19,17.19,0,0,0-1.89,3.88,1.56,1.56,0,0,1-1.57,1.08l-4.67-.3a1.54,1.54,0,0,0-1.63,1.44l-.26,4a1.54,1.54,0,0,0,1.44,1.63l4.67.3a1.58,1.58,0,0,1,1.42,1.28,17.35,17.35,0,0,0,1.37,4.08,1.55,1.55,0,0,1-.34,1.86l-3.51,3.09a1.54,1.54,0,0,0-.14,2.17l2.63,3a1.54,1.54,0,0,0,2.17.14l3.51-3.08a1.56,1.56,0,0,1,1.89-.11,17.19,17.19,0,0,0,3.88,1.89,1.57,1.57,0,0,1,1.08,1.57l-.31,4.67a1.55,1.55,0,0,0,1.44,1.64l4,.25a1.54,1.54,0,0,0,1.64-1.43l.3-4.68a1.54,1.54,0,0,1,1.27-1.41,17.3,17.3,0,0,0,4.09-1.38,1.55,1.55,0,0,1,1.87.35l3.08,3.5a1.54,1.54,0,0,0,2.17.14l3-2.62a1.55,1.55,0,0,0,.14-2.18l-3.08-3.5a1.56,1.56,0,0,1-.1-1.9,17.51,17.51,0,0,0,1.88-3.87A1.57,1.57,0,0,1,193.72,271.63Zm-24.64,3.7a10.59,10.59,0,1,1,11.73.76A10.6,10.6,0,0,1,169.08,275.33Z"/><path class="cls-4" d="M224,251.23l3,.19a1,1,0,0,0,1-.93l.17-2.57a1,1,0,0,0-.93-1.06l-3-.2a1,1,0,0,1-.92-.82,11,11,0,0,0-.89-2.65,1,1,0,0,1,.22-1.21l2.28-2a1,1,0,0,0,.09-1.41l-1.71-1.94a1,1,0,0,0-1.41-.09l-2.11,1.86a1.25,1.25,0,0,1-1.49.14,11.15,11.15,0,0,0-2.22-1.09,1.36,1.36,0,0,1-.87-1.37l.17-2.75a1,1,0,0,0-.93-1.06l-2.57-.16a1,1,0,0,0-1.06.93l-.2,3a1,1,0,0,1-.83.92,11.1,11.1,0,0,0-2.64.89,1,1,0,0,1-1.21-.22l-2-2.28a1,1,0,0,0-1.41-.09L200.69,237a1,1,0,0,0-.09,1.4l2,2.28a1,1,0,0,1,.06,1.23,11.19,11.19,0,0,0-1.22,2.51,1,1,0,0,1-1,.71l-3-.2a1,1,0,0,0-1.06.93l-.17,2.58a1,1,0,0,0,.94,1.06l3,.19a1,1,0,0,1,.92.83,11.33,11.33,0,0,0,.89,2.65,1,1,0,0,1-.22,1.2l-2.28,2a1,1,0,0,0-.09,1.41l1.7,1.94a1,1,0,0,0,1.41.09l2.28-2a1,1,0,0,1,1.22-.06,11.71,11.71,0,0,0,2.52,1.22,1,1,0,0,1,.7,1l-.2,3a1,1,0,0,0,.93,1.06l2.58.16a1,1,0,0,0,1.06-.93l.19-3a1,1,0,0,1,.83-.92,11,11,0,0,0,2.65-.89,1,1,0,0,1,1.21.22l2,2.28a1,1,0,0,0,1.41.09l1.94-1.7a1,1,0,0,0,.09-1.41l-2-2.28a1,1,0,0,1-.07-1.23,11,11,0,0,0,1.23-2.51A1,1,0,0,1,224,251.23Zm-16,2.4a6.87,6.87,0,1,1,7.61.49A6.87,6.87,0,0,1,208.06,253.63Z"/><path class="cls-4" d="M35.7,225.51c.48,1,1.26,1,1.74,0l3.11-6.22a9.77,9.77,0,0,0,.87-3.68V141.69a1.93,1.93,0,0,0-1.93-1.93H33.67a1.94,1.94,0,0,0-1.94,1.94v73.91a10,10,0,0,0,.86,3.68Z"/><path class="cls-4" d="M47.24,148.76V194c22-24.73,44,15.69,66-9.05V139.71C91.24,164.45,69.24,124,47.24,148.76Z"/><path class="cls-4" d="M36.58,228.26c-6.93,0-12.55,1.89-12.55,4.22s5.62,4.22,12.55,4.22,12.54-1.89,12.54-4.22S43.5,228.26,36.58,228.26Z"/><path class="cls-5" d="M30,230.91a1.75,1.75,0,0,1-1.53-1.16l.92-.46c.37.73.85.73,1.22,0l1-2,.92.46-1,2A1.75,1.75,0,0,1,30,230.91Zm-3.53-5.17-1.82-3.65a8.32,8.32,0,0,1-.43-1.06l1-.33a7.56,7.56,0,0,0,.38.92l1.82,3.66Zm8.37-2.6-.92-.46.52-1.06a11.43,11.43,0,0,0,1-3.63l1,.1a13,13,0,0,1-1.08,4Zm-10.28-7.35h-1v-5.15h1Zm11.93-2.9h-1v-5.16h1Zm-11.93-7.41h-1v-5.15h1Zm11.93-2.9h-1v-5.15h1Zm-11.93-7.4h-1V190h1Zm11.93-2.9h-1v-5.15h1Zm-11.93-7.4h-1v-5.15h1ZM36.48,182h-1v-5.16h1Zm-11.93-7.41h-1v-5.15h1Zm11.93-2.9h-1v-5.15h1Zm-11.93-7.4h-1v-5.15h1Zm11.93-2.9h-1v-5.15h1ZM24.55,154h-1v-5.15h1Zm11.93-2.9h-1v-5.15h1Zm-11.93-7.41h-1v-5.15h1Zm11.93-2.9h-1v-5.15h1Zm-11.93-7.4h-1v-5.15h1Zm11.93-2.9h-1v-4.1a1.84,1.84,0,0,0-.18-.8l.93-.44a2.78,2.78,0,0,1,.28,1.24Zm-10.41-5.94-.19-1a3.29,3.29,0,0,1,.54-.05h4.71v1H26.42A2.07,2.07,0,0,0,26.07,124.52Z"/><path class="cls-5" d="M42.61,192.09v-5.52h1v3.3l.52.49-.65.72Zm58.77-1.76a38,38,0,0,1-5.16-.77l.21-1a36.07,36.07,0,0,0,5,.75Zm5.24-.07-.12-1a23.12,23.12,0,0,0,4.91-1.08l.33,1A24.51,24.51,0,0,1,106.62,190.26Zm-15.42-2c-1.43-.43-3-.94-4.92-1.62l.34-1c2,.69,3.46,1.18,4.88,1.62Zm25.31-1.32L116,186a30.5,30.5,0,0,0,4.11-3l.66.79A31.51,31.51,0,0,1,116.51,186.92Zm-68.66,0-.65-.8a29.91,29.91,0,0,1,4.31-3l.5.9A29.8,29.8,0,0,0,47.85,186.87Zm33.58-2c-1.34-.47-3.1-1.08-4.87-1.63l.31-1c1.78.55,3.55,1.17,4.9,1.64ZM56.63,182l-.3-1a24.45,24.45,0,0,1,5.15-1l.09,1A23.86,23.86,0,0,0,56.63,182Zm15-.09a38.68,38.68,0,0,0-5-.83l.09-1a38.57,38.57,0,0,1,5.15.85Zm-28-.49h-1v-5.15h1Zm80.84-1.19-.76-.69.12-.14v-4.58h1v5Zm-80.84-9.11h-1V166h1Zm81.23-1.45h-1v-5.15h1Zm-81.23-8.86h-1v-5.15h1Zm81.23-1.44h-1v-5.15h1Zm-81.23-8.86h-1v-5.15h1Zm81.23-1.44h-1v-5.15h1Zm-81.23-8.86h-1v-5.35l.13-.15.51-.56.76.7c-.13.13-.25.26-.37.4Zm81.23-1.45h-1v-5.15h1Zm-23.73-4.13a40,40,0,0,1-5.15-.8l.22-1a36.44,36.44,0,0,0,5,.78Zm5.24,0-.1-1a23.28,23.28,0,0,0,4.92-1l.32,1A24.6,24.6,0,0,1,106.38,134.6ZM91,132.49c-1.42-.43-2.93-.94-4.91-1.63l.34-1c2,.69,3.47,1.18,4.87,1.62Zm25.33-1.13-.52-.89a28.86,28.86,0,0,0,4.13-2.92l.66.79A30.86,30.86,0,0,1,116.3,131.36Zm-68.63,0-.66-.79a30,30,0,0,1,4.29-3l.51.89A30.18,30.18,0,0,0,47.67,131.33Zm33.54-2.19c-2-.7-3.48-1.2-4.87-1.63l.3-1c1.41.44,2.93,1,4.91,1.64Zm43.66-.68h-1v-4.19l-.28-.25,1.31-1.46Zm-68.46-2.07-.31-1a24.55,24.55,0,0,1,5.14-1l.1,1A23.2,23.2,0,0,0,56.41,126.39Zm15-.21a37.83,37.83,0,0,0-5-.8l.09-1a40.12,40.12,0,0,1,5.15.81Z"/><path class="cls-5" d="M30,243.8c-1.21,0-2.42-.05-3.58-.14l.08-1a43.11,43.11,0,0,0,5.09.11l0,1Q30.83,243.8,30,243.8Zm6.81-.52-.16-1A24.71,24.71,0,0,0,41.52,241l.38,1A26.06,26.06,0,0,1,36.81,243.28Zm-15.56-.38a17.45,17.45,0,0,1-5-1.82l.53-.88a16.52,16.52,0,0,0,4.68,1.69Zm24.69-4.6-1-.09v-.12c0-1-1.13-2-3.1-2.79l.4-1c2.44,1,3.73,2.32,3.73,3.74A1.48,1.48,0,0,1,45.94,238.3Zm-30.29-1.42-.75-.71a10.92,10.92,0,0,1,4.76-2.48l.29,1A9.84,9.84,0,0,0,15.65,236.88ZM37,234a37.6,37.6,0,0,0-5-.53l0-1a41.74,41.74,0,0,1,5.19.54Zm-12-.28-.12-1a43.68,43.68,0,0,1,5.2-.3v1A43.81,43.81,0,0,0,24.92,233.7Z"/><path class="cls-6" d="M22.35,110.79l2.24-.53L24.07,108l.93-.22.53,2.25,2.25-.53.22.94-2.25.52.53,2.26-.93.22-.53-2.26-2.25.53Z"/><path class="cls-6" d="M12.75,121.87a2.07,2.07,0,1,1-1.54,2.48A2.06,2.06,0,0,1,12.75,121.87Zm.79,3.35a1.38,1.38,0,0,0-.63-2.68,1.38,1.38,0,1,0,.63,2.68Z"/><path class="cls-7" d="M362.17,145.2a2.57,2.57,0,0,1-2.58-2.58V129.4a2.58,2.58,0,1,1,5.15,0v13.22A2.57,2.57,0,0,1,362.17,145.2Z"/><path class="cls-7" d="M363.69,190.8a2.57,2.57,0,0,1-2.57-2.57V175a2.58,2.58,0,1,1,5.15,0v13.23A2.58,2.58,0,0,1,363.69,190.8Z"/><path class="cls-7" d="M375.3,152a2.58,2.58,0,0,1-1.55-4.64l10.61-7.9a2.58,2.58,0,1,1,3.08,4.13l-10.61,7.9A2.58,2.58,0,0,1,375.3,152Z"/><path class="cls-7" d="M347.8,152a2.58,2.58,0,0,1-1.53-.51l-10.61-7.9a2.58,2.58,0,1,1,3.08-4.13l10.61,7.9A2.58,2.58,0,0,1,347.8,152Z"/><path class="cls-7" d="M386.5,175.36a2.54,2.54,0,0,1-1.16-.28l-11.81-6a2.57,2.57,0,0,1,2.33-4.59l11.8,6a2.58,2.58,0,0,1-1.16,4.88Z"/><path class="cls-7" d="M338.31,177.87a2.57,2.57,0,0,1-1.54-4.64l10.6-7.9a2.58,2.58,0,1,1,3.08,4.13l-10.61,7.9A2.58,2.58,0,0,1,338.31,177.87Z"/></g></svg>