<?xml version="1.0" encoding="UTF-8"?>
<svg id="Layer_2" data-name="Layer 2" xmlns="http://www.w3.org/2000/svg" xmlns:xlink="http://www.w3.org/1999/xlink" viewBox="0 0 400 400">
  <defs>
    <style>
      .cls-1, .cls-2, .cls-3 {
        fill: #a0b1c3;
      }

      .cls-4 {
        fill: #fff;
      }

      .cls-5 {
        fill: none;
      }

      .cls-2 {
        opacity: .59;
      }

      .cls-3 {
        opacity: .5;
      }

      .cls-6 {
        clip-path: url(#clippath);
      }

      .cls-7 {
        fill: #f08e8c;
      }
    </style>
    <clipPath id="clippath">
      <rect class="cls-5" width="400" height="400"/>
    </clipPath>
  </defs>
  <g class="cls-6">
    <g>
      <path class="cls-1" d="M56.66,266.87c-.06-.34-.11-.67-.15-1l.51-.07c0,.34.09.67.14,1l-.5.07Z"/>
      <path class="cls-1" d="M128.76,317h-2.07v-.51h2.06v.51ZM130.82,317v-.52h2.06v.51h-2.06ZM124.63,316.9c-.7,0-1.38-.07-2.07-.12v-.51c.68.05,1.36.08,2.05.11l.02.52ZM134.95,316.9v-.51l2.06-.12v.51l-2.06.12ZM120.5,316.66l-2-.2v-.51c.68.07,1.36.14,2,.19v.52ZM139.07,316.66v-.51l2.05-.19v.51l-2.05.19ZM143.18,316.25l-.06-.51,2-.25.07.51-2.01.25ZM116.4,316.25c-.69-.08-1.37-.18-2.05-.28l.08-.51,2,.28-.03.51ZM147.27,315.73l-.07-.51,2-.32.08.51-2.01.32ZM112.27,315.63l-2-.38.1-.51c.67.14,1.34.26,2,.38l-.1.51ZM151.27,315.07l-.09-.51,2-.37.1.5-2.01.38ZM108.18,314.82l-2-.48.13-.5c.66.17,1.32.32,2,.48l-.13.5ZM155.32,314.29l-.1-.5,2-.43.11.5-2.01.43ZM104.17,313.81c-.66-.18-1.33-.38-2-.58l.15-.49c.65.2,1.31.39,2,.57l-.15.5ZM159.36,313.41l-.12-.5,2-.48.12.5-2,.48ZM100.22,312.6c-.66-.22-1.31-.44-2-.68l.18-.48c.63.23,1.28.46,1.94.68l-.12.48ZM163.37,312.42l-.13-.49,2-.53.13.5-2,.52ZM167.37,311.34l-.14-.49,2-.58.15.5-2.01.57ZM96.37,311.19c-.67-.25-1.31-.51-1.92-.78l.21-.48c.62.27,1.25.53,1.9.78l-.19.48ZM171.37,310.19l-.16-.49,2-.62.15.49-1.99.62ZM92.59,309.59c-.63-.29-1.25-.58-1.86-.89l.23-.46c.6.3,1.22.6,1.85.88l-.22.47ZM175.29,308.93l-.16-.49,1.95-.65.17.48c-.63.18-1.25.4-1.94.61l-.02.05ZM88.89,307.76c-.62-.32-1.22-.65-1.82-1l.26-.45c.59.34,1.19.67,1.8,1l-.24.45ZM179.2,307.59l-.17-.48,1.93-.7.18.49-1.94.69ZM183.07,306.18l-.18-.48,1.93-.74.18.48-1.93.74ZM85.29,305.73c-.6-.36-1.18-.73-1.75-1.1l.28-.43c.57.37,1.15.73,1.73,1.09l-.26.44ZM186.92,304.73l-.19-.48,1.91-.77.2.48-1.92.77ZM81.82,303.52c-.58-.39-1.14-.79-1.69-1.2l.31-.41c.54.4,1.1.8,1.67,1.19l-.29.42ZM190.74,303.17l-.19-.47,1.89-.8.2.47-1.9.8ZM194.54,301.55l-.21-.47,1.88-.83.21.47-1.88.83ZM78.5,301c-.54-.43-1.08-.86-1.61-1.3l.33-.39,1.6,1.29-.32.4ZM198.32,299.8l-.21-.47,1.17-.54.7-.32.22.46-.7.33-1.18.54ZM75.32,298.35c-.52-.46-1-.92-1.53-1.39l.35-.38c.5.47,1,.93,1.52,1.39l-.34.38ZM202.06,298l-.23-.47c.62-.3,1.23-.61,1.83-.92l.24.46-1.84.93ZM205.73,296.1l-.25-.45,1.8-1,.25.45c-.59.36-1.2.69-1.8,1.02v-.02ZM72.32,295.47c-.49-.49-1-1-1.44-1.49l.38-.35c.46.5.94,1,1.42,1.48l-.36.36ZM209.32,294.07l-.26-.45c.59-.35,1.18-.7,1.76-1.06l.27.44c-.59.38-1.17.74-1.77,1.09v-.02ZM69.5,292.47c-.46-.53-.91-1.05-1.34-1.58l.4-.33c.43.53.87,1.05,1.32,1.57l-.38.34ZM212.83,291.91l-.28-.43c.58-.37,1.15-.75,1.72-1.13l.29.43-1.73,1.13ZM216.26,289.6l-.3-.42c.56-.39,1.12-.79,1.67-1.2l.3.42-1.67,1.2ZM66.88,289.27c-.43-.56-.84-1.11-1.23-1.67l.42-.3c.39.55.8,1.1,1.21,1.65l-.4.32ZM219.58,287.15l-.31-.4,1.62-1.27.32.4-1.63,1.27ZM64.47,285.89c-.38-.58-.75-1.16-1.11-1.74l.44-.27c.35.58.72,1.15,1.1,1.73l-.43.28ZM222.81,284.57l-.34-.4,1.57-1.33.34.39-1.57,1.34ZM62.31,282.37c-.34-.61-.67-1.22-1-1.83l.45-.23c.31.6.64,1.2,1,1.8l-.45.26ZM225.92,281.85l-.35-.38c.51-.46,1-.93,1.5-1.4l.36.37c-.5.48-1,.95-1.51,1.41ZM228.92,279.01l-.36-.37c.49-.48,1-1,1.44-1.46l.37.36-1.45,1.47ZM60.42,278.69c-.3-.64-.58-1.27-.84-1.9l.47-.2c.26.63.54,1.25.84,1.88l-.47.22ZM231.78,276l-.38-.35c.47-.51.93-1.02,1.38-1.53l.39.34c-.46.54-.92,1.07-1.39,1.54ZM58.78,274.83c-.24-.65-.47-1.31-.68-2l.49-.16c.21.65.43,1.3.67,1.94l-.48.22ZM234.5,272.9l-.39-.33c.44-.52.88-1.05,1.31-1.58l.4.33c-.41.57-.82,1.1-1.3,1.62l-.02-.04ZM57.5,270.9c-.19-.68-.35-1.36-.49-2l.5-.11c.14.65.3,1.32.48,2l-.49.11ZM237.1,269.72l-.4-.32c.42-.54.83-1.08,1.24-1.63l.41.31c-.35.57-.79,1.12-1.22,1.66l-.03-.02ZM239.58,266.41l-.42-.3c.4-.56.79-1.13,1.18-1.69l.43.29c-.36.59-.77,1.15-1.16,1.72l-.03-.02ZM242,263l-.44-.28c.38-.57.75-1.15,1.11-1.73l.44.27c-.41.58-.79,1.17-1.11,1.74ZM244.19,259.49l-.44-.26c.35-.59.7-1.18,1-1.78l.44.25c-.35.6-.7,1.2-1.05,1.79h.05ZM246.24,255.9l-.45-.25c.33-.6.65-1.21,1-1.82l.46.24c-.41.61-.73,1.22-1.06,1.83h.05ZM248.15,252.22l-.47-.22c.31-.62.61-1.24.9-1.86l.46.22c-.34.64-.64,1.25-.94,1.86h.05ZM249.91,248.48l-.47-.21c.28-.62.55-1.25.82-1.88l.47.2c-.32.63-.59,1.26-.87,1.89h.05ZM251.52,244.68l-.48-.2c.26-.63.51-1.27.75-1.91l.49.18c-.28.65-.55,1.25-.81,1.93h.05ZM253,240.82l-.49-.18c.23-.64.46-1.29.68-1.94l.49.17c-.27.65-.5,1.3-.68,1.95h0ZM254.33,236.9l-.49-.15c.21-.66.41-1.31.61-2l.49.15c-.24.69-.45,1.35-.66,2h.05ZM255.53,232.9l-.5-.14c.19-.67.37-1.33.54-2l.5.13c-.22.73-.41,1.4-.59,2.11l.05-.1ZM256.53,228.9l-.5-.13c.17-.66.33-1.33.48-2l.5.12c-.15.74-.31,1.44-.48,2.11v-.1ZM257.46,224.9l-.5-.11c.14-.67.28-1.34.41-2l.5.09c-.13.7-.27,1.38-.41,2.05v-.03ZM308,222.49v-.49h2.06v.52l-2.06-.03ZM305.94,222.49h-2.07v-.49h2.06v.49ZM312.13,222.41v-.51c.69,0,1.38-.05,2.06-.09v.52l-2.06.08ZM301.81,222.41l-2.06-.08v-.51l2.06.08v.51ZM297.68,222.23l-2.06-.13v-.51l2.05.13v.51ZM316.25,222.23v-.51l2.05-.15v.51c-.69.04-1.37.09-2.07.13l.02.02ZM293.54,222l-2.05-.17v-.52l2.05.17v.52ZM320.35,221.92l-.05-.52c.69-.06,1.37-.14,2.05-.22l.06.52-2.06.22ZM289.43,221.63l-2.05-.21.05-.51,2.05.21-.05.51ZM324.43,221.44l-.06-.51,2-.3.08.51-2.02.3ZM285.31,221.19l-2.05-.26.06-.51,2.05.26-.06.51ZM258.23,220.91l-.5-.09c.12-.67.23-1.35.35-2l.5.09c-.09.61-.2,1.29-.33,1.96l-.02.04ZM328.52,220.8l-.09-.51c.67-.12,1.33-.25,2-.39l.11.51-2.02.39ZM281.21,220.66l-2-.29.08-.51,2,.29-.08.51ZM277.13,220.06l-2-.33.09-.51,2,.33-.09.51ZM332.57,219.97l-.12-.5c.68-.15,1.34-.31,2-.48l.13.5c-.65.15-1.31.29-1.99.44l-.02.04ZM273.06,219.38l-2-.37.09-.51,2,.37-.09.51ZM336.57,218.95l-.14-.5c.67-.19,1.32-.39,2-.59l.15.49-2.01.6ZM269,218.59l-2-.4.11-.51,2,.4-.11.51ZM265,217.77l-2-.44.11-.5,2,.43-.11.51ZM340.56,217.64l-.17-.48c.67-.23,1.31-.47,1.92-.72l.19.47c-.66.26-1.31.5-1.97.73h.03ZM260.97,216.87l-2-.46-.06.39-.51-.08c.1-.68.2-1.36.28-2l.52.07c-.06.4-.11.81-.17,1.21v-.06l2,.47-.06.46ZM344.41,216.11l-.21-.47c.63-.28,1.25-.57,1.86-.87l.22.46c-.63.3-1.28.6-1.9.88h.03ZM256.96,215.91l-2-.5.13-.5,2,.5-.13.5ZM252.96,214.91c-.67-.17-1.33-.35-2-.54l.14-.49,2,.54-.14.49ZM348.13,214.3l-.25-.45c.6-.33,1.2-.68,1.76-1l.28.43c-.62.3-1.22.65-1.83.99l.04.03ZM248.97,213.82l-2-.58.14-.49,2,.57-.14.5ZM259.5,212.73l-.51-.06c.08-.68.15-1.37.22-2h.51c-.11.66-.18,1.33-.26,2.03l.04.03ZM245,212.62l-2-.6.15-.5,2,.61-.15.49ZM351.64,212.08l-.3-.42c.56-.39,1.11-.81,1.64-1.22l.32.4c-.57.42-1.13.84-1.69,1.24h.03ZM241,211.39l-2-.64.17-.49,1.95.64-.12.49ZM237.09,210.1l-1.94-.68.17-.48,1.94.67-.17.49ZM354.82,209.49l-.34-.38c.5-.46,1-.94,1.46-1.42l.37.36c-.44.49-.94.95-1.46,1.44h-.03ZM233.21,208.73l-1.91-.73.18-.48,1.94.71-.21.5ZM259.84,208.58h-.51c.06-.68.11-1.37.16-2h.52c0,.63-.08,1.32-.14,2h-.03ZM229.34,207.29l-1.92-.74.19-.48,1.92.74-.19.48ZM357.69,206.49l-.4-.32c.43-.53.85-1.08,1.24-1.63l.42.3c-.37.56-.79,1.16-1.23,1.65h-.03ZM225.5,205.78c-.64-.25-1.27-.52-1.91-.78l.2-.48,1.9.79-.19.47ZM260.14,204.46h-.52c0-.69.07-1.37.1-2.06h.52c0,.68-.03,1.37-.07,2.06h-.03ZM221.69,204.2l-1.89-.82.2-.47,1.89.81-.2.48ZM360.07,203.09l-.45-.26c.34-.59.66-1.19,1-1.8l.47.22c-.32.62-.65,1.24-.99,1.84h-.03ZM217.91,202.54l-1.88-.86.22-.47,1.87.86-.21.47ZM214.17,200.8l-1.86-.9.23-.47c.61.31,1.23.6,1.85.9l-.22.47ZM260.31,200.33h-.52c0-.68,0-1.37.05-2.05h.51c.02.72,0,1.36-.01,2.05h-.03ZM361.85,199.33l-.48-.19c.24-.62.45-1.27.64-1.93l.5.14c-.16.65-.38,1.35-.63,1.99h-.03ZM210.49,199c-.61-.31-1.23-.62-1.83-.94l.23-.46,1.84.94-.24.46ZM206.83,197.1l-1.81-1,.25-.45,1.8,1-.24.45ZM259.83,196.23v-2.07h.52v2.07h-.52ZM203.17,195.1l-1.79-1,.26-.44,1.78,1-.25.44ZM199.61,193l-1.76-1.08.27-.44,1.75,1.08-.26.44ZM259.77,192.1c0-.69-.05-1.37-.08-2.06h.52c0,.69.05,1.37.07,2.06h-.51ZM196.11,190.81l-1.73-1.14.29-.43,1.72,1.14-.28.43ZM192.68,188.51l-1.68-1.22.3-.42c.56.4,1.11.79,1.68,1.18l-.3.46ZM259.59,187.99c0-.69-.08-1.37-.13-2.06h.51c.05.68.1,1.37.13,2.06h-.51ZM189.32,186.09l-1.64-1.25.32-.41c.53.42,1.08.84,1.63,1.25l-.31.41ZM259.32,183.88c-.06-.68-.12-1.37-.19-2l.52-.05c.06.69.13,1.37.18,2.06h-.51ZM186.08,183.56l-1.59-1.32.33-.39c.52.44,1.05.87,1.59,1.31l-.33.4ZM183,180.86l-1.53-1.38.35-.38,1.52,1.38-.34.38ZM259,179.76l-.24-2,.51-.06c.08.68.17,1.36.24,2l-.51.06ZM180,178.06c-.5-.49-1-1-1.47-1.46l.37-.36c.47.49,1,1,1.45,1.45l-.35.37ZM258.52,175.67l-.3-2,.51-.08.3,2-.51.08ZM177,175.1c-.47-.51-.93-1.02-1.38-1.53l.39-.34c.44.51.9,1,1.37,1.52l-.38.35ZM174.3,172c-.44-.54-.87-1.08-1.29-1.62l.41-.31c.41.54.84,1.07,1.28,1.6l-.4.33ZM257.81,171.62c-.11-.68-.23-1.36-.35-2l.51-.09c.12.67.24,1.35.35,2l-.51.09ZM171.81,168.72c-.4-.57-.8-1.13-1.17-1.71l.43-.28c.37.57.76,1.13,1.16,1.69l-.42.3ZM257.11,167.57c-.14-.68-.27-1.35-.41-2l.5-.11c.14.68.28,1.35.41,2l-.5.11ZM169.53,165.27c-.36-.6-.71-1.2-1-1.8l.45-.25c.32.59.67,1.19,1,1.78l-.45.27ZM256.26,163.54c-.15-.67-.31-1.34-.47-2l.5-.12c.16.66.32,1.33.47,2l-.5.12ZM167.54,161.64c-.31-.63-.6-1.26-.87-1.88l.47-.21c.27.61.56,1.24.86,1.86l-.46.23ZM255.3,159.54c-.17-.67-.34-1.33-.52-2l.49-.14c.18.67.36,1.33.53,2l-.5.14ZM165.89,157.84c-.24-.65-.47-1.31-.68-2l.49-.15c.21.64.43,1.29.67,1.93l-.48.22ZM254.23,155.57c-.19-.67-.39-1.32-.59-2l.5-.15c.2.66.39,1.32.58,2l-.49.15ZM164.64,153.89c-.17-.67-.33-1.35-.46-2l.5-.1c.13.66.29,1.33.46,2l-.5.1ZM253.04,151.63c-.21-.66-.43-1.31-.64-2l.49-.16c.21.65.43,1.3.64,2l-.49.16ZM163.83,149.83c-.09-.68-.17-1.37-.22-2.06h.51c.06.68.13,1.36.22,2l-.51.06ZM251.73,147.73c-.23-.65-.46-1.3-.7-1.94l.48-.18c.24.65.47,1.29.7,1.94l-.48.18ZM163.51,145.73v-2.07h.52v2.04l-.52.03ZM250.3,143.9c-.25-.64-.5-1.28-.76-1.91l.48-.2.76,1.92-.48.19ZM164.2,141.64h-.51c.06-.68.16-1.37.27-2.06l.51.08c-.14.59-.23,1.27-.3,1.94l.03.04ZM248.75,140.09c-.27-.63-.55-1.26-.83-1.89l.47-.21c.28.63.56,1.26.83,1.9l-.47.2ZM164.85,137.6l-.5-.11c.15-.67.32-1.33.51-2l.49.14c-.21.61-.35,1.28-.53,1.93l.03.04ZM247,136.3c-.29-.63-.59-1.25-.89-1.86l.46-.23c.31.62.6,1.24.9,1.87l-.47.22ZM165.9,133.62l-.49-.16c.22-.67.46-1.33.72-2l.48.19c-.23.69-.47,1.35-.68,1.97h-.03ZM245.19,132.62c-.32-.62-.64-1.22-1-1.82l.45-.25c.33.61.65,1.21,1,1.83l-.45.24ZM167.4,129.83l-.46-.22c.28-.62.58-1.25.89-1.86l.46.23c-.29.6-.57,1.22-.86,1.84h-.03ZM243.23,129c-.34-.6-.69-1.19-1-1.78l.44-.26c.35.59.7,1.18,1,1.79l-.44.25ZM169.23,126.17l-.45-.25c.33-.59.68-1.19,1-1.79l.44.27c-.22.6-.6,1.17-.93,1.76h-.06ZM241.09,125.47c-.36-.59-.73-1.16-1.11-1.73l.44-.28,1.11,1.73-.44.28ZM171.38,122.68l-.43-.29c.37-.56.77-1.13,1.18-1.7l.41.3c-.34.56-.73,1.12-1.1,1.68h-.06ZM238.83,122.04c-.39-.57-.79-1.13-1.19-1.68l.42-.3c.4.55.8,1.11,1.2,1.68l-.43.3ZM173.77,119.35l-.41-.32c.41-.54.84-1.08,1.29-1.62l.4.33c-.38.53-.81,1.06-1.22,1.6h-.06ZM236.41,118.72c-.42-.55-.85-1.08-1.28-1.61l.4-.32c.43.53.86,1.07,1.29,1.62l-.41.31ZM176.41,116.17l-.39-.34c.46-.53.92-1,1.37-1.54l.38.35c-.43.48-.89.99-1.34,1.52h-.02ZM233.85,115.54c-.46-.52-.91-1-1.37-1.52l.38-.36c.46.51.92,1,1.38,1.55l-.39.33ZM179.18,113.14l-.37-.36c.49-.5,1-1,1.47-1.46l.36.38c-.47.45-.95.93-1.44,1.43h-.02ZM231.06,112.53c-.49-.49-1-1-1.47-1.43l.35-.38c.5.47,1,1,1.49,1.45l-.37.36ZM182.14,110.3l-.34-.39,1.56-1.35.33.4c-.5.42-1.01.86-1.53,1.33h-.02ZM228.07,109.72c-.52-.45-1-.89-1.57-1.31l.32-.41c.54.43,1.07.88,1.59,1.33l-.34.39ZM185.29,107.72l-.31-.41c.56-.42,1.12-.84,1.67-1.22l.3.42c-.53.33-1.09.74-1.64,1.16l-.02.05ZM224.88,107.2c-.55-.41-1.11-.8-1.68-1.18l.29-.43c.57.38,1.14.78,1.69,1.19l-.3.42ZM188.65,105.38l-.27-.44c.59-.37,1.19-.72,1.78-1l.26.45c-.57.22-1.16.61-1.75.94l-.02.05ZM221.47,104.93c-.59-.35-1.19-.69-1.78-1l.24-.46c.6.32,1.21.66,1.8,1l-.26.46ZM192.23,103.39l-.23-.46c.62-.31,1.26-.6,1.89-.86l.2.48c-.6.21-1.23.45-1.84.79l-.02.05ZM217.85,103.03c-.62-.29-1.25-.55-1.88-.8l.19-.48c.64.25,1.28.52,1.91.81l-.22.47ZM196,101.77l-.17-.49c.66-.22,1.33-.43,2-.61l.13.5c-.63.17-1.29.38-1.96.6ZM214,101.51c-.65-.21-1.31-.39-2-.55l.12-.5c.67.16,1.34.35,2,.56l-.12.49ZM200,100.7l-.1-.51c.68-.13,1.37-.24,2-.33l.07.51c-.66.09-1.34.2-1.97.33ZM210.14,100.55c-.67-.11-1.35-.2-2-.27v-.51c.68.07,1.38.16,2.06.27l-.06.51ZM204.05,100.19v-.51c.7,0,1.39-.05,2.08,0v.51c-.75-.03-1.46-.03-2.13,0h.05Z"/>
      <path class="cls-1" d="M363.05,195.22l-.5-.1c.07-.33.12-.66.18-1l.51.08c-.06.35-.12.69-.19,1.02Z"/>
      <path class="cls-3" d="M193.72,271.63l4.67.3c.85.05,1.58-.59,1.64-1.44l.25-4c.06-.85-.58-1.58-1.43-1.64l-4.68-.3c-.71-.05-1.29-.57-1.41-1.27-.29-1.42-.75-2.79-1.38-4.09-.31-.63-.17-1.39.35-1.86l3.5-3.08c.64-.56.71-1.53.15-2.17,0,0,0,0,0,0l-2.62-3c-.55-.64-1.52-.7-2.16-.15,0,0,0,0-.01.01l-3.26,2.86c-.63.57-1.57.66-2.3.22-1.08-.68-2.23-1.25-3.43-1.69-.87-.33-1.41-1.19-1.34-2.11l.27-4.23c.05-.85-.59-1.58-1.44-1.63l-4-.26c-.85-.05-1.58.59-1.63,1.44l-.31,4.67c-.05.71-.57,1.29-1.27,1.41-1.41.29-2.78.76-4.08,1.38-.63.32-1.39.18-1.87-.34l-3.08-3.51c-.56-.64-1.53-.7-2.17-.14l-3,2.63c-.64.56-.7,1.53-.14,2.17l3.08,3.51c.46.53.5,1.31.1,1.89-.79,1.21-1.43,2.51-1.89,3.88-.22.67-.86,1.12-1.57,1.08l-4.67-.3c-.85-.05-1.58.59-1.63,1.44l-.26,4c-.05.85.59,1.58,1.44,1.63l4.67.3c.71.06,1.29.58,1.42,1.28.29,1.41.75,2.78,1.37,4.08.32.63.18,1.39-.34,1.86l-3.51,3.09c-.64.56-.7,1.53-.14,2.17l2.63,3c.56.64,1.53.7,2.17.14l3.51-3.08c.53-.46,1.31-.5,1.89-.11,1.21.79,2.51,1.43,3.88,1.89.67.22,1.12.86,1.08,1.57l-.31,4.67c-.05.85.59,1.58,1.44,1.64l4,.25c.85.06,1.58-.58,1.64-1.43l.3-4.68c.05-.71.57-1.29,1.27-1.41,1.42-.29,2.79-.75,4.09-1.38.63-.32,1.4-.18,1.87.35l3.08,3.5c.56.64,1.53.7,2.17.14l3-2.62c.64-.56.7-1.54.14-2.18l-3.08-3.5c-.46-.54-.5-1.32-.1-1.9.78-1.21,1.41-2.51,1.88-3.87.22-.67.87-1.11,1.57-1.07ZM169.08,275.33c-4.65-3.55-5.53-10.2-1.98-14.85,3.55-4.65,10.2-5.53,14.85-1.98,4.65,3.55,5.53,10.2,1.98,14.85-.85,1.11-1.91,2.04-3.12,2.74-3.71,2.14-8.33,1.84-11.73-.76h0Z"/>
      <path class="cls-3" d="M224,251.23l3,.19c.53,0,.96-.41,1-.93l.17-2.57c.03-.55-.38-1.02-.93-1.06l-3-.2c-.46-.03-.84-.37-.92-.82-.18-.92-.48-1.81-.89-2.65-.21-.41-.12-.9.22-1.21l2.28-2c.41-.36.45-1,.09-1.41l-1.71-1.94c-.36-.41-1-.45-1.41-.09l-2.11,1.86c-.41.37-1.02.43-1.49.14-.7-.44-1.44-.81-2.22-1.09-.56-.21-.91-.77-.87-1.37l.17-2.75c.03-.55-.38-1.02-.93-1.06l-2.57-.16c-.55-.03-1.02.38-1.06.93l-.2,3c-.03.46-.37.84-.83.92-.91.18-1.8.48-2.64.89-.41.21-.9.12-1.21-.22l-2-2.28c-.36-.41-1-.45-1.41-.09l-1.84,1.74c-.41.36-.45.99-.09,1.4l2,2.28c.3.35.32.85.06,1.23-.51.78-.92,1.63-1.22,2.51-.13.44-.54.73-1,.71l-3-.2c-.55-.03-1.02.38-1.06.93l-.17,2.58c-.03.55.39,1.03.94,1.06,0,0,0,0,0,0l3,.19c.46.03.84.37.92.83.19.92.49,1.81.89,2.65.21.4.12.9-.22,1.2l-2.28,2c-.41.36-.45,1-.09,1.41l1.7,1.94c.36.41,1,.45,1.41.09l2.28-2c.35-.29.85-.32,1.22-.06.79.51,1.63.92,2.52,1.22.43.14.72.55.7,1l-.2,3c-.03.55.38,1.02.93,1.06l2.58.16c.55.03,1.02-.38,1.06-.93l.19-3c.03-.46.37-.84.83-.92.92-.18,1.81-.48,2.65-.89.41-.21.9-.12,1.21.22l2,2.28c.36.41,1,.45,1.41.09l1.94-1.7c.41-.36.45-1,.09-1.41l-2-2.28c-.3-.35-.33-.85-.07-1.23.52-.78.93-1.62,1.23-2.51.14-.41.52-.68.95-.68ZM208,253.63c-3.01-2.3-3.59-6.62-1.29-9.63s6.62-3.59,9.63-1.29c3.01,2.3,3.59,6.62,1.29,9.63-.55.72-1.24,1.32-2.02,1.78-2.39,1.36-5.36,1.17-7.55-.49h-.06Z"/>
      <path class="cls-4" d="M35.7,225.51c.48,1,1.26,1,1.74,0l3.11-6.22c.53-1.16.82-2.41.87-3.68v-73.92c0-1.07-.86-1.93-1.93-1.93h-5.82c-1.07,0-1.94.87-1.94,1.94h0v73.91c.05,1.27.34,2.52.86,3.68l3.11,6.22Z"/>
      <path class="cls-4" d="M47.24,148.76v45.24c22-24.73,44,15.69,66-9.05v-45.24c-22,24.74-44-15.71-66,9.05Z"/>
      <path class="cls-4" d="M36.58,228.26c-6.93,0-12.55,1.89-12.55,4.22s5.62,4.22,12.55,4.22,12.54-1.89,12.54-4.22-5.62-4.22-12.54-4.22Z"/>
      <path class="cls-1" d="M30,230.91c-.7-.05-1.3-.5-1.53-1.16l.92-.46c.37.73.85.73,1.22,0l1-2,.92.46-1,2c-.23.66-.83,1.11-1.53,1.16ZM26.47,225.74l-1.82-3.65c-.17-.34-.31-.7-.43-1.06l1-.33c.11.31.23.62.38.92l1.82,3.66-.95.46ZM34.84,223.14l-.92-.46.52-1.06c.53-1.15.87-2.37,1-3.63l1,.1c-.14,1.38-.51,2.73-1.08,4l-.52,1.05ZM24.56,215.79h-1v-5.15h1v5.15ZM36.49,212.89h-1v-5.16h1v5.16ZM24.56,205.48h-1v-5.15h1v5.15ZM36.49,202.58h-1v-5.15h1v5.15ZM24.56,195.18h-1v-5.18h1v5.18ZM36.49,192.28h-1v-5.15h1v5.15ZM24.56,184.88h-1v-5.15h1v5.15ZM36.48,182h-1v-5.16h1v5.16ZM24.55,174.59h-1v-5.15h1v5.15ZM36.48,171.69h-1v-5.15h1v5.15ZM24.55,164.29h-1v-5.15h1v5.15ZM36.48,161.39h-1v-5.15h1v5.15ZM24.55,154h-1v-5.15h1v5.15ZM36.48,151.1h-1v-5.15h1v5.15ZM24.55,143.69h-1v-5.15h1v5.15ZM36.48,140.79h-1v-5.15h1v5.15ZM24.55,133.39h-1v-5.15h1v5.15ZM36.48,130.49h-1v-4.1c0-.28-.06-.55-.18-.8l.93-.44c.19.39.28.81.28,1.24l-.03,4.1ZM26.07,124.55l-.19-1c.18-.03.36-.05.54-.05h4.71v1h-4.71c-.12,0-.23,0-.35.02v.03Z"/>
      <path class="cls-1" d="M42.61,192.09v-5.52h1v3.3l.52.49-.65.72-.87,1.01ZM101.38,190.33c-1.74-.14-3.46-.4-5.16-.77l.21-1c1.65.37,3.32.62,5,.75l-.05,1.02ZM106.62,190.26l-.12-1c1.67-.18,3.32-.54,4.91-1.08l.33,1c-1.66.54-3.38.9-5.12,1.08ZM91.2,188.26c-1.43-.43-3-.94-4.92-1.62l.34-1c2,.69,3.46,1.18,4.88,1.62l-.3,1ZM116.51,186.94l-.51-.94c1.45-.88,2.83-1.89,4.11-3l.66.79c-1.33,1.16-2.75,2.21-4.26,3.13v.02ZM47.85,186.94l-.65-.8c1.35-1.12,2.79-2.13,4.31-3l.5.9c-1.46.82-2.86,1.77-4.16,2.83v.07ZM81.43,184.94c-1.34-.47-3.1-1.08-4.87-1.63l.31-1c1.78.55,3.55,1.17,4.9,1.64l-.34.99ZM56.63,182l-.3-1c1.68-.52,3.4-.85,5.15-1l.09,1c-1.68.16-3.33.49-4.94,1ZM71.63,181.91c-1.65-.39-3.32-.66-5-.83l.09-1c1.73.17,3.45.45,5.15.85l-.24.98ZM43.63,181.42h-1v-5.15h1v5.15ZM124.47,180.23l-.76-.69.12-.14v-4.58h1v5l-.36.41ZM43.63,171.12h-1v-5.12h1v5.12ZM124.86,169.67h-1v-5.15h1v5.15ZM43.63,160.81h-1v-5.15h1v5.15ZM124.86,159.37h-1v-5.15h1v5.15ZM43.63,150.51h-1v-5.15h1v5.15ZM124.86,149.07h-1v-5.15h1v5.15ZM43.63,140.21h-1v-5.35l.13-.15.51-.56.76.7c-.13.13-.25.26-.37.4l-.03,4.96ZM124.86,138.76h-1v-5.15h1v5.15ZM101.13,134.63c-1.73-.15-3.45-.42-5.15-.8l.22-1c1.65.38,3.32.64,5,.78l-.07,1.02ZM106.37,134.63l-.1-1c1.67-.15,3.32-.49,4.92-1l.32,1c-1.67.5-3.39.83-5.13.97v.03ZM91,132.49c-1.42-.43-2.93-.94-4.91-1.63l.34-1c2,.69,3.47,1.18,4.87,1.62l-.3,1.01ZM116.33,131.36l-.52-.89c1.46-.85,2.84-1.83,4.13-2.92l.66.79c-1.34,1.13-2.78,2.14-4.3,3.02h.03ZM47.7,131.36l-.66-.79c1.34-1.12,2.78-2.13,4.29-3l.51.89c-1.47.84-2.86,1.8-4.17,2.87l.03.03ZM81.24,129.17c-2-.7-3.48-1.2-4.87-1.63l.3-1c1.41.44,2.93,1,4.91,1.64l-.34.99ZM124.9,128.49h-1v-4.19l-.28-.25,1.31-1.46-.03,5.9ZM56.44,126.42l-.31-1c1.67-.52,3.4-.85,5.14-1l.1,1c-1.68.14-3.35.47-4.96.97l.03.03ZM71.44,126.21c-1.65-.38-3.32-.65-5-.8l.09-1c1.73.16,3.45.43,5.15.81l-.24.99Z"/>
      <path class="cls-1" d="M30,243.8c-1.21,0-2.42-.05-3.58-.14l.08-1c1.69.14,3.39.17,5.09.11v1c-.51.02-1.04.03-1.59.03ZM36.81,243.28l-.16-1c1.66-.26,3.29-.69,4.87-1.28l.38,1c-1.65.6-3.35,1.03-5.09,1.28ZM21.25,242.9c-1.75-.35-3.44-.96-5-1.82l.53-.88c1.47.8,3.04,1.37,4.68,1.69l-.21,1.01ZM45.94,238.3l-1-.09v-.12c0-1-1.13-2-3.1-2.79l.4-1c2.44,1,3.73,2.32,3.73,3.74,0,.09-.01.17-.03.26h0ZM15.65,236.88l-.75-.71c1.36-1.21,2.99-2.06,4.76-2.48l.29,1c-1.59.36-3.07,1.11-4.3,2.19h0ZM37,234c-1.65-.29-3.32-.47-5-.53v-1c1.74.07,3.47.25,5.19.54l-.19.99ZM25,233.72l-.12-1c1.73-.2,3.46-.3,5.2-.3v1c-1.72,0-3.45.09-5.16.28l.08.02Z"/>
      <path class="cls-7" d="M22.35,110.79l2.24-.53-.52-2.26.93-.22.53,2.25,2.25-.53.22.94-2.25.52.53,2.26-.93.22-.53-2.26-2.25.53-.22-.92Z"/>
      <path class="cls-7" d="M12.75,121.87c1.11-.26,2.23.42,2.49,1.54.26,1.11-.42,2.23-1.54,2.49-1.11.26-2.23-.42-2.49-1.54,0,0,0,0,0-.01-.26-1.11.42-2.22,1.53-2.48,0,0,0,0,0,0ZM13.54,125.22c.73-.23,1.13-1,.91-1.73-.2-.66-.86-1.06-1.54-.95-.75.12-1.26.83-1.14,1.58s.83,1.26,1.58,1.14c.06-.01.13-.03.19-.04Z"/>
      <path class="cls-2" d="M362.17,145.2c-1.42,0-2.57-1.14-2.58-2.56,0,0,0-.01,0-.02v-13.22c-.09-1.42.99-2.65,2.41-2.74,1.42-.09,2.65.99,2.74,2.41,0,.11,0,.21,0,.32v13.22c0,1.42-1.14,2.57-2.56,2.58,0,0,0,0-.01,0Z"/>
      <path class="cls-2" d="M363.69,190.8c-1.42,0-2.57-1.15-2.57-2.57h0v-13.23c-.09-1.42.99-2.65,2.41-2.74,1.42-.09,2.65.99,2.74,2.41,0,.11,0,.21,0,.32v13.23c0,1.42-1.16,2.57-2.58,2.57Z"/>
      <path class="cls-2" d="M375.3,152c-1.42,0-2.58-1.16-2.58-2.58,0-.81.38-1.57,1.03-2.06l10.61-7.9c1.09-.91,2.72-.77,3.63.32s.77,2.72-.32,3.63c-.07.06-.15.12-.23.17l-10.61,7.9c-.44.33-.98.51-1.53.51Z"/>
      <path class="cls-2" d="M347.8,152c-.55,0-1.09-.18-1.53-.51l-10.61-7.9c-1.19-.79-1.51-2.39-.73-3.58.79-1.19,2.39-1.51,3.58-.73.08.05.16.11.23.17l10.61,7.9c1.14.86,1.36,2.48.51,3.61-.49.65-1.25,1.03-2.06,1.03Z"/>
      <path class="cls-2" d="M386.5,175.36c-.4,0-.8-.1-1.16-.28l-11.81-6c-1.27-.64-1.77-2.19-1.13-3.46s2.19-1.77,3.46-1.13l11.8,6c1.27.65,1.78,2.2,1.13,3.47-.44.86-1.32,1.41-2.29,1.41h0Z"/>
      <path class="cls-2" d="M338.31,177.87c-1.42,0-2.58-1.13-2.59-2.55,0-.82.38-1.6,1.05-2.09l10.6-7.9c1.09-.91,2.72-.77,3.63.32s.77,2.72-.32,3.63c-.07.06-.15.12-.23.17l-10.61,7.9c-.44.33-.98.51-1.53.51Z"/>
    </g>
  </g>
</svg>