<svg xmlns="http://www.w3.org/2000/svg" xmlns:xlink="http://www.w3.org/1999/xlink" viewBox="0 0 400 400"><defs><style>.a{fill:none;}.b{clip-path:url(#a);}.c{fill:#d6e6f2;}.d{fill:#77addb;}.e{fill:#fafbfc;}.f{fill:#66aede;}.g{fill:#e9f0f7;}.h{fill:#94a5b3;}.i{fill:#dfe7f0;}.j{fill:#a4c9e7;}.k{fill:#f0f4f7;}.l{fill:#fff;}.m{fill:#6588ab;}.n{fill:#1a72ad;}</style><clipPath id="a"><rect class="a" width="400" height="400"/></clipPath></defs><g class="b"><path class="c" d="M390.51,232.05a79,79,0,0,0-79-79c-.27,0-.54,0-.82,0a108.76,108.76,0,0,0-209.35-39.19A98.63,98.63,0,0,0,75,305.57H323.25C361.15,299.77,390.51,271.57,390.51,232.05Z"/><path class="d" d="M352.7,327.11a10,10,0,0,1-10,9.94H92.84a10,10,0,0,1-10-9.94V158.6a10,10,0,0,1,10-9.94H342.72a10,10,0,0,1,10,9.94Z"/><path class="d" d="M342.72,149.73H92.84a8.9,8.9,0,0,0-8.91,8.87V323.82h267.7V158.6A8.9,8.9,0,0,0,342.72,149.73Z"/><rect class="e" x="93.38" y="162.45" width="248.79" height="154.7"/><path class="f" d="M83.93,327.11A8.9,8.9,0,0,0,92.84,336H342.72a8.9,8.9,0,0,0,8.91-8.87v-3.29H83.93Z"/><polygon class="g" points="382.81 331.33 217.78 331.33 52.75 331.33 52.75 333.01 382.81 333.01 382.81 331.33"/><path class="h" d="M217.78,338h120.1c34.68,0,44.93-5,44.93-5H52.75s10.26,5,44.93,5Z"/><path class="i" d="M217.78,331.33h-31.5V333c2.19.54,6.6.8,12.75.8h37.5c6.15,0,10.57-.26,12.75-.8v-1.68Z"/><path class="j" d="M217.78,338h120.1c34.68,0,44.93-5,44.93-5H52.75s10.26,5,44.93,5Z"/><path class="k" d="M158.15,313.35l99.68.4c6,0,10.93-5.13,10.95-11.52l.44-110.8.3-20.63-110.81-.44Z"/><rect class="l" x="169.05" y="201.35" width="87.91" height="90.14"/><path class="m" d="M174,217.66a1.28,1.28,0,0,0,1.23,1.32l36.54.14a1.31,1.31,0,0,0,0-2.62l-36.54-.14A1.28,1.28,0,0,0,174,217.66Z"/><path class="m" d="M218.57,219.15l19.55.08a1.29,1.29,0,0,0,1.24-1.31,1.27,1.27,0,0,0-1.23-1.31l-19.55-.08a1.31,1.31,0,0,0,0,2.62Z"/><path class="m" d="M242.57,217.93a1.28,1.28,0,0,0,1.23,1.32l6,0a1.27,1.27,0,0,0,1.24-1.3,1.29,1.29,0,0,0-1.23-1.32l-6,0A1.27,1.27,0,0,0,242.57,217.93Z"/><path class="m" d="M222,269.39a1.26,1.26,0,0,0,1.23,1.31l19.55.08a1.31,1.31,0,0,0,0-2.62l-19.55-.07A1.26,1.26,0,0,0,222,269.39Z"/><path class="m" d="M215.52,269.36a1.26,1.26,0,0,0-1.22-1.31l-6,0a1.31,1.31,0,0,0,0,2.61l6,0A1.27,1.27,0,0,0,215.52,269.36Z"/><path class="m" d="M204,270.63a1.31,1.31,0,0,0,0-2.62l-28.41-.11a1.27,1.27,0,0,0-1.24,1.3,1.29,1.29,0,0,0,1.23,1.32Z"/><path class="m" d="M175.2,229.28l16,.07a1.31,1.31,0,0,0,0-2.62l-16-.06a1.31,1.31,0,0,0,0,2.61Z"/><path class="m" d="M203.28,226.49l-7.18,0a1.56,1.56,0,0,0,0,3.12l7.19,0a1.56,1.56,0,0,0,0-3.11Z"/><path class="m" d="M235.09,228.1c0-.82-.46-1.49-1-1.49l-23.78-.09c-.57,0-1,.66-1,1.48s.46,1.49,1,1.49l23.78.1C234.62,229.59,235.08,228.92,235.09,228.1Z"/><path class="m" d="M250.64,227l-7.55,0a1.31,1.31,0,0,0,0,2.61l7.55,0a1.31,1.31,0,0,0,0-2.61Z"/><path class="m" d="M228.8,291.34l6,0a1.31,1.31,0,0,0,0-2.61l-6,0a1.31,1.31,0,0,0,0,2.62Z"/><path class="m" d="M203.12,288.62,176,288.51a1.31,1.31,0,0,0,0,2.62l27.17.11a1.31,1.31,0,0,0,0-2.62Z"/><path class="m" d="M247.53,288.8l-7.54,0a1.26,1.26,0,0,0-1.24,1.3,1.27,1.27,0,0,0,1.22,1.32l7.55,0a1.28,1.28,0,0,0,1.24-1.31A1.27,1.27,0,0,0,247.53,288.8Z"/><path class="m" d="M224.36,288.71l-16.21-.07a1.31,1.31,0,0,0,0,2.62l16.21.06a1.31,1.31,0,0,0,0-2.61Z"/><path class="m" d="M249.68,257.88l-6,0a1.31,1.31,0,0,0,0,2.62l6,0a1.31,1.31,0,0,0,0-2.62Z"/><path class="m" d="M238.78,257.84l-16.21-.06a1.31,1.31,0,0,0,0,2.61l16.21.07a1.31,1.31,0,0,0,0-2.62Z"/><path class="m" d="M199.79,260.3l11.83.05a1.31,1.31,0,0,0,0-2.62l-11.83,0a1.31,1.31,0,0,0,0,2.61Z"/><path class="m" d="M193.84,260.28a1.31,1.31,0,0,0,0-2.62l-18.76-.07a1.27,1.27,0,0,0-1.24,1.3,1.29,1.29,0,0,0,1.23,1.32Z"/><path class="m" d="M196.86,236.37a1.56,1.56,0,0,0,0,3.12l7.18,0a1.56,1.56,0,0,0,0-3.11Z"/><path class="m" d="M193.47,238.35a1.26,1.26,0,0,0-1.22-1.31L175.17,237a1.31,1.31,0,0,0,0,2.62l17.08.07A1.27,1.27,0,0,0,193.47,238.35Z"/><path class="m" d="M250.51,237.27l-16.22-.06a1.27,1.27,0,0,0-1.24,1.3,1.29,1.29,0,0,0,1.23,1.32l16.22.06a1.31,1.31,0,0,0,0-2.62Z"/><path class="m" d="M229.61,240.21a1.56,1.56,0,0,0,0-3.12l-7.18,0a1.56,1.56,0,0,0,0,3.12Z"/><path class="m" d="M216.7,239.56a1.56,1.56,0,0,0,0-3.11l-7.18,0a1.56,1.56,0,0,0,0,3.12Z"/><path class="m" d="M190.32,250l22.13.09c.56,0,1-.71,1-1.58s-.44-1.59-1-1.59l-22.13-.09c-.56,0-1,.71-1,1.58S189.76,250,190.32,250Z"/><path class="m" d="M175.6,247.28a1.31,1.31,0,0,0,0,2.62l7.54,0a1.31,1.31,0,0,0,0-2.62Z"/><path class="m" d="M232.78,247,218.12,247a1.24,1.24,0,0,0-1.12,1.34,1.23,1.23,0,0,0,1.11,1.34l14.66.06a1.23,1.23,0,0,0,1.12-1.33A1.25,1.25,0,0,0,232.78,247Z"/><path class="m" d="M249.15,250.19a1.31,1.31,0,0,0,0-2.62l-6,0a1.31,1.31,0,0,0,0,2.62Z"/><path class="j" d="M234.77,191H232.5a.46.46,0,0,0-.44.47v.09a.45.45,0,0,0,.44.47h2.27a.45.45,0,0,0,.44-.46v-.1A.46.46,0,0,0,234.77,191Z"/><path class="j" d="M232.46,189h2.27a.45.45,0,0,0,.44-.46v-.1a.46.46,0,0,0-.44-.47h-2.27a.44.44,0,0,0-.44.46v.09A.46.46,0,0,0,232.46,189Z"/><path class="j" d="M245.8,191l-4,0a.52.52,0,0,0,0,1h4a.51.51,0,0,0,0-1Z"/><path class="j" d="M257.08,188.16l-15.4-.06a.44.44,0,0,0,0,.88l15.4.06a.44.44,0,0,0,.42-.44A.43.43,0,0,0,257.08,188.16Z"/><path class="j" d="M241.79,183.07l15.4.06a.42.42,0,0,0,.42-.43.43.43,0,0,0-.41-.44l-15.4-.06a.42.42,0,0,0-.42.43A.43.43,0,0,0,241.79,183.07Z"/><path class="j" d="M189.69,194.68a.44.44,0,0,0,0-.88l-15.4-.06a.44.44,0,0,0,0,.88Z"/><path class="m" d="M185.93,208.43a.55.55,0,0,0,.54-.57V207a.54.54,0,0,0-.53-.57l-10.69,0a.56.56,0,0,0-.54.57v.92a.56.56,0,0,0,.54.57Z"/><path class="m" d="M188.27,207.1v.62a.7.7,0,0,0,.68.72l17.34.07a.71.71,0,0,0,.68-.72v-.61a.7.7,0,0,0-.68-.72L189,206.39A.69.69,0,0,0,188.27,207.1Z"/><path class="j" d="M174.3,192.66l15.4.07a.44.44,0,0,0,.42-.44.43.43,0,0,0-.41-.44l-15.4-.06a.43.43,0,0,0-.42.44A.42.42,0,0,0,174.3,192.66Z"/><path class="j" d="M257.31,183.85l-10.55,0a.36.36,0,0,0-.35.36v.15a.35.35,0,0,0,.34.36l10.55,0a.36.36,0,0,0,.35-.36v-.14A.36.36,0,0,0,257.31,183.85Z"/><path class="j" d="M257.37,185.44l-8.56,0a.33.33,0,0,0-.32.34V186a.33.33,0,0,0,.32.34l8.56,0a.33.33,0,0,0,.32-.34v-.25A.33.33,0,0,0,257.37,185.44Z"/><path class="j" d="M251.37,192a.49.49,0,0,0,.49-.51.5.5,0,0,0-.49-.51l-4,0a.52.52,0,0,0,0,1Z"/><path class="j" d="M256.85,191l-4,0a.5.5,0,0,0-.49.51.5.5,0,0,0,.48.52l4,0a.52.52,0,0,0,0-1Z"/><path class="m" d="M193.57,278.28a1.31,1.31,0,0,0,0,2.61l5.9,0a1.31,1.31,0,0,0,0-2.62Z"/><path class="m" d="M203.41,278.31a1.28,1.28,0,0,0-1.24,1.31,1.27,1.27,0,0,0,1.23,1.31l6,0a1.31,1.31,0,0,0,0-2.62Z"/><path class="m" d="M212.41,281l6,0a1.27,1.27,0,0,0,1.24-1.3,1.29,1.29,0,0,0-1.23-1.32l-6,0a1.31,1.31,0,0,0,0,2.62Z"/><path class="m" d="M228.66,279.72a1.24,1.24,0,0,0-1.16-1.31l-5.66,0a1.32,1.32,0,0,0,0,2.62l5.66,0A1.25,1.25,0,0,0,228.66,279.72Z"/><path class="m" d="M176.13,278.21a1.34,1.34,0,0,0,0,2.61l13.71.06a1.34,1.34,0,0,0,0-2.62Z"/><path class="m" d="M229.72,279.51v.43a1,1,0,0,0,1,1l15.95.07a1,1,0,0,0,1-1v-.44a1,1,0,0,0-1-1l-15.95-.06A1,1,0,0,0,229.72,279.51Z"/><path class="j" d="M184,301.13l-8.33,0a.45.45,0,0,0-.44.46.45.45,0,0,0,.43.47l8.33,0a.47.47,0,0,0,0-.93Z"/><path class="j" d="M247.54,301.7l-19.27-.08a.5.5,0,0,0-.49.51.52.52,0,0,0,.48.52l19.28.07a.51.51,0,0,0,.49-.51A.5.5,0,0,0,247.54,301.7Z"/><path class="j" d="M187.59,301.15H185.7a.52.52,0,0,0,0,1h1.88a.5.5,0,0,0,.49-.52A.49.49,0,0,0,187.59,301.15Z"/><path class="j" d="M198.58,301.09h-3.24a.46.46,0,0,0,0,.92h3.25a.44.44,0,0,0,.44-.46A.45.45,0,0,0,198.58,301.09Z"/><path class="j" d="M193.79,301.17l-4.8,0a.45.45,0,0,0-.43.47.44.44,0,0,0,.43.46l4.79,0a.45.45,0,0,0,.44-.46A.45.45,0,0,0,193.79,301.17Z"/><path class="j" d="M232.83,298.94a1.73,1.73,0,0,0,1.67,1.78l7.84,0a1.77,1.77,0,0,0,0-3.54l-7.84,0A1.73,1.73,0,0,0,232.83,298.94Z"/><path class="n" d="M169.54,218.31h-4.37V202.38a4.86,4.86,0,0,1,4.87-4.85h16.69v4.6H169.54Z"/><path class="n" d="M256.81,218.31h4.37V202.38a4.86,4.86,0,0,0-4.87-4.85H239.62v4.6h17.19Z"/><path class="n" d="M256.81,271.78h4.37v15.93a4.86,4.86,0,0,1-4.87,4.85H239.62V288h17.19Z"/><path class="n" d="M169.54,271.78h-4.37v15.93a4.86,4.86,0,0,0,4.87,4.85h16.69V288H169.54Z"/><path class="f" d="M161.5,189.19l2.06-.79-.79-2.07.86-.33.8,2.07,2.06-.8.33.86-2.06.8.79,2.06-.86.34-.79-2.07-2.07.79Z"/><path class="f" d="M153.83,201a2,2,0,1,1-1.14,2.56A2,2,0,0,1,153.83,201ZM155,204a1.32,1.32,0,0,0-1-2.47,1.32,1.32,0,0,0,1,2.47Z"/><path class="f" d="M269.73,291.51l1.25.1.1-1.25.52,0-.1,1.25,1.25.1,0,.52-1.25-.1-.1,1.26-.52,0,.1-1.26-1.25-.09Z"/><path class="f" d="M262.93,295.66a1.12,1.12,0,0,1-.17,2.24,1.14,1.14,0,0,1-1-1.21A1.12,1.12,0,0,1,262.93,295.66Zm-.15,1.86a.74.74,0,0,0,.81-.68.75.75,0,1,0-1.49-.12A.73.73,0,0,0,262.78,297.52Z"/></g></svg>