<svg xmlns="http://www.w3.org/2000/svg" xmlns:xlink="http://www.w3.org/1999/xlink" viewBox="0 0 400 400"><defs><style>.a{fill:none;}.b{clip-path:url(#a);}.c{fill:#d6e6f2;}.d{fill:#fff;}.e{fill:#124e77;}.f{fill:#dfe7f0;}.g{fill:#a4c9e7;}.h{fill:#66aede;}.i{fill:#ccd7e4;}.j{fill:#f0f4f7;}.k{fill:#6588ab;}</style><clipPath id="a"><rect class="a" width="400" height="400"/></clipPath></defs><g class="b"><path class="c" d="M387.57,225.83A77.55,77.55,0,0,0,310,148.27c-.27,0-.53,0-.8,0a106.83,106.83,0,0,0-205.64-38.5A96.87,96.87,0,0,0,77.7,298H321.51C358.74,292.34,387.57,264.64,387.57,225.83Z"/><path class="d" d="M51.71,222H205.86a0,0,0,0,1,0,0v95.22a19,19,0,0,1-19,19H51.71a0,0,0,0,1,0,0V222A0,0,0,0,1,51.71,222Z" transform="translate(-67.09 42.21) rotate(-14.81)"/><path class="e" d="M68.2,355.19,66,346.71l1.83-.49,2,7.58-.08,0,.25.91ZM87.71,350l-.48-1.82L95.64,346l.48,1.83Zm26.17-6.92-.49-1.82,8.41-2.23.49,1.83ZM140,336.19l-.48-1.82,8.41-2.23.48,1.83Zm26.17-6.92-.48-1.82,8.41-2.23.48,1.83Zm-105-.32L59,320.54l1.83-.48,2.22,8.41Zm131.12-6.6-.49-1.83,8.41-2.22.49,1.83Zm14.19-4.85-1.06-1.56a17,17,0,0,0,5.45-6.08l1.67.89A18.91,18.91,0,0,1,206.57,317.5ZM54.34,302.79l-2.22-8.41,1.83-.49,2.22,8.41Zm156.8-10-2.23-8.41,1.83-.48,2.22,8.41ZM47.42,276.62l-2.22-8.41,1.83-.48,2.22,8.41Zm156.8-10L202,258.17l1.83-.48L206,266.1ZM40.5,250.45l-2-7.5,2.74-.72.48,1.83-.91.24,1.5,5.67Zm156.8-10L195.07,232l1.83-.49,2.22,8.41ZM59.5,239.36,59,237.53l8.41-2.22.49,1.83Zm26.16-6.92-.48-1.83,8.41-2.22.48,1.83Zm26.17-6.92-.49-1.83,8.41-2.22.49,1.83ZM138,218.6l-.48-1.83,8.41-2.22.48,1.83Zm52.39-4.35-2.23-8.41,1.83-.48,2.22,8.41Zm-26.22-2.57-.48-1.83,8.41-2.22.48,1.83Z"/><circle class="f" cx="156.49" cy="243.87" r="16.68"/><path class="g" d="M69,353.9l-4.44-16.79,17.93-38.18a19.06,19.06,0,0,1,26.91-8.34l22.47,13.19a17.15,17.15,0,0,0,21.77-3.71L163.87,288a25,25,0,0,1,26.65-7.69l19.86,6.29,2.26,8.52a20.13,20.13,0,0,1-14.31,24.6Z"/><path class="h" d="M92.9,300.6a16.28,16.28,0,0,0-9.81-11,11.12,11.12,0,1,0-18.7,5A16.31,16.31,0,0,0,78.6,321l7.5,28.34L91.33,348l-7.49-28.35A16.33,16.33,0,0,0,92.9,300.6Z"/><path class="h" d="M120.64,300.76a13.93,13.93,0,0,0-8.38-9.41,9.43,9.43,0,0,0-.07-5.13,9.51,9.51,0,0,0-18.3,5.14,9.38,9.38,0,0,0,2.4,4.22,13.93,13.93,0,0,0,12.14,22.63l6.4,24.22,4.47-1.19L112.9,317A13.94,13.94,0,0,0,120.64,300.76Z"/><path class="i" d="M184.9,231s0,0,0-.06a9.45,9.45,0,0,0-18.52,3.56,6.17,6.17,0,0,0-1.75.21,6.44,6.44,0,0,0-4.58,7.87,6.23,6.23,0,0,0,.24.73,3,3,0,0,0,1.6,5.68l.23-.08h0l5-1.33,7.93-2.1,12-3.16a5.89,5.89,0,0,0,4.35-6.76A5.77,5.77,0,0,0,184.9,231Z"/><path class="j" d="M165.58,234.54a6.39,6.39,0,0,0-4.68,2.84,6.45,6.45,0,0,0,7.08,7.36,6.39,6.39,0,0,0,4.65-2.84,6.42,6.42,0,0,0-7-7.36Z"/><path class="j" d="M184.9,231s0,0,0-.06a9.44,9.44,0,0,0-16.66-3.31,9.42,9.42,0,0,0,.28,4.78,9.53,9.53,0,0,0,11.43,6.2,9.33,9.33,0,0,0,4.53-2.75,4.44,4.44,0,0,0,6.93,1.94,5.75,5.75,0,0,0-6.49-6.8Z"/><path class="d" d="M126.63,287.21,242.8,267.08c7-1.22,11.66-8.24,10.37-15.69L230.79,122.28l-3.91-24.09L97.75,120.57Z"/><path class="e" d="M126.8,288.14l-.33-1.86,8.57-1.49.33,1.86Zm26.66-4.62-.32-1.87,8.57-1.48L162,282Zm26.67-4.62-.32-1.87,8.57-1.48.32,1.86Zm26.67-4.63-.32-1.86,8.57-1.49.32,1.87Zm-84.05-4-1.49-8.58,1.86-.32,1.49,8.57Zm110.72-.66-.32-1.86,8.57-1.49.32,1.87Zm20.83-14.76-1.89-.12c0-.29,0-.59,0-.89a14,14,0,0,0-.2-2.32l-.9-5.18,1.87-.32.89,5.17a15.81,15.81,0,0,1,.23,2.65C254.33,254.22,254.32,254.56,254.3,254.89ZM118.12,243.64l-1.48-8.57,1.86-.33,1.49,8.57Zm130.09-15.35-1.49-8.57,1.86-.33,1.49,8.57ZM113.5,217,112,208.4l1.86-.33,1.48,8.58Zm130.08-15.35-1.48-8.57,1.86-.33,1.49,8.58ZM108.88,190.3l-1.49-8.57,1.87-.32,1.48,8.57ZM239,175l-1.48-8.57,1.86-.32,1.49,8.57Zm-134.7-11.32-1.49-8.57,1.87-.32,1.48,8.57Zm130.08-15.35-1.49-8.57,1.87-.32L236.2,148ZM99.64,137l-1.49-8.57,1.86-.32,1.49,8.57ZM229.73,121.6l-1.4-8.59,1.87-.3,1.39,8.59Zm-121.38-1.91-.32-1.86,8.57-1.49.32,1.87ZM135,115.07l-.33-1.86,8.58-1.49.32,1.86Zm26.67-4.62-.33-1.87,8.57-1.48.33,1.86Zm26.66-4.62L188,104l8.57-1.48.33,1.86ZM215,101.2l-.32-1.86,8.57-1.49.32,1.87Z"/><path class="k" d="M125.34,172.5a1.51,1.51,0,0,0,1.71,1.27l42.57-7.38a1.55,1.55,0,0,0-.53-3l-42.57,7.38A1.51,1.51,0,0,0,125.34,172.5Z"/><path class="k" d="M177.53,165l22.79-4a1.5,1.5,0,0,0,1.17-1.77,1.52,1.52,0,0,0-1.7-1.28L177,162a1.55,1.55,0,0,0,.53,3.05Z"/><path class="k" d="M205.23,158.65a1.52,1.52,0,0,0,1.7,1.28l7-1.22a1.55,1.55,0,0,0-.53-3.05l-7,1.22A1.5,1.5,0,0,0,205.23,158.65Z"/><path class="k" d="M192,222.81a1.51,1.51,0,0,0,1.7,1.28l22.79-4a1.55,1.55,0,0,0-.53-3L193.13,221A1.51,1.51,0,0,0,192,222.81Z"/><path class="k" d="M184.36,224.13a1.49,1.49,0,0,0-1.7-1.28l-7,1.22a1.55,1.55,0,0,0,.53,3.05l7-1.22A1.5,1.5,0,0,0,184.36,224.13Z"/><path class="k" d="M171.21,228a1.55,1.55,0,0,0-.53-3l-33.11,5.74a1.55,1.55,0,0,0,.53,3.05Z"/><path class="k" d="M129.13,185.78l18.68-3.23a1.55,1.55,0,0,0-.53-3.05l-18.68,3.23a1.55,1.55,0,0,0,.53,3.05Z"/><path class="k" d="M161.24,176.73l-8.36,1.45a1.85,1.85,0,0,0,.63,3.63l8.36-1.45a1.85,1.85,0,0,0-.63-3.63Z"/><path class="k" d="M198.62,172c-.17-1-.84-1.65-1.51-1.53l-27.71,4.8c-.66.12-1.07,1-.9,1.95s.84,1.64,1.5,1.52l27.72-4.8C198.38,173.86,198.79,173,198.62,172Z"/><path class="k" d="M216.49,167.5,207.7,169a1.55,1.55,0,0,0,.53,3l8.79-1.52a1.55,1.55,0,0,0-.53-3.05Z"/><path class="k" d="M204.37,247l7-1.22a1.55,1.55,0,0,0-.53-3l-7,1.22a1.5,1.5,0,0,0-1.18,1.77A1.52,1.52,0,0,0,204.37,247Z"/><path class="k" d="M173.9,249.11l-31.67,5.49a1.55,1.55,0,0,0,.53,3l31.67-5.48a1.56,1.56,0,0,0-.53-3.06Z"/><path class="k" d="M225.65,240.14l-8.79,1.53a1.55,1.55,0,0,0,.52,3.05l8.8-1.52a1.56,1.56,0,0,0-.53-3.06Z"/><path class="k" d="M198.65,244.82l-18.9,3.28a1.55,1.55,0,0,0,.53,3.05l18.9-3.27a1.56,1.56,0,0,0-.53-3.06Z"/><path class="k" d="M221.76,203.7l-7,1.22a1.55,1.55,0,0,0,.53,3.05l7-1.22a1.55,1.55,0,0,0-.53-3.05Z"/><path class="k" d="M209.07,205.9l-18.9,3.28a1.55,1.55,0,0,0,.53,3L209.59,209a1.5,1.5,0,0,0,1.18-1.77A1.52,1.52,0,0,0,209.07,205.9Z"/><path class="k" d="M164.16,216.83,178,214.44a1.55,1.55,0,0,0-.53-3.05l-13.79,2.39a1.55,1.55,0,0,0,.53,3.05Z"/><path class="k" d="M157.23,218a1.55,1.55,0,0,0-.52-3.05l-21.87,3.79a1.5,1.5,0,0,0-1.17,1.77,1.52,1.52,0,0,0,1.7,1.28Z"/><path class="k" d="M155.81,189.56a1.85,1.85,0,0,0,.63,3.63l8.37-1.45a1.85,1.85,0,0,0-.63-3.63Z"/><path class="k" d="M152.28,192.57a1.5,1.5,0,0,0-1.7-1.27l-19.9,3.44a1.55,1.55,0,0,0,.53,3l19.9-3.44A1.51,1.51,0,0,0,152.28,192.57Z"/><path class="k" d="M218.47,179.53l-18.89,3.27a1.55,1.55,0,0,0,.53,3L219,182.58a1.55,1.55,0,0,0-.53-3.05Z"/><path class="k" d="M194.75,187.26a1.85,1.85,0,0,0-.63-3.63l-8.37,1.45a1.85,1.85,0,0,0,.63,3.63Z"/><path class="k" d="M179.57,189.18a1.85,1.85,0,0,0-.63-3.63L170.57,187a1.85,1.85,0,0,0,.63,3.63Z"/><path class="k" d="M151,206.74l25.8-4.47c.64-.12,1-1,.85-2.05s-.85-1.76-1.49-1.64l-25.8,4.47c-.65.11-1,1-.85,2S150.35,206.85,151,206.74Z"/><path class="k" d="M133.31,206.66a1.55,1.55,0,0,0,.52,3.05l8.8-1.52a1.55,1.55,0,0,0-.53-3.05Z"/><path class="k" d="M199.84,194.53l-17.09,3a1.62,1.62,0,0,0,.54,3.13l17.09-3a1.62,1.62,0,0,0-.54-3.13Z"/><path class="k" d="M219.56,194.86a1.56,1.56,0,0,0-.53-3.06L212,193a1.55,1.55,0,0,0,.53,3Z"/><path class="k" d="M190.59,128.9l-2.65.46a.54.54,0,0,0-.42.63l0,.11a.54.54,0,0,0,.61.45l2.64-.45a.54.54,0,0,0,.42-.64l0-.11A.53.53,0,0,0,190.59,128.9Z"/><path class="k" d="M187.49,127.09l2.65-.46a.52.52,0,0,0,.41-.63l0-.11a.53.53,0,0,0-.6-.45l-2.65.46a.53.53,0,0,0-.41.63l0,.11A.53.53,0,0,0,187.49,127.09Z"/><path class="k" d="M203.43,126.61l-4.62.8a.6.6,0,0,0-.46.7.58.58,0,0,0,.66.5l4.63-.8a.6.6,0,0,0,.46-.7A.59.59,0,0,0,203.43,126.61Z"/><path class="k" d="M216,121,198,124.1a.51.51,0,0,0,.18,1L216.15,122a.51.51,0,0,0-.17-1Z"/><path class="k" d="M197.13,118.21l17.94-3.11a.49.49,0,0,0,.39-.59.51.51,0,0,0-.56-.43l-18,3.11a.52.52,0,0,0-.39.6A.5.5,0,0,0,197.13,118.21Z"/><path class="k" d="M138.86,142.49a.5.5,0,0,0,.39-.59.52.52,0,0,0-.57-.43l-18,3.11a.52.52,0,0,0,.18,1Z"/><path class="k" d="M137.31,159.28a.65.65,0,0,0,.51-.77l-.18-1.07a.66.66,0,0,0-.74-.55l-12.46,2.16a.65.65,0,0,0-.51.77l.18,1.07a.66.66,0,0,0,.74.55Z"/><path class="k" d="M139.76,157.26l.12.71a.84.84,0,0,0,.94.71l20.2-3.51a.82.82,0,0,0,.65-1l-.13-.72a.82.82,0,0,0-.93-.7l-20.21,3.5A.84.84,0,0,0,139.76,157.26Z"/><path class="k" d="M120.51,143.33l18-3.11a.52.52,0,0,0,.39-.6.5.5,0,0,0-.57-.42l-17.94,3.11a.49.49,0,0,0-.39.59A.51.51,0,0,0,120.51,143.33Z"/><path class="k" d="M215.35,115.92l-12.29,2.13a.42.42,0,0,0-.33.49l0,.17a.42.42,0,0,0,.48.35l12.29-2.13a.42.42,0,0,0,.33-.49l0-.17A.42.42,0,0,0,215.35,115.92Z"/><path class="k" d="M215.76,117.76l-10,1.73a.38.38,0,0,0-.3.45l.05.29a.38.38,0,0,0,.44.33l10-1.73a.39.39,0,0,0,.3-.46l-.05-.28A.39.39,0,0,0,215.76,117.76Z"/><path class="k" d="M210.13,126.68a.6.6,0,0,0-.2-1.19l-4.63.8a.59.59,0,0,0-.46.69.58.58,0,0,0,.66.5Z"/><path class="k" d="M216.3,124.38l-4.63.8a.6.6,0,0,0-.46.7.6.6,0,0,0,.67.5l4.63-.8a.61.61,0,0,0-.21-1.2Z"/><path class="k" d="M160.64,239a1.55,1.55,0,0,0,.53,3.05L168,240.9a1.55,1.55,0,0,0-.53-3.05Z"/><path class="k" d="M172.1,237.05a1.55,1.55,0,0,0,.53,3l7-1.21a1.55,1.55,0,0,0-.53-3Z"/><path class="k" d="M183.13,238.28l7-1.21a1.56,1.56,0,0,0-.53-3.06l-7,1.22a1.55,1.55,0,0,0,.52,3.05Z"/><path class="k" d="M201.8,233.48a1.47,1.47,0,0,0-1.62-1.29l-6.6,1.14a1.56,1.56,0,0,0,.53,3l6.6-1.14A1.47,1.47,0,0,0,201.8,233.48Z"/><path class="k" d="M140.31,242.56a1.43,1.43,0,0,0-.95,1.74,1.42,1.42,0,0,0,1.48,1.31l16-2.77a1.59,1.59,0,0,0-.53-3.05Z"/><path class="k" d="M203,233l.08.51a1.18,1.18,0,0,0,1.32,1l18.6-3.23a1.17,1.17,0,0,0,.91-1.37l-.09-.51a1.17,1.17,0,0,0-1.32-1l-18.59,3.22A1.17,1.17,0,0,0,203,233Z"/><path class="k" d="M154.17,267.65l-9.71,1.68a.53.53,0,0,0-.42.62.54.54,0,0,0,.61.45l9.7-1.68a.53.53,0,0,0,.42-.62A.53.53,0,0,0,154.17,267.65Z"/><path class="k" d="M228.33,255.16l-22.46,3.89a.6.6,0,0,0-.46.7.58.58,0,0,0,.66.5l22.47-3.89a.61.61,0,0,0-.21-1.2Z"/><path class="k" d="M158.4,266.91l-2.2.38a.6.6,0,0,0-.46.7.58.58,0,0,0,.66.5l2.21-.38a.6.6,0,0,0,.46-.7A.6.6,0,0,0,158.4,266.91Z"/><path class="k" d="M171.19,264.57l-3.78.66a.53.53,0,0,0-.42.62.53.53,0,0,0,.6.45l3.79-.65a.54.54,0,0,0,.41-.63A.53.53,0,0,0,171.19,264.57Z"/><path class="k" d="M165.62,265.66l-5.59,1a.54.54,0,0,0-.41.62.54.54,0,0,0,.6.46l5.59-1a.53.53,0,0,0,.41-.63A.53.53,0,0,0,165.62,265.66Z"/><path class="k" d="M210.63,255a2,2,0,0,0,2.3,1.73l9.14-1.58a2.1,2.1,0,0,0-.71-4.13l-9.14,1.58A2,2,0,0,0,210.63,255Z"/><path class="d" d="M198,139.81H332.11a0,0,0,0,1,0,0V296.65a25.84,25.84,0,0,1-25.84,25.84H198a0,0,0,0,1,0,0V139.81a0,0,0,0,1,0,0Z" transform="translate(61.97 -55.97) rotate(13.64)"/><path class="e" d="M285.35,331l-.63-.15-8.46-2.05.45-1.84,8.45,2.05.59.14Zm18.38-3-1-1.62a23.43,23.43,0,0,0,6.27-5.46l1.48,1.18A25.22,25.22,0,0,1,303.73,328Zm-45.32-3.49L250,322.46l.44-1.84,8.46,2.05Zm-26.3-6.38-8.46-2.05.45-1.84,8.46,2.05Zm-26.3-6.38-8.46-2.06.45-1.83,8.45,2.05Zm-26.31-6.39-2.31-.56,1.94-8,1.83.45-1.49,6.14.48.12Zm137.67-.61-1.84-.44,2.05-8.46,1.84.45ZM185.29,279.42l-1.83-.44,2-8.46,1.84.45Zm138.26-1-1.84-.45,2.05-8.45,1.84.45ZM191.68,253.12l-1.84-.45,2-8.45,1.84.44Zm138.25-1-1.84-.45,2.06-8.45,1.83.44ZM198.06,226.82l-1.84-.45,2.05-8.45,1.84.44Zm138.25-1-1.83-.44,2-8.46,1.84.45ZM204.44,200.51l-1.84-.44,2.05-8.46,1.84.45Zm138.26-1-1.84-.44,2.05-8.46,1.84.45ZM210.82,174.21l-1.84-.45,2.05-8.45,1.84.45Zm138.26-1-1.84-.45,2.05-8.45,1.84.44Zm-9-16.91-8.45-2.05.44-1.84,8.46,2.05ZM313.74,150l-8.46-2,.45-1.84,8.45,2.05Zm-96.54-2-1.84-.45,2.06-8.45,1.83.44Zm70.24-4.34-8.46-2,.45-1.84,8.45,2Zm-26.31-6.38-8.45-2.05.44-1.84,8.46,2Zm-26.3-6.38-8.45-2.05.44-1.84,8.46,2Z"/><rect class="k" x="262.43" y="194.23" width="2.79" height="90.82" rx="0.86" transform="translate(-31.26 439.53) rotate(-76.36)"/><path class="h" d="M297.86,196.49a17.4,17.4,0,1,0,12.81,21A17.41,17.41,0,0,0,297.86,196.49Zm13,17.78-17.07-.16,14.61-9.69A18.14,18.14,0,0,1,310.88,214.27Zm-11.1-16.85a16.45,16.45,0,0,1,8.31,6.56l-14.37,9.77Zm-6.06,17.06,17.11.4a12.58,12.58,0,0,1-.31,2,24.15,24.15,0,0,1-2.3,5.83Z"/><rect class="h" x="241.27" y="204.67" width="1.3" height="32.27" transform="translate(-29.7 403.85) rotate(-76.36)"/><path class="h" d="M237.2,185.72l-1.55-.37-7.3,30.08,3.77.92,6.76-27.87A2.28,2.28,0,0,0,237.2,185.72Z"/><path class="h" d="M243.77,178.66l-9.29,38.26,3.77.91,8.75-36a2.3,2.3,0,0,0-1.69-2.77Z"/><path class="h" d="M242.84,208.5l-2.39,9.87,3.77.91,1.85-7.64a2.29,2.29,0,0,0-1.68-2.76Z"/><path class="h" d="M254.13,186.64l-8,33.1,3.77.91,7.49-30.87a2.29,2.29,0,0,0-1.69-2.76Z"/><path class="h" d="M258.38,195.65l-6.2,25.56,3.77.92,5.66-23.35a2.28,2.28,0,0,0-1.68-2.76Z"/><path class="k" d="M240.8,150.92a1.37,1.37,0,0,0,1,1.66l39.78,9.5a1.4,1.4,0,0,0,1.67-1,1.37,1.37,0,0,0-1-1.66l-39.79-9.49A1.38,1.38,0,0,0,240.8,150.92Z"/><path class="k" d="M289,163.84l21.28,5.08a1.38,1.38,0,1,0,.64-2.69l-21.28-5.08a1.38,1.38,0,1,0-.64,2.69Z"/><path class="k" d="M315.44,168.73a1.39,1.39,0,0,0,1,1.66L323,172a1.38,1.38,0,0,0,.64-2.69l-6.57-1.57A1.4,1.4,0,0,0,315.44,168.73Z"/><path class="k" d="M239.3,163.17l17.45,4.16a1.37,1.37,0,0,0,1.66-1,1.39,1.39,0,0,0-1-1.67l-17.45-4.16a1.38,1.38,0,1,0-.64,2.69Z"/><path class="k" d="M270.57,167.47l-7.82-1.86a1.65,1.65,0,0,0-.77,3.2l7.82,1.86a1.65,1.65,0,0,0,.77-3.2Z"/><path class="k" d="M304.84,177.27a1.42,1.42,0,0,0-.76-1.8l-25.89-6.18c-.62-.15-1.29.42-1.49,1.26a1.42,1.42,0,0,0,.76,1.8l25.89,6.18C304,178.67,304.64,178.11,304.84,177.27Z"/><path class="k" d="M322.07,180.07l-8.22-2a1.38,1.38,0,1,0-.64,2.69l8.21,2a1.38,1.38,0,0,0,.65-2.69Z"/><rect class="h" x="213.44" y="251.39" width="90.96" height="4.76" transform="translate(65.6 -52.93) rotate(13.35)"/><rect class="k" x="257.86" y="284.65" width="45.48" height="0.17" transform="translate(-61.24 491.99) rotate(-76.65)"/><rect class="k" x="249.86" y="283.02" width="45.48" height="0.17" transform="translate(-65.81 482.96) rotate(-76.65)"/><rect class="k" x="265.35" y="286.63" width="45.48" height="0.17" transform="translate(-57.4 500.81) rotate(-76.65)"/><rect class="k" x="235.17" y="279.26" width="45.48" height="0.17" transform="translate(-73.45 465.78) rotate(-76.65)"/><rect class="k" x="220.59" y="275.8" width="45.48" height="0.17" transform="translate(-81.29 448.93) rotate(-76.65)"/><rect class="k" x="207.23" y="272.9" width="45.48" height="0.17" transform="translate(-88.75 433.7) rotate(-76.65)"/><rect class="k" x="248.83" y="256.38" width="0.2" height="89.15" transform="translate(-101.37 473.66) rotate(-76.65)"/><rect class="k" x="216.96" y="251.16" width="13.16" height="1.64" rx="0.26" transform="translate(64.23 -44.81) rotate(13.35)"/><rect class="k" x="215.23" y="258.43" width="13.16" height="1.64" rx="0.26" transform="translate(65.87 -44.22) rotate(13.35)"/><rect class="k" x="213.46" y="265.89" width="13.16" height="1.64" rx="0.26" transform="translate(67.54 -43.61) rotate(13.35)"/><rect class="k" x="211.78" y="272.99" width="13.16" height="1.64" rx="0.26" transform="translate(69.13 -43.02) rotate(13.35)"/><rect class="k" x="209.95" y="280.69" width="13.16" height="1.64" rx="0.26" transform="translate(70.86 -42.39) rotate(13.35)"/><rect class="k" x="208.08" y="288.56" width="13.16" height="1.64" rx="0.26" transform="translate(72.63 -41.75) rotate(13.35)"/><rect class="k" x="255.28" y="253.9" width="0.35" height="10.21" transform="translate(-55.55 447.74) rotate(-76.65)"/><rect class="k" x="255.02" y="254.98" width="0.35" height="10.21" transform="translate(-56.8 448.32) rotate(-76.65)"/><rect class="k" x="267.25" y="263.27" width="0.35" height="10.21" transform="translate(-55.45 466.59) rotate(-76.65)"/><rect class="k" x="266.99" y="264.35" width="0.35" height="10.21" transform="translate(-56.7 467.17) rotate(-76.65)"/><rect class="k" x="252.18" y="268.71" width="0.35" height="10.21" transform="translate(-72.33 456.11) rotate(-76.65)"/><rect class="k" x="251.93" y="269.79" width="0.35" height="10.21" transform="translate(-73.58 456.69) rotate(-76.65)"/><rect class="k" x="250.04" y="275.95" width="0.35" height="10.21" transform="translate(-81.03 459.6) rotate(-76.65)"/><rect class="k" x="249.79" y="277.04" width="0.35" height="10.21" transform="translate(-82.28 460.19) rotate(-76.65)"/><rect class="k" x="234.45" y="280.38" width="0.35" height="10.21" transform="translate(-97.33 447.84) rotate(-76.65)"/><rect class="k" x="234.19" y="281.47" width="0.35" height="10.21" transform="translate(-98.58 448.42) rotate(-76.65)"/><rect class="k" x="233.31" y="287.07" width="0.35" height="10.21" transform="translate(-104.71 451.87) rotate(-76.65)"/><rect class="k" x="233.05" y="288.15" width="0.35" height="10.21" transform="translate(-105.96 452.45) rotate(-76.65)"/><rect class="d" x="224.32" y="237.38" width="0.41" height="14.39" transform="translate(-65.29 406.55) rotate(-76.65)"/><rect class="d" x="224.09" y="238.35" width="0.41" height="14.39" transform="translate(-66.42 407.07) rotate(-76.65)"/><rect class="d" x="270.86" y="249.46" width="0.41" height="14.39" transform="translate(-41.25 461.12) rotate(-76.65)"/><rect class="d" x="223.81" y="239.51" width="0.41" height="14.39" transform="translate(-67.76 407.69) rotate(-76.65)"/><circle class="d" cx="243.18" cy="248.92" r="0.56"/><rect class="d" x="241.76" y="249.89" width="1.93" height="1.93" rx="0.3" transform="translate(64.49 -49.27) rotate(13.35)"/><circle class="d" cx="283" cy="258.19" r="0.56"/><rect class="d" x="281.57" y="259.17" width="1.93" height="1.93" rx="0.3" transform="translate(67.71 -58.22) rotate(13.35)"/><circle class="d" cx="240.97" cy="249.51" r="0.91"/><rect class="d" x="298.37" y="263.23" width="1.93" height="1.93" rx="0.3" transform="translate(69.1 -61.99) rotate(13.35)"/><circle class="d" cx="297.58" cy="262.85" r="0.91"/><circle class="d" cx="257.09" cy="252.1" r="0.56"/><circle class="d" cx="258.02" cy="253.38" r="0.56"/><circle class="d" cx="257.66" cy="254.89" r="0.56"/><rect class="d" x="255.13" y="252.95" width="1.93" height="1.93" rx="0.3" transform="translate(65.56 -52.28) rotate(13.35)"/><circle class="d" cx="254.92" cy="252.27" r="0.56"/><circle class="d" cx="253.94" cy="254.01" r="0.56"/><circle class="d" cx="292.2" cy="261.08" r="0.56"/><circle class="d" cx="289.1" cy="259.97" r="0.56"/><circle class="d" cx="288.11" cy="261.71" r="0.56"/><rect class="k" x="239.42" y="254.95" width="2.16" height="2.16" transform="translate(65.63 -48.62) rotate(13.35)"/><rect class="k" x="287.69" y="266.38" width="2.16" height="2.16" transform="translate(69.57 -59.46) rotate(13.35)"/><rect class="k" x="285.96" y="273.63" width="2.16" height="2.16" transform="translate(71.2 -58.86) rotate(13.35)"/><rect class="k" x="284.18" y="281.11" width="2.16" height="2.16" transform="translate(72.88 -58.25) rotate(13.35)"/><rect class="k" x="282.49" y="288.2" width="2.16" height="2.16" transform="translate(74.47 -57.67) rotate(13.35)"/><rect class="k" x="280.84" y="295.09" width="2.16" height="2.16" transform="translate(76.02 -57.1) rotate(13.35)"/><rect class="k" x="279.02" y="302.72" width="2.16" height="2.16" transform="translate(77.73 -56.47) rotate(13.35)"/><polygon class="k" points="295.72 269.34 296.02 269.41 296.46 270.42 298.26 268.14 298.57 268.22 296.5 271.05 296.19 270.97 295.72 269.34"/><polygon class="k" points="290.86 291.16 291.16 291.23 291.61 292.23 293.41 289.96 293.71 290.03 291.64 292.86 291.33 292.79 290.86 291.16"/><polygon class="k" points="289.03 298 289.33 298.07 289.77 299.08 291.57 296.8 291.88 296.88 289.81 299.7 289.5 299.63 289.03 298"/><polygon class="k" points="287.25 306.19 287.56 306.26 288 307.27 289.8 305 290.11 305.07 288.03 307.9 287.73 307.82 287.25 306.19"/><rect class="k" x="295.42" y="275.04" width="0.24" height="3.37" transform="translate(-101.24 196.18) rotate(-31.64)"/><rect class="k" x="293.95" y="276.63" width="3.37" height="0.24" transform="matrix(0.85, -0.52, 0.52, 0.85, -101.25, 196.28)"/><rect class="k" x="293.57" y="281.9" width="0.24" height="3.37" transform="translate(-105.11 196.23) rotate(-31.64)"/><rect class="k" x="292.1" y="283.49" width="3.37" height="0.24" transform="translate(-105.12 196.32) rotate(-31.65)"/><path class="h" d="M308,358.81l-3.6.67.68,3.61-1.51.28-.67-3.6-3.61.67-.28-1.51,3.61-.67-.68-3.61,1.5-.28.68,3.61,3.6-.68Z"/><path class="h" d="M324.09,341.92a3.28,3.28,0,1,1,2.63-3.83A3.28,3.28,0,0,1,324.09,341.92Zm-1-5.38a2.19,2.19,0,1,0,2.56,1.75A2.21,2.21,0,0,0,323.08,336.54Z"/><path class="h" d="M64.52,89.3,67.94,88l-1.31-3.42L68.05,84l1.32,3.42,3.42-1.32.55,1.43-3.42,1.32,1.32,3.43-1.43.55-1.32-3.43-3.42,1.31Z"/><path class="h" d="M51.8,108.82a3.28,3.28,0,1,1-1.89,4.24A3.27,3.27,0,0,1,51.8,108.82Zm2,5.1a2.19,2.19,0,1,0-2.83-1.25A2.18,2.18,0,0,0,53.76,113.92Z"/></g></svg>