<?xml version="1.0" encoding="UTF-8"?>
<svg xmlns="http://www.w3.org/2000/svg" version="1.1" xmlns:xlink="http://www.w3.org/1999/xlink" viewBox="0 0 181 181">
  <defs>
    <style>
      .cls-1 {
        stroke: #869cb3;
        stroke-miterlimit: 10;
        stroke-width: .4px;
      }

      .cls-1, .cls-2 {
        fill: #fff;
      }

      .cls-3 {
        fill: none;
      }

      .cls-4 {
        fill: #b0bbce;
      }

      .cls-5 {
        fill: #869cb3;
      }

      .cls-6 {
        fill: #e9f0f7;
      }

      .cls-7 {
        clip-path: url(#clippath);
      }
    </style>
    <clipPath id="clippath">
      <rect class="cls-3" width="181" height="181"/>
    </clipPath>
  </defs>
  <!-- Generator: Adobe Illustrator 28.7.1, SVG Export Plug-In . SVG Version: 1.2.0 Build 142)  -->
  <g>
    <g id="e">
      <g id="f">
        <rect class="cls-2" width="181" height="181"/>
        <g class="cls-7">
          <g id="h">
            <path id="i" class="cls-6" d="M181,90.5c0,50-40.5,90.5-90.5,90.5S0,140.5,0,90.5,40.5,0,90.5,0s90.5,40.5,90.5,90.5h0"/>
            <path id="j" class="cls-1" d="M144.2,148.2H36.8c-5.9,0-10.6-4.8-10.6-10.6h0V57.3h128.7v80.2c0,5.9-4.8,10.6-10.6,10.6h0Z"/>
            <path id="k" class="cls-1" d="M154.9,57.3l-20.5,14.7-36.9,26.6c-4.1,3-9.7,3-13.8,0l-37-26.6-20.5-14.7,20.5-14.7,15.2-10.9,21.8-15.6c4.1-3,9.7-3,13.9,0l21.8,15.6,15.2,10.9,20.5,14.7h0Z"/>
            <path id="l" class="cls-1" d="M134.4,31.7v40.3l-36.9,26.6c-4.1,3-9.7,3-13.8,0l-36.9-26.6V31.7h87.8,0Z"/>
            <path id="m" class="cls-5" d="M89.1,77.4c-.4,0-.8-.2-1.2-.4l-14.7-12.6c-.8-.7-.8-1.8-.2-2.5.7-.7,1.8-.8,2.5-.2l13.4,11.5,19.8-21.1c.7-.7,1.8-.8,2.6-.1.7.7.8,1.8.1,2.5h0s0,0,0,0l-21,22.4c-.3.4-.8.6-1.3.6"/>
            <path id="n" class="cls-4" d="M142.8,34.2c0,8.5-6.9,15.4-15.4,15.4s-15.4-6.9-15.4-15.4,6.9-15.4,15.4-15.4h0c8.5,0,15.4,6.9,15.4,15.4h0"/>
            <path id="o" class="cls-1" d="M127.1,28.3h-1.9c-.4,0-.8-.3-.8-.7,0-.4.3-.8.7-.8h3.2c.3,0,.6,0,.6.5v13.1c0,.5-.3.9-.8,1-.5,0-.9-.3-.9-.8h0c0-.1,0-12.2,0-12.2Z"/>
          </g>
        </g>
        <rect class="cls-3" width="181" height="181"/>
      </g>
    </g>
  </g>
</svg>