<svg id="Layer_2" data-name="Layer 2" xmlns="http://www.w3.org/2000/svg" xmlns:xlink="http://www.w3.org/1999/xlink" viewBox="0 0 400 400"><defs><style>.cls-1{fill:none;}.cls-2{clip-path:url(#clip-path);}.cls-3{fill:#f2f4f6;}.cls-4{clip-path:url(#clip-path-2);}.cls-5{fill:#bec8d2;}.cls-6{fill:#dee3e8;}.cls-7{fill:#fff;}.cls-8{fill:#eff1f4;}.cls-9{fill:#cacfd2;}.cls-10{fill:#f08e8c;}</style><clipPath id="clip-path"><rect class="cls-1" x="20.038" y="734.601" width="400" height="400"/></clipPath><clipPath id="clip-path-2"><rect class="cls-1" y="-0.608" width="400" height="400"/></clipPath></defs><g class="cls-2"><path class="cls-3" d="M33.809,111.511H245.938a0,0,0,0,1,0,0V341.4a30.65,30.65,0,0,1-30.65,30.65H33.809a0,0,0,0,1,0,0V111.511A0,0,0,0,1,33.809,111.511Z"/></g><g class="cls-4"><path class="cls-3" d="M48.875,100.875H261a0,0,0,0,1,0,0v229.89a30.65,30.65,0,0,1-30.65,30.65H48.875a0,0,0,0,1,0,0V100.875A0,0,0,0,1,48.875,100.875Z"/><path class="cls-5" d="M135.9,75.194s-.057-16.688,29.222-16.658c18.774.019,35.114-26.1,35.114-26.1l2.183,3.938S190.15,58.562,217.268,58.589c27.2.028,27.1,16.717,27.1,16.717Z"/><rect class="cls-6" x="78.081" y="58.883" width="215.25" height="284.746" transform="translate(0.311 -0.287) rotate(0.088)"/><path class="cls-7" d="M270.169,336.224l-185.216-.286L85.35,79A12.422,12.422,0,0,1,97.792,66.6l177.578.274a12.424,12.424,0,0,1,12.4,12.443l-.37,239.728A17.208,17.208,0,0,1,270.169,336.224Z"/><path class="cls-3" d="M133.1,72.29s-.057-16.689,29.222-16.659c18.774.02,8.368-22.937,8.368-22.937l29.2.03s-12.54,22.933,14.579,22.961c27.2.028,27.1,16.716,27.1,16.716Z"/><path class="cls-8" d="M142.073,134.151h-.007l-27.3-.042a4.556,4.556,0,0,1-4.543-4.557l.039-25.481a4.52,4.52,0,0,1,1.338-3.215,4.656,4.656,0,0,1,3.22-1.327l27.3.042a4.549,4.549,0,0,1,4.543,4.557l-.04,25.48a4.551,4.551,0,0,1-4.55,4.543Zm-27.261-32.8a2.728,2.728,0,0,0-2.729,2.725l-.04,25.48a2.734,2.734,0,0,0,2.726,2.735l27.3.042h0a2.73,2.73,0,0,0,2.73-2.726l.039-25.48a2.728,2.728,0,0,0-2.725-2.734l-27.3-.042Z"/><path class="cls-8" d="M141.988,188.751h-.006l-27.3-.043a4.548,4.548,0,0,1-4.543-4.557l.039-25.48a4.555,4.555,0,0,1,4.55-4.542h.008l27.3.042a4.555,4.555,0,0,1,4.543,4.556l-.039,25.481a4.551,4.551,0,0,1-4.551,4.543Zm0-1.82h0a2.733,2.733,0,0,0,2.73-2.726l.04-25.48a2.733,2.733,0,0,0-2.726-2.734l-27.3-.043h-.005a2.734,2.734,0,0,0-2.73,2.726l-.039,25.48a2.731,2.731,0,0,0,2.726,2.735Z"/><path class="cls-8" d="M144.092,302.735h-.007l-27.3-.042a4.549,4.549,0,0,1-4.543-4.557l.039-25.48a4.557,4.557,0,0,1,4.551-4.543h.007l27.3.043a4.549,4.549,0,0,1,4.543,4.556l-.039,25.481A4.556,4.556,0,0,1,144.092,302.735Zm-27.26-32.8a2.733,2.733,0,0,0-2.73,2.726l-.039,25.48a2.728,2.728,0,0,0,2.725,2.734l27.3.042h0a2.732,2.732,0,0,0,2.73-2.725l.04-25.48a2.73,2.73,0,0,0-2.726-2.734l-27.3-.043Z"/><path class="cls-8" d="M141.9,244.26H141.9l-27.3-.042a4.549,4.549,0,0,1-4.543-4.556l.039-25.481a4.549,4.549,0,0,1,4.55-4.542h.008l27.3.042a4.548,4.548,0,0,1,4.543,4.557l-.039,25.48A4.555,4.555,0,0,1,141.9,244.26Zm-27.262-32.8a2.73,2.73,0,0,0-2.729,2.726l-.04,25.48A2.73,2.73,0,0,0,114.6,242.4l27.3.043h0a2.733,2.733,0,0,0,2.729-2.726l.039-25.48a2.73,2.73,0,0,0-2.726-2.735l-27.3-.042Z"/><path class="cls-8" d="M155.508,110.628a.979.979,0,0,1-.006-1.958l104.082-.7h.007a.979.979,0,0,1,.007,1.958l-104.083.7Z"/><path class="cls-8" d="M156.844,120.177a.979.979,0,0,1-.007-1.958l104.083-.7h.006a.979.979,0,0,1,.007,1.958l-104.082.705Z"/><path class="cls-8" d="M156.3,129.186a.979.979,0,0,1-.007-1.958l104.083-.7h.007a.979.979,0,0,1,.006,1.958l-104.082.705Z"/><path class="cls-8" d="M157.072,162a.979.979,0,0,1-.007-1.958l104.082-.7h.007a.979.979,0,0,1,.007,1.958l-104.082.7Z"/><path class="cls-8" d="M158.407,171.547a.979.979,0,0,1-.006-1.958l104.082-.705h.006a.979.979,0,0,1,.007,1.958l-104.082.7Z"/><path class="cls-8" d="M157.861,180.556a.979.979,0,0,1-.007-1.958l104.082-.705h.007a.979.979,0,0,1,.007,1.958l-104.083.705Z"/><path class="cls-8" d="M158.1,215.25a.979.979,0,0,1-.006-1.958l104.082-.705h.007a.979.979,0,0,1,.007,1.958L158.1,215.25Z"/><path class="cls-8" d="M159.431,224.8a.979.979,0,0,1-.007-1.958l104.083-.705h.006a.979.979,0,0,1,.007,1.958l-104.082.705Z"/><path class="cls-8" d="M158.884,233.808a.979.979,0,0,1-.007-1.958l104.083-.7h.006a.979.979,0,0,1,.007,1.958l-104.082.7Z"/><path class="cls-8" d="M161.264,275.228a.979.979,0,0,1-.006-1.958l104.082-.7h.006a.979.979,0,0,1,.007,1.958l-104.082.7Z"/><path class="cls-8" d="M162.6,284.777a.979.979,0,0,1-.007-1.958l104.083-.705h.007a.979.979,0,0,1,.007,1.958l-104.083.7Z"/><path class="cls-8" d="M162.053,293.786a.979.979,0,0,1-.007-1.958l104.082-.7h.007a.979.979,0,0,1,.007,1.958l-104.082.7Z"/><circle class="cls-7" cx="187.052" cy="43.556" r="5.572"/><path class="cls-6" d="M129.6,132.64c-3.5-1-6.381-3.781-8.5-5.731-3.356-3.083-5.58-5.636-6.371-6.327l4.7-2.633c1.324,1.135,1.4,2.521,4.754,5.6a21.637,21.637,0,0,0,4.187,3.312,2.512,2.512,0,0,0,3.466-1.081c1.867-3.783,4.4-10.863,5.986-15.1,4.766-12.7,8.244-21.28,13.022-24.464l1.971,5.324c-3.268,2.167-7.339,13.087-10.328,21.062-5.075,13.59-7.721,20.018-12.837,20.039Z"/><path class="cls-6" d="M131.728,185.2c-3.5-1-6.381-3.781-8.5-5.73-3.356-3.083-5.58-5.637-6.371-6.327l4.7-2.634c1.323,1.136,1.4,2.521,4.754,5.6a21.624,21.624,0,0,0,4.187,3.313,2.514,2.514,0,0,0,3.466-1.082c1.867-3.782,4.4-10.862,5.986-15.1,4.766-12.7,8.244-21.28,13.022-24.464l1.971,5.324c-3.268,2.168-7.34,13.088-10.328,21.062-5.075,13.59-7.721,20.018-12.837,20.04Z"/><path class="cls-6" d="M131.728,241.819c-3.5-1-6.381-3.781-8.5-5.731-3.356-3.082-5.58-5.636-6.371-6.326l4.7-2.634c1.323,1.136,1.4,2.521,4.754,5.6a21.624,21.624,0,0,0,4.187,3.313,2.514,2.514,0,0,0,3.466-1.082c1.867-3.782,4.4-10.862,5.986-15.1,4.766-12.7,8.244-21.28,13.022-24.464l1.971,5.324c-3.268,2.168-7.34,13.088-10.328,21.062-5.075,13.59-7.721,20.018-12.837,20.04Z"/><path class="cls-6" d="M131.728,298.434c-3.5-1-6.381-3.781-8.5-5.731-3.356-3.082-5.58-5.636-6.371-6.326l4.7-2.634c1.323,1.136,1.4,2.521,4.754,5.6a21.624,21.624,0,0,0,4.187,3.313,2.514,2.514,0,0,0,3.466-1.082c1.867-3.782,4.4-10.862,5.986-15.1,4.766-12.7,8.244-21.28,13.022-24.464l1.971,5.324c-3.268,2.168-7.34,13.087-10.328,21.062-5.075,13.59-7.721,20.018-12.837,20.04Z"/><path class="cls-3" d="M333.705,333.608a17.99,17.99,0,0,0-14.8-17.7V302.5c0-2.432-12.365-4.4-27.618-4.4s-27.617,1.97-27.617,4.4v69.883h.282c1.906,2.135,13.415,3.777,27.335,3.777s25.43-1.642,27.335-3.777h.283V351.312A17.992,17.992,0,0,0,333.705,333.608Zm-14.8,11.844V321.765a12.491,12.491,0,0,1,0,23.687Z"/><path class="cls-9" d="M311.84,363.2l-.01-1.5c2.012-.013,4.024-.053,5.98-.12l.052,1.5C315.891,363.151,313.865,363.191,311.84,363.2Zm-7.026-.067c-2.046-.052-4.072-.134-6.02-.243l.084-1.5c1.933.108,3.943.189,5.974.241Zm20.067-.423-.107-1.5c2.085-.15,4.085-.335,5.945-.547l.171,1.49C329.009,362.376,326.987,362.562,324.881,362.714Zm-33.1-.358c-2.158-.216-4.175-.47-6-.755l.232-1.482c1.793.281,3.783.531,5.913.744Zm46.093-1.249-.292-1.472a26.85,26.85,0,0,0,5.592-1.6l.623,1.364A28.211,28.211,0,0,1,337.873,361.107Zm-59.037-1.031a9.546,9.546,0,0,1-3.382-1.657h-.8v-2.641h1.5v1.2l.168.188a6.912,6.912,0,0,0,2.972,1.478Zm67.357-7.12h-1.5v-6h1.5Zm-70.039-4.178h-1.5v-6h1.5Zm70.039-8.822h-1.5v-6h1.5Zm-70.039-4.178h-1.5v-6h1.5Zm73.4-5.164-.52-1.408a21.961,21.961,0,0,0,5.117-2.7l.868,1.224A23.582,23.582,0,0,1,349.558,330.614Zm-4.865-6.045v-7.043h1.5v4.918a15.115,15.115,0,0,0,2.87-1.58l.862,1.228a16.578,16.578,0,0,1-4.244,2.145Zm-68.539-1.791h-1.5v-6h1.5Zm84.04-.057-1.2-.906a22.016,22.016,0,0,0,2.86-5.028l1.39.564A23.555,23.555,0,0,1,360.194,322.721Zm-5.37-6-1.3-.745a14.944,14.944,0,0,0,1.834-5.375l1.485.207A16.418,16.418,0,0,1,354.824,316.722Zm-8.631-6.2h-1.5v-6h1.5Zm18.7-.185-1.5-.115c.044-.568.066-1.146.066-1.718a22.149,22.149,0,0,0-.753-5.735l1.448-.389a23.612,23.612,0,0,1,.8,6.124C364.965,309.118,364.941,309.734,364.894,310.341Zm-88.74-.563h-1.5v-6h1.5Zm78.664-5.768a15,15,0,0,0-2.689-5l1.164-.947a16.475,16.475,0,0,1,2.956,5.5Zm-8.625-6.484h-1.5v-5.078l.988.332a16.754,16.754,0,0,1,1.906.775l-.65,1.352c-.244-.118-.493-.229-.744-.334Zm-70.039-.748h-1.5v-6h1.5Zm83.827-.169a22.175,22.175,0,0,0-3.737-4.418l1.009-1.11a23.683,23.683,0,0,1,3.99,4.717Zm-9.357-8.141a21.932,21.932,0,0,0-5.314-1.669l-.617-.111v-.85h.79l.092-.516a23.45,23.45,0,0,1,5.677,1.784Zm-74.47-4.69h-1.5v-6h1.5Zm70.039-4.94h-1.5v-6h1.5Zm-70.039-8.06h-1.5v-1.722c0-1.218,1.21-2.2,3.809-3.079l.482,1.421c-2.208.75-2.791,1.412-2.791,1.658Zm66.7-3.024a30.187,30.187,0,0,0-5.636-1.529l.283-1.473a31.467,31.467,0,0,1,5.93,1.618Zm-57.209-1.883-.239-1.481c1.816-.292,3.833-.553,6-.775l.153,1.492C289.42,265.326,287.432,265.583,285.644,265.871Zm44.7-.652c-1.871-.207-3.872-.386-5.948-.531l.105-1.5c2.1.146,4.117.326,6.009.537Zm-31.845-.662-.087-1.5c1.948-.113,3.973-.2,6.02-.255l.041,1.5C302.445,264.36,300.435,264.445,298.5,264.557Zm18.931-.221c-1.962-.064-3.974-.1-5.98-.11l.007-1.5c2.02.01,4.047.047,6.022.111Z"/><path class="cls-9" d="M301.417,256.1c-.463,0-1.971-.171-1.971-2.366a8.241,8.241,0,0,1,.34-2.125l1.446.4a6.792,6.792,0,0,0-.286,1.726c0,.866.295.866.471.866a2.781,2.781,0,0,0,1.273-.436l.728,1.311A4.243,4.243,0,0,1,301.417,256.1Zm7.2-5.744-1.233-.855a21.927,21.927,0,0,0,2.65-5.143l1.416.5A23.521,23.521,0,0,1,308.612,250.36Zm-8.624-5.221a16.138,16.138,0,0,0-2.761-4.987l1.207-.891a18.055,18.055,0,0,1,2.992,5.449Zm11.017-7.353a13.5,13.5,0,0,0-1.545-5.428l1.326-.7a14.98,14.98,0,0,1,1.715,6.027Zm-18.03-3.189c-1.263-1.712-2.372-3.355-3.389-5.024l1.28-.781c1,1.631,2.08,3.238,3.316,4.915Zm12.7-8.1a48.6,48.6,0,0,1-2.618-5.506l1.391-.563a47.109,47.109,0,0,0,2.535,5.335Zm-19.433-3.158c-.817-1.739-1.593-3.582-2.308-5.477l-.039-.105,1.406-.525.038.1c.7,1.855,1.461,3.661,2.261,5.365Zm14.5-9.036c-.544-1.847-1.057-3.818-1.524-5.857l1.462-.335c.46,2.009.965,3.95,1.5,5.768Zm-18.6-3.484a27.068,27.068,0,0,1-.223-3.439,25.57,25.57,0,0,1,.144-2.719l1.491.159a24.178,24.178,0,0,0-.135,2.56,25.368,25.368,0,0,0,.211,3.248Zm15.7-9.289c-.33-1.933-.631-3.943-.895-5.973l1.487-.194c.261,2.011.56,4,.887,5.914Zm-12.633-3.268-1.39-.565a28.957,28.957,0,0,1,2.926-5.409l1.238.847A27.4,27.4,0,0,0,285.213,198.264Zm10.985-9.711c-.139-1.63-.227-2.741-.273-3.509a33.224,33.224,0,0,0-3.493,2.9l-1.033-1.087a30.691,30.691,0,0,1,4.839-3.831h0l1.149.933c.03.638.115,2.225.305,4.465Z"/><path class="cls-9" d="M325.257,255.533a1.37,1.37,0,0,1-1.36-1.558,4.386,4.386,0,0,1,.183-1.162l1.446.4a2.938,2.938,0,0,0-.129.76v.033a5.832,5.832,0,0,0,2.257-1.985l1.194.909C327.891,254.188,326.444,255.533,325.257,255.533Zm-2.689-8.518q-.286-.376-.6-.779a41.6,41.6,0,0,1-2.942-4.149l1.28-.78a40.189,40.189,0,0,0,2.845,4.005c.214.275.419.538.613.792Zm7.109-.992a6.512,6.512,0,0,0-1.351-3.534,16.324,16.324,0,0,1-1.007-1.5l1.288-.769a14.9,14.9,0,0,0,.914,1.364,7.981,7.981,0,0,1,1.652,4.338Zm-13.708-10.4a14.978,14.978,0,0,1-.836-4.828,13.355,13.355,0,0,1,.074-1.4l1.491.159a11.938,11.938,0,0,0-.065,1.241,13.483,13.483,0,0,0,.756,4.344Zm8.593-1.262a55.92,55.92,0,0,1-1.372-5.93l1.477-.264a54.2,54.2,0,0,0,1.334,5.77ZM319.127,223.5l-1.21-.886a17.369,17.369,0,0,1,4.558-4.314l1.089-.652.047,1.268c0,.01.034.911.158,2.373l-1.494.127c-.035-.4-.062-.76-.084-1.073A16.568,16.568,0,0,0,319.127,223.5Z"/><path class="cls-9" d="M313.112,273.436l-.014-1.5c2.015-.02,4.028-.063,5.982-.129l.051,1.5C317.165,273.372,315.14,273.416,313.112,273.436Zm-7.02-.021c-2.039-.033-4.063-.09-6.017-.169l.06-1.5c1.942.079,3.955.135,5.981.168Zm20.057-.454-.1-1.5c2.1-.139,4.1-.307,5.953-.5l.154,1.492C330.287,272.652,328.265,272.821,326.149,272.961Zm-33.091-.115c-2.141-.161-4.162-.352-6.006-.568l.175-1.49c1.823.214,3.823.4,5.944.562Zm46.1-1.358-.275-1.474c3.392-.631,4.834-1.234,5.447-1.628l.812,1.261A18.561,18.561,0,0,1,339.153,271.488Zm-59.088-.332a21.939,21.939,0,0,1-3.1-.894l.545-1.4a20.489,20.489,0,0,0,2.883.829Z"/><path class="cls-10" d="M323.533,190l-.4-2.729-2.728.395-.165-1.14,2.729-.4-.395-2.728,1.14-.165.395,2.729,2.735-.4.165,1.14-2.736.4.395,2.729Z"/><path class="cls-10" d="M335.725,202.59a2.47,2.47,0,1,1,2.8,2.091A2.473,2.473,0,0,1,335.725,202.59ZM339.8,202a1.647,1.647,0,1,0-1.394,1.866A1.648,1.648,0,0,0,339.8,202Z"/><path class="cls-10" d="M235.518,359.55l-.582-4.025-4.025.582-.243-1.681,4.025-.582-.582-4.025,1.681-.243.582,4.025,4.035-.584.243,1.681-4.035.584.582,4.025Z"/><path class="cls-10" d="M253.5,378.12a3.644,3.644,0,1,1,4.128,3.085A3.648,3.648,0,0,1,253.5,378.12Zm6.011-.869A2.429,2.429,0,1,0,257.453,380,2.433,2.433,0,0,0,259.51,377.251Z"/></g></svg>