<svg id="Ebene_1" data-name="Ebene 1" xmlns="http://www.w3.org/2000/svg" xmlns:xlink="http://www.w3.org/1999/xlink" viewBox="0 0 174.51 133.16"><defs><style>.cls-1,.cls-11,.cls-12,.cls-14{fill:none;}.cls-2{clip-path:url(#clip-path);}.cls-3{fill:#dfe3e8;}.cls-10,.cls-4,.cls-6{fill:#fff;}.cls-4{stroke:#eff1f4;stroke-width:0.3px;}.cls-14,.cls-4,.cls-6{stroke-miterlimit:10;}.cls-5{fill:#f7f8f9;}.cls-6{stroke:#f7f8f9;stroke-width:0.3px;}.cls-7{fill:#e7eaec;}.cls-8{fill:#f1c9c7;}.cls-9{fill:#eff1f3;}.cls-11,.cls-12,.cls-14{stroke:#dfe3e8;}.cls-11{stroke-miterlimit:10;stroke-width:0.73px;}.cls-12{stroke-miterlimit:10;stroke-width:0.73px;}.cls-13{fill:#ebb1ae;}.cls-14{stroke-linecap:round;stroke-width:0.79px;}</style><clipPath id="clip-path"><rect class="cls-1" x="-32.68" y="-9.09" width="250" height="150"/></clipPath></defs><title>Taskliste empty state</title><g id="Layer_2" data-name="Layer 2"><g id="Layer_1-2" data-name="Layer 1-2"><g class="cls-2"><path class="cls-3" d="M102.69,36h60.42a11.2,11.2,0,0,1,11.2,11.2V105a6.91,6.91,0,0,1-6.91,6.91h-69A6.91,6.91,0,0,1,91.49,105h0V47.19A11.19,11.19,0,0,1,102.69,36Z"/><path class="cls-3" d="M174.36,44.68v1.84a11.4,11.4,0,0,0-11.25-11.35H102.69A11.51,11.51,0,0,0,91.33,46.52V44.68a11.65,11.65,0,0,1,11.51-11.49H163A11.54,11.54,0,0,1,174.36,44.68Z"/><path class="cls-4" d="M174.36,46.3v56.54a7.25,7.25,0,0,1-7.05,7.21H98.49a7.35,7.35,0,0,1-7.16-7.21V46.3A11.51,11.51,0,0,1,102.69,35h60.42A11.4,11.4,0,0,1,174.36,46.3Z"/><path class="cls-5" d="M174.36,46.3v8.25h-83V46.3A11.51,11.51,0,0,1,102.69,35h60.42A11.4,11.4,0,0,1,174.36,46.3Z"/><ellipse class="cls-3" cx="103.91" cy="58.83" rx="1.95" ry="2.03"/><ellipse class="cls-3" cx="103.91" cy="46.53" rx="2.1" ry="2.19"/><ellipse class="cls-3" cx="161.83" cy="58.83" rx="1.95" ry="2.03"/><ellipse class="cls-3" cx="161.83" cy="46.53" rx="2.1" ry="2.19"/><rect class="cls-6" x="102.45" y="45.51" width="2.92" height="14.29" rx="1.42"/><path class="cls-6" d="M161.79,45.51h.09a1.41,1.41,0,0,1,1.41,1.41V58.39a1.42,1.42,0,0,1-1.42,1.42h-.09a1.41,1.41,0,0,1-1.41-1.41V46.93A1.42,1.42,0,0,1,161.79,45.51Z"/><path class="cls-7" d="M167.32,89l-19.59,20.6a39.18,39.18,0,0,0,.75-5.9c0-1.45-.29-2.71-.39-4.79-.28-5.84,3.1-7.32,4.69-8.18,2.45-1.33,6.46-.35,8.87-.5C162.67,90.19,166.56,90,167.32,89Z"/><path class="cls-5" d="M173.82,87.73l-26.08,21.9a44.41,44.41,0,0,0,1.55-6.83c.16-1.7-.06-3.21.05-5.66.3-6.86,4.56-8.21,6.6-9,3.11-1.28,7.89.33,10.84.42C168,88.56,172.78,88.8,173.82,87.73Z"/><rect class="cls-5" x="100.04" y="65.39" width="11.05" height="7.16" rx="1.24"/><rect class="cls-5" x="100.04" y="78.14" width="11.05" height="7.16" rx="1.24"/><rect class="cls-5" x="117.62" y="78.14" width="11.05" height="7.16" rx="1.24"/><rect class="cls-5" x="135.2" y="78.14" width="11.05" height="7.16" rx="1.24"/><rect class="cls-5" x="152.44" y="78.14" width="11.05" height="7.16" rx="1.24"/><rect class="cls-5" x="100.04" y="90.89" width="11.05" height="7.16" rx="1.24"/><rect class="cls-5" x="117.62" y="90.89" width="11.05" height="7.16" rx="1.24"/><rect class="cls-5" x="135.2" y="90.89" width="11.05" height="7.16" rx="1.24"/><rect class="cls-5" x="117.62" y="65.39" width="11.05" height="7.16" rx="1.24"/><rect class="cls-5" x="135.2" y="65.39" width="11.05" height="7.16" rx="1.24"/><rect class="cls-5" x="152.78" y="65.39" width="11.05" height="7.16" rx="1.24"/><path class="cls-8" d="M24,23.2s-1.74-6.46,9.61-9.47C40.91,11.81,44.55,0,44.55,0L45.8,1.3s-2.47,9.86,8.05,7.08,12.22,3.69,12.22,3.69Z"/><rect class="cls-9" x="13.15" y="9.83" width="86.32" height="114.19" transform="translate(-15.23 16.61) rotate(-14.8)"/><path class="cls-10" d="M8.37,23.8,77.22,5.61a5,5,0,0,1,6.09,3.54h0l24.56,92.95a6.9,6.9,0,0,1-4.91,8.43h0l-71.82,19h0L4.82,29.89A5,5,0,0,1,8.37,23.8Z"/><rect class="cls-11" x="18.49" y="33.54" width="13.87" height="13.14" rx="1.46" transform="translate(-9.4 7.82) rotate(-14.8)"/><rect class="cls-12" x="24.06" y="54.75" width="13.87" height="13.14" rx="1.46" transform="translate(-14.61 9.93) rotate(-14.77)"/><rect class="cls-11" x="36.64" y="98.67" width="13.87" height="13.14" rx="1.46" transform="translate(-25.44 14.62) rotate(-14.8)"/><rect class="cls-11" x="29.77" y="76.23" width="13.87" height="13.14" rx="1.46" transform="translate(-19.93 12.12) rotate(-14.8)"/><path class="cls-13" d="M22.64,22.36S20.9,15.9,32.25,12.9c7.28-1.93.88-9.76.88-9.76l11.32-3s-2.5,10.18,8,7.4,12.22,3.69,12.22,3.69Z"/><line class="cls-14" x1="35.17" y1="34.53" x2="75.44" y2="23.54"/><line class="cls-14" x1="36.67" y1="38.1" x2="76.94" y2="27.1"/><line class="cls-14" x1="37.39" y1="41.65" x2="77.66" y2="30.65"/><line class="cls-14" x1="41.07" y1="54.28" x2="81.34" y2="43.28"/><line class="cls-14" x1="42.57" y1="57.85" x2="82.84" y2="46.85"/><line class="cls-14" x1="43.29" y1="61.39" x2="83.56" y2="50.4"/><line class="cls-14" x1="46.96" y1="74.82" x2="87.22" y2="63.82"/><line class="cls-14" x1="48.46" y1="78.38" x2="88.72" y2="67.38"/><line class="cls-14" x1="49.17" y1="81.93" x2="89.44" y2="70.93"/><line class="cls-14" x1="54.36" y1="97.74" x2="94.63" y2="86.74"/><line class="cls-14" x1="55.87" y1="101.3" x2="96.13" y2="90.3"/><line class="cls-14" x1="56.58" y1="104.85" x2="96.85" y2="93.85"/><circle class="cls-10" cx="40.59" cy="5.67" r="2.23"/></g></g></g></svg>