<svg xmlns="http://www.w3.org/2000/svg" xmlns:xlink="http://www.w3.org/1999/xlink" viewBox="0 0 250 180"><defs><style>.a,.e{fill:none;}.b{isolation:isolate;}.c{fill:#fff;}.d{opacity:0.44;}.e{stroke:#7c7c7c;stroke-miterlimit:10;stroke-width:0.5px;}.f{clip-path:url(#a);}.g{fill:#f2f2f2;}.h{fill:#dedede;}.i{clip-path:url(#b);}.j{clip-path:url(#c);}.k{clip-path:url(#d);}.l{fill:#bfbfbf;}.m{fill:#4b4b4b;}.n{fill:#5e5e5e;}.o{fill:#9e9e9e;}.p{fill:#404040;}.q{fill:#77addb;mix-blend-mode:color;}</style><clipPath id="a"><circle class="a" cx="54.86" cy="49.58" r="13.94"/></clipPath><clipPath id="b"><rect class="a" x="157.52" y="100.59" width="36.22" height="18.75" rx="5.62"/></clipPath><clipPath id="c"><rect class="a" x="63.46" y="116.85" width="36.22" height="18.75" rx="5.62"/></clipPath><clipPath id="d"><rect class="a" x="103.06" y="46.8" width="18.39" height="18.39" transform="translate(-6.71 95.78) rotate(-45)"/></clipPath></defs><g class="b"><rect class="c" x="-2.15" y="-2.04" width="253.68" height="184.26"/><g class="d"><path class="e" d="M189.94,54.16h-9.13A4.05,4.05,0,0,1,178,47.25l6.46-6.45a2,2,0,0,0,0-2.86l-8.58-8.58a2,2,0,0,0-2.86,0l-6.46,6.45a4,4,0,0,1-6.9-2.86V23.82a2,2,0,0,0-2-2H145.45a2,2,0,0,0-2,2V33a4,4,0,0,1-6.9,2.86l-6.46-6.45a2,2,0,0,0-2.86,0l-8.58,8.58a2,2,0,0,0,0,2.86l6.46,6.45a4.05,4.05,0,0,1-2.86,6.91h-9.14a2,2,0,0,0-2,2V68.31a2,2,0,0,0,2,2h9.14a4,4,0,0,1,2.86,6.9l-6.46,6.46a2,2,0,0,0,0,2.86l8.58,8.58a2,2,0,0,0,2.86,0l6.46-6.46a4,4,0,0,1,6.9,2.86v9.13a2,2,0,0,0,2,2h12.14a2,2,0,0,0,2-2V91.54a4,4,0,0,1,6.9-2.86L173,95.14a2,2,0,0,0,2.86,0l8.58-8.58a2,2,0,0,0,0-2.86L178,77.24a4,4,0,0,1,2.86-6.9h9.13a2,2,0,0,0,2-2V56.18A2,2,0,0,0,189.94,54.16Z"/><circle class="e" cx="151.52" cy="62.25" r="14.16"/></g><g class="d"><path class="e" d="M114.12,102.43l-8.28,1.48a3.73,3.73,0,0,1-3.72-5.8l4.81-6.9a1.86,1.86,0,0,0-.46-2.59l-9.18-6.39a1.86,1.86,0,0,0-2.59.46L89.89,89.6a3.72,3.72,0,0,1-6.72-1.48l-1.48-8.28a1.87,1.87,0,0,0-2.17-1.5l-11,2A1.87,1.87,0,0,0,67,82.47l1.49,8.28a3.73,3.73,0,0,1-5.8,3.71l-6.9-4.81a1.87,1.87,0,0,0-2.6.47l-6.39,9.17a1.87,1.87,0,0,0,.47,2.6l6.9,4.8a3.73,3.73,0,0,1-1.47,6.73l-8.28,1.48a1.87,1.87,0,0,0-1.51,2.16l2,11a1.86,1.86,0,0,0,2.16,1.5l8.28-1.48a3.73,3.73,0,0,1,3.72,5.8l-4.81,6.9a1.86,1.86,0,0,0,.46,2.59l9.18,6.39a1.86,1.86,0,0,0,2.59-.46l4.81-6.91A3.72,3.72,0,0,1,78,143.88l1.48,8.28a1.87,1.87,0,0,0,2.17,1.5l11-2a1.86,1.86,0,0,0,1.51-2.16l-1.49-8.28a3.73,3.73,0,0,1,5.8-3.71l6.9,4.81a1.87,1.87,0,0,0,2.6-.47l6.39-9.17a1.86,1.86,0,0,0-.47-2.59l-6.9-4.81a3.73,3.73,0,0,1,1.47-6.73l8.28-1.48a1.86,1.86,0,0,0,1.51-2.16l-2-11A1.86,1.86,0,0,0,114.12,102.43Z"/><circle class="e" cx="80.59" cy="116" r="13.04"/></g><g class="f"><path class="g" d="M53.21,47.12h0l.33.28Zm11.62,2.45.11-.06-.09,0Zm0,0,.11-.06-.09,0ZM53.21,47.13l.33.28-.33-.29Z"/><path class="h" d="M43.62,28.86h.12c.07-.53.16-1.05.24-1.58L64.86,73.7l-1.08,0Z"/><path class="h" d="M41.16,29.48h.12c.07-.53.16-1,.24-1.57L62.4,74.32l-1.08,0Z"/><path class="h" d="M38.91,30.71H39c.06-.53.15-1,.24-1.57L60.15,75.55l-1.09,0Z"/><path class="h" d="M36.45,31.94h.12c.06-.53.15-1.05.24-1.57L57.69,76.78l-1.09,0Z"/><path class="h" d="M33.78,33h.13c.06-.53.15-1,.24-1.58L55,77.8l-1.08,0Z"/><path class="h" d="M31.12,34.19h.12c.07-.53.16-1.05.24-1.58L52.36,79l-1.08,0Z"/><path class="h" d="M29.07,35.42h.12c.07-.52.16-1,.24-1.57L50.31,80.26l-1.08-.05Z"/><path class="h" d="M45.67,27.63h.12c.07-.53.16-1.05.24-1.58L66.91,72.47l-1.08,0Z"/><path class="h" d="M48.34,27.22h.12c.06-.53.15-1.05.24-1.58L69.57,72.06l-1.08,0Z"/><path class="h" d="M50.59,25.79h.12c.06-.53.16-1,.24-1.57L71.83,70.63l-1.09,0Z"/><path class="h" d="M53.25,25.17h.13c.06-.53.15-1.05.24-1.58L74.49,70l-1.08,0Z"/><path class="h" d="M56.12,24.35h.12c.07-.53.16-1.05.25-1.58L77.36,69.2l-1.08,0Z"/></g><g class="i"><path class="g" d="M177.33,108.3h0l.3.25Zm10.19,2.15.1,0s-.05,0-.08,0Zm0,0,.1,0s-.05,0-.08,0Zm-10.19-2.14.3.25-.3-.26Z"/><path class="h" d="M162.9,92.62H163c.06-.46.14-.92.21-1.38l18.3,40.68-1,0Z"/><path class="h" d="M160.91,92.92H161c0-.46.13-.91.21-1.38l18.3,40.68-.95,0Z"/><path class="h" d="M159.59,94.65h.1c.06-.46.14-.91.22-1.38L178.2,134l-.95,0Z"/><path class="h" d="M157.59,95.24h.11c.06-.46.14-.91.21-1.38l18.3,40.68-1,0Z"/><path class="h" d="M156.07,96.79h.11c.06-.46.14-.92.21-1.38l18.3,40.68-.95,0Z"/><path class="h" d="M154.55,98h.11q.09-.69.21-1.38l18.3,40.68-.95,0Z"/><path class="h" d="M152.84,99.43h.1c.06-.47.14-.92.22-1.38l18.3,40.68-1-.05Z"/><path class="h" d="M151,100.25h.1c.06-.46.14-.92.21-1.38l18.3,40.68-1,0Z"/><path class="h" d="M164.78,91.63h.11c.05-.46.13-.91.21-1.38l18.3,40.68-1,0Z"/><path class="h" d="M166.63,90.86h.11c0-.47.13-.92.21-1.38l18.3,40.68-1,0Z"/><path class="h" d="M168.77,89.69h.1c.06-.46.14-.92.22-1.38L187.38,129l-.95,0Z"/><path class="h" d="M171,89.07h.11c.05-.46.13-.92.21-1.38l18.3,40.68-.95,0Z"/><path class="h" d="M173.7,89.49h.11c.05-.46.13-.92.21-1.38l18.3,40.68-1,0Z"/><path class="h" d="M175.73,88.92h.11c.06-.46.14-.92.21-1.38l18.3,40.68-.95,0Z"/><path class="h" d="M177.44,88.35h.11c.06-.46.14-.92.21-1.38l18.3,40.68-.95,0Z"/><path class="h" d="M179.4,87.86h.11c.05-.46.13-.91.21-1.38L198,127.16l-1,0Z"/><path class="h" d="M181.35,87.61h.11q.09-.69.21-1.38L200,126.92l-.95,0Z"/><path class="h" d="M183.14,87h.11c.06-.47.14-.92.21-1.38l18.3,40.68-.95,0Z"/><path class="h" d="M185,86.15h.1c.06-.46.14-.91.22-1.38l18.29,40.68-.95,0Z"/></g><g class="j"><path class="g" d="M83.27,124.56h0l.29.25Zm10.19,2.15a.47.47,0,0,0,.09-.06l-.08,0Zm0,0a.47.47,0,0,0,.09-.06l-.08,0Zm-10.19-2.14.29.25-.29-.26Z"/><path class="h" d="M68.84,108.88H69c0-.47.13-.92.21-1.38l18.3,40.68-.95-.05Z"/><path class="h" d="M66.85,109.18H67c.06-.46.14-.92.22-1.38l18.29,40.68-.95,0Z"/><path class="h" d="M65.52,110.91h.11c.05-.46.13-.92.21-1.38l18.3,40.68-1,0Z"/><path class="h" d="M63.53,111.5h.11c0-.46.13-.92.21-1.38l18.3,40.68-1,0Z"/><path class="h" d="M62,113.05h.11c.05-.46.13-.92.21-1.38l18.3,40.68-.95,0Z"/><path class="h" d="M60.49,114.2h.11c0-.46.13-.92.21-1.38l18.3,40.68-1,0Z"/><path class="h" d="M58.77,115.69h.11c.06-.46.14-.91.21-1.38L77.39,155l-1,0Z"/><path class="h" d="M56.9,116.5H57c.05-.47.13-.92.21-1.38l18.3,40.68-1,0Z"/><path class="h" d="M70.72,107.89h.1c.06-.46.14-.92.22-1.38l18.29,40.68-1,0Z"/><path class="h" d="M72.56,107.12h.11c.06-.46.14-.91.21-1.38l18.3,40.68-1,0Z"/><path class="h" d="M74.7,105.94h.11q.09-.69.21-1.38l18.3,40.68-.95,0Z"/><path class="h" d="M77,105.32h.1c.06-.47.14-.92.21-1.38l18.3,40.68-.95,0Z"/><path class="h" d="M79.63,105.75h.11c.06-.46.14-.92.21-1.38l18.3,40.68-1,0Z"/><path class="h" d="M81.67,105.18h.11c0-.46.13-.92.21-1.38l18.3,40.68-1,0Z"/><path class="h" d="M83.38,104.61h.11c.05-.46.13-.92.21-1.38L102,143.91l-1,0Z"/><path class="h" d="M85.33,104.12h.11c.06-.46.14-.92.21-1.38L104,143.42l-1,0Z"/><path class="h" d="M87.29,103.87h.11c0-.47.13-.92.21-1.38l18.3,40.68-1-.05Z"/><path class="h" d="M89.08,103.22h.11c0-.47.13-.92.21-1.39l18.3,40.69-1-.05Z"/><path class="h" d="M91,102.41h.11q.09-.69.21-1.38l18.3,40.68-.95,0Z"/></g><g class="k"><path class="g" d="M112.65,50.7h0l.29.25Zm10.19,2.15.1-.05-.09,0Zm0,0,.1-.05-.09,0Zm-10.19-2.14.29.25-.29-.26Z"/><path class="h" d="M104.25,34.7h.1c.06-.47.14-.92.21-1.39L122.86,74l-1,0Z"/><path class="h" d="M102.09,35.24h.11c0-.46.13-.91.21-1.38l18.3,40.68-.95,0Z"/><path class="h" d="M100.12,36.32h.1c.06-.46.14-.92.21-1.38l18.3,40.68-1,0Z"/><path class="h" d="M98,37.39h.11c.05-.46.13-.92.21-1.38l18.3,40.68-1,0Z"/><path class="h" d="M95.63,38.29h.1c.06-.47.14-.92.21-1.38l18.3,40.68-.95,0Z"/><path class="h" d="M93.29,39.37h.11c0-.47.13-.92.21-1.39l18.3,40.69-1-.05Z"/><path class="h" d="M91.49,40.45h.11c.06-.46.14-.91.21-1.38l18.3,40.68-1,0Z"/><path class="h" d="M106,33.62h.11c.06-.47.13-.92.21-1.38l18.3,40.68-1-.05Z"/><path class="h" d="M108.38,33.26h.1c.06-.47.14-.92.22-1.38L127,72.57l-1,0Z"/><path class="h" d="M110.35,32h.11c.06-.46.14-.92.21-1.38L129,71.31l-.95,0Z"/><path class="h" d="M112.69,31.47h.11c0-.46.13-.92.21-1.38l18.3,40.68-.95,0Z"/><path class="h" d="M115.2,30.75h.11c.06-.46.14-.91.21-1.38l18.3,40.68-.95,0Z"/></g><path class="l" d="M187.2,155.46a8.24,8.24,0,0,0-.36-3.29,11.3,11.3,0,0,0-1.74-3.42,14,14,0,0,0-2.87-2.88,13.53,13.53,0,0,0-3.42-1.88,11,11,0,0,0-3.58-.71,7.76,7.76,0,0,0-3.3.61,5.83,5.83,0,0,0-2.39,1.9,6.1,6.1,0,0,0-1.08,2.79,8.34,8.34,0,0,0,.3,3.32,11.42,11.42,0,0,0,1.74,3.47,13.87,13.87,0,0,0,6.4,4.85,10.93,10.93,0,0,0,3.62.69,7.68,7.68,0,0,0,3.32-.67,5.83,5.83,0,0,0,2.35-2A6.1,6.1,0,0,0,187.2,155.46Z"/><path class="m" d="M187,159.16l-.26.33-.09.1a1.8,1.8,0,0,1-.19.2.68.68,0,0,1-.12.12l-.18.18-.14.11-.2.17-.15.11-.13.1-.2.13-.13.08-.24.15-.1.05-.36.18c-.22.11-.45.19-.67.28l-.11,0-.67.19-.14,0-.69.13h-.11c-.22,0-.45.05-.67.06h-.11c-.21,0-.43,0-.65,0s-.42,0-.63,0l-.31,0-.84-.12-.11,0c-.32-.06-.63-.14-.95-.22l-.17-.05c-.26-.08-.53-.16-.79-.26l-.16-.05-.86-.35-.21-.1-.84-.41-.12-.07c-.29-.16-.58-.33-.86-.52h0c-.29-.19-.57-.39-.85-.59l-.11-.08c-.26-.2-.52-.41-.77-.63l-.16-.13c-.25-.22-.49-.45-.73-.69l-.09-.09c-.25-.26-.49-.51-.72-.78l0-.06c-.24-.28-.48-.58-.7-.88a13.73,13.73,0,0,1-1.58-2.85,10.46,10.46,0,0,1-.7-2.83,8,8,0,0,1,.16-2.61,6.59,6.59,0,0,1,1-2.25l-1,1.48a6.42,6.42,0,0,0-1,2.25,8.34,8.34,0,0,0-.16,2.61,10.31,10.31,0,0,0,.7,2.82,12.82,12.82,0,0,0,1.58,2.85c.12.17.24.34.37.5l.3.37.07.07,0,0c.13.16.27.31.41.47l.27.27.09.09.08.08c.15.16.31.31.48.46l.18.15.13.12.19.16.51.41.09.06,0,0,.07.05.34.25.52.35.52.32.37.21.11.06.05,0c.17.1.35.19.53.28l.26.12.2.08.17.08.62.25.08,0,0,0,.1,0,.42.14.4.12.14,0,.09,0c.29.08.59.14.88.2h.05q.41.08.81.12h.08l.31,0q.31,0,.63,0h.75l.69-.06h.09c.23,0,.47-.08.7-.13h.07l.06,0,.67-.19.11,0c.23-.08.45-.17.67-.27l.34-.17h0l.15-.09.16-.08,0,0,0,0,.09-.05.13-.09.07-.05.13-.09.09-.07.07-.05.09-.07.1-.09.09-.08,0,0,.18-.18.09-.08,0,0a.08.08,0,0,1,0,0l.16-.18.07-.07v0a2.91,2.91,0,0,0,.26-.33l.8-1.09.21-.28Z"/><path class="g" d="M188.25,155.85a9.26,9.26,0,0,0-.4-3.67,12.52,12.52,0,0,0-1.94-3.79,15.41,15.41,0,0,0-3.19-3.21,15,15,0,0,0-3.81-2.09,12.31,12.31,0,0,0-4-.8,8.87,8.87,0,0,0-3.68.68,6.54,6.54,0,0,0-2.66,2.11,6.72,6.72,0,0,0-1.2,3.11,9.09,9.09,0,0,0,.32,3.69,13,13,0,0,0,1.93,3.87A15.37,15.37,0,0,0,172.9,159a15.09,15.09,0,0,0,3.89,2.12,12.18,12.18,0,0,0,4,.77,8.45,8.45,0,0,0,3.69-.76,6.39,6.39,0,0,0,2.61-2.18A6.78,6.78,0,0,0,188.25,155.85Zm-2.06,2.43a5.83,5.83,0,0,1-2.35,2,7.68,7.68,0,0,1-3.32.67,10.93,10.93,0,0,1-3.62-.69,13.87,13.87,0,0,1-6.4-4.85,11.42,11.42,0,0,1-1.74-3.47,8.34,8.34,0,0,1-.3-3.32,6.1,6.1,0,0,1,1.08-2.79,5.83,5.83,0,0,1,2.39-1.9,7.76,7.76,0,0,1,3.3-.61,11,11,0,0,1,3.58.71,13.53,13.53,0,0,1,3.42,1.88,14,14,0,0,1,2.87,2.88,11.3,11.3,0,0,1,1.74,3.42,8.24,8.24,0,0,1,.36,3.29A6.1,6.1,0,0,1,186.19,158.28Z"/><path class="m" d="M73.05,45.92c.18.07.35.15.53.24l.3.14c.16.07.31.15.46.23l.48.24h0l.6.33.09,0,.55.33L77,45.91l-.38-.23-.16-.08-.12-.07-.12-.07-.42-.23h0l-.09-.05L75.34,45,75.21,45l-.44-.22-.21-.1-.1-.05-.1,0-.4-.17-.2-.09,0,0-.15-.06.86-1.55-.23.4-.52.1-6.61-6.83-.86,1.59,5.47,5.66-.86,1.54.58.18.58.2.13.05h0l.71.29Z"/><path class="m" d="M138.72,75.75l.54.18.28.12.5.2.25.1.53.24.26.12.53.26.25.13.09,0,.57.31.08,0,.56.32,1.06-1.48-.33-.19-.26-.15,0,0,0,0-.36-.19-.18-.09-.06,0,0,0-.08,0-.18-.09-.51-.25-.12,0-.19-.09-.25-.12-.2-.08-.18-.08-.14-.06-.48-.19,0,0,.8-1.13.2-.43.76-1.62-1.05,1.48-.31.67-.11,0L130,62.53l-.11-.1-.11-.1-.11-.1-.1-.07h0l-.13-.09-.13-.08-.14-.08,0,0h0l-.07,0-.13-.06-.14-.06-.13,0h0l-.11,0-.16,0-.15,0H128l-.15,0h-.43l-.17,0H127a2.13,2.13,0,0,0-.33.11h0l0,0a1.92,1.92,0,0,0-.31.18l-8.69,6.57-.83-.86-1,1.51.84.86,8.67-6.57a1.92,1.92,0,0,1,.31-.18l0,0A1.59,1.59,0,0,1,126,63l.06,0,.19,0,.28,0h.18l.38,0h0a4.5,4.5,0,0,1,.49.14h0a4,4,0,0,1,.47.21l0,0a3.12,3.12,0,0,1,.45.29h0A5.08,5.08,0,0,1,129,64l9.91,10-1,1.41a5.1,5.1,0,0,1,.61.17h0Z"/><path class="l" d="M143.6,75.12c-.2-.43-.39-.86-.56-1.3s-.33-.87-.46-1.29a10.32,10.32,0,0,1-.28-1.17L141.54,73,130.69,62a5.1,5.1,0,0,0-1.29-1,4.74,4.74,0,0,0-1.4-.51,3.79,3.79,0,0,0-1.38,0,2.67,2.67,0,0,0-1.16.49l-8.69,6.55.83.86,8.69-6.57a1.86,1.86,0,0,1,.82-.34,2.45,2.45,0,0,1,1,0,3.2,3.2,0,0,1,1,.36,3.83,3.83,0,0,1,.9.67l10.86,11-1.91.47a13.22,13.22,0,0,1,1.28.4c.45.16.92.36,1.38.56s.93.43,1.37.66.87.47,1.27.7C144,76,143.8,75.54,143.6,75.12Z"/><path class="m" d="M88.52,64.47l.76.31.18.08.56.25.29.14.46.22.48.25,0,0,.58.31.14.08.53.31,1-1.53a3.64,3.64,0,0,0-.39-.23L93,64.6l-.13-.08-.11-.06-.42-.23h0l0,0-.07,0L91.85,64l-.15-.08-.41-.2a1.75,1.75,0,0,0-.24-.11l-.1,0-.1,0-.36-.16-.24-.11h0L90,63.13,90.66,62l.23-.43L91.71,60l-.94,1.54-.26.5-.37.08-3.73-4-.92,1.55,2.66,2.86-.92,1.51.57.17.69.24Z"/><path class="g" d="M96.89,49.44a3.37,3.37,0,0,0-.35-1.26A4.43,4.43,0,0,0,95.67,47L91.3,42.49A5.15,5.15,0,0,0,88.65,41a4,4,0,0,0-1.37-.07,2.76,2.76,0,0,0-1.18.44L67.92,53.67a2.34,2.34,0,0,0-.8.92,2.57,2.57,0,0,0-.24,1.18,3.54,3.54,0,0,0,.32,1.3,4.64,4.64,0,0,0,.87,1.27L72.52,63a5.76,5.76,0,0,0,1.29,1,5.11,5.11,0,0,0,1.45.54,4.07,4.07,0,0,0,1.43,0,3,3,0,0,0,1.22-.47L96,51.49a2.2,2.2,0,0,0,.74-.9A2.45,2.45,0,0,0,96.89,49.44ZM95.66,50a1.56,1.56,0,0,1-.52.63L77.08,63.23a2.09,2.09,0,0,1-.86.33,2.82,2.82,0,0,1-1,0,3.75,3.75,0,0,1-1.93-1.08l-4.44-4.64a3.19,3.19,0,0,1-.62-.89A2.42,2.42,0,0,1,68,56a1.79,1.79,0,0,1,.17-.83,1.63,1.63,0,0,1,.56-.64L86.9,42.21a1.9,1.9,0,0,1,.84-.31,2.85,2.85,0,0,1,1,0,3.88,3.88,0,0,1,1,.38,4,4,0,0,1,.88.67l4.37,4.47a3.17,3.17,0,0,1,.61.86,2.35,2.35,0,0,1,.25.89A1.82,1.82,0,0,1,95.66,50Z"/><path class="n" d="M95.8,49.21a2.35,2.35,0,0,0-.25-.89,3.17,3.17,0,0,0-.61-.86L90.57,43a4,4,0,0,0-.88-.67,3.88,3.88,0,0,0-1-.38,2.85,2.85,0,0,0-1,0,1.9,1.9,0,0,0-.84.31L68.74,54.53a1.63,1.63,0,0,0-.56.64A1.79,1.79,0,0,0,68,56a2.42,2.42,0,0,0,.22.92,3.19,3.19,0,0,0,.62.89l4.44,4.64a3.75,3.75,0,0,0,1.93,1.08,2.82,2.82,0,0,0,1,0,2.09,2.09,0,0,0,.86-.33L95.14,50.65a1.56,1.56,0,0,0,.52-.63A1.82,1.82,0,0,0,95.8,49.21Z"/><path class="m" d="M77.91,64.1a2.2,2.2,0,0,1-.26.15l-.09,0-.17.08a2.54,2.54,0,0,1-.47.14l-.1,0a4.34,4.34,0,0,1-.52.07h0l-.53,0h-.13l-.28,0h-.07l-.32-.08-.07,0-.31-.1-.05,0-.31-.13h0L73.86,64l-.07,0-.29-.18-.06,0-.3-.22h0l-.29-.24,0,0L72.52,63l-4.45-4.65a4.65,4.65,0,0,1-.72-1,3.56,3.56,0,0,1-.39-1,2.79,2.79,0,0,1-.06-1,2.45,2.45,0,0,1,.28-.88L66.31,56a2.47,2.47,0,0,0-.29.88,2.79,2.79,0,0,0,.06,1,3.56,3.56,0,0,0,.39,1,4.65,4.65,0,0,0,.72,1l4.44,4.64.15.16.13.12h0v0l.17.14.11.09,0,0,0,0,.2.14.07,0,0,0,.08.05.2.12h.07l.13.07.2.1h0l.19.08.15.06h0l.2.07.1,0H74l.07,0,.22.06h.08l.15,0,.14,0h.13a3.05,3.05,0,0,0,.52,0s0,0,0,0h0l.37,0,.13,0H76a3.53,3.53,0,0,0,.46-.15h0l.15-.07.07,0,.27-.16L95,53,96,51.49Z"/><path class="g" d="M114.87,69.72l-21-4.29,1.25,19.18,21.4,4.23ZM95.06,66.65l18.79,3.83,1.47,17.11L96.2,83.8Z"/><polygon class="o" points="113.85 70.48 95.06 66.65 96.2 83.8 115.32 87.59 113.85 70.48"/><polygon class="m" points="95.13 84.61 94.16 86.13 115.51 90.34 116.53 88.84 95.13 84.61"/><polygon class="m" points="93.88 65.43 92.93 66.96 94.16 86.13 95.13 84.61 93.88 65.43"/><path class="g" d="M83.29,95.19l.09-.1,0,0a.38.38,0,0,1,.09-.09l0,0,.11-.09,9.14-6.92,1-1.52-9.16,6.92-.07.06,0,0,0,0h0l-.06.06,0,0h0l0,0a.1.1,0,0,1,0,.05v0h0v0l0,0,0,0-1,1.52.09-.12Z"/><path class="m" d="M98.8,112.44h0l0-.06,0-.09-.06-.13h0l-.07-.15a1,1,0,0,1-.07-.15h0l-.21.3-.1-.06-.27-.15-.28-.15,0,0h0l-.23-.13-.29-.15-.07,0h0l-.06,0-.68-.32-.39-.18-.16-.07-.17-.08-.12,0-.13,0-.29-.12.84-1.25.22-.47L96.9,107l-1,1.49-.4.83-.23.06L84,97.5a4.92,4.92,0,0,1-.8-1.12,4.17,4.17,0,0,1-.42-1.16,3.31,3.31,0,0,1,0-1.13,2.33,2.33,0,0,1,.13-.52,2.92,2.92,0,0,1,.23-.47l-1,1.52a2.57,2.57,0,0,0-.37,1,3.53,3.53,0,0,0,0,1.12,4.2,4.2,0,0,0,.41,1.17A5.51,5.51,0,0,0,83,99L93.4,110l-.05,0-.13,0-1,1.49.57.16.71.25.23.09c.18.06.35.13.53.21l.27.11.32.14,1,.48L96,113l.53.27.05,0,.58.32.16.09.14.08.15.09.14.08,1-1.48Z"/><path class="n" d="M117.93,113.2a2.89,2.89,0,0,0-.28-1,3.55,3.55,0,0,0-.67-1l-4.7-4.93a4,4,0,0,0-1-.72,3.57,3.57,0,0,0-1-.39,2.86,2.86,0,0,0-1,0,1.93,1.93,0,0,0-.86.39l-18.6,14.83a1.84,1.84,0,0,0-.57.76,2.18,2.18,0,0,0-.15,1,2.92,2.92,0,0,0,.27,1,3.61,3.61,0,0,0,.67,1l4.79,5.12a3.66,3.66,0,0,0,1,.76,3.2,3.2,0,0,0,1.08.39,2.65,2.65,0,0,0,1.05,0,2.09,2.09,0,0,0,.89-.42l18.47-15.14a1.75,1.75,0,0,0,.53-.74A2.19,2.19,0,0,0,117.93,113.2Z"/><path class="m" d="M107.73,124.38l-8,6.59a2.48,2.48,0,0,1-.26.19l-.1.05-.2.11-.11.05-.19.08-.13,0-.2,0-.13,0-.23,0h-.45l-.36,0h-.07l-.28,0h-.08l-.32-.07-.09,0-.32-.1,0,0-.32-.13h0l-.31-.15-.07,0-.3-.19-.07,0-.31-.22,0,0-.3-.26h0c-.11-.1-.22-.2-.32-.31l-4.79-5.13a5.55,5.55,0,0,1-.85-1.19,4.56,4.56,0,0,1-.42-1.26,3.34,3.34,0,0,1,0-1.22,2.71,2.71,0,0,1,.43-1.07l-1,1.43,0,.06a2.77,2.77,0,0,0-.36.78c0,.1,0,.19-.07.29a3.29,3.29,0,0,0,0,1.21,4.35,4.35,0,0,0,.42,1.26,5.22,5.22,0,0,0,.85,1.19L93,131.4l.17.18.14.13,0,0h0l.18.16.11.08,0,0,0,0h0l.21.15.07.05.06,0,.07.05.22.13h0l0,0,.13.07.19.09,0,0,.18.08.15.05,0,0h0l.21.07.09,0,.09,0h.06l.25.06H96l.14,0h.24l.33,0H97l.13,0,.21,0h0l.09,0,.11,0,.08,0,.13-.05.19-.07.12-.05.05,0,.13-.08.1-.05a1.89,1.89,0,0,0,.27-.2l8-6.59,10.43-8.58,1-1.47Z"/><path class="g" d="M119.08,113.42a4.27,4.27,0,0,0-.4-1.43,5.49,5.49,0,0,0-1-1.36L113,105.71a5.45,5.45,0,0,0-1.34-1,4.68,4.68,0,0,0-1.47-.54,3.63,3.63,0,0,0-1.43,0,2.77,2.77,0,0,0-1.22.55l-9,7.18a1,1,0,0,0,.07.15l.07.15.07.14a1,1,0,0,1,.07.15l-.14-.09-.15-.08-.15-.09-.15-.09-9.27,7.38a2.6,2.6,0,0,0-.81,1.08,3.07,3.07,0,0,0-.21,1.36,4.08,4.08,0,0,0,.37,1.48,5.22,5.22,0,0,0,.95,1.41L94,129.93A5.67,5.67,0,0,0,95.42,131a5,5,0,0,0,1.53.56,3.92,3.92,0,0,0,1.49,0,2.91,2.91,0,0,0,1.27-.59l7.25-6,.77-.63,10.44-8.59a2.49,2.49,0,0,0,.75-1.05A3.06,3.06,0,0,0,119.08,113.42Zm-1.79,1.45L98.82,130a2.09,2.09,0,0,1-.89.42,2.65,2.65,0,0,1-1.05,0A3.2,3.2,0,0,1,95.8,130a3.66,3.66,0,0,1-1-.76L90,124.16a3.61,3.61,0,0,1-.67-1,2.92,2.92,0,0,1-.27-1,2.18,2.18,0,0,1,.15-1,1.84,1.84,0,0,1,.57-.76l18.6-14.83a1.93,1.93,0,0,1,.86-.39,2.86,2.86,0,0,1,1,0,3.57,3.57,0,0,1,1,.39,4,4,0,0,1,1,.72l4.7,4.93a3.55,3.55,0,0,1,.67,1,2.89,2.89,0,0,1,.28,1,2.19,2.19,0,0,1-.11.93A1.75,1.75,0,0,1,117.29,114.87Z"/><path class="n" d="M163,79.36a3,3,0,0,0-.28-1,4,4,0,0,0-.67-1l-4.71-4.92a4,4,0,0,0-.94-.73,3.28,3.28,0,0,0-1-.38,2.64,2.64,0,0,0-1,0,1.91,1.91,0,0,0-.86.38l-18.6,14.83a1.91,1.91,0,0,0-.57.76,2.2,2.2,0,0,0-.15,1,3.06,3.06,0,0,0,.26,1,3.89,3.89,0,0,0,.67,1l4.79,5.12a4.57,4.57,0,0,0,1,.76,3.8,3.8,0,0,0,1.08.39,2.84,2.84,0,0,0,1.05,0,2,2,0,0,0,.9-.41L162.34,81a1.67,1.67,0,0,0,.52-.74A2,2,0,0,0,163,79.36Z"/><path class="m" d="M152.77,90.54l-8,6.59-.27.19-.09.06-.2.1-.11,0-.2.08-.12,0-.2,0-.13,0-.23,0h-.1l-.33,0h0l-.35,0h-.07l-.29,0H142l-.33-.08-.08,0-.33-.11h0l-.33-.13,0,0h0c-.1,0-.2-.1-.3-.15l-.08,0-.29-.18-.08,0-.3-.22,0,0a3.61,3.61,0,0,1-.3-.25l0,0-.31-.31L134.28,91a5.17,5.17,0,0,1-.84-1.19,4.48,4.48,0,0,1-.43-1.26,3.57,3.57,0,0,1,0-1.22,2.87,2.87,0,0,1,.42-1.06l-1,1.43,0,.06a2.49,2.49,0,0,0-.35.78,2.29,2.29,0,0,0-.07.28A3.57,3.57,0,0,0,132,90a4.42,4.42,0,0,0,.43,1.25,5.22,5.22,0,0,0,.84,1.2l4.78,5.12c.06.06.11.12.17.17a.86.86,0,0,0,.14.13l0,0v0l.18.15.11.09.05,0,0,0h0l.2.15.07,0,.06,0,.08,0,.21.13,0,0h0l0,0,.14.07.19.09h0l.19.08.14.06.05,0h0l.21.07.09,0,.09,0,.06,0,.24,0h.1l.14,0,.13,0h.48l.27,0h0l.13,0a.76.76,0,0,0,.21,0h.05l.08,0,.12,0,.07,0,.13,0,.19-.08.12,0,.05,0,.14-.08.1-.06.27-.19,8-6.59,10.43-8.59L163.22,82Z"/><path class="g" d="M164.13,79.58a4,4,0,0,0-.41-1.42,5,5,0,0,0-.95-1.37l-4.7-4.91a5.69,5.69,0,0,0-1.34-1,5.35,5.35,0,0,0-1.47-.54,4.11,4.11,0,0,0-1.44,0,2.83,2.83,0,0,0-1.22.55l-9,7.19a1,1,0,0,1,.07.15l.08.14.07.15a.91.91,0,0,0,.07.14l-.14-.08-.15-.09-.15-.09-.15-.08L134,85.63a2.57,2.57,0,0,0-.8,1.08,3.11,3.11,0,0,0-.22,1.37,4.24,4.24,0,0,0,.37,1.47,5.47,5.47,0,0,0,.95,1.41l4.8,5.13a5.67,5.67,0,0,0,1.38,1.09,5.13,5.13,0,0,0,1.53.55,4.2,4.2,0,0,0,1.5,0,3,3,0,0,0,1.27-.6l7.24-6,.77-.63L163.22,82a2.43,2.43,0,0,0,.74-1A3,3,0,0,0,164.13,79.58ZM162.34,81,143.87,96.18a2,2,0,0,1-.9.41,2.84,2.84,0,0,1-1.05,0,3.8,3.8,0,0,1-1.08-.39,4.57,4.57,0,0,1-1-.76l-4.79-5.12a3.89,3.89,0,0,1-.67-1,3.06,3.06,0,0,1-.26-1,2.2,2.2,0,0,1,.15-1,1.91,1.91,0,0,1,.57-.76l18.6-14.83a1.91,1.91,0,0,1,.86-.38,2.64,2.64,0,0,1,1,0,3.28,3.28,0,0,1,1,.38,4,4,0,0,1,.94.73L162,77.4a4,4,0,0,1,.67,1,3,3,0,0,1,.28,1,2,2,0,0,1-.12.93A1.67,1.67,0,0,1,162.34,81Z"/><path class="m" d="M168.49,143.68l-.2-.12-.1-.05-.14-.08-.46-.25,0,0h0l-.09-.05-.32-.16-.15-.08-.48-.23-.23-.11-.1-.05-.12-.06-.44-.19-.21-.09h0c-.27-.12-.54-.22-.8-.32h0l-.06,0-.29-.09,1.37-1.22.15-.56.53-2.09-1.41,1.26-.28,1.06-7.47-7.73.65-.74-1.39,1.27-.65.74,7.46,7.73-1.38,1.24.61.16c.21.07.44.14.67.23l.07,0c.26.09.53.2.79.31l.3.13.51.22.34.16.49.24c.16.08.32.16.47.25l.09,0,.63.34.13.08.61.35,1.42-1.25C168.78,143.84,168.63,143.76,168.49,143.68Z"/><path class="m" d="M169.68,104.09a3,3,0,0,0-.28-1,3.53,3.53,0,0,0-.66-1l-14-12.38-1.11,1.45,13.79,12.28a3.65,3.65,0,0,1,.66.94,3,3,0,0,1,.28,1,2.62,2.62,0,0,1-.1,1,2.16,2.16,0,0,1-.51.86l1.3-1.35a2.06,2.06,0,0,0,.51-.85A2.62,2.62,0,0,0,169.68,104.09Z"/><polygon class="g" points="167.77 107.3 126.08 141.6 127.36 140.27 169.07 105.95 167.77 107.3"/><path class="l" d="M170.8,104.18a4.47,4.47,0,0,0-.4-1.48,5.17,5.17,0,0,0-.94-1.34L156.15,89l-.76.64,13.35,12.48a3.53,3.53,0,0,1,.66,1,3,3,0,0,1,.28,1,2.62,2.62,0,0,1-.1,1,2.06,2.06,0,0,1-.51.85l-41.71,34.32a2.43,2.43,0,0,1-.92.61,2.75,2.75,0,0,1-1.07.15,3,3,0,0,1-1.1-.29,3.35,3.35,0,0,1-1-.72l-14.15-15.59-.84.83,14.17,15.61a4.58,4.58,0,0,0,1.4,1,4.15,4.15,0,0,0,1.56.41,3.61,3.61,0,0,0,1.53-.22,3.45,3.45,0,0,0,1.31-.85l41.67-34.4a3.12,3.12,0,0,0,.72-1.21A3.63,3.63,0,0,0,170.8,104.18Z"/><path class="m" d="M128,141.5h0l-.31.22-.06,0-.27.16-.11,0-.24.11-.15,0-.22.07-.16,0-.22,0-.17,0-.21,0h-.45l-.31,0H125l-.34-.07-.08,0-.33-.1,0,0a2.33,2.33,0,0,1-.33-.14l0,0a2.68,2.68,0,0,1-.33-.18l0,0a2.82,2.82,0,0,1-.31-.21l0,0-.3-.24,0,0-.31-.3L108.3,125.26l-1.23,1.34,14.12,15.59.14.14.15.14,0,0h0l.1.09.15.12.06.05,0,0,.07.06.18.11.06,0,0,0,.07,0,.18.1h0l.07,0,0,0h0l.06,0,.19.08.09,0h0l.06,0a.6.6,0,0,0,.19.06l.09,0,.06,0,.08,0,.24.05h.07l.17,0h.61l.21,0,.17,0h0l.15,0,.21-.05.14,0,.21-.06h0l.14-.07.2-.08.17-.1.16-.1h0l.2-.15.11-.08a3.71,3.71,0,0,0,.29-.27l1.29-1.32Z"/><path class="l" d="M76.41,44.74c-.18-.41-.34-.83-.5-1.25s-.28-.84-.38-1.24a7.71,7.71,0,0,1-.23-1.12l-.87,1.51-6.6-6.83-.76.5,6.61,6.83-2,.39c.4.11.83.25,1.28.42s.91.37,1.38.58.92.44,1.36.68.86.47,1.25.7C76.78,45.54,76.59,45.15,76.41,44.74Z"/><path class="g" d="M92.92,63.71c-.19-.42-.37-.86-.53-1.29A12.69,12.69,0,0,1,92,61.14,8.33,8.33,0,0,1,91.71,60l-.82,1.58L87.16,57.6l-.75.53,3.73,4-2,.42c.41.11.84.26,1.3.43s.92.37,1.38.58.93.45,1.38.68.88.48,1.27.72C93.3,64.54,93.11,64.13,92.92,63.71Z"/><path class="l" d="M98.73,112.29l-.07-.14-.07-.15a1,1,0,0,1-.07-.15c-.19-.38-.37-.79-.54-1.21s-.33-.83-.47-1.25-.27-.83-.38-1.23A10.64,10.64,0,0,1,96.9,107L96,108.81,84.78,96.9a3.42,3.42,0,0,1-.65-1,2.78,2.78,0,0,1-.25-1,2.21,2.21,0,0,1,.15-.9,1.79,1.79,0,0,1,.56-.72l9.16-6.92-.85-.89-9.17,6.91a2.49,2.49,0,0,0-.79,1,2.9,2.9,0,0,0-.22,1.29,4.08,4.08,0,0,0,.36,1.4A5,5,0,0,0,84,97.5l11.27,11.92-2,.52a12.18,12.18,0,0,1,1.19.37c.42.15.85.32,1.28.52s.87.39,1.29.61.84.43,1.23.65l.15.09.15.09.15.08.14.09A1,1,0,0,0,98.73,112.29Z"/><path class="c" d="M168.12,142.45c-.27-.52-.52-1-.76-1.59s-.46-1.07-.65-1.58-.34-1-.46-1.46l-.53,2.09-8-8.24-.65.74,8,8.25-1.88.73a13.52,13.52,0,0,1,1.36.41c.48.18,1,.39,1.49.61s1,.48,1.49.74.95.52,1.38.78C168.65,143.47,168.38,143,168.12,142.45Z"/><path class="g" d="M159.19,114.53l-22.13-4,1.82,21.93,22.59,3.93Zm-20.86-2.68,19.82,3.6,2,19.54L140,131.47Z"/><polygon class="o" points="158.15 115.45 138.33 111.85 139.98 131.47 160.17 134.99 158.15 115.45"/><polygon class="m" points="138.88 132.44 137.78 133.86 160.32 137.78 161.47 136.37 138.88 132.44"/><polygon class="m" points="137.06 110.51 135.99 111.96 137.78 133.86 138.88 132.44 137.06 110.51"/><path class="p" d="M72.91,31.67a8.25,8.25,0,0,0-.8-3.21,11.48,11.48,0,0,0-2.21-3.14A13.89,13.89,0,0,0,63,21.48a11,11,0,0,0-3.64-.21,7.79,7.79,0,0,0-3.18,1.07,5.79,5.79,0,0,0-2.11,2.21,6.09,6.09,0,0,0-.68,2.91,8.39,8.39,0,0,0,.76,3.25,11.43,11.43,0,0,0,2.2,3.19,14.19,14.19,0,0,0,3.29,2.52,13.77,13.77,0,0,0,3.73,1.4,11,11,0,0,0,3.68.18,7.53,7.53,0,0,0,3.19-1.13,5.73,5.73,0,0,0,2-2.26A6,6,0,0,0,72.91,31.67Z"/><path class="m" d="M73.24,35.37l-.21.35-.07.11-.16.24-.11.13-.15.2-.12.13-.17.19-.14.14L72,37l-.18.16-.11.1-.22.17-.09.07a4,4,0,0,1-.34.23c-.2.14-.41.25-.62.37l-.11,0a6,6,0,0,1-.63.28l-.13.05c-.22.09-.45.16-.67.23l-.1,0-.66.16-.11,0c-.21,0-.42.07-.64.09s-.42,0-.63.05l-.31,0h-1l-1-.09-.17,0c-.27,0-.54-.08-.81-.14l-.18,0-.9-.23-.21-.07c-.3-.09-.6-.18-.89-.29l-.13,0q-.47-.18-.93-.39h0c-.31-.14-.62-.3-.92-.47l-.12-.06c-.29-.16-.57-.33-.85-.51l-.17-.12c-.28-.18-.56-.37-.83-.58l-.1-.07c-.28-.22-.55-.44-.82-.68l0,0c-.28-.25-.55-.5-.81-.78a13.24,13.24,0,0,1-2-2.6,10.41,10.41,0,0,1-1.09-2.7,8.36,8.36,0,0,1-.21-2.61A6.6,6.6,0,0,1,53,24.11l-.81,1.62a6.49,6.49,0,0,0-.67,2.36,8.36,8.36,0,0,0,.21,2.61,10,10,0,0,0,1.08,2.69,13.29,13.29,0,0,0,2,2.61c.14.15.29.3.44.44l.35.32.07.07,0,0,.47.4.3.23.11.09.08.06c.18.14.36.27.55.39l.19.13.15.1.21.13.57.34.09,0,0,0,.07,0,.38.2.55.27.56.24.4.16.12,0,0,0,.57.2.27.08.21.06.17,0,.66.17h.13l.1,0,.43.08.41.07.15,0h.09c.3,0,.6.06.9.08h1l.31,0,.63,0h.13l.51-.08h.1l.67-.16.09,0A6.57,6.57,0,0,0,68.7,40l.08,0,.06,0,.63-.28.1-.06a6.44,6.44,0,0,0,.63-.36l.31-.21v0l.14-.1.14-.11,0,0,0,0,.07-.07.13-.11.06,0a1.14,1.14,0,0,1,.11-.11l.08-.08.06-.07.08-.07.09-.11.08-.08,0-.06a1.56,1.56,0,0,0,.16-.2l.07-.09,0,0,0,0c0-.06.09-.13.14-.2l0-.08v0a3.35,3.35,0,0,0,.21-.36l.65-1.2c0-.1.11-.2.17-.3A.59.59,0,0,1,73.24,35.37Z"/><path class="g" d="M74,31.91a9.27,9.27,0,0,0-.9-3.58,12.79,12.79,0,0,0-2.45-3.48,15.37,15.37,0,0,0-3.61-2.74A15,15,0,0,0,63,20.57a12.37,12.37,0,0,0-4-.23,8.63,8.63,0,0,0-3.55,1.18A6.46,6.46,0,0,0,53.06,24a6.71,6.71,0,0,0-.77,3.24,9.38,9.38,0,0,0,.84,3.62,12.65,12.65,0,0,0,2.45,3.55,15.19,15.19,0,0,0,3.67,2.81,15,15,0,0,0,4.15,1.56,12.22,12.22,0,0,0,4.11.2,8.35,8.35,0,0,0,3.54-1.26,6.32,6.32,0,0,0,2.29-2.52A6.79,6.79,0,0,0,74,31.91Zm-1.71,2.7a5.73,5.73,0,0,1-2,2.26A7.53,7.53,0,0,1,67.06,38a11,11,0,0,1-3.68-.18,13.77,13.77,0,0,1-3.73-1.4,14.19,14.19,0,0,1-3.29-2.52,11.43,11.43,0,0,1-2.2-3.19,8.39,8.39,0,0,1-.76-3.25,6.09,6.09,0,0,1,.68-2.91,5.79,5.79,0,0,1,2.11-2.21,7.79,7.79,0,0,1,3.18-1.07,11,11,0,0,1,3.64.21,13.89,13.89,0,0,1,6.89,3.84,11.48,11.48,0,0,1,2.21,3.14,8.25,8.25,0,0,1,.8,3.21A6,6,0,0,1,72.3,34.61Z"/><rect class="q" width="250" height="179.28"/></g></svg>