<?xml version="1.0" encoding="UTF-8"?>
<svg id="e" data-name="FALTAN?" xmlns="http://www.w3.org/2000/svg" viewBox="0 0 250 180">
  <g>
    <g>
      <polygon points="25.76 37.38 33.93 40.48 33.93 38.34 28.21 36.26 33.93 34.17 33.93 32.04 25.76 35.15 25.76 37.38" style="fill: #e9f0f7;"/>
      <polygon points="36.12 43.98 38.51 43.98 44.17 27.82 41.79 27.82 36.12 43.98" style="fill: #e9f0f7;"/>
      <polygon points="46.2 32.04 46.2 34.17 51.91 36.26 46.2 38.34 46.2 40.48 54.36 37.38 54.36 35.15 46.2 32.04" style="fill: #e9f0f7;"/>
    </g>
    <g>
      <polygon points="25.76 37.38 33.93 40.48 33.93 38.34 28.21 36.26 33.93 34.17 33.93 32.04 25.76 35.15 25.76 37.38" style="fill: #e9f0f7;"/>
      <polygon points="36.12 43.98 38.51 43.98 44.17 27.82 41.79 27.82 36.12 43.98" style="fill: #e9f0f7;"/>
      <polygon points="46.2 32.04 46.2 34.17 51.91 36.26 46.2 38.34 46.2 40.48 54.36 37.38 54.36 35.15 46.2 32.04" style="fill: #e9f0f7;"/>
    </g>
  </g>
  <g style="opacity: .5;">
    <g>
      <path d="M39.93,48.27c-3.11,0-6.22-1.18-8.58-3.55-4.73-4.73-4.73-12.43,0-17.16,4.73-4.73,12.43-4.73,17.16,0s4.73,12.43,0,17.16h0c-2.37,2.37-5.47,3.55-8.58,3.55Zm0-23.67c-2.95,0-5.91,1.12-8.16,3.37-4.5,4.5-4.5,11.82,0,16.32,4.5,4.5,11.82,4.5,16.32,0,4.5-4.5,4.5-11.82,0-16.32-2.25-2.25-5.21-3.37-8.16-3.37Z" style="fill: #869cb3;"/>
      <rect x="28.09" y="35.84" width="23.68" height=".6" transform="translate(-13.86 38.82) rotate(-45)" style="fill: #869cb3;"/>
    </g>
    <g>
      <path d="M39.93,48.27c-3.11,0-6.22-1.18-8.58-3.55-4.73-4.73-4.73-12.43,0-17.16,4.73-4.73,12.43-4.73,17.16,0s4.73,12.43,0,17.16h0c-2.37,2.37-5.47,3.55-8.58,3.55Zm0-23.67c-2.95,0-5.91,1.12-8.16,3.37-4.5,4.5-4.5,11.82,0,16.32,4.5,4.5,11.82,4.5,16.32,0,4.5-4.5,4.5-11.82,0-16.32-2.25-2.25-5.21-3.37-8.16-3.37Z" style="fill: #869cb3;"/>
      <rect x="28.09" y="35.84" width="23.68" height=".6" transform="translate(-13.86 38.82) rotate(-45)" style="fill: #869cb3;"/>
    </g>
  </g>
  <path d="M106.51,14.69H240.16c2.43,0,4.4,1.97,4.4,4.4V169.51c0,2.43-1.97,4.4-4.4,4.4H106.51c-2.43,0-4.4-1.97-4.4-4.4V19.09c0-2.43,1.97-4.4,4.4-4.4Z" style="fill: #fff; stroke: #869cb3; stroke-miterlimit: 10; stroke-width: .5px;"/>
  <path id="f" data-name="checkbox-marked-outline" d="M119.84,159.68h-4.17v-4.17h2.98v-.6h-2.98c-.33,0-.59,.26-.6,.59,0,0,0,0,0,0v4.17c0,.33,.27,.6,.6,.6h4.17c.33,0,.6-.27,.6-.6v-2.38h-.6m-3.3-.27l-.42,.42,1.34,1.34,2.98-2.98-.42-.42-2.56,2.56-.92-.92Z" style="fill: #869cb3;"/>
  <rect x="115.14" y="36.8" width="118.71" height="17.07" rx="2.4" ry="2.4" style="fill: #fff; stroke: #869cb3; stroke-miterlimit: 10; stroke-width: .4px;"/>
  <rect x="114.36" y="58.86" width="119.39" height="36.63" rx="2.58" ry="2.58" style="fill: #fff; stroke: #869cb3; stroke-miterlimit: 10; stroke-width: .4px;"/>
  <g>
    <path d="M148.3,105.82c0-.33-.23-.6-.51-.6h-1.02c-.28,0-.51,.27-.51,.6s.23,.6,.51,.6h1.02c.28,0,.51-.27,.51-.6Z" style="fill: #869cb3;"/>
    <path d="M149.41,140.78h-1.02c-.28,0-.51,.27-.51,.6s.23,.6,.51,.6h1.02c.28,0,.51-.27,.51-.6s-.23-.6-.51-.6Z" style="fill: #869cb3;"/>
    <path d="M152.39,105.82c0-.33-.23-.6-.51-.6h-1.02c-.28,0-.51,.27-.51,.6s.23,.6,.51,.6h1.02c.28,0,.51-.27,.51-.6Z" style="fill: #869cb3;"/>
    <path d="M153.5,140.78h-1.02c-.28,0-.51,.27-.51,.6s.23,.6,.51,.6h1.02c.28,0,.51-.27,.51-.6s-.23-.6-.51-.6Z" style="fill: #869cb3;"/>
    <path d="M140.12,105.82c0-.33-.23-.6-.51-.6h-1.02c-.28,0-.51,.27-.51,.6s.23,.6,.51,.6h1.02c.28,0,.51-.27,.51-.6Z" style="fill: #869cb3;"/>
    <path d="M145.32,140.78h-1.02c-.28,0-.51,.27-.51,.6s.23,.6,.51,.6h1.02c.28,0,.51-.27,.51-.6s-.23-.6-.51-.6Z" style="fill: #869cb3;"/>
    <path d="M141.23,140.78h-1.02c-.28,0-.51,.27-.51,.6s.23,.6,.51,.6h1.02c.28,0,.51-.27,.51-.6s-.23-.6-.51-.6Z" style="fill: #869cb3;"/>
    <path d="M144.21,105.82c0-.33-.23-.6-.51-.6h-1.02c-.28,0-.51,.27-.51,.6s.23,.6,.51,.6h1.02c.28,0,.51-.27,.51-.6Z" style="fill: #869cb3;"/>
    <path d="M161.69,140.78h-1.02c-.28,0-.51,.27-.51,.6s.23,.6,.51,.6h1.02c.28,0,.51-.27,.51-.6s-.23-.6-.51-.6Z" style="fill: #869cb3;"/>
    <path d="M156.48,105.82c0-.33-.23-.6-.51-.6h-1.02c-.28,0-.51,.27-.51,.6s.23,.6,.51,.6h1.02c.28,0,.51-.27,.51-.6Z" style="fill: #869cb3;"/>
    <path d="M168.76,105.82c0-.33-.23-.6-.51-.6h-1.02c-.28,0-.51,.27-.51,.6s.23,.6,.51,.6h1.02c.28,0,.51-.27,.51-.6Z" style="fill: #869cb3;"/>
    <path d="M169.87,140.78h-1.02c-.28,0-.51,.27-.51,.6s.23,.6,.51,.6h1.02c.28,0,.51-.27,.51-.6s-.23-.6-.51-.6Z" style="fill: #869cb3;"/>
    <path d="M164.67,105.82c0-.33-.23-.6-.51-.6h-1.02c-.28,0-.51,.27-.51,.6s.23,.6,.51,.6h1.02c.28,0,.51-.27,.51-.6Z" style="fill: #869cb3;"/>
    <path d="M165.78,140.78h-1.02c-.28,0-.51,.27-.51,.6s.23,.6,.51,.6h1.02c.28,0,.51-.27,.51-.6s-.23-.6-.51-.6Z" style="fill: #869cb3;"/>
    <path d="M137.14,140.78h-1.02c-.28,0-.51,.27-.51,.6s.23,.6,.51,.6h1.02c.28,0,.51-.27,.51-.6s-.23-.6-.51-.6Z" style="fill: #869cb3;"/>
    <path d="M157.6,140.78h-1.02c-.28,0-.51,.27-.51,.6s.23,.6,.51,.6h1.02c.28,0,.51-.27,.51-.6s-.23-.6-.51-.6Z" style="fill: #869cb3;"/>
    <path d="M160.58,105.82c0-.33-.23-.6-.51-.6h-1.02c-.28,0-.51,.27-.51,.6s.23,.6,.51,.6h1.02c.28,0,.51-.27,.51-.6Z" style="fill: #869cb3;"/>
    <path d="M114.1,123.35c-.28,0-.51,.27-.51,.6v1.2c0,.33,.23,.6,.51,.6s.51-.27,.51-.6v-1.2c0-.33-.23-.6-.51-.6Z" style="fill: #869cb3;"/>
    <path d="M116.68,140.78h-1.02c-.28,0-.51,.27-.51,.6s.23,.6,.51,.6h1.02c.28,0,.51-.27,.51-.6s-.23-.6-.51-.6Z" style="fill: #869cb3;"/>
    <path d="M114.1,108.91c-.28,0-.51,.27-.51,.6v1.2c0,.33,.23,.6,.51,.6s.51-.27,.51-.6v-1.2c0-.33-.23-.6-.51-.6Z" style="fill: #869cb3;"/>
    <path d="M114.1,118.54c-.28,0-.51,.27-.51,.6v1.2c0,.33,.23,.6,.51,.6s.51-.27,.51-.6v-1.2c0-.33-.23-.6-.51-.6Z" style="fill: #869cb3;"/>
    <path d="M115.57,105.82c0-.33-.23-.6-.51-.6h-1.47v.68c0,.33,.23,.56,.51,.56,.06,0,.12-.01,.17-.04h.78c.28,0,.51-.27,.51-.6Z" style="fill: #869cb3;"/>
    <path d="M114.1,113.72c-.28,0-.51,.27-.51,.6v1.2c0,.33,.23,.6,.51,.6s.51-.27,.51-.6v-1.2c0-.33-.23-.6-.51-.6Z" style="fill: #869cb3;"/>
    <path d="M114.1,137.79c-.28,0-.51,.27-.51,.6v1.2c0,.33,.23,.6,.51,.6s.51-.27,.51-.6v-1.2c0-.33-.23-.6-.51-.6Z" style="fill: #869cb3;"/>
    <path d="M172.85,105.82c0-.33-.23-.6-.51-.6h-1.02c-.28,0-.51,.27-.51,.6s.23,.6,.51,.6h1.02c.28,0,.51-.27,.51-.6Z" style="fill: #869cb3;"/>
    <path d="M114.1,132.98c-.28,0-.51,.27-.51,.6v1.2c0,.33,.23,.6,.51,.6s.51-.27,.51-.6v-1.2c0-.33-.23-.6-.51-.6Z" style="fill: #869cb3;"/>
    <path d="M114.1,128.16c-.28,0-.51,.27-.51,.6v1.2c0,.33,.23,.6,.51,.6s.51-.27,.51-.6v-1.2c0-.33-.23-.6-.51-.6Z" style="fill: #869cb3;"/>
    <path d="M133.05,140.78h-1.02c-.28,0-.51,.27-.51,.6s.23,.6,.51,.6h1.02c.28,0,.51-.27,.51-.6s-.23-.6-.51-.6Z" style="fill: #869cb3;"/>
    <path d="M128.95,140.78h-1.02c-.28,0-.51,.27-.51,.6s.23,.6,.51,.6h1.02c.28,0,.51-.27,.51-.6s-.23-.6-.51-.6Z" style="fill: #869cb3;"/>
    <path d="M131.93,105.82c0-.33-.23-.6-.51-.6h-1.02c-.28,0-.51,.27-.51,.6s.23,.6,.51,.6h1.02c.28,0,.51-.27,.51-.6Z" style="fill: #869cb3;"/>
    <path d="M136.03,105.82c0-.33-.23-.6-.51-.6h-1.02c-.28,0-.51,.27-.51,.6s.23,.6,.51,.6h1.02c.28,0,.51-.27,.51-.6Z" style="fill: #869cb3;"/>
    <path d="M127.84,105.82c0-.33-.23-.6-.51-.6h-1.02c-.28,0-.51,.27-.51,.6s.23,.6,.51,.6h1.02c.28,0,.51-.27,.51-.6Z" style="fill: #869cb3;"/>
    <path d="M119.66,105.82c0-.33-.23-.6-.51-.6h-1.02c-.28,0-.51,.27-.51,.6s.23,.6,.51,.6h1.02c.28,0,.51-.27,.51-.6Z" style="fill: #869cb3;"/>
    <path d="M124.86,140.78h-1.02c-.28,0-.51,.27-.51,.6s.23,.6,.51,.6h1.02c.28,0,.51-.27,.51-.6s-.23-.6-.51-.6Z" style="fill: #869cb3;"/>
    <path d="M120.77,140.78h-1.02c-.28,0-.51,.27-.51,.6s.23,.6,.51,.6h1.02c.28,0,.51-.27,.51-.6s-.23-.6-.51-.6Z" style="fill: #869cb3;"/>
    <path d="M123.75,105.82c0-.33-.23-.6-.51-.6h-1.02c-.28,0-.51,.27-.51,.6s.23,.6,.51,.6h1.02c.28,0,.51-.27,.51-.6Z" style="fill: #869cb3;"/>
    <path d="M182.15,140.78h-1.02c-.28,0-.51,.27-.51,.6s.23,.6,.51,.6h1.02c.28,0,.51-.27,.51-.6s-.23-.6-.51-.6Z" style="fill: #869cb3;"/>
    <path d="M226.04,105.82c0-.33-.23-.6-.51-.6h-1.02c-.28,0-.51,.27-.51,.6s.23,.6,.51,.6h1.02c.28,0,.51-.27,.51-.6Z" style="fill: #869cb3;"/>
    <path d="M221.95,105.82c0-.33-.23-.6-.51-.6h-1.02c-.28,0-.51,.27-.51,.6s.23,.6,.51,.6h1.02c.28,0,.51-.27,.51-.6Z" style="fill: #869cb3;"/>
    <path d="M213.77,105.82c0-.33-.23-.6-.51-.6h-1.02c-.28,0-.51,.27-.51,.6s.23,.6,.51,.6h1.02c.28,0,.51-.27,.51-.6Z" style="fill: #869cb3;"/>
    <path d="M227.15,140.78h-1.02c-.28,0-.51,.27-.51,.6s.23,.6,.51,.6h1.02c.28,0,.51-.27,.51-.6s-.23-.6-.51-.6Z" style="fill: #869cb3;"/>
    <path d="M223.06,140.78h-1.02c-.28,0-.51,.27-.51,.6s.23,.6,.51,.6h1.02c.28,0,.51-.27,.51-.6s-.23-.6-.51-.6Z" style="fill: #869cb3;"/>
    <path d="M218.97,140.78h-1.02c-.28,0-.51,.27-.51,.6s.23,.6,.51,.6h1.02c.28,0,.51-.27,.51-.6s-.23-.6-.51-.6Z" style="fill: #869cb3;"/>
    <path d="M214.88,140.78h-1.02c-.28,0-.51,.27-.51,.6s.23,.6,.51,.6h1.02c.28,0,.51-.27,.51-.6s-.23-.6-.51-.6Z" style="fill: #869cb3;"/>
    <path d="M217.86,105.82c0-.33-.23-.6-.51-.6h-1.02c-.28,0-.51,.27-.51,.6s.23,.6,.51,.6h1.02c.28,0,.51-.27,.51-.6Z" style="fill: #869cb3;"/>
    <path d="M230.13,105.82c0-.33-.23-.6-.51-.6h-1.02c-.28,0-.51,.27-.51,.6s.23,.6,.51,.6h1.02c.28,0,.51-.27,.51-.6Z" style="fill: #869cb3;"/>
    <path d="M231.24,111.73c-.28,0-.51,.27-.51,.6v1.2c0,.33,.23,.6,.51,.6s.51-.27,.51-.6v-1.2c0-.33-.23-.6-.51-.6Z" style="fill: #869cb3;"/>
    <path d="M231.24,121.36c-.28,0-.51,.27-.51,.6v1.2c0,.33,.23,.6,.51,.6s.51-.27,.51-.6v-1.2c0-.33-.23-.6-.51-.6Z" style="fill: #869cb3;"/>
    <path d="M231.24,116.55c-.28,0-.51,.27-.51,.6v1.2c0,.33,.23,.6,.51,.6s.51-.27,.51-.6v-1.2c0-.33-.23-.6-.51-.6Z" style="fill: #869cb3;"/>
    <path d="M231.24,106.92c-.28,0-.51,.27-.51,.6v1.2c0,.33,.23,.6,.51,.6s.51-.27,.51-.6v-1.2c0-.33-.23-.6-.51-.6Z" style="fill: #869cb3;"/>
    <path d="M231.24,135.8c-.28,0-.51,.27-.51,.6v1.2c0,.33,.23,.6,.51,.6s.51-.27,.51-.6v-1.2c0-.33-.23-.6-.51-.6Z" style="fill: #869cb3;"/>
    <path d="M231.24,140.62c-.13,0-.25,.06-.35,.16h-.68c-.28,0-.51,.27-.51,.6s.23,.6,.51,.6h1.53v-.76c0-.33-.23-.6-.51-.6Z" style="fill: #869cb3;"/>
    <path d="M231.24,126.18c-.28,0-.51,.27-.51,.6v1.2c0,.33,.23,.6,.51,.6s.51-.27,.51-.6v-1.2c0-.33-.23-.6-.51-.6Z" style="fill: #869cb3;"/>
    <path d="M231.24,130.99c-.28,0-.51,.27-.51,.6v1.2c0,.33,.23,.6,.51,.6s.51-.27,.51-.6v-1.2c0-.33-.23-.6-.51-.6Z" style="fill: #869cb3;"/>
    <path d="M190.33,140.78h-1.02c-.28,0-.51,.27-.51,.6s.23,.6,.51,.6h1.02c.28,0,.51-.27,.51-.6s-.23-.6-.51-.6Z" style="fill: #869cb3;"/>
    <path d="M186.24,140.78h-1.02c-.28,0-.51,.27-.51,.6s.23,.6,.51,.6h1.02c.28,0,.51-.27,.51-.6s-.23-.6-.51-.6Z" style="fill: #869cb3;"/>
    <path d="M189.22,105.82c0-.33-.23-.6-.51-.6h-1.02c-.28,0-.51,.27-.51,.6s.23,.6,.51,.6h1.02c.28,0,.51-.27,.51-.6Z" style="fill: #869cb3;"/>
    <path d="M185.13,105.82c0-.33-.23-.6-.51-.6h-1.02c-.28,0-.51,.27-.51,.6s.23,.6,.51,.6h1.02c.28,0,.51-.27,.51-.6Z" style="fill: #869cb3;"/>
    <path d="M173.96,140.78h-1.02c-.28,0-.51,.27-.51,.6s.23,.6,.51,.6h1.02c.28,0,.51-.27,.51-.6s-.23-.6-.51-.6Z" style="fill: #869cb3;"/>
    <path d="M176.94,105.82c0-.33-.23-.6-.51-.6h-1.02c-.28,0-.51,.27-.51,.6s.23,.6,.51,.6h1.02c.28,0,.51-.27,.51-.6Z" style="fill: #869cb3;"/>
    <path d="M181.03,105.82c0-.33-.23-.6-.51-.6h-1.02c-.28,0-.51,.27-.51,.6s.23,.6,.51,.6h1.02c.28,0,.51-.27,.51-.6Z" style="fill: #869cb3;"/>
    <path d="M193.31,105.82c0-.33-.23-.6-.51-.6h-1.02c-.28,0-.51,.27-.51,.6s.23,.6,.51,.6h1.02c.28,0,.51-.27,.51-.6Z" style="fill: #869cb3;"/>
    <path d="M178.05,140.78h-1.02c-.28,0-.51,.27-.51,.6s.23,.6,.51,.6h1.02c.28,0,.51-.27,.51-.6s-.23-.6-.51-.6Z" style="fill: #869cb3;"/>
    <path d="M205.58,105.82c0-.33-.23-.6-.51-.6h-1.02c-.28,0-.51,.27-.51,.6s.23,.6,.51,.6h1.02c.28,0,.51-.27,.51-.6Z" style="fill: #869cb3;"/>
    <path d="M210.79,140.78h-1.02c-.28,0-.51,.27-.51,.6s.23,.6,.51,.6h1.02c.28,0,.51-.27,.51-.6s-.23-.6-.51-.6Z" style="fill: #869cb3;"/>
    <path d="M194.42,140.78h-1.02c-.28,0-.51,.27-.51,.6s.23,.6,.51,.6h1.02c.28,0,.51-.27,.51-.6s-.23-.6-.51-.6Z" style="fill: #869cb3;"/>
    <path d="M202.6,140.78h-1.02c-.28,0-.51,.27-.51,.6s.23,.6,.51,.6h1.02c.28,0,.51-.27,.51-.6s-.23-.6-.51-.6Z" style="fill: #869cb3;"/>
    <path d="M209.68,105.82c0-.33-.23-.6-.51-.6h-1.02c-.28,0-.51,.27-.51,.6s.23,.6,.51,.6h1.02c.28,0,.51-.27,.51-.6Z" style="fill: #869cb3;"/>
    <path d="M206.69,140.78h-1.02c-.28,0-.51,.27-.51,.6s.23,.6,.51,.6h1.02c.28,0,.51-.27,.51-.6s-.23-.6-.51-.6Z" style="fill: #869cb3;"/>
    <path d="M197.4,105.82c0-.33-.23-.6-.51-.6h-1.02c-.28,0-.51,.27-.51,.6s.23,.6,.51,.6h1.02c.28,0,.51-.27,.51-.6Z" style="fill: #869cb3;"/>
    <path d="M198.51,140.78h-1.02c-.28,0-.51,.27-.51,.6s.23,.6,.51,.6h1.02c.28,0,.51-.27,.51-.6s-.23-.6-.51-.6Z" style="fill: #869cb3;"/>
    <path d="M201.49,105.82c0-.33-.23-.6-.51-.6h-1.02c-.28,0-.51,.27-.51,.6s.23,.6,.51,.6h1.02c.28,0,.51-.27,.51-.6Z" style="fill: #869cb3;"/>
  </g>
  <rect x="114.94" y="27.13" width="117.67" height="4.76" rx="2.32" ry="2.32" style="fill: #e9f0f7;"/>
  <rect x="128.3" y="43.39" width="98.32" height="4.76" rx="2.12" ry="2.12" style="fill: #e9f0f7;"/>
  <rect x="122.36" y="155.26" width="108.65" height="4.5" rx="2.17" ry="2.17" style="fill: #e9f0f7;"/>
  <g>
    <path d="M85.41,172.1c3.2-9.79,5.07-18.91,4.17-23.59-2.36-12.3-31.69-6.31-31.69-6.31,0,0-3.15,12.83-5.07,23.5-.28,1.57-.54,3.11-.76,4.55-.37,2.55-.71,5.04-1.02,7.36-.07,.57-.15,1.16-.23,1.77h32.21c.8-2.41,1.59-4.84,2.39-7.28Z" style="fill: #fff; stroke: #869cb3; stroke-miterlimit: 10; stroke-width: .75px;"/>
    <path d="M87.67,149.21l-41.63-7.17s-2.97,8.31,5.1,18.57c4.19,5.33,9.91,12.33,15.07,18.78h29.25c-3.35-14.47-7.79-30.18-7.79-30.18Z" style="fill: #fff; stroke: #869cb3; stroke-miterlimit: 10; stroke-width: .75px;"/>
    <path d="M110.92,96.85c-10.09-11.26-17.56-17.2-22.54-20.33-.06-.04-.12-.07-.17-.11-.02-.01-.05-.03-.07-.04-.49-.32-1-.62-1.54-.91-3.92-2.22-5.84-2.42-5.84-2.42l-13.56-3.1,.14-.21s-9.76,.13-19.01,1.72c-6.56,1.13-14.36,2.71-14.36,2.71l3.05,18.85,10.86-1.07s1.82-.78,1.78-.65c-1.3,4.91-.85,11.76-1.04,18.85-.22,8.83-1.04,19.29-3.46,31.54-.51,3.75,44.85,11.28,45.13,7.35,.12-14.84,2.43-27.61,4.14-38.31,.16-1.03,.31-2.04,.46-3.03l3.32,2.63,12.69-13.47Z" style="fill: #fff; stroke: #869cb3; stroke-miterlimit: 10; stroke-width: .75px;"/>
    <g>
      <path d="M165.29,132.44c-3.88,1.48-6.18,2.8-10.3,1.96,.11-1.55,.45-5.14,.53-6.71,3.7-3.24,5.19-4.02,10.16-3.23,.09,.73-2.88,1.85-3.58,2.88,.98-.07,3.32-.73,4.03-.08,1.24,1.13,1.73,3.54-.85,5.18Z" style="fill: #fff; stroke: #869cb3; stroke-miterlimit: 10; stroke-width: .75px;"/>
      <path d="M110.17,97.04l12.57,17.91,32.8,12.73,.5,6.99s-34.06-4.39-43.67-11.27c-9.61-6.88-13.87-14.3-13.87-14.3l11.67-12.05Z" style="fill: #fff; stroke: #869cb3; stroke-miterlimit: 10; stroke-width: .51px;"/>
    </g>
    <path d="M163.37,94.89c-.11-1.69-1.57-2.97-3.28-2.87L13.6,101.06c-1.7,.11-3,1.56-2.89,3.25l2.15,34.26c.11,1.69,1.57,2.97,3.28,2.87l146.49-9.04c1.7-.11,3-1.56,2.89-3.25l-2.15-34.26Z" style="fill: #e9f0f7;"/>
    <path d="M68.78,65.01c-.56,4.01-1.98,4.79-1.34,6.81,.89,3.1,11.24,12.3,12.79,5.19l.09-.65,.99-7.15c4.32,1.71,5.75-1.73,6.65-6.78,.14-.76,1.18-1.3,1.25-2.12-1.52-5.05-.8-7.82-.22-12.38-6.71-16.24-30.42-10.4-19.61,12.67,0,0-.06,.44-.61,4.43Z" style="fill: #fff; stroke: #869cb3; stroke-miterlimit: 10; stroke-width: .75px;"/>
    <path d="M32.88,74.83c-13.45,3.57-26.61,9.33-24.93,12.4,.16,4.84,12.4,5.22,24.93,2.9v-15.31Z" style="fill: #fff; stroke: #869cb3; stroke-miterlimit: 10; stroke-width: .51px;"/>
    <path d="M9.63,85.34c-1.51,.73-2.44,2.31-2.58,3.98-1.05,13.01,19.83,58.61,22.43,55.83,2.48-1.09-8.49-65.33-19.85-59.8Z" style="fill: #ffb39f;"/>
    <path d="M36.35,92.15l-15.28,2.58,8.34,39.86-6.51,1.89S3.68,95.4,8.07,86.09c2.74-5.79,25.6-11.62,25.6-11.62" style="fill: #fff; stroke: #869cb3; stroke-miterlimit: 10; stroke-width: .75px;"/>
    <path d="M69.38,60.57c.32-.04-.43-8.31,1.29-8.17,1.03,.09,1.45,1.41,1.59,2.96,.05,.59,.6,1.01,1.18,.87h0c.46-.11,.77-.52,.75-.99-.16-3.47,.3-7.29,1.35-8.22,2.03-1.76,6.81,1.32,11.85,2.47,3.23,.72,4.56-2.88,5.09-5.57,.39-1.94-.43-3.97-2.11-5.03-3.76-2.37-8.4-1.07-14.01-1.51-6.91-.54-8.39,3.55-9.8,9.4-1.41,5.85,2.52,13.84,2.82,13.8Z" style="fill: #fff; stroke: #869cb3; stroke-miterlimit: 10; stroke-width: .75px;"/>
    <path d="M32.09,145.7c-3.78-.09-8.07-1.65-9.31-5.46-.06-.75-.57-5.37-.64-6.02,1.5-.45,5-1.41,6.51-1.89,4.37,2.29,5.51,2.92,6.53,7.82-.65,.33-2.66-1.54-3.88-1.84l.99,2.24c1.49,1.76,3.23,4.1-.2,5.15Z" style="fill: #fff; stroke: #869cb3; stroke-miterlimit: 10; stroke-width: .75px;"/>
  </g>
  <g>
    <circle cx="176.07" cy="125.02" r="4" style="fill: #869cb3;"/>
    <g>
      <path d="M176.07,127.49c-.18,0-.32-.14-.32-.32v-4.29c0-.18,.14-.32,.32-.32s.32,.14,.32,.32v4.29c0,.18-.14,.32-.32,.32Z" style="fill: #fff;"/>
      <path d="M178.21,125.34h-4.29c-.18,0-.32-.14-.32-.32s.14-.32,.32-.32h4.29c.18,0,.32,.14,.32,.32s-.14,.32-.32,.32Z" style="fill: #fff;"/>
    </g>
  </g>
  <rect x="33.69" y="104.35" width="121.72" height="24.71" rx="2.95" ry="2.95" transform="translate(-8.05 7.01) rotate(-4.07)" style="fill: #fff;"/>
  <g>
    <path id="g" data-name="Path 103" d="M123.59,44.73h-.78v-.47c0-.14,.12-.24,.26-.23h.52v-.47h-.65c-.13,0-.39,.1-.39,.23,0-.13-.25-.23-.39-.23h-.65v.47h.52c.14,0,.25,.1,.26,.23v3.26c0,.14-.12,.24-.26,.23h-.52v.47h.65c.14,0,.39-.1,.39-.23,0,.13,.25,.23,.39,.23h.65v-.47h-.52c-.14,0-.25-.1-.26-.23v-.47h.78c.27,.01,.5-.19,.52-.47v-1.4c-.02-.27-.25-.48-.52-.46Zm0,1.86h-.78v-1.4h.78v1.4Z" style="fill: #869cb3;"/>
    <path id="h" data-name="Path 104" d="M122.3,46.59h-2.33v-1.4h2.33v-.46h-2.33c-.27-.01-.5,.19-.52,.47v1.4c.02,.27,.25,.48,.52,.47h2.33v-.47Z" style="fill: #869cb3;"/>
  </g>
  <g style="opacity: .41;">
    <path d="M175.34,70.07h-6.33c-.44,0-.79,.35-.79,.79v6.73c0,.44,.35,.79,.79,.79h6.33c.44,0,.79-.35,.79-.79v-6.73c0-.44-.35-.79-.79-.79Zm0,7.52h-6.33v-6.73h6.33v6.73Z" style="fill: #869cb3;"/>
    <rect x="173.53" y="76.19" width="1.47" height=".49" transform="translate(-2.99 145.63) rotate(-45.01)" style="fill: #869cb3;"/>
    <rect x="172.27" y="75.66" width="2.93" height=".49" transform="translate(-2.78 145.08) rotate(-45)" style="fill: #869cb3;"/>
    <path d="M170.42,75.58c.09,.05,.19,.08,.29,.08h.73v-.88h-.59v-2.64h.59v-.88h-.73c-.1,0-.2,.03-.29,.08-.09-.05-.19-.08-.29-.08h-.73v.88h.59v2.64h-.59v.88h.73c.1,0,.2-.03,.29-.09Z" style="fill: #869cb3;"/>
  </g>
  <g>
    <path d="M91.02,121.81c.84,1.62,2.06-.55,3.06-.85,.84,1.44,3.45,1.03,5.06,.51,.19-.05,.33-.16,.14-.25-.88-.24-1.85,.35-2.77,.29-1-.05-1.05-.63-1.75-.99-1.15-.46-2.09,.24-2.75,.91-.12-.2-.28-.38-.46-.52-.22-.2-1.17-.07-.92,.16,.19,.22,.32,.47,.39,.75Z" style="fill: #869cb3; opacity: .6;"/>
    <polygon points="85.16 123.23 86.13 122.19 87.25 123.05 87.74 122.53 86.61 121.67 87.58 120.62 87.02 120.19 86.05 121.23 84.92 120.37 84.43 120.89 85.56 121.75 84.59 122.8 85.16 123.23" style="fill: #869cb3; opacity: .6;"/>
    <polygon points="99.73 123.39 84.75 124.64 84.86 126 99.84 124.75 99.84 124.75 99.73 123.39" style="fill: #869cb3; opacity: .6;"/>
    <path d="M97.3,112.84l.47,.4-1.78,2.1,.7,.59,1.73-2.04c.22-.25,.43-.5,.42-.72,0-.22-.24-.41-.48-.62-.16-.13-.32-.26-.32-.41,0-.15,.13-.31,.27-.48h0c.16-.2,.14-.48-.05-.65l-1.16-.98c-.19-.16-.48-.14-.64,.05l-1.6,1.89,1.85,1.57,.59-.7Z" style="fill: #869cb3; opacity: .6;"/>
    <polygon points="92.48 118.54 95.93 114.45 94.08 112.88 90.62 116.97 90.77 118.69 92.48 118.54" style="fill: #869cb3; opacity: .6;"/>
  </g>
  <g>
    <path d="M221.5,116.54c.45,.99,1.25-.27,1.85-.42,.46,.89,2.03,.71,3.01,.44,.12-.02,.2-.09,.09-.15-.52-.17-1.11,.16-1.66,.1-.6-.06-.61-.41-1.02-.64-.67-.31-1.26,.09-1.67,.46-.07-.12-.15-.23-.26-.32-.13-.13-.7-.07-.55,.07,.11,.13,.18,.29,.21,.46Z" style="fill: #869cb3; opacity: .6;"/>
    <polygon points="217.95 117.22 218.56 116.63 219.21 117.18 219.51 116.88 218.87 116.33 219.47 115.74 219.15 115.46 218.54 116.06 217.89 115.51 217.59 115.81 218.24 116.36 217.63 116.95 217.95 117.22" style="fill: #869cb3; opacity: .6;"/>
    <polygon points="226.65 117.73 217.67 118.06 217.7 118.87 226.68 118.54 226.68 118.54 226.65 117.73" style="fill: #869cb3; opacity: .6;"/>
    <path d="M225.49,111.36l.27,.25-1.12,1.2,.4,.37,1.09-1.17c.14-.14,.27-.29,.27-.42,0-.13-.13-.25-.27-.38-.09-.08-.18-.17-.18-.26,0-.09,.09-.18,.18-.28h0c.1-.11,.1-.29-.01-.39l-.66-.62c-.11-.1-.28-.1-.38,.01l-1.01,1.09,1.06,.99,.37-.4Z" style="fill: #869cb3; opacity: .6;"/>
    <polygon points="222.46 114.63 224.63 112.28 223.57 111.3 221.39 113.64 221.43 114.67 222.46 114.63" style="fill: #869cb3; opacity: .6;"/>
  </g>
  <path d="M167.42,129.54c-.14,1.71-2.7,3.75-5.52,3.98,.47-2.32-2.4-2.2-2.4-4.81s2.03-3.55,4.77-3.55c1.34,0,3.39,1.6,3.16,4.37Z" style="fill: #fff; stroke: #869cb3; stroke-miterlimit: 10; stroke-width: .86px;"/>
</svg>