<?xml version="1.0" encoding="UTF-8"?><svg id="c" xmlns="http://www.w3.org/2000/svg" viewBox="0 0 250 180"><rect x="175.56" y="63.37" width="40.45" height="12.7" style="fill:#fff; stroke-width:0px;"/><rect x="135.25" y="140.55" width="28.8" height="18.29" style="fill:#edf3f7; stroke-width:0px;"/><polygon points="165.17 108.97 149.77 124.36 134.39 108.97 149.77 93.57 165.17 108.97" style="fill:#fff; stroke-width:0px;"/><rect x="94.86" y="99.82" width="28.8" height="18.29" style="fill:#e8eff6; stroke:#859cb3; stroke-miterlimit:10; stroke-width:.25px;"/><path d="m149.77,59.5c5.64,0,10.22,4.59,10.22,10.22s-4.58,10.22-10.22,10.22-10.21-4.58-10.21-10.22,4.58-10.22,10.21-10.22Z" style="fill:#edf3f7; stroke-width:0px;"/><path d="m217.07,61.24h-42.58c-.59,0-1.06.48-1.06,1.06v5.57l-3.13-3.13c-.41-.41-1.09-.41-1.5,0-.41.42-.41,1.09,0,1.5l2.4,2.4h-9.13c-.55-6.31-5.84-11.28-12.3-11.28-6.8,0-12.34,5.54-12.34,12.35s5.54,12.35,12.34,12.35,11.75-4.97,12.3-11.28h9.13l-2.4,2.4c-.41.41-.41,1.09,0,1.5.21.21.48.31.75.31s.55-.11.75-.31l3.13-3.13v5.58c0,.58.48,1.06,1.06,1.06h20.23v29.71h-24.71l2.4-2.4c.41-.41.41-1.08,0-1.5-.42-.42-1.09-.42-1.5,0l-3.85,3.85-.38-.38-16.14-16.15c-.42-.41-1.09-.41-1.51,0l-16.58,16.59h-4.13l2.4-2.4c.42-.41.42-1.08,0-1.5-.42-.42-1.09-.42-1.5,0l-3.43,3.42v-8.66c0-.58-.48-1.06-1.06-1.06h-30.93c-.58,0-1.06.48-1.06,1.06v20.42c0,.59.48,1.06,1.06,1.06h14.4v29.47c0,.58.48,1.06,1.06,1.06h21.19l-2.4,2.4c-.41.42-.41,1.09,0,1.5.21.21.48.31.75.31s.55-.1.75-.31l3.57-3.56v8.8c0,.59.48,1.06,1.06,1.06h30.93c.59,0,1.06-.48,1.06-1.06v-20.42c0-.59-.48-1.06-1.06-1.06h-13.61l3.24-3.24c.42-.41.42-1.09,0-1.5-.41-.41-1.09-.41-1.5,0l-2.4,2.4v-9.79l15.84-15.83.38-.38,3.85,3.84c.21.21.48.31.75.31s.55-.1.75-.31c.41-.41.41-1.09,0-1.5l-2.4-2.4h25.78c.59,0,1.06-.48,1.06-1.06v-30.77h20.23c.58,0,1.06-.48,1.06-1.06v-14.83c0-.59-.48-1.06-1.06-1.06Zm-67.3,18.69c-5.63,0-10.21-4.58-10.21-10.22s4.58-10.22,10.21-10.22,10.22,4.59,10.22,10.22-4.58,10.22-10.22,10.22Zm-54.91,38.17v-18.29h28.8v18.29h-28.8Zm38.26,21.38v8.8l-3.57-3.56c-.41-.42-1.09-.42-1.5,0-.41.41-.41,1.09,0,1.5l2.4,2.4h-20.13v-28.4h14.4c.59,0,1.06-.48,1.06-1.06v-8.66l3.43,3.42c.21.21.48.31.75.31s.55-.1.75-.31c.42-.41.42-1.09,0-1.5l-2.4-2.4h4.13l16.27,16.27v9.79l-2.4-2.4c-.42-.41-1.09-.41-1.5,0-.42.42-.42,1.09,0,1.5l3.24,3.24h-13.86c-.59,0-1.06.48-1.06,1.06Zm30.93,1.06v18.29h-28.8v-18.29h28.8Zm-14.28-16.2l-15.39-15.39,15.39-15.4,15.4,15.4-15.4,15.39Zm66.24-48.29h-40.45v-12.7h40.45v12.7Z" style="fill:#e8eff6; stroke:#859cb3; stroke-miterlimit:10; stroke-width:.25px;"/><g id="d"><rect x="178.12" y="96.98" width="21.09" height="21.09" transform="translate(61.73 -68.67) rotate(24.55)" style="fill:#e8eff6; stroke:#859cb3; stroke-miterlimit:10; stroke-width:.25px;"/><path d="m172.12,92.65l1.13,3.4s-.68,2.72,2.95,8.39c0,0,1.02,1.02,1.7.79,0,0,1.59.68,2.72.45,0,0,1.59,1.36,2.27,1.13,0,0,1.59,1.59,1.81,0,0,0-.91-2.72-2.27-4.08l-2.72-4.08s4.08,2.49,5.44,1.36l-2.95-2.72s-2.04-1.81-3.63-2.04l-7.03-26.98,3.63-4.99-9.29-7.25-5.13,9.35c-.76,1.38-.79,3.05-.08,4.46l11.45,22.8Z" style="fill:#fff; stroke:#859cb3; stroke-miterlimit:10; stroke-width:.75px;"/><path d="m162.94,58.76l9.7,8.03,5.26-5.53h47.38s4.5-1.74,2.17-4.89c-1.14-1.53-4.71-5.07-8.1-8.22-4.61-4.27-9.43-8.59-12.43-9.11-5.21-.91-11.56-.68-11.56-.68,0,0-12.01-.45-22.67,5.89,0,0-7.25,10.43-9.75,14.51Z" style="fill:#fff; stroke:#859cb3; stroke-miterlimit:10; stroke-width:.75px;"/><path d="m196.6,40.77c-.06-.18-4.29-4.57-4.29-4.57,0,0,.45-7.03-3.17-4.31l-3.92-4.39-9.42,9.25s6.61,15.58,13.6,7.47l1.58,2.04s2.24-.73,3.75-1.95c1.58-1.28,1.87-3.55,1.87-3.55Z" style="fill:#fff; stroke:#859cb3; stroke-miterlimit:10; stroke-width:.75px;"/><path d="m191.85,32.35c-1.36-1.81-3.75,0-3.38,1.87.38,1.87-.83,2.44-.83,2.44,0,0-2.36-1.85-3.58-3.25-1.23-1.4-1.97.02-1.97.02-1.01,5.07-4.89,4.68-4.89,4.68-6.4-2.77-2.37-8.91-.37-10.78,1.42-1.33,3.64-2.32,3.64-2.32-.03-.06-.06-.12-.09-.18-.19-.39-.36-.75-.51-1.08-1.39-3.06-1.08-3.9-.39-5.16.45-.83,4.56-3.19,7.56-1.15,2.07,1.4,1.42,4.29.81,5.97-.17.48-.34.86-.45,1.08-.06.13-.1.2-.1.2,5.08,2.98,4.55,7.67,4.55,7.67Z" style="fill:#fff; stroke:#859cb3; stroke-miterlimit:10; stroke-width:.75px;"/><path d="m213.3,55.65l-9.55,1.75-3.85.91-3.4-1.13-5.89,1.13-3.06,2.95h38.2s5.33-.79,1.02-6.23l-7.03-6.35-7.37,6.01.94.97Z" style="fill:#fff; stroke:#859cb3; stroke-miterlimit:10; stroke-width:.75px;"/><path d="m225.77,61.68h-39.29l3.91-3.77,6.13-1.18,3.39,1.13,3.76-.88,8.77-1.6-.71-.73,8.01-6.53,7.35,6.64c1.56,1.97,2.1,3.62,1.59,4.91-.66,1.66-2.79,2-2.88,2.01h-.03Z" style="fill:#fff; stroke:#859cb3; stroke-miterlimit:10; stroke-width:.75px;"/><path d="m187.85,23.4c-.17.48-.34.86-.45,1.08-1.38-.23-4.29-.53-7.02.35-.19-.39-.36-.75-.51-1.08,1.51-.61,4.64-1.52,7.98-.35Z" style="fill:#fff; stroke:#859cb3; stroke-miterlimit:10; stroke-width:.75px;"/></g><g id="e"><polygon points="47.9 162.52 47.32 169.79 39.74 169.79 40.33 162.52 47.9 162.52" style="fill:#fff; stroke:#859cb3; stroke-miterlimit:10; stroke-width:.75px;"/><path d="m39.74,167.41s4.12,3.12,7.58,0l10.26,5.35c.45.24.28.92-.22.92h-18.13c-.57,0-.99-.54-.84-1.09l1.36-5.17Z" style="fill:#fff; stroke:#859cb3; stroke-miterlimit:10; stroke-width:.75px;"/><polygon points="66.76 162.52 67.53 169.79 59.96 169.79 59.18 162.52 66.76 162.52" style="fill:#fff; stroke:#859cb3; stroke-miterlimit:10; stroke-width:.75px;"/><path d="m59.76,167.41s4.12,3.12,7.58,0l10.26,5.35c.45.24.28.92-.22.92h-18.13c-.57,0-.99-.54-.84-1.09l1.36-5.17Z" style="fill:#fff; stroke:#859cb3; stroke-miterlimit:10; stroke-width:.75px;"/><polygon points="56.29 67.22 64.45 106.15 70.67 163.49 57.84 163.49 53.18 113.92 41.15 75.49 56.29 67.22" style="fill:#fff; stroke:#859cb3; stroke-miterlimit:10; stroke-width:.75px;"/><path d="m38.42,39.86l-.55-7.66s-4.56-2.37-4.01-5.66,2.01-6.02,9.3-9.3c0,0,11.13,11.13,2.74,14.41l1.46,7.11-8.94,1.09Z" style="fill:#fff; stroke:#859cb3; stroke-miterlimit:10; stroke-width:.75px;"/><polygon points="49.39 43.07 65.33 50.46 87.87 43.07 87.87 46.76 65.52 60.37 42 50.46 49.39 43.07" style="fill:#fff; stroke:#859cb3; stroke-miterlimit:10; stroke-width:.75px;"/><path d="m37.87,28.55s1.28,2.01,0,3.65c0,0-12.41-3.1-6.57-12.04,0,0,4.74-8.76,10.03-7.48,5.29,1.28,7.32,5.87,4.48,7.68-2.84,1.81-7.4,4.36-7.4,4.36l.91,2.01-.55.55s-2.74-1.64-3.1-.55c-.36,1.09.36,2.74,2.19,1.82Z" style="fill:#fff; stroke:#859cb3; stroke-miterlimit:10; stroke-width:.75px;"/><polygon points="38.02 163.49 41.13 110.23 33.16 77.57 53.18 69.8 57.84 106.73 50.26 163.49 38.02 163.49" style="fill:#fff; stroke:#859cb3; stroke-miterlimit:10; stroke-width:.75px;"/><path d="m73.37,61.21l-28.28,26.51c-1.38,1.29-3.54,1.22-4.83-.16l-13.51-14.51-.94-1.01c-1.28-1.37-1.21-3.52.16-4.81,6.16-5.77,22.1-20.72,28.28-26.52,1.38-1.29,3.54-1.22,4.83.17l1.04,1.11,13.42,14.41c1.28,1.37,1.21,3.53-.16,4.81Z" style="fill:#e8eff6; stroke:#859cb3; stroke-miterlimit:10; stroke-width:.25px;"/><rect x="30.04" y="61.01" width="34.55" height="2.22" transform="translate(-29.64 48.9) rotate(-42.96)" style="fill:#859cb3; stroke-width:0px;"/><rect x="29.74" y="64.5" width="15.43" height="2.12" transform="translate(-34.63 43.1) rotate(-42.96)" style="fill:#859cb3; stroke-width:0px;"/><rect x="41.85" y="52.21" width="17.6" height="2.12" transform="translate(-22.72 48.8) rotate(-42.96)" style="fill:#859cb3; stroke-width:0px;"/><rect x="39.93" y="75.25" width="15.43" height="2.12" transform="translate(-39.23 52.93) rotate(-42.96)" style="fill:#859cb3; stroke-width:0px;"/><rect x="52.04" y="62.96" width="17.6" height="2.12" transform="translate(-27.32 58.62) rotate(-42.96)" style="fill:#859cb3; stroke-width:0px;"/><rect x="34.52" y="65.87" width="34.55" height="2.11" transform="translate(-31.72 53.24) rotate(-42.96)" style="fill:#859cb3; stroke-width:0px;"/><polygon points="76.21 52.6 98.1 45.14 81.05 30.96 76.21 52.6" style="fill:#e8eff6; stroke:#859cb3; stroke-miterlimit:10; stroke-width:.25px;"/><path d="m54.07,71.72s2.29,4.75,3.7,4.93c0,0,1.23.35,1.23-.88,0,0,1.94.35,1.76-1.23,0,0,1.41.18,1.41-1.06,0,0,1.58-.18,1.23-1.41-.35-1.23-1.58-2.82-1.58-2.82,0,0,1.58,1.23,2.64.7,0,0-1.23-2.64-3.35-3.87,0,0-2.11-.53-4.58.88l-7.92-1.06v6.16l5.46-.35Z" style="fill:#fff; stroke:#859cb3; stroke-miterlimit:10; stroke-width:.75px;"/><path d="m52.41,74.69l.86-8.78-13.31-3.3-.93-7.84,15.61-14.61s-2.14-3.69-7.48-4.57c0,0-1.17,5.83-9.14,1.75l-8.69,5.8c-.75.5-1.17,1.37-1.09,2.27l2.01,21.86c.17,1.9,1.58,3.46,3.46,3.82l18.72,3.6Z" style="fill:#fff; stroke:#859cb3; stroke-miterlimit:10; stroke-width:.75px;"/><path d="m82.01,50.58s2.5.4,3.64-.36c0,0,.89,0,1.14-.76,0,0,1.01,0,1.39-.89,0,0,.89-.13,1.14-.89,0,0,1.01-.25,1.01-.89,0,0,0-3.17-.38-3.8s-1.65-.63-1.77.13c0,0-1.14-.25-1.27.89,0,0-1.39-.25-1.27.89,0,0-1.14-.25-1.01.89l.42,2.09-3.05,2.7Z" style="fill:#fff; stroke:#859cb3; stroke-miterlimit:10; stroke-width:.75px;"/></g></svg>