<?xml version="1.0" encoding="UTF-8"?><svg id="c" xmlns="http://www.w3.org/2000/svg" xmlns:xlink="http://www.w3.org/1999/xlink" viewBox="0 0 250 180"><defs><clipPath id="d"><rect y="-.16" width="250" height="179.99" style="fill:none; stroke-width:0px;"/></clipPath><clipPath id="e"><rect x="57.79" y="5.09" width="122.87" height="179.91" style="fill:none; stroke-width:0px;"/></clipPath><clipPath id="f"><rect x="81.37" y="124.1" width="87.9" height="60.85" style="fill:none; stroke-width:0px;"/></clipPath></defs><path d="m130.2,19.37h-13.37c-.54,0-.97-.43-.97-.97s.43-.97.97-.97h13.37c.54,0,.97.43.97.97s-.43.97-.97.97Z" style="fill:#869cb3; stroke-width:0px;"/><path d="m114.06,19.37h-2.41c-.54,0-.97-.43-.97-.97s.43-.97.97-.97h2.41c.54,0,.97.43.97.97s-.43.97-.97.97Z" style="fill:#869cb3; stroke-width:0px;"/><path d="m139.27,25.78h-11.23c-.54,0-.97-.43-.97-.97s.43-.97.97-.97h11.23c.54,0,.97.43.97.97s-.43.97-.97.97Z" style="fill:#869cb3; stroke-width:0px;"/><path d="m124.52,25.78h-12.87c-.54,0-.97-.43-.97-.97s.43-.97.97-.97h12.87c.54,0,.97.43.97.97s-.43.97-.97.97Z" style="fill:#869cb3; stroke-width:0px;"/><path d="m139.27,32.19h-3.63c-.54,0-.97-.43-.97-.97s.43-.97.97-.97h3.63c.54,0,.97.43.97.97s-.43.97-.97.97Z" style="fill:#869cb3; stroke-width:0px;"/><path d="m132.51,32.19h-13.63c-.54,0-.97-.43-.97-.97s.43-.97.97-.97h13.63c.54,0,.97.43.97.97s-.43.97-.97.97Z" style="fill:#869cb3; stroke-width:0px;"/><path d="m115.33,32.19h-3.67c-.54,0-.97-.43-.97-.97s.43-.97.97-.97h3.67c.54,0,.97.43.97.97s-.43.97-.97.97Z" style="fill:#869cb3; stroke-width:0px;"/><path d="m17.85,26.71h1.41c.32,0,.57.26.57.57v1.38c0,.32-.26.57-.57.57h-1.41c-.32,0-.57-.26-.57-.57v-1.38c0-.32.26-.57.57-.57Z" style="fill:#869cb3; stroke-width:0px;"/><path d="m22.36,26.71h1.43c.31,0,.56.25.56.56v1.4c0,.31-.25.56-.56.56h-1.43c-.31,0-.56-.25-.56-.56v-1.4c0-.31.25-.56.56-.56Z" style="fill:#869cb3; stroke-width:0px;"/><path d="m26.88,26.71h1.43c.31,0,.56.25.56.56v1.4c0,.31-.25.56-.56.56h-1.43c-.31,0-.56-.25-.56-.56v-1.4c0-.31.25-.57.57-.57Z" style="fill:#869cb3; stroke-width:0px;"/><path d="m12.19,24.81c.44.27.78.57,1.02.91.25.34.42.76.52,1.28.1.52.15,1.18.15,2,0,.61.01,1.06.04,1.35.03.29.08.51.17.66s.18.25.3.3c.12.05.32.09.6.13.23.03.43.14.58.34.15.2.23.45.23.77,0,.74-.45,1.12-1.36,1.12-.56,0-1.06-.12-1.5-.35-.44-.23-.78-.56-1.02-.99-.24-.43-.36-.92-.37-1.47-.02-.93-.04-1.68-.06-2.25-.02-.57-.05-.93-.08-1.1-.09-.41-.23-.72-.41-.93-.18-.21-.42-.4-.71-.59-.29-.18-.5-.34-.62-.49-.12-.14-.18-.37-.18-.69,0-.45.18-.8.53-1.02.44-.28.76-.51.95-.71.19-.19.32-.44.4-.75.08-.3.12-.64.13-1,.01-.36.03-1.22.06-2.6.02-.85.29-1.53.81-2.03.52-.51,1.21-.76,2.08-.76s1.36.37,1.36,1.1c0,.33-.08.59-.23.78s-.35.3-.59.33c-.36.05-.61.12-.75.22-.14.1-.23.29-.28.57-.04.28-.07.83-.08,1.64-.01.79-.06,1.44-.14,1.95-.08.51-.25.94-.49,1.3s-.59.68-1.06.97Z" style="fill:#869cb3; stroke-width:0px;"/><path d="m32.91,23.85c-.24-.36-.41-.79-.49-1.3-.08-.51-.13-1.16-.14-1.95-.01-.81-.04-1.36-.08-1.64-.04-.28-.14-.47-.28-.57-.14-.1-.39-.17-.75-.22-.24-.03-.43-.14-.59-.33s-.23-.45-.23-.78c0-.73.45-1.1,1.36-1.1s1.56.25,2.08.76c.52.51.79,1.18.81,2.03.02,1.37.04,2.24.06,2.6.01.36.06.69.13,1,.08.3.21.55.4.75s.5.43.95.71c.36.23.53.57.53,1.02,0,.31-.06.54-.18.69-.12.14-.33.31-.62.49-.29.18-.53.38-.71.59-.18.21-.32.52-.41.93-.04.17-.06.53-.08,1.1-.02.57-.04,1.32-.06,2.25,0,.55-.13,1.04-.37,1.47-.24.43-.58.76-1.02.99s-.94.35-1.5.35c-.9,0-1.36-.37-1.36-1.12,0-.32.08-.58.23-.77.15-.2.35-.31.58-.34.28-.04.48-.09.6-.13.12-.05.22-.14.3-.3s.14-.37.17-.66c.03-.29.04-.74.04-1.35,0-.81.05-1.48.15-2s.27-.95.52-1.28c.25-.34.59-.64,1.02-.91-.46-.29-.81-.61-1.06-.97Z" style="fill:#869cb3; stroke-width:0px;"/><path d="m168.62,27.69l-.04-.02-3.84-2.85c.21-.17.48-.39.82-.65.33-.26.67-.52,1.02-.79.37-.28.74-.56,1.1-.84.36-.28.65-.51.88-.7.16-.17.24-.39.24-.66,0-.23-.09-.42-.26-.58-.17-.16-.4-.24-.68-.24-.15,0-.33.04-.54.12-.07.04-.22.15-.45.33-.23.18-.51.4-.83.65-.32.25-.66.52-1.03.81-.37.29-.71.55-1.03.81-.32.25-.6.47-.84.66-.24.19-.39.3-.44.34h.02c-.31.23-.46.48-.46.76,0,.21.11.43.34.66.37.27.8.58,1.28.94.48.36.96.71,1.42,1.06.37.28.73.55,1.09.83.35.27.68.51.99.73.17.07.35.1.54.1.28,0,.5-.08.68-.23.17-.15.26-.34.26-.57,0-.11-.02-.21-.07-.32-.05-.11-.1-.22-.17-.34Z" style="fill:#869cb3; stroke-width:0px;"/><path d="m181.52,29.14c.19,0,.37-.03.54-.1.31-.21.63-.45.99-.73.35-.27.71-.55,1.09-.83.46-.34.94-.7,1.42-1.06.48-.36.91-.67,1.28-.94.23-.23.34-.44.34-.66,0-.28-.15-.53-.46-.76h.02c-.05-.04-.2-.15-.44-.34-.24-.19-.52-.4-.84-.66-.32-.25-.66-.52-1.03-.81-.37-.29-.71-.55-1.03-.81-.32-.25-.59-.47-.83-.65-.23-.18-.38-.29-.45-.33-.21-.08-.39-.12-.54-.12-.28,0-.5.08-.68.24-.17.16-.26.35-.26.58,0,.27.08.49.24.66.23.19.52.42.88.7.36.28.72.56,1.1.84.35.27.68.53,1.02.79.33.26.6.47.82.65l-3.84,2.85-.04.02c-.07.12-.12.23-.17.34-.05.11-.07.21-.07.32,0,.23.09.42.26.57.17.15.4.23.68.23Z" style="fill:#869cb3; stroke-width:0px;"/><path d="m171.73,32.51c.15,0,.3-.04.47-.11.17-.07.31-.2.45-.39.35-.8.7-1.61,1.06-2.43.36-.82.71-1.63,1.06-2.43l3.8-8.84c.04-.09.06-.2.06-.32,0-.27-.09-.48-.28-.64-.19-.16-.41-.24-.66-.24-.36,0-.66.19-.92.56-.35.8-.7,1.62-1.08,2.46-.37.84-.73,1.67-1.08,2.48l-3.78,8.74c-.01.07-.02.15-.02.26,0,.29.09.51.27.67.18.15.4.23.65.23Z" style="fill:#869cb3; stroke-width:0px;"/><path d="m209.2,16.99v15.63c0,.53.43.97.97.97h27.45c.53,0,.97-.43.97-.97v-10.42c0-.53-.43-.97-.97-.97h-7.46v-4.24c0-.53-.43-.97-.97-.97h-19.02c-.53,0-.97.43-.97.97Zm20.95,6.17h6.5v3.28h-6.5v-3.28Zm0,5.21h6.5v3.28h-6.5v-3.28Zm-7.91-10.42h5.98v3.28h-5.98v-3.28Zm0,5.21h5.98v3.28h-5.98v-3.28Zm0,5.21h5.98v3.28h-5.98v-3.28Zm-11.11-10.42h9.18v3.28h-9.18v-3.28Zm0,5.21h9.18v3.28h-9.18v-3.28Zm0,5.21h9.18v3.28h-9.18v-3.28Z" style="fill:#869cb3; stroke-width:0px;"/><path d="m66.13,24.53l-7.17,7.33c-.27.28-.35.69-.2,1.05.15.36.5.59.89.59h28.05c.39,0,.74-.23.89-.59.15-.36.08-.77-.19-1.05l-9.85-10.25c-.18-.19-.43-.29-.69-.3-.27-.02-.51.1-.69.29l-6.27,6.38-3.38-3.46c-.36-.37-1.02-.37-1.38,0Zm11.71-.86l7.59,7.9h-11.04l-2.15-2.2,5.6-5.7Zm-6.89,7.14l.74.76h-9.75l4.87-4.98,4.13,4.23Z" style="fill:#869cb3; stroke-width:0px;"/><path d="m64.26,19.3c0,1.76,1.43,3.19,3.19,3.19s3.19-1.43,3.19-3.19-1.43-3.19-3.19-3.19-3.19,1.43-3.19,3.19Zm4.44,0c0,.69-.56,1.26-1.26,1.26s-1.26-.56-1.26-1.26.56-1.26,1.26-1.26,1.26.56,1.26,1.26Z" style="fill:#869cb3; stroke-width:0px;"/><g style="clip-path:url(#d);"><polygon points="257.44 140.28 123.76 140.28 -9.92 140.28 -40.23 161.48 123.76 161.48 287.75 161.48 257.44 140.28" style="fill:#fff; stroke:#e9f0f7; stroke-miterlimit:10;"/><path d="m289.21,161.96H-41.69l31.77-22.15h267.45l.08.06,31.59,22.09Zm-327.98-.95h325.07l-28.95-20.24H-9.82l-28.95,20.24Z" style="fill:#fff; stroke:#e9f0f7; stroke-miterlimit:10;"/><rect x="-40.23" y="161.48" width="328.62" height="7.2" style="fill:#fff; stroke:#e9f0f7; stroke-miterlimit:10;"/><path d="m288.76,169.16H-40.6v-8.15h329.36v8.15Zm-328.62-.95h327.88v-6.25H-39.86v6.25Z" style="fill:#fff; stroke:#e9f0f7; stroke-miterlimit:10;"/><polygon points="16.32 205.89 25.24 205.89 21.42 168.68 12.5 168.68 16.32 205.89" style="fill:#fff; stroke:#e9f0f7; stroke-miterlimit:10;"/><path d="m25.66,206.37h-9.66l-3.92-38.16h9.66l3.92,38.16Zm-9.01-.95h8.17l-3.72-36.26h-8.17l3.72,36.26Z" style="fill:#fff; stroke:#e9f0f7; stroke-miterlimit:10;"/><polygon points="11.61 205.89 2.69 205.89 6.52 168.68 15.43 168.68 11.61 205.89" style="fill:#fff; stroke:#e9f0f7; stroke-miterlimit:10;"/><path d="m11.93,206.37H2.27l3.92-38.16h9.66l-3.92,38.16Zm-8.82-.95h8.17l3.72-36.26H6.84l-3.72,36.26Z" style="fill:#fff; stroke:#e9f0f7; stroke-miterlimit:10;"/><polygon points="234.82 205.89 225.91 205.89 229.73 168.68 238.65 168.68 234.82 205.89" style="fill:#fff; stroke:#e9f0f7; stroke-miterlimit:10;"/><path d="m235.15,206.37h-9.66l3.92-38.16h9.66l-3.92,38.16Zm-8.82-.95h8.17l3.72-36.26h-8.17l-3.72,36.26Z" style="fill:#fff; stroke:#e9f0f7; stroke-miterlimit:10;"/><polygon points="239.54 205.89 248.45 205.89 244.63 168.68 235.72 168.68 239.54 205.89" style="fill:#fff; stroke:#e9f0f7; stroke-miterlimit:10;"/><path d="m248.88,206.37h-9.66l-3.92-38.16h9.66l3.92,38.16Zm-9.01-.95h8.17l-3.72-36.26h-8.17l3.72,36.26Z" style="fill:#fff; stroke:#e9f0f7; stroke-miterlimit:10;"/><rect x="65.89" y="44.53" width="113.84" height="85.31" rx="4.34" ry="4.34" style="fill:#e8eff6; stroke-width:0px;"/><path d="m175.38,130.21h-105.16c-2.6,0-4.71-2.11-4.71-4.71V48.87c0-2.6,2.11-4.71,4.71-4.71h105.16c2.6,0,4.71,2.11,4.71,4.71v76.63c0,2.6-2.11,4.71-4.71,4.71ZM70.22,44.9c-2.19,0-3.97,1.78-3.97,3.97v76.63c0,2.19,1.78,3.97,3.97,3.97h105.16c2.19,0,3.97-1.78,3.97-3.97V48.87c0-2.19-1.78-3.97-3.97-3.97h-105.16Z" style="fill:#e8eff6; stroke-width:0px;"/><rect x="69.71" y="48.35" width="106.18" height="77.66" style="fill:#fff; stroke-width:0px;"/><path d="m176.27,126.38h-106.93V47.98h106.93v78.4Zm-106.18-.74h105.44V48.73h-105.44v76.91Z" style="fill:#e9f0f7; stroke-width:0px;"/><rect x="74.24" y="52.72" width="15.31" height=".74" style="fill:#e9f0f7; stroke-width:0px;"/><rect x="80.24" y="55.14" width="9.31" height=".74" style="fill:#e9f0f7; stroke-width:0px;"/><rect x="90.82" y="55.14" width="3.44" height=".74" style="fill:#e9f0f7; stroke-width:0px;"/><rect x="96.18" y="55.14" width="7.53" height=".74" style="fill:#e9f0f7; stroke-width:0px;"/><rect x="105.87" y="55.14" width="8.04" height=".74" style="fill:#e9f0f7; stroke-width:0px;"/><rect x="84.06" y="57.44" width="16.36" height=".74" style="fill:#e9f0f7; stroke-width:0px;"/><rect x="102.67" y="57.44" width="6.05" height=".74" style="fill:#e9f0f7; stroke-width:0px;"/><rect x="112.08" y="57.44" width="13.23" height=".74" style="fill:#e9f0f7; stroke-width:0px;"/><rect x="129.12" y="57.44" width="14.12" height=".74" style="fill:#e9f0f7; stroke-width:0px;"/><rect x="87.89" y="59.74" width="7.3" height=".74" style="fill:#e9f0f7; stroke-width:0px;"/><rect x="96.19" y="59.74" width="2.7" height=".74" style="fill:#e9f0f7; stroke-width:0px;"/><rect x="100.39" y="59.74" width="5.9" height=".74" style="fill:#e9f0f7; stroke-width:0px;"/><rect x="107.99" y="59.74" width="6.3" height=".74" style="fill:#e9f0f7; stroke-width:0px;"/><rect x="128.83" y="59.8" width="11.86" height=".74" style="fill:#e9f0f7; stroke-width:0px;"/><rect x="142.86" y="59.8" width="13.9" height=".74" style="fill:#e9f0f7; stroke-width:0px;"/><rect x="74.24" y="79.76" width="15.31" height=".74" style="fill:#e9f0f7; stroke-width:0px;"/><rect x="80.24" y="82.18" width="9.31" height=".74" style="fill:#e9f0f7; stroke-width:0px;"/><rect x="90.82" y="82.18" width="3.44" height=".74" style="fill:#e9f0f7; stroke-width:0px;"/><rect x="96.18" y="82.18" width="7.53" height=".74" style="fill:#e9f0f7; stroke-width:0px;"/><rect x="105.87" y="82.18" width="8.04" height=".74" style="fill:#e9f0f7; stroke-width:0px;"/><rect x="84.06" y="84.48" width="16.36" height=".74" style="fill:#e9f0f7; stroke-width:0px;"/><rect x="102.67" y="84.48" width="6.05" height=".74" style="fill:#e9f0f7; stroke-width:0px;"/><rect x="112.08" y="84.48" width="13.23" height=".74" style="fill:#e9f0f7; stroke-width:0px;"/><rect x="129.12" y="84.48" width="14.12" height=".74" style="fill:#e9f0f7; stroke-width:0px;"/><rect x="87.89" y="86.78" width="7.3" height=".74" style="fill:#e9f0f7; stroke-width:0px;"/><rect x="96.19" y="86.78" width="2.7" height=".74" style="fill:#e9f0f7; stroke-width:0px;"/><rect x="100.39" y="86.78" width="5.9" height=".74" style="fill:#e9f0f7; stroke-width:0px;"/><rect x="107.99" y="86.78" width="6.3" height=".74" style="fill:#e9f0f7; stroke-width:0px;"/><rect x="128.83" y="86.84" width="11.86" height=".74" style="fill:#e9f0f7; stroke-width:0px;"/><rect x="142.86" y="86.84" width="13.9" height=".74" style="fill:#e9f0f7; stroke-width:0px;"/><rect x="74.24" y="65.16" width="12.17" height=".74" style="fill:#e9f0f7; stroke-width:0px;"/><rect x="80.54" y="67.58" width="20.34" height=".74" style="fill:#e9f0f7; stroke-width:0px;"/><rect x="102.89" y="67.58" width="7.52" height=".74" style="fill:#e9f0f7; stroke-width:0px;"/><rect x="114.6" y="67.58" width="16.44" height=".74" style="fill:#e9f0f7; stroke-width:0px;"/><rect x="135.77" y="67.58" width="7.6" height=".74" style="fill:#e9f0f7; stroke-width:0px;"/><rect x="144.95" y="67.58" width="3.01" height=".74" style="fill:#e9f0f7; stroke-width:0px;"/><rect x="83.58" y="69.88" width="13.01" height=".74" style="fill:#e9f0f7; stroke-width:0px;"/><rect x="98.37" y="69.88" width="4.81" height=".74" style="fill:#e9f0f7; stroke-width:0px;"/><rect x="105.85" y="69.88" width="10.51" height=".74" style="fill:#e9f0f7; stroke-width:0px;"/><rect x="119.39" y="69.88" width="11.23" height=".74" style="fill:#e9f0f7; stroke-width:0px;"/><rect x="86.62" y="72.17" width="5.8" height=".74" style="fill:#e9f0f7; stroke-width:0px;"/><rect x="93.22" y="72.17" width="2.15" height=".74" style="fill:#e9f0f7; stroke-width:0px;"/><rect x="96.56" y="72.17" width="4.69" height=".74" style="fill:#e9f0f7; stroke-width:0px;"/><rect x="102.6" y="72.17" width="5.01" height=".74" style="fill:#e9f0f7; stroke-width:0px;"/><rect x="119.16" y="72.24" width="9.42" height=".74" style="fill:#e9f0f7; stroke-width:0px;"/><rect x="130.31" y="72.24" width="11.05" height=".74" style="fill:#e9f0f7; stroke-width:0px;"/><g style="clip-path:url(#e);"><path d="m95.95,141.97c5.34-.56,10.67,2.44,10.67,7.13h-9.24l-1.43-7.13Z" style="fill:#fff; stroke-width:0px;"/><path d="m107,149.46h-9.92l-1.57-7.82.4-.04c3.28-.34,6.64.63,8.77,2.55,1.51,1.36,2.31,3.07,2.31,4.94v.37Zm-9.31-.74h8.56c-.1-1.51-.8-2.9-2.05-4.02-1.9-1.71-4.85-2.61-7.79-2.4l1.29,6.42Z" style="fill:#849bb2; stroke-width:0px;"/><path d="m106.49,54.92c-1.92-1.95-2.35,1.17-1.17,4.58.94,2.72,2.49,5.74,3.79,6.05,2.97.7,3.67-1.56,3.67,1.58v12.76c0,2.1-8.92,8.05-8.92,8.05h39.01s-11.02-4.9-11.02-8.57v-11.02c0-1.05,3.07-1.22,3.8-5.5.48-.78,1.91,2.44,3.6-3.4,1.79-6.16.05-7.59-2.55-5.39-4.2,1.92-30.22.86-30.22.86Z" style="fill:#fff; stroke-width:0px;"/><path d="m142.87,88.31h-40.23l1.02-.68c3.39-2.26,8.76-6.35,8.76-7.74v-12.76c0-1.05-.09-1.3-.14-1.35-.06-.02-.31.04-.5.09-.59.14-1.47.34-2.75.04-1.94-.46-3.72-5.32-4.05-6.29-.77-2.21-1.02-4.9.01-5.54.33-.2.88-.27,1.67.47,2.07.08,25.82.96,29.86-.81,1.18-.99,2.24-1.27,2.97-.8,1.13.73,1.18,3.02.13,6.61-.64,2.19-1.3,3.38-2.09,3.74-.58.27-1.08.04-1.41-.11-.04-.02-.09-.04-.13-.06-.55,2.8-2.1,3.89-3.04,4.55-.37.26-.72.5-.72.67v11.02c0,2.81,7.8,6.9,10.8,8.23l1.6.71h-1.75Zm-37.8-.74h36.14c-3.13-1.53-9.73-5.12-9.73-8.2v-11.02c0-.55.48-.89,1.03-1.28.92-.65,2.32-1.63,2.78-4.28l.05-.13c.31-.5.81-.27,1.08-.14.31.14.54.23.79.11.39-.18,1-.89,1.69-3.27,1.06-3.66.79-5.38.18-5.78-.43-.28-1.22.01-2.13.78l-.08.05c-4.23,1.94-29.32.93-30.39.89h-.15s-.1-.11-.1-.11c-.37-.38-.7-.56-.85-.47-.44.27-.55,2.23.3,4.67,1.09,3.14,2.57,5.58,3.52,5.81,1.1.26,1.86.08,2.41-.04.44-.1.82-.19,1.13.06.32.25.42.72.42,1.93v12.76c0,1.87-5.53,5.91-8.09,7.68Z" style="fill:#849bb2; stroke-width:0px;"/><path d="m169.12,133.42c-.98-13.12-4.27-31.8-11.7-38.85-11.32-9.21-21.68-8.64-34.5-8.64s-23.06,2.01-32.26,6.9c0,0-.01,0-.02,0-10.69,4.11-13.44,48.97-13.66,57.23-.13,5.16,3.68,8.07,7.34,8.07.17,0,.34-.01.5-.04,6.28-.38,14.74-7.7,16.05-9.01,1.34-1.34.85-10.04-6.61-8.12l.9-13.97c.24.93.51,1.84.85,2.68,3.65,9.02,11.32,17.85,9.98,26.81-1.34,8.96-12.86,23.47-14.01,29.99-1.15,6.52,3.84,15.35,35.88,15.35s37.23-11.51,37.23-11.51c-1.15-8.25-6.91-25.91-10.17-33.83-.08-.2-.16-.41-.24-.62,4.4,1.58,8.96,1.3,10.41.62,3.5-1.64,4.94-11,4.03-23.08Zm-15.38,6.93c-.39-.08-.88-.16-1.48-.2.13-2.72.5-5.63,1.18-8.76.47,2.85.89,5.59,1.19,7.51h0c.17,1.12.26,1.81.26,1.81,0,0-.36-.19-1.15-.36Z" style="fill:#fff; stroke-width:0px;"/><path d="m127.86,202.21c-18.11,0-29.63-2.79-34.24-8.28-1.8-2.15-2.5-4.74-2.01-7.5.53-3.02,3.22-7.68,6.07-12.62,3.38-5.87,7.21-12.52,7.94-17.36.9-6.04-2.32-11.93-5.74-18.17-1.51-2.76-3.07-5.61-4.22-8.45-.09-.23-.18-.47-.27-.73l-.74,11.41c3.73-.76,5.48,1.19,6.2,2.46,1.28,2.24,1.22,5.44.27,6.39-.09.09-9.22,8.69-16.29,9.12-.16.02-.34.04-.52.04-2.04,0-4.03-.85-5.47-2.32-1.07-1.1-2.33-3.05-2.25-6.14.01-.53,1.9-52.95,13.9-57.56,8.89-4.72,19.2-6.93,32.42-6.93h2.13c11.7-.04,21.81-.06,32.59,8.72,8.9,8.44,11.31,32.07,11.84,39.11.96,12.78-.67,21.76-4.24,23.44-1.5.71-5.79.94-9.93-.35,3.3,8.05,8.99,25.51,10.14,33.79v.11s-.03.1-.03.1c-.22.48-5.65,11.73-37.57,11.73Zm-32.93-77.52l.58,2.23c.28,1.07.54,1.91.84,2.63,1.13,2.8,2.68,5.63,4.18,8.37,3.32,6.07,6.76,12.35,5.82,18.63-.75,4.98-4.62,11.69-8.03,17.62-2.81,4.88-5.47,9.49-5.98,12.38-.45,2.57.17,4.9,1.85,6.9,4.4,5.25,16.04,8.02,33.67,8.02,29.87,0,36.26-10.15,36.84-11.21-1.19-8.32-6.87-25.71-10.13-33.62-.05-.12-.1-.25-.15-.38l-.39-1,.77.28c4.54,1.63,8.9,1.21,10.12.63,3.24-1.52,4.74-10.44,3.82-22.72-.52-6.97-2.91-30.37-11.59-38.61-10.56-8.59-20.07-8.57-32.1-8.54h-2.14c-13.09,0-23.29,2.18-32.09,6.86l-.12.04c-9.96,3.84-13.08,45.84-13.36,56.88-.07,2.83,1.07,4.6,2.04,5.6,1.3,1.33,3.1,2.09,4.93,2.09.15,0,.3-.01.45-.03,6.1-.37,14.44-7.51,15.83-8.9.58-.58.82-3.37-.39-5.5-.8-1.39-2.46-2.87-5.87-1.99l-.5.13,1.08-16.78Zm60.42,16.68l-.64-.34s-.34-.17-1.05-.32h0c-.43-.09-.91-.16-1.43-.2l-.36-.03.02-.36c.13-2.81.53-5.78,1.18-8.82l.41-1.92.32,1.93c.47,2.86.89,5.6,1.19,7.52.17,1.13.26,1.81.26,1.81l.1.72Zm-1.54-1.39c.24.05.45.1.61.16-.04-.3-.1-.7-.17-1.19-.22-1.46-.52-3.38-.86-5.47-.39,2.17-.64,4.29-.75,6.33.42.04.81.1,1.17.18h0Z" style="fill:#849bb2; stroke-width:0px;"/><path d="m120.5,28.7s-1.55-1.6-6.79,1.39c-5.24,2.99-7.48,8.5-8.61,11.28-1.12,2.78-2.14,12.56-2.25,13.84-.11,1.28.32,4.6-.59,6.2-.91,1.6-2.62,6.9-3.05,8.39-.43,1.5.16,5.13.53,6.52.37,1.39,1.66,2.73,1.5,2.03-.16-.69-.53-1.92-.53-4.7s.64-5.45,1.02-6.47l.37-1.02s-.21,6.68-.21,7.91-.11,2.14.48,3.1,2.08,1.02,2.62,1.28c.53.27,2.83,1.92,5.08,2.67,2.05.68,2.71.38,10.96.05,3.18-.12,4.77-.19,5.91-.13,1.76.08,4.29.31,9.27.78.87.08,2.47.23,4.44-.27.81-.2,1.72-.43,2.46-.96,2.29-1.63,2.22-5.49,2.08-7.11-.21-2.57-2.08-7.22-3.15-10.53-1.07-3.31-2.35-13.58-3.63-18.28-1.28-4.7-5.08-11.87-8.34-13.74-3.26-1.87-5.51-2.3-6.63-2.3s-1.98-.05-2.35.27c-.02.02-.13.11-.25.1-.15-.01-.26-.17-.33-.32Z" style="fill:#fff; stroke-width:0px;"/><path d="m137.78,82.29c-.66,0-1.2-.05-1.6-.09-4.83-.45-7.48-.69-9.26-.77-1.13-.05-2.72,0-5.88.13-2.14.08-3.77.17-5.04.23-3.69.19-4.46.23-6.05-.3-1.74-.58-3.52-1.7-4.48-2.3-.3-.19-.52-.33-.65-.39-.12-.06-.34-.12-.58-.18-.71-.18-1.69-.43-2.19-1.25-.56-.92-.55-1.79-.54-2.81v-.49c0-.72.08-3.25.14-5.26-.29,1.29-.57,3.06-.57,4.83,0,2.46.29,3.67.47,4.39l.06.23c.12.51-.26.62-.3.63-.63.13-1.63-1.44-1.91-2.48-.35-1.3-1-5.08-.53-6.72.42-1.48,2.15-6.83,3.08-8.47.61-1.08.57-3.1.53-4.58-.01-.59-.02-1.1,0-1.47.11-1.38,1.14-11.14,2.27-13.95,1.1-2.72,3.39-8.39,8.77-11.46,5.33-3.05,7.06-1.51,7.24-1.33l.06.09s.03.06.04.08c.46-.35,1.17-.34,2.15-.33h.42c.82,0,3.12.23,6.81,2.35,3.46,1.98,7.29,9.47,8.51,13.96.64,2.34,1.27,6.01,1.88,9.55.62,3.63,1.22,7.06,1.75,8.71.28.88.62,1.85.97,2.85,1,2.87,2.04,5.83,2.2,7.76.17,2.06.11,5.78-2.24,7.44-.8.57-1.75.81-2.58,1.02-1.12.28-2.13.36-2.96.36Zm-11.78-1.62c.35,0,.67,0,.95.02,1.8.08,4.46.33,9.29.78.85.08,2.41.22,4.31-.26.77-.2,1.65-.42,2.33-.91,2.12-1.51,2.06-5.24,1.93-6.78-.15-1.84-1.22-4.89-2.16-7.58-.35-1.01-.69-1.98-.98-2.87-.55-1.7-1.14-5.16-1.77-8.81-.61-3.53-1.24-7.18-1.87-9.49-1.35-4.94-5.12-11.77-8.17-13.51-3.54-2.03-5.69-2.25-6.44-2.25h-.42c-.76,0-1.47-.01-1.69.18-.2.18-.4.2-.53.19-.23-.02-.43-.17-.59-.44-.24-.17-1.85-1.08-6.31,1.47-5.16,2.95-7.38,8.45-8.45,11.1-1.1,2.73-2.11,12.37-2.22,13.74-.03.33-.02.82,0,1.39.03,1.56.08,3.71-.63,4.96-.89,1.56-2.61,6.91-3.01,8.31-.39,1.36.15,4.89.54,6.32.12.44.33.86.55,1.2-.16-.79-.31-1.96-.31-3.78,0-2.77.62-5.46,1.04-6.6l1.17-3.17-.07,2.29c0,.07-.21,6.69-.21,7.9v.49c-.02.97-.02,1.67.43,2.41.34.56,1.12.75,1.74.91.29.07.54.14.73.23.14.07.38.22.71.43.93.58,2.67,1.67,4.32,2.23,1.46.48,2.2.45,5.78.27,1.28-.06,2.91-.15,5.05-.23,2.4-.09,3.9-.15,4.99-.15Z" style="fill:#849bb2; stroke-width:0px;"/></g><g style="clip-path:url(#f);"><path d="m142.74,133.21c-12.7-.97-22.9-.97-35.59,0-12.7.97-23.39,53.16-23.39,53.16h82.37s-10.69-52.19-23.39-53.16Zm-1.51,6.6c2.49,0,4.51,2,4.51,4.48s-2.02,4.48-4.51,4.48-4.51-2-4.51-4.48,2.02-4.48,4.51-4.48Zm-15.69,0c2.49,0,4.51,2,4.51,4.48s-2.02,4.48-4.51,4.48-4.51-2-4.51-4.48,2.02-4.48,4.51-4.48Zm-15.69,0c2.49,0,4.51,2,4.51,4.48s-2.02,4.48-4.51,4.48-4.51-2-4.51-4.48,2.02-4.48,4.51-4.48Zm-7.85,24.52c-2.49,0-4.51-2-4.51-4.48s2.02-4.48,4.51-4.48,4.51,2,4.51,4.48-2.02,4.48-4.51,4.48Zm7.85,15.57c-2.49,0-4.51-2-4.51-4.48s2.02-4.48,4.51-4.48,4.51,2,4.51,4.48-2.02,4.48-4.51,4.48Zm7.85-15.57c-2.49,0-4.51-2-4.51-4.48s2.02-4.48,4.51-4.48,4.51,2,4.51,4.48-2.02,4.48-4.51,4.48Zm7.85,15.57c-2.49,0-4.51-2-4.51-4.48s2.02-4.48,4.51-4.48,4.51,2,4.51,4.48-2.02,4.48-4.51,4.48Zm7.85-15.57c-2.49,0-4.51-2-4.51-4.48s2.02-4.48,4.51-4.48,4.51,2,4.51,4.48-2.02,4.48-4.51,4.48Zm7.85,15.57c-2.49,0-4.51-2-4.51-4.48s2.02-4.48,4.51-4.48,4.51,2,4.51,4.48-2.02,4.48-4.51,4.48Zm7.85-15.57c-2.49,0-4.51-2-4.51-4.48s2.02-4.48,4.51-4.48,4.51,2,4.51,4.48-2.02,4.48-4.51,4.48Z" style="fill:#e9f0f7; stroke-width:0px;"/><path d="m166.59,186.74h-83.27l.09-.45c.44-2.14,10.89-52.47,23.72-53.46,12.66-.97,22.99-.97,35.65,0,12.83.98,23.28,51.32,23.72,53.46l.09.45Zm-82.36-.74h81.45c-1.08-5.08-11.29-51.53-22.96-52.42-12.62-.97-22.92-.97-35.54,0-11.66.89-21.88,47.35-22.96,52.42Zm57.01-5.74c-2.69,0-4.88-2.17-4.88-4.85s2.19-4.85,4.88-4.85,4.88,2.17,4.88,4.85-2.19,4.85-4.88,4.85Zm0-8.95c-2.28,0-4.14,1.84-4.14,4.1s1.86,4.1,4.14,4.1,4.14-1.84,4.14-4.1-1.86-4.1-4.14-4.1Zm-15.69,8.95c-2.69,0-4.88-2.17-4.88-4.85s2.19-4.85,4.88-4.85,4.88,2.17,4.88,4.85-2.19,4.85-4.88,4.85Zm0-8.95c-2.28,0-4.14,1.84-4.14,4.1s1.86,4.1,4.14,4.1,4.14-1.84,4.14-4.1-1.86-4.1-4.14-4.1Zm-15.69,8.95c-2.69,0-4.88-2.17-4.88-4.85s2.19-4.85,4.88-4.85,4.88,2.17,4.88,4.85-2.19,4.85-4.88,4.85Zm0-8.95c-2.28,0-4.14,1.84-4.14,4.1s1.86,4.1,4.14,4.1,4.14-1.84,4.14-4.1-1.86-4.1-4.14-4.1Zm39.23-6.62c-2.69,0-4.88-2.17-4.88-4.85s2.19-4.85,4.88-4.85,4.88,2.17,4.88,4.85-2.19,4.85-4.88,4.85Zm0-8.95c-2.28,0-4.14,1.84-4.14,4.1s1.86,4.1,4.14,4.1,4.14-1.84,4.14-4.1-1.86-4.1-4.14-4.1Zm-15.69,8.95c-2.69,0-4.88-2.17-4.88-4.85s2.19-4.85,4.88-4.85,4.88,2.17,4.88,4.85-2.19,4.85-4.88,4.85Zm0-8.95c-2.28,0-4.14,1.84-4.14,4.1s1.86,4.1,4.14,4.1,4.14-1.84,4.14-4.1-1.86-4.1-4.14-4.1Zm-15.69,8.95c-2.69,0-4.88-2.17-4.88-4.85s2.19-4.85,4.88-4.85,4.88,2.17,4.88,4.85-2.19,4.85-4.88,4.85Zm0-8.95c-2.28,0-4.14,1.84-4.14,4.1s1.86,4.1,4.14,4.1,4.14-1.84,4.14-4.1-1.86-4.1-4.14-4.1Zm-15.69,8.95c-2.69,0-4.88-2.17-4.88-4.85s2.19-4.85,4.88-4.85,4.88,2.17,4.88,4.85-2.19,4.85-4.88,4.85Zm0-8.95c-2.28,0-4.14,1.84-4.14,4.1s1.86,4.1,4.14,4.1,4.14-1.84,4.14-4.1-1.86-4.1-4.14-4.1Zm39.23-6.62c-2.69,0-4.88-2.17-4.88-4.85s2.19-4.85,4.88-4.85,4.88,2.17,4.88,4.85-2.19,4.85-4.88,4.85Zm0-8.95c-2.28,0-4.14,1.84-4.14,4.1s1.86,4.1,4.14,4.1,4.14-1.84,4.14-4.1-1.86-4.1-4.14-4.1Zm-15.69,8.95c-2.69,0-4.88-2.17-4.88-4.85s2.19-4.85,4.88-4.85,4.88,2.17,4.88,4.85-2.19,4.85-4.88,4.85Zm0-8.95c-2.28,0-4.14,1.84-4.14,4.1s1.86,4.1,4.14,4.1,4.14-1.84,4.14-4.1-1.86-4.1-4.14-4.1Zm-15.69,8.95c-2.69,0-4.88-2.17-4.88-4.85s2.19-4.85,4.88-4.85,4.88,2.17,4.88,4.85-2.19,4.85-4.88,4.85Zm0-8.95c-2.28,0-4.14,1.84-4.14,4.1s1.86,4.1,4.14,4.1,4.14-1.84,4.14-4.1-1.86-4.1-4.14-4.1Z" style="fill:#e9f0f7; stroke-width:0px;"/></g></g></svg>