<?xml version="1.0" encoding="UTF-8"?><svg id="e" xmlns="http://www.w3.org/2000/svg" xmlns:xlink="http://www.w3.org/1999/xlink" viewBox="0 0 140 60"><defs><clipPath id="f"><rect y="0" width="140" height="60" style="fill:none; stroke-width:0px;"/></clipPath><clipPath id="g"><polygon points="98.68 45.76 90.24 38.89 90.24 42.12 77.33 42.12 77.33 49.05 90.24 49.05 90.24 53.43 98.68 45.76" style="fill:none; stroke-width:0px;"/></clipPath><clipPath id="h"><rect x="27" y="14.19" width="55.32" height="45.81" style="fill:none; stroke-width:0px;"/></clipPath></defs><g style="clip-path:url(#f);"><g style="opacity:.21;"><path d="M68.74,24.13h-10.18V7.16h9.79v3.11h-5.97v3.78h5.55v3.1h-5.55v3.88h6.36v3.1Z" style="fill:none; stroke:#869cb3; stroke-miterlimit:10; stroke-width:.5px;"/><path d="M72.88,23.48v-3.79c.69.58,1.43,1.01,2.24,1.3s1.62.43,2.44.43c.48,0,.9-.04,1.26-.13s.66-.21.9-.36.42-.34.54-.54.18-.44.18-.68c0-.33-.09-.63-.28-.89s-.45-.5-.78-.72-.72-.43-1.17-.64-.94-.41-1.46-.63c-1.33-.55-2.31-1.23-2.97-2.02s-.98-1.76-.98-2.89c0-.88.18-1.64.53-2.28s.84-1.16,1.45-1.57,1.32-.71,2.12-.91,1.66-.29,2.56-.29,1.67.05,2.35.16,1.31.27,1.89.49v3.54c-.28-.2-.59-.37-.93-.52s-.68-.27-1.04-.37-.71-.17-1.06-.22-.68-.07-1-.07c-.43,0-.83.04-1.18.12s-.66.2-.9.35-.43.33-.57.54-.2.44-.2.7c0,.28.07.54.22.76s.36.44.64.64.61.4,1.01.59.84.39,1.34.6c.68.28,1.29.59,1.83.91s1,.68,1.39,1.08.68.86.89,1.38.31,1.12.31,1.81c0,.95-.18,1.74-.54,2.39s-.85,1.16-1.46,1.56-1.33.68-2.15.86-1.68.26-2.59.26-1.82-.08-2.66-.24c-.84-.16-1.57-.39-2.18-.71Z" style="fill:none; stroke:#869cb3; stroke-miterlimit:10; stroke-width:.5px;"/></g><rect x="92.68" y="8.01" width="39.95" height="41.9" rx="7.46" ry="7.46" style="fill:#e5edf3; stroke-width:0px;"/><ellipse cx="112.66" cy="54.51" rx="20.07" ry="2.2" style="fill:#dce2e7; stroke-width:0px;"/><rect x="96.69" y="4.95" width="31.93" height="49.01" style="fill:#fff; stroke:#8298af; stroke-miterlimit:10; stroke-width:.5px;"/><path d="M120.14,17.12h-15.32c-.43,0-.79-.35-.79-.79s.35-.79.79-.79h15.32c.43,0,.79.35.79.79s-.35.79-.79.79Z" style="fill:#e5edf3; stroke-width:0px;"/><rect x="101.19" y="19.84" width="22.58" height=".76" style="fill:#8298af; stroke-width:0px;"/><rect x="101.19" y="22.5" width="22.58" height=".76" style="fill:#8298af; stroke-width:0px;"/><rect x="101.19" y="25.17" width="22.58" height=".76" style="fill:#8298af; stroke-width:0px;"/><rect x="101.19" y="27.84" width="22.58" height=".76" style="fill:#8298af; stroke-width:0px;"/><rect x="101.19" y="30.51" width="22.58" height=".76" style="fill:#8298af; stroke-width:0px;"/><rect x="101.19" y="33.17" width="22.58" height=".76" style="fill:#8298af; stroke-width:0px;"/><g style="opacity:.21;"><g style="clip-path:url(#g);"><path d="M96.89,32.32l-15.38,23.51c.16.07.33.15.5.22l15.1-23.08c-.08-.22-.15-.43-.23-.65Z" style="fill:#8399b0; stroke-width:0px;"/><path d="M96.33,30.45l-16.11,24.75c.14.07.28.15.42.22l15.86-24.35c-.06-.21-.12-.41-.17-.62Z" style="fill:#8399b0; stroke-width:0px;"/><path d="M95.92,28.53s-.06-.01-.09-.01c0-.03,0-.05,0-.08l-16.95,25.99c.13.08.27.16.41.24l16.72-25.64c-.03-.17-.06-.33-.09-.5Z" style="fill:#8399b0; stroke-width:0px;"/><path d="M93.77,28.67l-16.2,24.9c.13.09.26.18.39.27l16.44-25.25c-.21.03-.42.06-.63.09Z" style="fill:#8399b0; stroke-width:0px;"/><path d="M91.71,29.04l-15.35,23.62c.12.1.25.2.37.29l15.64-24.04c-.22.04-.44.08-.66.13Z" style="fill:#8399b0; stroke-width:0px;"/><path d="M89.79,29.5l-14.51,22.25c.12.1.24.21.36.31l14.84-22.74c-.23.06-.46.12-.69.18Z" style="fill:#8399b0; stroke-width:0px;"/><path d="M87.55,30.17l-13.38,20.53c.11.11.23.23.34.34l13.76-21.11c-.25.08-.49.16-.73.24Z" style="fill:#8399b0; stroke-width:0px;"/><path d="M85.17,31.07l-12.05,18.49c.1.12.21.24.33.37l12.5-19.18c-.26.1-.52.21-.78.32Z" style="fill:#8399b0; stroke-width:0px;"/><path d="M82.86,32.18l-10.63,16.31c.1.13.2.26.31.39l11.17-17.14c-.29.14-.58.28-.85.43Z" style="fill:#8399b0; stroke-width:0px;"/><path d="M79.6,34.25l-8.36,12.84c.08.12.17.27.29.43l9.13-14.01c-.36.24-.71.49-1.05.74Z" style="fill:#8399b0; stroke-width:0px;"/><path d="M71.19,45.66l6.3-9.67c-4.09,3.78-5.74,7.87-6.3,9.67Z" style="fill:#8399b0; stroke-width:0px;"/><path d="M97.53,34.04l-14.64,22.36c.17.06.35.12.52.18l14.37-21.93c-.08-.2-.17-.41-.25-.61Z" style="fill:#8399b0; stroke-width:0px;"/><path d="M98.26,35.77l-13.82,21.15c.18.05.35.1.53.15l13.55-20.73c-.09-.19-.18-.38-.26-.57Z" style="fill:#8399b0; stroke-width:0px;"/><path d="M99.15,37.63l-13.11,19.7c.17.04.33.08.5.11l12.86-19.33c-.08-.16-.17-.32-.25-.49Z" style="fill:#8399b0; stroke-width:0px;"/><path d="M100.1,39.42l-12.21,18.26c.17.03.35.04.53.07l11.95-17.86c-.09-.15-.17-.31-.26-.47Z" style="fill:#8399b0; stroke-width:0px;"/><path d="M101.06,41.08l-11.05,16.81c.18.01.36.02.55.03l10.77-16.39c-.09-.14-.18-.29-.28-.45Z" style="fill:#8399b0; stroke-width:0px;"/><path d="M102.18,42.86l-9.94,15.07c.19,0,.39,0,.58-.02l8.75-13.26c.45-.96.79-1.52.79-1.52,0,0-.07-.1-.18-.27Z" style="fill:#8399b0; stroke-width:0px;"/><path d="M94.83,57.75l4.92-7.45c.09-.45.19-.89.29-1.31l-5.83,8.84c.2-.02.41-.05.62-.07Z" style="fill:#8399b0; stroke-width:0px;"/><path d="M99.43,52.7l-3.21,4.87c.21-.03.43-.08.65-.11l2.52-3.82c0-.31.02-.62.04-.93Z" style="fill:#8399b0; stroke-width:0px;"/><path d="M98.04,57.23c.22-.05.45-.1.67-.16l.75-1.14c-.02-.26-.05-.52-.06-.78l-1.37,2.07Z" style="fill:#8399b0; stroke-width:0px;"/></g></g><path d="M125.39,45.63c-.32-.32-.79-.29-1.12-.24-.24.04-.55.14-.82.23-.23.07-.53.17-.63.17.02-.09.19-.33.38-.54.03-.03.03-.07,0-.1-.03-.03-.07-.03-.1,0-.45.36-1,.75-1.14.78.02-.1.22-.39.46-.67.03-.03.02-.08,0-.1-.03-.03-.07-.03-.1,0-.47.41-1.05.83-1.2.84.03-.11.27-.46.51-.74.03-.03.02-.08,0-.1-.03-.03-.07-.03-.1,0-.5.42-1.1.87-1.27.9.04-.13.32-.49.58-.79.03-.03.03-.08,0-.1-.03-.03-.07-.03-.1,0-.53.45-1.17.93-1.35.98.05-.14.36-.54.66-.87.03-.03.03-.08,0-.11-.03-.03-.07-.03-.11,0-.56.5-1.24,1.03-1.42,1.07.04-.14.4-.59.74-.96.03-.03.03-.08,0-.11-.03-.03-.07-.03-.11,0-.58.52-1.28,1.07-1.48,1.14.06-.16.44-.64.8-1.03.03-.03.03-.08,0-.11-.03-.03-.07-.03-.11,0-.61.54-1.33,1.12-1.55,1.19.06-.12.3-.39.45-.56.39-.44.48-.56.43-.65-.03-.05-.08-.06-.15-.05-.09.01-.24.07-.43.15.48-.56.86-1.14.71-1.39-.16-.27-.88.05-1.18.2-.58.29-1.63.98-1.42,1.49.02.04.06.06.1.04.04-.02.06-.06.04-.1-.13-.32.6-.92,1.35-1.3.59-.3.93-.33.98-.26.1.17-.31.79-.92,1.47-.81.41-1.91,1.1-2,1.44-.02.07,0,.14.06.18.03.02.07.03.11.03.21,0,.59-.25,1.14-.74.21-.19.5-.48.78-.79.3-.15.55-.26.67-.29-.07.1-.24.3-.38.45-.39.44-.54.62-.5.74.01.04.05.07.09.07.16.03.61-.3,1.03-.64-.15.21-.26.4-.24.49,0,.04.03.07.07.08.13.05.53-.22.98-.59-.13.18-.21.34-.19.43.01.04.04.07.08.08.14.04.55-.24.94-.55-.11.17-.19.31-.16.39.01.04.05.07.09.08.15.03.58-.27.96-.56-.11.16-.18.3-.17.38,0,.04.03.06.06.08.14.08.54-.18.96-.51-.09.15-.16.28-.15.36,0,.04.02.07.05.08.14.09.53-.16.91-.45-.08.13-.12.24-.1.31.01.04.04.07.08.09.13.04.5-.19.85-.45-.05.09-.08.18-.07.24.01.04.04.07.08.09.11.04.34-.03.75-.17.27-.09.57-.19.8-.22.48-.08.78-.01.99.2.03.03.08.03.11,0,.03-.03.03-.08,0-.11ZM115.93,46.18c-.73.66-1.01.72-1.06.69,0,0,0-.04.09-.15.25-.27.87-.68,1.44-1-.15.15-.31.31-.47.45Z" style="fill:#8298af; stroke-width:0px;"/><path d="M104.75,46.01s.04.05.08.06c.06.02.14.04.21.06h.04s0,0,0,0c0,0,.02,0,.04,0h0s.06,0,.09,0c.06-.01.12-.04.18-.06h0s0,0,0,0h0s.05-.02.07-.02c.62-.21,1.34-.14,2.05-.07h0s0,0,0,0h0s0,0,0,0c.34.03.68.06.98.06.06,0,.1-.01.13-.03.03-.02.05-.04.07-.06,0-.01.01-.02.01-.03,0-.01,0-.02,0-.04,0-.02,0-.05-.02-.07-.01-.02-.04-.05-.07-.06-.03-.01-.08-.02-.13-.02-.42,0-.81-.01-1.2-.03h0s0,0,0,0h0c-.3-.02-.6-.03-.9-.03-.3,0-.6.01-.91.05h-.05s-.17.03-.17.03v-.15s0,0,0-.01c0,0,0-.01,0-.02,0-.01-.01-.02-.02-.03,0,0,0-.01-.02-.02l-.02-.02s-.08-.08-.12-.11c-.04-.03-.08-.05-.12-.06-.04-.01-.08-.02-.13-.03-.02,0-.03,0-.05,0l-.04.45v.12s0,0,0,0c0,.01,0,.03,0,.03,0,.01,0,.02,0,.04h0s0,.02,0,.04c0,.01,0,.02,0,.03h0ZM104.79,45.3s-.06,0-.09,0h0s-.03,0-.03,0h-.12s-.05-.06-.05-.06v-.02s-.02,0-.02,0c0,0-.01-.02-.02-.03,0,0-.01-.02-.02-.03,0,0-.02-.02-.03-.02,0,0-.01,0-.02-.01h-.01s-.02-.01-.04-.02c-.01,0-.03,0-.04,0h-.05s-.2-.03-.2-.03l.1-.12.03-.03h0c.07-.08.14-.17.19-.25.05-.08.1-.16.12-.24.03-.08.04-.15.04-.22,0-.06-.02-.12-.06-.18h0s-.01-.02-.02-.03c-.01,0-.02-.01-.04-.02-.02,0-.04-.01-.07-.02-.03,0-.05,0-.07,0-.2,0-.39.06-.57.15-.19.1-.38.22-.54.34h0s0,0,0,0h0c-.05.04-.11.07-.16.11-.22.15-.44.3-.65.46-.21.16-.42.32-.62.49-.21.17-.41.34-.6.5-.19.16-.39.33-.58.51-.03.02-.04.05-.04.07,0,.02,0,.04.02.05,0,0,.02.02.03.02.01,0,.02.01.04.02.01,0,.03.01.05.02.02,0,.04,0,.05.01.05,0,.11,0,.17,0,.05-.01.09-.03.13-.06.17-.15.35-.3.53-.45.18-.15.36-.3.54-.44l.1-.08h0c.15-.12.3-.24.46-.35.19-.15.39-.29.58-.42l.25-.18.93-.66-.7.77-.19.21c-.05.06-.1.11-.15.16-.05.05-.1.1-.15.16-.05.05-.1.1-.15.15-.05.05-.1.1-.15.14-.03.03-.04.05-.04.08,0,.02,0,.04.03.06h0s0,0,0,0c0,0,.02.02.03.02.01,0,.03.02.04.02.02,0,.03.01.05.02.02,0,.04,0,.05,0,.05,0,.1,0,.15,0,.04-.01.08-.03.11-.06.02-.02.05-.04.07-.07.03-.02.05-.04.08-.06h0s.06-.04.08-.05c.03-.01.05-.03.09-.04l.11-.05.4-.19-.18.3-.04.07h.02s-.07.1-.07.1l-.02.02h0s0,0,0,0h0s-.02.03-.02.03l-.03.05s0,.03,0,.04c0,.02,0,.03.02.04,0,0,.02.01.03.02h0s.03.01.05.02c.02,0,.04.01.06.01h0s.04,0,.07,0c.05,0,.1,0,.14-.02h0s.07-.03.09-.05c.02-.02.03-.03.04-.04.01-.01.03-.03.04-.05.01-.02.03-.03.04-.05h0s.03-.03.04-.05h0s.08-.11.08-.11l.32-.4h0Z" style="fill:#869cb3; fill-rule:evenodd; stroke-width:0px;"/><path d="M108.58,41.95h-7.02c-.2,0-.36-.18-.36-.39s.16-.39.36-.39h7.02c.2,0,.36.18.36.39s-.16.39-.36.39Z" style="fill:#e5edf3; stroke-width:0px;"/><path d="M123.58,41.95h-7.02c-.2,0-.36-.18-.36-.39s.16-.39.36-.39h7.02c.2,0,.36.18.36.39s-.16.39-.36.39Z" style="fill:#e5edf3; stroke-width:0px;"/><g style="opacity:.21;"><path d="M42.84,30.24s-.02,0-.02,0c0,0,0,.01,0,.02,0,.03,0,.06,0,.08-.03,0-.05-.03-.06-.05-.01-.03-.01-.05-.01-.08-.05,0-.08.05-.11.09,0,0,0,.01-.01.01,0,0-.02,0-.02,0-.03-.02-.05-.05-.07-.08-.03-.07,0-.15.03-.22.02-.03.03-.07.06-.09.02-.02.05-.04.07-.06.06-.06.09-.15.15-.21.06-.06.15-.08.22-.14.07-.06.13-.16.22-.17.01,0,.03,0,.05,0,.02,0,.04-.02.05-.03.04-.03.09-.05.14-.06.1-.02.2.04.3.03.01,0,.03,0,.04,0,0,0,0,.02,0,.02,0,.04,0,.07,0,.11,0,.04-.03.08-.03.12,0,.06.07.1.08.16,0,.02,0,.04,0,.06-.03.14-.17.25-.31.25-.07,0-.14-.02-.2,0-.03.01-.05.03-.07.05-.05.04-.1.08-.12.14-.03.06-.03.34-.16.23-.03-.03-.03-.07-.05-.1-.03-.05-.09-.08-.15-.08Z" style="fill:#849bb2; stroke-width:0px;"/><path d="M47.26,27.33c0,.07-.02.14-.05.2,0,.02-.02.03-.03.04-.04.02-.07-.03-.08-.06-.02-.04-.04-.08-.05-.12,0-.03,0-.05-.02-.07-.02-.02-.04-.03-.06-.03-.08-.02-.17-.03-.26-.02-.02,0-.05,0-.06-.01-.01-.01-.01-.03-.01-.05,0-.09,0-.2.07-.26.03-.02.06-.04.09-.06.04-.03.08-.06.12-.09.06-.04.14-.06.2-.1.09-.06.14-.16.23-.21.06-.04.13-.05.2-.08.2-.1.3-.34.48-.47.11-.08.25-.11.32-.22.12-.06.18-.2.3-.25.03-.01.07-.02.11-.03.04,0,.08-.01.12,0,.05,0,.1.04.16.05.08.01.16-.03.24,0,.07.02.11.08.14.14.03.06.06.13.1.18.01.02.03.03.03.05,0,.03-.04.04-.06.03-.02-.01-.04-.04-.04-.06,0-.01,0-.02-.01-.03-.02-.02-.06,0-.06.04,0,.03,0,.06,0,.09,0,.05-.06.08-.06.13,0,.04.02.07.04.1.05.06.1.12.16.16.06.03.12.05.18.07.06.02.13.03.19.03.07,0,.13-.02.18-.07.04-.03.06-.08.06-.13,0,0,0-.02,0-.03.01-.01.03,0,.04,0,.1.06.2.13.3.19.03.02.06.04.07.07,0,.02,0,.04,0,.06,0,.05,0,.09,0,.14,0,.18-.18.29-.32.41-.17.15-.32.33-.37.55-.02.11-.02.22-.06.32-.03.08-.1.16-.17.2-.02,0-.03.02-.05.02-.03,0-.06-.02-.09,0-.02.02-.02.05-.04.07-.02.03-.07.02-.1.03-.06,0-.1.06-.15.1-.05.04-.12.06-.17.02-.05-.05-.02-.13-.07-.18-.05-.04-.13,0-.19-.02-.1-.02-.13-.16-.22-.19-.07-.02-.15.02-.16.09,0,.02,0,.04-.02.05,0,0-.02.01-.04.01-.1,0-.17-.09-.23-.17-.05-.07-.11-.15-.16-.22-.02-.02-.04-.05-.04-.08-.02-.09.08-.17.05-.25-.02-.07-.12-.09-.19-.09-.12,0-.24,0-.36-.01-.03,0-.06,0-.09.01-.03.01-.04.02-.04.05Z" style="fill:#849bb2; stroke-width:0px;"/><path d="M52.73,25.56c-.06-.02-.12-.04-.18-.05-.05,0-.09,0-.14-.01-.18,0-.35-.01-.53-.02-.02,0-.04,0-.05-.02,0,0,0-.01-.01-.02-.01-.04,0-.09.02-.13.01-.04.02-.09-.01-.13-.03-.03-.08-.04-.1-.07-.01-.02-.01-.06,0-.08.02-.04.05-.07.08-.09.03-.03.06-.05.09-.08.01-.01.02-.02.04-.03.01,0,.03,0,.04,0,.03,0,.07,0,.1,0,.06,0,.13,0,.18.04.02.02.04.04.07.05.02,0,.05,0,.07,0,.06,0,.13,0,.19-.02.06-.02.12-.05.16-.11,0-.01.02-.03.03-.04.03,0,.05.01.06.04,0,.03,0,.05-.02.08-.02.05-.04.11,0,.14.02.01.04.01.06.01.07,0,.13-.07.14-.14.04-.02.09,0,.12.04.02.04.02.09.02.13,0,.05,0,.09.01.14.02.05.07.08.1.12.11.11.12.28.18.42.02.03.03.06.04.1,0,.04,0,.08-.02.1-.02.02-.05.02-.08.02-.09,0-.17-.05-.25-.1-.07-.05-.16-.09-.21-.16-.05-.07-.12-.11-.2-.14Z" style="fill:#849bb2; stroke-width:0px;"/><path d="M40.52,22.49s-.02.02-.04.01c-.01,0-.02-.02-.03-.03-.02-.03-.05-.06-.06-.1.09,0,.18,0,.27,0,0,0,0,0,.01,0,.01,0,0,.02,0,.03-.05.04-.11.07-.18.08" style="fill:#849bb2; stroke-width:0px;"/><path d="M45.06,13.78c-.06.05-.15.11-.23.1-.08,0-.14-.08-.21-.12-.13-.06-.3.01-.42-.06-.03-.01-.05-.03-.08-.05-.07-.03-.14,0-.2.04-.06.04-.11.09-.17.12-.06.03-.15.04-.2-.01-.05-.05-.05-.12-.09-.17-.05-.06-.15-.07-.18-.15-.01-.03-.01-.06-.02-.09-.02-.09-.09-.17-.14-.25-.05-.08-.08-.2-.04-.29-.01,0-.02-.02-.02-.04,0-.07-.01-.14-.05-.21-.06-.11-.19-.15-.31-.15-.12,0-.24.02-.36,0-.02,0-.03,0-.05-.01-.05-.03-.05-.1-.08-.15-.03-.07-.1-.11-.17-.13-.07-.02-.15-.02-.22-.02-.19-.02-.38-.08-.51-.21-.17-.16-.43-.17-.66-.15-.04,0-.09.01-.12.05-.01.02-.01.05-.01.07,0,.11.02.21.03.32,0,.04.02.09,0,.13-.03.06-.11.07-.17.08-.15.01-.31.02-.46.01-.04,0-.07,0-.1-.02-.07-.04-.07-.14-.14-.19-.06-.05-.15-.01-.21.04-.06.05-.1.12-.16.17-.06.05-.16.07-.21.01-.03-.03-.04-.06-.05-.1-.07-.13-.25-.16-.41-.16-.03,0-.06,0-.09.01-.03.01-.04.04-.06.07-.06.08-.17.15-.27.12-.1-.03-.16-.13-.23-.22-.13-.17-.3-.3-.48-.43-.04-.03-.08-.06-.13-.08-.05-.02-.11-.01-.16-.01-.14,0-.29.01-.43.02-.3.01-.67.08-.88-.14-.15-.15-.25-.35-.28-.55-.1.02-.2.04-.31.05-.15.03-.3.05-.44,0-.23-.08-.37-.35-.61-.36-.05,0-.11,0-.16,0-.19-.01-.32-.19-.42-.35-.05.11-.11.21-.18.31-.04.06-.09.12-.16.13-.07,0-.13-.03-.17-.09-.07-.1-.09-.23-.06-.35.03-.12.09-.22.16-.32.06-.09.13-.2.07-.29-.02-.03-.06-.05-.09-.06-.16-.08-.34-.13-.51-.16-.05,0-.1-.01-.15-.03-.07-.03-.12-.1-.19-.14-.08-.05-.18-.05-.26-.09-.1-.04-.17-.13-.2-.24-.09.05-.19.09-.3.1-.04,0-.08,0-.13,0-.09,0-.17.05-.22.12-.02.03-.05.06-.09.07-.04,0-.07-.02-.11-.02-.05,0-.08.05-.13.06-.05.02-.1,0-.16,0-.04,0-.08.03-.12.05-.06.03-.13.05-.21.05-.02,0-.05,0-.07,0-.02,0-.03.02-.05.03-.12.06-.25-.05-.37-.03-.07.01-.13.02-.2.03-.04,0-.09.01-.13,0-.15-.02-.23-.19-.36-.28-.07-.05-.16-.06-.24-.11-.03-.02-.06-.06-.1-.07-.04-.02-.1-.03-.14-.04-.09-.04-.15-.12-.24-.16-.09-.04-.2-.03-.3,0-.18.03-.37.09-.5.22-.09.09-.14.22-.24.3-.06.05-.17.08-.22.02-.05-.06-.01-.15.02-.22.05-.11.07-.22.08-.34-.11.02-.23.04-.34.05-.03,0-.05,0-.08-.01-.02-.01-.02-.03-.04-.04-.02,0-.03,0-.05,0-.06,0-.12,0-.18,0-.16,0-.33,0-.49,0-.11,0-.22,0-.33,0-.11,0-.21,0-.32,0-.05,0-.11,0-.15-.04-.04-.04-.05-.1-.07-.15-.02-.05-.07-.09-.12-.11-.02,0-.05-.01-.07-.01-.05,0-.09.05-.13.09-.07.08-.15.16-.24.2-.1.04-.21.05-.31,0-.09-.05-.15-.16-.25-.19-.11-.04-.23.03-.32.11-.09.08-.17.17-.28.2-.11.03-.23-.01-.34.02-.13.03-.25.13-.38.13-.2,0-.42,0-.58.12-.01,0-.02.02-.04.02-.03,0-.03-.04-.05-.06-.03-.03-.08-.01-.12-.01-.07,0-.14-.03-.2-.04-.05,0-.11,0-.16,0-.19.02-.38.01-.57-.02-.09-.01-.18-.03-.26-.07-.07-.03-.13-.08-.2-.11-.07-.03-.14-.04-.22-.05-.24-.04-.46-.12-.67-.24-.02-.01-.04-.02-.06-.02-.02,0-.04,0-.06,0-.16.04-.32-.05-.48-.11-.25-.09-.53-.09-.78-.01-.03-.04-.07-.08-.12-.08-.06,0-.12.07-.18.06-.02,0-.04-.02-.06-.03-.08-.06-.17-.1-.26-.14-.06-.03-.12-.06-.19-.05-.04,0-.09.02-.13,0-.04-.02-.06-.06-.09-.08-.02,0-.04,0-.06-.01-.04-.02-.04-.07-.06-.12-.04-.1-.17-.12-.27-.08-.1.04-.16.13-.24.2-.07.07-.16.14-.27.14-.05,0-.1-.02-.15,0-.03.01-.05.03-.08.05-.06.03-.14,0-.18-.05,0-.01-.02-.03-.03-.04-.02-.01-.05,0-.07,0-.08,0-.16,0-.22-.05-.05-.03-.1-.07-.15-.05-.05.02-.07.08-.12.1-.05.01-.1-.02-.14,0-.03,0-.05.03-.08.05-.03.01-.05.02-.08.02-.09,0-.19.03-.28.04-.03.06-.11.04-.16,0-.05-.04-.09-.09-.16-.09-.09,0-.14.12-.23.12-.03,0-.05-.01-.08-.02-.08-.03-.16-.03-.24,0-.02,0-.03.02-.05.02-.03,0-.06-.01-.09-.03-.25-.14-.55-.11-.84-.07-.02,0-.03,0-.04.02,0,.01,0,.03,0,.04,0,.07-.04.13-.1.16-.06.03-.14.02-.19-.03-.02-.02-.04-.05-.07-.06-.05-.03-.12,0-.18,0-.1.02-.22-.02-.26-.11,0,.02-.02.04-.03.07-.05,0-.11,0-.16,0-.07-.23-.19-.45-.35-.62-.03-.03-.06-.06-.1-.07-.04,0-.07,0-.11,0-.13,0-.25-.08-.3-.2-.11,0-.22.08-.24.19-.01.07-.01.17-.09.18-.05,0-.09-.05-.1-.1-.04-.1-.06-.21-.06-.32-.06,0-.12,0-.18,0,.03-.08.05-.16.06-.24-.12.11-.26.2-.42.25-.04.01-.09.03-.12.07,0,.02-.01.04-.02.06-.03.09-.14.1-.24.1.08-.13.1-.28.06-.42-.1.04-.22.06-.27.15-.06.12-.25.12-.3.25-.03.08,0,.19-.07.23-.04-.1-.2-.1-.25,0-.03.05-.02.12-.06.16-.03.02-.06.02-.09.03-.08.02-.15.08-.22.14-.07.05-.16.09-.24.07,0,.16-.09.3-.18.43.06,0,.13,0,.19,0,.02,0,.04,0,.05,0,.02.01.03.03.05.05.05.08.16.11.25.09,0,.09,0,.19.01.28,0,.04,0,.1-.05.11-.02,0-.04,0-.06-.02-.08-.05-.17-.11-.25-.16-.02-.01-.04-.03-.06-.03-.07,0-.11.06-.15.12-.07.08-.17.14-.27.15-.1.01-.22,0-.28.07-.02.02-.03.06-.06.07-.02,0-.05,0-.07-.01-.14-.03-.27.15-.41.12-.03,0-.06-.02-.09-.02-.05,0-.09.04-.13.04-.04,0-.08-.01-.11-.04-.09-.05-.16-.12-.22-.2-.02-.02-.04-.05-.06-.06-.06-.02-.1.07-.11.14-.04-.03-.1-.02-.13.02-.03.04-.04.09-.04.14-.06,0-.11,0-.17,0-.02,0-.03,0-.04.02-.02.03.03.05.05.06.06.03.09.1.07.17s-.09.11-.15.1c-.05,0-.09-.03-.13-.01-.05.03-.04.11-.08.16-.07.03-.15,0-.23,0-.08,0-.18.04-.16.12-.02,0-.04,0-.06,0-.05.08-.02.2.06.24-.02.05-.07.08-.13.09-.05,0-.11-.01-.16-.03.02.07-.05.13-.11.17-.06.04-.13.08-.14.15-.01.11.11.17.16.27-.07,0-.13.06-.14.13,0,.03,0,.06,0,.08-.01.03-.04.04-.05.06-.04.05-.04.12,0,.17,0,.01.02.02.03.02.03,0,.04-.03.03-.06,0-.03-.01-.05,0-.07.01-.02.04-.02.06-.03.05,0,.1-.01.15-.02.04,0,.1,0,.12.04.01.03,0,.06.03.08.02.02.06,0,.09,0,.06,0,.11.06.09.11-.01.04-.05.06-.07.09-.03.03-.05.07-.03.1.06.02.11.03.17.05.02.04-.01.09-.05.12-.04.02-.09.02-.14.02.08.07.17.15.18.25,0,.02,0,.05.02.06.03.02.06-.03.07-.06.02-.08.06-.17.13-.19.07-.02.15.02.22.01.1-.01.18-.12.27-.09-.01.07-.02.14-.06.2-.03.03-.06.06-.09.09-.16.13-.27.32-.35.51-.03.07-.06.15-.08.22.05-.02.1.03.1.08,0,.05,0,.1,0,.15,0,.05.06.1.11.08.02-.11.08-.21.17-.27.03-.02.06-.03.08-.06.02-.03.02-.07.02-.1,0-.03,0-.07.02-.1.02-.03.07-.04.09,0,0,.01.01.03.02.04.02.05.07.09.12.09.01,0,.02,0,.03,0,0,0,0-.01,0-.02,0-.04,0-.09,0-.14,0-.05.03-.1.07-.11.03,0,.07.01.09.04.02.03.03.06.03.1-.01-.05.04-.1.09-.09.05,0,.09.05.1.1,0,.05,0,.1-.02.15-.01.03-.03.07-.06.09-.02.01-.04.02-.06.03-.06.04-.02.15-.03.23-.02.08-.04.17-.06.25-.01.05-.02.11-.06.15-.03.05-.09.08-.14.06-.01,0-.02,0-.03-.02,0,0,0-.02,0-.03,0-.05,0-.1,0-.15-.05.01-.1.03-.14.07-.04.03-.07.09-.05.14.09,0,.17.05.2.13,0,.01.01.03.02.04.01.01.04.01.05.02.06,0,.13,0,.19,0,.06,0,.13,0,.19-.01.09-.02.17-.08.25-.14.04.05.01.12-.04.17-.05.04-.11.06-.16.11-.05.04-.07.1-.11.14-.04.05-.1.09-.16.08,0,.06-.02.12-.08.14-.02,0-.04.01-.05.03-.02.02-.02.04-.02.06-.01.07-.02.13-.04.2.05-.07.14-.1.22-.14.06-.02.12-.05.18-.06.04,0,.09-.01.13-.03.02-.01.04-.03.06-.06.1-.11.2-.21.3-.32,0,.13,0,.28-.08.38-.08.11-.22.15-.32.25-.04.04-.07.09-.12.14-.03.03-.06.05-.09.07-.13.11-.22.26-.31.41-.03.06-.07.13-.06.2,0,.03.02.06.02.1,0,.03,0,.07-.01.1-.02.16.1.32.07.49-.01.06-.04.11-.05.17,0,.06,0,.15.05.16.11-.16.35-.18.48-.32.05-.06.08-.13.13-.19.13-.14.34-.15.52-.22.21-.08.4-.27.62-.23.1.02.21.08.3.04.06-.02.1-.08.14-.13.06-.07.15-.13.24-.16.01,0,.03-.01.05,0,.04,0,.06.05.07.09.05.15.19.27.34.31.05.01.12.03.14.08,0,.02,0,.05,0,.07-.03.12-.14.2-.24.28-.1.07-.2.17-.18.29,0,.04.03.07.04.11.06.11.16.22.19.34.02.07.1.1.17.08.07-.02.12-.06.17-.11.17-.15.33-.3.5-.45.11.09.25.13.39.16.02,0,.05.01.07,0,.03-.01.04-.04.06-.06.06-.09.18-.13.29-.12.11,0,.21.06.3.13.07.06.14.13.23.14.14.01.24-.12.38-.15.09-.02.2,0,.26-.07.06-.07.05-.2.13-.24.09-.04.18.08.28.09.12,0,.18-.16.29-.21.06-.03.14-.02.21-.01.1.02.21.03.31.05.08.01.16.03.22.08.04.03.08.09.12.07.03-.01.04-.04.05-.06.05-.09.16-.14.26-.13.1,0,.19.07.26.14.05.05.09.12.17.12.15,0,.23-.28.38-.23.04.02.07.06.09.1.05.09.1.18.16.26.02.04.05.08.04.12,0,.05-.05.08-.07.12-.07.11,0,.26-.05.39-.02.04-.04.08-.05.12-.02.09.06.18.15.21.09.03.19.02.28.01.21,0,.44.03.61.16.17.13.26.38.16.57-.07.15-.18.27-.3.39-.1.11-.2.22-.32.3-.07.04-.14.08-.2.13-.08.07-.13.16-.21.23-.1.09-.23.14-.33.24-.11.12-.16.29-.3.38-.06.04-.13.06-.17.12-.05.08-.02.18-.05.27-.04.11-.15.2-.26.24-.03.15.04.3.05.46.01.19-.06.38-.07.57,0,.1,0,.2.04.29.02.06.04.11.05.17.01.11-.04.22-.07.34-.09.31,0,.63.01.95,0,.04,0,.08.02.11.03.04.08.06.1.1.03.05.02.11,0,.17-.02.1,0,.18-.04.28-.06.17-.2.32-.36.39-.15.07-.34.09-.45.21-.01.01-.02.03-.02.04,0,.02.01.04.03.05.09.1.19.19.29.28.1.09.2.17.28.27.08.1.14.22.14.35,0,.25-.21.45-.32.67-.09.2-.12.46-.31.57-.03.02-.06.03-.09.03-.03,0-.06,0-.08,0-.17-.02-.34.03-.52.03-.1,0-.19-.03-.28-.04-.08,0-.15,0-.23,0-.14,0-.28.01-.42.02.02.1.05.2.1.28.03.06.07.11.11.17.03.05.07.1.1.15.1.14.2.28.32.4.05.04.1.08.12.14.04.12-.01.25-.02.37-.01.23.13.44.27.62.02.03.05.07.09.09.05.03.12.03.18.06.11.07.11.24.21.33.04.03.08.04.12.06.1.04.2.08.28.15.08.07.13.18.11.28,0,.06-.04.11-.07.16-.07.11-.16.21-.25.31-.08.09-.16.18-.24.27-.05.06-.1.12-.15.17-.04.05-.09.1-.15.14-.04.03-.09.04-.14.07-.08.04-.14.12-.17.2-.01.04-.02.08-.02.11,0,.03.03.06.04.09.13.26-.1.57-.05.86.04.19.2.34.23.53,0,.05,0,.11.04.13.03.13.07.25.13.37.03.05.06.1.1.13.05.03.12.03.15,0,.01-.01.02-.03.04-.04.02,0,.05.01.06.03.04.06.03.13.08.18.02.02.05.04.08.06.07.07.02.2-.04.29-.02.03-.04.06-.07.07-.03.02-.06.02-.1.03-.4.07-.74.37-.87.75-.02.07-.04.15-.07.22-.04.08-.09.15-.14.23-.13.2-.19.45-.17.69,0,.03,0,.06-.01.09-.01.02-.04.03-.06.05-.03.03-.04.07-.05.11-.02.09-.05.18-.07.27-.03.1-.05.21.01.29.03.04.08.07.09.12,0,.03,0,.06-.01.09-.05.16-.07.33-.03.49.04.12.08.24.08.37,0,.06,0,.11,0,.17.03,0,.07-.02.09-.03.05-.02.1-.04.16-.05,0,0,.02,0,.03,0,.17,0,.35.08.52.03.03,0,.06-.04.04-.06-.01-.02-.03-.01-.05-.01-.03,0-.07,0-.1-.02-.03-.02-.04-.06-.03-.09.14,0,.29,0,.42.04.08.03.15.07.22.11.23.12.48.21.73.27.03,0,.06.01.08.03.02.01.03.03.04.04.03.04.07.08.11.11.1.09.25.12.36.19.1.06.18.16.28.21.07.04.16.06.23.11.03.03.05.06.08.09.12.17.24.34.27.54,0,.03,0,.05.02.08.01.02.04.04.06.04.02,0,.04-.03.05-.05,0-.02,0-.05,0-.07,0-.1.01-.2.05-.29,0,0,0-.02.02-.03,0,0,.02,0,.03-.01.07-.01.14.02.17.07-.06,0-.11.04-.12.1-.01.05,0,.11,0,.17,0,.08.01.15,0,.23,0,.01,0,.02,0,.03-.01.01-.03.01-.05.01-.06,0-.12,0-.18.02-.01,0-.03.01-.04.02-.02.02-.03.06-.05.07-.02,0-.06,0-.07.02,0,0,0,.02,0,.03.03.06.08.09.1.15.01.04,0,.09,0,.13,0,.06.04.11.08.15.03.03.07.05.11.07.11.05.22.1.32.15.01,0,.03.01.04.03.01.02.01.04.01.06,0,.08,0,.16.04.23.03.05.09.08.11.13.04.08-.02.18-.02.27,0,.19.24.29.28.48,0,.02,0,.04.02.06,0,.02.02.03.03.04.1.11.19.22.29.33.02.03.05.06.08.07.09.05.2,0,.3.04.07.03.11.09.17.13.11.1.3.16.36.29,0,.03.02.06.04.07.03,0,.06,0,.09.01.04,0,.09.03.12.05.07.04.14.07.21.11.03.02.07.04.09.06.01.02.02.04.03.06.05.11.14.2.25.26.04.02.09.04.13.04.14,0,.26-.1.4-.07.01-.12.08-.23.1-.35.01-.07.02-.13.03-.2,0-.03,0-.05.02-.08.03-.06.08-.09.11-.14.01-.02.02-.05.02-.07.03-.19.07-.37.1-.56,0-.02,0-.05.02-.07.01-.03.04-.04.06-.06.06-.04.12-.09.18-.13.03-.02.06-.04.07-.07,0-.02,0-.03,0-.05,0-.02.02-.03.04-.04.14-.09.28-.17.44-.23.04-.01.08-.03.13-.04.04,0,.08,0,.12-.02.04-.02.08-.05.12-.07.05-.02.1-.03.16-.04.12-.01.27,0,.39-.03.1-.02.2,0,.29.03.03.02.07.04.1.04.1.01.18-.09.22-.19.04-.1.08-.21.18-.25.06-.02.14-.01.19-.06.02-.02.03-.06.05-.09.05-.1.14-.17.23-.24.08-.06.17-.13.28-.14.05,0,.1,0,.15.01.06,0,.11,0,.17,0,.87-.09,1.77.06,2.62-.11.12,0,.23,0,.35,0,.05,0,.11,0,.16,0,.08-.01.15-.05.22-.08.16-.07.34-.14.51-.12.05,0,.09.02.14.03.29.06.59.04.89.06.07,0,.13,0,.19.03.09.04.16.12.25.16.15.07.35.04.5-.02.11-.04.2-.16.19-.28.21-.11.43-.22.67-.26.21-.03.43,0,.64.04.05,0,.11.02.13.07,0,.02,0,.05,0,.07,0,.06.04.11.07.16.03.04.07.09.12.08.05,0,.07-.06.09-.11.04-.11.08-.23.11-.34.01-.03.02-.06.04-.09.03-.03.08-.04.12-.06.12-.04.22-.13.32-.21.04-.03.08-.07.1-.11.03-.04.04-.09.05-.14.05-.18.12-.36.22-.52.03-.05.06-.09.07-.14.01-.07,0-.13,0-.2.02-.19.2-.32.31-.48.06-.09.11-.19.17-.29.06-.09.14-.21.25-.22.15-.01.23-.23.38-.24.05,0,.1.02.14.03.05,0,.11,0,.13-.05,0-.02,0-.04,0-.06,0-.09.06-.18.13-.24.07-.06.15-.11.24-.15.11-.06.23-.12.34-.18.06-.03.13-.07.2-.07.07,0,.15.05.15.12,0,.05-.02.13.02.15.01,0,.02,0,.04,0,.06,0,.11-.05.12-.11,0-.02,0-.04.01-.05.01-.02.04-.03.06-.04.2-.05.43,0,.59.15.02-.04.03-.07.05-.11.04.07.14.08.22.07.14-.01.31-.03.39-.16.07-.12.02-.28-.02-.41-.04-.14-.07-.28-.04-.42.02-.14-.04-.29-.01-.43.05-.24.34-.38.36-.62,0-.04,0-.09,0-.13,0-.05.03-.09.01-.13,0-.02-.02-.03-.02-.05,0-.03.03-.05.04-.07.04-.05.02-.12.03-.18,0-.04.03-.08.06-.11.1-.11.25-.18.4-.19,0-.12-.02-.24-.06-.35-.02-.05-.04-.11-.02-.16.02-.05.08-.08.13-.11.08-.05.16-.11.22-.18.04-.05.08-.11.13-.14.04-.02.08-.04.12-.06.06-.03.12-.08.17-.13.08-.07.13-.15.22-.2.16-.09.34-.18.51-.11.03.01.06.03.1.03.05,0,.08-.05.1-.1.01-.05,0-.1.01-.14,0-.07.03-.15.09-.19.03-.02.07-.03.11-.05.08-.03.15-.08.23-.13.06-.05.13-.09.19-.14.09-.06.18-.12.25-.21.03-.04.06-.08.05-.13,0-.02-.02-.04-.03-.06-.05-.07-.09-.14-.14-.22-.02-.03-.03-.05-.06-.07-.05-.03-.12,0-.18-.02-.06-.01-.1-.07-.16-.09-.04-.02-.09-.03-.14-.04-.09-.03-.17-.08-.24-.14-.04-.03-.08-.06-.12-.09-.04-.03-.07-.08-.09-.12-.07-.09-.14-.19-.21-.28-.03-.04-.06-.08-.08-.12-.02-.04-.04-.09-.05-.14-.04-.11-.09-.2-.11-.32-.02-.1.01-.2.03-.3.01-.1,0-.22-.09-.27-.02-.01-.05-.02-.07-.04-.04-.03-.06-.07-.08-.12-.04-.09-.08-.17-.1-.27-.02-.09,0-.19-.03-.28-.01-.05-.04-.1-.05-.15-.02-.12.06-.23.1-.35.02-.06.02-.12.05-.17.02-.04.04-.07.07-.1.14-.18.25-.37.34-.58.03-.08.06-.16.11-.23.05-.08.12-.14.17-.21.05-.07.08-.14.11-.22.16-.32.34-.65.6-.9.08-.07.14-.16.19-.26.02-.04.03-.07.06-.11.02-.03.04-.06.06-.09.04-.06.09-.11.13-.17.03-.04.06-.08.07-.12h.03c.16-.21.39-.36.52-.58.03-.06.06-.11.09-.17.04-.06.09-.1.12-.16.03-.05.05-.11.05-.18,0-.02,0-.04,0-.05,0-.02.03-.04.05-.06.15-.13.15-.36.26-.52.06-.1.14-.18.17-.29.01-.05.05-.09.1-.12.08-.04.18,0,.27,0,.05,0,.1,0,.14-.02.09-.02.18-.03.26-.05.06-.01.12-.02.17-.05.07-.04.13-.1.16-.17,0,0,0-.02,0-.03,0-.02-.02-.02-.04-.02-.14-.02-.29-.05-.42-.09-.07-.02-.15-.06-.18-.13-.02-.06.01-.13.04-.19.02-.04.05-.09.07-.13.01-.02.02-.05.04-.07.02-.02.04-.03.05-.04.15-.1.23-.28.35-.42.13-.16.33-.24.46-.41.05-.07.15-.06.24-.08.15-.03.27-.14.4-.21.19-.1.42-.11.62-.16.1-.03.19-.06.28-.08.25-.06.52-.04.76-.13.06-.02.12-.06.19-.08.1-.03.21-.03.31-.05.2-.03.4-.09.6-.16.19-.07.39-.14.58-.2.09-.03.18-.07.22-.15.07-.14-.1-.4.04-.46.08-.04.16-.07.24-.11.25-.12.51-.24.71-.44.06-.06.12-.12.19-.16.1-.06.22-.06.33-.09.2-.06.37-.21.54-.33.03-.02.06-.04.09-.05.03,0,.06-.01.09-.02.07-.03.1-.1.16-.14.07-.06.17-.07.26-.11.22-.1.32-.35.51-.5.06-.05.13-.09.21-.11.03-.01.07-.02.1-.04.03-.02.05-.05.07-.07.03-.04.06-.09.09-.13.02-.02.04-.05.04-.08,0-.03,0-.06,0-.1-.02-.08-.04-.16-.06-.24-.02-.07-.05-.15-.02-.22-.03-.12-.11-.23-.22-.29-.02-.01-.04-.02-.06-.04-.04-.05-.01-.13,0-.19.01-.07,0-.15-.05-.21,0-.01-.02-.02-.02-.04,0-.02.01-.04.03-.05.04-.05.05-.11.05-.16,0,0,0-.02,0-.02,0,0,0,0,.01,0,.11-.03.21.12.31.08.04-.01.06-.05.09-.08.04-.05.08-.08.11-.13.03-.05.04-.12,0-.16-.02-.03-.06-.04-.09-.05-.08-.01-.16-.01-.22-.07-.03-.02-.04-.05-.06-.08-.05-.06-.13-.09-.2-.13s-.14-.11-.16-.19c-.07-.04-.12-.14-.2-.15-.03,0-.05,0-.08,0-.14.04-.25.13-.37.2-.12.07-.28.13-.42.1-.12.09-.24.18-.35.28-.02.02-.04.04-.07.05-.02.01-.05.02-.08.02-.21.03-.43-.03-.61-.16-.12-.09-.22-.22-.37-.28-.06-.02-.15-.02-.19.04,0,.02-.01.04-.02.05-.04.08-.15.06-.24.07-.07,0-.14.03-.19.08-.02.03-.04.06-.07.09-.03.03-.08.05-.12.07-.05.02-.1.04-.14.06-.04.02-.09.03-.13,0-.03-.03-.02-.09-.04-.12-.01-.02-.04-.04-.06-.06-.1-.07-.2-.16-.22-.28Z" style="fill:#849bb2; stroke-width:0px;"/><path d="M5.91,51.51c0-.15-.06-.29-.12-.42-.02-.04-.03-.08-.07-.1-.08-.07-.21-.04-.32-.07,0-.08.04-.14.09-.2.05-.07.11-.14.16-.21.03-.03.06-.07.1-.09.03-.01.07-.01.1-.01.13,0,.29.01.36.12.05.08.05.18.1.26.01.02.03.04.04.06.03.05.02.12,0,.18-.02.06-.05.11-.08.17-.05.1-.06.21-.1.31-.02.07-.08.21-.16.24-.12.04-.11-.15-.12-.22Z" style="fill:#849bb2; stroke-width:0px;"/><path d="M5.76,54.25s-.11.07-.13.13c-.01.04-.01.08-.01.12,0,.04-.02.09-.06.1-.05.02-.1-.02-.12-.06-.02-.05-.01-.1,0-.15,0-.07.02-.13.02-.2.02-.12.03-.24.09-.35.02-.04.05-.07.08-.1.03-.03.07-.05.12-.05.06,0,.12.05.14.12.05.16,0,.33-.13.43Z" style="fill:#849bb2; stroke-width:0px;"/><path d="M7.6,52.87s-.05-.09-.1-.09c-.03,0-.07.02-.08,0,0,0,0-.02,0-.03,0-.03,0-.07.02-.1.03-.05.1-.05.16-.05.12.01.24.04.35.07.04,0,.08.02.11.05.02.02.03.04.04.07.02.07-.03.15-.1.19-.15.09-.31.04-.41-.1Z" style="fill:#849bb2; stroke-width:0px;"/><path d="M9.26,53.08s-.02-.09-.03-.14c-.02-.08-.06-.16-.11-.23-.1-.17-.2-.33-.3-.5-.01-.02-.02-.04-.03-.06,0-.06.06-.11.12-.11.06,0,.12.02.18.04.12.02.24,0,.36-.04.14-.04.28-.07.42-.11.13-.04.28-.08.37-.18.08-.08.12-.21.22-.25.04-.02.08-.02.12-.02.08,0,.17,0,.25-.01.04,0,.08,0,.11-.02.05-.03.08-.11.15-.12.06,0,.1.08.08.14-.02.06-.08.1-.13.14-.12.08-.23.15-.35.23-.07.05-.15.1-.21.17-.14.17-.15.41-.23.62-.05.12-.13.23-.21.33-.1.12-.23.28-.4.3-.13.02-.34-.02-.39-.15Z" style="fill:#849bb2; stroke-width:0px;"/><path d="M12.33,54.04c-.13-.12-.24-.27-.32-.43-.04-.07-.07-.15-.05-.23.03-.1.13-.15.2-.21.07-.06.12-.15.16-.23.02-.04.05-.09.09-.11.02,0,.04-.01.07-.02.1-.01.2-.03.3-.04.08-.01.16-.02.24,0,.04,0,.07.02.1.05.04.04.02.11.03.16,0,.06.03.11.05.16.03.06.05.11.08.17.03.05.05.11.09.15.01.01.02.03.02.05,0,.01-.01.02-.02.03-.06.06-.11.14-.13.23-.01.05-.01.11-.03.15-.05.11-.17.18-.29.2-.19.03-.44.07-.59-.07Z" style="fill:#849bb2; stroke-width:0px;"/><path d="M16.33,52.99s-.01-.06,0-.08c.02-.02.04-.04.07-.05.1-.05.21-.11.27-.21.06-.1.05-.23.08-.35.02-.1.06-.19.12-.26.04-.06.09-.1.14-.15.2-.2.36-.47.35-.75,0-.05,0-.1,0-.14,0-.03.03-.05.04-.08.03-.05.07-.1.12-.13.05-.04.11-.06.17-.05.08.01.14.07.18.15.03.07.04.15.04.23,0,.07,0,.14,0,.2,0,.09,0,.18-.03.26-.02.06-.06.11-.08.17-.02.06-.01.12-.02.17,0,.12-.02.24-.05.35-.05.15-.13.31-.29.36-.04.01-.07.01-.11.02-.23.03-.45.12-.63.26-.03.03-.07.06-.11.08-.06.03-.24.08-.29.01Z" style="fill:#849bb2; stroke-width:0px;"/><path d="M17.84,50.36c0-.05-.03-.11-.02-.16.01-.07.09-.11.14-.16.05-.05.08-.11.12-.15.06-.06.16-.08.22-.14.04-.04.06-.09.09-.14.03-.05.07-.09.12-.1.02,0,.05,0,.07,0,.06,0,.11-.03.15-.07.08-.06.14-.14.19-.23.01-.03.02-.06.05-.08.02-.02.06-.04.09-.02.03.02.04.05.03.09,0,.16-.12.3-.12.46,0,.06,0,.12,0,.17-.02.09-.11.15-.19.18-.09.03-.18.04-.26.08-.01,0-.03.01-.03.03,0,.01,0,.03,0,.04,0,.02-.04.03-.07.04-.11.02-.19.09-.26.17-.04.05-.04.07-.11.04-.06-.03-.12-.06-.18-.05Z" style="fill:#849bb2; stroke-width:0px;"/><path d="M19.07,48.91s.04-.07.05-.11c0,0,0-.01,0-.02,0-.02-.01-.03-.03-.04-.02,0-.03,0-.05,0-.04,0-.07.02-.1.04-.06.04-.12.17-.07.23.08.1.16-.04.19-.11Z" style="fill:#849bb2; stroke-width:0px;"/></g><g style="clip-path:url(#h);"><path d="M65.69,36.9s-2.05.17-2.72.63c-.34.24-.67.69-.94,1.14l-5.29,2.52,2.15,2.61,4.12-2.34,1.56-.61,1.12-3.95Z" style="fill:#fff; stroke:#8399b0; stroke-miterlimit:10; stroke-width:.5px;"/><path d="M42.01,33.91c3.55,1.51,6.96,4.96,10.57,6.83.19.1.61-.09.8,0,.22.11.44.2.66.3,1.8-.22,4.52-.96,4.85-1.07.26.84.17,2.7.52,3.54-.34.3-3.64,2.25-6.12,2.25-3.01-.55-7.62-1.4-10.81-4.24l-.47-7.61Z" style="fill:#fff; stroke:#8399b0; stroke-miterlimit:10; stroke-width:.5px;"/><path d="M67.22,34.97s-2.24,1.21-3,2.12c-1,1.2-.14,11.4-.14,11.4l7.24-2.4-4.1-11.11Z" style="fill:#fff; stroke:#8399b0; stroke-miterlimit:10; stroke-width:.5px;"/><path d="M72.32,24.71c-.33-2.23,3.4-3.91,4.98-2.99.8.82-1.1,1.03-1.57,1.34,1.63.08,3.02,1.51,3.04,3.14-.04,1.37-1.35-.4-1.83-.64.66.99,1.43,2.26,1.31,3.47-.11,1.13-.96.94-1.23.41l-.48-1.16c.48,1.39.43,3.7-1.04,4.4-1.25.31-.53-1.74-.58-2.39-.05.39-.39,1.12-.6,1.46-.24.46-1.09.82-1.35.23-.04-.14.03-.29.1-.43.46-.98,1.06-4.12-.19-4.74l-.56-2.11Z" style="fill:#fff; stroke:#8399b0; stroke-miterlimit:10; stroke-width:.5px;"/><path d="M62.74,29.52c.14-.13.34-.22.51-.39.27-.27.39-.66.32-1.04-.43-2.27.13-3.09,1.3-4.18.11,1.36-.07,2.26,1.73,2.88-.16,1.19,3.11,1.97,3.11,1.97.41,1.35.58,2.71,1.28,3.93-1.25.89-2.53,1.99-3.76,2.36-.04-.47-.19-.97-.31-1.39-.16-.55-.6-.56-.99-.45-.84.24-1.26.46-1.82.28-.62-.21-.67-1.31-.9-2.37-.05-.23-.15-.45-.35-.59-.04-.03-.08-.05-.1-.07-.35-.25-.34-.64-.03-.94Z" style="fill:#fff; stroke:#8399b0; stroke-miterlimit:10; stroke-width:.5px;"/><path d="M68.07,28.19c-.47.79-.91.85-1.19.77-.39-.12-.55-.6-.5-.89.06-.38-.13-.78-.39-1.08-.28-.33-.82-.36-1.1-.69-.55-.63.1-.95-1.1-1.71-.71-1.01.14-1.72,1.5-1.45.25.05.5-.08.67-.26.62-.69,1.52-.94,2.22-.35.56.48,1.6-1.01,2.24-.16.36.49.36.6,1.08.55,1.11-.09,1.65.89,1.28,2.03-.08.24.54.42.79.9.45.84-.09,1.54-.42,1.91-.33.37.46.86-.14,1.77-.62.94-.98.59-1.29,1.35-.41,1-1.31,1.16-1.87.33-.61-.89.09-3.03-1.79-3Z" style="fill:#fff; stroke:#8399b0; stroke-miterlimit:10; stroke-width:.5px;"/><path d="M64.62,49.46c-1.35-.12-2.64-.24-3.9-.43-.26-.04-1.48-1.42-2.26-1.14-.17.71-.45,4.59-.61,5.33,1.37,0,1.61-1.41,2.02-1.31,1.83.47,4.41,1.46,6.23,1.46l-1.48-3.92Z" style="fill:#fff; stroke:#8399b0; stroke-miterlimit:10; stroke-width:.5px;"/><path d="M69.27,49.69c-2.59-.21-5.1-.32-7.76-.56.01,1.5.06,2.54.3,5.02,2.45.03,4.41.34,6.85.61l.61-5.07Z" style="fill:#fff; stroke:#8399b0; stroke-miterlimit:10; stroke-width:.5px;"/><path d="M72.42,57.07c1.58,6.86,1.4,12.36,2.39,19.34.69,4.91,1.54,6.69,1.61,16.19l-5.69.32-6.95-32.44,8.64-3.4Z" style="fill:#fff; stroke:#8399b0; stroke-miterlimit:10; stroke-width:.5px;"/><path d="M71.62,49.96c1.58,3.46,2.92,5.12,3.17,7.87.13,1.42-.78,2.71-1.11,4.15.43,10.34.21,20.93-.35,31.26,0,0-4.59.43-4.76.16-.59-5.33-1.97-11.92-3.09-17.72-1.59-8.22-2.53-16.18-2.16-25.06,2.05-.06,5.14-.15,8.3-.66Z" style="fill:#fff; stroke:#8399b0; stroke-miterlimit:10; stroke-width:.5px;"/><path d="M69.05,71.94c-.43-4.12-1.19-18-1.38-21.53-.1,0-.2.01-.3.02.19,3.53.95,17.41,1.38,21.53.5,4.95,1.81,19.21,2.02,21.46.1,0,.2-.01.3-.02-.2-2.22-1.52-16.51-2.02-21.47Z" style="fill:#fff; stroke:#8399b0; stroke-miterlimit:10; stroke-width:.5px;"/><path d="M69.98,93.47c-.25-2.23-1.86-16.81-2.44-21.41-.5-3.91-1.42-17.91-1.66-21.54-.1,0-.2,0-.3.01.23,3.62,1.15,17.64,1.66,21.56.58,4.58,2.18,19.07,2.43,21.38.1,0,.2,0,.3,0Z" style="fill:#fff; stroke:#8399b0; stroke-miterlimit:10; stroke-width:.5px;"/><path d="M66.04,72.18c-.58-3.71-1.66-17.92-1.94-21.58-.1,0-.2,0-.3,0,.27,3.65,1.36,17.9,1.94,21.62.55,3.48,1.93,14.15,2.56,19.08.07.48.13.96.18,1.43.04.27.06.5.09.68.04.03.15.05.31.06-.31-2.42-2.19-17.09-2.85-21.29Z" style="fill:#fff; stroke:#8399b0; stroke-miterlimit:10; stroke-width:.5px;"/><path d="M73.84,79.34c-.11-2.95-.21-5.76-.29-7.75-.16-3.86-.38-13.5-.49-18.71-.1-.2-.2-.4-.31-.61.1,5.03.33,15.3.5,19.33.13,3.11.31,8.18.47,12.67.05-1.64.1-3.29.13-4.93Z" style="fill:#fff; stroke:#8399b0; stroke-miterlimit:10; stroke-width:.5px;"/><path d="M70.55,71.82c-.35-4.35-.96-18.24-1.1-21.57-.1.01-.2.02-.3.03.14,3.36.75,17.21,1.1,21.56.42,5.3,1.43,19.23,1.6,21.51.1,0,.2-.02.3-.02-.17-2.28-1.19-16.21-1.6-21.51Z" style="fill:#fff; stroke:#8399b0; stroke-miterlimit:10; stroke-width:.5px;"/><path d="M72.05,71.7c-.28-4.63-.73-18.71-.83-21.68-.1.02-.2.03-.3.04.1,3.05.55,17.04.83,21.65.33,5.63,1.06,19.21,1.18,21.55.13-.01.23-.02.3-.03-.13-2.37-.85-15.91-1.18-21.54Z" style="fill:#fff; stroke:#8399b0; stroke-miterlimit:10; stroke-width:.5px;"/><path d="M63.36,52.32c-.07,0-.12-.05-.12-.12,0-.07.05-.13.12-.13,1.45-.03,4.77-.37,7.19-.61.64-.06,1.24-.13,1.73-.17.07,0,.13.04.14.11,0,.07-.04.13-.11.14-.49.05-1.1.11-1.73.17-2.42.25-5.74.58-7.21.61,0,0,0,0,0,0Z" style="fill:#fff; stroke:#8399b0; stroke-miterlimit:10; stroke-width:.5px;"/><path d="M71.37,93.48c-.06,0-.12-.05-.12-.11-.66-6.26-1.1-12.79-1.42-17.77-.58-9.14-1.13-16.8-2.5-25.18-.01-.07.03-.13.1-.14.07-.01.13.03.14.1,1.37,8.39,1.92,16.06,2.5,25.2.31,4.98.76,11.5,1.42,17.76,0,.07-.04.13-.11.14,0,0,0,0-.01,0Z" style="fill:#fff; stroke:#8399b0; stroke-miterlimit:10; stroke-width:.5px;"/><path d="M46.96,48.48c2.63,7.13,2.32,11.4,2.03,17.35s-1.16,12.31-2.08,18.12c-4.29.74-8.95.58-13.49.36.31-8.05.29-19.62,1.8-27.41.46-2.39,1.54-4.66,2.32-6.49.26-.6.4-1.44.34-2.39l9.09.46Z" style="fill:#fff; stroke:#8399b0; stroke-miterlimit:10; stroke-width:.5px;"/><path d="M46.56,51.24c-2.55,0-5.33-.25-8.65-.78-.05,0-.09-.06-.08-.11,0-.05.06-.09.11-.08,3.84.62,6.97.86,9.84.76.05,0,.1.04.1.09,0,.05-.04.1-.09.1-.4.01-.81.02-1.23.02Z" style="fill:#fff; stroke:#8399b0; stroke-miterlimit:10; stroke-width:.5px;"/><path d="M39.39,33.61c-1.01,1.15-1.63,1.94-2.07,3.19-1.11,3.23-.8,8.24-.27,11.22.06.32.56.93.88,1.27,2.99.54,7,.79,9.86.53.31-.17.86-.83.91-1.02.72-2.59.69-4.74.52-7.12-.15-2.06-4.13-6.12-4.5-6.33-.37-.21-.77-.38-1.14-.55-1.38-.62-2.77-.95-4.18-1.19Z" style="fill:#fff; stroke:#8399b0; stroke-miterlimit:10; stroke-width:.5px;"/><path d="M59.85,49.92c-.16-.23-.68-.66-.96-.93-.46-.46-.95-.82-1.11-.91-.36-.21-.5-.51-1.17-.57-.55-.05-1.58.13-2.35.18l-8.42,1.46-.12,3.6,8.34-2.34c1.27.53,3.4,1.79,3.86,1.7.06-.01.62.3.8.28.22-.03.49-.22.49-.41.09-.05.3-.03.39-.11.08-.08.18-.17,0-.57-.03-.06-1.03-1.34-1.12-1.44.01-.03,1.01.82,1.03.84.3.3.54.73.85.5.39-.29-.31-1.01-.5-1.28Z" style="fill:#fff; stroke:#8399b0; stroke-miterlimit:10; stroke-width:.5px;"/><path d="M39.99,35.97c2.8,0,3.97,10.09,4.74,12.47.82-.04,3.16-.18,5-.29-.05,1.22,0,2.81-.16,4.1-2.54.7-6.29,1.41-7.85.95-3.11-.44-4.71-11.12-4.33-14.13.12-.96.53-3.11,2.59-3.11Z" style="fill:#fff; stroke:#8399b0; stroke-miterlimit:10; stroke-width:.5px;"/><path d="M38.94,49.57s-.06-.02-.07-.05c-1.28-3.66-1.78-8.63-1.55-10.44.26-2.08,1.18-3.18,2.67-3.18.97,0,1.83,1.12,2.62,3.42.66,1.93,1.15,4.33,1.55,6.26.24,1.18.45,2.2.63,2.79.93-.05,3.48-.2,4.94-.29.04,0,.08.03.08.07,0,.04-.03.08-.07.08-1.49.09-4.12.25-5,.29-.03,0-.06-.02-.07-.05-.19-.58-.41-1.64-.66-2.86-.78-3.81-1.96-9.57-4.02-9.57-1.4,0-2.27,1.05-2.52,3.05-.22,1.8.27,6.73,1.54,10.37.01.04,0,.08-.05.09,0,0-.02,0-.02,0Z" style="fill:#fff; stroke:#8399b0; stroke-miterlimit:10; stroke-width:.5px;"/><path d="M70.77,32.4c-1.2.86-2.07,1.93-3.56,2.57-1.83,2.13-4.02,4.86-4.49,5.91-.59,1.3-.31,5.57-.14,9.1.02.45.33.64.74.96.86.15,5.1-.11,8.29-.54,0,0,2.09-8.92,1.74-11.98-.21-1.83-2.58-6.03-2.58-6.03Z" style="fill:#fff; stroke:#8399b0; stroke-miterlimit:10; stroke-width:.5px;"/><path d="M70.64,31.98c-3.35,3.96-5.66,10.77-4.73,16.16,1.11,6.42,5.13,13.45,7.26,17.5,1.41-1.11,2.52-2.59,3.07-4.14-.74-7.8-.79-15.33-1.98-22.8-.52-1.91-3.53-6.56-3.61-6.71Z" style="fill:#fff; stroke:#8399b0; stroke-miterlimit:10; stroke-width:.5px;"/><path d="M75.6,52.83c-.06-.91-.11-1.82-.17-2.72l-8.01,3.45c.95,2.61,2.15,5.15,3.29,7.4,1.29-.84,5.1-4.8,5.07-5.37-.06-.92-.12-1.84-.18-2.75Z" style="fill:#fff; stroke:#8399b0; stroke-miterlimit:10; stroke-width:.5px;"/><path d="M75.72,51.69l-1.79-3.22c-1.9,1.5-4.1,2.89-6.24,4.03h0c-.72.25-1.41.58-1.99,1.01.54,1.18,2.29,2.97,2.29,2.97l1.52-1.78,6.22-3.02Z" style="fill:#fff; stroke:#8399b0; stroke-miterlimit:10; stroke-width:.5px;"/><path d="M68.69,51.95c-.26.15-.52.29-.78.43.89,1.81,1.59,2.32,1.59,2.32l.65-.31s-.86-1.5-1.46-2.44Z" style="fill:#fff; stroke:#8399b0; stroke-miterlimit:10; stroke-width:.5px;"/><circle cx="68.87" cy="53.13" r=".82" style="fill:#fff; stroke:#8399b0; stroke-miterlimit:10; stroke-width:.5px;"/><circle cx="68.87" cy="53.13" r=".65" style="fill:#fff; stroke:#8399b0; stroke-miterlimit:10; stroke-width:.5px;"/><path d="M68.43,57.03s-.04,0-.06-.02c-.7-.41-1.44-1.17-1.97-2.03-.71-1.15-1.09-2.47-1.07-3.83,0-.07.06-.12.12-.12h0c.07,0,.12.06.12.13-.03,2.88,1.73,4.95,2.92,5.65.06.03.08.11.05.17-.02.04-.06.06-.11.06Z" style="fill:#fff; stroke:#8399b0; stroke-miterlimit:10; stroke-width:.5px;"/><path d="M46.44,28.24c-.56-.53-.4-.97-.31-1.56.31-2.08-.51-3.03-1.02-3.47-1.51-.18-3.2.95-3.92,2.52-.36.78-.51,1.65-.5,2.52.01.61-.02,1.06.05,1.46h0c-.43,1.13-.89,2.81-1.46,4.07,1.01.12,2.6.56,3.69.92.11-1.03.44-1.85.74-2.59.68.27,1.4.46,1.82.33.63-.2.77-1.66.9-2.49.03-.2.04-.35.23-.43.13-.06.51-.4.43-.7-.06-.2-.48-.42-.64-.58Z" style="fill:#fff; stroke:#8399b0; stroke-miterlimit:10; stroke-width:.5px;"/><path d="M45.21,22.85c.72.09,1.18.84.86,1.5-.05.11-.12.21-.21.3-.43.45-1.17.55-1.51,1.07-.43.65-.05,1.67-.6,2.21-.53.52-1.11,1.03-1.35,1.66-.33.86-.11,1.72-.06,2.39.04.55-.49,1.43-.9,1.81-.4.38-.98.56-1.53.49-.48-.07-.92-.32-1.41-.38-.51-.07-1.02.07-1.54.14-.51.07-1.08.04-1.47-.3-.37-.33-.53-.9-.98-1.09-.24-.1-.51-.07-.75-.17-.49-.2-.84-.91-.81-1.44.06-1.21.94-.66,1.55-2.11.13-.31.03-1.19.33-1.84.33-.71.83-.99.98-1.21.64-.96.53-1.65.91-2.73.33-.97,1.32-1.6,2.33-1.73,1.13-.15,2.3.02,3.35.48.88.38,1.17.46,2.08.76.25.08.51.15.75.17Z" style="fill:#fff; stroke:#8399b0; stroke-miterlimit:10; stroke-width:.5px;"/><path d="M68.65,51.88c.79,1.6,2.28,3.94,2.86,4.84,1.64-.95,5.09-3.31,6.76-4.82.9-.81,1.76-1.94,2-3.13.26-1.26-.45-2.86-1.18-3.93-1.73-2.54-4.67-6.58-7.11-10.17-.8-.17-1.8.46-2.32,1.09-.77.94-1.47,3.33-.49,5.44,1.44,3.09,3.47,3.84,4.92,6.67-1.43,1.43-3.57,2.88-5.45,4Z" style="fill:#fff; stroke:#8399b0; stroke-miterlimit:10; stroke-width:.5px;"/><path d="M71.51,56.82s-.07-.02-.09-.05c-.03-.05-.01-.11.04-.14.99-.57,2.53-1.59,3.94-2.6.04-.03.11-.02.14.02.03.04.02.11-.02.14-1.41,1.02-2.97,2.05-3.96,2.62-.02,0-.03.01-.05.01Z" style="fill:#fff; stroke:#8399b0; stroke-miterlimit:10; stroke-width:.5px;"/><path d="M68.65,51.98s-.07-.02-.09-.05c-.03-.05-.01-.11.03-.14,1.62-.97,3.85-2.43,5.38-3.93-.68-1.3-1.46-2.14-2.29-3.02-.9-.96-1.83-1.96-2.6-3.59-.57-1.22-.56-2.41-.44-3.19.13-.92.49-1.8.94-2.36.65-.79,1.44-1.2,2.22-1.15.05,0,.1.05.09.11,0,.05-.05.1-.11.09-.72-.05-1.45.34-2.06,1.08-.78.96-1.45,3.25-.48,5.34.75,1.6,1.67,2.59,2.56,3.54.82.87,1.66,1.77,2.36,3.13.02.04.01.09-.02.12-1.54,1.54-3.82,3.03-5.47,4.01-.02,0-.03.01-.05.01Z" style="fill:#fff; stroke:#8399b0; stroke-miterlimit:10; stroke-width:.5px;"/><path d="M74.04,48.04s-.05,0-.07-.03c-.04-.04-.04-.1,0-.14.49-.5,1.22-.77,1.91-.68.05,0,.09.06.09.11,0,.05-.06.09-.11.09-.63-.07-1.3.16-1.75.62-.02.02-.05.03-.07.03Z" style="fill:#fff; stroke:#8399b0; stroke-miterlimit:10; stroke-width:.5px;"/><path d="M74.36,47.27s-.04,0-.06-.02c-.05-.03-.06-.09-.03-.14.27-.4.6-.76.97-1.06.04-.03.11-.03.14.02.03.04.03.11-.02.14-.36.29-.68.63-.93,1.01-.02.03-.05.04-.08.04Z" style="fill:#fff; stroke:#8399b0; stroke-miterlimit:10; stroke-width:.5px;"/><path d="M55.57,51.27c.07-.26.42-.81.79-.7.1.03.87.29.31.85.4-.47.72-.98,1.04-.68.15.14.24.56-.33,1.19.29-.27.87-1.34,1.35-.75.14.18-.24,1-.57,1.33.25-.29.72-.86.96-.57.15.19.13.53-.12.86-.17.22-.24.5-.65.43-.21-.04-.31-.03-.41-.22-.52.19-.96-.06-.95-.42-.43.08-.79-.28-.71-.81-.5.07-.74-.37-.7-.51Z" style="fill:#fff; stroke:#8399b0; stroke-miterlimit:10; stroke-width:.5px;"/><path d="M58.76,47.86c-.42.03-1.76.24-2.2.57-.24.18-.67,1.6-.66,1.65.02.15.22.16.37.15.58-.02.9-.8,1.04-1,0,0,1.37-.42,1.52-.43" style="fill:#fff; stroke:#8399b0; stroke-miterlimit:10; stroke-width:.5px;"/><path d="M57.1,40.36s1.98-.69,2.03-.53c.09.28.94,3.62.9,3.8-.05.18-1.66,1.1-1.86.99-.2-.11-1.06-4.26-1.06-4.26Z" style="fill:#fff; stroke:#8399b0; stroke-miterlimit:10; stroke-width:.5px;"/><path d="M49.6,48s2.12-.14,2.1.02c-.03.16-.04,3.74-.13,3.91-.09.16-1.89.62-2.06.47-.17-.16.09-4.39.09-4.39Z" style="fill:#fff; stroke:#8399b0; stroke-miterlimit:10; stroke-width:.5px;"/><path d="M49.51,52.48s0,0,0,0c-.05,0-.1-.05-.1-.1.05-1.61.09-4.21.09-4.23,0-.05.05-.1.1-.1.05,0,.1.05.1.1,0,.03-.04,2.62-.09,4.24,0,.05-.05.1-.1.1Z" style="fill:#fff; stroke:#8399b0; stroke-miterlimit:10; stroke-width:.5px;"/></g></g></svg>