<svg xmlns="http://www.w3.org/2000/svg" xmlns:xlink="http://www.w3.org/1999/xlink" viewBox="0 0 140 60"><defs><style>.a,.f,.i{fill:none;}.b{clip-path:url(#a);}.c{fill:#e9f0f7;}.d,.i{opacity:0.21;}.e{fill:#869cb3;}.f,.h,.i{stroke:#869cb3;stroke-miterlimit:10;stroke-width:0.5px;}.g,.h{fill:#fff;}</style><clipPath id="a"><rect class="a" width="140" height="60"/></clipPath></defs><g class="b"><rect class="c" x="38.4" y="18.88" width="84.86" height="36.77" rx="7.55"/><g class="d"><rect class="e" x="70.18" y="12.66" width="0.28" height="11.04"/><circle class="e" cx="70.32" cy="24.07" r="0.83"/><path class="e" d="M73.11,8H16.23V5.41H73.11Zm-56.6-.27H72.83V5.69H16.51Z"/><path class="e" d="M73.11,10.39H16.23V7.77H73.11Zm-56.6-.27H72.83V8H16.51Z"/><path class="e" d="M73.11,12.74H16.23V10.12H73.11Zm-56.6-.27H72.83V10.39H16.51Z"/><path class="e" d="M73.11,15.1H16.23V12.47H73.11Zm-56.6-.28H72.83V12.74H16.51Z"/></g><g class="d"><path class="e" d="M73.15,54.57H16.09V5.24H73.15Zm-56.7-.36H72.79V5.59H16.45Z"/></g><g class="d"><polygon class="f" points="59.2 18.34 59.2 20.24 55.7 20.24 55.7 54.72 55.03 54.72 55.03 22.87 52.1 22.87 52.1 18.34 59.2 18.34"/><polygon class="f" points="60.84 20.25 60.84 30.92 58.8 30.92 58.8 54.71 55.7 54.71 55.7 20.25 60.84 20.25"/><rect class="f" x="58.8" y="30.92" width="5.14" height="23.79"/><polygon class="f" points="51.81 33.73 51.81 54.72 49.24 54.72 49.24 41.84 47.72 41.84 47.72 33.73 51.81 33.73"/><rect class="f" x="44.46" y="41.83" width="4.79" height="12.88"/><polygon class="f" points="55.03 22.87 55.03 54.72 51.81 54.72 51.81 33.73 49.9 33.73 49.9 22.87 55.03 22.87"/><polygon class="f" points="18.21 37.59 18.21 43.84 17.28 43.84 17.28 54.72 16.77 54.72 16.77 37.59 18.21 37.59"/><rect class="f" x="17.28" y="43.84" width="4.69" height="10.87"/><rect class="f" x="24.11" y="34" width="1.72" height="2.89"/><polygon class="f" points="25.06 32.45 25.06 34 24.11 34 24.11 54.72 21.97 54.72 21.97 43.84 19.86 43.84 19.86 32.45 25.06 32.45"/><polygon class="f" points="72.83 33.92 72.83 54.72 72.76 54.72 72.76 37.47 71.38 37.47 71.38 33.92 72.83 33.92"/><rect class="f" x="67.63" y="37.47" width="5.13" height="17.24"/><polygon class="f" points="69.8 27.73 69.8 37.47 67.63 37.47 67.63 54.71 63.94 54.71 63.94 30.92 62.82 30.92 62.82 24.08 69.8 27.73"/><rect class="f" x="35.07" y="36.89" width="5.14" height="17.83"/><polygon class="f" points="45.65 36.89 45.65 41.84 44.46 41.84 44.46 54.72 42.84 54.72 42.84 36.89 45.65 36.89"/><polygon class="f" points="44.22 31.56 44.22 36.89 42.84 36.89 42.84 54.72 40.2 54.72 40.2 36.89 38.24 36.89 38.24 28.42 44.22 31.56"/><rect class="f" x="24.11" y="36.89" width="5.98" height="17.83"/><polygon class="f" points="36.88 32.35 36.88 36.89 35.07 36.89 35.07 54.72 34.47 54.72 34.47 32.35 36.88 32.35"/><polygon class="f" points="35.75 27.1 35.75 32.35 34.47 32.35 34.47 54.72 30.09 54.72 30.09 36.89 28.77 36.89 28.77 30.54 32.79 27.1 35.75 27.1"/></g><path class="g" d="M102,47a.13.13,0,0,1-.11-.08,4.42,4.42,0,0,1,1-4.87,2.91,2.91,0,0,0,.9-2.38,2.56,2.56,0,0,0-1-1.85.12.12,0,0,1,0-.16.11.11,0,0,1,.16,0,2.76,2.76,0,0,1,1.14,2,3.17,3.17,0,0,1-1,2.57,4.19,4.19,0,0,0-.91,4.62.11.11,0,0,1-.07.15Z"/><path class="g" d="M99.91,41.88a.13.13,0,0,1-.12-.11.12.12,0,0,1,.1-.13.59.59,0,0,0,.54-.5.11.11,0,0,1,.13-.09.11.11,0,0,1,.09.14.82.82,0,0,1-.73.69Z"/><path class="g" d="M101.17,42.87h0a.12.12,0,0,1-.05-.16c.1-.18.21-.35.31-.51v0a2.19,2.19,0,0,0,.21-1.81,1.3,1.3,0,0,0-.81-.82,1.44,1.44,0,0,0-1.63.43A1.13,1.13,0,0,0,99,41.22a1,1,0,0,0,.16.2.11.11,0,0,1,0,.16.12.12,0,0,1-.17,0,.82.82,0,0,1-.21-.25A1.34,1.34,0,0,1,99,39.83a1.66,1.66,0,0,1,1.89-.51,1.51,1.51,0,0,1,.95,1,2.38,2.38,0,0,1-.23,2v0l-.3.5A.11.11,0,0,1,101.17,42.87Z"/><path class="g" d="M100.8,45.54a.11.11,0,0,1-.11-.08,3,3,0,0,1,0-1.85.11.11,0,0,1,.15-.08.11.11,0,0,1,.07.14,2.78,2.78,0,0,0,0,1.71.12.12,0,0,1-.08.15Z"/><path class="g" d="M103.31,33.52h0a.12.12,0,0,1-.06-.16,2.16,2.16,0,0,0,.18-1.65.11.11,0,0,1,.06-.15.11.11,0,0,1,.15.05,2.28,2.28,0,0,1-.18,1.85A.12.12,0,0,1,103.31,33.52Z"/><path class="g" d="M102.3,39.23a.11.11,0,0,1-.1-.06c-.82-1.36-1.36-2.88.27-4.73a.11.11,0,0,1,.17.15c-1.44,1.65-1.14,3-.24,4.46a.12.12,0,0,1,0,.16Z"/><path class="h" d="M104.45,50.09l.29-1.27a.27.27,0,0,0-.26-.33H98.54a.27.27,0,0,0-.26.33l1.35,5.88a.28.28,0,0,0,.27.21h3.22a.28.28,0,0,0,.27-.21l.21-.93h.75a1.84,1.84,0,0,0,.1-3.68Zm-.1,2.79h-.54l.44-1.91h.1a1,1,0,1,1,0,1.91Z"/><path class="h" d="M54.75,52.83a2.35,2.35,0,0,0-2.11-.76,2.22,2.22,0,0,1-.67,0l-3.5-.64a1.81,1.81,0,0,0-1.45.37l-2.35,1.88.6,1h9.59L56,54.24Z"/><path class="h" d="M52.49,54.67h4.27l13.82-1c.93-2.42,2.22-6.58,2.22-6.58L74,34.78l-.46-1.73L72,33.47a5.45,5.45,0,0,0-3.81,3.76,66.31,66.31,0,0,0-2.12,12.21L52.29,52a.11.11,0,0,0-.08.14A4.52,4.52,0,0,1,52.49,54.67Z"/><path class="h" d="M89.25,33.37,83.07,32H77.83l-4.3,1.08a3.94,3.94,0,0,0-2.86,4.78l1.92,7.67.77,9.66H89.73l.32-11.4,1.88-5.63A3.69,3.69,0,0,0,89.25,33.37Z"/><path class="h" d="M81,38.05h0a5.19,5.19,0,0,0,5.1-3.89,5.69,5.69,0,0,0,.23-1.45L83.07,32H77.83l-2.21.55a5.08,5.08,0,0,0,1.14,3.61A5.53,5.53,0,0,0,81,38.05Z"/><path class="h" d="M84.61,32.1l-1-7.55H78.37l-1,7.58a.29.29,0,0,1,0,.09c-.84,4.59,5.84,6.09,7.16,1.61A3.89,3.89,0,0,0,84.61,32.1Z"/><path class="h" d="M81,51.77h0a3,3,0,0,1-2,.31l-2.85-.58a1.88,1.88,0,0,0-1.56.4l-2.65,2.21.47.56h8.12l1.57-.42Z"/><path class="h" d="M79.93,51.82l11.52-1.73a36,36,0,0,1-3-9.61l.83-7.11,1.89.49a4,4,0,0,1,2.78,2.56,58.55,58.55,0,0,1,3.1,16,1.45,1.45,0,0,1-1.22,1.48,127.21,127.21,0,0,1-12.92.79H80.15a6.4,6.4,0,0,0-.4-2.54A.23.23,0,0,1,79.93,51.82Z"/><path class="h" d="M75.34,21.31a2.11,2.11,0,0,1-.92.22,2,2,0,0,1-1-.24h1.64A1,1,0,0,1,75.34,21.31Z"/><path class="h" d="M73.09,20.34l0,.75a3.74,3.74,0,0,1-1.35-3A3.66,3.66,0,0,1,73.23,15a2.08,2.08,0,0,0,.59.87A4.23,4.23,0,0,0,73.05,21S73.05,20.72,73.09,20.34Z"/><path class="h" d="M82.79,22.24l-1.73.16a.3.3,0,0,1,0,.13,1.25,1.25,0,0,1-1.25,1.25h-1a1.7,1.7,0,0,1-.22-.24h1.23a1,1,0,1,0,0-2H78.27a1,1,0,0,0-.7.28.75.75,0,0,1-.08-.24,1.19,1.19,0,0,1,.78-.29h1.56a1.24,1.24,0,0,1,1.19.91L82.8,22l.91-.08,0,.21Z"/><path class="h" d="M86.5,19.57a5.91,5.91,0,0,1-1.66,4.21Z"/><path class="h" d="M77,22.53a1.25,1.25,0,0,0,1.25,1.25h1.56a1.25,1.25,0,0,0,1.25-1.25.3.3,0,0,0,0-.13l1.73-.16a4.66,4.66,0,0,1-1.15,2.83,5.13,5.13,0,0,1-1.3,1.09l-.27.15a1.49,1.49,0,0,1-1.72-.16,1.83,1.83,0,0,0-1.21-.45H75.76a1.82,1.82,0,0,0-1.49.76l-.16.23a18.37,18.37,0,0,1-.7-2.92h1.68a1.25,1.25,0,0,0,.25-2.47,1,1,0,0,0-.25,0H73.45a2.9,2.9,0,0,1-.33-.2l0-.75c.11-1,.47-3,1.77-3.28a4.65,4.65,0,0,0,2.2,1.08l.25.05a4.62,4.62,0,0,0,.65,0h.75c1.81,0,4,.18,4.09,2.64V22L81,22.19a1.24,1.24,0,0,0-1.19-.91H78.27A1.28,1.28,0,0,0,77,22.53Z"/><path class="h" d="M76.34,22.53a1.25,1.25,0,0,1-1.25,1.25H73.41l0-.24h1.71a1,1,0,1,0,0-2H73.52a.86.86,0,0,0-.36.07c0-.08,0-.16,0-.25a2.46,2.46,0,0,0,0-.26,2.9,2.9,0,0,0,.33.2h1.64a1,1,0,0,1,.25,0A1.24,1.24,0,0,1,76.34,22.53Z"/><path class="h" d="M83.73,22.15l0-.21L82.8,22,81,22.19a1.24,1.24,0,0,0-1.19-.91H78.27A1.28,1.28,0,0,0,77,22.53a1.25,1.25,0,0,0,1.25,1.25h1.56a1.25,1.25,0,0,0,1.25-1.25.3.3,0,0,0,0-.13l1.73-.16Zm-3.9,1.39H78.27a1,1,0,0,1-1-1,1,1,0,0,1,.31-.72,1,1,0,0,1,.7-.28h1.56a1,1,0,1,1,0,2Zm2,1.54h-.19a5.13,5.13,0,0,1-1.3,1.09l-.27.15a1.49,1.49,0,0,1-1.72-.16,1.83,1.83,0,0,0-1.21-.45H75.76a1.82,1.82,0,0,0-1.49.76l-.16.23h0a5.54,5.54,0,0,0,2,3c2.22,1.35,7.2-1.89,8-4.21a11.77,11.77,0,0,0,.37-1.36A4.21,4.21,0,0,1,81.83,25.08Z"/><path class="h" d="M86.5,19.57l-1.66,4.21c-.13.13-.27.25-.41.37a4.21,4.21,0,0,1-2.6.93h-.19a4.66,4.66,0,0,0,1.15-2.83l.94-.09,0-.21L82.8,22V20.88c-.1-2.46-2.28-2.62-4.09-2.64H78a4.62,4.62,0,0,1-.65,0l-.25-.05a4.65,4.65,0,0,1-2.2-1.08c-1.3.29-1.66,2.25-1.77,3.28,0,.38,0,.63,0,.63a4.23,4.23,0,0,1,.77-5.13,2.08,2.08,0,0,1-.59-.87,2.43,2.43,0,0,1-.09-1.22C73.5,11.39,79.21,10,83,12a3.73,3.73,0,0,1-.07.4.1.1,0,0,0,.07.13h0a.08.08,0,0,0,.09,0l.05,0a.88.88,0,0,1,.2-.25C85.81,13.68,86.5,16.61,86.5,19.57Z"/><path class="h" d="M83.38,12.21a.88.88,0,0,0-.2.25l-.05,0a.08.08,0,0,1-.09,0h0a.1.1,0,0,1-.07-.13A3.73,3.73,0,0,0,83,12l.14.07,0,0,0,0Z"/><path class="h" d="M83.73,22.15l-.94.09a1.62,1.62,0,0,0,0-.22l.91-.08Z"/><path class="h" d="M84.84,23.78l-.61,1.54A7.3,7.3,0,0,1,82.84,28c-.3.36-.62.72-1,1.06a7.24,7.24,0,0,1-5,1.95,1.64,1.64,0,0,1-1.5-.91,26.36,26.36,0,0,1-1.27-3.38h0l.16-.23a1.82,1.82,0,0,1,1.49-.76h1.38a1.83,1.83,0,0,1,1.21.45,1.49,1.49,0,0,0,1.72.16l.27-.15a5.13,5.13,0,0,0,1.3-1.09h.19a4.21,4.21,0,0,0,2.6-.93C84.57,24,84.71,23.91,84.84,23.78Z"/><path class="h" d="M83.24,12.06h0a.09.09,0,0,1,0,0,3.55,3.55,0,0,1-.07.35l0,0a.08.08,0,0,1-.09,0h0a.1.1,0,0,1-.07-.13A3.73,3.73,0,0,0,83,12a5.78,5.78,0,0,0,0-1.6.11.11,0,1,1,.21,0A6,6,0,0,1,83.24,12.06Z"/><path class="h" d="M84.69,11.57a.1.1,0,0,1-.1.11,2.11,2.11,0,0,0-1.21.53.88.88,0,0,0-.2.25l-.05,0H83a.1.1,0,0,1-.05-.14,1,1,0,0,1,.21-.27l0,0h0a2.32,2.32,0,0,1,1.34-.59A.1.1,0,0,1,84.69,11.57Z"/><polygon class="h" points="83.73 22.15 82.79 22.24 81.06 22.4 80.93 22.41 80.91 22.2 81.02 22.19 82.8 22.02 83.71 21.94 83.73 22.15"/><path class="h" d="M75.34,21.31a1,1,0,0,0-.25,0H73.45a.81.81,0,0,0-.31.06,1.24,1.24,0,0,0,.27,2.42h1.68a1.25,1.25,0,0,0,.25-2.47Zm-.25,2.23H73.38a1,1,0,0,1-.22-1.93.86.86,0,0,1,.36-.07h1.57a1,1,0,1,1,0,2Z"/><path class="h" d="M76.1,22.53a1,1,0,0,1-1,1H73.38a1,1,0,0,1-.22-1.93.86.86,0,0,1,.36-.07h1.57A1,1,0,0,1,76.1,22.53Z"/><path class="h" d="M81.06,22.4a.39.39,0,0,0,0-.21,1.24,1.24,0,0,0-1.19-.91H78.27A1.28,1.28,0,0,0,77,22.53a1.25,1.25,0,0,0,1.25,1.25h1.56a1.25,1.25,0,0,0,1.25-1.25A.3.3,0,0,0,81.06,22.4Zm-1.23,1.14H78.27a1,1,0,0,1-1-1,1,1,0,0,1,.31-.72,1,1,0,0,1,.7-.28h1.56a1,1,0,1,1,0,2Z"/><path class="h" d="M80.84,22.53a1,1,0,0,1-1,1H78.27a1,1,0,0,1-1-1,1,1,0,0,1,.31-.72,1,1,0,0,1,.7-.28h1.56A1,1,0,0,1,80.84,22.53Z"/><path class="e" d="M80.26,11.14a4,4,0,0,1,2.4.73,6.68,6.68,0,0,1,2.72,5.76v4.89l-.6-.19V17.45c0-4-2.78-6.08-4.52-6.31Z"/><ellipse class="e" cx="84.96" cy="22.45" rx="2.55" ry="1.91" transform="translate(53.72 104.58) rotate(-83.98)"/><path class="e" d="M86.62,22.69c-.09.92-.73,1.61-1.42,1.54a1.51,1.51,0,0,1-1.07-1.8c.09-.93.73-1.61,1.42-1.54A1.51,1.51,0,0,1,86.62,22.69Z"/><path class="e" d="M78.92,28.57c0,.3-.4.53-.88.53s-.88-.23-.88-.53.39-.52.88-.52S78.92,28.28,78.92,28.57Z"/><path class="e" d="M78.67,28.83v-.34a3.54,3.54,0,0,0,2.76-1.32l2.64-3.28.26.21-2.64,3.28A3.86,3.86,0,0,1,78.67,28.83Z"/><polygon class="h" points="63.25 48.73 32.69 48.73 30.78 29.63 61.34 29.63 63.25 48.73"/><polygon class="h" points="30.78 29.63 31.14 29.27 61.7 29.27 63.61 48.37 63.25 48.73 61.34 29.63 30.78 29.63"/><ellipse class="h" cx="46.95" cy="39.18" rx="4.06" ry="1.91"/><polygon class="h" points="49.58 43.95 40.51 53.98 47.19 53.98 49.7 45.19 49.58 43.95"/><polygon class="h" points="46.71 53.98 40.03 53.98 42.89 43.95 49.58 43.95 46.71 53.98"/><path class="h" d="M48.62,54.94H37.16a.48.48,0,0,1-.47-.48h0a.47.47,0,0,1,.47-.48H48.62a.47.47,0,0,1,.48.48h0A.48.48,0,0,1,48.62,54.94Z"/><path class="h" d="M52.44,54.94H48.15a.48.48,0,0,1-.48-.48h0a.47.47,0,0,1,.48-.48h4.29a.47.47,0,0,1,.48.48h0A.48.48,0,0,1,52.44,54.94Z"/><line class="i" x1="2.8" y1="55.09" x2="128.96" y2="55.09"/><path class="e" d="M112,15.9h-1.79V14.52a.89.89,0,0,1,.9-.89h0a.89.89,0,0,1,.89.89Z"/><ellipse class="e" cx="111.14" cy="15.9" rx="0.89" ry="0.19"/><path class="h" d="M112.32,17.56a1.77,1.77,0,0,0-.2-.42.79.79,0,0,1-.17-.65v-.43c0-.1-.37-.22-.81-.22h0c-.44,0-.82.12-.82.22v.43a.76.76,0,0,1-.16.65,1.59,1.59,0,0,0-.21.44,1.37,1.37,0,0,0-.13.58,1.32,1.32,0,1,0,2.5-.6Z"/><path class="e" d="M111.09,24.88a.27.27,0,0,1-.12,0h0l-6.82-4.38-.56-6.76a.27.27,0,0,1,.13-.26l7.24-4.63a.3.3,0,0,1,.29,0,.29.29,0,0,1,.15.25v4.62L106.8,20,111,20a.39.39,0,0,1,.39.39v4.16a.28.28,0,0,1-.13.24A.3.3,0,0,1,111.09,24.88Zm-6.65-4.61,6.61,4.25V20.43a.07.07,0,0,0-.06-.07l-4.83,0,4.9-6.77V9.12L103.9,13.7Z"/><path class="e" d="M111.29,24.91a.33.33,0,0,1-.13,0,.27.27,0,0,1-.11-.2v-4.3a.34.34,0,0,1,.34-.33l4.25,0-4.59-6.34V9.18a.36.36,0,0,1,.19-.31.36.36,0,0,1,.36,0l7.11,4.55a.31.31,0,0,1,.15.29l-.55,6.74-6.92,4.43Zm.08-11.35,4.9,6.77-4.88,0v4.15L118,20.27l.54-6.57-7.11-4.54h0s0,0,0,0Z"/><path class="e" d="M116.07,20.27l-.3-.13,2.69-6.33h-7.32l-7.12,0h0s0,0,0,0l2.64,6.28-.3.12L103.69,14a.37.37,0,0,1,0-.34.34.34,0,0,1,.29-.16h0l7.11,0h7.5a.2.2,0,0,1,.19.28Z"/><polygon class="e" points="111.09 9.19 111.31 0.05 111.64 0.05 111.42 9.19 111.09 9.19"/></g></svg>
