<svg xmlns="http://www.w3.org/2000/svg" xmlns:xlink="http://www.w3.org/1999/xlink" viewBox="0 0 140 60"><defs><style>.a,.f,.g,.h,.i,.j{fill:none;}.b{clip-path:url(#a);}.c{fill:#e9f0f7;}.d{fill:#fff;stroke:#869cb3;stroke-width:0.5px;}.d,.f,.g,.h,.i,.j{stroke-miterlimit:10;}.e{fill:#869cb3;}.f,.g,.h,.i,.j{stroke:#b0bbce;}.f{stroke-width:0.63px;stroke-dasharray:2.54 2.54;}.g{stroke-width:0.6px;stroke-dasharray:2.41 2.41;}.h{stroke-width:0.61px;stroke-dasharray:2.42 2.42;}.i{stroke-width:0.82px;}.j{stroke-linecap:round;stroke-width:0.63px;}</style><clipPath id="a"><rect class="a" width="140" height="60"/></clipPath></defs><g class="b"><rect class="c" x="19.18" y="15.04" width="84.86" height="36.77" rx="7.55"/><rect class="d" x="11.8" y="36.34" width="9.94" height="9.94" rx="1.42"/><path class="e" d="M25.57,44.12a.29.29,0,1,1,0-.58l31-.09h0a.3.3,0,0,1,0,.59l-30.95.08Z"/><path class="e" d="M25.36,38.6a.29.29,0,1,1,0-.58l30.95-.08c.15,0,.29.13.29.29a.28.28,0,0,1-.29.29l-30.94.08Z"/><path class="e" d="M25.74,41.44a.29.29,0,0,1,0-.58l31-.08h0a.29.29,0,0,1,0,.58l-30.95.08Z"/><rect class="f" x="10.49" y="35.03" width="12.57" height="12.57"/><rect class="d" x="11.03" y="10.61" width="43.8" height="15.02"/><rect class="g" x="9.81" y="9.48" width="46.18" height="17.64"/><path class="e" d="M15.8,44.13a3.06,3.06,0,0,1-1.19-.81c-.47-.44-.79-.8-.9-.89l.67-.37a7.52,7.52,0,0,0,.66.79,3.26,3.26,0,0,0,.59.47.35.35,0,0,0,.49-.15c.26-.53.62-1.53.85-2.12.68-1.79,1.17-3,1.85-3.44l.27.75c-.46.3-1,1.84-1.46,3-.73,1.91-1.1,2.81-1.82,2.81Z"/><path class="e" d="M36.84,13.53l.8,2.94-.67.2A6.56,6.56,0,0,0,36,15.2a1.64,1.64,0,0,0-1.2-.34H33.16v7c0,.33,0,.67.2.8a2.7,2.7,0,0,0,1.14.13v.67h-4v-.67a2.88,2.88,0,0,0,1.14-.13c.2-.13.2-.47.2-.8v-7H30.16a2,2,0,0,0-1.21.27A4.43,4.43,0,0,0,28,16.6l-.67-.2.8-2.87Z"/><rect class="d" x="65.52" y="23.15" width="33.03" height="15.56"/><path class="e" d="M80,33.93c.45,1.07,1.33-.24,2-.37.45.95,2.11.82,3.15.58.12,0,.21-.08.1-.15-.54-.19-1.18.13-1.75,0s-.63-.45-1.05-.72a1.58,1.58,0,0,0-1.77.43,1.37,1.37,0,0,0-.27-.35c-.13-.14-.73-.11-.58,0S80,33.77,80,33.93Z"/><path class="e" d="M85.43,36.05H76.81v-.86h8.62v.86m-6.81-2-.6-.6.6-.6-.3-.31-.61.61-.6-.61-.3.31.6.6-.6.6.3.3.6-.6.61.6.3-.3"/><path class="e" d="M85.15,28.59c-.09.09-.19.19-.19.28s.09.19.18.28.27.28.27.42-.16.28-.3.43l-1.19,1.19-.41-.41,1.22-1.22-.27-.28-.41.41L83,28.61l1.1-1.1a.28.28,0,0,1,.41,0l.67.67a.28.28,0,0,1,0,.41m-5.1,2.94,2.38-2.39,1.08,1.08-2.38,2.39H80.05Z"/><line class="h" x1="83.51" y1="21.47" x2="99.77" y2="21.47"/><polyline class="h" points="95.35 40.39 64.29 40.39 64.29 21.47 83.51 21.47"/><line class="i" x1="99.77" y1="33.18" x2="99.77" y2="43.44"/><line class="i" x1="92.76" y1="40.39" x2="102.72" y2="40.39"/><polygon class="d" points="112.47 45.3 99.63 40.12 104.81 52.95 106.97 48.9 110.52 52.44 111.96 51 108.41 47.45 112.47 45.3"/><line class="h" x1="99.77" y1="21.47" x2="99.77" y2="37.23"/><path class="c" d="M135.12,33.93l0-.25c0-.17-.06-.32-.09-.47l-13.5,12.67,0,.66,0,.19Z"/><path class="c" d="M121.36,44.14l13-12.23a2.72,2.72,0,0,0-.37-.39L121.4,43.37Z"/><path class="c" d="M132.09,30.79,121,41.25l.07.67,11.76-11A3.1,3.1,0,0,0,132.09,30.79Z"/><polygon class="c" points="129.49 31.05 120.75 39.25 120.82 39.91 130.37 30.95 129.49 31.05"/><polygon class="c" points="127.05 31.32 120.57 37.41 120.64 38.07 127.93 31.22 127.05 31.32"/><path class="c" d="M124.29,31.63l-3.92,3.69v0l.06.64,4.74-4.45Z"/><path class="c" d="M122.81,31.83a3.09,3.09,0,0,0-2.3,2.16Z"/><polygon class="c" points="135.25 35.25 121.62 48.05 121.69 48.8 135.33 36 135.25 35.25"/><path class="c" d="M135.47,37.45l-13.63,12.8,0,.27c0,.15.06.29.09.43l13.59-12.76Z"/><path class="c" d="M135.71,39.94,122.57,52.28a3.41,3.41,0,0,0,.37.39l12.84-12.06Z"/><path class="c" d="M136,42.37l-11.69,11a2.81,2.81,0,0,0,.71.07L136,43Z"/><polygon class="c" points="136.22 45.04 127.6 53.14 128.47 53.04 136.28 45.71 136.22 45.04"/><polygon class="c" points="136.47 47.61 130.99 52.76 131.87 52.66 136.54 48.27 136.47 47.61"/><path class="c" d="M136.58,49.6l-3.05,2.87.36,0a2.91,2.91,0,0,0,.6-.13l1.82-1.71A3.3,3.3,0,0,0,136.58,49.6Z"/><rect class="j" x="117.11" y="27.99" width="12.4" height="22.1" rx="4.55" transform="translate(-4.03 16.35) rotate(-7.46)"/><path class="j" d="M126,28.27a4.8,4.8,0,0,1,.18.77l1.28,9.78a7.69,7.69,0,0,1-6.63,8.62l-.16,0a4.48,4.48,0,0,1-2.52-.41,4.56,4.56,0,0,0,4.92,3.15l3.28-.43a4.57,4.57,0,0,0,3.92-5.1l-1.69-12.9A4.56,4.56,0,0,0,126,28.27Z"/><path class="j" d="M123.52,32.66a1,1,0,1,1-2,.27,1,1,0,1,1,2-.27Z"/></g></svg>