<svg xmlns="http://www.w3.org/2000/svg" xmlns:xlink="http://www.w3.org/1999/xlink" viewBox="0 0 140 60"><defs><style>.a,.e{fill:none;}.b{clip-path:url(#a);}.c{fill:#e9f0f7;}.d{opacity:0.32;}.e{stroke:#b0bbce;stroke-linecap:round;stroke-width:0.63px;}.e,.k{stroke-miterlimit:10;}.f{opacity:0.4;}.g{opacity:0.25;}.h{opacity:0.3;}.i,.k{fill:#fff;}.j{fill:#869cb3;}.k{stroke:#869cb3;stroke-width:0.5px;}</style><clipPath id="a"><rect class="a" width="140" height="60"/></clipPath></defs><g class="b"><rect class="c" x="19.09" y="16.18" width="84.86" height="36.77" rx="7.55"/><g class="d"><path class="e" d="M94.35,11.32V22.06a1.54,1.54,0,0,1-1.54,1.54H79a1.54,1.54,0,0,1-1.54-1.54V11.32"/><path class="e" d="M94.35,11.32l-7.54,6.25a1.53,1.53,0,0,1-1.8,0l-7.54-6.25Z"/><line class="e" x1="77.47" y1="11.32" x2="94.35" y2="11.32"/></g><g class="f"><circle class="e" cx="18.73" cy="48.52" r="9.48"/><path class="e" d="M10.87,53.82c1.7-1,14-1,15.72,0"/><path class="e" d="M10.5,43.82c1.63,1.11,14.83,1.11,16.46,0"/><ellipse class="e" cx="18.73" cy="48.52" rx="4.54" ry="9.48"/><line class="e" x1="9.24" y1="48.94" x2="28.21" y2="48.94"/></g><polygon class="c" points="105.52 24.67 123.79 6.97 123.8 6.04 105.54 23.74 105.52 24.67"/><polygon class="c" points="121.66 5.22 105.28 21.09 105.27 21.91 122.48 5.23 121.66 5.22"/><polygon class="c" points="118.81 5.17 104.85 18.71 104.83 19.52 119.63 5.19 118.81 5.17"/><polygon class="c" points="116.35 5.14 104.89 16.25 104.87 17.07 117.17 5.15 116.35 5.14"/><polygon class="c" points="114.09 5.1 104.92 13.99 104.91 14.8 114.91 5.11 114.09 5.1"/><polygon class="c" points="111.54 5.06 104.96 11.44 104.95 12.25 112.35 5.07 111.54 5.06"/><polygon class="c" points="104.98 10.09 110.19 5.04 109.38 5.03 105 9.27 104.98 10.09"/><polygon class="c" points="105.64 26.15 105.63 27.07 123.75 9.51 123.76 8.59 105.64 26.15"/><polygon class="c" points="105.82 29.52 123.7 12.2 123.72 11.29 105.84 28.62 105.82 29.52"/><path class="c" d="M123.66,15.16v-.72h0v-.09L106.82,30.68v.08h.73Z"/><polygon class="c" points="123.62 17.32 109.71 30.8 110.52 30.82 123.61 18.13 123.62 17.32"/><polygon class="c" points="123.57 20.6 112.99 30.86 113.8 30.87 123.56 21.41 123.57 20.6"/><polygon class="c" points="123.52 23.74 116.13 30.91 116.95 30.92 123.51 24.56 123.52 23.74"/><polygon class="c" points="123.49 26.1 118.49 30.94 119.31 30.95 123.47 26.92 123.49 26.1"/><g class="g"><polyline class="e" points="101.09 47.24 100.41 47.24 99.06 56.68 103.11 54.66 106.82 56.3 110.53 54.66 114.57 56.68 113.22 47.24 112.55 47.24"/><path class="e" d="M111.42,45.8c0,3.32-4.6,8-4.6,8s-4.61-4.61-4.61-8a4.61,4.61,0,1,1,9.21,0Z"/><path class="e" d="M108.91,45.64a2.1,2.1,0,1,1-2.09-2.09A2.09,2.09,0,0,1,108.91,45.64Z"/></g><g class="h"><rect class="e" x="115.88" y="8.64" width="18.17" height="29.84" rx="2.46"/><line class="e" x1="115.88" y1="33.29" x2="134.04" y2="33.29"/><line class="e" x1="123.66" y1="35.89" x2="126.26" y2="35.89"/></g><rect class="i" x="61.56" y="4.95" width="2.29" height="3.82" transform="translate(-0.21 11.37) rotate(-10.34)"/><path class="j" d="M63.29,5.06l.59,3.27-1.76.33-.59-3.28,1.76-.32m.4-.58-.49.09-1.76.32L61,5l.09.49.59,3.27.09.5.49-.09L64,8.83l.49-.09-.09-.5L63.78,5l-.09-.49Z"/><rect class="i" x="62.76" y="11.49" width="2.29" height="3.82" transform="translate(-1.37 11.71) rotate(-10.36)"/><path class="j" d="M64.48,11.6l.6,3.27-1.76.33-.6-3.27,1.76-.33m.4-.58-.49.09-1.76.32-.49.09.09.5.6,3.27.09.49.49-.09,1.76-.32.49-.09-.09-.5L65,11.51,64.88,11Z"/><rect class="i" x="63.95" y="18.03" width="2.29" height="3.82" transform="translate(-2.52 12.01) rotate(-10.34)"/><path class="j" d="M65.67,18.14l.6,3.27-1.76.32-.59-3.27,1.75-.32m.41-.58-.5.09L63.83,18l-.5.09.09.49.6,3.27.09.49.49-.08,1.76-.33.49-.09-.09-.49-.59-3.27-.09-.49Z"/><path class="k" d="M40.46,57.08,68.5,52a1.76,1.76,0,0,0,1.15-.74,1.78,1.78,0,0,0,.28-1.33L61.7,4.8a1.79,1.79,0,0,0-2.08-1.44l-28,5.12Z"/><path class="k" d="M40.46,57.08,37,57.72a1.78,1.78,0,0,1-2.07-1.44L26.67,11.2A1.79,1.79,0,0,1,27,9.86a1.76,1.76,0,0,1,1.15-.74l3.48-.64Z"/><path class="k" d="M58.71,20.33A10.42,10.42,0,1,1,46.59,12,10.41,10.41,0,0,1,58.71,20.33Z"/><path class="j" d="M28.76,14.44a.6.6,0,0,1-.48.7l-1.72.31a.59.59,0,0,1-.69-.48h0a.59.59,0,0,1,.47-.69L28.07,14a.6.6,0,0,1,.69.48Z"/><path class="j" d="M29.29,17.37a.59.59,0,0,1-.47.69l-1.73.32a.6.6,0,0,1-.69-.48h0a.6.6,0,0,1,.48-.69l1.72-.32a.59.59,0,0,1,.69.48Z"/><path class="j" d="M29.83,20.3a.6.6,0,0,1-.48.69l-1.72.32a.62.62,0,0,1-.7-.48h0a.6.6,0,0,1,.48-.69l1.73-.32a.6.6,0,0,1,.69.48Z"/><path class="j" d="M30.36,23.23a.59.59,0,0,1-.47.69l-1.73.32a.61.61,0,0,1-.69-.48h0a.6.6,0,0,1,.48-.7l1.72-.31a.6.6,0,0,1,.69.48Z"/><path class="j" d="M30.9,26.16a.6.6,0,0,1-.48.69l-1.72.31a.6.6,0,0,1-.7-.48h0a.61.61,0,0,1,.48-.69l1.73-.31a.59.59,0,0,1,.69.48Z"/><path class="j" d="M31.43,29.08a.58.58,0,0,1-.47.69l-1.73.32a.6.6,0,0,1-.69-.48h0a.6.6,0,0,1,.48-.69l1.72-.32a.6.6,0,0,1,.69.48Z"/><path class="j" d="M32,32a.6.6,0,0,1-.48.69L29.77,33a.6.6,0,0,1-.7-.48h0a.61.61,0,0,1,.48-.69l1.73-.32A.6.6,0,0,1,32,32Z"/><path class="j" d="M32.5,34.94a.59.59,0,0,1-.48.69L30.3,36a.6.6,0,0,1-.69-.48h0a.59.59,0,0,1,.48-.69l1.72-.32a.6.6,0,0,1,.69.48Z"/><path class="j" d="M33,37.87a.6.6,0,0,1-.48.69l-1.72.32a.61.61,0,0,1-.7-.48h0a.6.6,0,0,1,.48-.7l1.73-.31a.59.59,0,0,1,.69.48Z"/><path class="j" d="M33.57,40.8a.59.59,0,0,1-.48.69l-1.72.31a.6.6,0,0,1-.69-.48h0a.6.6,0,0,1,.48-.69l1.72-.31a.59.59,0,0,1,.69.48Z"/><path class="j" d="M34.11,43.72a.6.6,0,0,1-.48.69l-1.73.32a.6.6,0,0,1-.69-.48h0a.6.6,0,0,1,.48-.69l1.73-.32a.61.61,0,0,1,.69.48Z"/><path class="j" d="M34.64,46.65a.59.59,0,0,1-.48.69l-1.72.32a.6.6,0,0,1-.69-.48h0a.59.59,0,0,1,.47-.69L34,46.17a.6.6,0,0,1,.69.48Z"/><path class="j" d="M35.18,49.58a.61.61,0,0,1-.48.69L33,50.58a.59.59,0,0,1-.69-.47h0a.61.61,0,0,1,.48-.7l1.72-.31a.6.6,0,0,1,.7.48Z"/><path class="j" d="M35.71,52.5a.6.6,0,0,1-.48.7l-1.72.31a.59.59,0,0,1-.69-.48h0a.59.59,0,0,1,.47-.69L35,52a.59.59,0,0,1,.69.47Z"/><path class="i" d="M45.84,29.81s-.12-.81-.13-1h-.12l0-.2c-.25-1.38.65-3.43,1.94-3.72l.07,0h0a1.19,1.19,0,0,0,.09-.61,4.21,4.21,0,0,1-1.83-1.49,1.72,1.72,0,0,1-1.25-1,.82.82,0,0,1,.13-.79l-.1-.28a6.24,6.24,0,0,1-.5-2.27c-.41,0-.92-.34-1-.55l0-.2.38-.17.12.19a1.54,1.54,0,0,0,.66-.32l-.18,0-.6-.12.5-.34a7.92,7.92,0,0,0,.9-.7l.08-.06-.34.07,1.16-.74a4.12,4.12,0,0,1,1.42-.6l.39-.16a1.18,1.18,0,0,1,.5-.1,3,3,0,0,1,2.12,1.19,4.58,4.58,0,0,1,.91,3.67.8.8,0,0,1,.52.61A1.46,1.46,0,0,1,51,21.67a4.34,4.34,0,0,1-.81,2,1.58,1.58,0,0,0,.37.54l0,0h.22A3.49,3.49,0,0,1,54,26.74l.07.21-.16.08c.06.16.12.38.21.7l.08.26-.26.06c-7.77,1.75-7.86,1.76-7.89,1.76Z"/><path class="j" d="M48.13,14.87c1.25,0,3.34,1.79,2.73,4.85l.12,0c.55,0,.84,1.22-.2,1.83a3.87,3.87,0,0,1-.84,2.12,1.6,1.6,0,0,0,.67.91l.1-.1h.12a3.24,3.24,0,0,1,2.94,2.36l-.17.08h0a7.83,7.83,0,0,1,.29.9s-7.75,1.76-7.84,1.76h0c0-.3-.1-.71-.12-.95H45.8c-.23-1.32.66-3.19,1.75-3.44l.15.06a1.44,1.44,0,0,0,.22-1.09A3.8,3.8,0,0,1,46,22.59H46c-.57,0-1.66-1-.89-1.58-.12-.09-.13-.16-.21-.42a4.72,4.72,0,0,1-.43-2.45.68.68,0,0,1-.23.05,1.28,1.28,0,0,1-.79-.35.28.28,0,0,0,.22.08,1.33,1.33,0,0,0,1.13-.78h-.22a2.49,2.49,0,0,1-.39,0c1.13-.76,1.41-1.41,2.34-1.42a.56.56,0,0,0-.25,0,1.35,1.35,0,0,0-.29,0,3.48,3.48,0,0,1,1.94-.62h.26L47.73,15a1,1,0,0,1,.4-.08m0-.5a1.46,1.46,0,0,0-.6.12l-.36.15a4.29,4.29,0,0,0-1.48.63l-2.32,1.48.66-.14-.15.1-1,.68.23,0-.24.11.08.4c.07.3.53.6,1,.7a6.67,6.67,0,0,0,.51,2.12v0l.06.17a1.08,1.08,0,0,0-.09.9,2,2,0,0,0,1.34,1.2,4.39,4.39,0,0,0,1.74,1.41,1.24,1.24,0,0,1,0,.22c-1.42.35-2.36,2.52-2.1,4l.07.41h.11l0,.25,0,.27.06.44h.44c.07,0,.19,0,7.94-1.77l.52-.11-.14-.51-.15-.51.16-.08-.15-.42A3.73,3.73,0,0,0,50.83,24h-.16a1.46,1.46,0,0,1-.17-.24,4.45,4.45,0,0,0,.77-1.92A1.72,1.72,0,0,0,51.93,20a1.14,1.14,0,0,0-.5-.69,4.8,4.8,0,0,0-1-3.68,3.23,3.23,0,0,0-2.31-1.28Z"/><circle class="j" cx="70.72" cy="49.52" r="5.27"/><path class="i" d="M71.55,50.41v1.78H70.36V50.41H68.59V49.23h1.77V47.45h1.19v1.78h1.78v1.18Z"/><g class="d"><path class="e" d="M7.39,13.19l-.09.11c-.3.34-.15.85,0,1.4A8.85,8.85,0,0,0,11.27,19a1.23,1.23,0,0,0,1.4,0l.11-.1a1.27,1.27,0,0,1,1.31-.34c.28.11.53.24.94.4A1.41,1.41,0,0,1,16,20.42a5.47,5.47,0,0,1-.7,1.72,1.38,1.38,0,0,1-1.62.35c-5.67-1.7-8.27-5.17-9.84-10-.23-.7-.13-1.38.29-1.63a3.64,3.64,0,0,1,1.7-.76,1.54,1.54,0,0,1,1.49.9c.15.27.24.59.37.87A1.36,1.36,0,0,1,7.39,13.19Z"/><path class="e" d="M8.67,27.86a2.47,2.47,0,0,1,2.77-2.73c1.74,0,3.06,1.38,4.21,1.95,1.73.87,4.65-2.32.13-5.43"/></g><polygon class="c" points="89.54 57.3 90.18 57.3 77.79 44.97 77.15 44.97 89.54 57.3"/><polygon class="c" points="87.73 57.51 88.28 57.51 76.61 45.89 76.62 46.45 87.73 57.51"/><polygon class="c" points="76.62 47.85 76.62 48.41 86.09 57.84 86.65 57.84 76.62 47.85"/><polygon class="c" points="76.62 49.54 76.62 50.1 84.4 57.84 84.96 57.84 76.62 49.54"/><polygon class="c" points="76.63 51.09 76.63 51.65 82.85 57.85 83.41 57.84 76.63 51.09"/><polygon class="c" points="76.63 52.85 76.63 53.41 81.09 57.85 81.65 57.85 76.63 52.85"/><polygon class="c" points="79.61 57.85 80.17 57.85 76.63 54.34 76.63 54.9 79.61 57.85"/><polygon class="c" points="91.19 57.2 91.83 57.2 79.54 44.97 78.9 44.97 91.19 57.2"/><polygon class="c" points="93.51 57.04 81.39 44.96 80.76 44.96 92.89 57.04 93.51 57.04"/><path class="c" d="M94.35,55.83,83.42,45h-.56L94.29,56.34h.06Z"/><polygon class="c" points="85.47 44.95 84.9 44.95 94.34 54.35 94.34 53.79 85.47 44.95"/><polygon class="c" points="87.72 44.95 87.16 44.95 94.34 52.1 94.34 51.54 87.72 44.95"/><polygon class="c" points="89.88 44.94 89.32 44.94 94.33 49.93 94.33 49.37 89.88 44.94"/><polygon class="c" points="91.5 44.94 90.94 44.94 94.33 48.31 94.33 47.75 91.5 44.94"/></g></svg>