<svg xmlns="http://www.w3.org/2000/svg" xmlns:xlink="http://www.w3.org/1999/xlink" viewBox="0 0 140 60"><defs><style>.a,.g{fill:none;}.b{clip-path:url(#a);}.c{fill:#e9f0f7;}.d{fill:#fff;stroke:#869cb3;stroke-width:0.5px;}.d,.g{stroke-miterlimit:10;}.e{fill:#869cb3;}.f{opacity:0.48;}.g{stroke:#b0bbce;stroke-linecap:round;}.h{opacity:0.39;}.i{opacity:0.2;}.j{opacity:0.19;}.k{opacity:0.67;}</style><clipPath id="a"><rect class="a" width="140" height="60"/></clipPath></defs><g class="b"><rect class="c" x="26.17" y="15.58" width="84.86" height="36.77" rx="7.55"/><polygon class="c" points="67.63 55.57 68.56 55.61 51.37 36.81 50.44 36.77 67.63 55.57"/><polygon class="c" points="64.98 55.74 65.79 55.78 49.6 38.07 49.56 38.89 64.98 55.74"/><polygon class="c" points="49.47 40.92 49.43 41.74 62.58 56.11 63.39 56.15 49.47 40.92"/><polygon class="c" points="49.36 43.38 49.32 44.2 60.12 56 60.93 56.04 49.36 43.38"/><polygon class="c" points="49.26 45.64 49.22 46.46 57.85 55.9 58.67 55.93 49.26 45.64"/><polygon class="c" points="49.15 48.2 49.11 49.02 55.3 55.78 56.11 55.82 49.15 48.2"/><polygon class="c" points="53.13 55.69 53.95 55.72 49.05 50.36 49.01 51.18 53.13 55.69"/><polygon class="c" points="70.97 55.57 53.92 36.92 52.99 36.88 70.05 55.53 70.97 55.57"/><polygon class="c" points="55.69 37 72.52 55.41 73.43 55.45 56.61 37.05 55.69 37"/><path class="c" d="M59.57,37.18l-.72,0h-.09L74.61,54.49h.08l0-.73Z"/><polygon class="c" points="62.54 37.31 61.73 37.27 74.82 51.6 74.86 50.78 62.54 37.31"/><polygon class="c" points="65.83 37.46 65.01 37.42 74.97 48.31 75.01 47.5 65.83 37.46"/><polygon class="c" points="68.97 37.6 68.16 37.56 75.11 45.17 75.15 44.35 68.97 37.6"/><polygon class="c" points="71.33 37.7 70.52 37.67 75.22 42.81 75.25 41.99 71.33 37.7"/><polygon class="c" points="22.45 26.59 23.38 26.63 6.19 7.83 5.26 7.79 22.45 26.59"/><polygon class="c" points="19.8 26.77 20.61 26.8 4.42 9.09 4.38 9.91 19.8 26.77"/><polygon class="c" points="4.29 11.94 4.25 12.76 17.4 27.13 18.21 27.17 4.29 11.94"/><polygon class="c" points="4.18 14.4 4.14 15.22 14.94 27.02 15.75 27.06 4.18 14.4"/><polygon class="c" points="4.08 16.66 4.04 17.48 12.68 26.92 13.49 26.96 4.08 16.66"/><polygon class="c" points="3.96 19.22 3.93 20.04 10.12 26.8 10.93 26.84 3.96 19.22"/><polygon class="c" points="7.95 26.71 8.77 26.74 3.87 21.38 3.83 22.2 7.95 26.71"/><polygon class="c" points="25.79 26.59 8.74 7.95 7.81 7.91 24.87 26.55 25.79 26.59"/><polygon class="c" points="10.52 8.03 27.34 26.43 28.25 26.47 11.43 8.07 10.52 8.03"/><path class="c" d="M14.39,8.2l-.72,0h-.09L29.43,25.51h.08l0-.73Z"/><polygon class="c" points="17.36 8.33 16.55 8.3 29.64 22.62 29.68 21.8 17.36 8.33"/><polygon class="c" points="20.65 8.48 19.83 8.44 29.79 19.34 29.83 18.52 20.65 8.48"/><polygon class="c" points="23.79 8.62 22.98 8.58 29.93 16.19 29.97 15.38 23.79 8.62"/><polygon class="c" points="26.16 8.73 25.34 8.69 30.04 13.83 30.07 13.01 26.16 8.73"/><path class="d" d="M61.63,30.79,52.5,43.15h0l-.07.08a5,5,0,0,0-.8,1.09v.05c0,.45-1.45.91-3.93,1.39-.78.14-1.46.26-2.06.35a4.63,4.63,0,0,1-2.25-.06,0,0,0,0,1,0,0l0-.13-.23-.15L43,45.62l-.4-.26h0L29.3,36.93l0,0-.21-.13A2.61,2.61,0,0,1,28,35.05L25.64,22.81a2.42,2.42,0,0,0,.41.27,7.21,7.21,0,0,0,2.13.68c3.33.63,9,.4,15.22-.79,7.9-1.51,14.33-4.07,16.17-6.27l2.37,12.44A2.09,2.09,0,0,1,61.63,30.79Z"/><path class="d" d="M52.47,57.32s0,.09,0,.07a6.39,6.39,0,0,0-2.38.12,6,6,0,0,0-2.43.86s-.15-.26-.15-.22L43.14,45.9h0l0-.12.23.15,0,.13a0,0,0,0,0,0,0,4.63,4.63,0,0,0,2.25.06c.6-.09,1.28-.21,2.06-.35,2.48-.48,3.93-.94,3.93-1.39Z"/><path class="d" d="M43.09,45.77l-.28-.17-.38-.25-13-8.3-.16-.12,13.33,8.43h0l.4.26Z"/><path class="d" d="M52.42,43.24l-.8,1.09A5,5,0,0,1,52.42,43.24Z"/><path class="d" d="M28.18,23.76a7.21,7.21,0,0,1-2.13-.68l0-.18a7.59,7.59,0,0,0,2.12.66Z"/><path class="d" d="M27.43,19.85a1.29,1.29,0,0,1-.31-.21l.27,0Z"/><path class="d" d="M28.18,23.76a7.21,7.21,0,0,1-2.13-.68,2.42,2.42,0,0,1-.41-.27l0-.16a2.62,2.62,0,0,0,.41.25,7.59,7.59,0,0,0,2.12.66Z"/><path class="d" d="M25,21.31a.11.11,0,0,0,0,.07v0Zm2.44-1.69-.27,0a1.29,1.29,0,0,0,.31.21Zm0,.23,0,.07h.14A.76.76,0,0,1,27.43,19.85Zm.71,3.71A7.59,7.59,0,0,1,26,22.9a2.62,2.62,0,0,1-.41-.25,1.55,1.55,0,0,1-.51-.55,1.4,1.4,0,0,0,.54.71,2.42,2.42,0,0,0,.41.27,7.21,7.21,0,0,0,2.13.68Z"/><path class="d" d="M59.65,13.41a.75.75,0,0,0-.07-.12c-1.45-1.95-9.16-2.22-18.12-.51-9.67,1.84-17.14,5.28-16.69,7.67a.58.58,0,0,0,.06.17,1.73,1.73,0,0,0,.49.53,3.21,3.21,0,0,0,.41.26,7.56,7.56,0,0,0,2.13.66c3.33.63,8.94.39,15.17-.8,8-1.51,14.44-4.11,16.21-6.32C59.73,14.22,59.86,14.05,59.65,13.41Z"/><path class="d" d="M59.57,16.7C56.43,21,34,25.9,28.14,23.56c-2-.3-3.29-1-3.31-2.94,6.48,4.95,30.21-1,34.41-5.67C60.12,13,60.36,16.16,59.57,16.7Z"/><path class="d" d="M25,21.3a.79.79,0,0,1-.12-.3.87.87,0,0,1,0-.36l.09.17a1.08,1.08,0,0,0,0,.4A.16.16,0,0,0,25,21.3Z"/><path class="d" d="M25.1,22.09a.91.91,0,0,1-.13-.33,1.1,1.1,0,0,1,0-.36,1.51,1.51,0,0,0,.09.18,1.28,1.28,0,0,0,0,.39A.42.42,0,0,0,25.1,22.09Z"/><path class="d" d="M60,15s0,0,0-.05Z"/><path class="d" d="M52.42,57.39c0,.33-1.05.78-2.32,1a4.1,4.1,0,0,1-2.49,0A6,6,0,0,1,50,57.51,6.39,6.39,0,0,1,52.42,57.39Z"/><path class="d" d="M43.37,46.05a.51.51,0,0,1-.23-.15h0a.34.34,0,0,1-.08-.09,1.52,1.52,0,0,0-.24-.2l-.38-.25h.21l.4.26.05.15.23.15Z"/><path class="d" d="M57.5,13.89c-1.5,4.28-26.94,8.38-30.57,6.45,0,0-.22-.22-.31-.21C24,16.36,57.73,10.43,57.5,13.89Z"/><path class="e" d="M52.78,39.16h0a27.18,27.18,0,0,1-11.19,1.7,2.56,2.56,0,0,1-1.42-.56,2,2,0,0,1-.75-1.13q-.78-4.26-1.57-8.53a2,2,0,0,1,1.46-2.1h0A54.64,54.64,0,0,1,50.4,26.31a2.14,2.14,0,0,1,1.41.37,1.78,1.78,0,0,1,.75,1.1q.82,4.5,1.66,9a2,2,0,0,1-.3,1.36A2.33,2.33,0,0,1,52.78,39.16Zm-.14-.68a1.3,1.3,0,0,0,.7-.57,1.14,1.14,0,0,0,.18-.82c-.57-3.08-1.13-6.16-1.7-9.23a1,1,0,0,0-.45-.66,1.19,1.19,0,0,0-.84-.21,64.51,64.51,0,0,0-11.1,2.19h0a1.31,1.31,0,0,0-.69.51,1,1,0,0,0-.19.76c.54,2.92,1.08,5.85,1.61,8.76a1.42,1.42,0,0,0,1.31,1A29.6,29.6,0,0,0,52.64,38.48Z"/><path class="e" d="M46.93,38.87a8.84,8.84,0,0,1-3.62-1.66c-1.48-1-2.46-1.76-2.8-2,.53-.33,1.06-.68,1.6-1.06a23.21,23.21,0,0,0,2.16,1.73,8.35,8.35,0,0,0,1.81,1,1,1,0,0,0,1.24-.61c.46-1.49.94-4.24,1.26-5.85,1-4.85,1.74-7.84,3.39-8.66.35.58.7,1.16,1.05,1.72-1.11.55-2.15,3.32-2.75,6.32-1,5.08-1.37,8.78-3.32,9.07Z"/><g class="f"><line class="g" x1="98.24" y1="33.6" x2="130.43" y2="33.6"/><polyline class="g" points="130.43 33.6 130.43 56.85 98.24 56.85"/><polyline class="g" points="98.24 33.6 114.34 47.91 130.43 33.6"/><line class="g" x1="98.24" y1="56.85" x2="110.54" y2="44.56"/><line class="g" x1="130.43" y1="56.85" x2="118.14" y2="44.56"/><line class="g" x1="97.35" y1="37.18" x2="91.09" y2="37.18"/><line class="g" x1="99.14" y1="42.55" x2="94.67" y2="42.55"/><line class="g" x1="98.24" y1="47.91" x2="92.88" y2="47.91"/><line class="g" x1="97.35" y1="53.28" x2="90.19" y2="53.28"/></g><g class="h"><rect class="g" x="21.57" y="9.22" width="17.01" height="12.15" transform="translate(1.22 -2.19) rotate(4.25)"/><polyline class="g" points="22.05 8.6 29.93 17.31 39.01 9.87"/></g><g class="h"><rect class="g" x="39.16" y="3.26" width="15.81" height="11.29" transform="translate(-0.51 3.3) rotate(-3.99)"/><polyline class="g" points="38.79 3.83 47.2 10.79 54.56 2.73"/></g><g class="i"><rect class="g" x="19.65" y="3.02" width="15.33" height="10.95" transform="translate(-1.23 6.68) rotate(-13.63)"/><polyline class="g" points="18.57 4.98 27.75 10.27 33.48 1.37"/></g><g class="j"><rect class="g" x="35.52" y="6.91" width="17.01" height="12.15" transform="translate(2.86 -7.32) rotate(9.82)"/><polyline class="g" points="36.68 5.55 43.68 14.98 53.44 8.45"/></g><g class="j"><rect class="g" x="49.99" y="5.76" width="13.84" height="9.89" transform="translate(-0.56 17.8) rotate(-17.69)"/><polyline class="g" points="48.81 8.09 57.41 12.27 62.01 3.89"/></g><g class="k"><polygon class="e" points="80.19 46.74 80.19 47.02 75.73 47.02 80.32 42.43 70.61 42.43 70.61 39.2 80.29 39.2 75.73 34.65 80.31 34.65 86.48 40.83 80.31 47.02 80.19 47.02 80.19 46.74 79.99 46.54 85.69 40.83 80.07 35.21 77.09 35.21 81.64 39.77 71.18 39.77 71.18 41.87 81.68 41.87 77.09 46.46 80.19 46.46 80.19 46.74 79.99 46.54 80.19 46.74"/></g><g class="k"><polygon class="e" points="91.59 32.65 91.59 32.93 87.14 32.92 91.72 28.34 82.02 28.34 82.02 25.11 91.69 25.11 87.14 20.56 91.71 20.56 97.89 26.74 91.71 32.93 91.59 32.93 91.59 32.65 91.4 32.45 97.1 26.74 91.48 21.12 88.5 21.12 93.04 25.68 82.58 25.68 82.58 27.77 93.08 27.78 88.5 32.37 91.59 32.37 91.59 32.65 91.4 32.45 91.59 32.65"/></g></g></svg>