<?xml version="1.0" encoding="UTF-8"?><svg id="e" xmlns="http://www.w3.org/2000/svg" xmlns:xlink="http://www.w3.org/1999/xlink" viewBox="0 0 140 60"><defs><clipPath id="f"><rect y="0" width="140" height="60" style="fill:none; stroke-width:0px;"/></clipPath><clipPath id="g"><polygon points="98.68 45.76 90.24 38.89 90.24 42.12 77.33 42.12 77.33 49.05 90.24 49.05 90.24 53.43 98.68 45.76" style="fill:none; stroke-width:0px;"/></clipPath><clipPath id="h"><rect x="27" y="14.19" width="55.32" height="45.81" style="fill:none; stroke-width:0px;"/></clipPath></defs><g style="clip-path:url(#f);"><path d="M20.24,10.65h-.03l-.03.03-.02.02v.06s-.01.03-.01.03v.04s.06.06.06.06l.05.02v-.04s.02-.03.02-.03v-.03s0-.02,0-.02h-.02s-.02-.05-.02-.05v-.03s0-.03,0-.03v-.04ZM12.68,13.86l.07.03.12-.13-.02-.03-.09-.04h-.08s-.02.02-.02.02h-.02s0,.03,0,.03v.08s.05.05.05.05ZM31.66,11.44h.07s.06-.05.06-.05l-.02-.1.02-.06h.04l.02.08-.03.12v.05s.05,0,.05,0l.05-.07.12-.37-.13-.06-.17.06-.15.13-.06.16.06.06.07.04ZM32.21,10.81l.06-.11.19-.18.07-.1-.06.06-.28.14-.02.05v.02s.02.13.02.13h.02ZM19.98,7.37l-.08.06-.03.12.04.1.05.05h.09s.12-.07.12-.07l.1-.15.03-.18v-.08s-.28.11-.28.11l-.03.02h-.03ZM14.43,13.27l.19-.08h.02s0-.04,0-.04h-.48s-.23.03-.23.03l-.19.11.17.05.51-.07ZM17.95,13.22l.02.02h.04s.02,0,.02,0l.07-.07.04-.02h.06l-.09-.06h-.09s-.08.02-.08.02l-.05.09v.05l.04-.03h.03ZM16.86,12.72h.07s.18.04.18.04h.04s.04,0,.04,0l-.11-.07-.06-.02h-.07s-.09,0-.09,0l-.08.03-.02.04.08.06v-.09ZM13.39,13.38l-.57.07-.15.08.89-.1-.16-.05ZM14.96,13.19h.03s.01-.02.01-.02v-.03s-.04-.04-.04-.04l-.08-.02h-.08s-.07.06-.07.06h.06s.17.05.17.05ZM15.21,13.15h.12s.01-.13.01-.13l.14-.03h.3s.01,0,.01,0h.01s0,0,0,0v-.03s-.09-.05-.09-.05h-.37s-.13,0-.13,0l-.05.03-.02.08v.09s.05.03.05.03ZM16.03,12.93l.04-.03.04-.05.1.07h.12s.12-.06.12-.06l.09-.06h.06v-.05l-.36-.02-.18.04-.11.13.03.03h.04ZM18.86,6.14h.01s.01,0,.01,0h0s0-.04,0-.04l-.09.03-.08.08-.12.23.08.11.08.14.1.09.14-.05.06-.05-.08-.05-.21-.39.04-.06.05-.05ZM20.79,7.77l.05.08.09.03h.18s.1-.06.1-.06l.06-.08.05-.09.08-.07v-.04s0-.03,0-.03v-.02s.03,0,.03,0l-.18-.05h-.16s-.15.08-.15.08l-.13.13.03.03.02.04v.04s-.05.03-.05.03ZM38.99,7.02h0s0,.01,0,.01h0ZM38.62,7.71v-.07s.02-.07.02-.07l.02-.06.06-.05.03-.04.04-.15v-.14s.03-.12.03-.12l.1-.08v.15h.03v-.1h.02s.01.02.01.02h0s0-.07,0-.07l-.03-.04h-.05s-.06,0-.06,0l-.07.02-.03.05-.03.18-.13.47v.17s-.01.1-.01.1h.03v-.15ZM41.49,10.13l.05.08.17.18.04.11-.02.19-.11.23-.03.14.08.03.06-.06.06-.08.13-.06.04-.03h.03s.02.1.02.1v.05s-.05.04-.05.04l-.03.06v.09s.14-.06.14-.06l.03-.02v-.05s.04-.05.04-.05l.04-.04.04-.02v-.05l-.04-.09.04-.05.08-.02.08.02.07.05.06.08.05.1.03.11.1-.04.06.12v.19s-.05.17-.05.17l.03.09-.14-.04v-.04s.02-.03.02-.03l.02-.02.02-.02h-.17s-.05.03-.05.03l-.07.12v-.11s.04-.14.04-.14v-.04s.02-.05.02-.05l-.07-.03h-.21s-.01.17-.01.17l.16.29-.03.21-.04.04-.15.08-.13.03-.09.07-.05.02.08.1.15.05h.27s.24-.07.24-.07l.12-.07.1-.11.07.05h.09s.47-.04.47-.04l-.03-.11-.07-.09h.04s.03-.04.03-.04l.07-.19-.07-.05-.74-.81-.13-.08-.16-.06-.28-.16-.11-.11-.05-.09-.08-.23-.04-.07-.08-.03-.08.03-.07.07-.04.08ZM11.84,14.22l.08.04h.03s.06-.04.06-.04h.04s.04,0,.04,0l.05.06.04.02-.03-.07-.03-.04-.04-.03-.05-.02v-.04l.08-.02.15-.06h.09s-.06-.12-.06-.12h-.16s-.32.11-.32.11l-.05.04.02.08.06.08ZM19.41,6.28l.11-.04.04.03.06.03h.07s.06-.01.06-.01l.03-.05.05-.14.03-.06v-.05l-.07-.13-.09-.06h-.23s-.14,0-.14,0l-.11.04-.09.09-.08.15.25.15.14.04ZM18.57,5.89l.03-.02.02-.1v-.13s0-.4,0-.4v-.03s.02-.14.02-.14v-.05s.03-.02.03-.02l.13-.09h.03s.04-.01.04-.01l.04.02.04.06h.03s.29.01.29.01l.06-.02.11-.09.07-.04.52.03.1-.08-.91.05-.2-.05-.14-.14.02-.26-.04-.14.04-.15.08-.12.17-.1.04-.1-.03-.09h-.12s.03-.05.03-.05h.26s-.2-.12-.2-.12l-.18.22-.32.89-.04.16-.05.79v.19s.03.1.03.1ZM30.04,7.93h.02s.02.03.02.03v.05h.04l.03-.04h.05s.11-.01.11-.01l.06.02.02.06v.15s.04.06.04.06l.11.02h.17s-.02-.02-.02-.02l-.02-.03.08-.04.53.09-.24-.47-.07-.12-.03-.04-.11-.09-.36-.15-.2.03-.16.16-.12.29v.1s.06-.03.06-.03ZM39.58,7.5l-.02-.05-.02-.09-.05-.04-.05-.02-.02-.04-.07-.02-.32.05-.1.05h.04l.03.02.02.04v.06s.01.06.01.06l.02.02h.02s0,.03,0,.03l.03.03h.07s.12-.06.12-.06v.05s0,.02,0,.02h-.01s-.01.03-.01.03l.03.06.05.03.12.05-.03.03h-.03s0,.02,0,.02v.05l-.09.02-.13.07-.11.03-.03.04-.07.15.19-.05.04.02.03.04.03.03h.06v.05l-.02.07.02.07.05.05h.07s-.13.09-.13.09h-.06s-.05-.03-.05-.03l-.03.05-.13-.09-.11.05-.08.13-.06.15.26.2v.04l-.06-.03-.06.02-.03.05.03.06h.04s.13-.07.13-.07l.06.02-.02.09.05.06.07.04h.06s.03.03.03.03l.04.04.04.03.04-.02.03-.03h.04s.08,0,.08,0v-.03s-.03-.02-.03-.02l.03-.04.03-.03.06-.04-.04.11-.02.08-.03.04.15.1.13.05.12.02.07-.03v-.08s-.02-.16-.02-.16h-.03s-.2.02-.2.02h0s.01,0,.01,0h0s0,.05,0,.05l-.06.05.02-.19.09-.05.1-.02.05-.11.05-.07.22-.2.07-.05.42-.05.05.03.03.05.04.02.06-.07.04-.03h.06s.11,0,.11,0v.05l-.08.03-.23.16.08-.06.1-.03.22-.02-.04.08-.06.05-.15.07v.05l.05.02h.07l.06-.02.04-.05h.03l.02.08-.02.05-.04.02h-.05l.09.03h.04s.01-.04.01-.04v-.11l.02-.12.04-.09.05-.07.06-.04-.1-.04-.07-.09-.11-.2-.09-.06-.2-.05-.09-.05-.04-.06-.05-.11-.04-.13-.02-.12.04-.11.09-.09.19-.12.11-.17-.03-.19-.12-.14-.19-.04-.54.1-.18-.06-.07-.06-.06-.08-.03-.1v-.13s.02-.1.02-.1l.08-.07.09-.05.06-.05v-.04l-.11-.06h-.12s-.57.17-.57.17l-.05.04-.05.05-.02.05v.08s.02,0,.02,0l.06-.04.19-.05v.03s0,.07,0,.07l-.02.07v.03s-.07.05-.07.05l-.05.12-.03.13v.09s.1.03.1.03l.08-.06.07-.08.1-.06.07-.09.03-.03.06-.05v.03s.06.07.06.07l.03.05v.05s.04.03.04.03l.06.02.04.02.03.05.02.05.02.02h.14s.04,0,.04,0l.03-.03.03-.04.03-.03h.05s0,.04,0,.04h-.03s-.02.02-.02.02v.02s-.04.02-.04.02v.05l.03.04.02.05.03.1v.05l-.03.02-.02.03-.04.1.03.05h-.22s-.1-.03-.1-.03l-.08-.12.03-.11-.05-.1-.08-.09-.05-.1-.06.05v.05h.04s.04.04.04.04h.04s-.03.09-.03.09l-.04.05-.05.02h-.06s.04-.11.04-.11l.02-.03-.02-.03-.02-.02h-.02s-.03,0-.03,0l.04-.04.03-.06.05-.15-.07.03-.08.06-.08.08-.06.08.03.11-.02.08-.03.03ZM46.78,30.23l-.02-.02.02-.19-.06-.13-.1-.11-.08-.14v-.05s-.03-.12-.03-.12h0s-.04-.47-.04-.47l.04-.08-.04-.09-.08-.08-.06-.05-.09-.05-.2-.06-.1-.05h0s-.09-.06-.09-.06l-.27-.09-.09-.1-.02-.12.03-.13.08-.13.05-.13v-.18s-.05-.17-.05-.17l-.05-.12-.2-.17-.09-.11-.04-.17-.02-.18-.06-.08-.08-.05-.07-.11v-.14s.04-.12.04-.12l.24-.24.08-.1.06-.12.04-.13.02-.41.02-.07.09-.16.02-.06v-.06s.02-.06.02-.06l.03-.06.08-.1-.27-.21-.04-.1.03-.18.05-.12.02-.1-.06-.09v-.04l.08-.11v-.14s-.06-.12-.06-.12l-.12-.05-.12-.03-.14-.07-.09-.1.03-.13-.09-.2-.1-.3-.02-.27.22-.19.1-.16.07-.16-.02-.07-.08-.07.03-.16.12-.25-.13-.11-.27-.3-.25-.1-.12-.16-.08-.04-.04-.04-.14-.28-.07-.08-.44-.33-.11-.06-.14-.16-.08-.04h-.09s-.09-.03-.09-.03l-.07-.06-.05-.1.11-.1.04-.08.02-.13v-.09s-.06-.24-.06-.24l-.03-.07v-.04l.2-.15.26-.13.25-.2.13-.13.06-.13v-.06s.14-.39.14-.39v-.1s-.03-.1-.03-.1l-.02-.11v-.09s.04-.08.04-.08l.04-.06.04-.02.03-.05.11-.22-.06-.05-.02-.04-.06-.05-.03-.04v-.07s-.02-.13-.02-.13v-.06s-.12-.54-.12-.54l-.04-.36-.09-.15-.04-.15-.1-.16-.03-.15v-.16s0-.26,0-.26v-.07s-.09-.27-.09-.27l-.06-.14.02-.11v-.2s-.04,0-.04,0h-.07s-.06-.03-.06-.03l-.05-.03.19-.14h0s.03-.06.03-.06v-.11s-.03-.02-.03-.02l-.04-.04h-.07s-.03,0-.03,0l-.05.1-.12.04-.34-.03-.05-.02-.1-.06h-.03s-.1,0-.1,0l-.02-.02-.07-.09-.14-.03-.31-.26h-.05s-.07-.05-.07-.05l-.06-.09-.03-.08-.04-.03-.08-.02-.08-.04-.04-.09.04-.09.3-.25.05-.07.03-.08v-.07s-.06-.03-.06-.03h-.02s-.03-.01-.03-.01h-.03s-.02-.03-.02-.03h-.02s-.06,0-.06,0h-.02s0-.04,0-.04v-.03s0-.03,0-.03v-.03s-.03-.05-.03-.05l-.02-.05-.03-.02-.12-.05-.03-.02-.04-.07-.12-.16-.05-.04.11-.07.05-.12.03-.14.06-.11v-.05l-.33-.28-.13-.07v-.04h.04s.03-.03.03-.03v-.03s-.01-.04-.01-.04l-.12.04-.21.15-.12.06-.52.1v.05l.04.03.05.08.04.03v.05h-.1s-.08-.05-.08-.05l-.06-.09-.05-.1-.06-.16-.02-.04h-.04s-.03.01-.03.01l-.03.02-.05-.03.03-.03.02-.03.03-.08-.08-.03-.16.08h-.11s.05-.05.05-.05l.06-.05-.11-.1-.14-.28-.11-.06-.15-.04-.22-.12h-.14s.05-.02.05-.02h.03s.04-.01.04-.01v-.05h-.19l-.05-.03v-.06s-.01-.08-.01-.08v-.08s-.13-.19-.13-.19l-.02-.11.08-.14-.05-.05-.18-.09-.05-.07-.03-.09v-.09s.06-.05.06-.05l-.11-.03-.17.06-.17.11-.11.11-.04.07-.04.12-.04.06-.05.04h-.04s-.08,0-.08,0h-.04s-.01.02-.01.02h-.02s-.07-.1-.07-.1l-.03-.05-.02-.05v-.06s-.05.05-.05.05l-.04.03h-.05s-.05-.04-.05-.04l-.05.05-.05-.02-.04-.06-.04-.07v.06s-.03.05-.03.05l-.05.09v-.09s.04-.08.04-.08l.04-.06.06-.02v-.05h-.05s-.05,0-.05,0l-.05.02-.04.03v.03s.02.05.02.05v.02s-.22.13-.22.13l-.13.03-.08-.07v.05l-.03-.03h-.03s-.08.03-.08.03v.05h.03s.06.05.06.05l-.27.13-.07.06v.03s-.01.09-.01.09v.04s-.03.01-.03.01l-.05.02-.03.02-.11.1-.04.06-.03.08.09.08.05.02h.06s-.09.05-.09.05l-.1-.03-.18-.13.05-.06v-.06s-.04-.08-.04-.08l-.03-.1.07-.02.05-.06.02-.08-.03-.09.03-.05.03.03h.02s.06.02.06.02l-.02-.11.03-.11.06-.08.07-.03h.15s.08.06.08.06l.07.09.04-.08.08-.05h.09s.08.04.08.04v-.03s0,0,0,0h.03s-.03,0-.03,0h-.03s-.02-.04-.02-.04v-.06s.02,0,.02,0l.04-.03h.02s.03.04.03.04l.03-.1.04-.02.11.02h.09l.02-.02.04-.07h.03s.11,0,.11,0l.18.07.45.04.11-.02.1-.1-.05-.08-.12-.03-.1.05-.16-.08h-.95l-.18-.07-.09-.14h.03v-.05l-.09.04-.05.06-.07.19-.17.3-.03.07-.25.37-.15.29-.06.07-.16.13-.32.17-.05.02-.06.04-.1.17-.08.08-.14.19-.03.07.04-.03.04-.02h.05s.05,0,.05,0l-.04.1-.12.07-.04.08.02.07.02.19.04.09-.1-.11v-.17s0-.2,0-.2l-.02-.2-.16.1-1,.22-.35-.06-.16.02-.13.09-.1.19-.02.02-.02.03v.04s-.01.04-.01.04l.03.02v.04s-.02.05-.02.05l-.02.05-.03.03h-.03s-.06.05-.06.05l-.08.19-.08.06h-.04s-.11-.04-.11-.04v.04h.03v.05l-.14.15v.03s.02.08.02.08v.03s-.03,0-.03,0l-.04.03-.03.05.02.11-.03.14-.04.11v.07h-.05l-.03-.02-.16-.2v-.02h-.18l-.03-.02-.04-.1-.03-.02-.17.15h-.03s-.13,0-.13,0l-.05-.03v-.07s0-.16,0-.16l-.02-.04-.15-.04-.03-.05-.03-.1-.03-.04h-.04s-.51.05-.51.05l-.22.12-.08.02-.07.03-.12.13-.05.04h-.02s-.06,0-.06,0l-.06-.02-.02-.06v-.08s-.03-.07-.03-.07l-.04-.02-.16.02-.12-.03-.08-.07-.06-.1-.06-.14v-.05l.04-.05.16-.25.02-.02.03-.02h.04s.03.04.03.04l.03.02.04-.03h.03s.17-.06.17-.06l.07-.05.17-.22.49-.32.02-.06.04-.05.04-.06.02-.12-.03-.21v-.12s.03-.09.03-.09l-.03-.14-.04-.29-.05-.12.06.03.02.02.04-.07.16-.17-.13-.05-.29.18-.1-.07-.07.02-.07-.03h.1s.08,0,.08,0v-.05l-.35.05-.14.06-.14.09-.24.22-.14.09-.19.04-.17-.04-.37-.35-.66-.29-.25-.2-.09-.05-.18-.02-.05.02-.04.04-.02.04-.03.04-.06.03-.16.02-.04.03-.03.06-.06.24-.1.22-.07.09-.09.03.04-.07.02-.07v-.06s-.06-.05-.06-.05l.03-.05v-.02s-.01-.01-.01-.01v-.02s.06-.02.06-.02l.08-.06.06-.09.02-.1-.02-.11-.03-.09v-.08s.08-.08.08-.08l-.25-.22-.08-.03-1.01.24-.18-.09v-.05l.18-.02.18-.06.17-.09.13-.12.05-.08.04-.08.03-.1.02-.13.03-.3v-.14s-.03-.1-.03-.1l.03-.1-.02-.04h-.05s-.04.04-.04.04l-.06-.08h-.11s-.11.04-.11.04h-.06s0-.07,0-.07v-.02s.03,0,.03,0l.03-.02h.01s.1-.08.1-.08v-.02s.04.01.04.01l.05.02h.06s.05-.03.05-.03l-.08-.09-.04-.06-.03-.06-.06-.25-.1-.12-.14-.08h-.1s.02.16.02.16l-.19.07-.11.02-.05-.07-.04-.13-.1-.07-.11-.05-.07-.06-.17-.08h-.26s-.2-.09-.2-.09v-.26s-.07.04-.07.04l-.05.1-.1.04-.08.1-.25.13h-.06s-.06.02-.06.02h-.07s-.08-.09-.08-.09l-.08.02-.05.04-.06.02-.04.04h-.06s-.31.01-.31.01l-.07-.03-.03-.09v-.1s-.03-.07-.03-.07l-.07-.06-.89-.21-.33-.14-.33-.06-.1.02-.29.11h-.15s-.14-.05-.14-.05l-.06.21-.02.17.02.19.06.13.08.15.06.15-.02.13v.05l.14.07.23.2.12.08.05.1.15.39-.14.1.03.05.05-.03.09-.03h.09s.04.03.04.03l.02.08.05.08.34.37.1.17v.17l-.03.12-.07.05-.16.08-.18.16-.09.06-.11.03h-.46l-.34.09-.09-.04-.04.06-.04.07v.08s.02.08.02.08l.07-.09.06.02.06.05.08.02v.05h-.1s-.13.02-.13.02l-.11.05-.06.07v.19s.1.16.1.16l.12.11.11.04h.05s.14-.15.14-.15l.06-.03.15.03.13-.02.22-.07.13-.02v.02s-.02.05-.02.05v.02s.08-.04.08-.04l.16-.14.09-.02-.04.11-.07.11-.07.09-.04.04h-.07s-.18.06-.18.06l-.05.04v.05l.03.11-.04.11-.06.12-.03.14v.03s.09.16.09.16l.11.2h.03l.07-.09.14-.07.15-.03.1.03v.12s.05.07.05.07l.08.07.05.07v.11l-.02.15-.03.14-.03.08-.09.04-.09-.03-.16-.11-.1-.03h-.08s-.16.08-.16.08l.35.7.14.17.15.11.1.03.04-.07.05-.03.11.03.16.07h.53s.16.05.16.05l.16.1.27.23.15.06v.14s.07.23.07.23l.1.21.1.09.06.02.2.11.04.04.02.12v.19s.06.22.06.22l.14.16.3.2.15.06.38.04.16.09.05.09-.06.02-.51-.11-.25-.17-.05-.03h-.1s-.08-.05-.08-.05l-.06-.06-.29-.42-.06-.21-.06-.07-.12-.1-.17-.2-.41-.72-.09-.12-.04-.02h-.14s-.07,0-.07,0l-.06-.04-.07.05h-.33s-.33.08-.33.08l-.08.09h-.17s-.3.06-.3.06h-.18s-.33-.08-.33-.08l-.16-.08-.15-.13-.1-.12-.05-.02h-.09s-.09.01-.09.01l-.09.06-.08.08-.06.09-.07.19-.11.43-.16.39-.03.1v.12s0,.12,0,.12l.06.16.03.13.04.11.04.1.03.04.11.28.02.03-.04.2-.09.09-.09.07-.06.15v.21s.04.44.04.44v.17s-.07-.13-.07-.13l-.03-.17v-.39s.02-.2.02-.2l.07-.15.09-.11.1-.09v-.05l-.16-.08-.36-.07-.17-.09-.05-.07-.05-.1-.06-.09-.08-.04h-.17s-.07.04-.07.04l-.05.06-.04.1-.03.24-.04.11v.1s.08.01.08.01l.16-.04.12.14-.02.24-.09.24-.09.15-.05.05-.04.03h-.05s-.07.01-.07.01l-.06-.03-.04-.06-.03-.07-.03-.03-.03-.02-.08-.09-.05-.03h-.07s-.05.02-.05.02l-.05.03-.06-.06-.04-.09-.08-.23.07-.05h.16s.08-.05.08-.05l.09-.07.04-.06v-.13s-.03-.07-.03-.07l-.09-.03-.07-.03.04-.09v-.04l-.14-.1-.17-.22-.12-.26.03-.2v-.05l-.34-.1-1.26.18-.62.13-.1-.02-.04-.06-.05-.03-.64.07-.33.13-.16.16-.08.06-.15.17-.14.09-.06.08v.09s.06.06.06.06l.12.06.04.05v.09s-.02.07-.02.07l-.04.02-.02.06-.17-.04h-.08s-.03.06-.03.06l-.02.11-.08.21-.02.12v.52s.06.19.06.19l.15.08.95.03.17.06.1.15-.08-.03-.14-.09-.09-.02h-.1s-.06.03-.06.03l-.11.16.03.08v.08s-.05.07-.05.07l-.04.05-.05.05-.04.02v.2s.01.11.01.11v.11s-.04.12-.04.12l-.06.15v.06s0,.08,0,.08l.02.04.02.04.02.06.04.5v.25s-.04.22-.04.22l-.09.23-.34.54-.08.21-.04.23-.04.75-.03.24-.08.15-.15-.05-.06-.03-.21.03-.22-.07h-.4s-.14.05-.14.05l-.15.11.04.07v.06s-.03.06-.03.06v.06s.03.04.03.04l.14.12-.23.12h-.07s.05.11.05.11l.02.12v.12s.03.1.03.1l.08.1.11.05.33.05.22.08.12.02h.11s.1-.04.1-.04l.04-.04.03-.05h.03s.26.4.26.4l.06.18-.04.25-.08.2-.03.1v.12s.04.15.04.15l.04.06v.04s-.2.11-.2.11l-.05.05-.1.16-.08.07-.18.08-.08.09-.09.19-.05.05-.27.03-.07.04-.07.07-.02.04-.03.09-.03.04-.05.03h-.04s-.04.02-.04.02l-.03.07v.1s.07.05.07.05l.09.03.27.15.11.12.02.03v.05s0,.08,0,.08l-.02.02h-.03s-.03.04-.03.04l-.1.17-.1.12-.11.06h-.37s-.42.15-.42.15l-.21.16-.07.03h-.08l-.27-.08.03.15-.02.07-.16.04v-.11s-.08-.04-.08-.04l-.16-.03-.02-.02-.05-.08-.03-.03h-.04s-.13.02-.13.02l-.14-.06-.14-.11-.14-.06-.14.08.05.04.16.16.06.09-.07-.02-.1-.03-.14-.04-.17.05-.06.03-.09.06-.08.03-.17.03-.07.05v.06s.08.07.08.07l.06.13v.14s-.1.09-.1.09v.07s.04.02.04.02h.12s.05.02.05.02l.09.07.04.04-.06.19.1.12.28.12-.05.15-.02.1.02.08.28.38.17.2.03.22.02.12-.02.13-.03.14v.12s.06.08.06.08l-.02.06v.15s-.04.08-.04.08l-.04.06-.11.07-.04.04-.21.4-.09.11-.04.07-.04.13v.15s.02.12.02.12l.1.05.21-.14.1.03-.03.02-.1.08.09.08-.06.08-.24.13-.39.3-.06.06-.08.17-.05.06h-.08s-.06-.04-.06-.04l-.05-.06-.06-.03-.12.06.02.16.06.19v.17s.06-.01.06-.01l.11-.05.06-.02h.06s.11.04.11.04l.15-.02v.03s-.02.05-.02.05l-.02.06v.1s.02.05.02.05l.03.03.1.06.14.05v.03s-.03.04-.03.04v.04s.03.14.03.14v.05s-.03.07-.03.07l-.05.06h-.09s-.06.03-.06.03l-.04.07v.06s.01.06.01.06l-.02.08-.06.06-.06-.02.02.08.03.05.04.03.03.04v.09s0,0,0,0h0s0,.01,0,.01h0v.02h0s0,.01,0,.01l.05.02h.02s0,.06,0,.06h0s-.02.08-.02.08v.04s.02.02.02.02h.06s.17-.04.17-.04h.07s.08.09.08.09l.05.07.21.32h0s-.06.04-.06.04l.05.1.09.05h.29s.01.05.01.05l-.02.04h0s-.05.07-.05.07v.02l-.09.06-.08.07-.05.04-.08.12h0s.07.09.07.09l-.03.05v.03s0,0,0,0h.03s.05.02.05.02h0l-.03.06.02.02h0s0,0,0,0v.02s.04.05.04.05l.02.02h.01s.01.01.01.01h.03s.12-.04.12-.04h.02s0-.01,0-.01h0s0,0,0,0h0s.01.01.01.01l.06.03.18.04h.08s-.05.05-.05.05h0s0,.05,0,.05h0s0,.06,0,.06l.02.07v.02s.04.04.04.04h.02s0,0,0,0h0s0,.02,0,.02h0s0,.02,0,.02v.09s-.03.15-.03.15h0s-.03.09-.03.09v.08s.15.25.15.25v.09s0,0,0,0l-.03.04-.02.02h0s-.11.02-.11.02h-.06s-.03-.02-.03-.02h-.02s-.05-.01-.05-.01h-.02s-.03.03-.03.03l-.03.03v.02s-.04.06-.04.06v.07s.01.06.01.06h0l-.08.07-.11.03-.07.02-.09.04-.03.04v.02s-.08.05-.08.05l-.02.02-.04.05h0s.06.06.06.06v.02s.02.06.02.06v.07s-.03.06-.03.06h0s-.02.02-.02.02h-.08s0,.01,0,.01l-.03.02h0s0,.02,0,.02v.04s-.01.03-.01.03v.03s.03.03.03.03l.02.04h0s0,.01,0,.01v.03s-.05.04-.05.04l-.03.09-.02.09-.03.18h0s.03,0,.03,0h0s-.01.02-.01.02l-.04.08.05.03.03.05.03.14v.07s0,.05,0,.05l.07.11.06.18.03.06.05-.09.07.12.14.33.07.07.14.06.06.04.02.04.04.11v.02s.04,0,.04,0l.06-.04h.04s.07.05.07.05l.12.11.07.05.07.02h.2l.13.04h.02s.02.02.02.02h0s0,.06,0,.06h0s-.02.14-.02.14v.05s.01.03.01.03v.03s-.04.04-.04.04v.06s0,.05,0,.05l.02.05.03.04h-.04s-.02,0-.02,0v.03s.01.03.01.03h0s-.31.21-.31.21l-.06.09v.02s.03.02.03.02l.03.03v.04s0,.03,0,.03l-.03.05-.04.09-.11.13-.06.1-.02.07v.2l-.04.27v.19s.01.05.01.05h.04s.04,0,.04,0l.08-.05h.03s.05,0,.05,0l.38.19.07.07.03.05v.05s.01.04.01.04h0s.03.05.03.05l.2.22v.04s0,.05,0,.05h-.07s-.02.06-.02.06l.03.07.07.09.28.27v.03s0,.06,0,.06v.03s.03.02.03.02l.06.02.02.02.03.12v.03s.02.01.02.01v.05s.02.02.02.02h.02s.06-.04.06-.04h.02l.03.1-.02.08v.08s.04.09.04.09l.05.02h.19s.16.06.16.06h.05s.07-.11.07-.11v-.11s-.05-.1-.05-.1l.02-.09h.04s.18.03.18.03h.12s.05,0,.05,0l.26.15h.09s0,.23,0,.23l.05.17.09.07.13-.08v-.03s0-.03,0-.03v-.04s.04-.04.04-.04h.02s.16.12.16.12l.07.04.07.02h.36s.11.06.11.06h.03s.02-.02.02-.02l.04-.09.03-.03h.04s.08-.02.08-.02h.03s.02-.05.02-.05l.03-.09.02-.03.07-.04.1-.03h.08s.02.08.02.08h.18s.08.04.08.04l.03.09-.03.02h-.01s0,.04,0,.04l.06.06.09.15.06.07.09.06.18.03.09.05.03.04.04.08.04.03h.06s.05,0,.05,0l.05-.02h.05s.05,0,.05,0l.09.03h.04s.05,0,.05,0l.1-.05h.05s.35.09.35.09l.24-.03h.08s.66.36.66.36l.41.09.05.05-.09.1-.13.25-.19.52-.05.09-.03.02-.15.08h-.04s0,.02,0,.02l-.02.02-.02.03v.06s-.02.03-.02.03l-.02.02h-.03s-.12.01-.12.01l-.05.02-.02.06v.12s-.02.05-.02.05l-.04.06-.06.05-.05.03-.11.14-.06.06-.07.02-.05.04-.18.27-.04.21v.22l.05.13v.04l-.1.08-.05.05-.02.06v.12s-.03.06-.03.06l-.03.04-.03.06-.02.07-.03.17v.08s0,.08,0,.08l.03.08.02.08v.09s-.06.09-.06.09l-.08.04-.07.06-.03.13v.13s-.04.11-.04.11l-.04.09-.26.37-.03.08v.09s-.03.05-.03.05l-.03.04-.03.06-.03.1-.03.12v.26s.19.32.19.32v.19s-.03.07-.03.07l-.11.12-.02.08v.1s0,.03,0,.03l-.03.06-.02.03-.03.03v.03s-.02.03-.02.03v.02s0,.01,0,.01v.03s.02.12.02.12v.07s-.07.03-.07.03l-.02.03-.06.2v.09s.04.22.04.22v.1s-.03.04-.03.04l-.07.07-.02.04v.13s.03.07.03.07l.02.03.06.03.06.08.09.19.03.03.03.02.02.03v.06s0,.02,0,.02l-.02.06.21-.06h.1s-.05.15-.05.15l-.05.04h-.11s.22.11.22.11h.09s.35-.06.35-.06l.08-.04.07-.08.08-.12.06.03.27.02.03.03v.06s.02.06.02.06v.03h.56l.19-.04.04-.03.02-.03.02-.03.04-.04.03-.03.09-.05.08-.02.03-.03.02-.03h.02s.23-.05.23-.05h.08s.11.03.11.03h.05s.02.03.02.03l.02.06.03.06.04.03.16.04h.27s.13-.02.13-.02v-.03s.05-.11.05-.11l.13-.08h.13s.06.05.06.05l.05.08.05.06.06-.02.03-.05v-.05s0-.04,0-.04v-.04s0-.02,0-.02v-.02s-.02-.03-.02-.03v-.03s.03-.01.03-.01h.02s.02,0,.02,0h0s0,.05,0,.05h.03s.02-.13.02-.13h-.04s-.07-.03-.07-.03h-.06s-.2.03-.2.03l-.06.03-.06.04-.06.03h-.07s-.09-.05-.09-.05l-.11-.08h-.02s-.07-.03-.07-.03l.03-.07v-.05s-.03-.05-.03-.05v-.05s.05-.05.05-.05l.11-.06.05-.04.03-.13.02-.05.06-.08.03-.02h.05s.23-.04.23-.04l.06-.03-.04-.1.07-.04h.1s.08.04.08.04v.05s.01.08.01.08v.08s.06.03.06.03l.05-.03.02-.14.04-.04.05.02.04.06.03.07.03.05h.04s.05,0,.05,0h.04s.03.07.03.07v.02s-.07.08-.07.08v.04s0,.05,0,.05l.03.04v.05s.02.04.02.04h.22s-.03-.04-.03-.04l.04-.12h.11s.14.08.14.08l.11.1-.08.02v.04l.06.06.12.09.1.03h.16s.15-.06.15-.06l.07-.07.08-.03.47.05h.23l.06.09h.16l.16.04,1.16.72.26.07h.27s.11-.06.11-.06l.06-.1.05-.11.09-.11.06-.03h.06s.06.01.06.01l.05.05v.07s0,.08,0,.08l.02.07.09.04h.03s.05-.04.05-.04h.02s.13.04.13.04h.12s.06,0,.06,0l.05-.04v.1s.05.06.05.06l.05.05.04.08v.04s0,.04,0,.04l.05.03.04-.02.04-.03.05-.02.21.3.04.07-.02.06-.1.07.05.05v.06s.02.07.02.07l.02.06.04.04h.03s.03-.02.03-.02l.06-.03h.02s.04.03.04.03h.04s.05-.07.05-.07l.18-.03.08.04v.11s-.08.23-.08.23v.04s.01.04.01.04v.04s-.03.02-.03.02l-.06.02h-.02s-.04.08-.04.08l-.02.04h.02s.33-.03.33-.03l.09-.04.19-.11.08-.07.07-.1.09-.19.03-.04.04-.03.09-.03.04-.02.07-.09.06-.13.04-.14v-.13l-.02-.08-.02-.05-.04-.04-.06-.03.04-.25v-.06s-.02-.07-.02-.07l-.04-.07v-.05s.06-.02.06-.02h.07s.03-.03.03-.03h.01s.02.07.02.07v.02s-.03.03-.03.03l-.02.04v.05s.03.03.03.03l.03.02.07.03.18.03h.05s.05-.05.05-.05l.08-.12.06-.04h.1s.55.21.55.21l.02.02v.03s.04.03.04.03h.04s.12,0,.12,0l.17-.08.06-.02h.06s.04.03.04.03l.1.07-.04.04-.14.09.03.05.22.1.21.22v.03s.01.04.01.04v.04s-.02.03-.02.03h-.01s.04.08.04.08l.06.03h.44s.08-.02.08-.02l.27-.19.11-.03.09.04v.17s.09.01.09.01l.09-.04.06-.06.06-.07.08-.07.08-.03h.18s.07-.03.07-.03l.04-.06-.02-.05-.05-.03h-.05s.2-.24.2-.24l.1-.02.1.02.1.03.2-.03.09-.03.08-.08.02-.06.03-.14.03-.07.12-.1.02-.02h.08s.18.04.18.04h.34s.24.05.24.05h.04s.04-.12.04-.12l.05-.03.35-.07.96.04h.03s.12-.16.12-.16l.02-.04v-.06s0-.17,0-.17v-.03s-.03-.02-.03-.02l-.03-.03-.03-.04v-.03s-.02-.05-.02-.05l.07-.03.1-.08.04-.02.06-.03h0s-.01.03-.01.03v.07s-.03.05-.03.05l-.03.04v.04s0,.07,0,.07l.04.04h.04s.09-.06.09-.06h.09s.24.04.24.04h.07s.16-.07.16-.07h.07s.02.05.02.05l.04.13.02.05.03.04.13.1.06.03h.09s.09-.01.09-.01l.06-.03.19-.17.08-.04.15-.04h.15l.24.06h.07s-.04.1-.04.1l.07.08.11.07.08.08-.11.06-.05.14.02.15.1.08h.06s.04.03.04.03l.04.03.19.21.21.15.05.02h.04s.04-.03.04-.03h.04s.04.02.04.02l.02.02.03.02h.05s.03-.03.03-.03l.12-.14v-.05s-.01-.04-.01-.04v-.03s-.02-.03-.02-.03v-.04s0-.11,0-.11v-.02s.05-.1.05-.1h0s0,0,0,0v-.14s0,0,0,0l.07-.09v-.02s.05-.12.05-.12h.01s0-.09,0-.09v-.08s0-.08,0-.08l-.03-.09-.08-.14-.05-.06-.05-.04h-.06s-.11.04-.11.04h-.06s-.23-.03-.23-.03l-.07-.07.08-.12h0s.03-.05.03-.05v-.04s0-.04,0-.04v-.04s.03-.05.03-.05l.27-.43-.02-.02-.09-.13-.14-.33-.07-.07-.03-.02-.08-.09-.1-.06-.03-.05-.02-.07v-.08s-.08-.14-.08-.14l-.29-.31-.04-.06-.04-.07-.02-.08v-.08s.03-.05.03-.05h.03s.03,0,.03,0h.03s.06-.11.06-.11l.02-.02.17-.12.05-.06.08-.12.04-.04.06-.03.23-.05v-.02s.06-.05.06-.05l.13-.08.16-.15.07-.05.43-.17.58-.1.14-.08.41-.36.06-.1.02-.13v-.03s.03-.03.03-.03l.02-.04v-.07s0-.18,0-.18v-.06s.03-.06.03-.06l.06-.12v-.06s0-.06,0-.06l-.04-.06-.02-.11v-.03s-.01-.02-.01-.02l.02-.04.04-.03.14-.05.14-.02.44.12.07.04.07.05.06.1.17.08h0s.04-.16.04-.16l.04-.07h.01s.09-.01.09-.01l.03-.02.04-.03.02-.03.07-.16.03-.08v-.09s.02-.11.02-.11l-.02-.2v-.08s.07-.05.07-.05l-.05-.03-.02-.02-.04-.09h-.02s0-.05,0-.05l.12-.26-.08-.08-.2-.4-.1-.15-.06-.03-.16-.02-.08-.04-.07-.07-.07-.1-.04-.11v-.12s-.09,0-.09,0l-.07-.04-.07-.06-.08-.04-.1-.02-.06.03-.04.07-.04.11-.1-.05-.13-.09-.12-.11-.06-.1v-.18s-.05-.11-.05-.11l-.18-.18-.13-.17-.05-.04-.08-.03h-.25s-.12-.08-.12-.08l-.07-.11-.06-.13-.39-.53-.05-.03h0s-.13-.16-.13-.16l-.02-.06v-.06s-.03-.05-.03-.05l-.07-.03-.12-.13-.06-.05-.07-.04-.16-.04-.06.02.02.08h-.08s-.25-.03-.25-.03l-.08-.03-.07-.07-.14-.31-.09-.09-.19-.09-.08-.07-.05-.09-.02-.1v-.21s-.02-.11-.02-.11l-.03-.03h-.04s-.05,0-.05,0l-.05-.05-.03-.05-.03-.06-.03-.08-.02-.08-.02-.14-.03-.07-.04-.05-.1-.06-.04-.05v-.02s.02-.05.02-.05l-.03-.02h-.01s.04-.09.04-.09v-.09s-.04-.07-.04-.07l-.06-.03-.14-.07-.06-.04-.06-.05-.09-.13-.04-.08-.02-.07.05-.1.17-.07.07-.07v-.11s.02-.14.02-.14l.03-.09.08.03.03-.1.1-.18.03-.1v-.13s-.01-.05-.01-.05l-.06-.02-.17-.1v-.07s.03-.09.03-.09v-.09s-.08-.07-.08-.07l-.15-.02-.06-.06h0l-.63-.34v-.04s-.02-.06-.02-.06v-.07s-.05-.06-.05-.06l-.06-.05-.07-.04-.06-.05-.04-.1v-.1s.03-.15.03-.15v-.1s-.04-.08-.04-.08l-.05-.07-.1-.11-.21-.13-.04-.08.05-.08.04-.03.03-.03v-.08s0-.09,0-.09l-.03-.06-.1-.1.31.02.08.06.02.06v.11s.02.05.02.05l.05.04.06.02h.12s.03.02.03.02v.02s.01.03.01.03l-.02.04h0s0,0,0,0h0s0,0,0,0h-.01s0,.03,0,.03v.02s.02.01.02.01l.07.07.02.03.02.04v.04s.01.03.01.03l.05.18.04.07h.07s.06-.03.06-.03v-.06l-.02-.07v-.08s0-.12,0-.12l.02-.06.08-.11v-.1s.05-.05.05-.05l.05-.03.05-.05.13-.24.05-.04.12-.07.05-.04h.02s.04,0,.04,0h.02s0-.03,0-.03v-.03s0-.02,0-.02h0s.01-.04.01-.04v-.03s.02-.03.02-.03l.03-.03.12-.1.17-.05.31-.02.22.04h.05s.05-.05.05-.05l.09-.14.05-.05.07-.03h.07s.07,0,.07,0h.03s.06-.05.06-.05h.04s.04,0,.04,0l.39.24h.14s.12-.11.12-.11l.06-.07.03-.12.03-.27.03-.02h.04s.03,0,.03,0l.03.02h.04s.04.02.04.02h.04s.04-.01.04-.01h0s.12-.04.12-.04h.22s.1-.06.1-.06l.06-.11.14-.37h.08s.07.06.07.06l.07.03.09-.04.04-.13.02-.04.16-.11.03-.03v-.02s.01,0,.01,0l.05.02.02.03.06.1.03.04.09.05.08-.02.07-.06.07-.09.04-.02.02-.03v-.04s-.02-.05-.02-.05l.07-.05.06-.07.02-.09-.05-.1.17-.1.19-.04h.38s.08-.01.08-.01l.16-.06h.09s.19.01.19.01l.08-.02.12-.08h.03s.02-.01.02-.01l.03-.04v-.04s0-.05,0-.05v-.06s.01-.06.01-.06l.04-.05h.04s.04.01.04.01h.05s.04-.04.04-.04l.06-.08.04-.03.08-.02.15.02h.08s.65-.3.65-.3l.05-.05.08-.12.05-.04.15-.03.33.03.12-.1.02-.17-.11-.06-.15-.05-.11-.11v-.07s.04-.02.04-.02h0s-.08-.05-.08-.05l-.14-.02-.05-.03.05-.07.06-.19.1-.1.13-.02.16.05.03.03.02.04.03.04.05.02h.05s.12-.05.12-.05h.15s.05-.02.05-.02l.04-.09.02.06v.04s.02.04.02.04l.04.05.05.04.11.03.05.04.05.06.03.05v.06s0,.1,0,.1l-.03.08-.05.09-.02.08.05.04.23-.1h.05s.02.08.02.08l-.02.09-.07.17-.02.12.02.05.15.04.06.03.16.12.16.03h.09s.07-.01.07-.01l.04-.05.04-.08.07-.18v-.12s.06-.1.06-.1l.15-.17.21-.5.19-.47v-.08s.01-.13.01-.13v-.06s.03-.05.03-.05l.03-.03.03-.04v-.09s.01-.17.01-.17l.03-.19.06-.18.07-.14-.02-.02Z" style="fill:#849bb2; opacity:.24; stroke-width:0px;"/><rect x="92.68" y="8.01" width="39.95" height="41.9" rx="7.46" ry="7.46" style="fill:#e5edf3; stroke-width:0px;"/><ellipse cx="112.66" cy="54.51" rx="20.07" ry="2.2" style="fill:#dce2e7; stroke-width:0px;"/><rect x="96.69" y="4.95" width="31.93" height="49.01" style="fill:#fff; stroke:#8298af; stroke-miterlimit:10; stroke-width:.5px;"/><path d="M120.14,17.12h-15.32c-.43,0-.79-.35-.79-.79s.35-.79.79-.79h15.32c.43,0,.79.35.79.79s-.35.79-.79.79Z" style="fill:#e5edf3; stroke-width:0px;"/><rect x="101.19" y="19.84" width="22.58" height=".76" style="fill:#8298af; stroke-width:0px;"/><rect x="101.19" y="22.5" width="22.58" height=".76" style="fill:#8298af; stroke-width:0px;"/><rect x="101.19" y="25.17" width="22.58" height=".76" style="fill:#8298af; stroke-width:0px;"/><rect x="101.19" y="27.84" width="22.58" height=".76" style="fill:#8298af; stroke-width:0px;"/><rect x="101.19" y="30.51" width="22.58" height=".76" style="fill:#8298af; stroke-width:0px;"/><rect x="101.19" y="33.17" width="22.58" height=".76" style="fill:#8298af; stroke-width:0px;"/><g style="opacity:.21;"><g style="clip-path:url(#g);"><path d="M96.89,32.32l-15.38,23.51c.16.07.33.15.5.22l15.1-23.08c-.08-.22-.15-.43-.23-.65Z" style="fill:#8399b0; stroke-width:0px;"/><path d="M96.33,30.45l-16.11,24.75c.14.07.28.15.42.22l15.86-24.35c-.06-.21-.12-.41-.17-.62Z" style="fill:#8399b0; stroke-width:0px;"/><path d="M95.92,28.53s-.06-.01-.09-.01c0-.03,0-.05,0-.08l-16.95,25.99c.13.08.27.16.41.24l16.72-25.64c-.03-.17-.06-.33-.09-.5Z" style="fill:#8399b0; stroke-width:0px;"/><path d="M93.77,28.67l-16.2,24.9c.13.09.26.18.39.27l16.44-25.25c-.21.03-.42.06-.63.09Z" style="fill:#8399b0; stroke-width:0px;"/><path d="M91.71,29.04l-15.35,23.62c.12.1.25.2.37.29l15.64-24.04c-.22.04-.44.08-.66.13Z" style="fill:#8399b0; stroke-width:0px;"/><path d="M89.79,29.5l-14.51,22.25c.12.1.24.21.36.31l14.84-22.74c-.23.06-.46.12-.69.18Z" style="fill:#8399b0; stroke-width:0px;"/><path d="M87.55,30.17l-13.38,20.53c.11.11.23.23.34.34l13.76-21.11c-.25.08-.49.16-.73.24Z" style="fill:#8399b0; stroke-width:0px;"/><path d="M85.17,31.07l-12.05,18.49c.1.12.21.24.33.37l12.5-19.18c-.26.1-.52.21-.78.32Z" style="fill:#8399b0; stroke-width:0px;"/><path d="M82.86,32.18l-10.63,16.31c.1.13.2.26.31.39l11.17-17.14c-.29.14-.58.28-.85.43Z" style="fill:#8399b0; stroke-width:0px;"/><path d="M79.6,34.25l-8.36,12.84c.08.12.17.27.29.43l9.13-14.01c-.36.24-.71.49-1.05.74Z" style="fill:#8399b0; stroke-width:0px;"/><path d="M71.19,45.66l6.3-9.67c-4.09,3.78-5.74,7.87-6.3,9.67Z" style="fill:#8399b0; stroke-width:0px;"/><path d="M97.53,34.04l-14.64,22.36c.17.06.35.12.52.18l14.37-21.93c-.08-.2-.17-.41-.25-.61Z" style="fill:#8399b0; stroke-width:0px;"/><path d="M98.26,35.77l-13.82,21.15c.18.05.35.1.53.15l13.55-20.73c-.09-.19-.18-.38-.26-.57Z" style="fill:#8399b0; stroke-width:0px;"/><path d="M99.15,37.63l-13.11,19.7c.17.04.33.08.5.11l12.86-19.33c-.08-.16-.17-.32-.25-.49Z" style="fill:#8399b0; stroke-width:0px;"/><path d="M100.1,39.42l-12.21,18.26c.17.03.35.04.53.07l11.95-17.86c-.09-.15-.17-.31-.26-.47Z" style="fill:#8399b0; stroke-width:0px;"/><path d="M101.06,41.08l-11.05,16.81c.18.01.36.02.55.03l10.77-16.39c-.09-.14-.18-.29-.28-.45Z" style="fill:#8399b0; stroke-width:0px;"/><path d="M102.18,42.86l-9.94,15.07c.19,0,.39,0,.58-.02l8.75-13.26c.45-.96.79-1.52.79-1.52,0,0-.07-.1-.18-.27Z" style="fill:#8399b0; stroke-width:0px;"/><path d="M94.83,57.75l4.92-7.45c.09-.45.19-.89.29-1.31l-5.83,8.84c.2-.02.41-.05.62-.07Z" style="fill:#8399b0; stroke-width:0px;"/><path d="M99.43,52.7l-3.21,4.87c.21-.03.43-.08.65-.11l2.52-3.82c0-.31.02-.62.04-.93Z" style="fill:#8399b0; stroke-width:0px;"/><path d="M98.04,57.23c.22-.05.45-.1.67-.16l.75-1.14c-.02-.26-.05-.52-.06-.78l-1.37,2.07Z" style="fill:#8399b0; stroke-width:0px;"/></g></g><path d="M125.39,45.63c-.32-.32-.79-.29-1.12-.24-.24.04-.55.14-.82.23-.23.07-.53.17-.63.17.02-.09.19-.33.38-.54.03-.03.03-.07,0-.1-.03-.03-.07-.03-.1,0-.45.36-1,.75-1.14.78.02-.1.22-.39.46-.67.03-.03.02-.08,0-.1-.03-.03-.07-.03-.1,0-.47.41-1.05.83-1.2.84.03-.11.27-.46.51-.74.03-.03.02-.08,0-.1-.03-.03-.07-.03-.1,0-.5.42-1.1.87-1.27.9.04-.13.32-.49.58-.79.03-.03.03-.08,0-.1-.03-.03-.07-.03-.1,0-.53.45-1.17.93-1.35.98.05-.14.36-.54.66-.87.03-.03.03-.08,0-.11-.03-.03-.07-.03-.11,0-.56.5-1.24,1.03-1.42,1.07.04-.14.4-.59.74-.96.03-.03.03-.08,0-.11-.03-.03-.07-.03-.11,0-.58.52-1.28,1.07-1.48,1.14.06-.16.44-.64.8-1.03.03-.03.03-.08,0-.11-.03-.03-.07-.03-.11,0-.61.54-1.33,1.12-1.55,1.19.06-.12.3-.39.45-.56.39-.44.48-.56.43-.65-.03-.05-.08-.06-.15-.05-.09.01-.24.07-.43.15.48-.56.86-1.14.71-1.39-.16-.27-.88.05-1.18.2-.58.29-1.63.98-1.42,1.49.02.04.06.06.1.04.04-.02.06-.06.04-.1-.13-.32.6-.92,1.35-1.3.59-.3.93-.33.98-.26.1.17-.31.79-.92,1.47-.81.41-1.91,1.1-2,1.44-.02.07,0,.14.06.18.03.02.07.03.11.03.21,0,.59-.25,1.14-.74.21-.19.5-.48.78-.79.3-.15.55-.26.67-.29-.07.1-.24.3-.38.45-.39.44-.54.62-.5.74.01.04.05.07.09.07.16.03.61-.3,1.03-.64-.15.21-.26.4-.24.49,0,.04.03.07.07.08.13.05.53-.22.98-.59-.13.18-.21.34-.19.43.01.04.04.07.08.08.14.04.55-.24.94-.55-.11.17-.19.31-.16.39.01.04.05.07.09.08.15.03.58-.27.96-.56-.11.16-.18.3-.17.38,0,.04.03.06.06.08.14.08.54-.18.96-.51-.09.15-.16.28-.15.36,0,.04.02.07.05.08.14.09.53-.16.91-.45-.08.13-.12.24-.1.31.01.04.04.07.08.09.13.04.5-.19.85-.45-.05.09-.08.18-.07.24.01.04.04.07.08.09.11.04.34-.03.75-.17.27-.09.57-.19.8-.22.48-.08.78-.01.99.2.03.03.08.03.11,0,.03-.03.03-.08,0-.11ZM115.93,46.18c-.73.66-1.01.72-1.06.69,0,0,0-.04.09-.15.25-.27.87-.68,1.44-1-.15.15-.31.31-.47.45Z" style="fill:#8298af; stroke-width:0px;"/><g style="opacity:.21;"><path d="M54.84,24.26V6.97h6.29c6.3,0,9.46,2.81,9.46,8.43,0,2.69-.86,4.84-2.58,6.45-1.72,1.61-4.01,2.41-6.88,2.41h-6.29ZM58.84,10.14v10.96h1.98c1.73,0,3.09-.51,4.08-1.52s1.48-2.39,1.48-4.14c0-1.65-.49-2.94-1.47-3.89-.98-.94-2.35-1.42-4.12-1.42h-1.96Z" style="fill:none; stroke:#869cb3; stroke-miterlimit:10; stroke-width:.5px;"/><path d="M84.18,24.26h-10.64V6.97h10.24v3.17h-6.24v3.85h5.8v3.16h-5.8v3.96h6.65v3.16Z" style="fill:none; stroke:#869cb3; stroke-miterlimit:10; stroke-width:.5px;"/></g><path d="M104.75,46.01s.04.05.08.06c.06.02.14.04.21.06h.04s0,0,0,0c0,0,.02,0,.04,0h0s.06,0,.09,0c.06-.01.12-.04.18-.06h0s0,0,0,0h0s.05-.02.07-.02c.62-.21,1.34-.14,2.05-.07h0s0,0,0,0h0s0,0,0,0c.34.03.68.06.98.06.06,0,.1-.01.13-.03.03-.02.05-.04.07-.06,0-.01.01-.02.01-.03,0-.01,0-.02,0-.04,0-.02,0-.05-.02-.07-.01-.02-.04-.05-.07-.06-.03-.01-.08-.02-.13-.02-.42,0-.81-.01-1.2-.03h0s0,0,0,0h0c-.3-.02-.6-.03-.9-.03-.3,0-.6.01-.91.05h-.05s-.17.03-.17.03v-.15s0,0,0-.01c0,0,0-.01,0-.02,0-.01-.01-.02-.02-.03,0,0,0-.01-.02-.02l-.02-.02s-.08-.08-.12-.11c-.04-.03-.08-.05-.12-.06-.04-.01-.08-.02-.13-.03-.02,0-.03,0-.05,0l-.04.45v.12s0,0,0,0c0,.01,0,.03,0,.03,0,.01,0,.02,0,.04h0s0,.02,0,.04c0,.01,0,.02,0,.03h0ZM104.79,45.3s-.06,0-.09,0h0s-.03,0-.03,0h-.12s-.05-.06-.05-.06v-.02s-.02,0-.02,0c0,0-.01-.02-.02-.03,0,0-.01-.02-.02-.03,0,0-.02-.02-.03-.02,0,0-.01,0-.02-.01h-.01s-.02-.01-.04-.02c-.01,0-.03,0-.04,0h-.05s-.2-.03-.2-.03l.1-.12.03-.03h0c.07-.08.14-.17.19-.25.05-.08.1-.16.12-.24.03-.08.04-.15.04-.22,0-.06-.02-.12-.06-.18h0s-.01-.02-.02-.03c-.01,0-.02-.01-.04-.02-.02,0-.04-.01-.07-.02-.03,0-.05,0-.07,0-.2,0-.39.06-.57.15-.19.1-.38.22-.54.34h0s0,0,0,0h0c-.05.04-.11.07-.16.11-.22.15-.44.3-.65.46-.21.16-.42.32-.62.49-.21.17-.41.34-.6.5-.19.16-.39.33-.58.51-.03.02-.04.05-.04.07,0,.02,0,.04.02.05,0,0,.02.02.03.02.01,0,.02.01.04.02.01,0,.03.01.05.02.02,0,.04,0,.05.01.05,0,.11,0,.17,0,.05-.01.09-.03.13-.06.17-.15.35-.3.53-.45.18-.15.36-.3.54-.44l.1-.08h0c.15-.12.3-.24.46-.35.19-.15.39-.29.58-.42l.25-.18.93-.66-.7.77-.19.21c-.05.06-.1.11-.15.16-.05.05-.1.1-.15.16-.05.05-.1.1-.15.15-.05.05-.1.1-.15.14-.03.03-.04.05-.04.08,0,.02,0,.04.03.06h0s0,0,0,0c0,0,.02.02.03.02.01,0,.03.02.04.02.02,0,.03.01.05.02.02,0,.04,0,.05,0,.05,0,.1,0,.15,0,.04-.01.08-.03.11-.06.02-.02.05-.04.07-.07.03-.02.05-.04.08-.06h0s.06-.04.08-.05c.03-.01.05-.03.09-.04l.11-.05.4-.19-.18.3-.04.07h.02s-.07.1-.07.1l-.02.02h0s0,0,0,0h0s-.02.03-.02.03l-.03.05s0,.03,0,.04c0,.02,0,.03.02.04,0,0,.02.01.03.02h0s.03.01.05.02c.02,0,.04.01.06.01h0s.04,0,.07,0c.05,0,.1,0,.14-.02h0s.07-.03.09-.05c.02-.02.03-.03.04-.04.01-.01.03-.03.04-.05.01-.02.03-.03.04-.05h0s.03-.03.04-.05h0s.08-.11.08-.11l.32-.4h0Z" style="fill:#869cb3; fill-rule:evenodd; stroke-width:0px;"/><path d="M108.58,41.95h-7.02c-.2,0-.36-.18-.36-.39s.16-.39.36-.39h7.02c.2,0,.36.18.36.39s-.16.39-.36.39Z" style="fill:#e5edf3; stroke-width:0px;"/><path d="M123.58,41.95h-7.02c-.2,0-.36-.18-.36-.39s.16-.39.36-.39h7.02c.2,0,.36.18.36.39s-.16.39-.36.39Z" style="fill:#e5edf3; stroke-width:0px;"/><g style="clip-path:url(#h);"><path d="M32.22,53.98c-.24,1.87-.9,4.67-.81,6.47.02.34.16,2.18.92,3.9.9,7.49.21,24.94-.08,32.83,1.57.03,3.92.15,5.1.15.36-4.11,1.38-8.49,2.6-15.08.09-.47,1.13-3.9,1.21-4.37,1.88-10.85,2.89-20.67,2.87-21.63l-11.81-2.27Z" style="fill:#fff; stroke:#8399b0; stroke-miterlimit:10; stroke-width:.5px;"/><path d="M34.73,96.99s0,0,0,0c-.05,0-.09-.05-.09-.1l3.8-42.51c0-.05.05-.09.1-.08.05,0,.09.05.09.1l-3.8,42.51s-.05.09-.1.09Z" style="fill:#fff; stroke:#8399b0; stroke-miterlimit:10; stroke-width:.5px;"/><path d="M38.27,59.01s-.04,0-.06,0c-.05,0-.1-.04-.1-.09s.05-.09.1-.09c1.56.02,2.79-.56,3.68-1.72.66-.87.87-1.75.87-1.76.01-.05.06-.08.11-.07.05.01.09.06.07.11,0,.04-.21.93-.9,1.82-.63.82-1.79,1.8-3.78,1.8Z" style="fill:#fff; stroke:#8399b0; stroke-miterlimit:10; stroke-width:.5px;"/><path d="M31.91,60.88s-.08-.02-.09-.06c-.02-.05,0-.1.06-.12.03-.01,3.06-1.02,3.66-1.45.75-2.45.79-5.49.79-5.52,0-.05.04-.09.1-.09.05,0,.1.04.1.09,0,.03-.05,3.12-.81,5.6,0,.02-.02.03-.03.05-.57.43-3.61,1.45-3.74,1.5-.01,0-.02,0-.03,0Z" style="fill:#fff; stroke:#8399b0; stroke-miterlimit:10; stroke-width:.5px;"/><path d="M56.22,40.41c.79-.09,1.58-.18,2.35-.25.34-.03.66-.15.93-.35,2.03-1.42,5.18-1.71,5.94-1.41.42.17.02.69-1.56.91.64.17,1.96-.05,2.17.31.39.66-1.35.5-1.89.64.33-.02,1.79-.13,1.86.25.12.6-1.68.57-2.3.72,1.15,0,1.8.05,1.77.31-.03.27-.85.98-2.15.89-.86-.04-1.9.64-3.03.44l-3.75,1.15-.35-3.61Z" style="fill:#fff; stroke:#8399b0; stroke-miterlimit:10; stroke-width:.5px;"/><path d="M62.2,49.89s-6.03-1.41-6.78-1.08c-.27.12-.7.71-1.13,1.4,0,0,0,0,0,0,0,.01-.02.03-.02.04-.09.14-.17.28-.26.43,0,.02-.02.03-.03.05-.08.13-.16.27-.23.4-.03.05-.05.1-.08.15-.06.1-.11.2-.17.3-.03.05-.05.09-.07.14-.06.11-.12.21-.17.32-.01.03-.03.06-.04.08-.07.12-.13.24-.18.35-.02.03-.03.06-.04.08-.04.08-.08.15-.11.21-.01.02-.02.04-.03.06-.03.06-.05.11-.07.14,0,.02-.01.02-.02.03-.02.03-.03.06-.03.06,0,0,.48.19,1.16.3.27.04.58.08.91.08.16,0,.33,0,.5-.02,1.05-.1,1.83-1.64,2.59-1.56,1.58.15,5.03,1.98,5.03,1.98l-.7-3.94Z" style="fill:#fff; stroke:#8399b0; stroke-miterlimit:10; stroke-width:.5px;"/><path d="M65.3,37.24s-.86.9-1.01,2.59c-.14,1.52,1.36,9.48.68,9.65-1.44.37-3.53-.31-4.54-.08-.69-.02-1.54-.23-1.54-.23-.08.59-.05,2.28-.11,2.88,0,0,.64.23,1.36.53,1.48,1.1,7.04,3.18,8.37,1.86s1.5-12.52.41-16.95c-.59-2.4-3.61-.25-3.61-.25Z" style="fill:#fff; stroke:#8399b0; stroke-miterlimit:10; stroke-width:.5px;"/><path d="M38.8,33.1c3.08,1.75,5.73,4.96,8.83,6.27.21.09.51-.12.72-.05.29.1.6.28.92.34,2.27.39,5.33-.25,7.04.05.3.05.88.19,1.15.29.41.03,1.14,0,1.65.04-.03.96.04,2.45.04,3.22-.6.08-1.15.12-1.69.24-1.71,1.67-8.17,2.22-11.94,1.41-2.33-.5-4.77-2.48-6.84-3.59-2.54-.98-1.5-6.65.12-8.22Z" style="fill:#fff; stroke:#8399b0; stroke-miterlimit:10; stroke-width:.5px;"/><path d="M57.46,51.59c-.58-.59-2.32-1.49-2.73-1.6.8-.49-.56-1.08-1.11-.66-.56.35-.94,1.06-1.92,1.22-.79.12-1.73.05-2.5.06l.18,3.15c1.06-.17,2.36-.56,3.44-.57.56.15,1.78.73,2.75.43.36-.11.52-.29.74-.39.29-.05.79-.22.71-.68,0,0,.3.06.3.06.51.06.52-.62.14-1.01Z" style="fill:#fff; stroke:#8399b0; stroke-miterlimit:10; stroke-width:.5px;"/><path d="M57.02,52.63s-.03,0-.05-.01c-.33-.18-.83-.47-.88-.49-.04-.02-.07-.07-.05-.11.02-.05.07-.08.12-.06.01,0,.03,0,.91.5.05.03.06.08.03.13-.02.03-.05.05-.08.05Z" style="fill:#fff; stroke:#8399b0; stroke-miterlimit:10; stroke-width:.5px;"/><path d="M44.35,55.38c-.57,1.78-1.1,3.74-1.51,4.86-1.23.08-8.01-1.46-11.2-3,.09-.84.19-2.09.39-3.6,2.85.52,9,1.13,12.32,1.74Z" style="fill:#fff; stroke:#8399b0; stroke-miterlimit:10; stroke-width:.5px;"/><path d="M39.23,32.85c1.14,1.24,3.64,4.08,4.01,4.9,2.25,5.05,1.8,12.29,1.53,17.05-.04.75-.13.99-.59,1.59-.12.89-.11.61-.24,1.49-3.99-.2-8.84-1.09-12.2-2.38.06-.46.08-.98.06-1.71,0-.2-.27-.75-.38-1.43-.09-2.48.2-13.26.69-15.32.64-2.71,1.68-3.75,3.17-6.13l3.95,1.94Z" style="fill:#fff; stroke:#8399b0; stroke-miterlimit:10; stroke-width:.5px;"/><path d="M36.21,25.89c.82.59,1.73,1.37,2.43,2.09.7.72,1.75,1.65,1.38,2.58-.23.57-.63,2.7-.65,3.29-.01.29-3.47-.98-4.5-2.02.05-.2,1.09-4.24,1.35-5.94Z" style="fill:#fff; stroke:#8399b0; stroke-miterlimit:10; stroke-width:.5px;"/><path d="M42.57,23.66c.72-.17.94,2.25.83,2.88-.06.33-.08.86.08,1.16.24.44.81.85.69,1.24-.06.19-.3.3-.61.42-.21.08-.33.2-.38.41-.38,1.53-.54,2.65-1.48,2.75-.83.09-1.15-.17-2.1-1.15-1.02-1.49-.25-4.13.02-5.77.28-2.08.67-2.52,2.96-1.93Z" style="fill:#fff; stroke:#8399b0; stroke-miterlimit:10; stroke-width:.5px;"/><path d="M40.76,23.98c.6.29,1.36.22,1.87-.17.34.28.9.18,1.19-.14.29-.33.41-.96.25-1.36-.16-.4-.37-.6-.73-.86-.78-.58-1.96-.39-2.85-.8-.63-.29-.8-.36-1.24-.36-.26,0-.61.55-.3.86,0,0,0,0,0,.01-.15-.06-.33-.15-.47-.23-.43-.25-1.13.04-1.07.6-.87.18-3.5,1.24-3.31,3.05.1,1,1.11,3.79,1.31,5.06.22.07,1.5-.19,2.36-1.49.63-.12,1.24-.73,1.87-.83,0-.77,0-.84.35-1.32.15-.21.52-.41.62-.62.18-.38.12-.86.14-1.4Z" style="fill:#fff; stroke:#8399b0; stroke-miterlimit:10; stroke-width:.5px;"/><path d="M38.88,28.97c-1.27.06-1.89-1.93-.87-2.59,1.16-.67,1.91,1.99.87,2.59Z" style="fill:#fff; stroke:#8399b0; stroke-miterlimit:10; stroke-width:.5px;"/><path d="M43.37,29.44c-1.85-.63-2.26.73-2.98-.03-.41-.43-.54-1.68-.49-3.33-.19.08-.7.4-.9.43.08,1.27-.14,2.23-.17,3.75-.04,1.99,3.02,3.29,3.93,2.25.46-.52.38-1.63.47-2.43.03-.23.1-.44.14-.64Z" style="fill:#fff; stroke:#8399b0; stroke-miterlimit:10; stroke-width:.5px;"/><path d="M50.17,50.52c-.04,1.5-.1,2.4-.25,3.61-.35.04-1.22.13-1.66.19-.25.39-.48.64-.94.73-.46.09-.89.11-1.41.04-1.8-.25-3.39.17-5.16-.24-1.66-.38-3.35-1.19-4.25-2.59-1.23-1.93-2.07-4.28-2.56-6.61-.59-2.83-1.47-9.29,1.55-10.99.95-.54,2.17.71,2.77,1.6,1.37,2.02,2.24,7.45,3.17,9.52.11.25.23.51.27.78.05.27.02.57-.13.8-.06.09-.13.16-.17.25-.05.09-.06.21,0,.29.08.11.23.12.36.14.48.09.86.55.87,1.02.93.26,1.88.53,2.84.48.53-.02,1.19-.06,1.72.01.52.07,1.13.25,1.3.8.62.09,1.25.14,1.68.16Z" style="fill:#fff; stroke:#8399b0; stroke-miterlimit:10; stroke-width:.5px;"/><path d="M43.11,31.55c.07-.48.07-1.02.12-1.47h0c-.47-.09-1.06-.22-1.52-.28-.09.51-.09,1,.18,1.27.27.28.71.41,1.22.47Z" style="fill:#fff; stroke:#8399b0; stroke-miterlimit:10; stroke-width:.5px;"/><path d="M56.26,53.02s0,0,0,0c-.16,0-.6-.19-.65-.21-.05-.02-.07-.08-.05-.13.02-.05.08-.07.13-.05.18.07.49.19.59.19.05,0,.09.05.09.1,0,.05-.05.09-.1.09Z" style="fill:#fff; stroke:#8399b0; stroke-miterlimit:10; stroke-width:.5px;"/><path d="M66.04,25.78c-.68-.63-.42-1.78.06-2.16.48-.38,4.75-1.41,6.01-1.34,1.06.06,1.96.58,2.61,1.49.65.91.64,4.69.54,5.31-.1.62-.07,1.31.31,1.82.32.43.82.67,1.28.94.46.28.91.65,1.01,1.18.14.74-.5,1.44-.48,2.2.03.81,1.17,1.24,1.65,1.9.61.83.56,1.99.14,3.05-.26.67-.72,1.37-1.44,1.4-.36.01-6.13-3.88-7.82-6.46-2-3.06-1.26-6.87-3.86-9.32Z" style="fill:#fff; stroke:#8399b0; stroke-miterlimit:10; stroke-width:.5px;"/><path d="M74.77,51.91c-.23-.46-.38-1.33-.48-2.09h-10.21l-.28,1.96s-.93,2.32-1.27,4.65c-.34,2.33,2.1,20.91,2.1,20.91,0,0,5.53,2.04,9.66,2.22.89-2.38,2.7-19.07,2.24-22.02-.33-2.13-.75-3.61-1.76-5.63Z" style="fill:#fff; stroke:#8399b0; stroke-miterlimit:10; stroke-width:.5px;"/><path d="M74.77,51.91c-.23-.46-.38-1.33-.48-2.09h-6.28c1.19,1,2.86,2.46,3.2,3.01.53.88,2.16,4.93,3.6,5.88.34.23,1.05.37,1.79.46,0-.71-.02-1.28-.07-1.64-.33-2.13-.75-3.61-1.76-5.63Z" style="fill:#fff; stroke:#8399b0; stroke-miterlimit:10; stroke-width:.5px;"/><path d="M70.12,33.59s5.29,1.91,6.61,3.57c1.33,1.66-.19,5.61-1.09,8.24-.89,2.63-.73,4.66-1.29,5-.56.34-10.07.14-10.69-.23-.94-.57-.87-8.19-.85-8.69.07-1.93.94-4.48,1.33-4.87.48-.48,4.33-2.16,4.33-2.16l1.63-.85Z" style="fill:#fff; stroke:#8399b0; stroke-miterlimit:10; stroke-width:.5px;"/><path d="M69.77,37.58c-.71,0-1.4-.18-1.88-.53-.44-.32-.94-.93-.78-2.02,0-.05.06-.09.11-.08.05,0,.09.06.08.11-.11.78.13,1.41.7,1.83.86.63,2.37.67,3.52.1.88-.44,1.37-1.14,1.39-1.98,0-.05.05-.1.1-.1.05,0,.1.05.1.1-.02.92-.55,1.68-1.5,2.15-.56.28-1.21.42-1.84.42Z" style="fill:#fff; stroke:#8399b0; stroke-miterlimit:10; stroke-width:.5px;"/><path d="M72.27,34.45s-.05-.02-.08-.03c-.95-.56-1.71-1.5-1.32-4.52l-2.94,2.57c.18.59.32,1.37.41,2.03-.11.05-.28.12-.49.22-.83,2.85,4.15,2.35,4.48-.07-.02-.07-.04-.13-.07-.19Z" style="fill:#fff; stroke:#8399b0; stroke-miterlimit:10; stroke-width:.5px;"/><path d="M67.09,24.29c-.64.31-1.16.86-1.43,1.52-.24.59-.14,1.19-.08,2.1.01.16-.07.45-.17.57-.37.43-.72.63-.86.92-.16.33.57.73.64.78.17.13.1,2.95.91,2.92,1.01-.03,3.31-.72,4.17-2.51.71-1.43.48-1.37-.22-1.77-.69-.39-1.04-1.96-1.35-2.73-.32-.8-.82-1.58-1.6-1.81Z" style="fill:#fff; stroke:#8399b0; stroke-miterlimit:10; stroke-width:.5px;"/><path d="M68.53,36.57c.08-.11.22-.15.35-.13.34.06.74.07,1,.22.33.19.12.76-.05,1.07-.16.29-1.32.26-1.52-.14-.13-.26-.09-.62.22-1.01Z" style="fill:#fff; stroke:#8399b0; stroke-miterlimit:10; stroke-width:.5px;"/><path d="M69.93,36.57c-.32-.13-1.21-.4-1.47-.06-.31.39-.39.79-.23,1.12.23.45,1.38.55,1.69.15.23-.42.38-.99.02-1.2ZM69.74,37.68c-.04.07-.26.15-.58.14-.87,0-1.05-.55-.55-1.19.19-.22,1.01.02,1.22.11.26.15.05.68-.09.94Z" style="fill:#fff; stroke:#8399b0; stroke-miterlimit:10; stroke-width:.5px;"/><path d="M77.93,59.72s.34,2.78.29,2.94c-.15.48-.36,1.53-.31,2,.02.16.04.33.08.51.18-.05.33-.08.45-.11.28-.06.55.1.65.36l.58,1.43s.06,1.77.4,2.08c.18.16.71-.06.46-1.2,0-.04-.1.79-.08.83.18.33.65-.18.66-.72.09-.16.17-.32.25-.46.22-.43.52-.94.41-1.41l-.45-1.24c-.1-.39-.82-2.31-.82-2.31l-.13-2.55-2.43-.15Z" style="fill:#fff; stroke:#8399b0; stroke-miterlimit:10; stroke-width:.5px;"/><path d="M78.02,38.61c2.02,9.12,2.71,14.19,2.87,19.14.02.69-.36,2.75-.36,2.75l.08,1.84c-.64.14-1.71.18-2.6.09l-.22-1.96s-.43-.75-.73-1.88c-.48-1.78-.98-4.52-1.42-6.83-.38-2-.78-4.07-.84-4.4-.16-.94-.57-7.24-.57-7.24l.99-4.1s2.4.73,2.81,2.59Z" style="fill:#fff; stroke:#8399b0; stroke-miterlimit:10; stroke-width:.5px;"/><path d="M69.86,52.12c-2.33,0-4.6-.15-5.95-.39-.06-.01-.1-.06-.08-.12.01-.06.06-.09.12-.08,2.27.4,7.16.56,10.56.15.06,0,.11.03.12.09,0,.06-.03.11-.09.12-1.4.17-3.05.25-4.67.25Z" style="fill:#fff; stroke:#8399b0; stroke-miterlimit:10; stroke-width:.5px;"/><path d="M58.88,49.31c-.48-.43-2.27-1.07-3.11-1.02-.5.03-.78.35-1.19.86-.18.23-.65.81-.92,1.15-.1.13.03.32.19.36.55.14,1.1-.38,1.43-.88" style="fill:#fff; stroke:#8399b0; stroke-miterlimit:10; stroke-width:.5px;"/><path d="M44.03,56.35s0,0,0,0c-3.55-.16-7.37-.91-12-2.36-.05-.02-.08-.07-.06-.12.02-.05.07-.08.12-.06,4.62,1.45,8.41,2.2,11.95,2.36.05,0,.09.05.09.1,0,.05-.05.09-.1.09Z" style="fill:#fff; stroke:#8399b0; stroke-miterlimit:10; stroke-width:.5px;"/></g></g></svg>