<?xml version="1.0" encoding="UTF-8"?><svg id="e" xmlns="http://www.w3.org/2000/svg" xmlns:xlink="http://www.w3.org/1999/xlink" viewBox="0 0 140 60"><defs><clipPath id="f"><rect y="0" width="140" height="60" style="fill:none; stroke-width:0px;"/></clipPath><clipPath id="g"><polygon points="115.53 26.15 104.78 36.51 111.06 36.51 111.15 48.23 119.67 48.23 119.57 36.51 126.16 36.51 115.53 26.15" style="fill:none; stroke-width:0px;"/></clipPath></defs><g style="clip-path:url(#f);"><ellipse cx="77.42" cy="51.81" rx="23.42" ry="1.56" style="fill:#dde3e8; stroke-width:0px;"/><rect x="11.58" y="15.59" width="121.73" height="26.5" rx="12.06" ry="12.06" style="fill:#e6eef5; stroke-width:0px;"/><path d="M65.23,5.82c-.03.09-.67.1-.72.09-.53-.09-.94-.3-1.16-.46-.19-.13-.39-.49-.35-.55.08-.15,2.3.74,2.24.92Z" style="fill:#fff; stroke:#8399b0; stroke-miterlimit:10; stroke-width:.5px;"/><path d="M63.94,5.62c-.78-.36-.95-.73-.95-.73-1.27,2.09-3.22,5.24-3.89,5.82-.34.17-4.22,1.7-5.4,1.64-.82-.04.83,4.6,1.07,4.48.72-.39,4.99-2.68,6.01-3.39.7-.4,2.36-3.32,2.45-3.51.3-.63.64-1.24.93-1.87.7-1.53,1.11-2.22,1.06-2.29-.02-.02-.39.24-1.28-.17Z" style="fill:#fff; stroke:#8399b0; stroke-miterlimit:10; stroke-width:.5px;"/><path d="M51.31,52c-.04-.24-.23-1.19-.23-1.59,0-.2-.03.48-.13.37-.1-.11-.28-.1-.39-.09-.9.04-1.41-.47-1.7-.2-.1.09-.04,1.87-.01,1.98.14.54.21.82.35.9.6.38,2.23-.74,2.12-1.37Z" style="fill:#fff; stroke:#8399b0; stroke-miterlimit:10; stroke-width:.5px;"/><path d="M51.13,51.67c.28-.02.37.32.92.78.33.27.53.45.86.53.19.05.49.06,1.09.08.29.01.42.01.55.11.19.15.27.47.14.64-.1.14-.31.16-.4.17-1.19.08-1.78.12-2.04.11-.34-.02-1.78-.07-2.96,0-.17,0-.57.03-.75-.19-.06-.07-.09-.17-.06-.56.04-.54.09-1.06.32-1.11.11-.03.15.09.43.19.09.03.37.14.66.08.1-.02.19-.06.72-.47.42-.33.43-.36.52-.36Z" style="fill:#fff; stroke:#8399b0; stroke-miterlimit:10; stroke-width:.5px;"/><path d="M48.67,54.26h5.69c.11,0,.28-.39.28-.39h-6.07c-.11,0,0,.39.11.39Z" style="fill:#fff; stroke:#8399b0; stroke-miterlimit:10; stroke-width:.5px;"/><path d="M45.28,50.71c.1.21-.05.3-.07.84-.02.77.28.98.11,1.22-.18.26-.55.03-1.91.15-.29.02-.46.05-.55-.05-.17-.21.27-.59.33-1.3.05-.62-.24-.8-.08-1.05.32-.51,1.89-.39,2.17.2Z" style="fill:#fff; stroke:#8399b0; stroke-miterlimit:10; stroke-width:.5px;"/><path d="M53.19,27.74c.77.82.64,10.11.36,12.37-.16,1.26-.93,4.91-.93,4.91-.28,1.37-.37,1.32-.53,2.21-.4,2.23-.53,3.41-.58,3.79-.09.64-2.39.59-2.67,0-.14-.3-.21-1.54.18-3.91.03-.17.41-2.54.47-4.53.05-1.68-.14-2.99-.53-5.61-.53-3.62-.85-7.96-.22-8.67.91-1.03,3.51-1.57,4.45-.57Z" style="fill:#fff; stroke:#8399b0; stroke-miterlimit:10; stroke-width:.5px;"/><path d="M49.9,28.97c.41.93-.28,4.32-.93,8.35-.26,1.66-.38,3.03-1.05,4.93-.12.34-.15.4-.35.96-.33.93-.86,2.43-1.17,3.79-.63,2.74-.64,3.23-.81,3.9-.13.54-2.15.5-2.53.08-.19-.21-.45-1.9-.05-4.38.34-2.09.65-2.46.93-4.36.1-.67.14-1.77.23-3.96.09-2.15.43-4.3.35-6.46-.04-.96-.55-3.6-.22-3.89.93-.82,4.71-.93,5.58,1.04Z" style="fill:#fff; stroke:#8399b0; stroke-miterlimit:10; stroke-width:.5px;"/><path d="M45.36,52.07c.15.08.1.31.15.76.08.72.3.93.15,1.13-.08.11-.2.13-.73.17-1.49.1-1.49-.05-2.19.06-.27.04-.42-.05-.5-.14-.12-.14.11-.26.32-.88.22-.64.19-1.07.44-1.13.12-.03.18.06.35.03.21-.04.22-.2.44-.31.24-.12.59-.11.76.06.12.12.06.24.18.31.19.12.45-.15.64-.06Z" style="fill:#fff; stroke:#8399b0; stroke-miterlimit:10; stroke-width:.5px;"/><path d="M42.29,54.25h3.34c.11,0,.19-.39.08-.39h-3.48c-.11,0-.05.39.06.39Z" style="fill:#fff; stroke:#8399b0; stroke-miterlimit:10; stroke-width:.5px;"/><path d="M44.1,29.08c-.77-4.12-.02-16.07.29-16.38.67-.66,5.56-1.21,5.8-1.21.42,0,4.05.98,4.18,1.12.12.13,1.24.8-.24,16.31-.07.77-2.82.96-4.21,1.01-2.65.1-4.12-.37-5.81-.84Z" style="fill:#fff; stroke:#8399b0; stroke-miterlimit:10; stroke-width:.5px;"/><path d="M43.37,28.11c-.06.09-.11.43-.21,1.11-.09.56-.11.76-.08,1.05.02.14.04.34.13.59.09.25.27.47.64.93.08.1.16.2.32.28.13.07.22.07.37.1,0,0,0,0,0,0,.34.08.63.35.74.28.08-.05.05-.27-.05-.41-.1-.13-.2-.11-.29-.21-.1-.11-.12-.27-.03-.82.05-.31.12-.8.16-.8.03,0,.03.4.03.6,0,.15,0,.26.04.41.05.14.11.23.15.27.05.05.19.22.3.18.08-.03.11-.13.12-.21,0-.13-.08-.19-.13-.32-.07-.17,0-.31.04-.49.06-.28.03-.51-.03-.85-.06-.38-.2-.46-.46-1-.45-.9-.34-1.21-.62-1.31-.35-.13-.88.22-1.13.6Z" style="fill:#fff; stroke:#8399b0; stroke-miterlimit:10; stroke-width:.5px;"/><path d="M45.82,14.46c-.17-.76-.75-2.04-.9-2.01-2.4.48-2.82,7.86-2.89,8.77-.05.63.85,7.15,1.2,7.55.26.3,1.71.37,2-.13.16-.27-.28-5.19-.3-6.57,0-.15,1.5-4.96.9-7.62Z" style="fill:#fff; stroke:#8399b0; stroke-miterlimit:10; stroke-width:.5px;"/><path d="M52.18,8.67c-.02-.17-.12-.44-.3-.49-.03,0-.05,0-.08,0,0-.49-.05-.93-.15-1.14-.29-.58-.57-1.08-.59-1.1-.53-.45-1.21-.39-1.56-.37-.18.01-1.51.12-1.94,1.02-.18.38-.11.76.03,1.52.04.22.09.42.14.6-.06-.01-.12-.01-.18.02-.16.1-.17.38-.13.55.08.4.59.75.77.64.01,0,.02-.03.03-.04,0,0,0,0,0,0,.02.14.05.32.07.56.09,1.03-.02.98-.03,1.09-.02.54.75,1.2,1.55,1.34.22.04.79.15,1.21-.22.21-.19.45-.56.37-.84-.03-.11-.09-.12-.13-.25-.08-.26.06-.43.05-.54.14-.18.23-.34.25-.39.05-.11.08-.22.13-.55.03-.18.05-.4.07-.64.2-.08.47-.44.43-.78Z" style="fill:#fff; stroke:#8399b0; stroke-miterlimit:10; stroke-width:.5px;"/><path d="M47.22,7.79c-.1-.37-.17-1.76,1.23-2.22.99-.32.82-.5,1.16-.67.55-.27,1.05-.08,1.31.01,1.23.47.85,1.42.85,1.42.06.18.06.16.12.3.39.94-.09,1.85-.1,1.78-.08-.58-.08-1.22-.26-1.54-.14-.25-.28-.31-.32-.33-.15-.06-.29-.02-.54.05-.33.08-.6.15-.83.18-.26.04-.48.03-.91.02-.45-.01-.62-.04-.74.08-.11.11-.12.27-.13.41-.02.26.06.46.08.52.21.61.01,1.38-.07,1.39-.04,0-.32.08-.5-.6-.07-.24-.28-.57-.34-.82Z" style="fill:#fff; stroke:#8399b0; stroke-miterlimit:10; stroke-width:.5px;"/><polygon points="98.21 25.11 76.22 25.11 71.09 20.2 58.38 20.2 58.38 25.11 58.38 27.89 58.38 51.42 58.4 51.42 58.4 51.57 58.81 51.57 63.34 51.57 98.23 51.57 98.21 25.11" style="fill:#dce2e7; stroke:#8399b0; stroke-miterlimit:10; stroke-width:.48px;"/><polygon points="75.19 25.11 70.06 20.2 57.35 20.2 57.35 25.11 57.35 27.89 57.35 51.42 96.38 51.42 96.38 25.11 75.19 25.11" style="fill:#dce2e7; stroke:#8399b0; stroke-miterlimit:10; stroke-width:.48px;"/><rect x="60.74" y="4.02" width="33.68" height="45.96" style="fill:#fff; stroke:#8298af; stroke-miterlimit:10; stroke-width:.5px;"/><rect x="62.05" y="20.23" width="31.02" height="28.54" style="fill:#869cb3; opacity:.1; stroke-width:0px;"/><circle cx="65.8" cy="17.43" r="1.02" style="fill:none; opacity:.3; stroke:#869cb3; stroke-miterlimit:10; stroke-width:.5px;"/><circle cx="69.23" cy="17.43" r="1.02" style="fill:none; opacity:.3; stroke:#869cb3; stroke-miterlimit:10; stroke-width:.5px;"/><circle cx="72.69" cy="17.43" r="1.02" style="fill:none; opacity:.3; stroke:#869cb3; stroke-miterlimit:10; stroke-width:.5px;"/><circle cx="76.4" cy="17.43" r="1.02" style="fill:none; opacity:.3; stroke:#869cb3; stroke-miterlimit:10; stroke-width:.5px;"/><circle cx="64.89" cy="22.53" r="1.02" style="fill:#869cb3; stroke-width:0px;"/><polygon points="64.48 22.58 64.48 23.05 65.26 23.05 65.26 22.58 64.87 22.8 64.48 22.58" style="fill:#fff; stroke-width:0px;"/><polygon points="64.22 22.36 64.48 22.5 64.87 22.72 65.26 22.5 65.52 22.36 64.87 22 64.22 22.36" style="fill:#fff; stroke-width:0px;"/><rect x="65.45" y="22.36" width=".03" height=".31" style="fill:#fff; stroke-width:0px;"/><polygon points="65.47 22.6 65.43 22.68 65.38 22.76 65.47 22.76 65.55 22.76 65.51 22.68 65.47 22.6" style="fill:#fff; stroke-width:0px;"/><circle cx="64.87" cy="35.45" r="1.02" style="fill:#869cb3; stroke-width:0px;"/><path d="M64.35,35.82c0,.06.05.11.11.11h.8c.06,0,.11-.05.11-.11v-.26h-1.01v.26Z" style="fill:#fff; stroke-width:0px;"/><path d="M65.26,35.1h-.18c-.01-.11-.1-.19-.21-.19s-.2.08-.21.19h-.18c-.06,0-.11.05-.11.11v.26h1.01v-.26c0-.06-.05-.11-.11-.11ZM64.71,35.1c.01-.07.07-.13.15-.13s.14.06.15.13h-.3Z" style="fill:#fff; stroke-width:0px;"/><circle cx="80.23" cy="22.5" r="1.02" style="fill:#869cb3; stroke-width:0px;"/><path d="M80.73,22.56s-.07-.03-.1-.04c0,0,0,0,0,0,0-.04,0-.08-.01-.11,0,0,0,0,0,0,0,0,.02-.01.03-.02.02-.01.04-.03.06-.04,0,0,0,0,0-.01-.02-.04-.04-.08-.06-.12,0,0,0,0,0,0,0,0,0,0,0,0-.03.01-.07.03-.1.04,0,0,0,0,0,0,0,0,0,0,0,0-.03-.03-.06-.05-.09-.07,0,0,0,0,0,0h0s0-.04.01-.05c0-.02,0-.04,0-.05,0,0,0,0,0,0-.04-.01-.09-.03-.13-.04,0,0-.01,0-.01,0-.01.03-.03.07-.04.1,0,0,0,0,0,0-.04,0-.08,0-.12,0,0,0,0,0,0,0,0,0,0,0,0,0-.02-.02-.03-.05-.05-.07-.02-.02-.02-.02-.04-.01-.03.02-.06.03-.1.05,0,0,0,0,0,.01,0,0,0,0,0,.01.01.03.02.06.04.09,0,0,0,0,0,0,0,0,0,0-.01.01-.03.02-.05.05-.07.08,0,0,0,0,0,0-.01,0-.03,0-.05,0-.02,0-.05,0-.07-.01,0,0,0,0,0,0-.01.04-.03.09-.04.13,0,0,0,0,0,0,.04.01.07.03.1.04,0,0,0,0,0,0,0,.04,0,.08.01.12,0,0,0,0,0,0h0s-.06.04-.09.06c0,0,0,0,0,.01.02.04.04.08.06.12,0,0,0,0,.01,0,.03-.01.07-.02.1-.04,0,0,0,0,0,0,0,0,0,0,0,0,0,0,0,0,0,0,.03.03.06.06.09.07,0,0,0,0,0,0,0,.02,0,.05,0,.07,0,.01,0,.03,0,.04,0,0,0,0,0,0,.04.01.08.02.12.04,0,0,0,0,0,0,.02-.03.03-.07.04-.1,0,0,0,0,0,0,.04,0,.08,0,.12-.01,0,0,0,0,0,0,0,0,0,0,.01.02.02.02.03.05.05.07,0,0,0,0,.01,0,.04-.02.08-.04.12-.06,0,0,0,0,0-.01-.01-.04-.03-.07-.04-.1,0,0,0,0,0,0,0,0,0,0,0,0,.03-.03.06-.06.08-.09,0,0,0,0,0,0,.04,0,.07.01.11.02,0,0,0,0,0,0,.01-.04.03-.09.04-.13,0,0,0,0,0,0ZM80.37,22.65c-.08.08-.22.07-.29-.01-.08-.08-.07-.22.01-.29.08-.08.22-.07.29.01.08.08.07.22-.01.29Z" style="fill:#fff; stroke-width:0px;"/><circle cx="80.23" cy="31.35" r="1.02" style="fill:#869cb3; stroke-width:0px;"/><path d="M80.24,31c-.13,0-.24.11-.24.24s.11.24.24.24.24-.11.24-.24-.11-.24-.24-.24Z" style="fill:#fff; stroke-width:0px;"/><path d="M80.24,31.38c-.19-.02-.25.33-.27.43h.54c-.02-.1-.08-.45-.27-.43Z" style="fill:#fff; stroke-width:0px;"/><path d="M80.68,30.89c-.09,0-.17.07-.17.17s.07.17.17.17.17-.07.17-.17-.07-.17-.17-.17Z" style="fill:#fff; stroke-width:0px;"/><path d="M80.68,31.15c-.13-.01-.18.23-.19.3h.38c-.01-.07-.06-.32-.19-.3Z" style="fill:#fff; stroke-width:0px;"/><path d="M79.78,30.89c-.09,0-.17.07-.17.17s.07.17.17.17.17-.07.17-.17-.07-.17-.17-.17Z" style="fill:#fff; stroke-width:0px;"/><path d="M79.78,31.15c-.13-.01-.18.23-.19.3h.38c-.01-.07-.06-.32-.19-.3Z" style="fill:#fff; stroke-width:0px;"/><circle cx="80.23" cy="42.42" r="1.02" style="fill:#869cb3; stroke-width:0px;"/><path d="M80.45,42.01c-.17,0-.22.12-.22.12,0,0-.05-.12-.23-.12-.18,0-.36.12-.3.41.03.13.15.24.25.34.15.15.29.26.29.26,0,0,.14-.11.28-.27.09-.1.21-.22.24-.35.06-.28-.13-.4-.31-.4Z" style="fill:#fff; stroke-width:0px;"/><rect x="64.55" y="13.16" width="15.45" height=".6" style="fill:#e5edf3; stroke-width:0px;"/><rect x="64.55" y="14.54" width="13.02" height=".63" style="fill:#e5edf3; stroke-width:0px;"/><rect x="77.5" y="21.66" width=".18" height="26.21" style="fill:#869cb3; opacity:.3; stroke-width:0px;"/><rect x="67.01" y="22.14" width="8.26" height=".72" style="fill:#869cb3; stroke-width:0px;"/><rect x="65.6" y="24.45" width="9.67" height=".36" style="fill:#869cb3; opacity:.3; stroke-width:0px;"/><rect x="65.6" y="25.35" width="9.67" height=".36" style="fill:#869cb3; opacity:.3; stroke-width:0px;"/><rect x="65.6" y="26.26" width="9.67" height=".36" style="fill:#869cb3; opacity:.3; stroke-width:0px;"/><rect x="65.6" y="27.21" width="7.54" height=".33" style="fill:#869cb3; opacity:.3; stroke-width:0px;"/><rect x="82.64" y="22.14" width="8.26" height=".72" style="fill:#869cb3; stroke-width:0px;"/><path d="M64.47,24.39c-.13,0-.24.11-.24.24s.11.24.24.24.24-.11.24-.24-.11-.24-.24-.24Z" style="fill:#869cb3; opacity:.3; stroke-width:0px;"/><rect x="81.23" y="44.56" width="9.67" height=".36" style="fill:#869cb3; opacity:.3; stroke-width:0px;"/><rect x="81.23" y="45.47" width="9.67" height=".36" style="fill:#869cb3; opacity:.3; stroke-width:0px;"/><rect x="81.23" y="46.37" width="9.67" height=".36" style="fill:#869cb3; opacity:.3; stroke-width:0px;"/><rect x="81.23" y="47.32" width="7.54" height=".33" style="fill:#869cb3; opacity:.3; stroke-width:0px;"/><path d="M80.16,44.5c-.13,0-.24.11-.24.24s.11.24.24.24.24-.11.24-.24-.11-.24-.24-.24Z" style="fill:#869cb3; opacity:.3; stroke-width:0px;"/><rect x="65.6" y="29.09" width="9.67" height=".36" style="fill:#869cb3; opacity:.3; stroke-width:0px;"/><rect x="65.6" y="29.99" width="9.67" height=".36" style="fill:#869cb3; opacity:.3; stroke-width:0px;"/><rect x="65.6" y="30.9" width="9.67" height=".36" style="fill:#869cb3; opacity:.3; stroke-width:0px;"/><rect x="65.6" y="31.76" width="9.67" height=".36" style="fill:#869cb3; opacity:.3; stroke-width:0px;"/><rect x="65.6" y="32.66" width="6.25" height=".33" style="fill:#869cb3; opacity:.3; stroke-width:0px;"/><path d="M64.47,29.03c-.13,0-.24.11-.24.24s.11.24.24.24.24-.11.24-.24-.11-.24-.24-.24Z" style="fill:#869cb3; opacity:.3; stroke-width:0px;"/><rect x="65.6" y="45.49" width="9.67" height=".36" style="fill:#869cb3; opacity:.3; stroke-width:0px;"/><rect x="65.6" y="46.39" width="9.67" height=".36" style="fill:#869cb3; opacity:.3; stroke-width:0px;"/><rect x="65.6" y="47.3" width="9.67" height=".36" style="fill:#869cb3; opacity:.3; stroke-width:0px;"/><path d="M64.47,45.43c-.13,0-.24.11-.24.24s.11.24.24.24.24-.11.24-.24-.11-.24-.24-.24Z" style="fill:#869cb3; opacity:.3; stroke-width:0px;"/><rect x="65.6" y="41.84" width="9.67" height=".36" style="fill:#869cb3; opacity:.3; stroke-width:0px;"/><rect x="65.6" y="42.74" width="9.67" height=".36" style="fill:#869cb3; opacity:.3; stroke-width:0px;"/><rect x="65.6" y="43.61" width="6.25" height=".33" style="fill:#869cb3; opacity:.3; stroke-width:0px;"/><path d="M64.47,41.78c-.13,0-.24.11-.24.24s.11.24.24.24.24-.11.24-.24-.11-.24-.24-.24Z" style="fill:#869cb3; opacity:.3; stroke-width:0px;"/><rect x="81.23" y="38.1" width="9.67" height=".36" style="fill:#869cb3; opacity:.3; stroke-width:0px;"/><rect x="81.23" y="39" width="9.67" height=".36" style="fill:#869cb3; opacity:.3; stroke-width:0px;"/><rect x="81.25" y="39.87" width="6.25" height=".33" style="fill:#869cb3; opacity:.3; stroke-width:0px;"/><path d="M80.16,38.04c-.13,0-.24.11-.24.24s.11.24.24.24.24-.11.24-.24-.11-.24-.24-.24Z" style="fill:#869cb3; opacity:.3; stroke-width:0px;"/><rect x="67.01" y="35.09" width="8.26" height=".72" style="fill:#869cb3; stroke-width:0px;"/><rect x="82.64" y="42.06" width="8.26" height=".72" style="fill:#869cb3; stroke-width:0px;"/><rect x="82.64" y="30.99" width="8.26" height=".72" style="fill:#869cb3; stroke-width:0px;"/><rect x="65.6" y="37.34" width="9.67" height=".36" style="fill:#869cb3; opacity:.3; stroke-width:0px;"/><rect x="65.6" y="38.24" width="9.67" height=".36" style="fill:#869cb3; opacity:.3; stroke-width:0px;"/><rect x="65.6" y="39.15" width="9.67" height=".36" style="fill:#869cb3; opacity:.3; stroke-width:0px;"/><rect x="65.6" y="40.1" width="8.07" height=".33" style="fill:#869cb3; opacity:.3; stroke-width:0px;"/><path d="M64.47,37.28c-.13,0-.24.11-.24.24s.11.24.24.24.24-.11.24-.24-.11-.24-.24-.24Z" style="fill:#869cb3; opacity:.3; stroke-width:0px;"/><rect x="81.23" y="33.84" width="9.67" height=".36" style="fill:#869cb3; opacity:.3; stroke-width:0px;"/><rect x="81.23" y="34.74" width="9.67" height=".36" style="fill:#869cb3; opacity:.3; stroke-width:0px;"/><rect x="81.23" y="35.64" width="9.67" height=".36" style="fill:#869cb3; opacity:.3; stroke-width:0px;"/><rect x="81.23" y="36.6" width="8.07" height=".33" style="fill:#869cb3; opacity:.3; stroke-width:0px;"/><path d="M80.16,33.78c-.13,0-.24.11-.24.24s.11.24.24.24.24-.11.24-.24-.11-.24-.24-.24Z" style="fill:#869cb3; opacity:.3; stroke-width:0px;"/><path d="M80.16,24.45c-.13,0-.24.11-.24.24s.11.24.24.24.24-.11.24-.24-.11-.24-.24-.24Z" style="fill:#869cb3; opacity:.3; stroke-width:0px;"/><path d="M80.16,25.88c-.13,0-.24.11-.24.24s.11.24.24.24.24-.11.24-.24-.11-.24-.24-.24Z" style="fill:#869cb3; opacity:.3; stroke-width:0px;"/><path d="M80.16,27.27c-.13,0-.24.11-.24.24s.11.24.24.24.24-.11.24-.24-.11-.24-.24-.24Z" style="fill:#869cb3; opacity:.3; stroke-width:0px;"/><path d="M80.16,28.59c-.13,0-.24.11-.24.24s.11.24.24.24.24-.11.24-.24-.11-.24-.24-.24Z" style="fill:#869cb3; opacity:.3; stroke-width:0px;"/><path d="M90.6,24h-8.83c-.17,0-.3.14-.3.3s.14.3.3.3h8.83c.17,0,.3-.14.3-.3s-.14-.3-.3-.3Z" style="fill:#869cb3; opacity:.3; stroke-width:0px;"/><path d="M81.72,24.31c0,.09.08.16.19.16h5.55v-.32h-5.55c-.1,0-.19.07-.19.16Z" style="fill:#fff; stroke-width:0px;"/><path d="M90.6,25.51h-8.83c-.17,0-.3.14-.3.3s.14.3.3.3h8.83c.17,0,.3-.14.3-.3s-.14-.3-.3-.3Z" style="fill:#869cb3; opacity:.3; stroke-width:0px;"/><path d="M81.72,25.81c0,.09.08.16.19.16h4.23v-.32h-4.23c-.1,0-.19.07-.19.16Z" style="fill:#fff; stroke-width:0px;"/><path d="M90.6,27.06h-8.83c-.17,0-.3.14-.3.3s.14.3.3.3h8.83c.17,0,.3-.14.3-.3s-.14-.3-.3-.3Z" style="fill:#869cb3; opacity:.3; stroke-width:0px;"/><path d="M81.72,27.36c0,.09.08.16.19.16h6.18v-.32h-6.18c-.1,0-.19.07-.19.16Z" style="fill:#fff; stroke-width:0px;"/><path d="M90.6,28.54h-8.83c-.17,0-.3.14-.3.3s.14.3.3.3h8.83c.17,0,.3-.14.3-.3s-.14-.3-.3-.3Z" style="fill:#869cb3; opacity:.3; stroke-width:0px;"/><path d="M81.72,28.84c0,.09.08.16.19.16h4.86v-.32h-4.86c-.1,0-.19.07-.19.16Z" style="fill:#fff; stroke-width:0px;"/><g style="opacity:.3;"><path d="M92.96,6.25h-9.99s-.04.02-.04.04v12.74s.02.04.04.04h9.99s.04-.02.04-.04V6.29s-.02-.04-.04-.04ZM92.91,18.99h-9.9V6.34h9.9v12.65Z" style="fill:none; stroke:#869cb3; stroke-miterlimit:10; stroke-width:.5px;"/></g><path d="M67.15,10.95c-.99,0-1.3-.92-1.3-1.79,0-.94.35-1.76,1.27-1.76.7,0,.97.4,1.08.79h1.11c-.13-.86-.79-1.66-2.16-1.66-1.66,0-2.46,1.26-2.46,2.67s.77,2.62,2.4,2.62c1.29,0,2.01-.7,2.22-1.66h-1.12c-.1.3-.33.79-1.05.79Z" style="fill:#869cb3; stroke-width:0px;"/><path d="M72.78,9c-.24.73-.45,1.36-.55,1.84h-.01c-.12-.53-.3-1.14-.53-1.85l-.76-2.38h-1.19l1.81,5.14h1.31l1.86-5.14h-1.13l-.8,2.39Z" style="fill:#869cb3; stroke-width:0px;"/><path d="M89.8,8.47s-.07,0-.08,0c-.02,0-.03-.02-.03-.04,0-.02.02-.03.04-.03,0,0,.33.06.47-.12.01-.01.03-.02.05,0,.01.01.02.03,0,.05-.12.15-.34.16-.46.15Z" style="fill:#fff; stroke:#8399b0; stroke-miterlimit:10; stroke-width:.5px;"/><path d="M88.96,8.29s0,0,0,0c-.32-.12-.39-.63-.4-.65,0-.02.01-.04.03-.04.02,0,.04.01.04.03,0,0,.08.49.35.6.02,0,.03.03.02.04,0,.01-.02.02-.03.02Z" style="fill:#fff; stroke:#8399b0; stroke-miterlimit:10; stroke-width:.5px;"/><path d="M88.92,8.25s-.25-.5-.13-.77c.21-.48,1.47-.14,1.4.27-.06.43-.41.73-.53.75-.11.02-.75-.25-.75-.25Z" style="fill:#fff; stroke:#8399b0; stroke-miterlimit:10; stroke-width:.5px;"/><path d="M88.85,8.21s-.04.07.02.15c.07.08.88.35.93.25.05-.1.2-.3-.95-.4Z" style="fill:#fff; stroke:#8399b0; stroke-miterlimit:10; stroke-width:.5px;"/><path d="M91.29,14.45c-.8-.23-1.31-.32-1.49-.58-.22-.31.03-1.8.03-2.07,0-.27-1.64-.49-1.64-.49,0,0-.25,1.95-.61,2.27-.63.56-2.85.32-1.73,1.82.25.34,4.79.35,5.36.31.42-.03.66-1.09.07-1.26Z" style="fill:#fff; stroke:#8399b0; stroke-miterlimit:10; stroke-width:.5px;"/><path d="M90.06,9.29c-.92-.99-2.33-.71-3.11.39-.63.9-.74,2.46-.08,3.08,1.15,1.08,3.09-.08,3.56-1.89.17-.65-.01-1.19-.37-1.58Z" style="fill:#fff; stroke:#8399b0; stroke-miterlimit:10; stroke-width:.5px;"/><path d="M90.78,14.11c-.31-.41-.21-1.54-.08-2.02.12-.48.33-.94.34-1.44,0-.14,0-.28-.04-.42-.12-.61-.54-1.17-1.08-1.51-.67-.42-1.51-.54-2.28-.4-.34.06-.68.17-.95.38-.27.21-.5.52-.54.86-.03.32.21.72.19,1.57.19-.95.96-.65,1.41-1.35,0,0,.28.95,1.47,1.7.85.54.11,1.97.57,2.4" style="fill:#fff; stroke:#8399b0; stroke-miterlimit:10; stroke-width:.5px;"/><path d="M91.84,18.99l.47-2.75c.07-.36-.11-1.46-.42-1.64-.49-.27-.98-.53-1.88-.7-.35.14-1.35,1.6-2.94-.13-.72.16-1.27.42-1.61.62-.25.14-.41.4-.43.69-.04.73-.13,2.29-.19,3.91h7Z" style="fill:#fff; stroke:#8399b0; stroke-miterlimit:10; stroke-width:.5px;"/><path d="M85.1,18.99c-.1-1.16-.04-3.42-.04-3.42l-1.51,1.78s-.25.78-.27,1.64h1.82Z" style="fill:#fff; stroke:#8399b0; stroke-miterlimit:10; stroke-width:.5px;"/><path d="M92.91,17.69l-.99-1.13s-.08,1.3-.19,2.43h1.18v-1.3Z" style="fill:#fff; stroke:#8399b0; stroke-miterlimit:10; stroke-width:.5px;"/><path d="M83.01,18.99h2.47c.13-1.58.11-4.11-.2-4.32,0,0-1.86,1.27-2.27,4.32Z" style="fill:#fff; stroke:#8399b0; stroke-miterlimit:10; stroke-width:.5px;"/><path d="M92.08,14.83s-.55,2.58-.58,4.17h1.5v-2.97c-.48-.83-.92-1.2-.92-1.2Z" style="fill:#fff; stroke:#8399b0; stroke-miterlimit:10; stroke-width:.5px;"/><polygon points="75.4 31.94 77.76 29.54 96.4 29.54 96.4 51.57 57.37 51.57 57.37 31.94 75.4 31.94" style="fill:#dce2e7; stroke:#8399b0; stroke-miterlimit:10; stroke-width:.48px;"/><polygon points="59.69 34.11 75.4 31.94 57.37 31.94 57.37 51.57 57.78 51.57 59.69 34.11" style="fill:#849bb2; opacity:.3; stroke-width:0px;"/><path d="M96.4,31.71c-.48,2.26-1.14,4.5-2.04,6.46-.75,1.64-3.01,6.42-8.15,9.36-3.07,1.75-5.91,2.13-7.38,2.31-3.88.48-9.5,1.07-16.52,1.72h34.09v-19.85Z" style="fill:#849bb2; opacity:.3; stroke-width:0px;"/><rect x="39.44" y="54.42" width="64.99" height="3.03" style="fill:#849bb2; opacity:.3; stroke-width:0px;"/><rect x="39.44" y="54.42" width="38.24" height="3.03" style="fill:#849bb2; stroke-width:0px;"/><polygon points="41.78 54.42 43.65 54.42 41.78 57.45 39.86 57.45 41.78 54.42" style="fill:#dce2e7; opacity:.8; stroke-width:0px;"/><polygon points="46.53 54.42 48.4 54.42 46.53 57.45 44.62 57.45 46.53 54.42" style="fill:#dce2e7; opacity:.8; stroke-width:0px;"/><polygon points="51.29 54.42 53.15 54.42 51.29 57.45 49.37 57.45 51.29 54.42" style="fill:#dce2e7; opacity:.8; stroke-width:0px;"/><polygon points="56.04 54.42 57.91 54.42 56.04 57.45 54.13 57.45 56.04 54.42" style="fill:#dce2e7; opacity:.8; stroke-width:0px;"/><polygon points="60.79 54.42 62.66 54.42 60.79 57.45 58.88 57.45 60.79 54.42" style="fill:#dce2e7; opacity:.8; stroke-width:0px;"/><polygon points="65.55 54.42 67.41 54.42 65.55 57.45 63.63 57.45 65.55 54.42" style="fill:#dce2e7; opacity:.8; stroke-width:0px;"/><polygon points="70.3 54.42 72.17 54.42 70.3 57.45 68.39 57.45 70.3 54.42" style="fill:#dce2e7; opacity:.8; stroke-width:0px;"/><polygon points="75.05 54.42 76.92 54.42 75.05 57.45 73.14 57.45 75.05 54.42" style="fill:#dce2e7; opacity:.8; stroke-width:0px;"/><g style="opacity:.21;"><g style="clip-path:url(#g);"><path d="M99.03,28.34l28.87,18.88c.09-.2.18-.41.27-.62l-28.34-18.54c-.26.1-.53.19-.8.28Z" style="fill:#8399b0; stroke-width:0px;"/><path d="M96.73,29.03l30.38,19.78c.09-.17.18-.34.27-.52l-29.9-19.48c-.25.07-.51.14-.76.21Z" style="fill:#8399b0; stroke-width:0px;"/><path d="M94.38,29.54s-.01.07-.02.11c-.03,0-.06,0-.1.01l31.92,20.81c.1-.16.2-.33.3-.5l-31.48-20.53c-.2.04-.41.07-.61.11Z" style="fill:#8399b0; stroke-width:0px;"/><path d="M94.55,32.18l30.57,19.9c.11-.16.22-.32.33-.48l-31.01-20.19c.04.26.07.52.11.77Z" style="fill:#8399b0; stroke-width:0px;"/><path d="M95.01,34.7l29,18.85c.12-.15.24-.3.36-.46l-29.52-19.2c.05.27.1.54.16.8Z" style="fill:#8399b0; stroke-width:0px;"/><path d="M95.57,37.06l27.32,17.82c.13-.14.26-.29.39-.44l-27.92-18.22c.07.29.14.56.22.84Z" style="fill:#8399b0; stroke-width:0px;"/><path d="M96.39,39.81l25.21,16.42c.14-.14.28-.28.42-.42l-25.92-16.89c.09.3.19.6.29.89Z" style="fill:#8399b0; stroke-width:0px;"/><path d="M97.51,42.74l22.71,14.79c.15-.13.3-.26.45-.4l-23.55-15.35c.13.32.26.64.39.96Z" style="fill:#8399b0; stroke-width:0px;"/><path d="M98.86,45.57l20.03,13.05c.15-.12.32-.25.48-.38l-21.04-13.71c.17.35.35.71.53,1.04Z" style="fill:#8399b0; stroke-width:0px;"/><path d="M101.4,49.58l15.76,10.27c.15-.1.33-.21.53-.35l-17.2-11.21c.3.45.6.88.91,1.29Z" style="fill:#8399b0; stroke-width:0px;"/><path d="M115.41,59.9l-11.87-7.74c4.64,5.02,9.66,7.04,11.87,7.74Z" style="fill:#8399b0; stroke-width:0px;"/><path d="M101.15,27.56l27.45,17.98c.08-.21.15-.43.22-.64l-26.92-17.64c-.25.1-.5.21-.75.31Z" style="fill:#8399b0; stroke-width:0px;"/><path d="M103.27,26.66l25.96,16.97c.06-.22.13-.43.19-.65l-25.45-16.64c-.23.11-.47.22-.7.32Z" style="fill:#8399b0; stroke-width:0px;"/><path d="M105.55,25.57l24.19,16.09c.05-.2.1-.4.14-.61l-23.73-15.79c-.2.1-.4.2-.6.31Z" style="fill:#8399b0; stroke-width:0px;"/><path d="M107.75,24.41l22.42,15c.03-.21.06-.43.08-.65l-21.93-14.67c-.19.11-.38.21-.57.32Z" style="fill:#8399b0; stroke-width:0px;"/><path d="M109.79,23.23l20.64,13.56c.01-.22.03-.45.03-.68l-20.12-13.23c-.17.11-.36.22-.56.34Z" style="fill:#8399b0; stroke-width:0px;"/><path d="M111.97,21.85l18.51,12.2c0-.24-.01-.47-.02-.71l-16.28-10.74c-1.18-.55-1.87-.98-1.87-.98,0,0-.12.08-.33.23Z" style="fill:#8399b0; stroke-width:0px;"/><path d="M130.26,30.88l-9.15-6.04c-.56-.11-1.09-.23-1.61-.36l10.85,7.15c-.02-.25-.06-.51-.09-.76Z" style="fill:#8399b0; stroke-width:0px;"/><path d="M124.06,25.23l5.97,3.94c-.04-.26-.09-.53-.14-.79l-4.69-3.1c-.38-.01-.77-.02-1.14-.05Z" style="fill:#8399b0; stroke-width:0px;"/><path d="M129.62,26.94c-.06-.27-.13-.55-.19-.83l-1.4-.92c-.32.03-.64.06-.95.07l2.54,1.68Z" style="fill:#8399b0; stroke-width:0px;"/></g></g><g style="opacity:.3;"><path d="M121.97,12.21c-.1,0-.19,0-.29,0-.32-1.85-1.93-3.26-3.87-3.26-.89,0-1.71.29-2.36.79-.71-1.25-2.06-2.1-3.6-2.1-2.29,0-4.14,1.85-4.14,4.14,0,.14,0,.29.02.43-.09,0-.19,0-.28,0-2.29,0-4.14,1.85-4.14,4.14s1.85,4.14,4.14,4.14h14.52c2.29,0,4.14-1.85,4.14-4.14s-1.85-4.14-4.14-4.14Z" style="fill:none; stroke:#b0bbce; stroke-miterlimit:10; stroke-width:.63px;"/><path d="M121.97,12.21c-.1,0-.19,0-.29,0-.32-1.85-1.93-3.26-3.87-3.26-.89,0-1.71.29-2.36.79-.71-1.25-2.06-2.1-3.6-2.1-2.29,0-4.14,1.85-4.14,4.14,0,.14,0,.29.02.43-.09,0-.19,0-.28,0-2.29,0-4.14,1.85-4.14,4.14s1.85,4.14,4.14,4.14h14.52c2.29,0,4.14-1.85,4.14-4.14s-1.85-4.14-4.14-4.14Z" style="fill:none; stroke:#b0bbce; stroke-miterlimit:10; stroke-width:.63px;"/></g><g style="opacity:.3;"><path d="M22.77,14.34c-.07,0-.14,0-.21,0-.24-1.37-1.43-2.42-2.87-2.42-.66,0-1.27.22-1.75.59-.53-.93-1.53-1.56-2.67-1.56-1.69,0-3.07,1.37-3.07,3.07,0,.11,0,.21.02.32-.07,0-.14,0-.21,0-1.69,0-3.07,1.37-3.07,3.07s1.37,3.07,3.07,3.07h10.77c1.69,0,3.07-1.37,3.07-3.07s-1.37-3.07-3.07-3.07Z" style="fill:none; stroke:#b0bbce; stroke-miterlimit:10; stroke-width:.63px;"/><path d="M22.77,14.34c-.07,0-.14,0-.21,0-.24-1.37-1.43-2.42-2.87-2.42-.66,0-1.27.22-1.75.59-.53-.93-1.53-1.56-2.67-1.56-1.69,0-3.07,1.37-3.07,3.07,0,.11,0,.21.02.32-.07,0-.14,0-.21,0-1.69,0-3.07,1.37-3.07,3.07s1.37,3.07,3.07,3.07h10.77c1.69,0,3.07-1.37,3.07-3.07s-1.37-3.07-3.07-3.07Z" style="fill:none; stroke:#b0bbce; stroke-miterlimit:10; stroke-width:.63px;"/></g><g style="opacity:.3;"><path d="M33.02,29.97s-.1,0-.14,0c-.16-.94-.98-1.65-1.97-1.65-.45,0-.87.15-1.2.4-.36-.64-1.04-1.07-1.83-1.07-1.16,0-2.1.94-2.1,2.1,0,.07,0,.15.01.22-.05,0-.1,0-.14,0-1.16,0-2.1.94-2.1,2.1s.94,2.1,2.1,2.1h7.38c1.16,0,2.1-.94,2.1-2.1s-.94-2.1-2.1-2.1Z" style="fill:none; stroke:#b0bbce; stroke-miterlimit:10; stroke-width:.63px;"/><path d="M33.02,29.97s-.1,0-.14,0c-.16-.94-.98-1.65-1.97-1.65-.45,0-.87.15-1.2.4-.36-.64-1.04-1.07-1.83-1.07-1.16,0-2.1.94-2.1,2.1,0,.07,0,.15.01.22-.05,0-.1,0-.14,0-1.16,0-2.1.94-2.1,2.1s.94,2.1,2.1,2.1h7.38c1.16,0,2.1-.94,2.1-2.1s-.94-2.1-2.1-2.1Z" style="fill:none; stroke:#b0bbce; stroke-miterlimit:10; stroke-width:.63px;"/></g><path d="M66.27,4.02c.05.59.03.81-.45.75s-1.07.09-1.22,0c-.44-.22-.62-1.1-.4-1.16.49-.12,1.26-.26,1.52-.15.39.17.55.55.55.55Z" style="fill:#fff; stroke:#8399b0; stroke-miterlimit:10; stroke-width:.5px;"/></g></svg>