<svg xmlns="http://www.w3.org/2000/svg" xmlns:xlink="http://www.w3.org/1999/xlink" viewBox="0 0 140 60"><defs><style>.a,.f{fill:none;}.b{isolation:isolate;}.c{clip-path:url(#a);}.d,.h{fill:#e9f0f7;}.e{opacity:0.64;}.f{stroke:#b0bbce;stroke-linecap:round;stroke-width:0.63px;}.f,.i{stroke-miterlimit:10;}.g{opacity:0.5;}.h,.j{mix-blend-mode:multiply;}.i{fill:#fff;stroke:#869cb3;stroke-width:0.44px;}.k,.l{fill:#869cb3;}.l{opacity:0.4;}</style><clipPath id="a"><rect class="a" width="140" height="60"/></clipPath></defs><g class="b"><g class="c"><rect class="d" x="17.23" y="17.75" width="84.86" height="36.77" rx="7.55"/><path class="d" d="M120.21,7l.24-.19L132,18.36l-.31.11Z"/><path class="d" d="M119.58,7.59l.2-.22,11.29,11.29c-.12,0-.24,0-.36.06Z"/><path class="d" d="M121,6.41l.27-.15,11.65,11.65a2.26,2.26,0,0,1-.26.16Z"/><path class="d" d="M121.81,6l.31-.11,11.47,11.48-.22.2Z"/><path class="d" d="M118.35,10.2h.05c0-.1,0-.2.07-.31l8.89,8.9h-.42Z"/><path class="d" d="M115.25,9.65a4.11,4.11,0,0,1,1.08.82l.13,0,8.35,8.35h-.42Z"/><path class="d" d="M118.65,9.22l.12-.3,9.87,9.87h-.42Z"/><path class="d" d="M122.8,5.71l.37,0,11,11-.19.23Z"/><path class="d" d="M124,5.64l.45,0,10.26,10.26a2.2,2.2,0,0,1-.15.26Z"/><path class="d" d="M128.25,3.49a1.68,1.68,0,0,1,.32-.09l3.49,3.48a3.37,3.37,0,0,1-.09.34Z"/><path class="d" d="M129.37,3.33a2.65,2.65,0,0,1,.48.07l2.22,2.21a3.86,3.86,0,0,1,.06.49Z"/><path class="d" d="M127.42,3.94a2.2,2.2,0,0,1,.25-.17l4,4c-.05.08-.1.17-.16.25a5.46,5.46,0,0,1,.67.26l2.7,2.7a5,5,0,0,1,.25.68Z"/><path class="d" d="M125.58,5.94a5.42,5.42,0,0,1,.7.29h0l8.83,8.83c0,.1-.07.2-.11.3Z"/><path class="d" d="M119.22,8.09l10.69,10.7h-.42L119.06,8.35Z"/><path class="d" d="M126.39,5.47a2,2,0,0,1,.11-.32L135.35,14c0,.12,0,.24,0,.36Z"/><path class="d" d="M126.8,4.6a1.08,1.08,0,0,1,.18-.24l8.39,8.39c0,.15,0,.3,0,.45Z"/><path class="d" d="M117.16,10.28l.37,0,8.55,8.56h-.42Z"/><path class="d" d="M104.83,15.83h.42l3,3h-.42Z"/><path class="d" d="M107.84,15a1.45,1.45,0,0,1,.26-.17L112,18.79h-.42Z"/><path class="d" d="M107.2,15.65a2.09,2.09,0,0,1,.2-.22l3.36,3.36h-.42Z"/><path class="d" d="M103.83,16.11l.29-.13,2.81,2.81h-.43Z"/><path class="d" d="M106.49,16.21l.26.17a2.12,2.12,0,0,0,.11-.21l2.62,2.62h-.42Z"/><path class="d" d="M103.08,16.64l.22-.2,2.35,2.35h-.42Z"/><path class="d" d="M113.51,9.19a3.42,3.42,0,0,1,.46,0l9.56,9.56h-.42Z"/><path class="d" d="M102.55,17.38a1.82,1.82,0,0,1,.15-.27l1.67,1.68H104Z"/><path class="d" d="M102.27,18.38c0-.13,0-.25,0-.37l.78.78h-.42Z"/><path class="d" d="M111.44,9.67l.28-.14L121,18.79h-.43Z"/><path class="d" d="M110.08,10.87l.18-.24,8.16,8.16H118Z"/><path class="d" d="M110.69,10.2a2.11,2.11,0,0,1,.23-.19l8.78,8.78h-.42Z"/><path class="d" d="M112.36,9.31l.35-.07,9.54,9.55h-.42Z"/><path class="d" d="M109.62,11.69a2.59,2.59,0,0,1,.14-.29l7.38,7.39h-.42Z"/><path class="d" d="M108.66,14.55l.31-.11,4.34,4.35h-.42Z"/><path class="d" d="M109.4,14a3.85,3.85,0,0,1-.07-.49l5.26,5.26h-.42Z"/><path class="d" d="M109.35,12.69c0-.12,0-.23.07-.35l6.45,6.45h-.42Z"/><g class="e"><line class="f" x1="29.73" y1="13.85" x2="41.08" y2="13.85"/><line class="f" x1="25.4" y1="13.85" x2="28.2" y2="13.85"/><polyline class="f" points="38.08 15.1 41.63 13.86 38.08 12.61"/><path class="f" d="M96.55,48a2.78,2.78,0,0,0,3,0h0a2.74,2.74,0,0,1,3,0h0a2.78,2.78,0,0,0,3,0h0a2.74,2.74,0,0,1,3,0h0a2.78,2.78,0,0,0,3,0h0a2.74,2.74,0,0,1,3,0h0a2.78,2.78,0,0,0,3,0"/><g class="g"><path class="f" d="M133.12,26.93l-12.6.88a36.71,36.71,0,0,0-18.76,6.73h0A20.93,20.93,0,0,1,85.32,38l-9-1.9A12.48,12.48,0,0,0,64.53,39.9h0a12.31,12.31,0,0,1-5.33,3.46L42.54,48.85a15,15,0,0,1-11.8-1h0a15,15,0,0,0-11.59-1.09L6.86,50.58"/><line class="f" x1="133.03" y1="25.2" x2="133.24" y2="28.63"/><line class="f" x1="6.4" y1="48.92" x2="7.39" y2="52.21"/><line class="f" x1="111.84" y1="29.5" x2="111.06" y2="27.31"/><line class="f" x1="86.11" y1="38.05" x2="85.79" y2="40.1"/><line class="f" x1="59.34" y1="42.97" x2="58.82" y2="41.4"/><line class="f" x1="33.76" y1="49.07" x2="33.27" y2="50.98"/></g><path class="f" d="M23.3,37.2c-1.29,2.22-3.37,5.31-4.88,7.51l-.38.55-.38-.55c-1-1.5-4.31-6.45-4.8-7.28a6.44,6.44,0,0,1-.77-4.75,6.21,6.21,0,0,1,6-4.63h0a5.86,5.86,0,0,1,2.51.56,6.19,6.19,0,0,1,2.7,8.59Z"/><path class="f" d="M18,38a3.69,3.69,0,1,1,3.69-3.69A3.7,3.7,0,0,1,18,38Z"/></g><path class="h" d="M83.7,38h0l0,0-.12-.12,0,0-.2-.11-1.43-.46a2.49,2.49,0,0,0-1.43,0l-1.33.37h0l-.07,0h0l-.65.18h0l-.06,0h0l-.46.12h0l-.32.09h0l-.22.06h0L77,38.1h0l-.22.06h0l-.32.09h0l-.22.06h0L76,38.4h0l-.22.06h0l-.24.06-.3.09h0l-.31.08-.23.07h0l-.32.08h0l-.36.1-.18.05h0l-.3.08-.24.07h0l-.76.21h0l0,0-.52-.55h0l-.68-.72-1.41-1.49.16,0a.46.46,0,0,0,.17-.09.39.39,0,0,0,.11-.4l-.27-1a.4.4,0,0,0-.49-.28l-.74.2h0l-.36.1-1.85-2h0l1-.26a.41.41,0,0,0,.28-.49l-.28-1a.39.39,0,0,0-.48-.28l-1.91.53h0l-2.82-3-1.64,0h0l-.21-.19h-.72l.12.2h-.11l1.46,2.45,0,.09h0l-.93.29h0l1-.23,1,1.61h0L62,33l-.75.33a.2.2,0,0,0-.11.24l.07.27a.21.21,0,0,0,.22.15l.81-.11.51-.14.89,1.52,0,0-1.12.35h0l1.16-.28h0l.77,1.3h0l-.16.07-.59.26a.2.2,0,0,0-.11.24l.07.27a.2.2,0,0,0,.22.14l.81-.1.26-.07.78,1.3.07.13.19.32-1,.31h0L66,39.29l.12.21.46.77.35.6-.16.05-.27.07h0l-.23.06-1.15.32h0l-.23.06h0l-.31.09h0l-.23.06h0l-.1,0-.44.12h0l-.13,0-1.37.37h0l-.06,0h0l-.81.22-.1,0h0l-.37.11-.17,0h0l-.33.09-.21.06h0L60,42.8l-.23.06h0l-.23.06h0l-.09,0-1.15.32a3.83,3.83,0,0,0-.76.28l-.06-.06-2.83-3L52,40.44l.33.55h0l2.46,4,.22.37-.61.47-.08.1a.13.13,0,0,0,0,0s0,0,0,0h0a.46.46,0,0,0,0,.2l-2.85.88h0l2.92-.71a.41.41,0,0,0,.29.17l.76.09v.43l-.06,5.36,2.22-1.38.16-.73h0l.73-3.29V47a4.32,4.32,0,0,0,.8-.14l.93-.25h0l.53-.15h0l.15,0,.39-.11h0l.21-.06,2-.54h0l.07,0,1-.27h0l.08,0,.46-.12h0l.1,0,1.77-.49.07,0h0l.37-.1.17,0h0l.22-.06h0l.21,0v1.83l-1,.32h0l1-.25h0v2h0l-.09,0-.17.05-.75.33a.21.21,0,0,0-.12.23l.08.28a.21.21,0,0,0,.22.14l.81-.1h0v1.51h0l-1.14.36h0L68,50.93v1.82l-.17,0h0l-.33.09-.75.33a.2.2,0,0,0-.11.24l.07.27a.2.2,0,0,0,.22.14l.81-.1.26-.07v1.88l-1,.29h0l1-.23v3l.09-.05v.23l.62-.38.09-.26,1.42-.83.89-4,.36-.1h0L73,52.78a.41.41,0,0,0,.28-.49l-.28-1a.4.4,0,0,0-.49-.28l-.61.17h0l-.36.1h0l.6-2.63h0l1.09-.31a.39.39,0,0,0,.28-.48l-.27-1a.4.4,0,0,0-.31-.28h0a.33.33,0,0,0-.17,0l-.16,0h0l.66-3,.17-.74,1.06-.29.07,0h0l.37-.1.17-.05h0l.28-.07.26-.08h0l.22-.06h0l.32-.09h0l.22-.06h0l.21-.06.33-.09h0l.16,0,.38-.1h0l.32-.09h0l.45-.13.09,0h0l.43-.12.11,0h0l2.58-.71A2.5,2.5,0,0,0,82.66,40l1-1.13A.74.74,0,0,0,83.7,38ZM69.82,36.61Z"/><polygon class="i" points="69.73 33.53 64.17 35.06 63.43 33.84 58.94 26.5 63.13 26.57 67.68 31.4 68.73 32.51 69.73 33.53"/><polygon class="i" points="63.96 27.45 63.13 26.57 58.94 26.5 59.47 27.37 63.96 27.45"/><polygon class="i" points="64.26 45.84 64.36 37.23 64.38 35.8 69.93 34.27 69.59 35.66 69.26 37.15 67.83 43.63 64.26 45.84"/><polygon class="i" points="68.09 42.45 67.83 43.63 64.26 45.84 64.28 44.82 68.09 42.45"/><polygon class="i" points="74.27 8.88 72.51 7.3 71.35 7.29 72.57 9.35 74.27 8.88"/><path class="i" d="M79.8,25.05h0l4-1.23a.14.14,0,0,1,.17.09h0a.14.14,0,0,1-.1.17Z"/><path class="i" d="M75.86,18.77h0l4-1.22a.13.13,0,0,1,.16.09h0a.14.14,0,0,1-.09.17Z"/><path class="i" d="M72.29,12.17h0l3.95-1.23a.14.14,0,0,1,.17.1h0a.13.13,0,0,1-.1.16Z"/><path class="i" d="M83.86,14.34l-5,1.39L78,12.91l5-1.39a.63.63,0,0,1,.79.44l.44,1.59A.65.65,0,0,1,83.86,14.34Z"/><path class="i" d="M79.51,14.78l-4.15,1.14-1.3.17a.34.34,0,0,1-.36-.24l-.12-.43a.32.32,0,0,1,.19-.38l1.2-.53,4.15-1.14Z"/><path class="i" d="M87.83,20.26l-5,1.39L82,18.83l5-1.4a.65.65,0,0,1,.79.45l.44,1.59a.63.63,0,0,1-.19.64A.61.61,0,0,1,87.83,20.26Z"/><g class="j"><polygon class="k" points="82.09 13.78 82.88 14.61 78.81 15.73 78.03 12.91 80.6 12.2 82.09 13.78"/></g><g class="j"><path class="k" d="M87.83,20.26l-5,1.39L82,18.83l3.87-1.07,1.87,2,.35.37A.61.61,0,0,1,87.83,20.26Z"/></g><path class="i" d="M83.47,20.7l-4.14,1.14L78,22a.33.33,0,0,1-.36-.24l-.12-.43a.34.34,0,0,1,.19-.39l1-.41.25-.11,4.14-1.14Z"/><polygon class="i" points="84.01 28.91 82.42 26.22 81.67 24.97 81.48 24.64 81.42 24.54 81.11 24.03 80.99 23.83 79.75 21.73 78.97 20.42 77.73 18.34 77.72 18.32 77.66 18.21 77.61 18.13 76.17 15.7 75.39 14.39 73.85 11.8 73.83 11.76 73.79 11.7 73.71 11.55 71.37 7.62 71.37 7.62 71.53 7.61 72.84 7.6 75.48 7.57 80.02 12.36 82.3 14.77 85.29 17.92 87.57 20.33 87.57 20.33 89.84 22.72 90.93 23.88 90.93 23.88 92.4 25.43 91.6 25.76 87.8 27.33 87.59 27.42 84.01 28.91"/><g class="j"><polygon class="k" points="79.12 13.37 79.51 14.78 75.86 15.78 75.86 15.78 75.86 15.78 75.08 14.48 79.12 13.37"/></g><g class="j"><polygon class="k" points="83.47 20.7 79.44 21.81 79.44 21.81 78.69 20.54 78.94 20.43 83.08 19.29 83.47 20.7"/></g><polygon class="i" points="84.01 28.91 84.01 28.91 82.42 26.22 81.67 24.97 81.48 24.64 81.42 24.54 81.11 24.03 80.99 23.83 79.75 21.73 78.97 20.42 77.73 18.34 77.72 18.32 77.66 18.21 77.61 18.14 76.17 15.7 76.16 15.7 75.39 14.39 73.85 11.8 73.83 11.76 73.79 11.7 73.7 11.56 71.37 7.62 71.54 7.62 72.84 7.6 75.48 7.57 80.02 12.36 82.3 14.77 85.29 17.92 87.57 20.33 89.84 22.72 90.93 23.88 92.4 25.43 92.4 25.43 87.81 27.34 87.59 27.43 84.01 28.91"/><polygon class="k" points="88.28 28.36 87.59 27.43 87.59 27.42 85.97 25.24 84.41 23.12 81.11 24.03 80.99 23.83 84.27 22.93 83.23 21.52 82.77 20.89 82.45 20.47 81.83 19.63 80.35 17.62 77.73 18.34 77.72 18.32 77.66 18.21 77.61 18.14 80.2 17.42 78.93 15.7 78.72 15.41 78.47 15.07 77.53 13.8 75.72 11.34 75.71 11.33 73.83 11.76 73.83 11.76 73.79 11.7 73.7 11.56 73.71 11.55 75.8 11.07 75.81 11.08 75.85 11.13 75.96 11.29 77.77 13.74 78.55 14.8 78.7 15 79.17 15.63 82.07 19.57 82.28 19.86 83 20.83 83.47 21.46 86.21 25.18 87.8 27.33 87.81 27.34 88.46 28.23 88.28 28.36"/><polygon class="k" points="91.6 25.76 90.05 24.12 86.69 20.57 84.4 18.16 81.42 15.01 79.14 12.6 74.95 8.19 73.18 7.91 71.56 7.65 71.37 7.62 71.54 7.62 72.84 7.6 75.48 7.57 80.02 12.36 82.3 14.77 85.29 17.92 87.57 20.33 87.57 20.33 89.84 22.72 90.93 23.88 92.4 25.43 92.4 25.43 91.6 25.76"/><polygon class="i" points="86.45 53.12 85.75 55.38 84.76 55.98 84.75 53.59 86.45 53.12"/><path class="i" d="M82.93,36.4h0l4-1a.13.13,0,0,0,.1-.16h0a.14.14,0,0,0-.17-.1Z"/><path class="i" d="M82.76,43.81h0l4-1a.12.12,0,0,0,.09-.16h0a.13.13,0,0,0-.16-.09Z"/><path class="i" d="M83.07,51.3h0l4-1a.14.14,0,0,0,.1-.17h0a.14.14,0,0,0-.17-.09Z"/><path class="i" d="M86.85,44.91l.78,2.82,5.05-1.39a.63.63,0,0,0,.44-.79L92.69,44a.64.64,0,0,0-.79-.44Z"/><path class="i" d="M82.4,47.42l.12.43a.32.32,0,0,0,.35.24l1.3-.17,4.15-1.14-.39-1.41-4.14,1.14L82.58,47A.33.33,0,0,0,82.4,47.42Z"/><path class="i" d="M87.23,37.79,88,40.62l5-1.4a.62.62,0,0,0,.44-.78l-.44-1.59a.64.64,0,0,0-.78-.45Z"/><g class="j"><polygon class="k" points="90.67 44.9 90.92 43.79 86.85 44.91 87.63 47.73 90.19 47.03 90.67 44.9"/></g><g class="j"><path class="k" d="M92.27,36.4l-5,1.39L88,40.62l3.87-1.07.59-2.66.12-.5A.65.65,0,0,0,92.27,36.4Z"/></g><path class="i" d="M82.78,40.3l.12.44a.32.32,0,0,0,.35.23l1.3-.16,4.15-1.14-.39-1.42L84.16,39.4l-1.2.52A.31.31,0,0,0,82.78,40.3Z"/><g class="j"><polygon class="k" points="88.34 46.77 87.95 45.36 84.31 46.37 84.31 46.37 84.31 46.37 84.31 47.88 88.34 46.77"/></g><g class="j"><polygon class="k" points="88.33 38.25 84.3 39.36 84.3 39.36 84.3 40.84 84.58 40.8 88.72 39.66 88.33 38.25"/></g><polygon class="i" points="84.6 51.11 84.6 51.11 84.6 50.94 84.6 50.87 84.6 50.83 84.59 47.81 84.59 46.29 84.59 43.46 84.59 43.37 84.59 43.37 84.59 43.25 84.59 43.22 84.58 40.8 84.58 39.28 84.58 36.84 84.58 36.6 84.58 36.01 84.58 35.89 84.57 34.05 84.57 30.93 88.4 30.37 88.63 30.34 92.7 29.74 93.56 29.62 93.09 31.71 92.02 36.47 91.29 39.71 90.34 43.95 89.61 47.18 88.17 53.62 85.88 54.95 84.76 55.61 84.61 55.69 84.6 51.11"/><polygon class="i" points="84.61 55.69 84.6 51.11 84.6 50.94 84.6 50.87 84.6 50.83 84.59 47.81 84.59 46.29 84.59 43.46 84.59 43.37 84.59 43.25 84.59 43.22 84.58 40.8 84.58 39.28 84.58 36.84 84.58 36.6 84.58 36.01 84.58 35.89 84.57 34.05 84.57 30.93 88.4 30.37 88.63 30.34 92.7 29.74 93.56 29.62 93.09 31.71 92.02 36.47 91.29 39.71 90.34 43.95 89.61 47.18 88.17 53.62 85.88 54.95 84.76 55.61 84.61 55.69"/><polygon class="k" points="84.6 51.11 84.6 51.11 84.6 50.94 84.6 50.87 86.44 50.28 86.44 50.26 86.74 47.22 86.89 45.66 86.94 45.23 86.97 44.87 87.18 42.74 84.59 43.46 84.59 43.37 84.59 43.25 84.59 43.22 87.2 42.5 87.45 40.01 87.55 38.98 87.6 38.45 87.68 37.67 87.85 35.94 84.58 36.84 84.58 36.6 87.87 35.69 88.13 33.07 88.4 30.37 88.51 29.21 88.74 29.23 88.63 30.34 88.37 33.01 87.92 37.6 87.84 38.38 87.72 39.59 87.69 39.94 87.21 44.81 87.13 45.59 87.11 45.84 86.98 47.15 86.68 50.19 86.66 50.38 86.65 50.44 86.65 50.45 84.6 51.11"/><polygon class="k" points="84.61 55.69 84.76 55.57 86.02 54.52 87.4 53.37 88.73 47.43 89.46 44.19 90.41 39.95 91.13 36.71 92.2 31.95 92.7 29.74 93.56 29.62 93.09 31.71 92.02 36.47 91.29 39.71 90.34 43.95 89.61 47.18 88.17 53.62 85.88 54.95 84.76 55.61 84.61 55.69"/><path class="l" d="M68.73,32.51l1,1-5.56,1.53-.74-1.22,1.49-1.16a6.71,6.71,0,0,1,2.33-1.16l.43-.12Z"/><path class="l" d="M69.26,37.15l-.42.12a6.72,6.72,0,0,1-2.6.19l-1.88-.23,0-1.43,5.55-1.53-.34,1.39Z"/><path class="i" d="M106.27,27,70.58,36.79A6.72,6.72,0,0,1,68,37l-4.85-.6A.64.64,0,0,1,62.6,36a.67.67,0,0,1,.21-.77l3.85-3h0A6.68,6.68,0,0,1,69,31l35.69-9.84a4,4,0,0,1,2.31.06l2.29.75a1.18,1.18,0,0,1,.52,1.9l-1.58,1.82A4.07,4.07,0,0,1,106.27,27Z"/><path class="i" d="M58,37.25h0l12.13-3.76a.4.4,0,0,1,.51.28h0a.4.4,0,0,1-.3.5Z"/><path class="k" d="M106,22.09a2.19,2.19,0,0,0-1.27,0,2.26,2.26,0,0,0-.43.17,2.09,2.09,0,0,1,.83.11Z"/><path class="k" d="M107.32,23.41a2.18,2.18,0,0,0-1-1.19l-.86.24a2.17,2.17,0,0,1,1,1.19Z"/><path class="k" d="M106.94,25.53l-.88.24a2,2,0,0,1-.64.52,2.41,2.41,0,0,0,.44-.08A2.18,2.18,0,0,0,106.94,25.53Z"/><path class="k" d="M107.12,25.27a2.13,2.13,0,0,0,.28-1.55l-.86.23a2.15,2.15,0,0,1-.29,1.56Z"/><path class="k" d="M102.79,22.68l-.25-.89-.11,0,.25.89a.54.54,0,1,1-1.05.29l-.24-.89-.11,0,.25.89a.65.65,0,0,0,.8.46A.67.67,0,0,0,102.79,22.68Z"/><path class="k" d="M76.94,29.8l-.25-.88-.11,0,.25.88a.54.54,0,1,1-1,.29l-.24-.89-.11,0,.24.89a.66.66,0,0,0,.81.46A.67.67,0,0,0,76.94,29.8Z"/><path class="k" d="M100.43,22.94a.27.27,0,0,1-.33-.19l-.06-.2s0,0,0-.06l.51-.15,0,.06.05.21A.27.27,0,0,1,100.43,22.94Z"/><path class="k" d="M99.56,23.18a.27.27,0,0,1-.33-.19l-.06-.2s0,0,0-.06l.51-.15,0,.06,0,.21A.27.27,0,0,1,99.56,23.18Z"/><path class="k" d="M98.69,23.42a.27.27,0,0,1-.33-.19L98.3,23a.2.2,0,0,0,0-.07l.51-.14,0,.06,0,.2A.27.27,0,0,1,98.69,23.42Z"/><path class="k" d="M97.83,23.66a.28.28,0,0,1-.34-.19l0-.2a.17.17,0,0,1,0-.07l.51-.14s0,0,0,.06l.05.2A.27.27,0,0,1,97.83,23.66Z"/><path class="k" d="M97,23.9a.28.28,0,0,1-.34-.19l-.05-.2a.2.2,0,0,1,0-.07l.51-.14s0,0,0,.06l.06.2A.28.28,0,0,1,97,23.9Z"/><path class="k" d="M96.09,24.14a.28.28,0,0,1-.34-.19l0-.2a.2.2,0,0,1,0-.07l.51-.14a.14.14,0,0,1,0,.06l.06.2A.28.28,0,0,1,96.09,24.14Z"/><path class="k" d="M95.22,24.37a.27.27,0,0,1-.34-.18l0-.21a.13.13,0,0,1,0-.06l.51-.14a.14.14,0,0,1,0,.06l.06.2A.26.26,0,0,1,95.22,24.37Z"/><path class="k" d="M94.35,24.61a.26.26,0,0,1-.33-.18L94,24.22a.13.13,0,0,1,0-.06l.51-.14a.14.14,0,0,1,0,.06l.06.2A.27.27,0,0,1,94.35,24.61Z"/><path class="k" d="M93.48,24.85a.27.27,0,0,1-.33-.18l-.06-.21a.13.13,0,0,1,0-.06l.51-.14a.14.14,0,0,1,0,.06l.06.2A.27.27,0,0,1,93.48,24.85Z"/><path class="k" d="M91.74,25.33a.27.27,0,0,1-.33-.19l-.06-.2s0,0,0-.06l.51-.14,0,.06.05.2A.27.27,0,0,1,91.74,25.33Z"/><path class="k" d="M90.87,25.57a.27.27,0,0,1-.33-.19l-.06-.2s0,0,0-.06L91,25,91,25l0,.2A.27.27,0,0,1,90.87,25.57Z"/><path class="k" d="M90,25.81a.27.27,0,0,1-.33-.19l-.06-.2a.13.13,0,0,0,0-.06l.52-.14a.14.14,0,0,0,0,.06l0,.2A.27.27,0,0,1,90,25.81Z"/><path class="k" d="M89.14,26.05a.27.27,0,0,1-.34-.19l0-.2a.13.13,0,0,1,0-.06l.51-.14a.42.42,0,0,1,0,.06l0,.2A.27.27,0,0,1,89.14,26.05Z"/><path class="k" d="M88.27,26.29a.27.27,0,0,1-.34-.19l-.05-.2a.13.13,0,0,1,0-.06l.51-.14s0,0,0,.06l.06.2A.27.27,0,0,1,88.27,26.29Z"/><path class="k" d="M87.4,26.53a.28.28,0,0,1-.34-.19l0-.2a.13.13,0,0,1,0-.06l.51-.14a.08.08,0,0,1,0,.06l.06.2A.27.27,0,0,1,87.4,26.53Z"/><path class="k" d="M86.53,26.77a.28.28,0,0,1-.34-.19l0-.2a.13.13,0,0,1,0-.06l.51-.14a.08.08,0,0,1,0,.05l.06.21A.27.27,0,0,1,86.53,26.77Z"/><path class="k" d="M85.66,27a.27.27,0,0,1-.33-.19l-.06-.2a.13.13,0,0,1,0-.06l.51-.15a.14.14,0,0,1,0,.06l.06.21A.27.27,0,0,1,85.66,27Z"/><path class="k" d="M84.79,27.25a.27.27,0,0,1-.33-.19l-.06-.2a.15.15,0,0,1,0-.07l.51-.14a.14.14,0,0,1,0,.06l.06.21A.27.27,0,0,1,84.79,27.25Z"/><path class="k" d="M83.05,27.73a.27.27,0,0,1-.33-.19l-.06-.2s0-.05,0-.07l.51-.14,0,.06,0,.2A.27.27,0,0,1,83.05,27.73Z"/><path class="k" d="M82.18,28a.27.27,0,0,1-.33-.19l-.06-.2s0,0,0-.07l.51-.14,0,.06.05.2A.27.27,0,0,1,82.18,28Z"/><path class="k" d="M81.32,28.2A.27.27,0,0,1,81,28l0-.2a.64.64,0,0,0,0-.07l.52-.14s0,0,0,.06l0,.2A.26.26,0,0,1,81.32,28.2Z"/><path class="k" d="M80.45,28.44a.27.27,0,0,1-.34-.18l0-.21a.13.13,0,0,1,0-.06l.51-.14s0,0,0,.06l.06.2A.28.28,0,0,1,80.45,28.44Z"/><path class="k" d="M79.58,28.68a.27.27,0,0,1-.34-.18l0-.21a.13.13,0,0,1,0-.06l.51-.14s0,0,0,.06l.06.2A.27.27,0,0,1,79.58,28.68Z"/><path class="k" d="M78.71,28.92a.27.27,0,0,1-.34-.18l-.05-.21a.13.13,0,0,1,0-.06l.51-.14a.14.14,0,0,1,0,.06l.06.2A.27.27,0,0,1,78.71,28.92Z"/><path class="k" d="M77.84,29.16A.27.27,0,0,1,77.5,29l0-.2a.13.13,0,0,1,0-.06l.51-.14a.14.14,0,0,1,0,.06l.06.2A.27.27,0,0,1,77.84,29.16Z"/><path class="k" d="M74.36,30.12a.27.27,0,0,1-.33-.19l-.06-.2s0,0,0-.06l.51-.14,0,.06,0,.2A.27.27,0,0,1,74.36,30.12Z"/><path class="k" d="M73.49,30.36a.27.27,0,0,1-.33-.19L73.1,30a.13.13,0,0,0,0-.06l.51-.14a.16.16,0,0,1,0,.06l.05.2A.27.27,0,0,1,73.49,30.36Z"/><path class="k" d="M72.63,30.6a.28.28,0,0,1-.34-.19l-.06-.2a.13.13,0,0,0,0-.06l.52-.14,0,0,0,.21A.27.27,0,0,1,72.63,30.6Z"/><path class="k" d="M71.76,30.84a.28.28,0,0,1-.34-.19l0-.2a.13.13,0,0,1,0-.06l.51-.15s0,0,0,.06l.06.21A.28.28,0,0,1,71.76,30.84Z"/><path class="k" d="M70.89,31.08a.28.28,0,0,1-.34-.19l0-.2a.13.13,0,0,1,0-.06l.51-.15s0,0,0,.06l.06.21A.27.27,0,0,1,70.89,31.08Z"/><path class="k" d="M101.73,27.65a.27.27,0,0,0-.19.33l0,.2,0,.06.51-.14s0,0,0-.06l-.06-.21A.27.27,0,0,0,101.73,27.65Z"/><path class="k" d="M100.86,27.89a.27.27,0,0,0-.19.33l.06.2a.14.14,0,0,0,0,.06l.51-.14a.13.13,0,0,0,0-.06l-.06-.21A.27.27,0,0,0,100.86,27.89Z"/><path class="k" d="M100,28.12a.28.28,0,0,0-.19.34l.06.2a.14.14,0,0,0,0,.06l.51-.14a.13.13,0,0,0,0-.06l-.06-.21A.28.28,0,0,0,100,28.12Z"/><path class="k" d="M99.12,28.36a.28.28,0,0,0-.19.34l.06.2A.14.14,0,0,0,99,29l.51-.14a.13.13,0,0,0,0-.06l-.06-.21A.26.26,0,0,0,99.12,28.36Z"/><path class="k" d="M98.25,28.6a.28.28,0,0,0-.19.34l.06.2a.14.14,0,0,0,0,.06l.51-.14a.2.2,0,0,0,0-.07l0-.2A.28.28,0,0,0,98.25,28.6Z"/><path class="k" d="M97.38,28.84a.28.28,0,0,0-.19.34l.06.2s0,0,0,.06l.51-.14a.2.2,0,0,0,0-.07l0-.2A.28.28,0,0,0,97.38,28.84Z"/><path class="k" d="M96.52,29.08a.29.29,0,0,0-.2.34l.06.2s0,0,0,.06l.51-.14a.2.2,0,0,0,0-.07l-.05-.2A.27.27,0,0,0,96.52,29.08Z"/><path class="k" d="M95.65,29.32a.27.27,0,0,0-.19.33l.05.21a.14.14,0,0,1,0,.06l.52-.14a.2.2,0,0,1,0-.07l-.06-.2A.27.27,0,0,0,95.65,29.32Z"/><path class="k" d="M94.78,29.56a.27.27,0,0,0-.19.33l0,.21,0,.06.51-.14a.2.2,0,0,1,0-.07l-.06-.2A.27.27,0,0,0,94.78,29.56Z"/><path class="k" d="M93,30a.27.27,0,0,0-.19.33l.05.2a.16.16,0,0,0,0,.06l.51-.14s0,0,0-.06l-.06-.2A.27.27,0,0,0,93,30Z"/><path class="k" d="M92.17,30.28a.27.27,0,0,0-.19.33l.06.2a.08.08,0,0,0,0,.06l.51-.14a.13.13,0,0,0,0-.06l-.06-.2A.27.27,0,0,0,92.17,30.28Z"/><path class="k" d="M91.3,30.52a.27.27,0,0,0-.19.33l.06.2a.11.11,0,0,0,0,.06L91.7,31a.13.13,0,0,0,0-.06l-.06-.2A.26.26,0,0,0,91.3,30.52Z"/><path class="k" d="M90.43,30.76a.27.27,0,0,0-.19.33l.06.2a.11.11,0,0,0,0,.06l.51-.14a.13.13,0,0,0,0-.06l0-.2A.27.27,0,0,0,90.43,30.76Z"/><path class="k" d="M89.56,31a.27.27,0,0,0-.19.33l.06.2a.14.14,0,0,0,0,.06l.51-.14a.13.13,0,0,0,0-.06l0-.2A.27.27,0,0,0,89.56,31Z"/><path class="k" d="M88.7,31.24a.27.27,0,0,0-.2.33l.06.2s0,0,0,.06l.51-.14a.13.13,0,0,0,0-.06l0-.2A.27.27,0,0,0,88.7,31.24Z"/><path class="k" d="M87.83,31.48a.28.28,0,0,0-.2.33l.06.2s0,0,0,.06l.51-.14a.13.13,0,0,0,0-.06l0-.21A.27.27,0,0,0,87.83,31.48Z"/><path class="k" d="M87,31.72a.27.27,0,0,0-.19.33l0,.2a.14.14,0,0,1,0,.06l.52-.14s0,0,0-.06l0-.21A.27.27,0,0,0,87,31.72Z"/><path class="k" d="M86.09,32a.28.28,0,0,0-.19.34l0,.2,0,.06.51-.14s0,0,0-.06l-.06-.21A.28.28,0,0,0,86.09,32Z"/><path class="k" d="M84.35,32.43a.27.27,0,0,0-.19.34l0,.2,0,.06.51-.14s0,0,0-.07l-.06-.2A.27.27,0,0,0,84.35,32.43Z"/><path class="k" d="M83.48,32.67a.28.28,0,0,0-.19.34l.06.2a.14.14,0,0,0,0,.06l.51-.14a.2.2,0,0,0,0-.07l-.06-.2A.27.27,0,0,0,83.48,32.67Z"/><path class="k" d="M82.61,32.91a.28.28,0,0,0-.19.34l.06.2a.14.14,0,0,0,0,.06l.51-.14a.2.2,0,0,0,0-.07l-.06-.2A.27.27,0,0,0,82.61,32.91Z"/><path class="k" d="M81.74,33.15a.28.28,0,0,0-.19.34l.06.2a.14.14,0,0,0,0,.06l.51-.14a.2.2,0,0,0,0-.07l0-.2A.28.28,0,0,0,81.74,33.15Z"/><path class="k" d="M80.87,33.39a.27.27,0,0,0-.19.33l.06.21a.14.14,0,0,0,0,.06l.51-.14a.15.15,0,0,0,0-.07l-.05-.2A.28.28,0,0,0,80.87,33.39Z"/><path class="k" d="M80,33.63a.27.27,0,0,0-.2.33l.06.21s0,0,0,.06l.51-.15a.13.13,0,0,0,0-.06l0-.2A.27.27,0,0,0,80,33.63Z"/><path class="k" d="M79.14,33.87a.27.27,0,0,0-.19.33l0,.2s0,.05,0,.06l.51-.14a.13.13,0,0,0,0-.06l0-.2A.27.27,0,0,0,79.14,33.87Z"/><path class="k" d="M78.27,34.11a.27.27,0,0,0-.19.33l0,.2,0,.06.51-.14a.13.13,0,0,1,0-.06l-.06-.2A.27.27,0,0,0,78.27,34.11Z"/><path class="k" d="M77.4,34.35a.27.27,0,0,0-.19.33l.05.2a.33.33,0,0,0,0,.06l.51-.14s0,0,0-.06l-.06-.2A.27.27,0,0,0,77.4,34.35Z"/><path class="k" d="M75.66,34.83a.27.27,0,0,0-.19.33l0,.2,0,.06.51-.14s0,0,0-.06L76,35A.27.27,0,0,0,75.66,34.83Z"/><path class="k" d="M74.79,35.07a.27.27,0,0,0-.19.33l.06.2a.14.14,0,0,0,0,.06l.51-.14a.13.13,0,0,0,0-.06l-.06-.2A.27.27,0,0,0,74.79,35.07Z"/><path class="k" d="M73.92,35.31a.27.27,0,0,0-.19.33l.06.2a.14.14,0,0,0,0,.06l.51-.14a.13.13,0,0,0,0-.06l-.06-.2A.26.26,0,0,0,73.92,35.31Z"/><path class="k" d="M73.05,35.55a.27.27,0,0,0-.19.33l.06.2a.14.14,0,0,0,0,.06l.51-.14a.13.13,0,0,0,0-.06l0-.21A.27.27,0,0,0,73.05,35.55Z"/><path class="k" d="M72.18,35.79a.27.27,0,0,0-.19.33l.06.2s0,0,0,.06l.51-.14a.13.13,0,0,0,0-.06l0-.21A.27.27,0,0,0,72.18,35.79Z"/><path class="d" d="M56,7.07,55.71,7l-7.66,7.67h.4Z"/><path class="d" d="M59.47,6.05h-.39l-8.63,8.63h.39Z"/><path class="d" d="M58.11,6.21a4.34,4.34,0,0,0-.7.3l-8.16,8.17h.4Z"/><path class="d" d="M61.25,6.66,61,6.51l-8.16,8.17h.4Z"/><path class="d" d="M61.89,7.22l-.2-.2L54,14.68h.4Z"/><path class="d" d="M60.45,6.26a2.46,2.46,0,0,0-.29-.09l-8.51,8.51H52Z"/><path class="d" d="M46.68,10.45a3.62,3.62,0,0,0-.9.5l-.7.7a4.08,4.08,0,0,0-.5.89Z"/><path class="d" d="M51.57,8A6.09,6.09,0,0,0,50,9.53Z"/><path class="d" d="M48,10.2h-.28l-3.36,3.36c0,.09,0,.19,0,.28s0,.08,0,.13l3.77-3.77Z"/><path class="d" d="M55,7h-.4l-7.72,7.72h.4Z"/><path class="d" d="M53.65,7.07l-.53.14-7.47,7.47h.4Z"/><path class="d" d="M49.14,10.39c-.1,0-.21-.06-.31-.09l-4.38,4.38h.4Z"/><path class="d" d="M62.39,7.92a2,2,0,0,0-.14-.25l-7,7h.4Z"/><path class="d" d="M67.68,12.22l-.29-.11-2.55,2.57h.39Z"/><path class="d" d="M68.4,12.7a.91.91,0,0,0-.21-.18L66,14.68h.4Z"/><path class="d" d="M66.7,12h0a2.71,2.71,0,0,0-.4,0l-2.64,2.64H64Z"/><path class="d" d="M69.19,14.31c0-.12,0-.23,0-.34l-.71.71h.39Z"/><path class="d" d="M68.92,13.38a2,2,0,0,0-.14-.25l-1.55,1.55h.39Z"/><path class="d" d="M64.61,11.69l-.19-.2-3.18,3.19h.39Z"/><path class="d" d="M63.15,10.76l-.32-.07-4,4h.39Z"/><path class="d" d="M65.1,12.4,65,12.15l-2.53,2.53h.4Z"/><path class="d" d="M62.84,9.87a1.09,1.09,0,0,0,0-.18,1.55,1.55,0,0,0,0-.22l-5.2,5.21H58Z"/><path class="d" d="M64,11.14,63.72,11,60,14.68h.39Z"/><path class="d" d="M62.73,8.78a1.58,1.58,0,0,0-.09-.31l-6.2,6.21h.4Z"/></g></g></svg>