<svg xmlns="http://www.w3.org/2000/svg" xmlns:xlink="http://www.w3.org/1999/xlink" viewBox="0 0 140 60"><defs><style>.a,.e,.k,.l{fill:none;}.b{clip-path:url(#a);}.c{fill:#e9f0f7;}.d{opacity:0.67;}.e,.l{stroke:#b0bbce;stroke-linecap:round;}.e,.j,.k,.l{stroke-miterlimit:10;}.e{stroke-width:0.63px;}.f{fill:#b0bbce;}.g{opacity:0.44;}.h{opacity:0.22;}.i{fill:#869cb3;}.j{fill:#fff;}.j,.k{stroke:#869cb3;stroke-width:0.46px;}.l{stroke-width:0.63px;}</style><clipPath id="a"><rect class="a" width="140" height="60"/></clipPath></defs><g class="b"><rect class="c" x="12.6" y="11.65" width="84.86" height="36.77" rx="7.55"/><polygon class="c" points="121.35 46.34 122.63 46.4 98.96 20.51 97.68 20.45 121.35 46.34"/><polygon class="c" points="117.7 46.59 118.82 46.64 96.52 22.24 96.47 23.37 117.7 46.59"/><polygon class="c" points="96.34 26.17 96.29 27.3 114.39 47.09 115.51 47.14 96.34 26.17"/><polygon class="c" points="96.19 29.56 96.14 30.68 111 46.94 112.13 46.99 96.19 29.56"/><polygon class="c" points="96.05 32.67 96 33.8 107.89 46.8 109.01 46.85 96.05 32.67"/><polygon class="c" points="95.89 36.2 95.84 37.32 104.37 46.64 105.49 46.69 95.89 36.2"/><polygon class="c" points="101.39 46.51 102.51 46.56 95.76 39.18 95.71 40.3 101.39 46.51"/><polygon class="c" points="125.95 46.35 102.47 20.67 101.19 20.61 124.68 46.3 125.95 46.35"/><polygon class="c" points="104.91 20.78 128.09 46.13 129.34 46.18 106.17 20.83 104.91 20.78"/><path class="c" d="M110.25,21l-1-.05h-.13L131,44.86h.11l0-1Z"/><polygon class="c" points="114.35 21.2 113.22 21.15 131.26 40.88 131.31 39.76 114.35 21.2"/><polygon class="c" points="118.87 21.4 117.74 21.35 131.46 36.36 131.51 35.23 118.87 21.4"/><polygon class="c" points="123.2 21.6 122.08 21.55 131.66 32.02 131.71 30.9 123.2 21.6"/><polygon class="c" points="126.46 21.74 125.33 21.69 131.8 28.77 131.85 27.65 126.46 21.74"/><g class="d"><polyline class="e" points="82.5 39.37 79.56 41.12 79.56 57.76 112.72 57.76 112.72 41.12 109.78 39.37"/><path class="f" d="M96.14,50.14l13.94,7H82.2l13.94-7m0-.7L79.56,57.76h33.16L96.14,49.44Z"/></g><g class="d"><polygon class="e" points="109.43 6.92 82.75 6.92 82.75 43.01 95.97 49.69 109.29 43.17 109.43 6.92"/><rect class="e" x="82.75" y="3.11" width="26.68" height="3.81"/><rect class="e" x="85.23" y="13.47" width="21.47" height="14.88"/><rect class="f" x="86.91" y="9.6" width="7.24" height="1.2"/><rect class="f" x="97.68" y="9.6" width="7.24" height="1.2"/><rect class="e" x="85.23" y="31.02" width="9.02" height="9.02"/><rect class="f" x="85.23" y="41.36" width="9.02" height="0.64"/><rect class="f" x="85.23" y="42.65" width="9.02" height="0.64"/><polygon class="f" points="89.75 44.58 86.51 44.5 85.13 43.83 89.75 43.94 89.75 44.58"/><rect class="e" x="97.68" y="31.1" width="9.02" height="9.02"/><rect class="f" x="97.68" y="41.44" width="9.02" height="0.64"/><rect class="f" x="97.68" y="42.72" width="9.02" height="0.64"/><rect class="f" x="97.68" y="44.01" width="4.51" height="0.65"/></g><g class="g"><polyline class="e" points="60.41 48.31 60.37 45.04 57.1 45.09 58.76 46.7"/><line class="e" x1="57.1" y1="45.09" x2="58.72" y2="43.43"/></g><g class="h"><polyline class="e" points="99.61 45.59 99.49 36.42 108.66 36.3 104.14 40.95"/><line class="e" x1="108.66" y1="36.3" x2="104.02" y2="31.77"/></g><path class="i" d="M56.07,21c.88,2,.39,4.16-1.1,4.81s-3.41-.43-4.29-2.44-.39-4.15,1.1-4.81S55.19,19,56.07,21Z"/><path class="j" d="M22.86,31.55h0c-1.27.56-1.69,2.41-.94,4.12l.23.52c.76,1.72,2.4,2.65,3.68,2.09h0Z"/><path class="j" d="M32.43,21.84l-7.94,3.5c-2,.89-2.68,3.81-1.49,6.53l2.81,6.37c1.2,2.72,3.81,4.21,5.83,3.32l.85-.38,5.9,13.4A2,2,0,0,0,40.84,56L43,55l.88-.39L43,52.57l-5.9-13.4,2.53-1.11Z"/><rect class="i" x="24.12" y="31.05" width="2.86" height="0.48" transform="translate(-10.45 12.96) rotate(-23.78)"/><rect class="i" x="24.52" y="31.96" width="2.86" height="0.48" transform="translate(-10.78 13.19) rotate(-23.77)"/><rect class="i" x="24.92" y="32.87" width="2.86" height="0.49" transform="translate(-11.12 13.44) rotate(-23.78)"/><rect class="i" x="25.32" y="33.79" width="2.86" height="0.49" transform="translate(-11.45 13.68) rotate(-23.78)"/><rect class="i" x="25.73" y="34.7" width="2.86" height="0.49" transform="translate(-11.79 13.92) rotate(-23.78)"/><rect class="i" x="26.13" y="35.61" width="2.86" height="0.49" transform="translate(-12.12 14.16) rotate(-23.78)"/><rect class="i" x="26.53" y="36.53" width="2.86" height="0.49" transform="translate(-12.45 14.39) rotate(-23.77)"/><path class="j" d="M32.43,21.84l1.26,2.85,4.63,10.53,1.26,2.85s14.36-2.2,17-.34L52.67,28.9,48,18.37l-3.9-8.83C43.74,12.73,32.43,21.84,32.43,21.84Z"/><path class="j" d="M60.34,35.89c.63,1.43.28,3-.78,3.44h0c-1.06.47-2.44-.31-3.07-1.75l-12.36-28c-.63-1.43-.28-3,.79-3.44h0C46,5.63,47.35,6.41,48,7.84Z"/><line class="k" x1="56.5" y1="14.33" x2="58.22" y2="11.96"/><line class="k" x1="60.31" y1="24.56" x2="62.97" y2="25.41"/><line class="k" x1="59.64" y1="19.29" x2="63.97" y2="17.41"/><line class="l" x1="82.75" y1="43.01" x2="79.56" y2="41.12"/><line class="l" x1="109.29" y1="43.17" x2="112.72" y2="41.12"/></g></svg>