<svg xmlns="http://www.w3.org/2000/svg" xmlns:xlink="http://www.w3.org/1999/xlink" viewBox="0 0 140 60"><defs><style>.a,.f,.j{fill:none;}.b{clip-path:url(#a);}.c,.d{fill:#e9f0f7;}.d{fill-rule:evenodd;}.e{opacity:0.17;}.f{stroke:#b0bbce;stroke-linecap:round;}.f,.j{stroke-miterlimit:10;}.g{fill:#fff;}.h,.i{fill:#869cb3;}.h{opacity:0.44;}.j{stroke:#869cb3;stroke-width:0.5px;}.k{opacity:0.36;}</style><clipPath id="a"><rect class="a" width="140" height="60"/></clipPath></defs><g class="b"><rect class="c" x="12.65" y="16.95" width="84.86" height="36.77" rx="7.55"/><path class="d" d="M103.6,10.51a.06.06,0,0,1,0,0s0,0,0-.06l-.06,0a.34.34,0,0,0,0,.16c.24,0,.19.29.3.4a.35.35,0,0,0,.16.08.88.88,0,0,1-.1-.35h0c0-.06,0-.11-.07-.18l-.22-.05Zm-1.54,6.7a4.79,4.79,0,0,0,0-.95.24.24,0,0,0-.15,0l-.06.06c-.06.2-.19.4-.27.64l.17.07a1.65,1.65,0,0,1,.36.16Zm-1-.35a1.59,1.59,0,0,0-.07-.2l-.17,0-.36.05h0l.25.05v-.06a.23.23,0,0,1,.07.07l.28.07ZM100,27.06c.07-.11.22-.14.24-.3l-.37.07h0c0,.1.08.2.18.23Zm-.26-.22h.06a.29.29,0,0,0,.13.25c-.1,0-.15-.12-.19-.25Zm-1.27-6.12a.36.36,0,0,0,.41,0l-.41,0Zm.52,0a1.35,1.35,0,0,0,.54,0v-.08l-.41.05Zm-1.22,6.53a.17.17,0,0,1-.06-.08h.06s0,0,0,.08Zm0-.2a.11.11,0,0,1,0,0l0,0h-.06a.4.4,0,0,0,.14.26s0-.08.1-.09.21,0,.33,0,0,0,.06,0,.08-.05.1-.05.15,0,.23,0a2.18,2.18,0,0,1,.23-.09,1,1,0,0,0,.38-.09l0,0h0a1.12,1.12,0,0,1-.31,0h.05a1.17,1.17,0,0,1-.26,0Zm-1.43-6.41a.71.71,0,0,0,.06.22c.06,0,.07-.12.1-.19l-.16,0Zm.19,0s0,.09.06.09,0-.05,0-.07l-.08,0Zm-2.91,1.82c0-.07.09,0,.11.05s-.06,0-.11-.05Zm-.22-.17s0,0,0-.09,0,.05.09,0-.06,0,0,.06Zm-.49-.53s.13,0,.14.07-.11,0-.14-.07Zm0,0c0,.05.07.07.11.1s-.07-.07-.11-.1Zm-.07-.16s0,0,0,.05c-.18-.1-.26-.29-.41-.42s0,0,0-.05c.17.15.32.32.49.47,0,.05-.07,0-.09-.05Zm-.26-.45c-.06,0,0,.08,0,0Zm-.37-.48a.05.05,0,0,1,0,.06s0,0,0-.06Zm-.15.16v0s0,0,0,.05l0,0Zm-.67-1.36a.28.28,0,0,1,.09.16.32.32,0,0,1-.09-.16Zm-.19-.46A.06.06,0,0,1,91,19s0,0,0,.06Zm-.3-1a.26.26,0,0,1,.07.2.4.4,0,0,1-.07-.2Zm5.42,5.61a5.69,5.69,0,0,1-.87-.37c-.08,0-.16-.09-.25-.05a.39.39,0,0,1,.16.07,1.35,1.35,0,0,1-.46-.19s.09,0,.07,0-.28-.15-.4-.06a.06.06,0,0,1,0,0s-.11-.06-.13-.12.07,0,.09,0-.12-.15-.23-.16,0,0,0,0a.67.67,0,0,1-.16-.12.08.08,0,0,1,.07,0c0-.2-.32-.18-.33-.41-.15,0-.28-.19-.41-.29s0,0,0,.07-.07,0-.09,0a.51.51,0,0,0-.29-.29s0-.05,0-.06.23.21.34.21c-.19-.23-.57-.38-.65-.66.11.07.18.18.3.24-.18-.29-.59-.48-.7-.85,0,0,0,.06,0,.07a1.25,1.25,0,0,0-.23-.23s0,0,.06,0-.11-.25-.25-.29a9.33,9.33,0,0,1-.59-1.42c-.15-.24-.2-.59-.37-.82-.09,0-.13,0-.19,0-.06.28.16.45.12.65.1,0,.17.26.14.33s.08.12,0,.14c.12,0,.16.29.15.33s.09.25.2.34.19.28.15.43a.35.35,0,0,1,.19.3c.19.3.47.59.63.86s.6.55.88.85a7.55,7.55,0,0,0,1.28.86c.06.13.24.14.39.21a2.52,2.52,0,0,0,1.35.38ZM94.42,6.62a.36.36,0,0,0,0,.19c0,.05-.1,0-.09.09s0,0,0,0a2.56,2.56,0,0,0,0,.27c.1,0,.19,0,.29-.06a.18.18,0,0,0,0-.07s0,0,0-.07a.14.14,0,0,1-.07-.08c0-.06,0-.06,0-.11s-.08-.15-.16-.19ZM89.71,20.94s0-.06,0-.12.08.05.07.11,0,0,0,0Zm-.19-.1a.72.72,0,0,0,.15-.33.37.37,0,0,0-.15.33Zm.42-.35a.66.66,0,0,0-.25-.07.52.52,0,0,0-.21.66c.39.08.69-.29.46-.59Zm-.65,1.07c0-.1,0-.26.12-.28-.06.07,0,.23-.12.28Zm.19-.11c.06,0,0,0,.11,0s0,.05,0,.05-.08.05-.1.09,0-.09,0-.14Zm.3.26c0-.23-.14-.54-.37-.5s-.22.42,0,.57.3-.11.42-.07Zm15.44-7c0,.07,0,.19.07.24a.43.43,0,0,0-.07-.24Zm-2.35-5a.57.57,0,0,0,0,.14c.06,0,0,.13.1.16l0,0a1.14,1.14,0,0,1-.09-.26ZM105.22,17c0-.06,0-.06,0-.09s0,.1,0,.09Zm.14-.61a1.15,1.15,0,0,1,0,.38c-.08-.07,0-.29-.06-.38s0,0,.09,0Zm-.23-.88s0,0,0-.07,0,.1,0,.07Zm-.07-1s0,.09.06.15-.05-.09-.06-.15Zm0-.11c.06,0,0,.06,0,.07s0,0,0-.07Zm0,3.65s0-.07,0-.1,0,.06,0,.1Zm0,.09s0-.06,0-.07,0,.06,0,.07Zm-.73-5.24c-.07-.06-.16-.17-.14-.25s-.11-.12-.14-.21a1.72,1.72,0,0,1,.4.69c.08,0,.12.19.12.27-.07-.16-.23-.33-.24-.5Zm.09-.07c0-.06,0-.14-.11-.16s.08.17.11.16Zm.94,4.23-.09.08c0,.06,0,.07,0,.13s0-.14.11-.13c0,.23-.12.38-.14.61,0,0,0-.09.07-.1.06.3-.18.59-.21.91,0,.05,0-.09.09-.05s-.05.13-.06.2a1,1,0,0,0-.26-.09.2.2,0,0,0-.08,0l.06-.2s0,0,0,0a1.59,1.59,0,0,1,.14-.7,6.86,6.86,0,0,0-.35-3.86s-.07,0-.09-.06c-.26-.64-.65-1.17-.92-1.79.07-.09.12.17.21.1,0,.11.14.16.19.26s0-.05,0-.1a7,7,0,0,1,.89,1.57,2.17,2.17,0,0,0,.3.66c0,.08,0,.12,0,.19s0-.07,0-.05c-.06.17,0,.37.09.56s0,.55.1.81a3.49,3.49,0,0,0-.07-1,4.69,4.69,0,0,1,0,2.08Zm4.16,2.06s0,0,0,0,0-.07,0-.05v0Zm-.13-.37c0-.1.06-.23.07-.35a.47.47,0,0,1-.07.35Zm-.1.79c0-.18.1-.38.09-.61,0,0,0,.15.08.2a1.68,1.68,0,0,0-.17.41Zm-.07-.56c0,.09-.09.33,0,.28a1.41,1.41,0,0,0,.15-.61c0,.1-.07.21-.1.33Zm.28-5a3.64,3.64,0,0,0-.07-.44c.08.07.16.37.07.44Zm0-.46a.07.07,0,0,1,0-.07s0,0,0,.07Zm-.09.68a.61.61,0,0,1,0,.28,1,1,0,0,1,0-.28Zm0-1.1a.81.81,0,0,1,0,.39c0-.09-.08-.17,0-.23a.09.09,0,0,1,0-.16Zm-.07.65-.07,0s0,0,0,0,0,0,0,0,0,0,.06,0v.09Zm-.07-.46c-.05,0,0-.11-.06-.17a.32.32,0,0,1,.06.17ZM108.68,12c-.07,0,0-.06-.05-.09s.06,0,.05.09Zm-1-1.85a.61.61,0,0,1,.18.21c-.06,0-.14-.14-.18-.21Zm-1.2-1.91s0,0,0,0,.19.15.23.28l-.28-.25Zm-.09.28c.11,0,.22.13.28.23-.19,0-.15-.15-.28-.23ZM106.29,8s.13.11.17.18-.11-.13-.17-.18Zm-.11-.1c0-.06,0,0,.07,0s0,0-.07,0Zm-.37-.44s.06,0,.09,0-.06,0-.09,0Zm-1.24-.68s0,0,.07,0-.08,0-.07,0Zm-1.88-1.12a1.89,1.89,0,0,1,.49.25c-.17,0-.33-.17-.49-.25Zm7,10.57c0,.09.07.15.07.23s0,.45,0,.7a16.34,16.34,0,0,1-.28,2.2s0,0-.07,0a8.71,8.71,0,0,1-.7,2s0,.06,0,.07,0,.09-.09.1a8,8,0,0,1-.89,1.75.77.77,0,0,0-.25.35c-.12,0-.14,0-.24,0a1.85,1.85,0,0,1,.21-.33,3.25,3.25,0,0,1,.44-.82,7.26,7.26,0,0,0,.4-.89,13.93,13.93,0,0,0,.52-1.42,1.71,1.71,0,0,1,.2-.59,14.41,14.41,0,0,1,.47-1.56,14.09,14.09,0,0,1,0-2,11.79,11.79,0,0,0-.27-1.73c-.1-.47-.18-.89-.26-1.33a7.23,7.23,0,0,0-.33-1,5.46,5.46,0,0,0-.21-.68,10,10,0,0,0-.87-1.37c0-.06-.12-.09-.18-.15s-.23-.35-.36-.51-.28-.3-.41-.45a11.71,11.71,0,0,0-2.72-2.42.16.16,0,0,1,0-.1q-.8-.42-1.56-.87c0-.05,0-.1,0-.16a.56.56,0,0,1,.18.07s-.12-.06-.11-.14c.28.12.45.34.79.4.08.16.25.12.38.18s.44.33.67.45a3.85,3.85,0,0,1,.73.52,8.81,8.81,0,0,1,2.47,2.19c0,.05-.07-.05-.11-.05a1.08,1.08,0,0,0,.18.24s-.06-.1-.06-.16c.25.45.49.91.75,1.35,0,.05.07,0,.09,0a3.68,3.68,0,0,0,.37.9,2,2,0,0,0-.11-.26s.09.13.16.14c.11.47.38.9.51,1.4,0,0,.08,0,.08.09s.07.17.06.38a.43.43,0,0,1-.06-.21c-.08,0-.08.22,0,.18s0,.05,0,.14,0-.05.09,0,0,.28.11.33a9.87,9.87,0,0,1,.24,1.91c0,.07,0,0,0,0a4,4,0,0,0,0,.6s0,.07,0,.08,0,.18,0,.21Zm-1.25-5.29s0-.14-.07-.11,0,.1.07.11Zm-5.94,3.75c0-.08,0-.18-.09-.22l0,0a1,1,0,0,1-.29.49.85.85,0,0,1,0,.17c.06-.11.18-.2.16-.41s.15,0,.21-.06Zm-.28-1.05a.83.83,0,0,0,0-.15s0,0,0,.06l.08.09Zm-1-4.89a.47.47,0,0,0,.09.22s0,0,.09,0,.06.08,0,.09-.07,0-.14,0,.14.08.25.09.08,0,.08.1c.16,0,.18.14.28.18H102a1.3,1.3,0,0,1-.31-.26.84.84,0,0,1-.22-.31l-.07-.09-.18,0Zm.07,18.1s.06-.07.11-.08-.05.14-.11.08Zm-.06-.26v0l-.07,0,0,.1c0,.3.27.25.32.06.07,0,.14.06.21,0a1.17,1.17,0,0,0,0-.2,1,1,0,0,1-.24,0l-.19,0Zm-.6-5.85a2.68,2.68,0,0,0,.18-.28l-.23,0a0,0,0,0,0,0,.06l0,0s.08-.05.1,0,0,.08,0,.16Zm-1-.09a.49.49,0,0,0,.79-.13h-.06c-.1.11-.23.24-.36.12s.06,0,.11,0,0,0,0,0l-.29.05-.2,0Zm-.2-14.3h.14a.31.31,0,0,0-.07-.09s0,.07-.07.06,0-.07,0-.07-.08.06-.08.09h.07v0s0,0,0,0Zm-2,14.42h0ZM98.1,8.25l.05.06s0,0,0-.06Zm-.5-2A.79.79,0,0,0,97.43,6s0,.07,0,.13,0,.06-.07.08l.22,0Zm2.87,17.33c0-.05.13-.05.19-.07s-.13,0-.19.07Zm2.36-1.72c0,.19-.19.3-.28.32s0,0,0,0-.1,0-.13.11,0,0,0,0-.19.21-.33.25-.07.07-.11.1a14.56,14.56,0,0,1-1.53.72c-.17,0-.33.07-.49.12a4.49,4.49,0,0,1-.44.17,10.19,10.19,0,0,1-2.71.09c0,.09,0,.1-.07.16s.25.12.39.14l.19,0A8,8,0,0,0,98.7,24a11.14,11.14,0,0,1,1.12-.16,7.44,7.44,0,0,0,3.36-2s-.05,0-.05,0a.92.92,0,0,1,.26-.21c0-.21.19-.26.28-.44-.29.16-.55.48-.84.68ZM107,24.14c0,.17-.26.24-.36.42,0-.15.25-.29.36-.42Zm-1.48,1.49a.2.2,0,0,1,.14-.11.26.26,0,0,1-.14.11ZM102,27.74s0-.07.07-.07,0,.08-.07.07Zm-1,.3a1.62,1.62,0,0,1,.61-.16A1.37,1.37,0,0,1,101,28Zm-4,.38c-.06,0,0,0,.06,0s0,0-.06,0ZM106.83,24c.12-.15.31-.4.4-.4s0,0,0,0-.12.19-.19.25c.08,0,.07.06.14.05s-.07.09,0,.19-.32.34-.47.53a1.63,1.63,0,0,0-.11.17c-.08.09-.19.15-.28.24a4.2,4.2,0,0,1-.82.81c-.06,0-.07,0-.12,0a12.3,12.3,0,0,1-3,1.77c0,.07.15-.08.16,0a14.2,14.2,0,0,1-2.45.67s-.15,0-.19,0,0,0,0,0a3.56,3.56,0,0,1-.75.16s0-.07-.07-.07-.25.07-.4,0c-.53.21-1.09,0-1.8.15,0-.07,0,0,0-.1-.2,0-.38.07-.42-.16a2.89,2.89,0,0,1,1.17,0,.17.17,0,0,0,0,.16c.55-.14,1.33-.1,1.87-.3,0,0,0,0,0-.09a11.22,11.22,0,0,0,4.07-1.34,8.75,8.75,0,0,0,.78-.58l.79-.56a10.28,10.28,0,0,0,1.4-1.31c.11-.11.22-.22.33-.35Zm-11-17.24c0-.1-.1-.22-.2-.26s-.05.07-.11.07a1.62,1.62,0,0,0-.8.08c0,.07,0,.12,0,.23a.62.62,0,0,0,.58-.14c.08.07.22.08.32.14l.09,0,.16-.09Zm-.32-.12s0,0,.07,0a0,0,0,0,1-.07,0Zm-.72.15.4-.08c0,.09-.35.27-.4.08ZM96.5,27.16v0a.11.11,0,0,1,.06,0l.1-.1-.16,0ZM93.32,7.53s0,0-.07,0,0,0,.07,0Zm-.72.3s0,0-.06-.06l-.09.11.15,0Zm.77-.3a1.34,1.34,0,0,1,.06-.12.71.71,0,0,0-.72.31s0,0,0,.07l0,0h0a1,1,0,0,1,.34-.11l.07,0a1.34,1.34,0,0,1,.23-.13Zm.34,2.78a.93.93,0,0,1-.39.31,1.66,1.66,0,0,1,.39-.31ZM97.39,9a.24.24,0,0,1-.26,0c.06,0,.19,0,.26,0Zm1.66.37h0Zm.51.1a3.2,3.2,0,0,1-.47-.09,1,1,0,0,1,.47.09Zm1.73.31c.11.12.41.14.38.34a2.55,2.55,0,0,1-.41-.3s0,0,0,0Zm.47.58c-.05,0-.12-.09-.19-.12s.14.08.19.12Zm.23-.05c0,.05-.07,0-.11,0s.08,0,.11,0ZM91.8,12.07a5.19,5.19,0,0,1,1-1s0-.1,0-.13c.31-.28.66-.53,1-.82.06,0,.08,0,.14,0,.21-.19.59-.22.75-.46.1,0,.17-.07.28-.09a5.74,5.74,0,0,1,1.45-.47L96.77,9a4.15,4.15,0,0,1,.8-.1,8,8,0,0,1,2.64.52c.06,0,0-.06,0,0a5.31,5.31,0,0,1,.89.35c0-.06-.11-.08-.09-.16.23.13.49.24.7.38a5.72,5.72,0,0,1,.61.46,11.23,11.23,0,0,0,1.31,1.27c-.1,0-.13-.09-.21-.12s.09.17.16.23-.06.1,0,.16a13.82,13.82,0,0,0-2-1.72c-.06,0-.08,0-.14,0a7.69,7.69,0,0,0-3.7-.93c-.18-.12-.38-.06-.59,0a4.93,4.93,0,0,0-1.51.32c-.25.25-.69.33-1,.56h-.14c.05.07-.06,0,0,.07-.16,0-.25.14-.42.16s-.08,0-.09.1a1.77,1.77,0,0,0-.68.52,4.05,4.05,0,0,0-1,.91,3.68,3.68,0,0,0-.24.39c-.06.08-.16.14-.23.22s-.14.19-.24.21,0-.12,0-.19-.06.08-.11,0,.28-.3.3-.38,0,0,0-.09Zm-.48-5.68c0,.07-.22.12-.21.19s.21-.12.21-.19ZM91,14.22s0,.11,0,.12,0-.08,0-.12Zm.28-.7c0-.18.17-.37.14-.56,0,0-.06,0-.08,0s-.13.21-.18.33,0,.23-.14.23,0,0,0,.05,0,.1-.09.09,0,.11,0,.15,0,.15-.06.13c0,.2-.15.41-.12.63,0,0-.07,0-.07,0s0,0,0,0,0,.06,0,0c.06.14,0,.39,0,.58,0,0,0,.17.1.12s0,0,0,0,.09-.25,0-.19c.14-.12.11-.3.17-.51a9.32,9.32,0,0,0,.33-1.13Zm-.75,4c0,.11,0,.18.14.19a.05.05,0,0,1,0,0,4.22,4.22,0,0,0-.21-1.5c-.17.36,0,.76,0,1.17,0,.07.08.05.08.16s0-.07,0,0Zm.36-8.32-.08,0s0,0-.07,0,0,.06,0,.07,0-.07-.1-.07-.06,0-.09,0a.89.89,0,0,0,.08.17.27.27,0,0,0,.1-.06c-.07,0-.12,0-.15-.06s.15,0,.19,0l.08-.07v0l0,0,0,0Zm-2,12.09a.09.09,0,0,1-.08-.12.14.14,0,0,1,.17,0,.24.24,0,0,1-.09.08Zm-.14-.24c0-.05,0-.05,0-.09s0,.12,0,.09Zm-.05.19s0,0,.05,0-.06,0-.05,0Zm.07-.4c-.2.19-.15.6.16.56a.23.23,0,0,0,.16-.14,1,1,0,0,0-.11-.39s-.12,0-.21,0Zm1.47-7.35h0a.19.19,0,0,0,0-.08l0,.07Zm.52-1.3a.32.32,0,0,0,.13-.07c-.05,0,0,0,0-.09s-.05,0-.05,0l-.08.15Zm-2-.37h0a.22.22,0,0,0,0,.08l0-.09ZM86,15c0-.1,0-.12,0-.21,0,.06,0,.19,0,.21Zm0,.12V15c.05,0,.05.12,0,.09Zm0,.23s0-.17,0-.16,0,.1,0,.16Zm.38-.89s0,.07-.05.07,0-.08.05-.07Zm.21-1.65a.9.9,0,0,1-.1.39,1,1,0,0,1,.1-.39Zm.16-.47s0,.09,0,.12,0-.08,0-.12Zm-.25,1.42s0-.08,0-.13,0,.1,0,.13Zm.74-2.2c0,.14-.13.25-.18.38a1.31,1.31,0,0,1,.18-.38Zm.08-.7s0,0,0,.05h0s0,0,0,0,0,0,0,0,.06,0,0-.08Zm.11.33s0,0,0,.07,0-.08,0-.07Zm1.64-2.34c-.12.16-.23.33-.36.49,0-.19.24-.34.36-.49Zm.39-.75a1.12,1.12,0,0,1-.41.4,3.85,3.85,0,0,1,.41-.4Zm.94-.67a2,2,0,0,1-.49.47,1.69,1.69,0,0,1,.49-.47Zm.33-.49s0,0-.07,0,0,0,.07,0Zm.81-.35c0,.09-.11,0,0,0Zm.12-.1s-.13.07-.09.1.14,0,.09-.1Zm1.41-1a1.64,1.64,0,0,1-.33.14.47.47,0,0,1,.33-.14Zm.51,0s-.11.06-.18.09.11-.07.18-.09Zm.09-.3c0,.1-.21.11-.27.11a.44.44,0,0,1,.27-.11Zm.9-.08a6.53,6.53,0,0,1-.85.33,4.55,4.55,0,0,1,.85-.33Zm-8.24,9.5a3.83,3.83,0,0,1-.23,1.24,2.48,2.48,0,0,1-.19-.72A1.27,1.27,0,0,0,86,15a14.41,14.41,0,0,1,.37-1.74c0-.09.09-.16.12-.25s0-.08,0-.12,0-.06.05-.12c.08-.26.19-.57.28-.84s.14-.24.19-.37,0-.06,0-.09.12-.14.14-.26,0-.06,0-.1c.28-.46.57-.9.82-1.4.19-.06.24-.27.36-.4s0,0,0-.07a18.22,18.22,0,0,1,2.77-2.64,3.08,3.08,0,0,0-.33.3c.33-.2.56-.39.91-.65-.11,0-.16.11-.28.12a6.24,6.24,0,0,1,1.29-.73c-.17,0-.25.14-.45.19.4-.28.92-.43,1.34-.68.35-.09.69-.18,1-.3a9.93,9.93,0,0,1,1.11-.28A5.09,5.09,0,0,1,97,4.44c0,.06,0,0-.05.07a1.2,1.2,0,0,1,.24.06c-.68.23-1.42.27-2.11.44-.51.13-1,.42-1.47.58-.1,0-.22,0-.28.12a10.06,10.06,0,0,0-3.67,2.46s0,0-.1,0-.06.08-.09.13c-.52.8-1.14,1.5-1.64,2.32a4.82,4.82,0,0,1-.45.91.21.21,0,0,0,0,.14,8.53,8.53,0,0,0-1,2.86c0,.06-.07,0-.07.09Zm9.22,13.75a.22.22,0,0,1,.18,0c0,.05-.12,0-.18,0Zm-.05,0c-.06,0-.07,0-.12,0s.14-.05.12,0Zm-.35-.07a.08.08,0,0,0,0-.05s.06,0,.12,0-.08,0-.14,0Zm0,0c0-.08-.11-.13-.14,0l.06,0,.08.05ZM95,28.23c0-.08-.16-.05-.18-.12s.15,0,.26,0-.11,0-.08.09Zm-.11,0s0,0,0,0,0,0,0,0a0,0,0,0,0,0,0Zm-1.47-.72v-.05a.17.17,0,0,1,.16.1.49.49,0,0,1-.16,0Zm-1-.37c.06-.08.22,0,.25.09a.92.92,0,0,1-.25-.09Zm-.19-.1c0-.08.12,0,.17,0s-.1,0-.17,0Zm-.54-.19c0-.09.12,0,.15,0s-.07-.06-.15,0Zm-.14-.09-.05,0s0,0,0,0,0,0,0-.09,0,.07.09.05-.07,0,0,.09Zm-.14-.16c-.06,0,0-.05-.11,0s.13-.06.11,0Zm-.21-.12s.07.09.1,0-.07-.08-.1,0ZM91,26.41c-.11-.06-.17-.18-.3-.23.1-.09.19.2.3.16s0,0,0,.07Zm-.34-.26h0c0-.06-.09,0-.07-.12s0,.06.12.09,0,0,0,0Zm.28-.07a.35.35,0,0,0-.12-.07c0,.06.11.09.12.07Zm-1.17-.65s.08,0,.07.06,0,0-.07-.06Zm-.12-.14s.1.06.11.11a.29.29,0,0,1-.11-.11Zm-1.5-2.07s0,0,0,.06,0,0,0-.06Zm-.32-.11c.09.09.23.22.23.35-.13-.07-.17-.21-.23-.35Zm8.2,5.15c.08,0,.26,0,.28.06-.2,0-.38-.13-.56,0a.24.24,0,0,0,.15.07c-.12.13-.43-.06-.59,0a18.25,18.25,0,0,1-1.9-.56s-.07,0-.06-.07a9.7,9.7,0,0,1-2.56-1.43,12.1,12.1,0,0,1-2-1.89c-.2-.37-.53-.61-.72-1,0-.06-.06.06-.1,0a6.72,6.72,0,0,1-.7-1.3c-.22-.47-.55-1-.75-1.5a7.91,7.91,0,0,0-.26-.78c0-.12,0-.25-.09-.34s-.06-.24-.07-.38-.07,0-.07-.05a1.56,1.56,0,0,1,0-.44,7.52,7.52,0,0,0-.2-1c0-.05,0,0,.09,0,0-.42,0-.7-.12-1.07.09-.11.16-.13.17-.26.09.54,0,1.25.18,1.83s.39,1.35.52,2a2.05,2.05,0,0,0,.3.8,2.93,2.93,0,0,0,.52,1s0,0,0,.07a8.26,8.26,0,0,0,1,1.43c0,.13.21.38.33.51a8.86,8.86,0,0,1,.65.77c.13,0,.17.17.29.21a2.28,2.28,0,0,0,.68.63c.07.2.21.22.21.38s.14,0,.2,0,.24.19.36.28-.05,0-.05,0a.9.9,0,0,0,.4.21c0,.21.37.19.4.33s-.08,0-.1,0,.19.06.31.11a.1.1,0,0,0,0,0c.32,0,.59.29.94.35,0,.06.1.05.09.13-.31-.09-.6-.28-.85-.37a3.59,3.59,0,0,0,.9.44c.06,0,0,0,0-.07a2.39,2.39,0,0,1,.55.29,2.73,2.73,0,0,1,.68.21,4.67,4.67,0,0,1,1,.19c-.06.05,0,0,0,.06s0-.05,0-.06.14.07.17.11,0,0,0-.05a2.06,2.06,0,0,1,.3.15ZM103,10a.31.31,0,0,0,0,.31.19.19,0,0,0,.15-.08s-.09,0-.09,0,0-.06.07-.07L103,10Zm-.27,16.52c.2.06.32-.07.36-.28l-.48.2a.2.2,0,0,0,.12.08ZM100.52,4.8c.5.11,1,.51,1.49.39a14.24,14.24,0,0,0-1.52-.51c-.15,0-.32,0-.47,0l-.13-.06a2.25,2.25,0,0,1-.26,0c-.08,0-.16-.06-.24-.07s-.27,0-.41,0-.38-.1-.52-.1-.67,0-.94.07a14.48,14.48,0,0,1,2.91.35c.06,0,0-.06.09,0ZM94.4,16.24a.76.76,0,0,0-.31.11c.07,0,0,0,0,.09a.6.6,0,0,0,.19.06.88.88,0,0,1,.11-.24v0ZM92.15,5.85s-.06,0-.07.07.12,0,.07-.07ZM89.1,20.52a0,0,0,1,0,0-.08s0,0,0,.08Zm.29,0c-.09.05-.14.15-.24.16-.33,0-.31-.62,0-.53.11,0,.15.3.24.37ZM87.23,8.8c0-.07-.06,0,0-.14h0s0,0,0,0,0,0,0,0v.05S87.16,8.8,87.23,8.8Z"/><path class="d" d="M67.2,13.21a1.22,1.22,0,0,0-.91-.26c.32.06.62.31.91.26Zm33.26-1.52a12.27,12.27,0,0,1,2.09-.09,4.09,4.09,0,0,1-2.09.09Zm3.61.13c1.12-.43,2.73-.37,3.48-1.18-.13-.15,0-.29-.13-.43a10.29,10.29,0,0,0-3,1c-.14,0,.11.12,0,.13-.47,0-1.23.06-2,0-.14,0,.12.17-.08.13a.37.37,0,0,1-.35-.09c0,.07,0,.17-.18.13-1,0-1.31.05-2.17,0-.13,0,0,.15-.22.09-.48,0-1-.42-1.48-.22a13,13,0,0,0,6.18.44ZM105.59,14c0,.09-.17.1-.3.09a.37.37,0,0,1,.3-.09Zm-4.78.48Zm.3-.43c-.2.26-.67.11-.74.34-.41.1-1-.11-1.39,0a21.72,21.72,0,0,0,4.91.08c.14-.33.79-.29,1.13-.17a10,10,0,0,0,2.74-1.17,2.87,2.87,0,0,1-.17-.44c-1.88.41-3.2,1.17-5.35,1.26-.39,0-.84,0-1.13,0Zm-27.52.17c.15-.25.76-.23,1-.17a8.53,8.53,0,0,1,1.52-.35c.34-.1.65-.32,1-.44s.75-.08,1.13-.17a16.82,16.82,0,0,0,2.52-1A12.39,12.39,0,0,1,84.94,11a11.66,11.66,0,0,1,2.48.09,24.63,24.63,0,0,1,7,2.08c.32-.17,1.05.34,1.39.13-.11-.13-.39-.1-.52-.21,0,0,.12-.3,0-.26a20.6,20.6,0,0,1-3.66-1.4.72.72,0,0,1-.52,0c0-.13-.16-.18-.26-.26a20.22,20.22,0,0,1-3-.69,21.51,21.51,0,0,1,4.69,1.08c0,.18.51.45.66.09a23.55,23.55,0,0,0-6.92-1.43c-.11,0,.1.2-.08.21-1.21-.11-2.35.31-3.52.31a13,13,0,0,1-2.27.61c-.13,0,0,.22-.17.21a32.19,32.19,0,0,1-5.52,1.83,5.28,5.28,0,0,1-2.83.65c0,.14-.08.16,0,.31a11.28,11.28,0,0,1,1.78-.09Zm10.54-.59-.06,0,.06,0Zm-4.32,1a2.29,2.29,0,0,1,.56-.17c0,.19-.73.23-.56.17Zm18,1.66c0,.15-.17.06-.26.08s.23,0,.26.13a3.71,3.71,0,0,1-2.3-.47c-.5-.22-1-.3-1.48-.48s-.58-.4-.91-.52c-.59-.22-1.36-.34-2-.53s-1.31-.48-1.92-.6a14.19,14.19,0,0,0-5.56-.09,11.78,11.78,0,0,0-1.57.56c-1.57.57-3.2,1-4.74,1.66a4.94,4.94,0,0,0-1.91.39c-.19,0,0,.14-.17.21s-.35.06-.57.05c.27-.37,1-.24,1.22-.7,1.52-.32,2.6-1.08,4-1.48.09,0-.06-.16.05-.21,2.61-.77,4.84-1.73,7.87-1.26.57.09,1.13.36,1.73.52s1.23.19,1.79.35a10.46,10.46,0,0,0,1.69.56c.12.06.16.19.26.26.75.16,1.45.59,2.22.83a6.41,6.41,0,0,1,2.3.74ZM64.59,14.47c0,.11-.19-.06-.3,0,.08-.14.19.07.3,0Zm.83.35c-.1.12-.23-.09-.35-.09.06-.08.23.09.35.09Zm2.09,1.3c-.3.09-.58-.21-.87-.26.25,0,.58.2.87.26Zm.13.13Zm2-.3c-.63.12-1.12-.27-1.65-.39.6-.1,1.09.3,1.65.39ZM58.63,13.17l.06,0a1.26,1.26,0,0,1,.26-.56.94.94,0,0,1-.28-.1l0,.64Zm3,.76v-.24a.92.92,0,0,0,.24-.35H62a1.34,1.34,0,0,0,.74.35c.06,0,0-.1,0-.09a9.47,9.47,0,0,1,2.43.91,10.19,10.19,0,0,0,1.74.74c.64.12,1.24.11,1.79.26.29.09.58.22.87.31s.84.44,1.21.3a3.1,3.1,0,0,0,1.18.39.37.37,0,0,0,.48.26c.08-.16.21-.11.08-.3.19-.09.44-.11.57-.26s.09.14.13.22.38-.14.52,0-.23,0-.22.13.34,0,.39.17a7.71,7.71,0,0,1-2.56.13c-.12,0-.11.12-.18.18a10.84,10.84,0,0,0-1.56-.18,14.73,14.73,0,0,1-3.74-1.17c-.58-.23-1.17-.44-1.74-.7s-1.09-.57-1.65-.78a8.78,8.78,0,0,0-.95-.28ZM105.55,22Zm-2,.43a.91.91,0,0,1,.52-.13c-.08.14-.33.1-.52.13Zm-9.65-1.61c.22,0,.49.23.78.26-.26.09-.54-.18-.78-.26ZM85.72,19c-.1,0-.13.08-.26.05,0-.19.72,0,.26-.05Zm-.65.09c-.12,0,.06-.15.13-.09s-.15.09-.13.09Zm-8.91,2.65a1.6,1.6,0,0,1,.48-.17c-.09.12-.31.13-.48.17Zm-1.65.35a2.7,2.7,0,0,1,.87-.22c0,.07,0,.17,0,.18a1.4,1.4,0,0,1-.91,0Zm-3.92.3h-.08a.17.17,0,0,1-.05-.13h.18a.19.19,0,0,0,0,.13Zm-3.52-.74c0-.17.33-.07.31.05s-.16-.08-.31-.05Zm-1.43-.52c.06-.12.19,0,.26.05s-.15-.08-.26-.05Zm0,0Zm40,.69a8.76,8.76,0,0,0-2,.44,14.91,14.91,0,0,1-1.91.09,20.75,20.75,0,0,1-2.09.13,11.36,11.36,0,0,1-1.13-.31,13.57,13.57,0,0,1-1.43-.26c-1.72-.56-3.23-1.57-4.7-2.13-1.22-.17-2.51-.8-4-1-1.24-.13-2.65.16-3.92.14a7.58,7.58,0,0,0-1.86.17c-.46.12-.86.4-1.31.52a9,9,0,0,0-1.35.57,6.08,6.08,0,0,1-1.65.47,3.88,3.88,0,0,1-1.87.7A7.05,7.05,0,0,1,74.2,22c-.17.05,0,.2-.17.22s-.42.07-.7,0c0-.17-.23-.2-.48-.17,0,0,.11-.22,0-.18-1,.08-1.77,0-2.91.05-.16,0,0-.17-.13-.22a17.17,17.17,0,0,1-6.7-2.13c-.55.17-1-.23-1.58-.42a.92.92,0,0,1,0,.29,1.51,1.51,0,0,1,0,.3c.24.07.48.16.73.26.6.24,1.19.57,1.82.78a34.07,34.07,0,0,0,3.65,1.35,15.67,15.67,0,0,0,2,.35,12.75,12.75,0,0,0,3.78,0c.13,0,.07.21.26.17a17.15,17.15,0,0,1,2.35-.43C77.38,21.7,78.74,21,80,20.64c.53-.16,1-.34,1.53-.52a14.78,14.78,0,0,1,3-.56c.56-.07,1.14-.22,1.69-.26a12.13,12.13,0,0,1,2.13.13c.45,0,.93,0,1.31.08.57.1,1.17.4,1.78.57a18.76,18.76,0,0,1,2.26.87c.79.33,1.7.61,2.44,1,.07-.12.19.06.34,0,.3.33.77.25,1.22.35a9.44,9.44,0,0,0,1.31.39c.88.07,1.71.06,2.69.08a22.42,22.42,0,0,0,4.13-.56,15.54,15.54,0,0,1,1.52-.61c.06-.35.52-.52.57-.74a4.28,4.28,0,0,0-2.35.91ZM60.65,8.42c.62.23,1.42.28,2.07.53.19.07.38.22.57.3A29.72,29.72,0,0,0,67.81,11l.13,0c.77,0,1.42.26,2.22.3.31,0,.7,0,.87-.22a3.87,3.87,0,0,0-1.44-.21c-.29-.46-.91-.28-1.43-.35A8,8,0,0,1,66,9.73c-.14,0-.16.08-.31,0,0-.14-.07-.13,0-.27-1-.31-2.35-1-3.65-1.3A1.38,1.38,0,0,0,61.81,8c-.39,0-.75-.24-1.14-.26a1.08,1.08,0,0,1,0,.73ZM61,11a1.08,1.08,0,0,0-.57-.56v0l1.36.33a6.25,6.25,0,0,0,1.39.7c0,.08.1.11.09.22a11.3,11.3,0,0,0,1.52.52c.08.08,0,.11,0,.21.29.21.66.14.91.31-.37.06-1.14-.2-1.08-.44-.21,0-.17,0-.31.05,0-.36-.75-.34-1-.57a.67.67,0,0,0-.3,0A9.52,9.52,0,0,0,61,11Zm-.57-.82a.28.28,0,0,0,0-.09l.54.12-.53,0Zm16.19.12c0-.05-.08,0-.13-.05s.1-.09.21-.08c-.09.09,0,.16.13.13-.08.1-.3.07-.43.13,0-.11.16-.07.22-.13Zm7.6-2.74s0,0,0,.09h-.09c0-.1.07-.09.13-.09Zm.44.09c-.14-.07-.19,0-.35,0,0-.14.4-.14.35,0Zm.22-.09s0,0,0,0-.08,0-.13.05,0-.09.09-.09Zm5.21.65c0,.12-.18,0-.26,0,0-.16.2,0,.26,0Zm1.61,1.35c-.14,0-.21-.14-.35-.18.08-.06.33.06.35.18ZM73.11,11.43c0-.07.12-.1.18,0s-.11,0-.18,0Zm2.13-.7c.13-.05-.15,0-.08-.17,1.4-.54,3.52-.84,4.69-1.61.29,0,.42-.1.65-.13,0-.14.3,0,.18-.22.27.18.84,0,.83-.3.33-.05.44-.18.78-.09.1-.07.21,0,.13-.17.18.22.78,0,.74-.18s.3,0,.52,0-.15-.21,0-.31c.84-.13,1.75,0,2.48,0,.09,0,.22-.09.3-.09.56,0,1.34.44,2,.31.06,0,.08.12.17.13a7.93,7.93,0,0,1,2.61.65V8.6c.32,0,.77.38,1,.22.06.06.29.35.35.13,0,.11.31.32.35.13.89.69,2.32.87,3.52,1.35,0,.2.1.27.3.35a.69.69,0,0,1-.13.43A17.11,17.11,0,0,1,92.5,10,9.17,9.17,0,0,1,90,8.78a30.68,30.68,0,0,0-4-.57,8,8,0,0,0-3.26.48c-1.3.41-2.59,1-3.87,1.48-.69.24-1.35.43-2.09.65-.06,0,0,.11,0,.17-1.47.25-3.23,1-4.7.35a21.19,21.19,0,0,1,3.13-.61Zm9.61,6.09c0-.06.38-.09.57-.09-.16.11-.28.07-.57.09Zm-.52,0c-.1-.08.29,0,.39,0s-.28,0-.39,0ZM64.42,18c.06-.13.15.08.26,0-.06.13-.21,0-.26,0Zm-2-1.18c0,.13.46.21.39.14a2.24,2.24,0,0,1-.39-.14Zm45.51,1.14a2.55,2.55,0,0,0-1,.52,6.22,6.22,0,0,1,.83-.31,2.5,2.5,0,0,1-1.05.48c.09,0,0-.14.13-.13s0,0,0,0c-2.33,1.21-6,1.27-9,.91-.16.1.16.13,0,.17-.3,0-.33-.27-.52-.39a16,16,0,0,0-2-.78c-.47-.16-.87-.43-1.35-.65a10.53,10.53,0,0,0-1-.35c-1.88-.66-4.56-1.56-6.65-1.09-.18,0-.22-.13-.39-.13a5.31,5.31,0,0,0-2.05.22c-.34.06-.64,0-.91.09-1.5.43-3.12,1.1-4.78,1.69-1.88.67-3.67,1.52-5.7,1.52-.13-.38-.77-.24-1-.52-.45.37-1.62.54-1.91-.08-.78-.26-1.67-.45-2.26-.66s-1-.21-1.39-.34a12.62,12.62,0,0,1-1.26-.48c-.81-.38-1.59-.76-2.44-1.09h0a1.06,1.06,0,0,1,.1.48,1.42,1.42,0,0,1,0,.29c.61.24,1.23.52,1.43.63,2.7.93,5.25,2.22,8.78,2.18.82-.47,1.64-.21,2.7-.53.18,0,.13.19.3.18,1.79-.54,3.35-1.19,5.18-1.78a14.91,14.91,0,0,1,2.69-.79,11.7,11.7,0,0,0,3.52-.61,24.08,24.08,0,0,1,6.44,1.61,17.72,17.72,0,0,0,5.3,1.7c.2.33.57.24,1,.26.67,0,1.46.19,2,.17,1,0,1.82-.3,2.57-.3.09-.14-.17-.14,0-.17s.23,0,.44,0c1.15-.5,2.48-.64,3.35-1.39,0-.26-.07-.27,0-.52Zm-2.39-1.66c.2-.08.3-.27.48-.39a10.06,10.06,0,0,1,2-.74c0,.29-.24.23-.3.39a.45.45,0,0,1,.13.4,6.26,6.26,0,0,1-2,.69c-.08.06-.09.17-.18.22-2.08.57-5.12.84-7.13,0a10.18,10.18,0,0,1,2.7.43,9.4,9.4,0,0,1,1.56-.26h0a7.6,7.6,0,0,0-1.09,0,3.67,3.67,0,0,1,1.17-.26c.4-.07.79-.16,1.18-.22a6.18,6.18,0,0,0,1.43-.22ZM98.63,14c-.47-.09-1-.34-1.34-.13.36.08,1,.33,1.34.13ZM71.42,14a2.66,2.66,0,0,0-1,.09c.34,0,.81.27,1-.09Zm-1,0a17.51,17.51,0,0,0-2-.43A5.28,5.28,0,0,0,70.38,14Z"/><g class="e"><path class="f" d="M19.85,34.43H4a1.77,1.77,0,0,1-1.77-1.77V22.07A8.83,8.83,0,0,1,11,13.24h0a8.83,8.83,0,0,1,8.83,8.83Z"/><path class="f" d="M11,34.43h30a1.76,1.76,0,0,0,1.76-1.77V22.07A8.83,8.83,0,0,0,34,13.24H11"/><line class="f" x1="25.15" y1="22.07" x2="25.15" y2="4.41"/><rect class="f" x="25.15" y="4.41" width="8.83" height="5.3"/><line class="f" x1="26.92" y1="34.43" x2="26.92" y2="45.91"/><line class="f" x1="21.62" y1="34.43" x2="21.62" y2="45.91"/></g><path class="g" d="M81.86,48.2l-52,7.61L24.31,18,82.49,9.5l4.63,31.65C87.42,42.89,84.57,48.44,81.86,48.2Z"/><path class="h" d="M67.31,23.17a.27.27,0,0,1,.21-.3l0-.26a.27.27,0,0,1-.3-.22.25.25,0,0,1,.21-.29l0-.27a.26.26,0,1,1-.08-.51l0-.27a.25.25,0,0,1-.08-.5l0-.27a.25.25,0,0,1-.29-.21.25.25,0,0,1,.21-.3L67,19.5a.25.25,0,0,1-.29-.21.27.27,0,0,1,.21-.3l0-.27a.25.25,0,0,1-.3-.21.25.25,0,0,1,.21-.29l0-.27a.27.27,0,0,1-.3-.21.26.26,0,0,1,.21-.3l0-.27a.27.27,0,0,1-.3-.21.28.28,0,0,1,.21-.3l0-.26a.26.26,0,0,1-.29-.22.24.24,0,0,1,.21-.29l0-.23-.24,0a.25.25,0,0,1-.21.29.27.27,0,0,1-.3-.21l-.27,0a.25.25,0,0,1-.21.3.25.25,0,0,1-.29-.21l-.27,0a.27.27,0,0,1-.21.3A.26.26,0,0,1,64,16l-.27,0a.26.26,0,1,1-.51.08l-.27.05a.25.25,0,0,1-.5.08l-.27.05a.25.25,0,0,1-.21.29.25.25,0,0,1-.3-.21l-.27,0a.24.24,0,0,1-.21.29.27.27,0,0,1-.3-.21l-.26,0a.27.27,0,0,1-.22.3.25.25,0,0,1-.29-.21l-.26,0,0,.23a.26.26,0,0,1,.09.51l0,.27a.26.26,0,0,1,.3.21.27.27,0,0,1-.22.3l0,.26a.27.27,0,0,1,.3.22.26.26,0,0,1-.22.29l0,.27a.25.25,0,0,1,.29.21.25.25,0,0,1-.21.3l.05.27a.24.24,0,0,1,.29.21.26.26,0,0,1-.21.3l0,.26a.26.26,0,0,1,.08.51l0,.27a.26.26,0,0,1,.3.21.27.27,0,0,1-.21.3l0,.27a.25.25,0,1,1,.08.5l.05.27a.26.26,0,1,1,.08.51l.05.27a.24.24,0,0,1,.29.21.26.26,0,0,1-.21.3l0,.3.26,0a.25.25,0,0,1,.5-.08l.27-.05a.25.25,0,0,1,.21-.29.26.26,0,0,1,.3.21l.27,0a.26.26,0,0,1,.21-.3.27.27,0,0,1,.3.21l.27,0A.26.26,0,0,1,64,24a.25.25,0,0,1,.29.21l.27,0a.26.26,0,1,1,.51-.08l.27-.05a.25.25,0,0,1,.21-.29.26.26,0,0,1,.3.21l.26,0a.26.26,0,0,1,.22-.29.24.24,0,0,1,.29.21l.27-.05a.25.25,0,0,1,.21-.29.27.27,0,0,1,.3.21l.24,0,0-.31A.25.25,0,0,1,67.31,23.17Z"/><polygon class="i" points="58.32 13.82 61.72 13.32 62.51 12.38 59.11 12.88 58.32 13.82"/><polygon class="i" points="72.96 10.86 72.17 11.8 75.58 11.31 76.37 10.37 72.96 10.86"/><polygon class="i" points="30.61 17.85 34.01 17.35 34.8 16.41 31.4 16.91 30.61 17.85"/><polygon class="i" points="44.46 15.83 47.86 15.34 48.66 14.4 45.25 14.89 44.46 15.83"/><polygon class="i" points="61.35 50.29 57.9 50.78 57.11 51.84 60.56 51.34 61.35 50.29"/><polygon class="i" points="47.3 52.3 43.84 52.8 43.05 53.85 46.51 53.35 47.3 52.3"/><path class="i" d="M29.76,55.29a.47.47,0,0,0,.53.39l2.17-.31.79-1.06-3.46.5-.08.11Z"/><polygon class="i" points="75.4 48.28 71.95 48.77 71.16 49.83 74.61 49.33 75.4 48.28"/><polygon class="i" points="28.3 39.37 27.81 35.92 26.76 35.12 27.24 38.58 28.3 39.37"/><polygon class="i" points="25.32 24.86 26.37 25.65 25.89 22.2 24.83 21.41 25.32 24.86"/><polygon class="i" points="29.12 51.61 30.17 52.4 29.69 48.95 28.64 48.16 29.12 51.61"/><polygon class="i" points="85.85 32.3 85.37 28.84 84.32 28.05 84.8 31.51 85.85 32.3"/><polygon class="i" points="82.85 17.44 83.9 18.24 83.42 14.78 82.38 13.99 82.85 17.44"/><polygon class="i" points="51.39 14.83 54.79 14.33 55.58 13.39 52.18 13.88 51.39 14.83"/><polygon class="i" points="65.24 12.81 68.65 12.32 69.44 11.38 66.04 11.87 65.24 12.81"/><path class="i" d="M24.35,18.34l.06.41,2.67-.39.79-.94-3.12.45A.45.45,0,0,0,24.35,18.34Z"/><path class="i" d="M82.54,9.88A.45.45,0,0,0,82,9.54l-2.14.32-.79.94,3.4-.5.09-.1Z"/><polygon class="i" points="37.53 16.84 40.94 16.35 41.73 15.4 38.32 15.9 37.53 16.84"/><polygon class="i" points="54.32 51.3 50.87 51.79 50.08 52.84 53.53 52.35 54.32 51.3"/><polygon class="i" points="39.48 54.36 40.27 53.31 36.82 53.8 36.03 54.85 39.48 54.36"/><polygon class="i" points="82.43 47.27 78.98 47.77 78.19 48.82 81.64 48.33 82.43 47.27"/><polygon class="i" points="68.38 49.28 64.92 49.78 64.13 50.83 67.58 50.34 68.38 49.28"/><polygon class="i" points="29.23 46.06 28.75 42.61 27.7 41.81 28.18 45.27 29.23 46.06"/><polygon class="i" points="27.36 32.68 26.87 29.23 25.82 28.43 26.31 31.89 27.36 32.68"/><polygon class="i" points="86.82 39.33 86.34 35.88 85.29 35.08 85.77 38.54 86.82 39.33"/><polygon class="i" points="84.88 25.27 84.4 21.81 83.35 21.02 83.83 24.47 84.88 25.27"/><path class="j" d="M82.19,20.49a.3.3,0,0,1-.26.32L69.67,22.13a.29.29,0,0,1-.32-.26l-.74-6.82a.31.31,0,0,1,.27-.33L81.13,13.4a.3.3,0,0,1,.32.27Z"/><polygon class="i" points="82.12 19.88 69.28 21.26 69.27 21.16 82.11 19.78 82.12 19.88"/><path class="i" d="M76.7,23.69a6.43,6.43,0,0,1-3.37-.44,5.56,5.56,0,0,0-5.57.37,5.88,5.88,0,0,1-5.67.39,5.07,5.07,0,0,0-2.89-.54s-.09-.15-.09-.19,0-.12,0-.12a5.08,5.08,0,0,1,2.94.56,5.84,5.84,0,0,0,5.58-.38A5.62,5.62,0,0,1,73.35,23a6.1,6.1,0,0,0,5.57-.38,6,6,0,0,1,2.71-.94s.15.11.16.15-.08.16-.12.16a5.7,5.7,0,0,0-2.66.92,5.57,5.57,0,0,1-2.31.83Z"/><path class="i" d="M77,25.9a6.31,6.31,0,0,1-3.37-.45,5.53,5.53,0,0,0-5.57.38,5.93,5.93,0,0,1-5.68.39,5.05,5.05,0,0,0-2.89-.54s-.09-.15-.09-.19,0-.12,0-.12a5.19,5.19,0,0,1,3,.55A5.8,5.8,0,0,0,68,25.54a5.63,5.63,0,0,1,5.67-.38,6.1,6.1,0,0,0,5.57-.38A5.88,5.88,0,0,1,82,23.84s.15.11.15.15-.08.16-.11.16a5.73,5.73,0,0,0-2.67.92,5.58,5.58,0,0,1-2.3.83Z"/><path class="i" d="M77,28a6.42,6.42,0,0,1-3.37-.45,5.54,5.54,0,0,0-5.57.38,5.91,5.91,0,0,1-5.67.39,5,5,0,0,0-2.9-.55s-.08-.14-.08-.18,0-.12,0-.12a5.16,5.16,0,0,1,2.94.55A5.79,5.79,0,0,0,68,27.61a5.67,5.67,0,0,1,5.68-.39,6,6,0,0,0,5.57-.38A5.91,5.91,0,0,1,82,25.9s.15.12.16.16-.08.15-.12.15a5.81,5.81,0,0,0-2.66.92A5.79,5.79,0,0,1,77,28Z"/><path class="i" d="M61,29.6A4.21,4.21,0,1,1,63.06,24,4.21,4.21,0,0,1,61,29.6Zm-3.42-7.4a3.94,3.94,0,1,0,5.23,1.93,3.95,3.95,0,0,0-5.23-1.93Z"/><path class="i" d="M58,24.71a.41.41,0,0,1-.22.6.42.42,0,0,1-.6-.22l-.27-.59.14-.06.27.59.27-.84.14-.06Z"/><path class="i" d="M58.49,25l-.12.05-.46-1,.67-.29.13,0,.46,1-1-.4Z"/><path class="i" d="M59.68,23.24l.59-.28,0,1.21-.15.07-.4-.85Z"/><path class="i" d="M57,25.3l0,.11c0,.05.06.12,0,.17l-.13,0,0,.11.16-.06c.18-.09.16-.19.11-.29l-.06-.14Z"/><polygon class="i" points="56.94 24.9 56.79 24.57 56.65 24.64 56.8 24.96 56.94 24.9"/><path class="i" d="M59.24,23.69l.11.25.14-.07-.21-.45-.11,0a.61.61,0,0,1-.08.26l.07.15A.54.54,0,0,0,59.24,23.69Z"/><path class="i" d="M58.63,25.73c.21-.1.43-.11.69.44.16.35.24.66-.11.82s-.53-.1-.69-.45C58.26,26,58.41,25.83,58.63,25.73Z"/><path class="i" d="M59.5,25.64a1,1,0,0,0,.09-.33l.14-.06.56,1.21-.18.08-.44-1a.85.85,0,0,1-.09.24Z"/><polygon class="i" points="60.94 25.73 60.74 25.83 60.84 25.16 60.99 25.49 61.17 25.41 60.85 24.73 60.74 24.78 60.56 25.97 60.61 26.07 61.02 25.88 60.94 25.73"/><path class="i" d="M57.73,26.33a.21.21,0,0,1,.29.12c.07.15,0,.35-.11.74l.22-.1a1.08,1.08,0,0,0,0-.76.36.36,0,0,0-.51-.16.61.61,0,0,0-.27.26l.15.1A.33.33,0,0,1,57.73,26.33Z"/><polygon class="i" points="58.47 27.3 58.53 27.27 58.53 27.09 58.4 27.15 58.47 27.3"/><path class="i" d="M77,30.71l-20.78,3a.14.14,0,0,1-.16-.12.14.14,0,0,1,.12-.16l20.78-3a.15.15,0,0,1,.16.12A.15.15,0,0,1,77,30.71Z"/><path class="i" d="M77.37,33.16,56.59,36.21a.15.15,0,0,1-.16-.12.13.13,0,0,1,.11-.16l20.78-3a.15.15,0,0,1,.16.12A.13.13,0,0,1,77.37,33.16Z"/><path class="i" d="M77.72,35.62l-20.78,3a.15.15,0,0,1-.16-.12.15.15,0,0,1,.12-.16l20.78-3a.14.14,0,0,1,.16.12A.14.14,0,0,1,77.72,35.62Z"/><path class="i" d="M78.08,38.07l-20.78,3a.14.14,0,0,1-.16-.12.15.15,0,0,1,.12-.16l20.78-3a.14.14,0,0,1,0,.28Z"/><g class="k"><line class="f" x1="102.73" y1="31.85" x2="93.6" y2="31.85"/><polyline class="f" points="105.01 52.38 118.7 52.38 118.7 31.85 109.57 31.85"/><polyline class="f" points="122.12 52.38 118.7 52.38 118.7 35.27 127.83 35.27 133.53 44.4 133.53 52.38 128.97 52.38"/><circle class="f" cx="125.55" cy="52.39" r="3.42"/><circle class="f" cx="101.59" cy="52.39" r="3.42"/><line class="f" x1="89.03" y1="36.41" x2="97.02" y2="36.41"/><line class="f" x1="87.89" y1="46.68" x2="95.88" y2="46.68"/><line class="f" x1="91.32" y1="52.39" x2="97.02" y2="52.39"/><line class="f" x1="92.46" y1="40.97" x2="97.02" y2="40.97"/><line class="f" x1="85.61" y1="40.97" x2="87.89" y2="40.97"/><path class="f" d="M115.28,20.57a9.13,9.13,0,1,0-16.1,5.91L103,31.72l3.19,4.69,7-9.93A9.22,9.22,0,0,0,115.28,20.57Z"/><path class="f" d="M106.15,23.35a3.23,3.23,0,1,1,3.18-3.23A3.21,3.21,0,0,1,106.15,23.35Z"/><line class="f" x1="133.54" y1="44.4" x2="118.7" y2="44.4"/></g></g></svg>