<svg xmlns="http://www.w3.org/2000/svg" xmlns:xlink="http://www.w3.org/1999/xlink" viewBox="0 0 140 60"><defs><style>.a{fill:none;}.b{clip-path:url(#a);}.c{fill:#e9f0f7;}.d{opacity:0.35;}.e{fill:#869cb3;}.f{fill:#fff;stroke:#869cb3;stroke-miterlimit:10;stroke-width:0.44px;}</style><clipPath id="a"><rect class="a" width="140" height="60"/></clipPath></defs><g class="b"><rect class="c" x="63.74" y="11.92" width="68.32" height="29.6" rx="6.08"/><g class="d"><path class="e" d="M42.11,38.34c.06-.25.13-.5.19-.75L11.78,16.53l-.76.36Z"/><path class="e" d="M8.8,17.79,41.51,40.26c.07-.2.15-.41.22-.62L9.54,17.52C9.29,17.62,9.05,17.71,8.8,17.79Z"/><path class="e" d="M41,41.65,7.11,18.33c-.2.06-.4.1-.6.15v.13l-.1,0L40.77,42.26Z"/><path class="e" d="M40.18,43.63,6.8,20.71c.06.3.13.61.19.91l32.92,22.6Z"/><path class="e" d="M7.5,23.66c.08.32.17.63.25.95L39,46l.31-.56Z"/><path class="e" d="M8.59,27.4,38,47.64c.12-.18.23-.36.34-.54L8.27,26.4C8.37,26.74,8.48,27.07,8.59,27.4Z"/><path class="e" d="M9.34,29.59c.13.36.26.71.4,1.05L36.88,49.3l.36-.52Z"/><path class="e" d="M10.69,33c.16.38.33.76.5,1.13l24.45,16.8.4-.5Z"/><path class="e" d="M12.23,36.19c.22.41.43.83.65,1.22L34.45,52.23l.44-.47Z"/><path class="e" d="M15.9,42.1l17,11.66.49-.44L14.84,40.59C15.19,41.11,15.54,41.61,15.9,42.1Z"/><path class="e" d="M18.34,45.1a30.48,30.48,0,0,0,12.78,8.78Z"/><path class="e" d="M42.61,36.31c0-.26.1-.52.14-.78l-29-20-.72.39Z"/><path class="e" d="M43,34c0-.26.07-.52.11-.78L15.72,14.32l-.66.41Z"/><path class="e" d="M43.3,31.65c0-.25.05-.49.06-.74L17.77,13l-.56.39Z"/><path class="e" d="M19.26,11.89,43.45,28.94c0-.25,0-.52,0-.78L19.8,11.49Z"/><path class="e" d="M21.68,10l-.51.42L43.4,25.82c0-.26,0-.53,0-.8Z"/><path class="e" d="M23.49,8.41l-.3.28L43.13,22.55c0-.28-.07-.56-.11-.85L25.48,9.5C24.23,8.88,23.49,8.41,23.49,8.41Z"/><path class="e" d="M32.67,11.92c-.57-.1-1.11-.23-1.65-.36l11.69,8.13c-.05-.3-.12-.61-.18-.91Z"/><path class="e" d="M36.82,12.3c-.39,0-.77,0-1.15,0l6.44,4.48c-.07-.31-.16-.63-.24-.94Z"/><path class="e" d="M39.63,12.09l-.94.12,2.74,1.9c-.09-.32-.2-.65-.29-1Z"/></g><path class="e" d="M89.72,35.77c-7.24-2.44-9.63,6-13,10.56-2.71-8,.89-17-2.37-24.94-.13-.3-.7-.43-.76,0-.9,6.22.31,12.61-.72,18.8a4.56,4.56,0,0,0-3.64-2.86,3.37,3.37,0,0,0-.71,0c-.51-6.3-1-12.6-1-18.93a.39.39,0,0,0-.78,0v2.06a.23.23,0,0,0,0,.12c.08,5.64.49,11.27.94,16.9a4.72,4.72,0,0,0-3,2.71h0a4.39,4.39,0,0,0-.91.49c-.24-.83-.69-1.58-.93-2.42a.4.4,0,0,0-.76,0c0,.21-.08.42-.13.63-.45-1-.93-1.9-1.35-2.87.52-2-.21-4.58-.9-6.26-.13-.32-.66-.41-.75,0A10.21,10.21,0,0,0,59.7,36a3.17,3.17,0,0,1-.62,1.21c-1.42,1.7-1.94-.54-2-1.67a.39.39,0,0,0-.78,0c-.09.88-.39,3.38-1.56,3.53-1,.12-1.56-1.8-1.68-2.65.13-1.12.23-2.25.36-3.37,0-.3-.31-.45-.55-.37l.15-.38A21.8,21.8,0,0,0,53.93,23a18.86,18.86,0,0,0-1.22-6c-.48-1.09-1.6-2.82-3.05-2.21-1,.42-1.38,1.7-1.64,2.66a6.46,6.46,0,0,0-3.24-2c-4.61-1.21-7.4,2.94-8.88,6.66a26.07,26.07,0,0,0-1.84,12A25.22,25.22,0,0,0,38,45.82a6.6,6.6,0,0,0,5.15,3.12,6.53,6.53,0,0,0,5.93-4.08,4.94,4.94,0,0,0,.33-1.31,1.06,1.06,0,0,0,1.72,0c1-1,1.24-3,1.49-4.28.06-.28.1-.57.15-.85a2.82,2.82,0,0,0,1.64,1.38c1.17.39,1.85-.89,2.24-2.19a1.74,1.74,0,0,0,.66.82c1,.57,1.88-.16,2.5-.91a2.56,2.56,0,0,0,.33-.48c.41.91.85,1.81,1.26,2.67l.2.45A13.94,13.94,0,0,0,61,46,14.22,14.22,0,0,0,62,50.2c.52,1,1.51,1.88,1.79,3,.1.42.83.34.77-.11-.53-4-.3-8.1-1.69-11.93-.14-.38-.29-.75-.46-1.13,0-.12.07-.23.1-.35a5.6,5.6,0,0,1,.56,1.72.4.4,0,0,0,.67.28,3,3,0,0,1,.72-.47c-.09,1.85,1,4,1.69,5.59.91,2.2,2.17,4.41,2.68,6.74a.39.39,0,0,0,.77-.11c-.23-5.11-.67-10.21-1.07-15.31,2.16-.26,3.69,1.9,4,3.91,0,.4.67.36.75,0,1.47-6.16.29-12.53.86-18.78,2.3,7.74-.91,16.31,2,24a.4.4,0,0,0,.65.18c3.41-4.08,5.66-13.25,12.7-10.89C90,36.68,90.2,35.93,89.72,35.77ZM50.21,15.44c2.1,0,2.6,4.64,2.78,6a26.29,26.29,0,0,1-.19,8.58c-.57,2.81-2,5.68-4.56,7,0-.28-.05-.56-.07-.82a97.48,97.48,0,0,1-.23-11.59,43.11,43.11,0,0,1,.49-5.45c1.32,2.21,1.77,5.08,2.49,7.45.11.34.69.4.76,0a24.36,24.36,0,0,0,.15-3.62.39.39,0,0,0-.78,0q0,.59,0,1.17a20.13,20.13,0,0,0-2.42-6C48.81,17.27,49.2,15.46,50.21,15.44Zm-2.7,30.62a5.44,5.44,0,0,1-6.17,1.7c-1.86-.82-3.06-2.75-3.93-4.49a25.5,25.5,0,0,1-2.68-11.79C34.87,27,36.1,21.63,39,18.12a5.51,5.51,0,0,1,8.28-.37c.17.18.33.37.49.57-.85,3.71-.73,7.75-.68,11.5a70.06,70.06,0,0,0,.36,7.63c-.14.06-.29.1-.44.15a5.66,5.66,0,0,0-6.25-.75c-.4.19-.12.86.3.72.86-.3,2.29.36,3.13.56a7.69,7.69,0,0,0,2.46.3,6.26,6.26,0,0,1,1.27,1.66c.1.41.2.83.33,1.23a6.82,6.82,0,0,0,.34.93A5.1,5.1,0,0,1,47.51,46.06Zm-1.85-8.37a21.34,21.34,0,0,1-2.45-.62l-.11,0A4.7,4.7,0,0,1,45.66,37.69Zm5.52,4.09c-.22.67-.74,2-1.44,1a3.92,3.92,0,0,1-.32-.53,7.35,7.35,0,0,0-.88-2.69c-.09-.51-.16-1-.22-1.54a9.17,9.17,0,0,0,4.26-4.71,20.59,20.59,0,0,0-.27,2.5c-.12,1.09-.25,2.18-.43,3.26A18.66,18.66,0,0,1,51.18,41.78Zm8.69-7.66a8.54,8.54,0,0,1-.39-2.46A12.74,12.74,0,0,1,59.87,34.12Zm3.7,17.07-.23-.33A9.93,9.93,0,0,1,62,47.09a11,11,0,0,1-.16-4.75q.12-.53.27-1.05C63.16,44.5,63.25,47.82,63.57,51.19Zm2-8.41a4.92,4.92,0,0,1-.25-1.94,5.49,5.49,0,0,0,1.58-.76c.4-.31-.16-.86-.55-.55a2.41,2.41,0,0,1-.64.33,4.54,4.54,0,0,1,2.08-1.58c.33,4.11.67,8.23.91,12.35-.27-.64-.56-1.26-.83-1.88A48.41,48.41,0,0,1,65.55,42.78Z"/><path class="f" d="M90.69,37.24s-.93.36-1,.24.59-.93.59-.93Z"/><path class="f" d="M95.24,36.07c-.55.14-3.74,1-4.66,1.25l0,0a.94.94,0,0,1-.42-.53h0a.25.25,0,0,1,0-.12c.31-.47,2.31-2.92,2.86-3.57a2.67,2.67,0,0,0,.37,1.8C94.05,35.82,94.75,36.15,95.24,36.07Z"/><path class="f" d="M102.73,31.6,95.53,36a.53.53,0,0,1-.28.1h0c-.49.08-1.19-.25-1.87-1.2a1.69,1.69,0,0,1-.37-1.8v0a.81.81,0,0,1,.28-.35l6.88-5.51,0,0-.24.18c-.71.38-.71,1.63.18,2.84S102,32,102.7,31.58h0Z"/><path class="f" d="M131,12.69,102.72,31.57h0c-.69.4-1.72-.19-2.57-1.32s-.89-2.46-.18-2.84l.24-.18L126.37,7a1.89,1.89,0,0,0-.25.86L100.5,27.77l-1,.8a3.23,3.23,0,0,0,.46,1.36l1.28-.93,13.39-9.77a1.92,1.92,0,0,0,.26.45c.43.58,1.08.85,1.46.6l12-7.88.14-.09a2.22,2.22,0,0,0,2.38.35l0,0Z"/><path class="f" d="M126.21,8.87a2.82,2.82,0,0,0-.29.19l-5.66,4.59-5.52,4.47a1,1,0,0,0-.13,1.11L101.22,29l-1.28.93a3.23,3.23,0,0,1-.46-1.36l1-.8,25.62-19.9A3.54,3.54,0,0,0,126.21,8.87Z"/><path class="f" d="M130.92,12.63l0,0a2.22,2.22,0,0,1-2.38-.35l-.14.09-12,7.88c-.38.25-1,0-1.46-.6a1.92,1.92,0,0,1-.26-.45,1,1,0,0,1,.13-1.11l5.52-4.47,5.66-4.59a2.82,2.82,0,0,1,.29-.19,3.54,3.54,0,0,1-.09-1,1.89,1.89,0,0,1,.25-.86,1.11,1.11,0,0,1,.38-.42c1-.68,2.64.13,3.82,1.88S131.88,12,130.92,12.63Z"/></g></svg>