<svg xmlns="http://www.w3.org/2000/svg" xmlns:xlink="http://www.w3.org/1999/xlink" viewBox="0 0 140 60"><defs><style>.a,.e{fill:none;}.b{clip-path:url(#a);}.c{fill:#e9f0f7;}.d{opacity:0.22;}.e{stroke:#b0bbce;stroke-linecap:round;}.e,.i{stroke-miterlimit:10;}.f{opacity:0.61;}.g{fill:#869cb3;}.h{opacity:0.3;}.i{fill:#fff;stroke:#869cb3;stroke-width:0.44px;}</style><clipPath id="a"><rect class="a" width="140" height="60"/></clipPath></defs><g class="b"><rect class="c" x="16.27" y="13.66" width="84.86" height="36.77" rx="7.55"/><g class="d"><polyline class="e" points="65.19 47.53 63.59 47.25 63.14 49.85 87.92 54.08 88.36 51.48 86.71 51.2"/><polyline class="e" points="79.25 47.25 65.68 44.94 65.24 47.54 70.63 48.46"/><polyline class="e" points="73.14 48.88 86.71 51.2 87.15 48.6 81.72 47.67"/><polyline class="e" points="72.77 35.29 65.82 34.11 79.42 29.16 90.61 38.33 75.28 35.72"/><rect class="e" x="68.24" y="34.82" width="2.62" height="10.7" transform="translate(7.74 -11.12) rotate(9.67)"/><rect class="e" x="83.77" y="37.47" width="2.62" height="10.7" transform="translate(161.75 99.32) rotate(-170.33)"/><rect class="e" x="76" y="36.14" width="2.62" height="10.7" transform="translate(8.07 -12.4) rotate(9.67)"/></g><g class="f"><path class="g" d="M118.56,18.11V18l.31,0V18l.31,0,0-.31-.31-.05,0-.08-.31-.05,0-.15-5.73-1.1,0-.18-.15,0,.05-.31h-.08l0-.31-.31-.05,0,.31-.07,0,0,.31-.16,0,0,.19-5.78-.81,0,.15-.31,0v.08l-.3-.05-.06.3.31,0V16l.31.05,0,.08-4.48,6h0c.19,1.17,1.51,2.23,3.24,2.51s3.33-.29,3.88-1.33h0l-2.29-7,5.39,1-1.82,11-6-1-.77.85,14,2.32-.46-1-6-1,1.81-11,5.43.76-4.42,5.91h0c.19,1.17,1.51,2.23,3.24,2.52s3.33-.3,3.88-1.34h0Zm-9.9,5.1L102,22.11l4.37-5.84Zm5.35.88,4.37-5.84,2.26,6.94Z"/><path class="g" d="M125.41,27.49a5,5,0,0,0,1.72-2.56,4.81,4.81,0,0,0-.81-3,6.17,6.17,0,0,1-.69-1.73,6.65,6.65,0,0,1,.15-1.94,4.89,4.89,0,0,0-.11-3,4.9,4.9,0,0,0-2.36-1.89,6.45,6.45,0,0,1-1.62-1,6.14,6.14,0,0,1-1-1.62,4.83,4.83,0,0,0-1.87-2.41,2.81,2.81,0,0,0-.79-.25,7,7,0,0,0-2.18.11,6.45,6.45,0,0,1-2,.12A6.86,6.86,0,0,1,112,7.55a7.25,7.25,0,0,0-2-.81,2.58,2.58,0,0,0-.83,0,5,5,0,0,0-2.55,1.67,6.35,6.35,0,0,1-1.46,1.22,6.49,6.49,0,0,1-1.87.45,4.86,4.86,0,0,0-2.84,1,4.9,4.9,0,0,0-1.07,2.81,6.6,6.6,0,0,1-.49,1.89,6.33,6.33,0,0,1-1.21,1.41A5,5,0,0,0,96,19.77a5,5,0,0,0,.81,3,5.88,5.88,0,0,1,.69,1.73,6.3,6.3,0,0,1-.14,1.94,4.89,4.89,0,0,0,.11,3,4.85,4.85,0,0,0,2.36,1.89,6.63,6.63,0,0,1,1.62,1,6.4,6.4,0,0,1,1,1.62,4.9,4.9,0,0,0,1.88,2.41,2.81,2.81,0,0,0,.79.25,7,7,0,0,0,2.18-.11,6.44,6.44,0,0,1,2-.12,6.68,6.68,0,0,1,1.83.75,7.31,7.31,0,0,0,2,.81,2.52,2.52,0,0,0,.82,0,5,5,0,0,0,2.56-1.67,6.35,6.35,0,0,1,1.46-1.22,6.49,6.49,0,0,1,1.87-.45,4.88,4.88,0,0,0,2.84-1,4.9,4.9,0,0,0,1.07-2.82,6.3,6.3,0,0,1,.49-1.88A5.88,5.88,0,0,1,125.41,27.49Zm-2,1a7,7,0,0,0-.58,2.15A4.16,4.16,0,0,1,122,33a4.23,4.23,0,0,1-2.34.79,6.93,6.93,0,0,0-2.15.54,7.11,7.11,0,0,0-1.69,1.38,4.21,4.21,0,0,1-2,1.42,4.28,4.28,0,0,1-2.3-.73,7.33,7.33,0,0,0-2.11-.84,7.2,7.2,0,0,0-2.26.12,4.36,4.36,0,0,1-2.41-.05,4.21,4.21,0,0,1-1.49-2,6.74,6.74,0,0,0-1.16-1.85,7.1,7.1,0,0,0-1.85-1.2,4.22,4.22,0,0,1-2-1.5,4.21,4.21,0,0,1,0-2.45,7.27,7.27,0,0,0,.14-2.22,6.78,6.78,0,0,0-.77-2,4.25,4.25,0,0,1-.73-2.42,4.27,4.27,0,0,1,1.47-2.06,6.93,6.93,0,0,0,1.38-1.65,7.27,7.27,0,0,0,.58-2.15,4.16,4.16,0,0,1,.81-2.31,4.18,4.18,0,0,1,2.34-.79,6.87,6.87,0,0,0,2.14-.54A7,7,0,0,0,107.27,9a4.21,4.21,0,0,1,2-1.42,4.28,4.28,0,0,1,2.3.73,7.27,7.27,0,0,0,2.1.84A7.25,7.25,0,0,0,116,9.07a4.37,4.37,0,0,1,2.41,0,4.19,4.19,0,0,1,1.48,2A7.25,7.25,0,0,0,121,13a7.33,7.33,0,0,0,1.86,1.2,4.14,4.14,0,0,1,2,1.5,4.2,4.2,0,0,1,0,2.45,7,7,0,0,0-.15,2.22,7.1,7.1,0,0,0,.78,2,4.16,4.16,0,0,1,.72,2.42,4.18,4.18,0,0,1-1.46,2.06A6.93,6.93,0,0,0,123.4,28.49Z"/><path class="g" d="M113.39,11.22a11.28,11.28,0,1,0,9.29,13A11.29,11.29,0,0,0,113.39,11.22Zm-3.53,21.37A10.38,10.38,0,1,1,121.79,24,10.4,10.4,0,0,1,109.86,32.59Z"/></g><path class="g" d="M45.24,36.27a.66.66,0,0,0-.61-.61,32.24,32.24,0,0,0-3.37.31c-5,.46-13.15,1.22-15.75-1.38a2.84,2.84,0,0,1-.77-2.45c.61-4.89,8.57-10.55,11.78-13,4.13-2.9,9.18-5.66,11-4.74.46.15.77.77.92,1.53A4,4,0,0,1,47.23,19c-.92,1.07-2.15,2-3.06,2a.61.61,0,0,0,0,1.22A6.31,6.31,0,0,0,48,19.75a5.71,5.71,0,0,0,1.53-4A2.78,2.78,0,0,0,48,13.33C44.78,12,37.9,16.7,35.91,18.22,32.39,20.82,24.28,26.79,23.67,32a4.14,4.14,0,0,0,1.07,3.52c1.69,1.83,5.2,2.29,8.87,2.29,2.76,0,5.66-.3,8-.46,1.37-.15,2.44-.3,3.36-.3,0-.16.31-.46.31-.77"/><path class="g" d="M67.87,34.13a2.31,2.31,0,0,1,.46-.76c-2.75-.46-2.6,1.37-6.42,2.6.15-.16.15-.31.31-.61a27.46,27.46,0,0,0,10.09-9c1.68-2.6,2.14-4.74,1.22-6.12A1.64,1.64,0,0,0,72,19.14c-2.29,0-4.89,4.59-8.71,11.47-.77,1.23-1.38,2.6-2,3.67a8.13,8.13,0,0,1-4,.92,4.51,4.51,0,0,1-2.14-.92A5,5,0,0,0,52,33.37a4.28,4.28,0,0,0-2.6,1.53c1.53-2.15,3.52-4.59,5-4.29a.84.84,0,0,0,.77-.46.83.83,0,0,0-.46-.76c-2.75-.46-5.51,3.36-7.49,6.27-.46.61-.77,1.22-1.07,1.53l-.16.15v.16a1,1,0,0,0,.46.91c.61.31,1.07-.15,2.3-1.37.91-.92,2.6-2.45,3.36-2.6a3.5,3.5,0,0,1,2.6.76,5.11,5.11,0,0,0,2.6,1.07,5.5,5.5,0,0,0,3.06-.46,1.21,1.21,0,0,0-.31.62c-.76.3-1.68.45-2.75.76-5.35,1.53-12.54,3.67-14.84,9C41.26,49,41.72,52.33,43.71,56c.61,1.07,1.22,1.69,2.14,1.69h0c2.91,0,6.42-5.66,10.86-13.46,1.53-2.6,2.9-5.2,4-6.58V37.5a8,8,0,0,0,1.53-.62c4.12-1.68,4-2.9,5.65-2.75m-3.51-2.6c2.44-4.43,6.11-10.86,7.8-10.86h0c.15,0,.3,0,.46.46.61,1.07.15,2.75-1.23,4.9a30,30,0,0,1-8.1,7.64c.45-.92.76-1.53,1.07-2.14M55.64,43.77c-3.21,5.5-7.5,12.84-9.79,12.84h0c-.15,0-.61,0-1.07-.91-1.84-3.52-2.14-6.58-1.07-9,2-4.74,9-6.73,14.07-8.26a4.85,4.85,0,0,1,1.22-.3c-1.22,1.68-2.14,3.67-3.36,5.66"/><g class="h"><path class="g" d="M24,47.6c.08-.14.15-.28.22-.42l-15-16.82-.5.11Z"/><path class="g" d="M7.28,30.68l16.11,18a4,4,0,0,0,.22-.34L7.75,30.63Z"/><path class="g" d="M22.9,49.4,6.21,30.76H5.83a.24.24,0,0,0,0,.08H5.75L22.67,49.72C22.75,49.62,22.82,49.51,22.9,49.4Z"/><path class="g" d="M22.12,50.45,5.68,32.12c0,.19,0,.38,0,.56L21.88,50.76Z"/><path class="g" d="M5.67,34c0,.2,0,.4,0,.6L21.07,51.69c.08-.1.17-.19.26-.29Z"/><path class="g" d="M5.78,36.33,20.26,52.51l.28-.28L5.73,35.69C5.75,35.91,5.76,36.12,5.78,36.33Z"/><path class="g" d="M5.91,37.73c0,.23,0,.46.08.68L19.36,53.32l.29-.25Z"/><path class="g" d="M6.22,39.92c0,.25.09.49.14.73l12,13.44.31-.24Z"/><path class="g" d="M6.67,42c.07.28.14.56.21.82L17.5,54.71l.33-.21Z"/><path class="g" d="M8,46.06l8.36,9.33.35-.19L7.58,45C7.72,45.38,7.85,45.73,8,46.06Z"/><path class="g" d="M9,48.18a18.55,18.55,0,0,0,6.29,7Z"/><path class="g" d="M24.61,46.47c.07-.14.13-.29.2-.44L10.54,30l-.48.13Z"/><path class="g" d="M25.18,45.17l.18-.45L11.87,29.62l-.45.15Z"/><path class="g" d="M25.68,43.81l.15-.42L13.28,29.11l-.39.15Z"/><path class="g" d="M14.31,28.69,26.16,42.24l.12-.46L14.69,28.53Z"/><path class="g" d="M16,27.91l-.36.18,10.93,12.3.09-.49Z"/><path class="g" d="M17.31,27.24l-.22.12,9.8,11.06L27,37.9l-8.62-9.73A12.9,12.9,0,0,1,17.31,27.24Z"/><path class="g" d="M22.23,30.63c-.32-.14-.63-.29-.92-.45l5.74,6.48c0-.18,0-.37,0-.56Z"/><path class="g" d="M24.63,31.45c-.23-.05-.46-.11-.68-.18l3.16,3.57c0-.19,0-.39,0-.59Z"/><path class="g" d="M26.32,31.73l-.58-.07,1.35,1.52,0-.62Z"/></g><path class="i" d="M69.1,34.45s-.94.37-1,.25.59-.94.59-.94Z"/><path class="i" d="M73.64,33.28c-.54.14-3.74,1-4.66,1.25l0,0a.89.89,0,0,1-.41-.53h0a.14.14,0,0,1,0-.11c.31-.48,2.32-2.92,2.86-3.58a2.67,2.67,0,0,0,.37,1.8C72.45,33,73.15,33.37,73.64,33.28Z"/><path class="i" d="M81.13,28.81l-7.2,4.38a.58.58,0,0,1-.28.09h0c-.49.09-1.19-.25-1.87-1.2a1.69,1.69,0,0,1-.37-1.8,0,0,0,0,1,0,0,.87.87,0,0,1,.28-.35l6.88-5.5,0,0-.23.18c-.72.38-.72,1.63.18,2.85s1.88,1.72,2.57,1.31h0Z"/><path class="i" d="M109.37,9.91,81.12,28.78h0c-.69.41-1.72-.19-2.57-1.31s-.9-2.47-.18-2.85l.23-.18L104.77,4.22a1.93,1.93,0,0,0-.25.86L78.91,25l-1,.8a3.2,3.2,0,0,0,.47,1.37l1.28-.94L93,16.44a2,2,0,0,0,.26.46c.43.58,1.08.84,1.46.59l12.06-7.87s.11-.07.14-.1a2.18,2.18,0,0,0,2.37.35l0,0Z"/><path class="i" d="M104.61,6.08c-.09,0-.17.12-.29.2l-5.66,4.59-5.52,4.47a1,1,0,0,0-.13,1.1L79.63,26.21l-1.28.94a3.2,3.2,0,0,1-.47-1.37l1-.8,25.61-19.9A3.54,3.54,0,0,0,104.61,6.08Z"/><path class="i" d="M109.33,9.84l0,0a2.18,2.18,0,0,1-2.37-.35s-.1.05-.14.1L94.73,17.49c-.38.25-1,0-1.46-.59a2,2,0,0,1-.26-.46,1,1,0,0,1,.13-1.1l5.52-4.47,5.66-4.59c.12-.08.2-.15.29-.2a3.54,3.54,0,0,1-.09-1,1.93,1.93,0,0,1,.25-.86,1.28,1.28,0,0,1,.38-.42c1-.67,2.64.14,3.82,1.88S110.28,9.18,109.33,9.84Z"/></g></svg>