<svg xmlns="http://www.w3.org/2000/svg" xmlns:xlink="http://www.w3.org/1999/xlink" viewBox="0 0 140 60"><defs><style>.a,.g,.i,.j,.o,.p,.q,.u{fill:none;}.b{clip-path:url(#a);}.c{fill:#e9f0f7;}.d{opacity:0.35;}.e{fill:#869cb3;}.f{opacity:0.56;}.g,.u{stroke:#748aa4;stroke-linejoin:round;stroke-width:0.3px;}.g,.i,.j,.u{stroke-linecap:round;}.h{opacity:0.78;}.i,.j{stroke:#b0bbce;}.i,.j,.o,.p,.q,.r,.s,.t{stroke-miterlimit:10;}.i,.j,.r,.s,.t{stroke-width:0.5px;}.i{opacity:0.57;}.k{opacity:0.5;}.l{fill:#b0bbce;}.m,.o,.p,.q{opacity:0.38;}.n{fill:#5d7795;}.o,.p,.q{stroke:#617a97;}.o{stroke-width:0.46px;}.p{stroke-width:0.51px;}.q{stroke-width:0.59px;}.r,.s,.t{fill:#fff;stroke:#869cb3;}.s{opacity:0.3;}.t{opacity:0.22;}.u{opacity:0.31;}</style><clipPath id="a"><rect class="a" width="140" height="60"/></clipPath></defs><g class="b"><rect class="c" x="22.07" y="14.55" width="84.86" height="36.77" rx="7.55"/><g class="d"><polygon class="e" points="37.89 51.51 8.98 35.22 7.81 35.55 36.73 51.84 37.89 51.51"/><polygon class="e" points="34.53 52.85 7.29 37.5 7.58 38.53 33.51 53.13 34.53 52.85"/><polygon class="e" points="8.29 41.08 8.58 42.11 30.69 54.56 31.71 54.28 8.29 41.08"/><polygon class="e" points="9.15 44.17 9.44 45.2 27.6 55.42 28.62 55.14 9.15 44.17"/><polygon class="e" points="9.95 47.01 10.24 48.04 24.76 56.22 25.78 55.93 9.95 47.01"/><polygon class="e" points="10.85 50.23 11.13 51.25 21.55 57.12 22.57 56.83 10.85 50.23"/><polygon class="e" points="19.85 57.59 11.61 52.95 11.89 53.97 18.83 57.88 19.85 57.59"/><polygon class="e" points="40.86 50.49 12.18 34.33 11.01 34.65 39.7 50.81 40.86 50.49"/><polygon class="e" points="43.86 49.33 15.55 33.39 14.4 33.71 42.72 49.65 43.86 49.33"/><path class="e" d="M44.77,46.71,19.28,32.35l-.91.25h0l-.11,0,26.67,15,.1,0Z"/><polygon class="e" points="23.01 31.3 21.98 31.59 44.02 44 43.73 42.98 23.01 31.3"/><polygon class="e" points="27.13 30.15 26.11 30.44 42.87 39.88 42.58 38.85 27.13 30.15"/><polygon class="e" points="31.09 29.05 30.06 29.33 41.76 35.92 41.48 34.9 31.09 29.05"/><polygon class="e" points="34.05 28.22 33.03 28.5 40.93 32.96 40.65 31.93 34.05 28.22"/></g><g class="f"><path class="g" d="M46.09,41.52,24.35,47.24a.6.6,0,0,1-.74-.43L18.24,26.39a.59.59,0,0,1,.43-.74L41,19.78"/><line class="g" x1="19.5" y1="31.2" x2="39.48" y2="26"/><line class="g" x1="37.75" y1="17.16" x2="39.17" y2="22.56"/><line class="g" x1="21.55" y1="21.43" x2="22.97" y2="26.82"/></g><g class="h"><polyline class="i" points="86.67 51.07 80.08 50.41 84.43 6.87 92.31 7.66"/><polyline class="i" points="109.86 9.41 117.34 10.16 114.66 37.05"/><path class="j" d="M87.14,48.78,82,48.27,85.83,10a1.74,1.74,0,0,1,1.9-1.56l4.68.47"/><path class="j" d="M109.76,10.66l4.25.43a1.73,1.73,0,0,1,1.55,1.9l-2.4,24.06"/><path class="j" d="M92.61,9.77s.24-2.55,4.72-2.11C100.2,8,99,4.28,99,4.28l4.47.44S101.15,8,105.3,8.45s3.89,3,3.89,3Z"/><g class="k"><path class="l" d="M88.75,18.93a.81.81,0,0,1-.52-.84l.37-3.72a.82.82,0,0,1,.89-.72l4,.4a.8.8,0,0,1,.72.88l-.37,3.72a.81.81,0,0,1-.88.73L89,19A.72.72,0,0,1,88.75,18.93Zm4.83-4.53a.27.27,0,0,0-.12,0l-4-.4a.47.47,0,0,0-.36.11.44.44,0,0,0-.17.32l-.38,3.73a.5.5,0,0,0,.44.53l4,.4a.49.49,0,0,0,.35-.11.48.48,0,0,0,.18-.33l.37-3.72A.48.48,0,0,0,93.58,14.4Z"/><path class="l" d="M87.92,27.28a.79.79,0,0,1-.52-.84l.37-3.72a.77.77,0,0,1,.29-.54.8.8,0,0,1,.59-.18l4,.4a.81.81,0,0,1,.73.88L93,27a.8.8,0,0,1-.3.55.78.78,0,0,1-.59.18l-4-.4A.65.65,0,0,1,87.92,27.28Zm4.82-4.53a.21.21,0,0,0-.12,0l-4-.4a.45.45,0,0,0-.35.11.46.46,0,0,0-.18.32l-.37,3.73a.49.49,0,0,0,.43.53l4,.4a.5.5,0,0,0,.54-.44l.37-3.72A.48.48,0,0,0,92.74,22.75Z"/><path class="l" d="M86.52,44.75a.83.83,0,0,1-.52-.84l.38-3.72a.79.79,0,0,1,.29-.55.8.8,0,0,1,.59-.18l4,.4a.83.83,0,0,1,.55.29.86.86,0,0,1,.18.6l-.38,3.72a.8.8,0,0,1-.88.72l-4-.4A.78.78,0,0,1,86.52,44.75Zm4.83-4.54-.12,0-4-.4a.52.52,0,0,0-.36.11.47.47,0,0,0-.17.33l-.37,3.72a.48.48,0,0,0,.43.53l4,.4a.48.48,0,0,0,.53-.43l.37-3.73a.45.45,0,0,0-.1-.35A.51.51,0,0,0,91.35,40.21Z"/><path class="l" d="M87.07,35.77a.79.79,0,0,1-.52-.84l.37-3.72a.83.83,0,0,1,.29-.55.81.81,0,0,1,.6-.17l4,.4a.81.81,0,0,1,.72.88l-.37,3.72a.82.82,0,0,1-.89.73l-4-.4Zm4.83-4.53a.28.28,0,0,0-.13,0l-4-.4a.44.44,0,0,0-.35.1.54.54,0,0,0-.18.33L86.87,35a.49.49,0,0,0,.43.53l4,.4a.51.51,0,0,0,.35-.11.52.52,0,0,0,.18-.33l.37-3.72A.48.48,0,0,0,91.9,31.24Z"/><path class="l" d="M95.41,16a.17.17,0,0,1-.11-.18.17.17,0,0,1,.19-.15l15.93,1.46a.16.16,0,0,1,.15.18.17.17,0,0,1-.19.16L95.45,16Z"/><path class="l" d="M95.47,17.46a.16.16,0,0,1-.11-.17.17.17,0,0,1,.19-.16l15.93,1.46a.16.16,0,0,1,.15.18.17.17,0,0,1-.19.16L95.51,17.47Z"/><path class="l" d="M95.25,18.83a.17.17,0,0,1-.11-.18.17.17,0,0,1,.19-.15L111.26,20a.17.17,0,0,1,0,.34L95.3,18.84Z"/><path class="l" d="M94.88,23.86a.17.17,0,0,1,.07-.33L110.88,25a.16.16,0,0,1,.16.18.17.17,0,0,1-.19.16L94.92,23.87Z"/><path class="l" d="M94.94,25.34a.16.16,0,0,1-.12-.17A.18.18,0,0,1,95,25l15.93,1.46a.17.17,0,0,1,.16.19.17.17,0,0,1-.19.15L95,25.35Z"/><path class="l" d="M94.72,26.71a.17.17,0,0,1-.12-.17.18.18,0,0,1,.19-.16l15.93,1.46a.17.17,0,0,1,.16.19.17.17,0,0,1-.19.15L94.76,26.72Z"/><path class="l" d="M94.23,32a.16.16,0,0,1-.11-.17.17.17,0,0,1,.19-.16l15.93,1.46a.17.17,0,0,1,.15.19.16.16,0,0,1-.18.15L94.28,32Z"/><path class="l" d="M94.29,33.5a.16.16,0,0,1-.11-.17.17.17,0,0,1,.19-.16l15.93,1.46a.18.18,0,0,1,.16.19.18.18,0,0,1-.19.15L94.34,33.52Z"/><path class="l" d="M94.07,34.87A.16.16,0,0,1,94,34.7a.17.17,0,0,1,.19-.16L110.08,36a.17.17,0,0,1,.16.19.18.18,0,0,1-.19.15L94.12,34.88Z"/><path class="l" d="M93.81,41.25a.17.17,0,0,1-.11-.18.17.17,0,0,1,.19-.16l15.93,1.46a.17.17,0,0,1,.16.19.18.18,0,0,1-.19.15L93.86,41.26Z"/><path class="l" d="M93.87,42.73a.17.17,0,0,1-.11-.18.17.17,0,0,1,.19-.16l15.93,1.46A.17.17,0,0,1,110,44a.18.18,0,0,1-.19.15L93.92,42.74Z"/><path class="l" d="M93.65,44.1a.17.17,0,0,1-.11-.18.18.18,0,0,1,.19-.16l15.93,1.46a.17.17,0,1,1,0,.34L93.7,44.11Z"/></g><path class="l" d="M90.34,19.13a3.34,3.34,0,0,1-1.17-1c-.45-.5-.74-.91-.85-1l.73-.32a8.15,8.15,0,0,0,.62.89,3.24,3.24,0,0,0,.57.55.37.37,0,0,0,.52-.11c.33-.53.81-1.53,1.1-2.13.88-1.8,1.52-3,2.27-3.41l.21.82c-.51.27-1.27,1.81-1.82,2.94-.94,1.92-1.43,2.83-2.18,2.76Z"/><path class="l" d="M89.3,27.46a3.44,3.44,0,0,1-1.17-1c-.44-.5-.73-.91-.84-1l.73-.32a8.15,8.15,0,0,0,.62.89,3,3,0,0,0,.56.55.37.37,0,0,0,.53-.11c.33-.53.8-1.53,1.1-2.13.88-1.8,1.51-3,2.26-3.41l.22.81c-.52.28-1.27,1.82-1.83,2.95-.94,1.92-1.42,2.83-2.17,2.76Z"/></g><g class="m"><polygon class="n" points="116.53 58.41 116.53 58.83 109.83 58.82 116.72 51.93 102.13 51.92 102.13 47.06 116.68 47.06 109.83 40.22 116.71 40.22 126 49.51 116.71 58.83 116.53 58.83 116.53 58.41 116.24 58.11 124.81 49.51 116.36 41.06 111.87 41.06 118.71 47.92 102.98 47.92 102.98 51.07 118.77 51.09 111.87 57.99 116.53 57.98 116.53 58.41 116.24 58.11 116.53 58.41"/></g><rect class="o" x="98.08" y="47.49" width="1.77" height="4.13"/><rect class="p" x="93.61" y="47.49" width="2.14" height="4.13"/><rect class="q" x="88.48" y="47.56" width="2.85" height="4.13"/><path class="r" d="M81,58.45a36.68,36.68,0,0,1-5.49.46c-.2-.1,0-.7.12-.77,1.86-1,2.23-1.15,2.74-2.15,0,0,0,.07,0,.11.08.42,1.6.33,1.75-.08C80.6,56.79,81.29,58.31,81,58.45Z"/><path class="r" d="M80.13,56a.06.06,0,0,1,0,0c-.15.41-1.67.5-1.75.08,0,0,0-.07,0-.11-.57-3.19-1.78-10-2.12-12.08C75.92,42,77.14,33.8,77.79,30c.41,2.5,1.6,7.35,2.6,10.94-.54,1.26-.81,2.27-.55,2.83C81.25,47.92,80.41,54,80.13,56Z"/><path class="r" d="M90.84,58.8a22.91,22.91,0,0,1-6.14.34c-.49-.15.63-1.23,1.46-1.4a1.85,1.85,0,0,0,1.42-1.19,2.71,2.71,0,0,0,1.92-.75.23.23,0,0,0,0-.14C90.22,56.71,91.18,58.7,90.84,58.8Z"/><path class="r" d="M89.54,55.65h0a.23.23,0,0,1,0,.14,2.71,2.71,0,0,1-1.92.75.23.23,0,0,1-.2-.15c-1-2.65-5-9.78-5.66-11.11a45.24,45.24,0,0,1-1.33-4.37c-1-3.59-2.19-8.44-2.6-10.94h0a0,0,0,0,0,0,0,37.5,37.5,0,0,0,7-1.15,5.73,5.73,0,0,0,.83-.28c1.08,4.05-1,13.4-.69,14.25S89.63,54.17,89.54,55.65Z"/><path class="r" d="M77.8,30a0,0,0,0,1,0,0v0Z"/><path class="r" d="M85.66,19.76a11,11,0,0,1-.28,2.2,6.72,6.72,0,0,0-.5-1.85c-.2-.75-.28-.24-.52-1.59,0-.3-.13-.92-.26-1.69A8.83,8.83,0,0,1,85.66,19.76Z"/><path class="r" d="M85.64,28.52h0a5.73,5.73,0,0,1-.83.28,37.5,37.5,0,0,1-7,1.15h0a.71.71,0,0,1-.19,0c-.25-.09-.09-3.05-.84-5.64-.06-.25-.13-.5-.21-.73a10.88,10.88,0,0,0,2-1c.55-.45,1.27-2.2,1.9-4,.28-.82.55-1.64.77-2.34.69-2.19.11-3.36-.86-3.62a2.17,2.17,0,0,0-2.53,1A12,12,0,0,0,76.44,18a5.73,5.73,0,0,1-.66,2.22A15.47,15.47,0,0,1,75.87,13a4.59,4.59,0,0,1,.86-1.83,3.41,3.41,0,0,1,.25.61c.1.63,2.37-1.37,2-1.76l.64-.07c3-.25,4,4.25,4.47,6.92h0c.13.77.21,1.39.26,1.69.24,1.35.32.84.52,1.59a6.72,6.72,0,0,1,.5,1.85h0C85.78,24.45,86,28.37,85.64,28.52Z"/><path class="r" d="M81.2,16.23c-.22.7-.49,1.52-.77,2.34-.63,1.77-1.35,3.52-1.9,4a10.88,10.88,0,0,1-2,1c-1.91.85-4.59,1.84-5.81,2.28-.14.12-1.44.38-1.59.2a.63.63,0,0,1-.1-.17c-.13-.33-.27-1-.17-1.08h0a6.12,6.12,0,0,1,1.27-.89c.65-.91,4.46-2.46,5.61-3.65l0,0h0A5.73,5.73,0,0,0,76.44,18a12,12,0,0,1,1.37-4.39,2.17,2.17,0,0,1,2.53-1C81.31,12.87,81.89,14,81.2,16.23Z"/><path class="r" d="M69.05,25.87c-.36.06-1.25.19-2.65.43-1.87.32-3,.08-3-.23s2.94-.47,3.14-.88c.06-.13-.25-.59-.17-1s.56.36,1.23.68c.51.25,1,0,1.28-.06C68.78,24.91,68.92,25.54,69.05,25.87Z"/><path class="r" d="M77,11.73a3.41,3.41,0,0,0-.25-.61c-.31-.57-.82-1.25-1-1.22-1.39.41-1.41-.57-1.71-.49s-.63.48-.88.1a2.17,2.17,0,0,0-.08-2,2.11,2.11,0,0,1-.16-.94c.78.2,1.47-.37,1.77.66.61.43.37-.73.55-1.06s.93-.4.87.67c.21,1.11.42,1.31.63,1.06.45,1.37,1.22,1.61,2.18,2L79,10C79.35,10.36,77.08,12.36,77,11.73Z"/><path class="r" d="M77.83,4.88a18.82,18.82,0,0,1-1.08,3h0c-.21.25-.42,0-.63-1.06.06-1.07-.73-.9-.87-.67s.06,1.49-.55,1.06c-.3-1-1-.46-1.77-.66a1.8,1.8,0,0,1-1.09-.91c-.7-1.13-.6-2,.66-2.65a3.41,3.41,0,0,1,3-.33C76.55,3.44,77.85,3.74,77.83,4.88Z"/><path class="r" d="M43.94,30.27a0,0,0,0,1,0,0A7.87,7.87,0,0,1,41.42,28c-.23-.83,1.21-5.6,3.13-7.86C43.71,23.67,44.2,29,43.94,30.27Z"/><path class="r" d="M51.31,58.33c-.63.48-5.28.67-5.82.31-.27-.16.55-1.38.92-2.22a1.41,1.41,0,0,0,0,.21c0,.21,1.37.15,1.54-.06a1.42,1.42,0,0,0,1.29,1C51.42,57.79,51.77,58,51.31,58.33Z"/><path class="r" d="M52.09,47.28c-.86,1.87-2.6,5.57-4.12,9.27,0,0,0,0,0,0-.17.21-1.52.27-1.54.06a1.41,1.41,0,0,1,0-.21v0c0-2.14,2.35-9.25,2.57-11.79.12-1.4-1-3.43-2.13-5.45.89,1.09,2.07,2.51,3.65,4.55A14.55,14.55,0,0,1,52.09,47.28Z"/><path class="r" d="M60.5,58.42c-.13.55-4.24.39-5.55.34-.28,0-.09-.81.07-1.12s.35-.47.39-.75a1.71,1.71,0,0,0,1.52-.25,2,2,0,0,0,1.51,1.15C59.56,57.88,60.57,58.06,60.5,58.42Z"/><path class="r" d="M56.93,56.64a1.71,1.71,0,0,1-1.52.25l0,0c-1-1.74-2.13-6.23-3.28-9.56a14.55,14.55,0,0,0-1.59-3.57c-1.58-2-2.76-3.46-3.65-4.55-2-2.38-2.56-3.24-3-5.68l.38.08a16.92,16.92,0,0,0,3.07,0l.72,0c.58,0,1.13-.08,1.6-.13h0c.53-.05,1-.11,1.19-.15,1.61,3.56,3.6,10.16,4.35,12.4.66,2,.88,8.77,1.76,10.75A.18.18,0,0,1,56.93,56.64Z"/><path class="r" d="M51.68,15.45c.07.25-.22.28-.59.28s-.51,1.45-1.61,1.07l-.07,0c-.2,0-.38.6-.39,1.11a2.86,2.86,0,0,1-2.27-.75,2.54,2.54,0,0,0,.8-1.49c.74-.3,1.42-2,1.56-1.68.27.53.5.75.68.29s.48-1.2.89-1.28a.89.89,0,0,0,.93-.54A8.14,8.14,0,0,0,51.68,15.45Z"/><path class="r" d="M51.71,11.84a1.92,1.92,0,0,1-.1.6.89.89,0,0,1-.93.54c-.41.08-.72.84-.89,1.28s-.41.24-.68-.29c-.14-.29-.82,1.38-1.56,1.68-.32.12-.65,0-1-.62-.11-.21,0-.38-.12-.72a.09.09,0,0,0,0-.05l0,0h0a1.51,1.51,0,0,0-.28-.38.44.44,0,0,1-.08-.11,1,1,0,0,1-.1-.34,1,1,0,0,1,0-.24,1.48,1.48,0,0,1,0-.21,3.49,3.49,0,0,1,1.89-2.75C49.47,9.36,51.75,10.31,51.71,11.84Z"/><path class="r" d="M46.47,14.31c-.56.79-.47,2-.5,3.12a4.05,4.05,0,0,0-1.25,2.08,1.25,1.25,0,0,1-.95-.55,1.88,1.88,0,0,1,.36-2.61c.36-.47.57-.65.59-1.17a3.87,3.87,0,0,1,.59-1.59A2.19,2.19,0,0,1,45.9,13l.05,0a1.48,1.48,0,0,0,0,.21,1,1,0,0,0,0,.24,1.06,1.06,0,0,0,.1.34l0,.06,0,.05a1.51,1.51,0,0,1,.28.38h0l0,0A.09.09,0,0,1,46.47,14.31Z"/><path class="r" d="M46.44,14.26c0,.13-.25.41-.35.39-.32,0-.68-.55-.78-1.06a1.09,1.09,0,0,1,0-.44c0-.25.45-.25.59-.18a.13.13,0,0,1,0,.07v.11a1,1,0,0,0,0,.24,1.06,1.06,0,0,0,.1.34,2.19,2.19,0,0,0,.36.49h0Z"/><path class="r" d="M51,33.26h-.12c-.24,0-.66.1-1.19.15h0c-.47,0-1,.1-1.6.13l-.72,0a16.92,16.92,0,0,1-3.07,0l-.38-.08-.12,0c-.43-.13-.11-1.86.15-3.16a0,0,0,0,0,0,0c.26-1.24-.23-6.6.61-10.11h0a4.29,4.29,0,0,1,.17-.64A4.05,4.05,0,0,1,46,17.43a2.19,2.19,0,0,1,.61-.31.36.36,0,0,1,.17,0,2.86,2.86,0,0,0,2.27.75l.19,0c.15,0,2.23,1.88,2.07,6a9.73,9.73,0,0,0-3.11-3.06,1.67,1.67,0,0,0-1.91.36c-.86.78-.56,1.94.27,3.14a18,18,0,0,0,4.57,4.17l.16.11h0A13.53,13.53,0,0,0,51.61,30C52,31.43,51.73,33.14,51,33.26Z"/><path class="r" d="M51.27,28.58h0l-.16-.11h.14a.14.14,0,0,0,0,.07A.09.09,0,0,0,51.27,28.58Z"/><path class="r" d="M49.48,16.81c-.12,0-.23-.08-.35-.12l-.33-.16-.15-.11a.74.74,0,0,1-.13-.12.37.37,0,0,1-.09-.16.28.28,0,0,1,0-.18h0a.37.37,0,0,0,0,.18.51.51,0,0,0,.09.16l.13.12.16.1a1.68,1.68,0,0,0,.33.16,2.3,2.3,0,0,0,.34.12Z"/><path class="r" d="M51.26,28.53v0l-.16-.11h.14A.14.14,0,0,0,51.26,28.53Z"/><path class="r" d="M60,24.49l.23.05L59.06,26a.33.33,0,0,1-.45.05l-.17-.13-.2-.15-.05-.05,0,0a.3.3,0,0,1,0-.38l.55-.72a.35.35,0,0,0,.26,0l0,0a1.09,1.09,0,0,1,.41-.11A1.49,1.49,0,0,1,60,24.49Z"/><path class="r" d="M64,19.67,61.4,23a.5.5,0,0,0,0-.12l0-.05c-.13-.17-.49-.1-.91-.08h-.12a.2.2,0,0,1-.12,0L63.08,19a.33.33,0,0,1,.46-.05l.08.06.22.17.06.05A.32.32,0,0,1,64,19.67Z"/><path class="s" d="M60,24.49l.23.05L59.06,26a.33.33,0,0,1-.45.05l-.17-.13A8.61,8.61,0,0,0,60,24.49Z"/><path class="s" d="M64,19.67,61.4,23a.5.5,0,0,0,0-.12l0-.05a43.79,43.79,0,0,0,2.5-3.64l.06.05A.32.32,0,0,1,64,19.67Z"/><path class="t" d="M59.05,24.54l-.88,1.14a.3.3,0,0,1,0-.38l.55-.72a.35.35,0,0,0,.26,0Z"/><path class="t" d="M63.62,19a10.37,10.37,0,0,0-1.73,1.83c-.08.11-.71.94-1.46,1.9h-.12a.2.2,0,0,1-.12,0L63.08,19a.33.33,0,0,1,.46-.05Z"/><path class="r" d="M58.74,24.58l-.55.72a.3.3,0,0,0,0,.38l0,0c-1.79,1.63-4.48,3.69-5.26,3.66a4.67,4.67,0,0,1-1.66-.79.09.09,0,0,1,0,0,.14.14,0,0,1,0-.07H51.1a18,18,0,0,1-4.57-4.17c-.83-1.2-1.13-2.36-.27-3.14a1.67,1.67,0,0,1,1.91-.36,9.73,9.73,0,0,1,3.11,3.06c.58.77,1.13,1.53,1.65,2.1.32.36,4.85-2.75,6.16-3.07a2.52,2.52,0,0,1-.66.38S58.34,24.42,58.74,24.58Z"/><path class="r" d="M51.27,28.58h0l-.16-.11h.14a.14.14,0,0,0,0,.07A.09.09,0,0,0,51.27,28.58Z"/><path class="r" d="M59.46,24.43c-.3.34-.74.79-1.27,1.28l0,0a.3.3,0,0,1,0-.38l.55-.72a.35.35,0,0,0,.26,0l0,0A1.09,1.09,0,0,1,59.46,24.43Z"/><path class="r" d="M60.19,24.54,60,24.49a1.49,1.49,0,0,0-.5-.06,1.09,1.09,0,0,0-.41.11l0,0a.35.35,0,0,1-.26,0c-.4-.16-.31-1.31-.31-1.31a2.52,2.52,0,0,0,.66-.38c.64-.47,1.26-1.14,1.35-.92s-.48.67-.25.74a.2.2,0,0,0,.12,0h.12c.42,0,.78-.09.91.08l0,.05a.5.5,0,0,1,0,.12h0A1.54,1.54,0,0,1,60.19,24.54Z"/><ellipse class="u" cx="24.88" cy="34.13" rx="2.06" ry="2.13"/><ellipse class="u" cx="31.54" cy="32.53" rx="2.06" ry="2.13"/><ellipse class="u" cx="37.68" cy="30.93" rx="2.06" ry="2.13"/><ellipse class="c" cx="26.74" cy="41.07" rx="2.06" ry="2.13"/><ellipse class="c" cx="32.82" cy="39.54" rx="2.06" ry="2.13"/><ellipse class="c" cx="38.88" cy="37.73" rx="2.06" ry="2.13"/></g></svg>