<svg id="Layer_2" data-name="Layer 2" xmlns="http://www.w3.org/2000/svg" xmlns:xlink="http://www.w3.org/1999/xlink" viewBox="0 0 400 400"><defs><style>.cls-1{fill:none;}.cls-2{clip-path:url(#clip-path);}.cls-3{fill:#f2f4f6;}.cls-4{fill:#bec8d2;}.cls-5{fill:#cacfd2;}.cls-6{fill:#fff;}.cls-7{fill:#f08e8c;}</style><clipPath id="clip-path"><rect class="cls-1" y="-0.608" width="400" height="400"/></clipPath></defs><g class="cls-2"><path class="cls-3" d="M63.85,98.895H275.979a0,0,0,0,1,0,0v229.89a30.65,30.65,0,0,1-30.65,30.65H63.85a0,0,0,0,1,0,0V98.895A0,0,0,0,1,63.85,98.895Z"/><path class="cls-4" d="M161.138,71.374s-.057-16.688,29.222-16.658c18.774.019,35.115-26.1,35.115-26.1l2.182,3.938S215.392,54.742,242.511,54.77c27.2.028,27.1,16.716,27.1,16.716Z"/><path class="cls-5" d="M318.351,340.975l-7-.011,0-2,6,.009.011-6.991,2,0-.011,7h-1Zm-16-.025-7-.011,0-2,7,.011Zm-16-.025-7-.011,0-2,7,.011Zm-16-.024-7-.011,0-2,7,.011Zm-16-.025-7-.011,0-2,7,.011Zm-16-.025-7-.01,0-2,7,.01Zm-16-.024-7-.011,0-2,7,.011Zm-16-.025-7-.011,0-2,7,.011Zm-16-.025-7-.011,0-2,7,.011Zm-16-.025-7-.01,0-2,7,.01Zm-16-.024-7-.011,0-2,7,.011Zm-16-.025-7-.011,0-2,7,.011Zm-16-.025-7-.011,0-2,7,.011Zm-16-.025-7-.01,0-2,7,.01Zm-6.235-9.76-2,0,.011-7,2,0Zm215.262-7.908-2,0,.011-7,2,0Zm-215.238-8.092-2,0,.011-7,2,0ZM319.4,306.985l-2,0,.011-7,2,0Zm-215.238-8.092-2,0,.011-7,2,0Zm215.263-7.908-2,0,.01-7,2,0Zm-215.238-8.092-2,0,.011-7,2,0Zm215.262-7.908-2,0,.011-7,2,0Zm-215.237-8.092-2,0,.01-7,2,0Zm215.262-7.908-2,0,.011-7,2,0Zm-215.237-8.091-2,0,.01-7,2,0ZM319.5,242.985l-2,0,.01-7,2,0Zm-215.238-8.091-2,0,.011-7,2,0Zm215.263-7.909-2,0,.01-7,2,0ZM104.29,218.894l-2,0,.011-7,2,0Zm215.262-7.909-2,0,.011-7,2,0Zm-215.237-8.091-2,0,.01-7,2,0Zm215.262-7.909-2,0,.011-7,2,0Zm-215.238-8.091-2,0,.011-7,2,0ZM319.6,178.986l-2,0,.012-7,2,0Zm-215.237-8.092-2,0,.011-7,2,0Zm215.262-7.909-2,0,.011-7,2,0Zm-215.237-8.091-2,0,.011-7,2,0Zm215.262-7.909-2,0,.011-7,2,0Zm-215.238-8.091-2,0,.011-7,2,0Zm215.263-7.909-2,0,.01-7,2,0Zm-215.238-8.091-2,0,.011-7,2,0ZM319.7,114.985l-2,0,.011-7,2,0Zm-215.237-8.091-2,0,.011-7,2,0Zm215.262-7.909-2,0,.011-7,2,0ZM104.488,90.894l-2,0,.01-7,2,0ZM319.75,82.985l-2,0,.011-7,2,0ZM104.513,74.894l-2,0,.01-7,2,0Zm215.262-7.909-2,0,.01-7,2,0ZM104.537,58.894l-2,0,.008-5,4,.007,0,2-2,0Zm210.009-2.671-7-.011,0-2,7,.011Zm-16-.025-7-.011,0-2,7,.011Zm-16-.025-7-.01,0-2,7,.01Zm-16-.024-7-.011,0-2,7,.011Zm-16-.025-7-.011,0-2,7,.011Zm-16-.025-7-.011,0-2,7,.011Zm-16-.025-7-.01,0-2,7,.01Zm-16-.024-7-.011,0-2,7,.011Zm-16-.025-7-.011,0-2,7,.011Zm-16-.025-7-.011,0-2,7,.011Zm-16-.024-7-.011,0-2,7,.011Zm-16-.025-7-.011,0-2,7,.011Zm-16-.025-7-.011,0-2,7,.011Z"/><path class="cls-6" d="M295.412,332.405,110.2,332.119l.4-256.936a12.423,12.423,0,0,1,12.443-12.405l177.577.274a12.424,12.424,0,0,1,12.4,12.443l-.37,239.728A17.209,17.209,0,0,1,295.412,332.405Z"/><path class="cls-3" d="M158.345,68.47s-.058-16.688,29.221-16.658c18.775.019,8.368-22.938,8.368-22.938l29.2.03S212.6,51.837,239.717,51.865c27.2.028,27.1,16.716,27.1,16.716Z"/><circle class="cls-6" cx="212.295" cy="39.736" r="5.572"/><rect class="cls-3" x="139.546" y="110.664" width="33.556" height="31.79" rx="3.532" transform="translate(0.422 -0.519) rotate(0.191)"/><rect class="cls-3" x="139.369" y="163.647" width="33.556" height="31.79" rx="3.532" transform="translate(0.598 -0.519) rotate(0.191)"/><rect class="cls-3" x="141.214" y="274.259" width="33.556" height="31.79" rx="3.532" transform="translate(0.966 -0.524) rotate(0.191)"/><rect class="cls-3" x="139.19" y="217.512" width="33.556" height="31.79" rx="3.532" transform="translate(0.777 -0.518) rotate(0.191)"/><line class="cls-3" x1="182.6" y1="119.628" x2="283.601" y2="119.124"/><line class="cls-3" x1="183.879" y1="128.896" x2="284.88" y2="128.392"/><line class="cls-3" x1="183.333" y1="137.638" x2="284.334" y2="137.134"/><line class="cls-3" x1="184.028" y1="169.479" x2="285.029" y2="168.975"/><line class="cls-3" x1="185.308" y1="178.747" x2="286.308" y2="178.243"/><line class="cls-3" x1="184.762" y1="187.489" x2="285.762" y2="186.985"/><line class="cls-3" x1="184.93" y1="221.156" x2="285.93" y2="220.652"/><line class="cls-3" x1="186.209" y1="230.424" x2="287.21" y2="229.92"/><line class="cls-3" x1="185.663" y1="239.165" x2="286.663" y2="238.661"/><line class="cls-3" x1="187.901" y1="279.362" x2="288.901" y2="278.858"/><line class="cls-3" x1="189.18" y1="288.631" x2="290.181" y2="288.127"/><line class="cls-3" x1="188.634" y1="297.372" x2="289.634" y2="296.868"/><path class="cls-5" d="M175.045,133.893l-7-.023,0-1,7,.023Zm-16-.053-7-.023,0-1,7,.023Zm-14.775-3.725c-.011-.123-.017-.247-.017-.373l.022-6.673,1,0-.022,6.657c0,.106,0,.2.013.3Zm34.858-1.478-1,0,.023-7,1,0Zm-33.823-14.565-1,0,.023-7,1,0Zm33.876-1.435-1,0,.023-7,1,0ZM172.509,101.8l-7-.023,0-1,7,.023Zm-16-.053-7-.024,0-1,7,.024Z"/><path class="cls-5" d="M174.867,187.374l-7-.023,0-1,7,.023Zm-16-.053-7-.023,0-1,7,.023ZM144.092,183.6c-.012-.124-.017-.25-.017-.377l.021-6.671,1,0-.021,6.657c0,.1,0,.2.012.294Zm34.858-1.478-1,0,.023-7,1,0Zm-33.823-14.566-1,0,.023-7,1,0ZM179,166.119l-1,0,.024-7,1,0Zm-6.672-10.842-7-.023,0-1,7,.023Zm-16-.053-7-.024,0-1,7,.024Z"/><path class="cls-5" d="M176.729,299.027l-7-.023,0-1,7,.023Zm-16-.053-7-.024,0-1,7,.024Zm-14.776-3.726c-.01-.122-.016-.247-.017-.373l.022-6.673,1,0-.022,6.656c0,.106,0,.2.014.3Zm34.858-1.477-1,0,.024-7,1,0Zm-33.822-14.565-1,0,.023-7,1,0Zm33.876-1.435-1,0,.023-7,1,0Zm-6.673-10.842-7-.023,0-1,7,.023Zm-16-.053-7-.023,0-1,7,.023Z"/><path class="cls-5" d="M174.686,241.746l-7-.023,0-1,7,.023Zm-16-.053-7-.023,0-1,7,.023Zm-14.775-3.723c-.011-.125-.017-.251-.017-.378l.022-6.67,1,0-.022,6.657c0,.106,0,.2.013.294Zm34.858-1.479-1,0,.023-7,1,0Zm-33.823-14.566-1,0,.023-7,1,0Zm33.876-1.434-1,0,.024-7,1,0Zm-6.672-10.842-7-.023,0-1,7,.023Zm-16-.053-7-.024,0-1,7,.024Z"/><path class="cls-5" d="M188.256,110.808l0-1,7-.035,0,1Zm16-.08,0-1,7-.034,0,1Zm16-.079,0-1,7-.035,0,1Zm16-.08,0-1,7-.035,0,1Zm16-.08,0-1,7-.035,0,1Zm16-.08,0-1,7-.035,0,1Zm16-.079,0-1,5.951-.03,0,1Z"/><path class="cls-5" d="M189.547,120.164l0-1,7-.035,0,1Zm16-.08,0-1,7-.035,0,1Zm16-.08,0-1,7-.035,0,1Zm16-.08,0-1,7-.035,0,1Zm16-.08,0-1,7-.034,0,1Zm16-.079,0-1,7-.035,0,1Zm16-.08,0-1,5.952-.03,0,1Z"/><path class="cls-5" d="M189,128.987l0-1,7-.034,0,1Zm16-.079,0-1,7-.035,0,1Zm16-.08,0-1,7-.035,0,1Zm16-.08,0-1,7-.035,0,1Zm16-.08,0-1,7-.035,0,1Zm16-.08,0-1,7-.035,0,1Zm16-.08,0-1,5.952-.029,0,1Z"/><path class="cls-5" d="M189.7,161.128l0-1,7-.035,0,1Zm16-.079,0-1,7-.035,0,1Zm16-.08,0-1,7-.035,0,1Zm16-.08,0-1,7-.035,0,1Zm16-.08,0-1,7-.035,0,1Zm16-.08,0-1,7-.035,0,1Zm16-.08,0-1,5.951-.029.005,1Z"/><path class="cls-5" d="M190.989,170.484l0-1,7-.035,0,1Zm16-.08,0-1,7-.035,0,1Zm16-.08,0-1,7-.035,0,1Zm16-.08,0-1,7-.035,0,1Zm16-.08,0-1,7-.034,0,1Zm16-.079,0-1,7-.035,0,1Zm16-.08,0-1,5.951-.03,0,1Z"/><path class="cls-5" d="M190.438,179.307l0-1,7-.035,0,1Zm16-.08,0-1,7-.034.005,1Zm16-.079-.005-1,7-.035.005,1Zm16-.08-.005-1,7-.035.005,1Zm16-.08-.005-1,7-.035,0,1Zm16-.08,0-1,7-.035,0,1Zm16-.079,0-1,5.951-.03,0,1Z"/><path class="cls-5" d="M190.607,213.291l0-1,7-.035,0,1Zm16-.08,0-1,7-.035,0,1Zm16-.08,0-1,7-.035,0,1Zm16-.08,0-1,7-.034,0,1Zm16-.079,0-1,7-.035,0,1Zm16-.08,0-1,7-.035,0,1Zm16-.08,0-1,5.952-.03,0,1Z"/><path class="cls-5" d="M191.9,222.646l0-1,7-.034,0,1Zm16-.079,0-1,7-.035,0,1Zm16-.08,0-1,7-.035,0,1Zm16-.08,0-1,7-.035,0,1Zm16-.08,0-1,7-.035.005,1Zm16-.08-.005-1,7-.035.005,1Zm16-.08-.005-1,5.951-.029,0,1Z"/><path class="cls-5" d="M191.347,231.47l0-1,7-.035,0,1Zm16-.08,0-1,7-.035,0,1Zm16-.08,0-1,7-.035,0,1Zm16-.08,0-1,7-.035,0,1Zm16-.079,0-1,7-.035,0,1Zm16-.08,0-1,7-.035,0,1Zm16-.08,0-1,5.951-.03,0,1Z"/><path class="cls-5" d="M193.606,272.045l0-1,7-.035,0,1Zm16-.08,0-1,7-.035,0,1Zm16-.08,0-1,7-.034,0,1Zm16-.079,0-1,7-.035,0,1Zm16-.08,0-1,7-.035,0,1Zm16-.08,0-1,7-.035,0,1Zm16-.08,0-1,5.952-.03,0,1Z"/><path class="cls-5" d="M194.9,281.4l0-1,7-.035,0,1Zm16-.08,0-1,7-.035,0,1Zm16-.08,0-1,7-.035,0,1Zm16-.08,0-1,7-.035,0,1Zm16-.08,0-1,7-.035,0,1Zm16-.079,0-1,7-.036,0,1Zm16-.08,0-1,5.952-.03,0,1Z"/><path class="cls-5" d="M194.346,290.224l0-1,7-.035,0,1Zm16-.08,0-1,7-.035,0,1Zm16-.08,0-1,7-.035,0,1Zm16-.079,0-1,7-.035,0,1Zm16-.08-.005-1,7-.035.005,1Zm16-.08-.005-1,7-.035.005,1Zm16-.08-.005-1,5.952-.029.005,1Z"/><path class="cls-7" d="M96.881,52.462l-.522-3.613-3.613.522-.218-1.509,3.613-.522-.523-3.613,1.509-.218.523,3.613,3.621-.524.219,1.509-3.622.524.522,3.612Z"/><path class="cls-7" d="M113.021,69.131a3.271,3.271,0,1,1,3.706,2.769A3.275,3.275,0,0,1,113.021,69.131Zm5.4-.781a2.181,2.181,0,1,0-1.846,2.471A2.183,2.183,0,0,0,118.417,68.35Z"/><path class="cls-7" d="M312.561,357.789l-3.608.555.555,3.608-1.507.232-.555-3.608-3.608.555-.232-1.507,3.608-.555-.557-3.617,1.507-.232.557,3.617,3.608-.555Z"/><path class="cls-7" d="M329.081,341.5a3.271,3.271,0,1,1,2.736-3.731A3.275,3.275,0,0,1,329.081,341.5Zm-.829-5.388a2.18,2.18,0,1,0,2.487,1.823A2.182,2.182,0,0,0,328.252,336.109Z"/></g></svg>