<?xml version="1.0" encoding="UTF-8"?><svg id="a" xmlns="http://www.w3.org/2000/svg" xmlns:xlink="http://www.w3.org/1999/xlink" viewBox="0 0 250 180"><defs><filter id="c" x="57.41" y="31.6" width="121.48" height="127.89" color-interpolation-filters="sRGB" filterUnits="userSpaceOnUse"><feFlood flood-color="#fff" result="bg"/><feBlend in="SourceGraphic" in2="bg"/></filter><filter id="e" x="57.91" y="-8123.67" width="120.48" height="32766" color-interpolation-filters="sRGB" filterUnits="userSpaceOnUse"><feFlood flood-color="#fff" result="bg"/><feBlend in="SourceGraphic" in2="bg"/></filter><mask id="d" x="57.91" y="-8123.67" width="120.48" height="32766" maskUnits="userSpaceOnUse"/><linearGradient id="f" x1="57.91" y1="95.55" x2="178.4" y2="95.55" gradientUnits="userSpaceOnUse"><stop offset="0" stop-color="#bfbfbf"/><stop offset="1" stop-color="#000"/></linearGradient><mask id="b" x="57.41" y="31.6" width="121.48" height="127.89" maskUnits="userSpaceOnUse"><g style="filter:url(#c);"><g style="mask:url(#d);"><path d="M141.79,43.33c.04-.47.04-.63-.66-1.39-.48-.53-1.08-.92-1.56-1.52-1.35-1.68-2.38-2.32-4.24-3.34-1.59-.87-2.83-2.73-4.65-3.11-1.66-.34-3.14.49-4.87-.03-2.3-.69-4.1-2.38-6.64-1.68-1.68.47-2.36,1.79-4.17.99-1.25-.55-1.61-1.44-3.13-1.02-1.02.28-1.55,1.18-2.39,1.68-1.42.86-1.72.34-3.23.06-2.11-.39-3.84.83-5.44,2.07-1.5,1.16-3.69,2.31-4.85,3.82-.76.99-.79,2.11-.9,3.22-21.82,9.06-37.16,30.56-37.16,55.66,0,33.27,26.97,60.24,60.24,60.24s60.24-26.97,60.24-60.24c0-24.88-15.08-46.23-36.6-55.42Z" style="fill:url(#f); mix-blend-mode:multiply;"/></g></g></mask></defs><path d="M217.13,54.91h-10.3c-4.07,0-6.1-4.92-3.23-7.79l7.28-7.28c.89-.89.89-2.34,0-3.23l-9.68-9.68c-.89-.89-2.34-.89-3.23,0l-7.28,7.28c-2.87,2.87-7.79.84-7.79-3.23v-10.3c0-1.26-1.02-2.28-2.28-2.28h-13.69c-1.26,0-2.28,1.02-2.28,2.28v10.3c0,4.07-4.91,6.1-7.79,3.23l-7.28-7.28c-.89-.89-2.34-.89-3.23,0l-9.68,9.68c-.89.89-.89,2.34,0,3.23l7.28,7.28c2.87,2.87.84,7.79-3.23,7.79h-10.3c-1.26,0-2.28,1.02-2.28,2.28v13.69c0,1.26,1.02,2.28,2.28,2.28h10.3c4.07,0,6.1,4.92,3.23,7.79l-7.28,7.28c-.89.89-.89,2.34,0,3.23l9.68,9.68c.89.89,2.34.89,3.23,0l7.28-7.28c2.87-2.87,7.79-.84,7.79,3.23v10.3c0,1.26,1.02,2.28,2.28,2.28h13.69c1.26,0,2.28-1.02,2.28-2.28v-10.3c0-4.07,4.92-6.1,7.79-3.23l7.28,7.28c.89.89,2.34.89,3.23,0l9.68-9.68c.89-.89.89-2.34,0-3.23l-7.28-7.28c-2.87-2.87-.84-7.79,3.23-7.79h10.3c1.26,0,2.28-1.02,2.28-2.28v-13.69c0-1.26-1.02-2.28-2.28-2.28Z" style="fill:#fff; stroke:#879db4; stroke-miterlimit:10;"/><circle cx="173.78" cy="64.04" r="15.97" style="fill:#fff; stroke:#879db4; stroke-miterlimit:10;"/><g style="mask:url(#b);"><path d="M141.79,43.33c.04-.47.04-.63-.66-1.39-.48-.53-1.08-.92-1.56-1.52-1.35-1.68-2.38-2.32-4.24-3.34-1.59-.87-2.83-2.73-4.65-3.11-1.66-.34-3.14.49-4.87-.03-2.3-.69-4.1-2.38-6.64-1.68-1.68.47-2.36,1.79-4.17.99-1.25-.55-1.61-1.44-3.13-1.02-1.02.28-1.55,1.18-2.39,1.68-1.42.86-1.72.34-3.23.06-2.11-.39-3.84.83-5.44,2.07-1.5,1.16-3.69,2.31-4.85,3.82-.76.99-.79,2.11-.9,3.22-21.82,9.06-37.16,30.56-37.16,55.66,0,33.27,26.97,60.24,60.24,60.24s60.24-26.97,60.24-60.24c0-24.88-15.08-46.23-36.6-55.42Z" style="fill:#fff; stroke:#879db4; stroke-miterlimit:10;"/></g><path d="M57.34,63.49c.48-.86,1.56-1.17,2.42-.69.86.48,1.17,1.56.69,2.42-2.46,4.41-4.42,9.15-5.82,14.14-1.36,4.84-2.18,9.91-2.4,15.14-.75,18.19,5.94,34.97,17.37,47.39,11.43,12.42,27.59,20.48,45.78,21.23,6.12.25,12.09-.34,17.79-1.67,5.88-1.38,11.47-3.54,16.64-6.38.86-.47,1.94-.16,2.42.7.47.86.16,1.94-.7,2.42-5.46,3-11.35,5.28-17.55,6.73-5.99,1.4-12.28,2.02-18.74,1.75-19.18-.8-36.22-9.29-48.26-22.37-12.04-13.09-19.09-30.77-18.3-49.94.23-5.53,1.1-10.87,2.53-15.96,1.47-5.25,3.55-10.24,6.14-14.9Z" style="fill:#879db4; fill-rule:evenodd;"/><path d="M115.36,163.43c-36.5-1.51-64.97-32.44-63.45-68.94.43-10.35,3.17-20.18,8.14-29.2l3.68,2.03c-4.66,8.45-7.22,17.65-7.63,27.35-1.42,34.19,25.24,63.16,59.43,64.57l-.17,4.2Z" style="fill:#879db4;"/><path d="M63.33,67.39c.47-.86,1.55-1.18,2.41-.71.86.47,1.18,1.55.71,2.41-2.12,3.89-3.82,8.05-5.03,12.42-1.17,4.25-1.89,8.69-2.08,13.28-.67,16.23,5.3,31.19,15.49,42.27,10.19,11.08,24.61,18.26,40.83,18.94,1.77.07,3.53.07,5.27-.01,1.75-.08,3.49-.24,5.21-.48.97-.13,1.87.55,2,1.52.13.97-.55,1.87-1.52,2-1.82.25-3.66.42-5.53.5-1.83.09-3.69.09-5.56.01-17.21-.71-32.5-8.33-43.31-20.08-10.81-11.74-17.14-27.61-16.42-44.82.2-4.87.96-9.58,2.2-14.08,1.28-4.63,3.08-9.05,5.34-13.18Z" style="fill:#879db4; fill-rule:evenodd;"/><path d="M116.42,159.84c-.83-.54-1.93-.3-2.46.53-.54.83-.3,1.93.53,2.46.83.54,1.93.3,2.46-.53.54-.83.3-1.93-.53-2.46Z" style="fill:#fff; fill-rule:evenodd;"/><circle cx="118.16" cy="98.75" r="60.24" style="fill:#fff; stroke:#879db4; stroke-miterlimit:10;"/><path d="M169.13,130.86c-10.67,16.9-29.51,28.13-50.98,28.13s-40.31-11.23-50.98-28.13c1.9-4.43,5.06-8.24,10.15-11.19,4.64-2.69,11.14-4.49,18.33-5.61,7.19-1.12,15.07-1.58,22.5-1.58,14.86,0,31.54,1.81,40.83,7.19,5.09,2.95,8.24,6.76,10.15,11.19Z" style="fill:#fff; stroke:#879db4; stroke-miterlimit:10;"/><path d="M140.02,74.68c-.13-.87-.73-1.43-.95-2.24-.12-.43-.11-.78-.03-1.1,0,.04.02.08.03.13.23.94.84,1.59.95,2.62.01.11,0,.32,0,.59Z" style="fill:#fff; stroke:#879db4; stroke-miterlimit:10;"/><path d="M140.73,78.81c-.66-.13-.78-1.26-.77-2.31.02,1.1.17,2.17.77,2.31Z" style="fill:#fff; stroke:#879db4; stroke-miterlimit:10;"/><path d="M139.56,68.35c.07.46.09.91.02,1.32-.12.66-.41,1.14-.54,1.68-.24-1.21.33-1.86.52-3Z" style="fill:#fff; stroke:#879db4; stroke-miterlimit:10;"/><path d="M139.96,76.5c0-.66.03-1.34.06-1.82,0,.01-.04,1.03-.06,1.82Z" style="fill:#fff; stroke:#879db4; stroke-miterlimit:10;"/><path d="M180.89,130.87c-.47.85-1.54,1.15-2.38.68-.85-.47-1.15-1.54-.68-2.38,2.42-4.35,4.36-9.02,5.74-13.94,1.34-4.75,2.15-9.73,2.37-14.87h0c0-.07,0-.14.01-.2.71-17.89-5.89-34.39-17.13-46.61-11.26-12.23-27.17-20.17-45.08-20.94h0s0,0,0,0c-.07,0-.14,0-.21-.01-5.99-.24-11.83.35-17.41,1.65-5.8,1.36-11.31,3.49-16.41,6.29-.85.47-1.92.16-2.38-.69-.47-.85-.16-1.92.69-2.38,5.38-2.96,11.19-5.21,17.31-6.64,5.87-1.37,12.02-1.99,18.34-1.74.02,0,.05,0,.07,0h0s.07,0,.07,0h0c18.91.78,35.72,9.16,47.6,22.06,11.85,12.87,18.8,30.25,18.05,49.11,0,.03,0,.05,0,.08h0s0,0,0,0c0,.02,0,.05,0,.07h0c-.23,5.45-1.08,10.72-2.49,15.74-1.45,5.18-3.5,10.1-6.06,14.7h0ZM189.44,100.42h0s0,0,0,0h0ZM123.79,29.11h0,0Z" style="fill:#e9f0f8; fill-rule:evenodd;"/><path d="M178.21,129.1l-3.63-2c4.59-8.33,7.12-17.41,7.52-26.97,1.4-33.72-24.89-62.29-58.61-63.68l.17-4.14c36,1.49,64.07,32,62.58,67.99-.42,10.21-3.13,19.9-8.03,28.8Z" style="fill:#e9f0f8;"/><path d="M174.98,127.02c-.46.85-1.53,1.16-2.38.7-.85-.46-1.16-1.53-.7-2.38,2.09-3.83,3.77-7.94,4.96-12.25,1.16-4.19,1.86-8.57,2.05-13.09.66-16-5.22-30.76-15.28-41.69-10.05-10.92-24.27-18.01-40.27-18.68-1.74-.07-3.48-.07-5.2.01-1.73.08-3.44.24-5.14.47-.96.13-1.84-.54-1.97-1.5-.13-.96.54-1.84,1.5-1.97,1.79-.24,3.61-.41,5.45-.5,1.81-.08,3.64-.09,5.48-.01,16.97.7,32.06,8.22,42.71,19.8,10.66,11.58,16.9,27.23,16.2,44.2-.2,4.8-.94,9.45-2.17,13.89-1.26,4.57-3.04,8.92-5.26,12.99Z" style="fill:#e9f0f8; fill-rule:evenodd;"/><path d="M165.3,142.96l.33-27.31c0-.26.3-.42.52-.28l24.21,15.7c.22.14.2.47-.04.58l-24.54,11.61c-.22.11-.48-.06-.48-.31Z" style="fill:#e9f0f8; fill-rule:evenodd;"/><path d="M122.62,35.85c.81.53,1.9.3,2.43-.52.53-.81.3-1.9-.52-2.43-.81-.53-1.9-.3-2.43.52-.53.81-.3,1.9.52,2.43Z" style="fill:#fff; fill-rule:evenodd;"/><path d="M133,113.36v-14.35h-29.68v14.35c-4.51.77-7.64,2.3-7.64,5.54,0,6.31,8.55,12.87,22.48,12.87s22.48-6.56,22.48-12.87c0-3.24-3.13-4.77-7.64-5.54Z" style="fill:#fff; stroke:#879db4; stroke-miterlimit:10;"/><path d="M100.04,81.45c0-4.46-1.96-9.89-4.37-9.89s-4.88.86-4.88,5.32c0,2.15.76,6.96,1.5,9.07.8,2.27,2.13,3.58,3.38,3.58,2.41,0,4.37-3.61,4.37-8.07Z" style="fill:#fff; stroke:#879db4; stroke-miterlimit:10;"/><path d="M136.27,81.45c0-4.46,1.96-9.89,4.37-9.89s4.88.86,4.88,5.32c0,2.15-.76,6.96-1.5,9.07-.8,2.27-2.13,3.58-3.38,3.58-2.41,0-4.37-3.61-4.37-8.07Z" style="fill:#fff; stroke:#879db4; stroke-miterlimit:10;"/><path d="M118.16,44.14h0s0,0,0,0c-17.86,0-22.74,15.4-22.74,34.39,0,12.6,3.94,21.57,11.28,26.75,5.17,3.64,7.3,4.68,11.45,4.68h0s0,0,0,0c4.16,0,6.29-1.04,11.45-4.68,7.35-5.18,11.28-14.15,11.28-26.75,0-18.99-4.87-34.39-22.74-34.39Z" style="fill:#fff; stroke:#879db4; stroke-miterlimit:10;"/><path d="M140.87,78.82c-1.34,0-.77-4.07-.84-4.73-.12-1.03-.72-1.68-.95-2.62-.32-1.32.32-1.99.5-3.21.28-1.88-.78-4.41-1.2-6.27-.41-1.8-1.3-3.91-2.07-5.6-.59-1.3-1.4-2.09-2.83-2.34-2.23-.39-2.96.42-5.09-.76-2.11-1.17-3.21-1.22-5.35-.28-2.36,1.04-3.39.91-5.79.18-1.96-.6-3,.03-4.95.11-2.52.12-4.51-1.76-7.14-1.4-2.15.29-3.53,1.59-4.63,3.39-.89,1.46-2.64,3.73-2.89,5.41-.23,1.56.1,2.9-.31,4.51-.34,1.35-.42,2.71-.51,4.1-.15,2.5.57,5.37-.26,7.78-1.61,4.67-3.57-2.47-3.68-4.19-.11-1.7-.41-3.37-.5-5.08-.17-2.9-1.43-4.76-2.14-7.46-.61-2.33.41-3.31,1.43-5.24,1.21-2.29-.73-3.11-.61-5.28.12-2.22,2.26-2.83,3.34-4.43,1.17-1.74.29-3.84,1.6-5.55,1.16-1.51,3.35-2.66,4.85-3.82,1.6-1.24,3.33-2.46,5.44-2.07,1.51.28,1.81.8,3.23-.06.84-.5,1.37-1.41,2.39-1.68,1.52-.42,1.88.47,3.13,1.02,1.81.8,2.49-.53,4.17-.99,2.54-.71,4.34.99,6.64,1.68,1.73.52,3.21-.31,4.87.03,1.83.37,3.06,2.24,4.65,3.11,1.86,1.01,2.88,1.66,4.24,3.34.48.59,1.07.99,1.56,1.52.96,1.05.6.95.63,2.1.04,1.94,1.03,1.8,2.17,3.56,1.51,2.34.75,4.41.54,6.9-.18,2.16,1.3,3.54.47,5.76-.31.82-.92,1.48-1,2.4-.1,1.29.9,2.07.99,3.28.11,1.45-.94,2.25-1.44,3.51-.51,1.28-.48,2.75-.6,4.11-.08.93-.42,5.28-2.03,5.28Z" style="fill:#fff; stroke:#879db4; stroke-miterlimit:10;"/><path d="M139.56,68.35c-.2-1.38-.87-2.91-1.19-4.12-.41-1.56-1.3-3.39-2.07-4.86-.59-1.12-1.4-3.03-2.83-3.24-2.23-.33-2.59,1.21-4.72.19-2.11-1.01-3.58-.69-5.73.13-2.36.9-3.39.79-5.79.16-1.96-.52-3,.02-4.95.09-2.52.1-4.5-2.3-7.13-1.99-2.15.25-2.85,2.83-3.95,4.39-.89,1.27-2.64,3.24-2.89,4.69-.23,1.36.1,2.51-.31,3.91-.35,1.17-.42,2.34-.51,3.56-.16,2.17-.11,3.97-.94,6.07-.29.73-.55,1.08-.78,1.17.26-.22.53-.66.78-1.4.83-2.41.11-5.28.26-7.78.08-1.39.16-2.75.51-4.1.41-1.61.07-2.95.31-4.51.26-1.68,2-3.96,2.89-5.41,1.11-1.8,2.48-3.1,4.63-3.39,2.63-.36,4.62,1.52,7.13,1.4,1.95-.09,2.99-.71,4.95-.11,2.4.73,3.43.86,5.79-.18,2.14-.94,3.24-.89,5.35.28,2.13,1.17,2.86.37,5.09.75,1.43.25,2.24,1.04,2.83,2.34.76,1.69,1.65,3.8,2.07,5.6.42,1.86,1.48,4.39,1.21,6.27,0,.03-.01.06-.02.08Z" style="fill:#e9f0f8;"/><path d="M73.36,49.06l-.33,27.05c0,.42-.47.66-.82.44l-23.98-15.55c-.35-.22-.31-.74.06-.92l24.31-11.5c.35-.17.76.09.75.48Z" style="fill:#879db4; fill-rule:evenodd;"/><path d="M68.09,118.87c-6.8,3.63-9.39,12.07-5.78,18.88,3,5.63,9.28,8.37,15.2,7.1l1.89.58-1.02,3.33,3.34,1.02-1.02,3.33,3.33,1.02-1.02,3.33,2.43.74.91.28-1.02,3.34,6.67,2.05,2.56-8.34-8.6-16.19c3.01-4.16,3.58-9.84,1.02-14.7-3.63-6.8-12.07-9.38-18.88-5.78ZM68.99,125.82c.56-1.84,2.51-2.88,4.35-2.32,1.85.57,2.88,2.52,2.32,4.36-.57,1.84-2.52,2.88-4.36,2.31-1.84-.56-2.88-2.51-2.31-4.36Z" style="fill:#fff; stroke:#879db4; stroke-linecap:round; stroke-linejoin:round; stroke-width:.5px;"/><path d="M75.66,127.86c-.57,1.84-2.52,2.88-4.36,2.31-1.84-.56-2.88-2.51-2.31-4.36.56-1.84,2.51-2.88,4.35-2.32,1.85.57,2.88,2.52,2.32,4.36Z" style="fill:#fff; stroke:#879db4; stroke-linecap:round; stroke-linejoin:round; stroke-width:.5px;"/><polygon points="86.35 158.49 85.33 161.83 85.44 158.21 86.35 158.49" style="fill:#fff; stroke:#879db4; stroke-linecap:round; stroke-linejoin:round; stroke-width:.5px;"/><path d="M75.66,127.86c-.57,1.84-2.52,2.88-4.36,2.31-1.84-.56-2.88-2.51-2.31-4.36.56-1.84,2.51-2.88,4.35-2.32,1.85.57,2.88,2.52,2.32,4.36Z" style="fill:#fff; stroke:#879db4; stroke-linecap:round; stroke-linejoin:round; stroke-width:.5px;"/><g id="g"><path d="M139.5,146.12c0,.39-.46.83-.86.83h-.69v-6.92h1.56v6.09Z" style="fill:#e9f0f7;"/><path d="M141.34,140.04h2c.75,0,1.32.15,1.69.47.38.32.56.75.56,1.3,0,.39-.09.7-.26.94s-.39.42-.67.54v.02c.77.22,1.17.76,1.17,1.63,0,.31-.05.59-.14.84-.09.24-.24.46-.44.63-.2.18-.45.31-.76.4s-.68.13-1.12.13h-2.84s0-6.1,0-6.1c0-.32.48-.82.81-.82ZM144.29,144.82c0-.3-.07-.51-.21-.63-.14-.13-.38-.19-.72-.19h-1.33v1.67h1.37c.31,0,.54-.06.68-.18.14-.11.21-.34.21-.67ZM144.12,142.09c0-.28-.07-.47-.2-.58s-.34-.16-.63-.16h-1.25v1.5h1.29c.28,0,.48-.06.61-.18.13-.11.19-.31.19-.59Z" style="fill:#e9f0f7;"/><path d="M135.88,141.37c-1.93-.28-2.39.37-2.39,2.13s.47,2.33,2.55,2.12c.65-.07.81.14.93,1.16-.22.12-1.22.29-1.92.27-1.04-.03-1.91-.29-2.41-.88-.51-.59-.75-1.49-.75-2.72,0-2.48,1.11-3.5,3.27-3.5,1.06,0,1.76.32,1.76.32-.18,1.13-.37,1.21-1.04,1.1Z" style="fill:#e9f0f7;"/><path d="M149.69,144c.51,0,1.28-.82,1.28-1.27v-4.33h-3.97v5.6h2.69Z" style="fill:#e9f0f7;"/></g></svg>