<svg xmlns="http://www.w3.org/2000/svg" xmlns:xlink="http://www.w3.org/1999/xlink" viewBox="0 0 250 180"><defs><style>.a,.e,.f,.t{fill:none;}.b{isolation:isolate;}.c{fill:#fff;}.d{opacity:0.48;}.e{stroke:#8f8f8f;}.e,.f{stroke-linecap:round;stroke-linejoin:round;}.e,.t{stroke-width:0.5px;}.f{stroke:#a1a1a1;}.g{clip-path:url(#a);}.h{fill:#dedede;}.i{clip-path:url(#b);}.j{clip-path:url(#c);}.k{opacity:0.7;}.l{fill:#4f4f4f;}.m{fill:#b1b1b1;}.n{fill:#c5c5c5;}.o{fill:#272727;}.p{opacity:0.2;}.q{opacity:0.4;}.r{opacity:0.35;}.s{opacity:0.6;}.t{stroke:#363636;stroke-miterlimit:10;}.u{fill:#77addb;mix-blend-mode:color;}</style><clipPath id="a"><polygon class="a" points="50.04 111.03 27.9 110.61 27.9 54.27 50.04 54.69 50.04 111.03"/></clipPath><clipPath id="b"><polygon class="a" points="82.04 113.68 59.91 113.26 59.91 66.19 82.04 66.61 82.04 113.68"/></clipPath><clipPath id="c"><polygon class="a" points="114.97 112.67 88.97 112.17 88.86 17.19 114.86 17.69 114.97 112.67"/></clipPath></defs><g class="b"><rect class="c" x="-2.58" y="-1.55" width="253.94" height="183.74"/><g class="d"><rect class="e" x="58.33" y="65.24" width="20.06" height="44.14"/><rect class="e" x="33.05" y="43.17" width="20.06" height="66.21"/><rect class="e" x="84.45" y="18.75" width="20.06" height="92.29"/><circle class="f" cx="150.77" cy="148.7" r="4.16"/><circle class="f" cx="167.43" cy="157.02" r="4.16"/><line class="f" x1="179.92" y1="138.29" x2="169.43" y2="153.36"/><line class="f" x1="163.7" y1="155.17" x2="154.5" y2="150.55"/><line class="f" x1="148.17" y1="151.94" x2="134.12" y2="169.52"/><line class="f" x1="134.12" y1="121.63" x2="134.12" y2="169.52"/><line class="f" x1="182.01" y1="169.52" x2="134.12" y2="169.52"/><polyline class="f" points="171.6 140.37 179.93 138.29 182.01 146.61"/><g class="g"><path class="h" d="M19.33,64.47h.14c.07-.61.17-1.21.28-1.82l24.11,53.61-1.25-.06Z"/><path class="h" d="M18.54,71.38h.13c.06-.53.15-1.06.24-1.6L40.1,116.89l-1.1,0Z"/><path class="h" d="M15.9,73.9H16c.06-.53.16-1.06.24-1.59l21.19,47.1-1.1,0Z"/><path class="h" d="M13.3,75.37h.12c.07-.53.16-1.06.25-1.6l21.19,47.11-1.1,0Z"/><path class="h" d="M10.6,76h.12c.07-.53.16-1.06.25-1.6l21.19,47.11-1.1,0Z"/><path class="h" d="M8,77.77h.12c.07-.53.16-1.06.25-1.59l21.19,47.11-1.1-.05Z"/><path class="h" d="M6,79.79h.13c.06-.54.15-1.06.24-1.6l21.19,47.11-1.1,0Z"/><path class="h" d="M22.69,64.43h.14c.07-.61.18-1.21.28-1.82l24,53.41L45.88,116Z"/><path class="h" d="M23.92,58h.14c.07-.6.17-1.19.27-1.79l25.44,56.66-1.23-.06Z"/><path class="h" d="M26.39,54.89h.12c.07-.54.16-1.06.25-1.6l25.53,56.75-1.1,0Z"/><path class="h" d="M30,53.66h.12c.06-.54.16-1.06.24-1.6L51.52,99.17l-1.1,0Z"/><path class="h" d="M33.49,52.76h.12c.07-.54.16-1.06.25-1.6L55.05,98.28l-1.1,0Z"/><path class="h" d="M36.23,51.07h.12c.07-.54.16-1.06.25-1.6L57.79,96.59l-1.1,0Z"/><path class="h" d="M41.19,53.93h.13c.06-.54.15-1.06.24-1.6L62.75,99.45l-1.1,0Z"/><path class="h" d="M42.73,50.32h.12c.06-.54.16-1.06.24-1.6L64.28,95.84l-1.1,0Z"/></g><g class="i"><path class="h" d="M51.33,76.39h.14c.07-.61.18-1.21.28-1.82l24.11,53.61-1.25-.06Z"/><path class="h" d="M50.55,83.3h.12c.06-.54.15-1.06.24-1.6L72.1,128.81l-1.1-.05Z"/><path class="h" d="M47.9,85.82H48c.07-.53.16-1.06.25-1.6l21.19,47.11-1.1-.05Z"/><path class="h" d="M45.3,87.29h.12c.07-.54.16-1.06.25-1.6L66.86,132.8l-1.1-.05Z"/><path class="h" d="M42.6,88h.13c.06-.54.15-1.06.24-1.6l21.19,47.11-1.1-.05Z"/><path class="h" d="M40,89.69h.13c.06-.53.15-1.06.24-1.6L61.55,135.2l-1.1,0Z"/><path class="h" d="M38,91.71h.12c.06-.54.16-1.06.25-1.6L59.6,137.23l-1.1,0Z"/><path class="h" d="M54.69,76.35h.14c.08-.61.18-1.2.28-1.81l24,53.41-1.24-.06Z"/><path class="h" d="M55.92,69.89h.14c.07-.6.18-1.18.27-1.78l25.44,56.65-1.23-.05Z"/><path class="h" d="M58.39,66.81h.13c.06-.54.15-1.06.24-1.6L84.3,122l-1.1,0Z"/><path class="h" d="M62,65.57h.12c.07-.54.16-1.06.25-1.6l21.19,47.11-1.1,0Z"/><path class="h" d="M65.49,64.68h.13c.06-.54.15-1.07.24-1.6L87.05,110.2l-1.1,0Z"/><path class="h" d="M68.23,63h.13c.06-.54.15-1.06.24-1.6l21.19,47.11-1.1-.05Z"/><path class="h" d="M73.2,65.85h.12c.06-.54.15-1.07.24-1.6l21.19,47.11-1.1-.05Z"/><path class="h" d="M74.73,62.24h.12c.07-.54.16-1.06.25-1.6l21.19,47.11-1.1-.05Z"/></g><g class="j"><path class="h" d="M78.89,68.87h.17c.08-.72.21-1.42.33-2.13l28.32,63-1.47-.07Z"/><path class="h" d="M78,77h.15c.07-.63.18-1.25.28-1.88l24.89,55.33-1.29-.06Z"/><path class="h" d="M74.87,79.94H75c.08-.63.18-1.25.29-1.88l24.88,55.33-1.29-.06Z"/><path class="h" d="M71.81,81.67H72c.07-.63.18-1.24.29-1.87l24.88,55.32-1.29-.06Z"/><path class="h" d="M68.65,82.46h.14c.08-.63.19-1.24.29-1.87L94,135.91l-1.3-.06Z"/><path class="h" d="M65.58,84.49h.15c.07-.63.18-1.25.28-1.88L90.9,137.94l-1.29-.05Z"/><path class="h" d="M63.28,86.87h.15c.07-.63.18-1.24.29-1.87L88.6,140.32l-1.29-.06Z"/><path class="h" d="M82.84,68.82H83c.08-.71.21-1.41.32-2.13l28.22,62.72-1.47-.06Z"/><path class="h" d="M84.29,61.24h.16c.09-.7.21-1.39.32-2.09l29.87,66.53-1.44-.06Z"/><path class="h" d="M79.91,40.63h.14c.08-.63.18-1.25.29-1.88l35,75.6L114,114.3Z"/><path class="h" d="M84.11,39.18h.14c.08-.63.18-1.24.29-1.87l32.06,69.6-1.3-.06Z"/><path class="h" d="M84.27,30.62h.15c.07-.63.18-1.25.28-1.88l31.49,66.41-1.3-.06Z"/><path class="h" d="M86,24.67h.14c.08-.63.18-1.24.29-1.87l30,65.29-1.3,0Z"/><path class="h" d="M88.46,20.52h.15c.07-.63.18-1.25.28-1.88l28.84,63-1.29,0Z"/><path class="h" d="M90.7,16.06h.15c.07-.63.18-1.25.29-1.88L116,69.51l-1.29-.05Z"/><path class="h" d="M93.13,13.63h.15c.07-.63.18-1.25.28-1.88l24.89,55.33L117.16,67Z"/><path class="h" d="M96.88,13.19H97c.07-.63.18-1.25.29-1.88L122.2,66.65l-1.29-.06Z"/><path class="h" d="M100.41,12.31h.15c.08-.63.18-1.24.29-1.87l24.88,55.32-1.29-.06Z"/><path class="h" d="M104,10.76h.14c.08-.63.18-1.25.29-1.88l24.88,55.33L128,64.16Z"/><path class="h" d="M106.59,9.66h.15c.08-.63.18-1.25.29-1.88l24.88,55.32-1.29,0Z"/></g></g><g class="k"><path class="l" d="M195.38,33.91a2.38,2.38,0,0,1,.64-1.72,2.27,2.27,0,0,1,3.26,0,2.44,2.44,0,0,1,.64,1.76v.57a2.4,2.4,0,0,1-.63,1.7,2.09,2.09,0,0,1-1.62.68,2.19,2.19,0,0,1-1.64-.67,2.43,2.43,0,0,1-.65-1.77Zm.77.61a1.84,1.84,0,0,0,.41,1.22,1.39,1.39,0,0,0,1.11.48,1.34,1.34,0,0,0,1.08-.48,1.9,1.9,0,0,0,.4-1.26V33.9a1.82,1.82,0,0,0-.42-1.23,1.34,1.34,0,0,0-1.08-.48,1.37,1.37,0,0,0-1.08.48,1.88,1.88,0,0,0-.42,1.28Zm1.82,7.8-.6-.38L203,32.86l.6.38Zm3.25-1.88a2.4,2.4,0,0,1,.65-1.72,2.11,2.11,0,0,1,1.62-.67,2.16,2.16,0,0,1,1.63.67,2.46,2.46,0,0,1,.65,1.77v.57a2.41,2.41,0,0,1-.64,1.72,2.14,2.14,0,0,1-1.62.67,2.19,2.19,0,0,1-1.64-.67,2.45,2.45,0,0,1-.65-1.76Zm.77.62a1.84,1.84,0,0,0,.41,1.23,1.38,1.38,0,0,0,1.11.48,1.31,1.31,0,0,0,1.08-.49A1.89,1.89,0,0,0,205,41v-.59a1.81,1.81,0,0,0-.41-1.23,1.51,1.51,0,0,0-2.19,0,1.9,1.9,0,0,0-.41,1.27Z"/></g><g class="k"><path class="m" d="M195.79,122.82a2.41,2.41,0,0,1,.64-1.72,2.29,2.29,0,0,1,3.26,0,2.49,2.49,0,0,1,.64,1.77v.57a2.4,2.4,0,0,1-.63,1.7,2.12,2.12,0,0,1-1.62.68,2.19,2.19,0,0,1-1.64-.67,2.46,2.46,0,0,1-.65-1.77Zm.77.61a1.84,1.84,0,0,0,.41,1.23,1.4,1.4,0,0,0,1.11.48,1.35,1.35,0,0,0,1.08-.49,1.88,1.88,0,0,0,.4-1.25v-.58a1.84,1.84,0,0,0-.41-1.23,1.47,1.47,0,0,0-2.17,0,1.86,1.86,0,0,0-.42,1.28Zm1.82,7.81-.6-.38,5.67-9.08.6.38Zm3.25-1.88a2.39,2.39,0,0,1,.65-1.72,2.28,2.28,0,0,1,3.25,0,2.42,2.42,0,0,1,.65,1.77V130a2.37,2.37,0,0,1-.64,1.71,2.12,2.12,0,0,1-1.62.68,2.15,2.15,0,0,1-1.63-.67,2.42,2.42,0,0,1-.66-1.76Zm.77.61a1.85,1.85,0,0,0,.41,1.24,1.38,1.38,0,0,0,1.11.47,1.36,1.36,0,0,0,1.09-.48,2,2,0,0,0,.4-1.27v-.58a1.81,1.81,0,0,0-.41-1.23,1.5,1.5,0,0,0-2.18,0,1.83,1.83,0,0,0-.42,1.26Z"/></g><g class="k"><path class="n" d="M79.91,143.82a2.4,2.4,0,0,1,.64-1.72,2.29,2.29,0,0,1,3.26,0,2.45,2.45,0,0,1,.64,1.77v.56a2.4,2.4,0,0,1-.63,1.7,2.09,2.09,0,0,1-1.62.69,2.22,2.22,0,0,1-1.64-.67,2.46,2.46,0,0,1-.65-1.77Zm.77.61a1.84,1.84,0,0,0,.41,1.22,1.39,1.39,0,0,0,1.11.48,1.34,1.34,0,0,0,1.08-.48,1.89,1.89,0,0,0,.4-1.25v-.59a1.84,1.84,0,0,0-.41-1.22,1.35,1.35,0,0,0-1.09-.49,1.37,1.37,0,0,0-1.08.48,1.88,1.88,0,0,0-.42,1.28Zm1.82,7.8-.6-.38,5.67-9.08.6.39Zm3.25-1.88a2.38,2.38,0,0,1,.65-1.71A2.1,2.1,0,0,1,88,148a2.16,2.16,0,0,1,1.63.67,2.47,2.47,0,0,1,.65,1.78V151a2.4,2.4,0,0,1-.64,1.72,2.15,2.15,0,0,1-1.62.68,2.19,2.19,0,0,1-1.64-.68,2.43,2.43,0,0,1-.65-1.76Zm.77.62a1.84,1.84,0,0,0,.41,1.23,1.5,1.5,0,0,0,2.2,0,2,2,0,0,0,.4-1.27v-.58a1.82,1.82,0,0,0-.41-1.24,1.41,1.41,0,0,0-1.1-.47,1.36,1.36,0,0,0-1.08.47,1.85,1.85,0,0,0-.42,1.27Z"/></g><g class="k"><path class="o" d="M44.3,67a2.41,2.41,0,0,1,.64-1.72,2.29,2.29,0,0,1,3.26,0,2.49,2.49,0,0,1,.65,1.77v.57a2.41,2.41,0,0,1-.64,1.7,2.09,2.09,0,0,1-1.62.68A2.19,2.19,0,0,1,45,69.37a2.43,2.43,0,0,1-.65-1.77Zm.77.61a1.84,1.84,0,0,0,.41,1.23,1.4,1.4,0,0,0,1.11.48,1.32,1.32,0,0,0,1.08-.49,1.88,1.88,0,0,0,.4-1.25V67a1.84,1.84,0,0,0-.41-1.23,1.47,1.47,0,0,0-2.17,0,1.86,1.86,0,0,0-.42,1.28Zm1.82,7.81-.6-.38L52,66l.59.38Zm3.26-1.88a2.4,2.4,0,0,1,.64-1.72,2.28,2.28,0,0,1,3.25,0,2.42,2.42,0,0,1,.65,1.77v.57a2.37,2.37,0,0,1-.64,1.71,2.12,2.12,0,0,1-1.62.68,2.15,2.15,0,0,1-1.63-.67,2.41,2.41,0,0,1-.65-1.76Zm.76.61a1.85,1.85,0,0,0,.41,1.24,1.4,1.4,0,0,0,1.11.48,1.37,1.37,0,0,0,1.09-.49,1.89,1.89,0,0,0,.4-1.26v-.59a1.81,1.81,0,0,0-.41-1.23,1.36,1.36,0,0,0-1.1-.47,1.38,1.38,0,0,0-1.08.47,1.84,1.84,0,0,0-.42,1.26Z"/></g><path class="n" d="M129.34,144.13a53.07,53.07,0,0,1-44.69-24.31l20.43-13.24a28.92,28.92,0,0,0,37.52,10l11.2,21.62A53.5,53.5,0,0,1,129.34,144.13Z"/><polygon class="l" points="163.48 62.7 162.2 61.42 179 44.63 208.57 44.63 208.57 46.43 179.74 46.43 163.48 62.7"/><polygon class="o" points="86.54 95.47 70.27 79.21 41.45 79.21 41.45 77.41 71.02 77.41 87.81 94.2 86.54 95.47"/><polygon class="m" points="212.07 135.91 182.34 135.91 171.85 117.59 173.42 116.69 183.39 134.1 212.07 134.1 212.07 135.91"/><polygon class="n" points="75.61 156.31 105.33 156.27 115.8 137.94 114.23 137.05 104.28 154.47 75.61 154.51 75.61 156.31"/><polygon class="p" points="154.93 137.56 150.23 140.02 142.47 116.64 154.93 137.56"/><path class="m" d="M153.8,138.19l-11.2-21.62A28.81,28.81,0,0,0,158.22,90.9h24.35A53.08,53.08,0,0,1,153.8,138.19Z"/><polygon class="q" points="182.47 89.71 182.42 95.02 158.14 90.81 182.47 89.71"/><path class="l" d="M182.57,90.9H158.22A28.88,28.88,0,0,0,111.4,68.27L96.26,49.2a53.22,53.22,0,0,1,86.31,41.7Z"/><polygon class="r" points="96.26 49.2 100.59 46.13 111.4 68.27 96.26 49.2"/><path class="o" d="M84.65,119.82A53.26,53.26,0,0,1,96.26,49.2L111.4,68.27a28.89,28.89,0,0,0-6.32,38.31Z"/><g class="s"><circle class="t" cx="113.86" cy="90.21" r="1.57"/><circle class="t" cx="120.16" cy="86.28" r="1.57"/><circle class="t" cx="126.45" cy="90.21" r="1.57"/><circle class="t" cx="132.74" cy="84.7" r="1.57"/><circle class="t" cx="139.04" cy="80.77" r="1.57"/><circle class="t" cx="145.33" cy="75.26" r="1.57"/><line class="t" x1="114.65" y1="89.42" x2="118.58" y2="87.06"/><line class="t" x1="121.73" y1="87.06" x2="124.88" y2="89.42"/><line class="t" x1="127.24" y1="89.42" x2="131.96" y2="85.49"/><line class="t" x1="134.32" y1="83.92" x2="137.46" y2="81.56"/><line class="t" x1="139.82" y1="79.98" x2="144.54" y2="76.05"/><line class="t" x1="111.5" y1="105.16" x2="147.69" y2="105.16"/><line class="t" x1="113.86" y1="94.93" x2="113.86" y2="105.16"/><line class="t" x1="120.16" y1="91" x2="120.16" y2="105.16"/><line class="t" x1="126.45" y1="94.93" x2="126.45" y2="105.16"/><line class="t" x1="132.74" y1="89.42" x2="132.74" y2="105.16"/><line class="t" x1="139.04" y1="85.49" x2="139.04" y2="105.16"/><line class="t" x1="145.33" y1="79.98" x2="145.33" y2="105.16"/></g><rect class="u" width="250" height="179.28"/></g></svg>