<svg id="Layer_2" data-name="Layer 2" xmlns="http://www.w3.org/2000/svg" xmlns:xlink="http://www.w3.org/1999/xlink" viewBox="0 0 400 400"><defs><style>.cls-1{fill:none;}.cls-2{clip-path:url(#clip-path);}.cls-3{fill:#f5f7fa;}.cls-4{fill:#eff1f5;}.cls-5{fill:#eff1f4;}.cls-6{fill:#fff;}.cls-7{fill:#dee3e8;}.cls-8{fill:#cacfd2;}.cls-9{fill:#f08e8c;}.cls-10{fill:#f2f4f6;}</style><clipPath id="clip-path"><rect class="cls-1" width="400" height="400"/></clipPath></defs><g class="cls-2"><path class="cls-3" d="M86.75,230.3c0-.46-.07-.91-.07-1.37,0-25,18.44-45.27,41.18-45.27,22.38,0,40.56,19.66,41.11,44.13,2.68,1.27,5.29,2.68,7.83,4.2.06-1,.14-2,.14-3.06,0-29.81-22-54-49.08-54s-49.09,24.16-49.09,54a58,58,0,0,0,.31,5.93C81.58,233.23,84.13,231.7,86.75,230.3Z"/><path class="cls-4" d="M169.49,228.66c0-.48.07-.94.07-1.42,0-25.29-11.59-44.45-43.15-44.45-4.32,0-8.09,1.46-9,2.34,2.35-.66,4.44-1.13,4.44-1.13.49,0,1-.06,1.45-.06,26.48,0,38.41,13.83,44.83,40a26.57,26.57,0,0,1,.68,4.66C169.06,228.63,169.27,228.65,169.49,228.66Z"/><path class="cls-4" d="M155.79,296.36H106.25l14.34-22.11c-3.91-2.61-6-6.29-6-10.49.08-7.53,7.08-13.67,15.86-13.53a16.83,16.83,0,0,1,11.06,4.09A12.66,12.66,0,0,1,146,264a13,13,0,0,1-5.35,10.14Zm-38.35-1.18h32.73l-13.71-21.73,1.19-.74a10.57,10.57,0,0,0,5.17-8.72,10.14,10.14,0,0,0-3.58-7.72,13.43,13.43,0,0,0-8.8-3.26h-.12c-6.85,0-12.44,4.82-12.51,10.78,0,3.63,2,6.78,5.75,8.87l1.28.71Z"/><path class="cls-3" d="M68.51,238.12l1.6,76.75c0,5.05,3.78,9.15,8.44,9.15h98.56c6.63,0,12-5.82,12-13l-1.59-70c0-7.19-5.39-13-12-13H77.84C72.69,228,68.51,232.54,68.51,238.12ZM114,293.87,121.43,274a10.89,10.89,0,0,1-5.3-9.44A11.52,11.52,0,1,1,134.4,274l7.31,19.83Z"/><path class="cls-5" d="M273.7,161.81a47.53,47.53,0,0,0-35.36-42.11,11.48,11.48,0,0,0,3-7,11.64,11.64,0,1,0-21.12,5.81,47.57,47.57,0,0,0-40.11,36.07L167.66,309.24a2.93,2.93,0,0,0-1.19,2c-.33,5.42,21.06,11.16,47.79,12.79s48.65-1.44,49-6.87a2.73,2.73,0,0,0-.78-1.93ZM230.44,105a7,7,0,1,1-1.07,13.86,6.61,6.61,0,0,1-2.48-.67A6.95,6.95,0,0,1,230.44,105Z"/><path class="cls-5" d="M232.08,118.52a7,7,0,0,1-2.71.32,6.61,6.61,0,0,1-2.48-.67c1,0,2.06,0,3.11.13C230.7,118.36,231.39,118.43,232.08,118.52Z"/><path class="cls-6" d="M260.44,177h-.26a3.4,3.4,0,0,1-3.12-3.64,29.59,29.59,0,0,0-7.61-22.16,32.5,32.5,0,0,0-21.89-10.69,3.39,3.39,0,0,1,.52-6.75,39.27,39.27,0,0,1,26.42,12.92,36.38,36.38,0,0,1,9.32,27.2A3.39,3.39,0,0,1,260.44,177Z"/><path class="cls-5" d="M236.83,112.46a6.92,6.92,0,0,1-7.46,6.38,6.61,6.61,0,0,1-2.48-.67,6.95,6.95,0,1,1,9.94-5.71Z"/><path class="cls-6" d="M236.83,112.46a6.92,6.92,0,0,1-7.46,6.38,6.61,6.61,0,0,1-2.48-.67,6.95,6.95,0,1,1,9.94-5.71Z"/><circle class="cls-6" cx="260.4" cy="191.77" r="3.53"/><ellipse class="cls-7" cx="213.98" cy="343.41" rx="47.5" ry="7.4"/><path class="cls-7" d="M216.58,250.28a16.68,16.68,0,1,0,10.83,0V221.5h11.26v-4.44h-1.79v-5.38h1.79v-4.45H227.41v-5.46H216.58ZM230,265.9a8,8,0,1,1-8-7.94A8,8,0,0,1,230,265.9Z"/><path class="cls-8" d="M218.6,283a18.27,18.27,0,0,1-3.22-.28l.15-.83a18.53,18.53,0,0,0,3.07.26h.22V283Zm3.67-.36-.17-.83a18.25,18.25,0,0,0,3.16-.95l.32.78A18.29,18.29,0,0,1,222.27,282.65Zm-10.22-.83a17.86,17.86,0,0,1-3.11-1.51l.44-.73a17.63,17.63,0,0,0,3,1.45Zm16.6-1.76-.46-.71a17.19,17.19,0,0,0,2.6-2l.58.62A18.11,18.11,0,0,1,228.65,280.06Zm-22.49-1.82a19.42,19.42,0,0,1-2.34-2.54l.67-.52a17.78,17.78,0,0,0,2.24,2.43Zm27.49-2.92-.68-.49a17.28,17.28,0,0,0,1.67-2.85l.77.36A17.82,17.82,0,0,1,233.65,275.32Zm-15-1.61h0a9.29,9.29,0,0,1-3.42-.66l.31-.79a8.24,8.24,0,0,0,3.11.6Zm3.46-.7-.32-.78a8.2,8.2,0,0,0,2.66-1.77l.6.6A9,9,0,0,1,222.1,273ZM202,272.76a18.88,18.88,0,0,1-1.24-3.23l.82-.23a16.88,16.88,0,0,0,1.18,3.08Zm10.23-1.64a8.91,8.91,0,0,1-2-2.9l.77-.34a8.11,8.11,0,0,0,1.82,2.63Zm24.34-2-.82-.21a17,17,0,0,0,.49-3.26l.84.05A18,18,0,0,1,236.56,269.08Zm-9.54-.94-.78-.33a8.2,8.2,0,0,0,.62-3.13l.85-.18v.09A9.06,9.06,0,0,1,227,268.14Zm-26.87-2c0-.48-.05-1-.05-1.44a16.86,16.86,0,0,1,.11-2l.84.09a17.55,17.55,0,0,0-.11,1.93c0,.46,0,.92.06,1.37Zm9.6-1.39-.26,0a8.86,8.86,0,0,1,.66-3.39l.78.32a8.18,8.18,0,0,0-.6,3.06Zm26.35-2.41a17.54,17.54,0,0,0-.76-3.22l.8-.27a17.74,17.74,0,0,1,.79,3.37Zm-9.93-.92a7.84,7.84,0,0,0-1.84-2.61l.58-.62a9.15,9.15,0,0,1,2,2.89Zm-24.44-1.88-.81-.25a18.12,18.12,0,0,1,1.34-3.19l.74.4A17.46,17.46,0,0,0,201.73,259.52Zm11-.57-.6-.59a9.13,9.13,0,0,1,2.92-2l.33.78A8.3,8.3,0,0,0,212.7,259Zm8.93-1.89a8.44,8.44,0,0,0-3-.57h-.12v-.84h.13a9.09,9.09,0,0,1,3.34.63Zm12.35-1a16.76,16.76,0,0,0-1.9-2.69l.64-.55a18.76,18.76,0,0,1,2,2.83Zm-29.15-2.35-.65-.54a18.82,18.82,0,0,1,2.42-2.47l.55.65A17.85,17.85,0,0,0,204.83,253.74Zm24.88-2.64a17.7,17.7,0,0,0-2.75-1.82l.39-.75a17.85,17.85,0,0,1,2.89,1.91Zm-19.86-1.61-.41-.74a17.69,17.69,0,0,1,2.87-1.31v-2.29h.84V248l-.28.1A17.74,17.74,0,0,0,209.85,249.49Zm15-2.21h-.84V243.9h.84Zm-11.74-5.52h-.84v-3.38h.84Zm11.74-1.25h-.84v-3.38h.84ZM213.15,235h-.84v-3.38h.84Zm11.74-1.25h-.84v-3.39h.84Zm-11.74-5.52h-.84v-3.39h.84ZM224.89,227h-.84v-3.39h.84Zm-11.74-5.52h-.84v-3.39h.84Zm11.74-1.25h-.84v-3.39h.84ZM237.1,217h-2.76v-.84h1.92v-.63h.84ZM231,217h-3.39v-.84H231Zm-17.81-2.27h-.84v-3.39h.84Zm23.53-2.54h-2.36v-1.5h.85v.65h1.93v.8Zm-23.53-4.23h-.84v-3.39h.84Zm22-.65h-.85v-1.81h2.36v.39l.42,0v.42l-.42.07h-1.51Zm1.93-4.84h-.84v-.94h-1.61v-.84h2.45Zm-5.83-.94h-3.39v-.84h3.39Zm-6.77,0h-.45V197.7h.84v3.36h-.41Zm-11.35-.35h-.84v-3.38h.84Zm10.51-5.58h-3.39v-.84h3.39Zm-6.78,0H213.5v-.84h3.38Z"/><polygon class="cls-9" points="204.9 109.83 204.95 108.87 208.65 106.78 204.9 109.83"/><polygon class="cls-9" points="211.32 88.05 211.96 86.66 213.04 91.95 211.32 88.05"/><polygon class="cls-9" points="219.41 89.55 219.95 90.29 218.74 92.52 219.41 89.55"/><polygon class="cls-9" points="220.2 89.47 219.67 88.82 219.92 88.13 220.42 88.69 220.2 89.47"/><polygon class="cls-9" points="202.47 99.21 203.03 98.58 207.34 99.48 202.47 99.21"/><polygon class="cls-9" points="202.61 98.46 201.81 99.06 201.1 98.58 201.45 98.03 202.61 98.46"/><path class="cls-10" d="M252,99a5.34,5.34,0,0,1,1.45-6.54,32.42,32.42,0,0,1,7.79-4.28c3.32-1.33,4.81-2.86,5.84-5.53,1.34-3.46-1.14-5.52-2.66-8-.37-.59-.54-.57-1.1-.65-4-.6-8.2-1-12.3-1.46a32.37,32.37,0,0,0-10.29,6.94,50.86,50.86,0,0,1-5.56,5.29c-2.46,1.68-4.69,4.1-7.1,2.47-2-1.34-1.84-2.17.32-5.21a137.13,137.13,0,0,1,8.94-10.65c2.64-2.67,8.81-4.76,12-6.28-4.43.53-17.11,2.13-20,1.79-4.32-.52-2.74-.93-3.91-2.78-.75-1.2.52-2,1.93-2.66.49-.22,6.76-1.3,7.12-1.35a85.39,85.39,0,0,1,22.72-.32C252.91,57.32,247,55.49,242.59,54a20.07,20.07,0,0,0-3-.78c-1.92-.42-5.32-1.23-6.22-2.44-1.21-1.64-1.21-2.66-.08-3.89.46-.51.82-.7,2-.58a82.89,82.89,0,0,1,16,3.72c5,1.65,8.77,2.94,13.55,4.38-2.19-1.87-4.43-3.88-6.65-5.68-2-1.66-6.49-4.63-7.53-6.37s-.54-1.94.22-2.89,1.93-1.08,3.5-.33c4.1,2,12.65,8.87,15.5,11.21,4,3.29,9,6.79,11.53,7.86,5.9,2.5,31-13.38,34.47-9.86,4,4,8.28,13.79,7.27,15.08-3.32,4.22-34.86,17.81-39.92,21.2-2.06,1.38-5.52,4.28-8.52,6.22-1.09.7-5.61,3.05-7.1,3.92-3.56,2.07-8,4.27-11.59,4.85C254.09,100,252.69,100.59,252,99Z"/><path class="cls-9" d="M183.56,328.19l-.18-1.24-1.25.18-.07-.52,1.24-.18-.18-1.25.52-.07.18,1.24,1.25-.18.08.52-1.25.18.18,1.25Z"/><path class="cls-9" d="M189.12,333.93a1.13,1.13,0,1,1,1.28,1A1.13,1.13,0,0,1,189.12,333.93Zm1.86-.26a.75.75,0,1,0-.63.85A.75.75,0,0,0,191,333.67Z"/></g></svg>