<?xml version="1.0" encoding="UTF-8"?><svg id="a" xmlns="http://www.w3.org/2000/svg" viewBox="0 0 250 180"><g style="opacity:.46;"><path d="M104.15,47.31c-6.01,1.32-11.98-2.5-13.29-8.51-1.32-6.01,2.5-11.98,8.51-13.29,6.01-1.32,11.98,2.5,13.29,8.51,1.32,6.01-2.5,11.98-8.51,13.29ZM99.74,27.21c-5.07,1.11-8.29,6.14-7.18,11.22,1.11,5.07,6.14,8.29,11.22,7.18,5.07-1.11,8.29-6.14,7.18-11.22-1.11-5.07-6.14-8.29-11.22-7.18Z" style="fill:#879db4;"/><path d="M101.76,39.89c-1.92,0-3.48-1.56-3.48-3.48s1.56-3.48,3.48-3.48,3.48,1.56,3.48,3.48-1.56,3.48-3.48,3.48ZM101.76,33.38c-1.67,0-3.03,1.36-3.03,3.03s1.36,3.03,3.03,3.03,3.03-1.36,3.03-3.03-1.36-3.03-3.03-3.03Z" style="fill:#879db4;"/><path d="M105.76,26.18h-8l1.12-2.65c.14-.33.47-.55.83-.55h4.11c.36,0,.69.22.83.55l1.12,2.65Z" style="fill:#879db4;"/><path d="M105.76,46.64h-8l1.12,2.65c.14.33.47.55.83.55h4.11c.36,0,.69-.22.83-.55l1.12-2.65Z" style="fill:#879db4;"/><path d="M111.99,40.41v-8l2.65,1.12c.33.14.55.47.55.83v4.11c0,.36-.22.69-.55.83l-2.65,1.12Z" style="fill:#879db4;"/><path d="M91.53,40.41v-8l-2.65,1.12c-.33.14-.55.47-.55.83v4.11c0,.36.22.69.55.83l2.65,1.12Z" style="fill:#879db4;"/><path d="M111.71,31.77l-5.79-5.52,2.64-1.15c.33-.14.72-.08.98.17l2.98,2.84c.26.25.35.63.22.97l-1.02,2.69Z" style="fill:#879db4;"/><path d="M97.6,46.57l-5.79-5.52-1.02,2.69c-.13.34-.04.72.22.97l2.98,2.84c.26.25.65.32.98.17l2.64-1.15Z" style="fill:#879db4;"/><path d="M106.4,46.36l5.52-5.79,1.15,2.64c.14.33.08.72-.17.98l-2.84,2.98c-.25.26-.63.35-.97.22l-2.69-1.02Z" style="fill:#879db4;"/><path d="M91.6,32.25l5.52-5.79-2.69-1.02c-.34-.13-.72-.04-.97.22l-2.84,2.98c-.25.26-.32.65-.17.98l1.15,2.64Z" style="fill:#879db4;"/></g><path d="M152.67,48.75c-4.56-3.48-21.02-15.48-21.02-15.48,0,0-3.53-2.68-8.3-4.79-4.77-2.12-15.74-6.02-17.92-6.65-.95-.27-2.35-.76-3.34-.65-.62.07-1.25.63-1.07,1.42.17.73,1.16,1.21,1.77,1.46,1,.4,6.04,2.95,9.65,5.26.5.95,1.32,2.71,1.21,3.88-.25,2.79-3.04,3.64-4.7,3.65-1.67.01-3.05.05-3.34.94-.52,1.63,2.31,1.98,4.48,2.25s6.97,1.81,9.98.92c1.49-.44,2.9-1.63,3.95-2.73l-.21.55s17.42,15.23,22.93,27.7c7.07,5.56,15.72,4.38,16.32-4.19.47-6.76-3.74-8.46-10.38-13.53Z" style="fill:#fff; stroke:#879db4; stroke-miterlimit:10; stroke-width:.75px;"/><path d="M156.9,77.02s-2.57,18.37-7.79,7.61c-1.61-3.33-20.34-27.82-20.34-27.82,0,0,10.03-10.06,19.19-11.77,5.86-1.09,4.21-.4,6.45.04,11.04,5.81,31.77,47.29,31.77,47.29,0,0-21.41,6.7-22.43,4.61-1.02-2.09-6.84-19.97-6.84-19.97Z" style="fill:#fff; stroke:#879db4; stroke-miterlimit:10; stroke-width:.75px;"/><path d="M125.85,152.8v6.08c0,7.91-6.44,14.35-14.35,14.35-4.04,0-7.92-1.72-10.63-4.71l-.14-.15-.16.12c-3.7,2.77-8.09,4.24-12.72,4.24-11.69,0-21.19-9.51-21.19-21.19,0-2.46.42-4.88,1.25-7.17l.1-.29h-.3c-11.35-.52-20.23-9.82-20.23-21.18,0-6.2,2.7-12.07,7.42-16.11l.12-.11-.06-.15c-1.05-2.55-1.58-5.25-1.58-8.04,0-7.86,4.31-15.03,11.25-18.72l.32-.17-.3-.21c-3.82-2.66-6.33-7.05-7.07-12.36-.87-6.29.87-13.15,4.43-17.48,6.13-7.45,15.44-9.24,20.45-9.65.36-.03.73,0,1.1.04l.47.04-.07-.3c-.33-1.5-.5-3.05-.5-4.59,0-11.69,9.51-21.19,21.19-21.19,8.02,0,15,4.47,18.6,11.05.15-.04.3-.08.45-.12-3.66-6.77-10.83-11.39-19.05-11.39-11.93,0-21.64,9.71-21.64,21.64,0,1.47.15,2.95.45,4.39-.34-.03-.68-.05-1.03-.02-5.08.41-14.53,2.23-20.77,9.81-3.64,4.42-5.41,11.42-4.53,17.82.73,5.3,3.2,9.71,6.96,12.46-6.9,3.82-11.17,11.04-11.17,18.94,0,2.79.52,5.5,1.55,8.06-4.74,4.12-7.45,10.07-7.45,16.34,0,11.51,8.92,20.94,20.36,21.6-.78,2.26-1.17,4.63-1.17,7.04,0,11.93,9.71,21.64,21.64,21.64,4.66,0,9.09-1.45,12.83-4.21,2.79,2.99,6.72,4.71,10.82,4.71,8.16,0,14.8-6.64,14.8-14.8v-6c-.15-.03-.3-.05-.45-.08Z" style="fill:#e9f0f8;"/><path d="M77.57,84.18c-.78,0-1.59-.04-2.44-.13-6.03-.62-10.69-4.28-10.74-4.31-.1-.08-.11-.22-.04-.32.08-.1.22-.11.32-.04.05.04,4.61,3.61,10.51,4.22,11.25,1.15,15.76-6,15.8-6.07.06-.11.2-.14.31-.07.11.06.14.2.07.31-.04.07-4.05,6.41-13.79,6.41Z" style="fill:#e9f0f8;"/><path d="M97.91,53.49s-.03,0-.05,0c-12.48-2.92-14.32-13.62-14.34-13.73-.02-.12.06-.24.19-.26.12-.02.24.06.26.19.02.1,1.82,10.51,13.99,13.36.12.03.2.15.17.27-.02.1-.12.17-.22.17Z" style="fill:#e9f0f8;"/><path d="M54.75,106.83c-.06,0-.12-.03-.17-.08-.08-.09-.07-.24.02-.32.09-.08,8.83-7.64,20.9-4.17.12.03.19.16.15.28-.03.12-.16.19-.28.15-11.83-3.4-20.39,4-20.48,4.08-.04.04-.1.06-.15.06Z" style="fill:#e9f0f8;"/><path d="M67.88,144.51c-.12,0-.18,0-.19,0-.12,0-.22-.11-.22-.23,0-.12.1-.23.23-.22.06,0,5.73.18,12-3.23.11-.06.25-.02.3.09.06.11.02.25-.09.3-5.74,3.12-11,3.29-12.05,3.29Z" style="fill:#e9f0f8;"/><path d="M100.71,168.89c-.06,0-.12-.03-.17-.08-.1-.12-2.56-2.91-3.47-7.81-1.36-7.23,4.45-12.9,4.5-12.96.09-.09.23-.08.32,0,.09.09.08.23,0,.32-.06.05-5.68,5.57-4.37,12.55.89,4.76,3.34,7.56,3.37,7.59.08.09.07.23-.02.32-.04.04-.1.06-.15.06Z" style="fill:#e9f0f8;"/><path d="M68.71,135.09c-6.64,0-12.04-5.4-12.04-12.04s5.4-12.04,12.04-12.04,12.04,5.4,12.04,12.04-5.4,12.04-12.04,12.04ZM68.71,113.67c-5.18,0-9.39,4.21-9.39,9.39s4.21,9.39,9.39,9.39,9.39-4.21,9.39-9.39-4.21-9.39-9.39-9.39Z" style="fill:#e9f0f8;"/><path d="M71.11,112.59h-4.8l.67-3.4c.05-.26.28-.45.55-.45h2.37c.27,0,.49.19.55.45l.67,3.4Z" style="fill:#e9f0f8;"/><path d="M66.31,133.64h4.8l-.67,3.4c-.05.26-.28.45-.55.45h-2.37c-.27,0-.49-.19-.55-.45l-.67-3.4Z" style="fill:#e9f0f8;"/><path d="M79.24,125.51v-4.8l3.4.67c.26.05.45.28.45.55v2.37c0,.27-.19.49-.45.55l-3.4.67Z" style="fill:#e9f0f8;"/><path d="M58.19,120.72v4.8l-3.4-.67c-.26-.05-.45-.28-.45-.55v-2.37c0-.27.19-.49.45-.55l3.4-.67Z" style="fill:#e9f0f8;"/><path d="M76.18,115.32l-4.11-2.47,2.32-2.58c.18-.2.47-.24.7-.1l2.03,1.22c.23.14.33.42.24.66l-1.18,3.26Z" style="fill:#e9f0f8;"/><path d="M61.25,130.91l4.11,2.47-2.32,2.58c-.18.2-.47.24-.7.1l-2.03-1.22c-.23-.14-.33-.42-.24-.66l1.18-3.26Z" style="fill:#e9f0f8;"/><path d="M76.51,130.58l2.47-4.11,2.58,2.32c.2.18.24.47.1.7l-1.22,2.03c-.14.23-.42.33-.66.24l-3.26-1.18Z" style="fill:#e9f0f8;"/><path d="M60.92,115.65l-2.47,4.11-2.58-2.32c-.2-.18-.24-.47-.1-.7l1.22-2.03c.14-.23.42-.33.66-.24l3.26,1.18Z" style="fill:#e9f0f8;"/><path d="M79.06,120.05l-2.35-4.18,3.29-1.08c.25-.08.53.02.66.26l1.16,2.07c.13.23.08.52-.12.7l-2.64,2.25Z" style="fill:#e9f0f8;"/><path d="M58.36,126.18l2.35,4.18-3.29,1.08c-.25.08-.53-.02-.66-.26l-1.16-2.07c-.13-.23-.08-.52.12-.7l2.64-2.25Z" style="fill:#e9f0f8;"/><path d="M71.78,133.47l4.18-2.35,1.08,3.29c.08.25-.02.53-.26.66l-2.07,1.16c-.23.13-.52.08-.7-.12l-2.25-2.64Z" style="fill:#e9f0f8;"/><path d="M65.65,112.76l-4.18,2.35-1.08-3.29c-.08-.25.02-.53.26-.66l2.07-1.16c.23-.13.52-.08.7.12l2.25,2.64Z" style="fill:#e9f0f8;"/><circle cx="68.71" cy="123.12" r="3.59" transform="translate(-58.9 63.17) rotate(-35.67)" style="fill:#e9f0f8;"/><rect x="68.49" y="112.59" width=".45" height="21.43" style="fill:#e9f0f8;"/><rect x="58" y="123.08" width="21.43" height=".45" style="fill:#e9f0f8;"/><path d="M70.97,123.12c0-1.25-1.01-2.26-2.26-2.26s-2.26,1.01-2.26,2.26,1.01,2.26,2.26,2.26,2.26-1.01,2.26-2.26Z" style="fill:#e9f0f8;"/><path d="M119.59,107.38l-10.18-2.71-5.27-1.57c.55-12.86,3.33-32.35,3.43-37.1,0,0,1.59-5.76,1.9-8.58.2-1.84-.19-5.89-.22-7.78-.04-2.42.07-3.64-.36-4.34-.77-1.24-1.92-.53-2.42,1.73-.3,1.32-1.18,4.37-2.07,4.92-.89.56-3.46-2.19-4.94-3.59-1.48-1.39-4.11-6.18-5.14-6.34-1.03-.15-1.89.7-1.13,2.54.75,1.84,3.47,6.13,3.47,6.13,0,0-.6.52-1.37,1.34l-.03.03c-.07.07-.13.14-.2.22-.03.04-.06.08-.1.11-.03.04-.07.08-.11.12-.07.08-.15.17-.22.25-.45.52-.92,1.12-1.34,1.74-.02.02-.03.05-.04.07-.07.1-.13.19-.19.29-.02.03-.03.05-.05.08-.04.06-.08.13-.11.19-.06.1-.12.2-.17.3-.52.94-.87,1.92-.89,2.84-.05,3.42,5.45,8.74,5.45,8.74,0,0-4.07,11.5-4.96,18.17-.95,7.11-4.44,25.99-.63,31.22.03.59,4.11,2.58,4.28,2.62,4.22,2.34,19.5,6.51,19.5,6.51l4.1-18.18Z" style="fill:#fff; stroke:#879db4; stroke-miterlimit:10; stroke-width:.68px;"/><path d="M140.23,179.44l1.6-58.58-23.27,7.1s-4.5-.47-6.97-9.01c-2.47-8.54-2.83-14.85-2.83-14.85,0,0,22.01-6.61,29.06-10.54,7.05-3.93,8.54-6.73,15.64-11.42,9.66-6.38,14.45-3.99,14.45-3.99,0,0,2.68-4.08,15.07,7.9,15.03,23.54,11.1,93.39,11.1,93.39" style="fill:#fff; stroke:#879db4; stroke-miterlimit:10; stroke-width:.75px;"/><path d="M150.97,121.39c-.05,0-.1-.03-.13-.08-.05-.08-.03-.19.06-.24.09-.06,9.4-6.01,8.37-18.93-1.03-12.9-9.94-15.72-10.03-15.75-.09-.03-.14-.12-.12-.22.03-.09.12-.14.22-.12.09.03,9.23,2.91,10.28,16.06,1.05,13.14-8.43,19.19-8.53,19.25-.03.02-.07.03-.11.03Z" style="fill:#fff; stroke:#879db4; stroke-miterlimit:10; stroke-width:.75px;"/><path d="M84.09,60.49h.56c.43,0,.79.35.79.79v4.64h-2.14v-4.64c0-.43.35-.79.79-.79Z" transform="translate(147.57 -21.16) rotate(90)" style="fill:#e9f0f8;"/><circle cx="76.71" cy="63.21" r="8.03" transform="translate(-7.18 9.9) rotate(-7.05)" style="fill:#e9f0f8;"/><circle cx="76.71" cy="63.21" r="4.43" transform="translate(-7.32 116.3) rotate(-71.77)" style="fill:#fff; stroke:#e9f0f8; stroke-miterlimit:10;"/><path d="M76.43,52.83h.56c.43,0,.79.35.79.79v4.64h-2.14v-4.64c0-.43.35-.79.79-.79Z" style="fill:#e9f0f8;"/><path d="M75.65,68.14h2.14v4.64c0,.43-.35.79-.79.79h-.56c-.43,0-.79-.35-.79-.79v-4.64h0Z" style="fill:#e9f0f8;"/><path d="M67.99,60.49h2.14v4.64c0,.43-.35.79-.79.79h-.56c-.43,0-.79-.35-.79-.79v-4.64h0Z" transform="translate(132.26 -5.85) rotate(90)" style="fill:#e9f0f8;"/><path d="M71.02,55.08h.56c.43,0,.79.35.79.79v4.64h-2.14v-4.64c0-.43.35-.79.79-.79Z" transform="translate(-19.98 67.35) rotate(-45)" style="fill:#e9f0f8;"/><path d="M81.06,65.9h2.14v4.64c0,.43-.35.79-.79.79h-.56c-.43,0-.79-.35-.79-.79v-4.64h0Z" transform="translate(-24.47 78.17) rotate(-45)" style="fill:#e9f0f8;"/><path d="M81.85,55.08h.56c.43,0,.79.35.79.79v4.64h-2.14v-4.64c0-.43.35-.79.79-.79Z" transform="translate(64.92 -41.15) rotate(45)" style="fill:#e9f0f8;"/><path d="M70.23,65.9h2.14v4.64c0,.43-.35.79-.79.79h-.56c-.43,0-.79-.35-.79-.79v-4.64h0Z" transform="translate(69.41 -30.32) rotate(45)" style="fill:#e9f0f8;"/><path d="M79.16,53.34h.56c.43,0,.79.35.79.79v4.64h-2.14v-4.64c0-.43.35-.79.79-.79Z" transform="translate(25.21 -24.65) rotate(20.89)" style="fill:#e9f0f8;"/><path d="M72.92,67.64h2.14v4.64c0,.43-.35.79-.79.79h-.56c-.43,0-.79-.35-.79-.79v-4.64h0Z" transform="translate(29.96 -21.76) rotate(20.89)" style="fill:#e9f0f8;"/><path d="M83.58,63.22h.56c.43,0,.79.35.79.79v4.64h-2.14v-4.64c0-.43.35-.79.79-.79Z" transform="translate(175.37 11.1) rotate(110.89)" style="fill:#e9f0f8;"/><path d="M68.49,57.76h2.14v4.64c0,.43-.35.79-.79.79h-.56c-.43,0-.79-.35-.79-.79v-4.64h0Z" transform="translate(150.87 17.05) rotate(110.89)" style="fill:#e9f0f8;"/><path d="M73.31,53.5h.56c.43,0,.79.35.79.79v4.64h-2.14v-4.64c0-.43.35-.79.79-.79Z" transform="translate(-16.54 34.96) rotate(-24.11)" style="fill:#e9f0f8;"/><path d="M78.77,67.48h2.14v4.64c0,.43-.35.79-.79.79h-.56c-.43,0-.79-.35-.79-.79v-4.64h0Z" transform="translate(-21.71 38.73) rotate(-24.11)" style="fill:#e9f0f8;"/><path d="M83.42,57.36h.56c.43,0,.79.35.79.79v4.64h-2.14v-4.64c0-.43.35-.79.79-.79Z" transform="translate(104.35 -40.86) rotate(65.89)" style="fill:#e9f0f8;"/><path d="M68.66,63.62h2.14v4.64c0,.43-.35.79-.79.79h-.56c-.43,0-.79-.35-.79-.79v-4.64h0Z" transform="translate(101.79 -24.41) rotate(65.89)" style="fill:#e9f0f8;"/><path d="M161.37,67.25l-.81.19c.12-.3.22-.61.32-.93.13.28.3.53.49.74Z" style="fill:#fff; stroke:#879db4; stroke-miterlimit:10; stroke-width:.75px;"/><path d="M163.17,60.53c-.24,1.16-.86,2.13-1.71,2.82-.31.25-.64.46-.99.62,0,.66.03,1.33.2,1.97.05.2.12.39.21.57-.1.32-.2.63-.32.93-.17.46-.36.89-.57,1.29-.39.75-.99,1.38-1.74,1.89-1.83,1.23-5.49,1.83-8.36,1.62-.31-.02-.61-.05-.9-.09-2.93-.43-6.4-1.43-8.04-4.13-.47-.79-.68-1.63-.71-2.48-.09-2.29,1.12-4.73,1.94-6.75.09-.23.19-.46.28-.69.22-.53.45-1.07.67-1.6-.89-.86-1.85-1.97-1.68-2.22.17-.26,2.14-1.38,3.7-2.24.19-.11.37-.2.54-.29h0c.19-.92.47-1.76.82-2.57.03-.06.05-.11.08-.17.04-.09.06-.13.06-.13h0c1.17-2.54,3.04-4.6,5.33-6.02,2.29.65,4.2,2.17,5.12,4.44,1,2.49.25,4.49-.44,6.92-.08.28-.14.55-.18.81.88-.37,1.87-.48,2.87-.28,2.65.54,4.36,3.13,3.82,5.78Z" style="fill:#fff; stroke:#879db4; stroke-miterlimit:10; stroke-width:.75px;"/><path d="M146.51,49.18c-.35.81-.63,1.65-.82,2.56h0c-.17.1-.35.19-.54.3.62-1.34,1.12-2.37,1.36-2.86Z" style="fill:#fff; stroke:#879db4; stroke-miterlimit:10; stroke-width:.75px;"/><path d="M171.99,79.71c0,6-2.29,5.53-5.89,6.33-3.26.72-7.54-.74-14.12-2.02-.4-2.79-1-4.31-1.41-7.1l-.24-1.64-.44-3v-.04c2.87.21,6.53-.39,8.36-1.62.75-.51,1.35-1.14,1.74-1.89.21-.4.4-.83.57-1.29l.81-.19c.55.6,1.33.92,2.24.79.07-.01.15-.02.22-.04.25-.04.51-.1.76-.17l7.4,11.89Z" style="fill:#fff; stroke:#879db4; stroke-miterlimit:10; stroke-width:.75px;"/><path d="M164.59,67.83c-.25.07-.51.13-.76.17.24-.08.48-.17.71-.26l.05.09Z" style="fill:#fff; stroke:#879db4; stroke-miterlimit:10; stroke-width:.75px;"/><path d="M177.32,51.56q.4,4.18-1.03,6.78c-1.03,1.87-2.55,3.26-4.28,4.42h-.01s0,.01-.01.02c-.75.51-1.53.97-2.33,1.42-1.41,1.55-3.17,2.76-5.12,3.54-.23.09-.47.18-.71.26-.07.02-.15.03-.22.04-.91.13-1.69-.19-2.24-.79-.19-.21-.36-.46-.49-.74-.09-.18-.16-.37-.21-.57-.17-.64-.2-1.31-.2-1.97.35-.16.68-.37.99-.62.85-.69,1.47-1.66,1.71-2.82.54-2.65-1.17-5.24-3.82-5.78-1-.2-1.99-.09-2.87.28.04-.26.1-.53.18-.81.69-2.43,1.44-4.43.44-6.92-.92-2.27-2.83-3.79-5.12-4.44.01-.01.02-.01.03-.02-1.8-.56-3.29-1.57-3.43-3.48-.1-1.27.48-2.58,1.66-3.15,1.23-.58,2.02-1.68,3.22-1.18-.2-1.47.41-1.56,1.29-2.8,1.02-1.43,2.87-1.98,4.56-1.93,3.75.1,4.77-.18,8.94,2.11,4.17,3.66,4.96,4.19,6.98,6.39,3.43,3.75,4.07,8.44,2.09,12.76Z" style="fill:#fff; stroke:#879db4; stroke-miterlimit:10; stroke-width:.75px;"/><path d="M171.99,62.78c-.23.26-3.68,3.99-7.4,5.05-.25.07-.51.13-.76.17.24-.08.48-.17.71-.26,1.95-.78,3.71-1.99,5.12-3.54.8-.45,1.58-.91,2.33-1.42Z" style="fill:#fff; stroke:#879db4; stroke-miterlimit:10; stroke-width:.75px;"/><path d="M121.86,156.3l-1.11-.08c-.09-.48-.21-.94-.38-1.39l.92-.63c.43-.29.55-.86.29-1.31l-.41-.7c-.26-.45-.82-.61-1.29-.38l-1,.5c-.27-.32-.57-.61-.89-.88l.49-1c.23-.46.06-1.02-.39-1.29l-.7-.41c-.45-.26-1.02-.13-1.31.29l-.63.92c-.44-.16-.89-.29-1.36-.37l-.08-1.11c-.04-.52-.47-.91-.98-.91h-.81c-.52,0-.95.4-.98.91l-.08,1.11c-.48.09-.94.21-1.39.38l-.63-.92c-.29-.43-.86-.55-1.31-.29l-.7.41c-.45.26-.61.82-.38,1.29l.5,1c-.32.27-.61.57-.88.89l-1-.49c-.46-.23-1.02-.06-1.29.39l-.41.7c-.26.45-.13,1.02.29,1.31l.92.63c-.16.44-.29.89-.37,1.36l-1.11.08c-.52.04-.91.47-.91.98v.81c0,.52.4.95.91.98l1.11.08c.09.48.21.94.38,1.39l-.92.63c-.43.29-.55.86-.29,1.31l.41.7c.26.45.82.61,1.29.38l1-.5c.27.32.57.61.89.88l-.49,1c-.23.46-.06,1.02.39,1.28l.7.41c.45.26,1.02.13,1.31-.29l.63-.92c.44.16.89.29,1.36.37l.08,1.11c.04.52.47.91.98.91h.81c.52,0,.95-.4.98-.91l.08-1.11c.48-.09.94-.21,1.39-.38l.63.92c.29.43.86.55,1.31.29l.7-.41c.45-.26.61-.82.38-1.29l-.5-1c.32-.27.61-.57.88-.89l1,.49c.46.23,1.02.06,1.29-.39l.41-.7c.26-.45.13-1.02-.29-1.31l-.92-.63c.16-.44.29-.89.37-1.36l1.11-.08c.52-.04.91-.47.91-.98v-.81c0-.52-.4-.95-.91-.98ZM109.55,152.68c1.05,0,1.9.85,1.9,1.9s-.85,1.9-1.9,1.9-1.9-.85-1.9-1.9.85-1.9,1.9-1.9ZM109.55,162.6c-1.05,0-1.9-.85-1.9-1.9s.85-1.9,1.9-1.9,1.9.85,1.9,1.9-.85,1.9-1.9,1.9ZM112.64,159.03c-.74,0-1.34-.6-1.34-1.34s.6-1.34,1.34-1.34,1.34.6,1.34,1.34-.6,1.34-1.34,1.34ZM115.74,162.6c-1.05,0-1.9-.85-1.9-1.9s.85-1.9,1.9-1.9,1.9.85,1.9,1.9-.85,1.9-1.9,1.9ZM115.74,156.47c-1.05,0-1.9-.85-1.9-1.9s.85-1.9,1.9-1.9,1.9.85,1.9,1.9-.85,1.9-1.9,1.9Z" style="fill:#879db4; opacity:.5;"/><path id="b" d="M87.67,156.23l2.2-3.81v6.62h-9.67v-8.7h.97v6.06l2.66-4.61,3.14,1.83,2.05-3.55.84.48-2.53,4.38-3.15-1.81-2.86,4.96h1.09l2.12-3.66,3.14,1.81Z" style="fill:#879db4; opacity:.6;"/><path id="c" d="M76.61,62.83c-.19.32-.34.67-.43,1.03-1.43.12-2.82.79-2.82,1.1v.59h2.82c.09.36.23.7.43,1.01h-4.26v-1.6c0-1.42,2.84-2.13,4.26-2.13M76.61,58.04c1.18,0,2.13.95,2.13,2.13,0,.47-.15.92-.44,1.3-.46.17-.87.44-1.21.78l-.48.05c-1.18,0-2.13-.95-2.13-2.13,0-1.18.95-2.13,2.13-2.13h0M76.61,59.05c-.62,0-1.12.5-1.12,1.12,0,.62.5,1.12,1.12,1.12.62,0,1.12-.5,1.12-1.12h0c0-.62-.5-1.12-1.12-1.12M79.54,62.3c1.33,0,2.4,1.08,2.4,2.4,0,.45-.13.89-.37,1.28l1.64,1.65-.74.74-1.66-1.64c-1.12.7-2.6.36-3.3-.77-.7-1.12-.36-2.6.77-3.3.38-.24.82-.36,1.27-.36M79.54,63.37c-.74,0-1.33.6-1.33,1.33s.6,1.33,1.33,1.33,1.33-.6,1.33-1.33h0c0-.74-.6-1.33-1.33-1.33Z" style="fill:#879db4; opacity:.6;"/><path id="d" d="M60.98,119.79c-.3-.9-1.14-1.5-2.09-1.49-1.23-.05-2.28.9-2.33,2.13-.05,1.23.9,2.28,2.13,2.33.07,0,.13,0,.2,0,.94.01,1.79-.59,2.09-1.49h.89v1.49h1.49v-1.49h1.49v-1.49h-3.87M58.9,121.28c-.41,0-.75-.33-.75-.75s.33-.75.75-.75.75.33.75.75-.33.75-.75.75M68.58,115.32c-1.65,0-2.98,1.33-2.98,2.98s1.33,2.98,2.98,2.98,2.98-1.33,2.98-2.98c0-1.64-1.34-2.98-2.98-2.98M68.58,119.86c-.84.02-1.54-.64-1.57-1.48,0-.03,0-.05,0-.08,0-.86.7-1.56,1.56-1.56s1.56.7,1.56,1.56c.02.84-.64,1.54-1.48,1.56-.03,0-.05,0-.08,0M68.58,122.02c-2.01,0-5.96.97-5.96,2.98v2.24h11.92v-2.24c0-2.01-3.95-2.98-5.96-2.98M73.13,125.82h-9.09v-.82c0-.45,2.31-1.56,4.54-1.56s4.54,1.12,4.54,1.56v.82Z" style="fill:#879db4; opacity:.6;"/><path id="e" d="M68.94,86.58c-1.26,0-2.29,1.02-2.29,2.29s1.02,2.29,2.29,2.29,2.29-1.02,2.29-2.29h0c0-1.26-1.02-2.29-2.29-2.29M68.94,87.89c.54,0,.98.44.98.98s-.44.98-.98.98-.98-.44-.98-.98.44-.98.98-.98M64.69,88.54c-.9,0-1.64.72-1.64,1.62,0,.9.72,1.64,1.62,1.64.28,0,.56-.07.81-.21.24-.14.45-.33.59-.57-.48-.62-.73-1.38-.73-2.16v-.18c-.2-.1-.43-.14-.65-.14M73.18,88.54c-.23,0-.45.05-.65.14v.18c0,.78-.26,1.54-.73,2.16.07.12.16.22.26.32.1.1.21.18.33.25.49.28,1.09.28,1.58,0,.79-.43,1.08-1.43.64-2.21-.29-.52-.84-.85-1.43-.84M68.94,92.46c-1.53,0-4.58.76-4.58,2.29v.98h9.15v-.98c0-1.52-3.05-2.29-4.58-2.29M64.17,92.82c-1.26.15-3.08.79-3.08,1.93v.98h1.96v-1.26c.07-.7.49-1.33,1.12-1.65M73.7,92.82c.63.32,1.05.94,1.12,1.65v1.26h1.96v-.98c0-1.14-1.82-1.78-3.08-1.93M68.94,93.77c.96.02,1.9.24,2.77.65h-5.53c.86-.41,1.81-.63,2.76-.65Z" style="fill:#879db4; opacity:.6;"/><g id="f"><path d="M130.27,113.22c.12.37-.19.93-.57,1.05l-.66.21-2.09-6.59,1.48-.47,1.84,5.8Z" style="fill:#e9f0f7;"/><path d="M130.19,106.86l1.91-.6c.72-.23,1.31-.25,1.75-.06.46.19.76.54.93,1.07.12.37.13.69.04.98s-.24.52-.47.72v.02c.81-.03,1.35.37,1.61,1.2.09.3.13.58.12.84-.02.26-.09.51-.23.74-.14.23-.34.43-.6.62s-.61.33-1.03.47l-2.71.86s-1.84-5.82-1.84-5.81c-.09-.3.22-.92.52-1.02ZM134.44,110.53c-.09-.28-.22-.46-.39-.53-.17-.08-.42-.07-.74.04l-1.27.4.5,1.59,1.31-.41c.3-.09.5-.22.59-.38.1-.15.1-.39,0-.71ZM133.46,107.97c-.08-.26-.21-.43-.36-.49s-.38-.05-.65.04l-1.19.38.45,1.43,1.23-.39c.26-.08.44-.2.53-.35.09-.15.09-.35,0-.62Z" style="fill:#e9f0f7;"/><path d="M125.38,109.78c-1.92.31-2.17,1.08-1.64,2.75s1.15,2.08,3.07,1.25c.6-.26.81-.11,1.24.82-.17.18-1.07.64-1.75.84-1.01.28-1.91.3-2.56-.11-.66-.41-1.17-1.19-1.54-2.37-.75-2.36,0-3.67,2.06-4.32,1.01-.32,1.78-.23,1.78-.23.17,1.13.01,1.26-.66,1.37Z" style="fill:#e9f0f7;"/><path d="M139.34,108.12c.48-.15.97-1.17.84-1.59l-1.31-4.13-3.78,1.2,1.69,5.34,2.56-.81Z" style="fill:#e9f0f7;"/></g></svg>