<svg id="Group_1828" data-name="Group 1828" xmlns="http://www.w3.org/2000/svg" xmlns:xlink="http://www.w3.org/1999/xlink" width="147.888" height="166.02" viewBox="0 0 147.888 166.02">
  <defs>
    <clipPath id="clip-path">
      <rect id="Rectangle_917" data-name="Rectangle 917" width="147.888" height="166.02" fill="none"/>
    </clipPath>
    <clipPath id="clip-path-3">
      <rect id="Rectangle_908" data-name="Rectangle 908" width="26.856" height="26.857" transform="translate(41.306 9.544)" fill="none"/>
    </clipPath>
    <clipPath id="clip-path-4">
      <rect id="Rectangle_911" data-name="Rectangle 911" width="20.273" height="20.273" transform="translate(55.479 134.113)" fill="none"/>
    </clipPath>
    <clipPath id="clip-path-5">
      <rect id="Rectangle_912" data-name="Rectangle 912" width="9.671" height="8.971" transform="translate(33.169 136.638)" fill="none"/>
    </clipPath>
    <clipPath id="clip-path-6">
      <rect id="Rectangle_913" data-name="Rectangle 913" width="10.866" height="10.334" transform="translate(25.322 44.601)" fill="none"/>
    </clipPath>
    <clipPath id="clip-path-7">
      <rect id="Rectangle_914" data-name="Rectangle 914" width="17.98" height="11.921" transform="translate(9.537 101.882)" fill="none"/>
    </clipPath>
    <clipPath id="clip-path-8">
      <rect id="Rectangle_915" data-name="Rectangle 915" width="15.687" height="9.151" transform="translate(14.068 73.145)" fill="none"/>
    </clipPath>
  </defs>
  <g id="Group_1848" data-name="Group 1848" clip-path="url(#clip-path)">
    <g id="Group_1847" data-name="Group 1847">
      <g id="Group_1846" data-name="Group 1846" clip-path="url(#clip-path)">
        <g id="Group_1830" data-name="Group 1830" opacity="0.46">
          <g id="Group_1829" data-name="Group 1829">
            <g id="Group_1828-2" data-name="Group 1828" clip-path="url(#clip-path-3)">
              <path id="Path_4476" data-name="Path 4476" d="M57.126,33.876a11.162,11.162,0,1,1,8.512-13.294,11.174,11.174,0,0,1-8.512,13.294m-4.409-20.1a9.418,9.418,0,1,0,11.217,7.181,9.428,9.428,0,0,0-11.217-7.181" fill="#869cb3"/>
              <path id="Path_4477" data-name="Path 4477" d="M54.734,26.456a3.483,3.483,0,1,1,3.484-3.483,3.486,3.486,0,0,1-3.484,3.483m0-6.517a3.034,3.034,0,1,0,3.034,3.034,3.037,3.037,0,0,0-3.034-3.034" fill="#869cb3"/>
              <path id="Path_4478" data-name="Path 4478" d="M58.735,12.747h-8L51.851,10.1a.9.9,0,0,1,.828-.551H56.79a.9.9,0,0,1,.828.551Z" fill="#869cb3"/>
              <path id="Path_4479" data-name="Path 4479" d="M58.735,33.2h-8l1.117,2.652a.9.9,0,0,0,.828.551H56.79a.9.9,0,0,0,.828-.551Z" fill="#869cb3"/>
              <path id="Path_4480" data-name="Path 4480" d="M64.96,26.973v-8l2.652,1.117a.9.9,0,0,1,.551.828v4.111a.9.9,0,0,1-.551.828Z" fill="#869cb3"/>
              <path id="Path_4481" data-name="Path 4481" d="M44.508,26.973v-8l-2.652,1.117a.9.9,0,0,0-.551.828v4.111a.9.9,0,0,0,.551.828Z" fill="#869cb3"/>
              <path id="Path_4482" data-name="Path 4482" d="M64.685,18.33l-5.792-5.52,2.639-1.15a.9.9,0,0,1,.979.174l2.975,2.836a.9.9,0,0,1,.22.969Z" fill="#869cb3"/>
              <path id="Path_4483" data-name="Path 4483" d="M50.575,33.135l-5.792-5.52-1.021,2.691a.9.9,0,0,0,.22.969l2.975,2.836a.9.9,0,0,0,.98.174Z" fill="#869cb3"/>
              <path id="Path_4484" data-name="Path 4484" d="M59.377,32.923l5.52-5.792,1.15,2.639a.9.9,0,0,1-.174.979l-2.836,2.975a.9.9,0,0,1-.969.22Z" fill="#869cb3"/>
              <path id="Path_4485" data-name="Path 4485" d="M44.572,18.814l5.52-5.792L47.4,12a.9.9,0,0,0-.97.22L43.6,15.2a.9.9,0,0,0-.174.98Z" fill="#869cb3"/>
            </g>
          </g>
        </g>
        <path id="Path_4486" data-name="Path 4486" d="M105.643,35.311c-4.557-3.479-21.02-15.481-21.02-15.481a46.465,46.465,0,0,0-8.3-4.792C71.547,12.922,60.583,9.014,58.4,8.386a10.2,10.2,0,0,0-3.345-.654,1.184,1.184,0,0,0-1.071,1.42c.167.729,1.156,1.213,1.772,1.458a88.506,88.506,0,0,1,9.649,5.262,8.7,8.7,0,0,1,1.212,3.879c-.252,2.79-3.038,3.641-4.7,3.652s-3.05.047-3.337.944c-.522,1.634,2.306,1.981,4.48,2.252s6.972,1.811,9.978.919a9.989,9.989,0,0,0,3.955-2.729l-.215.547s17.42,15.232,22.928,27.7c7.075,5.558,15.724,4.379,16.324-4.191.474-6.764-3.74-8.462-10.384-13.534" fill="#fff"/>
        <path id="Path_4487" data-name="Path 4487" d="M105.643,35.311c-4.557-3.479-21.02-15.481-21.02-15.481a46.465,46.465,0,0,0-8.3-4.792C71.547,12.922,60.583,9.014,58.4,8.386a10.2,10.2,0,0,0-3.345-.654,1.184,1.184,0,0,0-1.071,1.42c.167.729,1.156,1.213,1.772,1.458a88.506,88.506,0,0,1,9.649,5.262,8.7,8.7,0,0,1,1.212,3.879c-.252,2.79-3.038,3.641-4.7,3.652s-3.05.047-3.337.944c-.522,1.634,2.306,1.981,4.48,2.252s6.972,1.811,9.978.919a9.989,9.989,0,0,0,3.955-2.729l-.215.547s17.42,15.232,22.928,27.7c7.075,5.558,15.724,4.379,16.324-4.191C116.5,42.081,112.287,40.383,105.643,35.311Z" fill="none" stroke="#869cb3" stroke-width="0.75"/>
        <path id="Path_4488" data-name="Path 4488" d="M109.879,63.587s-2.57,18.373-7.79,7.614c-1.614-3.327-20.345-27.817-20.345-27.817S91.77,33.323,100.932,31.616c5.86-1.093,4.206-.4,6.448.041,11.041,5.814,31.77,47.29,31.77,47.29s-21.406,6.7-22.431,4.611-6.84-19.971-6.84-19.971" fill="#fff"/>
        <path id="Path_4489" data-name="Path 4489" d="M109.879,63.587s-2.57,18.373-7.79,7.614c-1.614-3.327-20.345-27.817-20.345-27.817S91.77,33.323,100.932,31.616c5.86-1.093,4.206-.4,6.448.041,11.041,5.814,31.77,47.29,31.77,47.29s-21.406,6.7-22.431,4.611S109.879,63.587,109.879,63.587Z" fill="none" stroke="#869cb3" stroke-width="0.75"/>
        <path id="Path_4490" data-name="Path 4490" d="M78.826,139.363v6.08a14.347,14.347,0,0,1-24.973,9.639l-.138-.152-.163.123a21.2,21.2,0,0,1-32.669-24.129l.1-.287-.305-.013A21.195,21.195,0,0,1,7.869,93.344l.123-.106-.062-.151A21.217,21.217,0,0,1,17.6,66.326l.325-.173-.3-.21a17.635,17.635,0,0,1-7.069-12.364c-.869-6.286.87-13.146,4.43-17.476,6.125-7.451,15.444-9.243,20.454-9.647a6.473,6.473,0,0,1,1.1.035L37,26.53l-.065-.3A21.192,21.192,0,0,1,76.237,11.5c.149-.041.3-.083.448-.119A21.645,21.645,0,0,0,36.436,26.031a6.187,6.187,0,0,0-1.03-.024c-5.081.411-14.535,2.232-20.766,9.811C11,40.24,9.227,47.236,10.113,53.641A18.168,18.168,0,0,0,17.075,66.1,21.668,21.668,0,0,0,7.453,93.108,21.644,21.644,0,0,0,20.36,131.057a21.649,21.649,0,0,0,33.3,24.477,14.8,14.8,0,0,0,25.618-10.091v-6c-.151-.026-.3-.051-.45-.081" fill="#e9f0f7"/>
        <path id="Path_4491" data-name="Path 4491" d="M30.542,70.744a23.78,23.78,0,0,1-2.444-.128A23.141,23.141,0,0,1,17.358,66.3a.225.225,0,0,1,.28-.352,22.659,22.659,0,0,0,10.506,4.218c11.25,1.155,15.759-6,15.8-6.074a.224.224,0,1,1,.383.234c-.042.07-4.045,6.415-13.788,6.415" fill="#e9f0f7"/>
        <path id="Path_4492" data-name="Path 4492" d="M50.884,40.053a.237.237,0,0,1-.052-.006C38.357,37.125,36.514,26.424,36.5,26.316a.225.225,0,0,1,.444-.071c.017.1,1.822,10.513,14,13.364a.225.225,0,0,1-.051.444" fill="#e9f0f7"/>
        <path id="Path_4493" data-name="Path 4493" d="M7.722,93.4A.225.225,0,0,1,7.573,93a23.522,23.522,0,0,1,20.9-4.174.225.225,0,1,1-.125.432A23.038,23.038,0,0,0,7.871,93.342a.228.228,0,0,1-.149.056" fill="#e9f0f7"/>
        <path id="Path_4494" data-name="Path 4494" d="M20.85,131.075c-.117,0-.182,0-.187,0a.226.226,0,0,1-.216-.234.215.215,0,0,1,.233-.215,25.817,25.817,0,0,0,12.005-3.232.225.225,0,1,1,.214.4,26.665,26.665,0,0,1-12.049,3.288" fill="#e9f0f7"/>
        <path id="Path_4495" data-name="Path 4495" d="M53.686,155.457a.224.224,0,0,1-.168-.075,17.154,17.154,0,0,1-3.473-7.806c-1.355-7.227,4.445-12.9,4.5-12.957a.225.225,0,1,1,.312.324c-.057.055-5.683,5.565-4.374,12.55a17.048,17.048,0,0,0,3.368,7.59.225.225,0,0,1-.168.374" fill="#e9f0f7"/>
        <path id="Path_4496" data-name="Path 4496" d="M21.687,121.656a12.035,12.035,0,1,1,12.035-12.035,12.049,12.049,0,0,1-12.035,12.035m0-21.424a9.389,9.389,0,1,0,9.389,9.389,9.4,9.4,0,0,0-9.389-9.389" fill="#e9f0f7"/>
        <path id="Path_4497" data-name="Path 4497" d="M24.085,99.153h-4.8l.668-3.4A.556.556,0,0,1,20.5,95.3h2.371a.556.556,0,0,1,.545.449Z" fill="#e9f0f7"/>
        <path id="Path_4498" data-name="Path 4498" d="M19.288,120.2h4.8l-.668,3.4a.556.556,0,0,1-.546.449H20.5a.556.556,0,0,1-.545-.449Z" fill="#e9f0f7"/>
        <path id="Path_4499" data-name="Path 4499" d="M32.212,112.077v-4.8l3.4.668a.557.557,0,0,1,.449.546v2.37a.556.556,0,0,1-.449.545Z" fill="#e9f0f7"/>
        <path id="Path_4500" data-name="Path 4500" d="M11.162,107.28v4.8l-3.4-.668a.556.556,0,0,1-.449-.546v-2.37a.556.556,0,0,1,.449-.545Z" fill="#e9f0f7"/>
        <path id="Path_4501" data-name="Path 4501" d="M29.153,101.882l-4.115-2.465,2.322-2.576a.557.557,0,0,1,.7-.105l2.034,1.218a.557.557,0,0,1,.237.665Z" fill="#e9f0f7"/>
        <path id="Path_4502" data-name="Path 4502" d="M14.22,117.474l4.115,2.465-2.322,2.576a.557.557,0,0,1-.7.105L13.281,121.4a.557.557,0,0,1-.237-.665Z" fill="#e9f0f7"/>
        <path id="Path_4503" data-name="Path 4503" d="M29.483,117.145l2.465-4.115,2.576,2.322a.557.557,0,0,1,.105.7l-1.218,2.034a.557.557,0,0,1-.665.237Z" fill="#e9f0f7"/>
        <path id="Path_4504" data-name="Path 4504" d="M13.891,102.212l-2.465,4.115L8.85,104a.557.557,0,0,1-.105-.7l1.218-2.034a.557.557,0,0,1,.665-.237Z" fill="#e9f0f7"/>
        <path id="Path_4505" data-name="Path 4505" d="M32.037,106.614l-2.35-4.182,3.294-1.084a.557.557,0,0,1,.659.255L34.8,103.67a.556.556,0,0,1-.124.695Z" fill="#e9f0f7"/>
        <path id="Path_4506" data-name="Path 4506" d="M11.336,112.743l2.35,4.182-3.294,1.084a.557.557,0,0,1-.659-.255l-1.161-2.067a.556.556,0,0,1,.124-.695Z" fill="#e9f0f7"/>
        <path id="Path_4507" data-name="Path 4507" d="M24.751,120.029l4.182-2.35,1.084,3.294a.557.557,0,0,1-.255.659l-2.067,1.161a.556.556,0,0,1-.695-.124Z" fill="#e9f0f7"/>
        <path id="Path_4508" data-name="Path 4508" d="M18.622,99.328l-4.182,2.35-1.084-3.294a.557.557,0,0,1,.255-.659l2.067-1.161a.556.556,0,0,1,.695.124Z" fill="#e9f0f7"/>
        <path id="Path_4509" data-name="Path 4509" d="M25.275,109.678a3.589,3.589,0,1,0-3.589,3.589,3.589,3.589,0,0,0,3.589-3.589" fill="#e9f0f7"/>
        <rect id="Rectangle_909" data-name="Rectangle 909" width="0.449" height="21.432" transform="translate(21.462 99.153)" fill="#e9f0f7"/>
        <rect id="Rectangle_910" data-name="Rectangle 910" width="21.432" height="0.449" transform="translate(10.971 109.645)" fill="#e9f0f7"/>
        <path id="Path_4510" data-name="Path 4510" d="M23.942,109.678a2.255,2.255,0,1,0-2.255,2.255,2.255,2.255,0,0,0,2.255-2.255" fill="#e9f0f7"/>
        <path id="Path_4511" data-name="Path 4511" d="M72.561,93.942,62.383,91.236l-5.27-1.572c.546-12.855,3.335-32.35,3.435-37.1a78.592,78.592,0,0,0,1.9-8.579c.2-1.838-.186-5.894-.216-7.784-.037-2.424.066-3.639-.358-4.337-.767-1.239-1.921-.532-2.423,1.73-.3,1.32-1.179,4.366-2.067,4.923s-3.455-2.194-4.937-3.589-4.1-6.184-5.138-6.338-1.888.7-1.135,2.544a61.944,61.944,0,0,0,3.472,6.126s-.6.522-1.37,1.342l-.026.03c-.068.071-.132.144-.2.218-.032.037-.064.077-.1.111s-.073.08-.108.123c-.074.081-.146.168-.219.254a18.145,18.145,0,0,0-1.337,1.743c-.017.023-.028.046-.042.066-.066.095-.126.19-.189.289-.017.026-.034.053-.051.082-.04.063-.076.128-.113.19-.059.1-.119.2-.172.3a6.317,6.317,0,0,0-.888,2.842c-.049,3.421,5.449,8.744,5.449,8.744s-4.066,11.5-4.961,18.174c-.953,7.108-4.439,25.987-.633,31.218.03.588,4.107,2.58,4.277,2.625,4.215,2.343,19.5,6.511,19.5,6.511Z" fill="#fff"/>
        <path id="Path_4512" data-name="Path 4512" d="M72.561,93.942,62.383,91.236l-5.27-1.572c.546-12.855,3.335-32.35,3.435-37.1a78.592,78.592,0,0,0,1.9-8.579c.2-1.838-.186-5.894-.216-7.784-.037-2.424.066-3.639-.358-4.337-.767-1.239-1.921-.532-2.423,1.73-.3,1.32-1.179,4.366-2.067,4.923s-3.455-2.194-4.937-3.589-4.1-6.184-5.138-6.338-1.888.7-1.135,2.544a61.944,61.944,0,0,0,3.472,6.126s-.6.522-1.37,1.342l-.026.03c-.068.071-.132.144-.2.218-.032.037-.064.077-.1.111s-.073.08-.108.123c-.074.081-.146.168-.219.254a18.145,18.145,0,0,0-1.337,1.743c-.017.023-.028.046-.042.066-.066.095-.126.19-.189.289-.017.026-.034.053-.051.082-.04.063-.076.128-.113.19-.059.1-.119.2-.172.3a6.317,6.317,0,0,0-.888,2.842c-.049,3.421,5.449,8.744,5.449,8.744s-4.066,11.5-4.961,18.174c-.953,7.108-4.439,25.987-.633,31.218.03.588,4.107,2.58,4.277,2.625,4.215,2.343,19.5,6.511,19.5,6.511Z" fill="none" stroke="#869cb3" stroke-width="0.682"/>
        <path id="Path_4513" data-name="Path 4513" d="M93.2,166l1.6-58.576-23.275,7.1s-4.5-.474-6.969-9.014a74.553,74.553,0,0,1-2.834-14.847S83.738,84.053,90.791,80.12,99.33,73.385,106.432,68.7c9.664-6.378,14.449-3.988,14.449-3.988s2.684-4.082,15.071,7.9c15.033,23.545,11.1,93.392,11.1,93.392" fill="#fff"/>
        <path id="Path_4514" data-name="Path 4514" d="M93.2,166l1.6-58.576-23.275,7.1s-4.5-.474-6.969-9.014a74.553,74.553,0,0,1-2.834-14.847S83.738,84.053,90.791,80.12,99.33,73.385,106.432,68.7c9.664-6.378,14.449-3.988,14.449-3.988s2.684-4.082,15.071,7.9c15.033,23.545,11.1,93.392,11.1,93.392" fill="none" stroke="#869cb3" stroke-width="0.75"/>
        <path id="Path_4515" data-name="Path 4515" d="M103.948,107.949a.174.174,0,0,1-.072-.32c.094-.059,9.4-6.01,8.366-18.93-1.03-12.9-9.939-15.725-10.029-15.752a.174.174,0,0,1,.1-.333c.092.027,9.226,2.907,10.276,16.057s-8.434,19.193-8.53,19.253a.175.175,0,0,1-.111.025" fill="#fff"/>
        <path id="Path_4516" data-name="Path 4516" d="M103.948,107.949a.174.174,0,0,1-.072-.32c.094-.059,9.4-6.01,8.366-18.93-1.03-12.9-9.939-15.725-10.029-15.752a.174.174,0,0,1,.1-.333c.092.027,9.226,2.907,10.276,16.057s-8.434,19.193-8.53,19.253A.175.175,0,0,1,103.948,107.949Z" fill="none" stroke="#869cb3" stroke-width="0.75"/>
        <path id="Path_4517" data-name="Path 4517" d="M34.627,50.836V48.7h4.645a.786.786,0,0,1,.786.787v.561a.786.786,0,0,1-.786.787Z" fill="#e9f0f7"/>
        <path id="Path_4518" data-name="Path 4518" d="M37.717,49.768a8.029,8.029,0,1,0-8.03,8.03,8.03,8.03,0,0,0,8.03-8.03" fill="#e9f0f7"/>
        <path id="Path_4519" data-name="Path 4519" d="M34.113,49.768a4.425,4.425,0,1,0-4.425,4.425,4.425,4.425,0,0,0,4.425-4.425" fill="#fff"/>
        <path id="Path_4520" data-name="Path 4520" d="M34.113,49.768a4.425,4.425,0,1,0-4.425,4.425A4.425,4.425,0,0,0,34.113,49.768Z" fill="none" stroke="#e9f0f7" stroke-width="1"/>
        <path id="Path_4521" data-name="Path 4521" d="M30.755,44.829H28.62V40.184a.786.786,0,0,1,.787-.786h.561a.786.786,0,0,1,.787.786Z" fill="#e9f0f7"/>
        <path id="Path_4522" data-name="Path 4522" d="M30.755,54.708H28.62v4.645a.786.786,0,0,0,.787.786h.561a.786.786,0,0,0,.787-.786Z" fill="#e9f0f7"/>
        <path id="Path_4523" data-name="Path 4523" d="M24.748,50.836V48.7H20.1a.786.786,0,0,0-.786.787v.561a.786.786,0,0,0,.786.787Z" fill="#e9f0f7"/>
        <path id="Path_4524" data-name="Path 4524" d="M26.95,45.521l-1.51,1.51-3.284-3.285a.786.786,0,0,1,0-1.112l.4-.4a.788.788,0,0,1,1.113,0Z" fill="#e9f0f7"/>
        <path id="Path_4525" data-name="Path 4525" d="M33.935,52.506l-1.51,1.51L35.71,57.3a.786.786,0,0,0,1.112,0l.4-.4a.788.788,0,0,0,0-1.113Z" fill="#e9f0f7"/>
        <path id="Path_4526" data-name="Path 4526" d="M33.935,47.03l-1.51-1.51,3.285-3.284a.786.786,0,0,1,1.112,0l.4.4a.788.788,0,0,1,0,1.113Z" fill="#e9f0f7"/>
        <path id="Path_4527" data-name="Path 4527" d="M26.95,54.016l-1.51-1.51-3.284,3.285a.786.786,0,0,0,0,1.112l.4.4a.788.788,0,0,0,1.113,0Z" fill="#e9f0f7"/>
        <path id="Path_4528" data-name="Path 4528" d="M32.446,45.534l-1.995-.761,1.657-4.34a.786.786,0,0,1,1.015-.454l.525.2a.787.787,0,0,1,.454,1.016Z" fill="#e9f0f7"/>
        <path id="Path_4529" data-name="Path 4529" d="M28.924,54.763l-2-.761-1.656,4.339a.786.786,0,0,0,.454,1.015l.525.2a.787.787,0,0,0,1.016-.455Z" fill="#e9f0f7"/>
        <path id="Path_4530" data-name="Path 4530" d="M33.922,52.527l.761-1.995,4.34,1.657a.787.787,0,0,1,.454,1.015l-.2.525a.787.787,0,0,1-1.016.454Z" fill="#e9f0f7"/>
        <path id="Path_4531" data-name="Path 4531" d="M24.692,49l.761-2-4.339-1.656a.786.786,0,0,0-1.015.454l-.2.525a.787.787,0,0,0,.455,1.016Z" fill="#e9f0f7"/>
        <path id="Path_4532" data-name="Path 4532" d="M28.645,44.824,26.7,45.7l-1.9-4.239a.788.788,0,0,1,.4-1.04l.513-.229a.786.786,0,0,1,1.039.4Z" fill="#e9f0f7"/>
        <path id="Path_4533" data-name="Path 4533" d="M32.68,53.841l-1.949.872,1.9,4.24a.787.787,0,0,0,1.04.4l.512-.229a.787.787,0,0,0,.4-1.039Z" fill="#e9f0f7"/>
        <path id="Path_4534" data-name="Path 4534" d="M34.632,48.725l-.872-1.949,4.24-1.9a.787.787,0,0,1,1.039.4l.229.513a.786.786,0,0,1-.4,1.039Z" fill="#e9f0f7"/>
        <path id="Path_4535" data-name="Path 4535" d="M25.615,52.76l-.872-1.949-4.24,1.9a.786.786,0,0,0-.4,1.039l.229.513a.786.786,0,0,0,1.039.4Z" fill="#e9f0f7"/>
        <path id="Path_4536" data-name="Path 4536" d="M114.341,53.812l-.81.19c.12-.3.22-.61.32-.93a2.976,2.976,0,0,0,.49.74" fill="#fff"/>
        <path id="Path_4537" data-name="Path 4537" d="M114.341,53.812l-.81.19c.12-.3.22-.61.32-.93A2.976,2.976,0,0,0,114.341,53.812Z" fill="none" stroke="#869cb3" stroke-width="0.75"/>
        <path id="Path_4538" data-name="Path 4538" d="M116.141,47.092a4.879,4.879,0,0,1-1.71,2.82,4.682,4.682,0,0,1-.99.62,7.668,7.668,0,0,0,.2,1.97,2.776,2.776,0,0,0,.21.57c-.1.32-.2.63-.32.93a10.9,10.9,0,0,1-.57,1.29,5.225,5.225,0,0,1-1.74,1.89c-1.83,1.23-5.49,1.83-8.36,1.62q-.465-.03-.9-.09c-2.93-.43-6.4-1.43-8.04-4.13a5.128,5.128,0,0,1-.71-2.48c-.09-2.29,1.12-4.73,1.94-6.75.09-.23.19-.46.28-.69.22-.53.45-1.07.67-1.6-.89-.86-1.85-1.97-1.68-2.22a28.186,28.186,0,0,1,3.7-2.24c.19-.11.37-.2.54-.29V38.3a13.2,13.2,0,0,1,.82-2.56c.03-.06.05-.11.08-.17.04-.09.06-.13.06-.13v-.01a13.956,13.956,0,0,1,5.33-6.01,7.614,7.614,0,0,1,5.12,4.44c1,2.49.25,4.49-.44,6.92a6.616,6.616,0,0,0-.18.81,4.9,4.9,0,0,1,6.69,5.5" fill="#fff"/>
        <path id="Path_4539" data-name="Path 4539" d="M116.141,47.092a4.879,4.879,0,0,1-1.71,2.82,4.682,4.682,0,0,1-.99.62,7.668,7.668,0,0,0,.2,1.97,2.776,2.776,0,0,0,.21.57c-.1.32-.2.63-.32.93a10.9,10.9,0,0,1-.57,1.29,5.225,5.225,0,0,1-1.74,1.89c-1.83,1.23-5.49,1.83-8.36,1.62q-.465-.03-.9-.09c-2.93-.43-6.4-1.43-8.04-4.13a5.128,5.128,0,0,1-.71-2.48c-.09-2.29,1.12-4.73,1.94-6.75.09-.23.19-.46.28-.69.22-.53.45-1.07.67-1.6-.89-.86-1.85-1.97-1.68-2.22a28.186,28.186,0,0,1,3.7-2.24c.19-.11.37-.2.54-.29V38.3a13.2,13.2,0,0,1,.82-2.56c.03-.06.05-.11.08-.17.04-.09.06-.13.06-.13v-.01a13.956,13.956,0,0,1,5.33-6.01,7.614,7.614,0,0,1,5.12,4.44c1,2.49.25,4.49-.44,6.92a6.616,6.616,0,0,0-.18.81,4.9,4.9,0,0,1,6.69,5.5Z" fill="none" stroke="#869cb3" stroke-width="0.75"/>
        <path id="Path_4540" data-name="Path 4540" d="M99.481,35.742a13.2,13.2,0,0,0-.82,2.56v.01c-.17.09-.35.18-.54.29.62-1.34,1.12-2.37,1.36-2.86" fill="#fff"/>
        <path id="Path_4541" data-name="Path 4541" d="M99.481,35.742a13.2,13.2,0,0,0-.82,2.56v.01c-.17.09-.35.18-.54.29C98.741,37.262,99.241,36.232,99.481,35.742Z" fill="none" stroke="#869cb3" stroke-width="0.75"/>
        <path id="Path_4542" data-name="Path 4542" d="M124.961,66.277c0,6-2.295,5.53-5.895,6.33-3.26.72-7.535-.745-14.115-2.025-.4-2.79-1-4.31-1.41-7.1l-.24-1.64-.44-3V58.8c2.87.21,6.53-.39,8.36-1.62a5.225,5.225,0,0,0,1.74-1.89,10.9,10.9,0,0,0,.57-1.29l.81-.19a2.477,2.477,0,0,0,2.24.79,1.7,1.7,0,0,0,.22-.04,6.91,6.91,0,0,0,.76-.17Z" fill="#fff"/>
        <path id="Path_4543" data-name="Path 4543" d="M124.961,66.277c0,6-2.295,5.53-5.895,6.33-3.26.72-7.535-.745-14.115-2.025-.4-2.79-1-4.31-1.41-7.1l-.24-1.64-.44-3V58.8c2.87.21,6.53-.39,8.36-1.62a5.225,5.225,0,0,0,1.74-1.89,10.9,10.9,0,0,0,.57-1.29l.81-.19a2.477,2.477,0,0,0,2.24.79,1.7,1.7,0,0,0,.22-.04,6.91,6.91,0,0,0,.76-.17Z" fill="none" stroke="#869cb3" stroke-width="0.75"/>
        <path id="Path_4544" data-name="Path 4544" d="M117.561,54.392a6.91,6.91,0,0,1-.76.17c.24-.08.48-.17.71-.26Z" fill="#fff"/>
        <path id="Path_4545" data-name="Path 4545" d="M117.561,54.392a6.91,6.91,0,0,1-.76.17c.24-.08.48-.17.71-.26Z" fill="none" stroke="#869cb3" stroke-width="0.75"/>
        <path id="Path_4546" data-name="Path 4546" d="M130.291,38.122c.4,4.18.4,4.18-1.03,6.78a12.846,12.846,0,0,1-4.28,4.42l-.01.01-.01.01c-.75.51-1.53.97-2.33,1.42a13.909,13.909,0,0,1-5.12,3.54c-.23.09-.47.18-.71.26a1.7,1.7,0,0,1-.22.04,2.477,2.477,0,0,1-2.24-.79,2.976,2.976,0,0,1-.49-.74,2.776,2.776,0,0,1-.21-.57,7.668,7.668,0,0,1-.2-1.97,4.682,4.682,0,0,0,.99-.62,4.9,4.9,0,0,0-4.98-8.32,6.616,6.616,0,0,1,.18-.81c.69-2.43,1.44-4.43.44-6.92a7.614,7.614,0,0,0-5.12-4.44c.01-.01.02-.01.03-.02-1.8-.56-3.29-1.57-3.43-3.48a3.171,3.171,0,0,1,1.66-3.15c1.23-.58,2.02-1.68,3.22-1.18-.2-1.47.41-1.56,1.29-2.8a5.337,5.337,0,0,1,4.56-1.93c3.75.1,4.77-.18,8.94,2.11,4.17,3.66,4.96,4.19,6.98,6.39a11.277,11.277,0,0,1,2.09,12.76" fill="#fff"/>
        <path id="Path_4547" data-name="Path 4547" d="M130.291,38.122c.4,4.18.4,4.18-1.03,6.78a12.846,12.846,0,0,1-4.28,4.42l-.01.01-.01.01c-.75.51-1.53.97-2.33,1.42a13.909,13.909,0,0,1-5.12,3.54c-.23.09-.47.18-.71.26a1.7,1.7,0,0,1-.22.04,2.477,2.477,0,0,1-2.24-.79,2.976,2.976,0,0,1-.49-.74,2.776,2.776,0,0,1-.21-.57,7.668,7.668,0,0,1-.2-1.97,4.682,4.682,0,0,0,.99-.62,4.9,4.9,0,0,0-4.98-8.32,6.616,6.616,0,0,1,.18-.81c.69-2.43,1.44-4.43.44-6.92a7.614,7.614,0,0,0-5.12-4.44c.01-.01.02-.01.03-.02-1.8-.56-3.29-1.57-3.43-3.48a3.171,3.171,0,0,1,1.66-3.15c1.23-.58,2.02-1.68,3.22-1.18-.2-1.47.41-1.56,1.29-2.8a5.337,5.337,0,0,1,4.56-1.93c3.75.1,4.77-.18,8.94,2.11,4.17,3.66,4.96,4.19,6.98,6.39A11.277,11.277,0,0,1,130.291,38.122Z" fill="none" stroke="#869cb3" stroke-width="0.75"/>
        <path id="Path_4548" data-name="Path 4548" d="M124.961,49.342c-.23.26-3.68,3.99-7.4,5.05a6.91,6.91,0,0,1-.76.17c.24-.08.48-.17.71-.26a13.909,13.909,0,0,0,5.12-3.54c.8-.45,1.58-.91,2.33-1.42" fill="#fff"/>
        <path id="Path_4549" data-name="Path 4549" d="M124.961,49.342c-.23.26-3.68,3.99-7.4,5.05a6.91,6.91,0,0,1-.76.17c.24-.08.48-.17.71-.26a13.909,13.909,0,0,0,5.12-3.54C123.431,50.312,124.211,49.852,124.961,49.342Z" fill="none" stroke="#869cb3" stroke-width="0.75"/>
        <g id="Group_1833" data-name="Group 1833" opacity="0.5">
          <g id="Group_1832" data-name="Group 1832">
            <g id="Group_1831" data-name="Group 1831" clip-path="url(#clip-path-4)">
              <path id="Path_4550" data-name="Path 4550" d="M74.838,142.862l-1.109-.079a8.251,8.251,0,0,0-.379-1.387l.917-.631a.983.983,0,0,0,.289-1.31l-.411-.7a.985.985,0,0,0-1.287-.382l-1,.5a8.236,8.236,0,0,0-.887-.885l.492-1a.984.984,0,0,0-.386-1.285l-.7-.41a.984.984,0,0,0-1.309.294l-.628.919a8.139,8.139,0,0,0-1.362-.37L67,135.027a.984.984,0,0,0-.981-.915H65.21a.984.984,0,0,0-.981.915l-.079,1.109a8.251,8.251,0,0,0-1.387.379l-.631-.916a.984.984,0,0,0-1.31-.29l-.7.411a.984.984,0,0,0-.382,1.287l.495.995a8.234,8.234,0,0,0-.885.887l-1-.492a.984.984,0,0,0-1.285.386l-.41.7a.985.985,0,0,0,.294,1.309l.919.628a8.191,8.191,0,0,0-.37,1.362l-1.109.079a.984.984,0,0,0-.915.981v.812a.984.984,0,0,0,.915.981l1.109.079a8.225,8.225,0,0,0,.379,1.387l-.916.631a.984.984,0,0,0-.29,1.31l.412.7a.983.983,0,0,0,1.286.381l.995-.495a8.235,8.235,0,0,0,.887.885l-.492,1a.984.984,0,0,0,.386,1.285l.7.41a.984.984,0,0,0,1.309-.294l.628-.919a8.193,8.193,0,0,0,1.362.37l.079,1.109a.984.984,0,0,0,.981.915h.812a.984.984,0,0,0,.981-.915l.079-1.109a8.225,8.225,0,0,0,1.387-.379l.631.916a.983.983,0,0,0,1.31.29l.7-.411a.985.985,0,0,0,.381-1.287L71,150.5a8.234,8.234,0,0,0,.885-.887l1,.492a.986.986,0,0,0,1.286-.386l.409-.7a.984.984,0,0,0-.294-1.309l-.919-.628a8.139,8.139,0,0,0,.37-1.362l1.109-.079a.984.984,0,0,0,.915-.981v-.812a.984.984,0,0,0-.915-.981m-12.317-3.616a1.895,1.895,0,1,1-1.9,1.9,1.894,1.894,0,0,1,1.9-1.9m0,9.918a1.9,1.9,0,1,1,1.9-1.9,1.9,1.9,0,0,1-1.9,1.9m3.095-3.57a1.344,1.344,0,1,1,1.345-1.345,1.345,1.345,0,0,1-1.345,1.345m3.1,3.57a1.9,1.9,0,1,1,1.9-1.9,1.9,1.9,0,0,1-1.9,1.9m0-6.128a1.895,1.895,0,1,1,1.9-1.895,1.9,1.9,0,0,1-1.9,1.895" fill="#869cb3"/>
            </g>
          </g>
        </g>
        <g id="Group_1836" data-name="Group 1836" opacity="0.6">
          <g id="Group_1835" data-name="Group 1835">
            <g id="Group_1834" data-name="Group 1834" clip-path="url(#clip-path-5)">
              <path id="Path_4551" data-name="Path 4551" d="M40.64,142.794l2.2-3.8v6.62H33.169V136.9h.967v6.061l2.66-4.61,3.143,1.828,2.051-3.545.836.484L40.3,141.5l-3.15-1.812-2.861,4.956h1.093l2.123-3.656Z" fill="#869cb3"/>
            </g>
          </g>
        </g>
        <g id="Group_1839" data-name="Group 1839" opacity="0.6">
          <g id="Group_1838" data-name="Group 1838">
            <g id="Group_1837" data-name="Group 1837" clip-path="url(#clip-path-6)">
              <path id="Path_4552" data-name="Path 4552" d="M29.586,49.4a3.81,3.81,0,0,0-.432,1.028c-1.434.122-2.82.794-2.82,1.1v.586h2.825a3.7,3.7,0,0,0,.427,1.013H25.322v-1.6c0-1.417,2.84-2.132,4.264-2.132m0-4.795a2.131,2.131,0,0,1,2.131,2.132,2.156,2.156,0,0,1-.436,1.295,3.389,3.389,0,0,0-1.211.783l-.484.053a2.131,2.131,0,1,1,0-4.263h0m0,1.012a1.12,1.12,0,1,0,1.118,1.12,1.119,1.119,0,0,0-1.118-1.12m2.931,3.251a2.4,2.4,0,0,1,2.03,3.677l1.641,1.653-.741.741L33.785,53.3a2.4,2.4,0,1,1-1.269-4.435m0,1.066a1.333,1.333,0,1,0,1.332,1.332,1.332,1.332,0,0,0-1.332-1.332" fill="#869cb3"/>
            </g>
          </g>
        </g>
        <g id="Group_1842" data-name="Group 1842" opacity="0.6">
          <g id="Group_1841" data-name="Group 1841">
            <g id="Group_1840" data-name="Group 1840" clip-path="url(#clip-path-7)">
              <path id="Path_4553" data-name="Path 4553" d="M13.957,106.348a2.172,2.172,0,0,0-2.086-1.486,2.235,2.235,0,0,0-.2,4.466q.1,0,.2,0a2.17,2.17,0,0,0,2.086-1.485h.894v1.49h1.49v-1.49h1.49v-1.5Zm-2.086,1.5a.746.746,0,1,1,.745-.746.745.745,0,0,1-.745.746m9.686-5.961a2.98,2.98,0,1,0,2.98,2.98,2.981,2.981,0,0,0-2.98-2.98m0,4.544a1.525,1.525,0,0,1-1.566-1.483v-.081a1.565,1.565,0,0,1,3.13,0,1.524,1.524,0,0,1-1.485,1.564h-.079m0,2.162c-2.012,0-5.961.968-5.961,2.98V113.8H27.517v-2.235c0-2.012-3.949-2.98-5.96-2.98m4.544,3.8h-9.09v-.819c0-.447,2.309-1.564,4.544-1.564s4.545,1.117,4.545,1.564Z" fill="#869cb3"/>
            </g>
          </g>
        </g>
        <g id="Group_1845" data-name="Group 1845" opacity="0.6">
          <g id="Group_1844" data-name="Group 1844">
            <g id="Group_1843" data-name="Group 1843" clip-path="url(#clip-path-8)">
              <path id="Path_4554" data-name="Path 4554" d="M21.911,73.145A2.288,2.288,0,1,0,24.2,75.433a2.288,2.288,0,0,0-2.288-2.288m0,1.307a.98.98,0,1,1-.98.981.981.981,0,0,1,.98-.981m-4.249.654a1.634,1.634,0,1,0,.791,3.059,1.712,1.712,0,0,0,.594-.569,3.55,3.55,0,0,1-.732-2.164v-.183a1.554,1.554,0,0,0-.653-.144m8.5,0a1.555,1.555,0,0,0-.654.144v.183a3.543,3.543,0,0,1-.732,2.164,1.83,1.83,0,0,0,.262.321,1.527,1.527,0,0,0,.333.248,1.6,1.6,0,0,0,1.582,0,1.631,1.631,0,0,0-.79-3.059m-4.249,3.922c-1.529,0-4.575.764-4.575,2.287V82.3h9.15v-.981c0-1.523-3.05-2.287-4.575-2.287m-4.765.359c-1.261.151-3.079.791-3.079,1.928V82.3h1.961V81.035a2.071,2.071,0,0,1,1.118-1.647m9.53,0a2.069,2.069,0,0,1,1.118,1.647V82.3h1.961v-.981c0-1.137-1.818-1.777-3.079-1.928m-4.765.948a6.771,6.771,0,0,1,2.765.654H19.147a6.77,6.77,0,0,1,2.764-.654" fill="#869cb3"/>
            </g>
          </g>
        </g>
      </g>
    </g>
  </g>
</svg>
