<svg id="Group_1827" data-name="Group 1827" xmlns="http://www.w3.org/2000/svg" xmlns:xlink="http://www.w3.org/1999/xlink" width="223.34" height="165.841" viewBox="0 0 223.34 165.841">
  <defs>
    <clipPath id="clip-path">
      <rect id="Rectangle_907" data-name="Rectangle 907" width="223.34" height="165.841" fill="none"/>
    </clipPath>
  </defs>
  <g id="Group_1826" data-name="Group 1826" clip-path="url(#clip-path)">
    <path id="Path_4390" data-name="Path 4390" d="M190.455,74.791a.216.216,0,0,1-.216-.216V54.721a1.513,1.513,0,0,1,1.511-1.51h16.94a.216.216,0,1,1,0,.431H191.75a1.081,1.081,0,0,0-1.079,1.079V74.575a.216.216,0,0,1-.216.216" fill="#869cb3"/>
    <path id="Path_4391" data-name="Path 4391" d="M190.455,74.791a.216.216,0,0,1-.216-.216V54.721a1.513,1.513,0,0,1,1.511-1.51h16.94a.216.216,0,1,1,0,.431H191.75a1.081,1.081,0,0,0-1.079,1.079V74.575A.216.216,0,0,1,190.455,74.791Z" fill="none" stroke="#869cb3" stroke-width="0.25"/>
    <path id="Path_4392" data-name="Path 4392" d="M213.006,100.58a.216.216,0,0,1-.216-.216V17.049a1.08,1.08,0,0,0-1.079-1.079h-9.493a.216.216,0,1,1,0-.432h9.493a1.513,1.513,0,0,1,1.511,1.511v83.315a.216.216,0,0,1-.216.216" fill="#869cb3"/>
    <path id="Path_4393" data-name="Path 4393" d="M213.006,100.58a.216.216,0,0,1-.216-.216V17.049a1.08,1.08,0,0,0-1.079-1.079h-9.493a.216.216,0,1,1,0-.432h9.493a1.513,1.513,0,0,1,1.511,1.511v83.315A.216.216,0,0,1,213.006,100.58Z" fill="none" stroke="#869cb3" stroke-width="0.25"/>
    <path id="Path_4394" data-name="Path 4394" d="M28.388,70.434a.208.208,0,0,1-.216-.2V47.1a.217.217,0,0,1,.432,0V70.235a.208.208,0,0,1-.216.2" fill="#869cb3"/>
    <path id="Path_4395" data-name="Path 4395" d="M28.388,70.434a.208.208,0,0,1-.216-.2V47.1a.217.217,0,0,1,.432,0V70.235A.208.208,0,0,1,28.388,70.434Z" fill="none" stroke="#869cb3" stroke-width="0.25"/>
    <path id="Path_4396" data-name="Path 4396" d="M28.388,35.192a.216.216,0,0,1-.216-.216v-15.8a1.513,1.513,0,0,1,1.511-1.511H49.86a.216.216,0,0,1,0,.432H29.683A1.08,1.08,0,0,0,28.6,19.178v15.8a.216.216,0,0,1-.216.216" fill="#869cb3"/>
    <path id="Path_4397" data-name="Path 4397" d="M28.388,35.192a.216.216,0,0,1-.216-.216v-15.8a1.513,1.513,0,0,1,1.511-1.511H49.86a.216.216,0,0,1,0,.432H29.683A1.08,1.08,0,0,0,28.6,19.178v15.8A.216.216,0,0,1,28.388,35.192Z" fill="none" stroke="#869cb3" stroke-width="0.25"/>
    <path id="Path_4398" data-name="Path 4398" d="M148.055,69.272a65.061,65.061,0,0,0-1.715-7.083c-1.582-5.826-6-11.226-9.1-10.064-.277.1-3.29,10.965-3.29,11.613s9.039,7.775,9.255,7.919,4.847-2.385,4.847-2.385" fill="#fff"/>
    <path id="Path_4399" data-name="Path 4399" d="M148.055,69.272a65.061,65.061,0,0,0-1.715-7.083c-1.582-5.826-6-11.226-9.1-10.064-.277.1-3.29,10.965-3.29,11.613s9.039,7.775,9.255,7.919S148.055,69.272,148.055,69.272Z" fill="none" stroke="#869cb3" stroke-width="0.75"/>
    <path id="Path_4400" data-name="Path 4400" d="M72.54,64.655s-.957-3.883,2.078-9.308,8.936-7.785,9.583-7.137,2.084,13.581,2.084,13.581-.648,1.4-1.3,1.727-12.45,1.137-12.45,1.137" fill="#fff"/>
    <path id="Path_4401" data-name="Path 4401" d="M72.54,64.655s-.957-3.883,2.078-9.308,8.936-7.785,9.583-7.137,2.084,13.581,2.084,13.581-.648,1.4-1.3,1.727S72.54,64.655,72.54,64.655Z" fill="none" stroke="#869cb3" stroke-width="0.75"/>
    <path id="Path_4402" data-name="Path 4402" d="M86.9,165.827s.863-22.445,2.016-30.792a25.645,25.645,0,0,1,2.84-8.731c.1-.182.189-.359.289-.527a18.6,18.6,0,0,1,2.611-3.6l.013-.013,10.574-6.785,1.368-.876,1.416.251,27.61,4.929a21.407,21.407,0,0,1,2.779,4.182,17.724,17.724,0,0,1,1.645,4.557c.435,2.15.9,5.788,1.329,9.716v0c.026.212.047.419.073.63v0c.851,7.907,1.545,27.054,1.545,27.054" fill="#fff"/>
    <path id="Path_4403" data-name="Path 4403" d="M86.9,165.827s.863-22.445,2.016-30.792a25.645,25.645,0,0,1,2.84-8.731c.1-.182.189-.359.289-.527a18.6,18.6,0,0,1,2.611-3.6l.013-.013,10.574-6.785,1.368-.876,1.416.251,27.61,4.929a21.407,21.407,0,0,1,2.779,4.182,17.724,17.724,0,0,1,1.645,4.557c.435,2.15.9,5.788,1.329,9.716v0c.026.212.047.419.073.63v0c.851,7.907,1.545,27.054,1.545,27.054" fill="none" stroke="#869cb3" stroke-width="0.75"/>
    <path id="Path_4404" data-name="Path 4404" d="M92.626,140.933l-.054-.428c.036-.005,3.709-.528,7.911-5.359a19.378,19.378,0,0,0,4.695-9.979l.43.036a19.842,19.842,0,0,1-4.8,10.226c-4.32,4.969-8.027,5.484-8.182,5.5" fill="#869cb3"/>
    <path id="Path_4405" data-name="Path 4405" d="M117.5,148.263l-.113-.416.057.208-.058-.208c.041-.012,4.191-1.327,3.572-12.512-.634-11.454-.235-12.83-.218-12.883l.41.134c-.014.052-.38,1.536.239,12.725.641,11.587-3.7,12.9-3.889,12.952" fill="#869cb3"/>
    <path id="Path_4406" data-name="Path 4406" d="M117.807,155.467h-.432l-.617-31.071.432-.009.462,23.337.008.483Z" fill="#869cb3"/>
    <path id="Path_4407" data-name="Path 4407" d="M138.421,123.86l-15.952.837-9.366.488L91.76,126.3c.1-.181.19-.358.29-.527a18.55,18.55,0,0,1,2.611-3.6l.013-.013,10.574-6.784c1.083-.246,2.037-.458,2.784-.626l27.61,4.929a21.406,21.406,0,0,1,2.779,4.182" fill="#fff"/>
    <path id="Path_4408" data-name="Path 4408" d="M138.421,123.86l-15.952.837-9.366.488L91.76,126.3c.1-.181.19-.358.29-.527a18.55,18.55,0,0,1,2.611-3.6l.013-.013,10.574-6.784c1.083-.246,2.037-.458,2.784-.626l27.61,4.929A21.406,21.406,0,0,1,138.421,123.86Z" fill="none" stroke="#869cb3" stroke-width="0.426"/>
    <path id="Path_4409" data-name="Path 4409" d="M118.266,51.531v.012c-.082,1.06-.215,2.561-.338,4.1-.246,2.978-.491,6.052-.491,6.124,0,.119-4.239,2.906-4.239,2.906l-8.508-3.943,3.02-12.211.041-.179a8.149,8.149,0,0,1,1.024.37c1.853,1.441,6.163,3.431,9.491,2.823" fill="#fff"/>
    <path id="Path_4410" data-name="Path 4410" d="M118.266,51.531v.012c-.082,1.06-.215,2.561-.338,4.1-.246,2.978-.491,6.052-.491,6.124,0,.119-4.239,2.906-4.239,2.906l-8.508-3.943,3.02-12.211.041-.179a8.149,8.149,0,0,1,1.024.37C110.628,50.149,114.938,52.139,118.266,51.531Z" fill="none" stroke="#869cb3" stroke-width="0.828"/>
    <path id="Path_4411" data-name="Path 4411" d="M121.882,35.283c-.214-.417-.393-.762-.524-1.036-.072-.131-.131-.251-.179-.346a3.092,3.092,0,0,1,.2.334c.19.345.345.691.5,1.048" fill="#fff"/>
    <path id="Path_4412" data-name="Path 4412" d="M121.882,35.283c-.214-.417-.393-.762-.524-1.036-.072-.131-.131-.251-.179-.346a3.092,3.092,0,0,1,.2.334C121.572,34.58,121.727,34.926,121.882,35.283Z" fill="none" stroke="#869cb3" stroke-width="0.507"/>
    <path id="Path_4413" data-name="Path 4413" d="M121.858,52.438a6.384,6.384,0,0,1-1.728.476c-3.871.608-9.061-1.114-11.217-2.556a10.211,10.211,0,0,0-1.018-.636s-.143-.906-.238-2.085a5.208,5.208,0,0,1-2.68-2.728c-1.025-2.228-.56-4.635,1.048-5.373a2.668,2.668,0,0,1,2.1,0c-.107-.417-.239-.846-.393-1.323A17.164,17.164,0,0,0,106,34.6a65.749,65.749,0,0,1,6.85-3.813,14.092,14.092,0,0,1,4.242-.905c.1.06.19.107.286.179a10.577,10.577,0,0,1,2.954,2.585,11.3,11.3,0,0,1,.739,1.06.011.011,0,0,1,.011.012c.024.036.048.1.1.179s.107.214.178.345c.132.274.31.62.525,1.037a57.706,57.706,0,0,1,3.895,9.4c.775,3.062.036,6.017-3.919,7.756" fill="#fff"/>
    <path id="Path_4414" data-name="Path 4414" d="M121.858,52.438a6.384,6.384,0,0,1-1.728.476c-3.871.608-9.061-1.114-11.217-2.556a10.211,10.211,0,0,0-1.018-.636s-.143-.906-.238-2.085a5.208,5.208,0,0,1-2.68-2.728c-1.025-2.228-.56-4.635,1.048-5.373a2.668,2.668,0,0,1,2.1,0c-.107-.417-.239-.846-.393-1.323A17.164,17.164,0,0,0,106,34.6a65.749,65.749,0,0,1,6.85-3.813,14.092,14.092,0,0,1,4.242-.905c.1.06.19.107.286.179a10.577,10.577,0,0,1,2.954,2.585,11.3,11.3,0,0,1,.739,1.06.011.011,0,0,1,.011.012c.024.036.048.1.1.179s.107.214.178.345c.132.274.31.62.525,1.037a57.706,57.706,0,0,1,3.895,9.4C126.552,47.744,125.813,50.7,121.858,52.438Z" fill="none" stroke="#869cb3" stroke-width="0.894"/>
    <path id="Path_4415" data-name="Path 4415" d="M117.379,30.065c-.1-.071-.191-.119-.286-.179a14.085,14.085,0,0,0-4.241.906A65.612,65.612,0,0,0,106,34.6a17.21,17.21,0,0,1,1.727,3.61c.155.476.286.9.393,1.322a2.666,2.666,0,0,0-2.1,0c-1.609.739-2.073,3.145-1.049,5.373a5.21,5.21,0,0,0,2.681,2.728c.1,1.18.238,2.085.238,2.085l-.048.179c-1.417-.393-7.922-2.252-8.268-4.146a2.956,2.956,0,0,1-2.633-2.168c-.178-.8.62-1.835.012-2.371-.524-.465-1.131-.62-1.536-1.287a4.109,4.109,0,0,1,.381-4.634,7.509,7.509,0,0,1,3.1-2.311,3.241,3.241,0,0,1,.787-3.741c1.429-1.358,3.454-1.453,5.325-1.287,1.3-2.8,6.3-2.037,8.637-.965,1.346.632,3.074,1.656,3.729,3.074" fill="#fff"/>
    <path id="Path_4416" data-name="Path 4416" d="M117.379,30.065c-.1-.071-.191-.119-.286-.179a14.085,14.085,0,0,0-4.241.906A65.612,65.612,0,0,0,106,34.6a17.21,17.21,0,0,1,1.727,3.61c.155.476.286.9.393,1.322a2.666,2.666,0,0,0-2.1,0c-1.609.739-2.073,3.145-1.049,5.373a5.21,5.21,0,0,0,2.681,2.728c.1,1.18.238,2.085.238,2.085l-.048.179c-1.417-.393-7.922-2.252-8.268-4.146a2.956,2.956,0,0,1-2.633-2.168c-.178-.8.62-1.835.012-2.371-.524-.465-1.131-.62-1.536-1.287a4.109,4.109,0,0,1,.381-4.634,7.509,7.509,0,0,1,3.1-2.311,3.241,3.241,0,0,1,.787-3.741c1.429-1.358,3.454-1.453,5.325-1.287,1.3-2.8,6.3-2.037,8.637-.965C115,27.623,116.724,28.647,117.379,30.065Z" fill="none" stroke="#869cb3" stroke-width="0.894"/>
    <path id="Path_4417" data-name="Path 4417" d="M105.924,57.3l6.508,3.87,4.672-1.792,3.8,3.195-7.651,8.023-12.122-7.618Z" fill="#fff"/>
    <path id="Path_4418" data-name="Path 4418" d="M105.924,57.3l6.508,3.87,4.672-1.792,3.8,3.195-7.651,8.023-12.122-7.618Z" fill="none" stroke="#869cb3" stroke-width="0.75"/>
    <path id="Path_4419" data-name="Path 4419" d="M95.1,126.342a105.968,105.968,0,0,0-2.259,14.109h-.005l-.039.453c-.026.255-.047.514-.069.769-.379,4.475-.69,9.788-.9,13.794H91.4c.211-4.01.522-9.345.9-13.833a116.79,116.79,0,0,1,2.376-15.37Z" fill="#869cb3"/>
    <path id="Path_4420" data-name="Path 4420" d="M141.468,138.768a18.911,18.911,0,0,1-4.687-5.719,24.646,24.646,0,0,1-2.571-8.636l.427-.052a24.315,24.315,0,0,0,2.528,8.494,18.149,18.149,0,0,0,4.23,5.279v0c.026.211.047.419.073.63" fill="#869cb3"/>
    <path id="Path_4421" data-name="Path 4421" d="M65.693,45.346a.216.216,0,0,1-.141-.38l4.93-4.232a.216.216,0,1,1,.282.328l-4.93,4.232a.216.216,0,0,1-.141.052" fill="#869cb3"/>
    <path id="Path_4450" data-name="Path 4450" d="M59.182,18.14l-4.514,4.514a.415.415,0,0,1-.587,0L49.567,18.14a.414.414,0,0,1,0-.586l4.514-4.515a.417.417,0,0,1,.587,0l4.514,4.515a.414.414,0,0,1,0,.586" fill="#e9f0f7"/>
    <path id="Path_4451" data-name="Path 4451" d="M119.844,5.222,115.33,9.736a.415.415,0,0,1-.587,0l-4.514-4.514a.414.414,0,0,1,0-.586L114.743.121a.417.417,0,0,1,.587,0l4.514,4.515a.414.414,0,0,1,0,.586" fill="#869cb3"/>
    <path id="Path_4452" data-name="Path 4452" d="M217.814,53.72,213.3,58.234a.415.415,0,0,1-.587,0L208.2,53.72a.412.412,0,0,1,0-.586l4.513-4.515a.417.417,0,0,1,.587,0l4.515,4.515a.416.416,0,0,1,0,.586" fill="#e9f0f7"/>
    <path id="Path_4453" data-name="Path 4453" d="M31.44,32.868,28.388,35.92l-3.052-3.052Z" fill="#869cb3"/>
    <path id="Path_4454" data-name="Path 4454" d="M193.507,73.71l-3.052,3.052L187.4,73.71Z" fill="#869cb3"/>
    <path id="Path_4455" data-name="Path 4455" d="M42.176,100.277l-3.052,3.052-3.052-3.052Z" fill="#869cb3"/>
    <path id="Path_4456" data-name="Path 4456" d="M201.46,22.33H172.614a.647.647,0,0,1-.647-.647V12.269a.648.648,0,0,1,.647-.648H201.46a.648.648,0,0,1,.647.648v9.414a.647.647,0,0,1-.647.647M172.614,12.053a.216.216,0,0,0-.216.216v9.414a.216.216,0,0,0,.216.216H201.46a.216.216,0,0,0,.216-.216V12.269a.216.216,0,0,0-.216-.216Z" fill="#fff"/>
    <path id="Path_4457" data-name="Path 4457" d="M201.46,22.33H172.614a.647.647,0,0,1-.647-.647V12.269a.648.648,0,0,1,.647-.648H201.46a.648.648,0,0,1,.647.648v9.414A.647.647,0,0,1,201.46,22.33ZM172.614,12.053a.216.216,0,0,0-.216.216v9.414a.216.216,0,0,0,.216.216H201.46a.216.216,0,0,0,.216-.216V12.269a.216.216,0,0,0-.216-.216Z" fill="none" stroke="#869cb3" stroke-width="0.426"/>
    <path id="Path_4458" data-name="Path 4458" d="M204.9,87.039H176.016a.415.415,0,0,1-.415-.415V77.176a.415.415,0,0,1,.415-.415H204.9a.415.415,0,0,1,.415.415v9.448a.415.415,0,0,1-.415.415" fill="#e9f0f7"/>
    <path id="Path_4459" data-name="Path 4459" d="M43.026,46.9H14.181a.647.647,0,0,1-.647-.647V36.84a.648.648,0,0,1,.647-.648H43.026a.649.649,0,0,1,.648.648v9.414a.648.648,0,0,1-.648.647M14.181,36.624a.216.216,0,0,0-.216.216v9.414a.216.216,0,0,0,.216.216H43.026a.216.216,0,0,0,.216-.216V36.84a.216.216,0,0,0-.216-.216Z" fill="#fff"/>
    <path id="Path_4460" data-name="Path 4460" d="M43.026,46.9H14.181a.647.647,0,0,1-.647-.647V36.84a.648.648,0,0,1,.647-.648H43.026a.649.649,0,0,1,.648.648v9.414A.648.648,0,0,1,43.026,46.9ZM14.181,36.624a.216.216,0,0,0-.216.216v9.414a.216.216,0,0,0,.216.216H43.026a.216.216,0,0,0,.216-.216V36.84a.216.216,0,0,0-.216-.216Z" fill="none" stroke="#869cb3" stroke-width="0.426"/>
    <path id="Path_4461" data-name="Path 4461" d="M39.124,102.018a.216.216,0,0,1-.216-.216V71.512a1.08,1.08,0,0,0-1.079-1.079H16.482a.216.216,0,0,1,0-.431H37.829a1.512,1.512,0,0,1,1.511,1.51V101.8a.216.216,0,0,1-.216.216" fill="#869cb3"/>
    <path id="Path_4462" data-name="Path 4462" d="M39.124,102.018a.216.216,0,0,1-.216-.216V71.512a1.08,1.08,0,0,0-1.079-1.079H16.482a.216.216,0,0,1,0-.431H37.829a1.512,1.512,0,0,1,1.511,1.51V101.8A.216.216,0,0,1,39.124,102.018Z" fill="none" stroke="#869cb3" stroke-width="0.25"/>
    <path id="Path_4463" data-name="Path 4463" d="M18.66,70.511,9.684,79.487a.415.415,0,0,1-.587,0L.121,70.511a.414.414,0,0,1,0-.586L9.1,60.948a.415.415,0,0,1,.587,0l8.976,8.977a.414.414,0,0,1,0,.586" fill="#e9f0f7"/>
    <path id="Path_4473" data-name="Path 4473" d="M49.029,113.234a9.905,9.905,0,1,1-9.906-9.906,9.906,9.906,0,0,1,9.906,9.906" fill="#869cb3"/>
    <path id="Path_4474" data-name="Path 4474" d="M223.128,110.718a9.906,9.906,0,1,1-9.906-9.906,9.906,9.906,0,0,1,9.906,9.906" fill="#fff"/>
    <path id="Path_4475" data-name="Path 4475" d="M223.128,110.718a9.906,9.906,0,1,1-9.906-9.906A9.906,9.906,0,0,1,223.128,110.718Z" fill="none" stroke="#869cb3" stroke-width="0.426"/>
  </g>
</svg>
