<svg id="Group_1827" data-name="Group 1827" xmlns="http://www.w3.org/2000/svg" xmlns:xlink="http://www.w3.org/1999/xlink" width="223.34" height="165.841" viewBox="0 0 223.34 165.841">
  <defs>
    <clipPath id="clip-path">
      <rect id="Rectangle_907" data-name="Rectangle 907" width="223.34" height="165.841" fill="none"/>
    </clipPath>
  </defs>
  <g id="Group_1826" data-name="Group 1826" clip-path="url(#clip-path)">
    <path id="Path_4390" data-name="Path 4390" d="M190.455,74.791a.216.216,0,0,1-.216-.216V54.721a1.513,1.513,0,0,1,1.511-1.51h16.94a.216.216,0,1,1,0,.431H191.75a1.081,1.081,0,0,0-1.079,1.079V74.575a.216.216,0,0,1-.216.216" fill="#869cb3"/>
    <path id="Path_4391" data-name="Path 4391" d="M190.455,74.791a.216.216,0,0,1-.216-.216V54.721a1.513,1.513,0,0,1,1.511-1.51h16.94a.216.216,0,1,1,0,.431H191.75a1.081,1.081,0,0,0-1.079,1.079V74.575A.216.216,0,0,1,190.455,74.791Z" fill="none" stroke="#869cb3" stroke-width="0.25"/>
    <path id="Path_4392" data-name="Path 4392" d="M213.006,100.58a.216.216,0,0,1-.216-.216V17.049a1.08,1.08,0,0,0-1.079-1.079h-9.493a.216.216,0,1,1,0-.432h9.493a1.513,1.513,0,0,1,1.511,1.511v83.315a.216.216,0,0,1-.216.216" fill="#869cb3"/>
    <path id="Path_4393" data-name="Path 4393" d="M213.006,100.58a.216.216,0,0,1-.216-.216V17.049a1.08,1.08,0,0,0-1.079-1.079h-9.493a.216.216,0,1,1,0-.432h9.493a1.513,1.513,0,0,1,1.511,1.511v83.315A.216.216,0,0,1,213.006,100.58Z" fill="none" stroke="#869cb3" stroke-width="0.25"/>
    <path id="Path_4394" data-name="Path 4394" d="M28.388,70.434a.208.208,0,0,1-.216-.2V47.1a.217.217,0,0,1,.432,0V70.235a.208.208,0,0,1-.216.2" fill="#869cb3"/>
    <path id="Path_4395" data-name="Path 4395" d="M28.388,70.434a.208.208,0,0,1-.216-.2V47.1a.217.217,0,0,1,.432,0V70.235A.208.208,0,0,1,28.388,70.434Z" fill="none" stroke="#869cb3" stroke-width="0.25"/>
    <path id="Path_4396" data-name="Path 4396" d="M28.388,35.192a.216.216,0,0,1-.216-.216v-15.8a1.513,1.513,0,0,1,1.511-1.511H49.86a.216.216,0,0,1,0,.432H29.683A1.08,1.08,0,0,0,28.6,19.178v15.8a.216.216,0,0,1-.216.216" fill="#869cb3"/>
    <path id="Path_4397" data-name="Path 4397" d="M28.388,35.192a.216.216,0,0,1-.216-.216v-15.8a1.513,1.513,0,0,1,1.511-1.511H49.86a.216.216,0,0,1,0,.432H29.683A1.08,1.08,0,0,0,28.6,19.178v15.8A.216.216,0,0,1,28.388,35.192Z" fill="none" stroke="#869cb3" stroke-width="0.25"/>
    <path id="Path_4398" data-name="Path 4398" d="M148.055,69.272a65.061,65.061,0,0,0-1.715-7.083c-1.582-5.826-6-11.226-9.1-10.064-.277.1-3.29,10.965-3.29,11.613s9.039,7.775,9.255,7.919,4.847-2.385,4.847-2.385" fill="#fff"/>
    <path id="Path_4399" data-name="Path 4399" d="M148.055,69.272a65.061,65.061,0,0,0-1.715-7.083c-1.582-5.826-6-11.226-9.1-10.064-.277.1-3.29,10.965-3.29,11.613s9.039,7.775,9.255,7.919S148.055,69.272,148.055,69.272Z" fill="none" stroke="#869cb3" stroke-width="0.75"/>
    <path id="Path_4400" data-name="Path 4400" d="M72.54,64.655s-.957-3.883,2.078-9.308,8.936-7.785,9.583-7.137,2.084,13.581,2.084,13.581-.648,1.4-1.3,1.727-12.45,1.137-12.45,1.137" fill="#fff"/>
    <path id="Path_4401" data-name="Path 4401" d="M72.54,64.655s-.957-3.883,2.078-9.308,8.936-7.785,9.583-7.137,2.084,13.581,2.084,13.581-.648,1.4-1.3,1.727S72.54,64.655,72.54,64.655Z" fill="none" stroke="#869cb3" stroke-width="0.75"/>
    <path id="Path_4402" data-name="Path 4402" d="M86.9,165.827s.863-22.445,2.016-30.792a25.645,25.645,0,0,1,2.84-8.731c.1-.182.189-.359.289-.527a18.6,18.6,0,0,1,2.611-3.6l.013-.013,10.574-6.785,1.368-.876,1.416.251,27.61,4.929a21.407,21.407,0,0,1,2.779,4.182,17.724,17.724,0,0,1,1.645,4.557c.435,2.15.9,5.788,1.329,9.716v0c.026.212.047.419.073.63v0c.851,7.907,1.545,27.054,1.545,27.054" fill="#fff"/>
    <path id="Path_4403" data-name="Path 4403" d="M86.9,165.827s.863-22.445,2.016-30.792a25.645,25.645,0,0,1,2.84-8.731c.1-.182.189-.359.289-.527a18.6,18.6,0,0,1,2.611-3.6l.013-.013,10.574-6.785,1.368-.876,1.416.251,27.61,4.929a21.407,21.407,0,0,1,2.779,4.182,17.724,17.724,0,0,1,1.645,4.557c.435,2.15.9,5.788,1.329,9.716v0c.026.212.047.419.073.63v0c.851,7.907,1.545,27.054,1.545,27.054" fill="none" stroke="#869cb3" stroke-width="0.75"/>
    <path id="Path_4404" data-name="Path 4404" d="M92.626,140.933l-.054-.428c.036-.005,3.709-.528,7.911-5.359a19.378,19.378,0,0,0,4.695-9.979l.43.036a19.842,19.842,0,0,1-4.8,10.226c-4.32,4.969-8.027,5.484-8.182,5.5" fill="#869cb3"/>
    <path id="Path_4405" data-name="Path 4405" d="M117.5,148.263l-.113-.416.057.208-.058-.208c.041-.012,4.191-1.327,3.572-12.512-.634-11.454-.235-12.83-.218-12.883l.41.134c-.014.052-.38,1.536.239,12.725.641,11.587-3.7,12.9-3.889,12.952" fill="#869cb3"/>
    <path id="Path_4406" data-name="Path 4406" d="M117.807,155.467h-.432l-.617-31.071.432-.009.462,23.337.008.483Z" fill="#869cb3"/>
    <path id="Path_4407" data-name="Path 4407" d="M138.421,123.86l-15.952.837-9.366.488L91.76,126.3c.1-.181.19-.358.29-.527a18.55,18.55,0,0,1,2.611-3.6l.013-.013,10.574-6.784c1.083-.246,2.037-.458,2.784-.626l27.61,4.929a21.406,21.406,0,0,1,2.779,4.182" fill="#fff"/>
    <path id="Path_4408" data-name="Path 4408" d="M138.421,123.86l-15.952.837-9.366.488L91.76,126.3c.1-.181.19-.358.29-.527a18.55,18.55,0,0,1,2.611-3.6l.013-.013,10.574-6.784c1.083-.246,2.037-.458,2.784-.626l27.61,4.929A21.406,21.406,0,0,1,138.421,123.86Z" fill="none" stroke="#869cb3" stroke-width="0.426"/>
    <path id="Path_4409" data-name="Path 4409" d="M118.266,51.531v.012c-.082,1.06-.215,2.561-.338,4.1-.246,2.978-.491,6.052-.491,6.124,0,.119-4.239,2.906-4.239,2.906l-8.508-3.943,3.02-12.211.041-.179a8.149,8.149,0,0,1,1.024.37c1.853,1.441,6.163,3.431,9.491,2.823" fill="#fff"/>
    <path id="Path_4410" data-name="Path 4410" d="M118.266,51.531v.012c-.082,1.06-.215,2.561-.338,4.1-.246,2.978-.491,6.052-.491,6.124,0,.119-4.239,2.906-4.239,2.906l-8.508-3.943,3.02-12.211.041-.179a8.149,8.149,0,0,1,1.024.37C110.628,50.149,114.938,52.139,118.266,51.531Z" fill="none" stroke="#869cb3" stroke-width="0.828"/>
    <path id="Path_4411" data-name="Path 4411" d="M121.882,35.283c-.214-.417-.393-.762-.524-1.036-.072-.131-.131-.251-.179-.346a3.092,3.092,0,0,1,.2.334c.19.345.345.691.5,1.048" fill="#fff"/>
    <path id="Path_4412" data-name="Path 4412" d="M121.882,35.283c-.214-.417-.393-.762-.524-1.036-.072-.131-.131-.251-.179-.346a3.092,3.092,0,0,1,.2.334C121.572,34.58,121.727,34.926,121.882,35.283Z" fill="none" stroke="#869cb3" stroke-width="0.507"/>
    <path id="Path_4413" data-name="Path 4413" d="M121.858,52.438a6.384,6.384,0,0,1-1.728.476c-3.871.608-9.061-1.114-11.217-2.556a10.211,10.211,0,0,0-1.018-.636s-.143-.906-.238-2.085a5.208,5.208,0,0,1-2.68-2.728c-1.025-2.228-.56-4.635,1.048-5.373a2.668,2.668,0,0,1,2.1,0c-.107-.417-.239-.846-.393-1.323A17.164,17.164,0,0,0,106,34.6a65.749,65.749,0,0,1,6.85-3.813,14.092,14.092,0,0,1,4.242-.905c.1.06.19.107.286.179a10.577,10.577,0,0,1,2.954,2.585,11.3,11.3,0,0,1,.739,1.06.011.011,0,0,1,.011.012c.024.036.048.1.1.179s.107.214.178.345c.132.274.31.62.525,1.037a57.706,57.706,0,0,1,3.895,9.4c.775,3.062.036,6.017-3.919,7.756" fill="#fff"/>
    <path id="Path_4414" data-name="Path 4414" d="M121.858,52.438a6.384,6.384,0,0,1-1.728.476c-3.871.608-9.061-1.114-11.217-2.556a10.211,10.211,0,0,0-1.018-.636s-.143-.906-.238-2.085a5.208,5.208,0,0,1-2.68-2.728c-1.025-2.228-.56-4.635,1.048-5.373a2.668,2.668,0,0,1,2.1,0c-.107-.417-.239-.846-.393-1.323A17.164,17.164,0,0,0,106,34.6a65.749,65.749,0,0,1,6.85-3.813,14.092,14.092,0,0,1,4.242-.905c.1.06.19.107.286.179a10.577,10.577,0,0,1,2.954,2.585,11.3,11.3,0,0,1,.739,1.06.011.011,0,0,1,.011.012c.024.036.048.1.1.179s.107.214.178.345c.132.274.31.62.525,1.037a57.706,57.706,0,0,1,3.895,9.4C126.552,47.744,125.813,50.7,121.858,52.438Z" fill="none" stroke="#869cb3" stroke-width="0.894"/>
    <path id="Path_4415" data-name="Path 4415" d="M117.379,30.065c-.1-.071-.191-.119-.286-.179a14.085,14.085,0,0,0-4.241.906A65.612,65.612,0,0,0,106,34.6a17.21,17.21,0,0,1,1.727,3.61c.155.476.286.9.393,1.322a2.666,2.666,0,0,0-2.1,0c-1.609.739-2.073,3.145-1.049,5.373a5.21,5.21,0,0,0,2.681,2.728c.1,1.18.238,2.085.238,2.085l-.048.179c-1.417-.393-7.922-2.252-8.268-4.146a2.956,2.956,0,0,1-2.633-2.168c-.178-.8.62-1.835.012-2.371-.524-.465-1.131-.62-1.536-1.287a4.109,4.109,0,0,1,.381-4.634,7.509,7.509,0,0,1,3.1-2.311,3.241,3.241,0,0,1,.787-3.741c1.429-1.358,3.454-1.453,5.325-1.287,1.3-2.8,6.3-2.037,8.637-.965,1.346.632,3.074,1.656,3.729,3.074" fill="#fff"/>
    <path id="Path_4416" data-name="Path 4416" d="M117.379,30.065c-.1-.071-.191-.119-.286-.179a14.085,14.085,0,0,0-4.241.906A65.612,65.612,0,0,0,106,34.6a17.21,17.21,0,0,1,1.727,3.61c.155.476.286.9.393,1.322a2.666,2.666,0,0,0-2.1,0c-1.609.739-2.073,3.145-1.049,5.373a5.21,5.21,0,0,0,2.681,2.728c.1,1.18.238,2.085.238,2.085l-.048.179c-1.417-.393-7.922-2.252-8.268-4.146a2.956,2.956,0,0,1-2.633-2.168c-.178-.8.62-1.835.012-2.371-.524-.465-1.131-.62-1.536-1.287a4.109,4.109,0,0,1,.381-4.634,7.509,7.509,0,0,1,3.1-2.311,3.241,3.241,0,0,1,.787-3.741c1.429-1.358,3.454-1.453,5.325-1.287,1.3-2.8,6.3-2.037,8.637-.965C115,27.623,116.724,28.647,117.379,30.065Z" fill="none" stroke="#869cb3" stroke-width="0.894"/>
    <path id="Path_4417" data-name="Path 4417" d="M105.924,57.3l6.508,3.87,4.672-1.792,3.8,3.195-7.651,8.023-12.122-7.618Z" fill="#fff"/>
    <path id="Path_4418" data-name="Path 4418" d="M105.924,57.3l6.508,3.87,4.672-1.792,3.8,3.195-7.651,8.023-12.122-7.618Z" fill="none" stroke="#869cb3" stroke-width="0.75"/>
    <path id="Path_4419" data-name="Path 4419" d="M95.1,126.342a105.968,105.968,0,0,0-2.259,14.109h-.005l-.039.453c-.026.255-.047.514-.069.769-.379,4.475-.69,9.788-.9,13.794H91.4c.211-4.01.522-9.345.9-13.833a116.79,116.79,0,0,1,2.376-15.37Z" fill="#869cb3"/>
    <path id="Path_4420" data-name="Path 4420" d="M141.468,138.768a18.911,18.911,0,0,1-4.687-5.719,24.646,24.646,0,0,1-2.571-8.636l.427-.052a24.315,24.315,0,0,0,2.528,8.494,18.149,18.149,0,0,0,4.23,5.279v0c.026.211.047.419.073.63" fill="#869cb3"/>
    <path id="Path_4421" data-name="Path 4421" d="M65.693,45.346a.216.216,0,0,1-.141-.38l4.93-4.232a.216.216,0,1,1,.282.328l-4.93,4.232a.216.216,0,0,1-.141.052" fill="#869cb3"/>
    <path id="Path_4422" data-name="Path 4422" d="M109.435,5.418c-1.157,1.021-1.293,3.881-2.008,4.732s-1.532.851-2.009.1l-.05-.082a4.813,4.813,0,0,1-.359-1.943c-.007-.235,0-.469.006-.706a11.278,11.278,0,0,1,.569-3.268c.159-.475.316-.9.9-.793a2.684,2.684,0,0,1,1.2.639c.571.5,1.247,1.077,2.064.843,1.61-.461-.017-2.579-.629-3.223-.81-.855-2.7-.525-4.747-.336a.975.975,0,0,0-.416.13c-1.248.773-1.368,2.191-1.705,3.252A2.594,2.594,0,0,0,99.835,3.6c-1.294.306-1.208,1.259-1.208,1.259a1.93,1.93,0,0,0-1.413.318,2.247,2.247,0,0,0-.664,1.367,1.951,1.951,0,0,0-1.821,1.243,8.382,8.382,0,0,0,0,3.691s.493,1.546.932,2.938c0,0-28.843,20.124-29.015,20.271-2.508,2.15-4.663,5.432-3.673,10.032,1.44,6.69,10.695,17.264,15.535,21.854S92.7,68.118,92.7,68.118L89.347,59.6V54.183l-14.1-11.527c13.077-5.464,22.36-19.947,25.715-24.086,3.3-1.3,6.26-1.875,7.484-5.42.355-1.028,1.813-2.481,2.014-3.545.164-.865.335-1.731.543-2.587.306-1.26-.409-2.621-1.566-1.6" fill="#fff"/>
    <path id="Path_4423" data-name="Path 4423" d="M109.435,5.418c-1.157,1.021-1.293,3.881-2.008,4.732s-1.532.851-2.009.1l-.05-.082a4.813,4.813,0,0,1-.359-1.943c-.007-.235,0-.469.006-.706a11.278,11.278,0,0,1,.569-3.268c.159-.475.316-.9.9-.793a2.684,2.684,0,0,1,1.2.639c.571.5,1.247,1.077,2.064.843,1.61-.461-.017-2.579-.629-3.223-.81-.855-2.7-.525-4.747-.336a.975.975,0,0,0-.416.13c-1.248.773-1.368,2.191-1.705,3.252A2.594,2.594,0,0,0,99.835,3.6c-1.294.306-1.208,1.259-1.208,1.259a1.93,1.93,0,0,0-1.413.318,2.247,2.247,0,0,0-.664,1.367,1.951,1.951,0,0,0-1.821,1.243,8.382,8.382,0,0,0,0,3.691s.493,1.546.932,2.938c0,0-28.843,20.124-29.015,20.271-2.508,2.15-4.663,5.432-3.673,10.032,1.44,6.69,10.695,17.264,15.535,21.854S92.7,68.118,92.7,68.118L89.347,59.6V54.183l-14.1-11.527c13.077-5.464,22.36-19.947,25.715-24.086,3.3-1.3,6.26-1.875,7.484-5.42.355-1.028,1.813-2.481,2.014-3.545.164-.865.335-1.731.543-2.587C111.307,5.758,110.592,4.4,109.435,5.418Z" fill="none" stroke="#869cb3" stroke-width="0.75"/>
    <path id="Path_4424" data-name="Path 4424" d="M102.568,11.631a2.049,2.049,0,0,1-.863-.208.136.136,0,0,1,.127-.241,1.57,1.57,0,0,0,1.16.1,1.313,1.313,0,0,0,.7-.882c.619-1.923-1.45-5.117-1.471-5.149a.136.136,0,0,1,.039-.188.137.137,0,0,1,.189.039c.088.135,2.161,3.335,1.5,5.382a1.561,1.561,0,0,1-.859,1.05,1.363,1.363,0,0,1-.525.1" fill="#869cb3"/>
    <path id="Path_4425" data-name="Path 4425" d="M102.568,11.631a2.049,2.049,0,0,1-.863-.208.136.136,0,0,1,.127-.241,1.57,1.57,0,0,0,1.16.1,1.313,1.313,0,0,0,.7-.882c.619-1.923-1.45-5.117-1.471-5.149a.136.136,0,0,1,.039-.188.137.137,0,0,1,.189.039c.088.135,2.161,3.335,1.5,5.382a1.561,1.561,0,0,1-.859,1.05A1.363,1.363,0,0,1,102.568,11.631Z" fill="none" stroke="#869cb3" stroke-width="0.25"/>
    <path id="Path_4426" data-name="Path 4426" d="M101.465,8.583a5.709,5.709,0,0,0-2.59-3.627.136.136,0,0,0-.124.242,5.525,5.525,0,0,1,2.45,3.454c.644,2.459.265,3.623-.257,3.873-.838.4-1.36-.6-1.381-.644l-.006,0a.983.983,0,0,1-.141.28,1.435,1.435,0,0,0,1.139.736,1.164,1.164,0,0,0,.508-.122c.312-.15,1.265-.894.4-4.187" fill="#869cb3"/>
    <path id="Path_4427" data-name="Path 4427" d="M101.465,8.583a5.709,5.709,0,0,0-2.59-3.627.136.136,0,0,0-.124.242,5.525,5.525,0,0,1,2.45,3.454c.644,2.459.265,3.623-.257,3.873-.838.4-1.36-.6-1.381-.644l-.006,0a.983.983,0,0,1-.141.28,1.435,1.435,0,0,0,1.139.736,1.164,1.164,0,0,0,.508-.122C101.375,12.62,102.328,11.876,101.465,8.583Z" fill="none" stroke="#869cb3" stroke-width="0.25"/>
    <path id="Path_4428" data-name="Path 4428" d="M98.521,13.794a1.278,1.278,0,0,1-.9-.4,2.636,2.636,0,0,1-.554-1.338c-.034-.156-.067-.311-.108-.456-.11-.384-.846-2.321-.851-2.331a.136.136,0,1,1,.248-.113c.02.044.75,1.966.865,2.369.043.151.077.312.112.474A2.446,2.446,0,0,0,97.82,13.2a.835.835,0,0,0,1.148.149,1.728,1.728,0,0,0,.4-1.01,5.528,5.528,0,0,0-.232-2.4,4.674,4.674,0,0,0-2.351-3,.136.136,0,1,1,.106-.251A4.874,4.874,0,0,1,99.4,9.864a5.771,5.771,0,0,1,.24,2.52,1.945,1.945,0,0,1-.49,1.169.923.923,0,0,1-.63.241" fill="#869cb3"/>
    <path id="Path_4429" data-name="Path 4429" d="M98.521,13.794a1.278,1.278,0,0,1-.9-.4,2.636,2.636,0,0,1-.554-1.338c-.034-.156-.067-.311-.108-.456-.11-.384-.846-2.321-.851-2.331a.136.136,0,1,1,.248-.113c.02.044.75,1.966.865,2.369.043.151.077.312.112.474A2.446,2.446,0,0,0,97.82,13.2a.835.835,0,0,0,1.148.149,1.728,1.728,0,0,0,.4-1.01,5.528,5.528,0,0,0-.232-2.4,4.674,4.674,0,0,0-2.351-3,.136.136,0,1,1,.106-.251A4.874,4.874,0,0,1,99.4,9.864a5.771,5.771,0,0,1,.24,2.52,1.945,1.945,0,0,1-.49,1.169A.923.923,0,0,1,98.521,13.794Z" fill="none" stroke="#869cb3" stroke-width="0.25"/>
    <path id="Path_4430" data-name="Path 4430" d="M100.493,15.631a.1.1,0,0,1-.034,0,.135.135,0,0,1-.1-.165,6.1,6.1,0,0,1,2-2.822,11.133,11.133,0,0,1,3.511-1.742.136.136,0,1,1,.076.262,11.062,11.062,0,0,0-3.411,1.688,5.927,5.927,0,0,0-1.908,2.682.137.137,0,0,1-.132.1" fill="#869cb3"/>
    <path id="Path_4431" data-name="Path 4431" d="M100.493,15.631a.1.1,0,0,1-.034,0,.135.135,0,0,1-.1-.165,6.1,6.1,0,0,1,2-2.822,11.133,11.133,0,0,1,3.511-1.742.136.136,0,1,1,.076.262,11.062,11.062,0,0,0-3.411,1.688,5.927,5.927,0,0,0-1.908,2.682A.137.137,0,0,1,100.493,15.631Z" fill="none" stroke="#869cb3" stroke-width="0.25"/>
    <path id="Path_4432" data-name="Path 4432" d="M162.723,47.731a13.838,13.838,0,0,0-5.376-9.96L132.212,14.938c.358-1.215,1.266-4.169,1.266-4.169a7.66,7.66,0,0,0-.037-3.366,1.78,1.78,0,0,0-1.674-1.115,2.045,2.045,0,0,0-.619-1.24,1.757,1.757,0,0,0-1.291-.276s.068-.871-1.115-1.137a2.365,2.365,0,0,0-2.19,1.09c-.334-1.013-1.12-2.941-2.433-3.6-2.195-.125-3.1.075-3.861.891-.552.594-2.015,2.542-.542,2.946.748.2,1.358-.33,1.874-.79a3.453,3.453,0,0,1,1.328-.633c.529-.1.771,1.153.92,1.583a6.3,6.3,0,0,1,.232,2.59c0,.067,0,.133,0,.2a4.413,4.413,0,0,1-.308,1.776c-.014.022-.032.055-.045.075-.427.688-1.172.7-1.833-.073S120.966,6.1,119.9,5.178s-1.6.542-1.308,1.688c.2.779.363,1.566.521,2.354a20.356,20.356,0,0,0,.641,2.9c1.1,3.077,6.553,5.944,6.553,5.944s15.667,21.7,24.2,28.9L128.525,59.208l10.887,12.458a79.629,79.629,0,0,0,11.226-7.935c6.193-5.419,12.725-9.18,12.085-16" fill="#fff"/>
    <path id="Path_4433" data-name="Path 4433" d="M162.723,47.731a13.838,13.838,0,0,0-5.376-9.96L132.212,14.938c.358-1.215,1.266-4.169,1.266-4.169a7.66,7.66,0,0,0-.037-3.366,1.78,1.78,0,0,0-1.674-1.115,2.045,2.045,0,0,0-.619-1.24,1.757,1.757,0,0,0-1.291-.276s.068-.871-1.115-1.137a2.365,2.365,0,0,0-2.19,1.09c-.334-1.013-1.12-2.941-2.433-3.6-2.195-.125-3.1.075-3.861.891-.552.594-2.015,2.542-.542,2.946.748.2,1.358-.33,1.874-.79a3.453,3.453,0,0,1,1.328-.633c.529-.1.771,1.153.92,1.583a6.3,6.3,0,0,1,.232,2.59c0,.067,0,.133,0,.2a4.413,4.413,0,0,1-.308,1.776c-.014.022-.032.055-.045.075-.427.688-1.172.7-1.833-.073S120.966,6.1,119.9,5.178s-1.6.542-1.308,1.688c.2.779.363,1.566.521,2.354a20.356,20.356,0,0,0,.641,2.9c1.1,3.077,6.553,5.944,6.553,5.944s15.667,21.7,24.2,28.9L128.525,59.208l10.887,12.458a79.629,79.629,0,0,0,11.226-7.935C156.831,58.312,163.363,54.551,162.723,47.731Z" fill="none" stroke="#869cb3" stroke-width="0.75"/>
    <path id="Path_4434" data-name="Path 4434" d="M126.422,11.032a1.257,1.257,0,0,1-.465-.085,1.424,1.424,0,0,1-.793-.949c-.622-1.861,1.237-4.8,1.317-4.924a.124.124,0,0,1,.209.134c-.019.03-1.874,2.963-1.291,4.711a1.2,1.2,0,0,0,.65.8,1.416,1.416,0,0,0,1.056-.1.124.124,0,0,1,.118.219,1.87,1.87,0,0,1-.8.2" fill="#869cb3"/>
    <path id="Path_4435" data-name="Path 4435" d="M126.422,11.032a1.257,1.257,0,0,1-.465-.085,1.424,1.424,0,0,1-.793-.949c-.622-1.861,1.237-4.8,1.317-4.924a.124.124,0,0,1,.209.134c-.019.03-1.874,2.963-1.291,4.711a1.2,1.2,0,0,0,.65.8,1.416,1.416,0,0,0,1.056-.1.124.124,0,0,1,.118.219A1.87,1.87,0,0,1,126.422,11.032Z" fill="none" stroke="#869cb3" stroke-width="0.25"/>
    <path id="Path_4436" data-name="Path 4436" d="M128.281,12.132a1.071,1.071,0,0,1-.453-.106c-.287-.134-1.163-.8-.408-3.815a5.2,5.2,0,0,1,2.325-3.334.124.124,0,0,1,.115.22,5.051,5.051,0,0,0-2.2,3.174c-.564,2.249-.206,3.307.272,3.53.769.357,1.234-.562,1.254-.6a.124.124,0,1,1,.223.11,1.392,1.392,0,0,1-1.129.822" fill="#869cb3"/>
    <path id="Path_4437" data-name="Path 4437" d="M128.281,12.132a1.071,1.071,0,0,1-.453-.106c-.287-.134-1.163-.8-.408-3.815a5.2,5.2,0,0,1,2.325-3.334.124.124,0,0,1,.115.22,5.051,5.051,0,0,0-2.2,3.174c-.564,2.249-.206,3.307.272,3.53.769.357,1.234-.562,1.254-.6a.124.124,0,1,1,.223.11A1.392,1.392,0,0,1,128.281,12.132Z" fill="none" stroke="#869cb3" stroke-width="0.25"/>
    <path id="Path_4438" data-name="Path 4438" d="M130.327,12.9a.833.833,0,0,1-.567-.214,1.768,1.768,0,0,1-.459-1.061,5.276,5.276,0,0,1,.194-2.3,4.45,4.45,0,0,1,2.254-2.92.124.124,0,1,1,.1.228,4.283,4.283,0,0,0-2.114,2.758,5.032,5.032,0,0,0-.188,2.193,1.572,1.572,0,0,0,.38.918.762.762,0,0,0,1.045-.148,2.246,2.246,0,0,0,.429-1.1c.03-.149.06-.3.1-.435.1-.369.631-1.776.649-1.816a.124.124,0,1,1,.226.1c0,.009-.541,1.43-.636,1.782-.036.133-.065.275-.1.418a2.4,2.4,0,0,1-.491,1.224,1.16,1.16,0,0,1-.825.378" fill="#869cb3"/>
    <path id="Path_4439" data-name="Path 4439" d="M130.327,12.9a.833.833,0,0,1-.567-.214,1.768,1.768,0,0,1-.459-1.061,5.276,5.276,0,0,1,.194-2.3,4.45,4.45,0,0,1,2.254-2.92.124.124,0,1,1,.1.228,4.283,4.283,0,0,0-2.114,2.758,5.032,5.032,0,0,0-.188,2.193,1.572,1.572,0,0,0,.38.918.762.762,0,0,0,1.045-.148,2.246,2.246,0,0,0,.429-1.1c.03-.149.06-.3.1-.435.1-.369.631-1.776.649-1.816a.124.124,0,1,1,.226.1c0,.009-.541,1.43-.636,1.782-.036.133-.065.275-.1.418a2.4,2.4,0,0,1-.491,1.224A1.16,1.16,0,0,1,130.327,12.9Z" fill="none" stroke="#869cb3" stroke-width="0.25"/>
    <path id="Path_4440" data-name="Path 4440" d="M128.26,14.618a.124.124,0,0,1-.121-.092,5.4,5.4,0,0,0-1.766-2.427,10.118,10.118,0,0,0-3.127-1.506.125.125,0,0,1-.087-.153.123.123,0,0,1,.153-.086,10.155,10.155,0,0,1,3.22,1.554,5.567,5.567,0,0,1,1.848,2.553.125.125,0,0,1-.088.153.122.122,0,0,1-.032,0" fill="#869cb3"/>
    <path id="Path_4441" data-name="Path 4441" d="M128.26,14.618a.124.124,0,0,1-.121-.092,5.4,5.4,0,0,0-1.766-2.427,10.118,10.118,0,0,0-3.127-1.506.125.125,0,0,1-.087-.153.123.123,0,0,1,.153-.086,10.155,10.155,0,0,1,3.22,1.554,5.567,5.567,0,0,1,1.848,2.553.125.125,0,0,1-.088.153A.122.122,0,0,1,128.26,14.618Z" fill="none" stroke="#869cb3" stroke-width="0.25"/>
    <path id="Path_4442" data-name="Path 4442" d="M96.5,10.285a1,1,0,0,1-.111-.31c-3.948,1.94-14.177,7.463-16.062,7.463H58a.216.216,0,1,0,0,.431H80.329c1.924,0,12.308-5.6,16.223-7.506a.733.733,0,0,1-.05-.078" fill="#869cb3"/>
    <path id="Path_4443" data-name="Path 4443" d="M96.5,10.285a1,1,0,0,1-.111-.31c-3.948,1.94-14.177,7.463-16.062,7.463H58a.216.216,0,1,0,0,.431H80.329c1.924,0,12.308-5.6,16.223-7.506A.733.733,0,0,1,96.5,10.285Z" fill="none" stroke="#869cb3" stroke-width="0.25"/>
    <path id="Path_4444" data-name="Path 4444" d="M110.778,4.929l-4.136.12a17.384,17.384,0,0,0-3.951.586c.026.035.066.056.088.1a.734.734,0,0,1,.1.3,16.909,16.909,0,0,1,3.779-.553l4.136-.12A.216.216,0,0,0,111,5.138a.211.211,0,0,0-.222-.209" fill="#869cb3"/>
    <path id="Path_4445" data-name="Path 4445" d="M110.778,4.929l-4.136.12a17.384,17.384,0,0,0-3.951.586c.026.035.066.056.088.1a.734.734,0,0,1,.1.3,16.909,16.909,0,0,1,3.779-.553l4.136-.12A.216.216,0,0,0,111,5.138.211.211,0,0,0,110.778,4.929Z" fill="none" stroke="#869cb3" stroke-width="0.25"/>
    <path id="Path_4446" data-name="Path 4446" d="M126.33,5.512a20.134,20.134,0,0,0-4.2-.573L118,4.818a.223.223,0,0,0-.222.21.217.217,0,0,0,.21.222l4.136.12a19.7,19.7,0,0,1,3.972.524.838.838,0,0,1,.238-.382" fill="#869cb3"/>
    <path id="Path_4447" data-name="Path 4447" d="M126.33,5.512a20.134,20.134,0,0,0-4.2-.573L118,4.818a.223.223,0,0,0-.222.21.217.217,0,0,0,.21.222l4.136.12a19.7,19.7,0,0,1,3.972.524A.838.838,0,0,1,126.33,5.512Z" fill="none" stroke="#869cb3" stroke-width="0.25"/>
    <path id="Path_4448" data-name="Path 4448" d="M171.988,16.76H147.661c-1.842,0-11.563-5.41-15.438-7.352a.984.984,0,0,1,.082.373c-.006.04-.011.079-.016.119,3.944,1.971,13.537,7.292,15.372,7.292h24.327a.216.216,0,0,0,0-.432" fill="#869cb3"/>
    <path id="Path_4449" data-name="Path 4449" d="M171.988,16.76H147.661c-1.842,0-11.563-5.41-15.438-7.352a.984.984,0,0,1,.082.373c-.006.04-.011.079-.016.119,3.944,1.971,13.537,7.292,15.372,7.292h24.327a.216.216,0,0,0,0-.432Z" fill="none" stroke="#869cb3" stroke-width="0.25"/>
    <path id="Path_4450" data-name="Path 4450" d="M59.182,18.14l-4.514,4.514a.415.415,0,0,1-.587,0L49.567,18.14a.414.414,0,0,1,0-.586l4.514-4.515a.417.417,0,0,1,.587,0l4.514,4.515a.414.414,0,0,1,0,.586" fill="#e9f0f7"/>
    <path id="Path_4451" data-name="Path 4451" d="M119.844,5.222,115.33,9.736a.415.415,0,0,1-.587,0l-4.514-4.514a.414.414,0,0,1,0-.586L114.743.121a.417.417,0,0,1,.587,0l4.514,4.515a.414.414,0,0,1,0,.586" fill="#869cb3"/>
    <path id="Path_4452" data-name="Path 4452" d="M217.814,53.72,213.3,58.234a.415.415,0,0,1-.587,0L208.2,53.72a.412.412,0,0,1,0-.586l4.513-4.515a.417.417,0,0,1,.587,0l4.515,4.515a.416.416,0,0,1,0,.586" fill="#e9f0f7"/>
    <path id="Path_4453" data-name="Path 4453" d="M31.44,32.868,28.388,35.92l-3.052-3.052Z" fill="#869cb3"/>
    <path id="Path_4454" data-name="Path 4454" d="M193.507,73.71l-3.052,3.052L187.4,73.71Z" fill="#869cb3"/>
    <path id="Path_4455" data-name="Path 4455" d="M42.176,100.277l-3.052,3.052-3.052-3.052Z" fill="#869cb3"/>
    <path id="Path_4456" data-name="Path 4456" d="M201.46,22.33H172.614a.647.647,0,0,1-.647-.647V12.269a.648.648,0,0,1,.647-.648H201.46a.648.648,0,0,1,.647.648v9.414a.647.647,0,0,1-.647.647M172.614,12.053a.216.216,0,0,0-.216.216v9.414a.216.216,0,0,0,.216.216H201.46a.216.216,0,0,0,.216-.216V12.269a.216.216,0,0,0-.216-.216Z" fill="#fff"/>
    <path id="Path_4457" data-name="Path 4457" d="M201.46,22.33H172.614a.647.647,0,0,1-.647-.647V12.269a.648.648,0,0,1,.647-.648H201.46a.648.648,0,0,1,.647.648v9.414A.647.647,0,0,1,201.46,22.33ZM172.614,12.053a.216.216,0,0,0-.216.216v9.414a.216.216,0,0,0,.216.216H201.46a.216.216,0,0,0,.216-.216V12.269a.216.216,0,0,0-.216-.216Z" fill="none" stroke="#869cb3" stroke-width="0.426"/>
    <path id="Path_4458" data-name="Path 4458" d="M204.9,87.039H176.016a.415.415,0,0,1-.415-.415V77.176a.415.415,0,0,1,.415-.415H204.9a.415.415,0,0,1,.415.415v9.448a.415.415,0,0,1-.415.415" fill="#e9f0f7"/>
    <path id="Path_4459" data-name="Path 4459" d="M43.026,46.9H14.181a.647.647,0,0,1-.647-.647V36.84a.648.648,0,0,1,.647-.648H43.026a.649.649,0,0,1,.648.648v9.414a.648.648,0,0,1-.648.647M14.181,36.624a.216.216,0,0,0-.216.216v9.414a.216.216,0,0,0,.216.216H43.026a.216.216,0,0,0,.216-.216V36.84a.216.216,0,0,0-.216-.216Z" fill="#fff"/>
    <path id="Path_4460" data-name="Path 4460" d="M43.026,46.9H14.181a.647.647,0,0,1-.647-.647V36.84a.648.648,0,0,1,.647-.648H43.026a.649.649,0,0,1,.648.648v9.414A.648.648,0,0,1,43.026,46.9ZM14.181,36.624a.216.216,0,0,0-.216.216v9.414a.216.216,0,0,0,.216.216H43.026a.216.216,0,0,0,.216-.216V36.84a.216.216,0,0,0-.216-.216Z" fill="none" stroke="#869cb3" stroke-width="0.426"/>
    <path id="Path_4461" data-name="Path 4461" d="M39.124,102.018a.216.216,0,0,1-.216-.216V71.512a1.08,1.08,0,0,0-1.079-1.079H16.482a.216.216,0,0,1,0-.431H37.829a1.512,1.512,0,0,1,1.511,1.51V101.8a.216.216,0,0,1-.216.216" fill="#869cb3"/>
    <path id="Path_4462" data-name="Path 4462" d="M39.124,102.018a.216.216,0,0,1-.216-.216V71.512a1.08,1.08,0,0,0-1.079-1.079H16.482a.216.216,0,0,1,0-.431H37.829a1.512,1.512,0,0,1,1.511,1.51V101.8A.216.216,0,0,1,39.124,102.018Z" fill="none" stroke="#869cb3" stroke-width="0.25"/>
    <path id="Path_4463" data-name="Path 4463" d="M18.66,70.511,9.684,79.487a.415.415,0,0,1-.587,0L.121,70.511a.414.414,0,0,1,0-.586L9.1,60.948a.415.415,0,0,1,.587,0l8.976,8.977a.414.414,0,0,1,0,.586" fill="#e9f0f7"/>
    <path id="Path_4464" data-name="Path 4464" d="M114.217,66.06a.216.216,0,0,1-.215-.2l-.1-1.2a.216.216,0,0,1,.2-.234.219.219,0,0,1,.234.2l.1,1.2a.215.215,0,0,1-.2.233h-.019" fill="#869cb3"/>
    <path id="Path_4465" data-name="Path 4465" d="M122.469,124.7l-9.366.488-.444-5.132,9.227-.915Z" fill="#fff"/>
    <path id="Path_4466" data-name="Path 4466" d="M122.469,124.7l-9.366.488-.444-5.132,9.227-.915Z" fill="none" stroke="#869cb3" stroke-width="0.426"/>
    <path id="Path_4467" data-name="Path 4467" d="M134.379,76.506c.73,10.62,4.205,34.509,4.065,36.439a10.286,10.286,0,0,1-2.8,6.738l-17.85,1.08-.44.02-22.68,1.38a7.224,7.224,0,0,1-3.068-6.218c.24-5.17,4.651-31.369,1.871-38.794C84.379,73.667,73,64.87,73,64.87s4.837-2.687,6.718-5.2c2.965-3.954,4.478-11.2,4.478-11.2s9.922,7.361,13.4,10.093c.7.553,6.516,3.986,6.606,3.986l4.034,4.28,4.254-5.286,4.753,4.627,2.38-3.822c-.09-.09.439-.675.439-.675S130.827,58.953,137.138,52c-.853-.725-1.267,6.013,3.047,11.149,4.882,5.812,6.984,6.376,6.984,6.376Z" fill="#fff"/>
    <path id="Path_4468" data-name="Path 4468" d="M134.379,76.506c.73,10.62,4.205,34.509,4.065,36.439a10.286,10.286,0,0,1-2.8,6.738l-17.85,1.08-.44.02-22.68,1.38a7.224,7.224,0,0,1-3.068-6.218c.24-5.17,4.651-31.369,1.871-38.794C84.379,73.667,73,64.87,73,64.87s4.837-2.687,6.718-5.2c2.965-3.954,4.478-11.2,4.478-11.2s9.922,7.361,13.4,10.093c.7.553,6.516,3.986,6.606,3.986l4.034,4.28,4.254-5.286,4.753,4.627,2.38-3.822c-.09-.09.439-.675.439-.675S130.827,58.953,137.138,52c-.853-.725-1.267,6.013,3.047,11.149,4.882,5.812,6.984,6.376,6.984,6.376Z" fill="none" stroke="#869cb3" stroke-width="0.75"/>
    <path id="Path_4469" data-name="Path 4469" d="M117.79,120.761l-.436.026a26.124,26.124,0,0,0,.237-4.985c-.315-6.4-4.277-44.645-5.127-52.79-.1-.936-.155-1.476-.16-1.523a.216.216,0,0,1,.195-.238.22.22,0,0,1,.237.19c0,.052.069.639.173,1.662.876,8.434,4.8,46.3,5.114,52.682a25.782,25.782,0,0,1-.233,4.976" fill="#869cb3"/>
    <path id="Path_4470" data-name="Path 4470" d="M116.078,82.212a.216.216,0,0,1-.215-.2l-.1-1.2a.216.216,0,1,1,.43-.037l.1,1.2a.216.216,0,0,1-.2.233h-.019" fill="#869cb3"/>
    <path id="Path_4471" data-name="Path 4471" d="M117.614,98.4a.216.216,0,0,1-.215-.2l-.1-1.2a.216.216,0,1,1,.43-.037l.1,1.2a.216.216,0,0,1-.2.233h-.019" fill="#869cb3"/>
    <path id="Path_4472" data-name="Path 4472" d="M119.085,115.563a.216.216,0,0,1-.215-.2l-.1-1.2a.216.216,0,1,1,.43-.037l.1,1.2a.216.216,0,0,1-.2.233h-.019" fill="#869cb3"/>
    <path id="Path_4473" data-name="Path 4473" d="M49.029,113.234a9.905,9.905,0,1,1-9.906-9.906,9.906,9.906,0,0,1,9.906,9.906" fill="#869cb3"/>
    <path id="Path_4474" data-name="Path 4474" d="M223.128,110.718a9.906,9.906,0,1,1-9.906-9.906,9.906,9.906,0,0,1,9.906,9.906" fill="#fff"/>
    <path id="Path_4475" data-name="Path 4475" d="M223.128,110.718a9.906,9.906,0,1,1-9.906-9.906A9.906,9.906,0,0,1,223.128,110.718Z" fill="none" stroke="#869cb3" stroke-width="0.426"/>
  </g>
</svg>
