<?xml version="1.0" encoding="UTF-8"?><svg id="a" xmlns="http://www.w3.org/2000/svg" viewBox="0 0 250 180"><path d="M199.94,88.85c-.12,0-.22-.1-.22-.22v-19.85c0-.83.68-1.51,1.51-1.51h16.94c.12,0,.22.1.22.22s-.1.22-.22.22h-16.94c-.6,0-1.08.48-1.08,1.08v19.85c0,.12-.1.22-.22.22Z" style="fill:#879db4; stroke:#879db4; stroke-miterlimit:10; stroke-width:.25px;"/><path d="M222.49,114.64c-.12,0-.22-.1-.22-.22V31.11c0-.59-.48-1.08-1.08-1.08h-9.49c-.12,0-.22-.1-.22-.22s.1-.22.22-.22h9.49c.83,0,1.51.68,1.51,1.51v83.32c0,.12-.1.22-.22.22Z" style="fill:#879db4; stroke:#879db4; stroke-miterlimit:10; stroke-width:.25px;"/><path d="M37.88,84.49c-.12,0-.22-.09-.22-.2v-23.13c0-.11.1-.2.22-.2s.22.09.22.2v23.13c0,.11-.1.2-.22.2Z" style="fill:#879db4; stroke:#879db4; stroke-miterlimit:10; stroke-width:.25px;"/><path d="M37.88,49.25c-.12,0-.22-.1-.22-.22v-15.8c0-.83.68-1.51,1.51-1.51h20.18c.12,0,.22.1.22.22s-.1.22-.22.22h-20.18c-.6,0-1.08.48-1.08,1.08v15.8c0,.12-.1.22-.22.22Z" style="fill:#879db4; stroke:#879db4; stroke-miterlimit:10; stroke-width:.25px;"/><path d="M157.54,83.33s-.13-1.26-1.71-7.08-6-11.23-9.1-10.06c-.28.1-3.29,10.97-3.29,11.61s9.04,7.78,9.25,7.92c.22.14,4.85-2.38,4.85-2.38Z" style="fill:#fff; stroke:#879db4; stroke-miterlimit:10; stroke-width:.75px;"/><path d="M82.03,78.71s-.96-3.88,2.08-9.31c3.03-5.43,8.94-7.78,9.58-7.14.65.65,2.08,13.58,2.08,13.58,0,0-.65,1.4-1.29,1.73-.65.32-12.45,1.14-12.45,1.14Z" style="fill:#fff; stroke:#879db4; stroke-miterlimit:10; stroke-width:.75px;"/><path d="M96.39,179.88s.86-22.44,2.02-30.79c.51-3.67,1.68-6.6,2.84-8.73.09-.18.19-.36.29-.53,1.28-2.23,2.47-3.46,2.61-3.6,0,0,.01-.01.01-.01l10.57-6.78,1.37-.88,1.42.25,27.61,4.93s1.48,1.65,2.78,4.18c.68,1.32,1.3,2.87,1.64,4.56.44,2.15.9,5.79,1.33,9.72h0c.03.22.05.42.07.63h0c.85,7.91,1.55,27.06,1.55,27.06" style="fill:#fff; stroke:#879db4; stroke-miterlimit:10; stroke-width:.75px;"/><path d="M102.11,154.99l-.05-.43s3.71-.53,7.91-5.36c4.22-4.85,4.69-9.93,4.7-9.98l.43.04c0,.05-.49,5.27-4.8,10.23-4.32,4.97-8.03,5.48-8.18,5.5Z" style="fill:#879db4;"/><path d="M126.99,162.32l-.11-.42.06.21-.06-.21s4.19-1.33,3.57-12.51c-.63-11.45-.24-12.83-.22-12.88l.41.13c-.01.05-.38,1.54.24,12.73.64,11.59-3.7,12.9-3.89,12.95Z" style="fill:#879db4;"/><polygon points="127.3 169.52 126.86 169.52 126.25 138.45 126.68 138.44 127.14 161.78 127.15 162.26 127.3 169.52" style="fill:#879db4;"/><path d="M147.91,137.92l-15.95.84-9.37.49-21.34,1.12c.09-.18.19-.36.29-.53,1.28-2.23,2.47-3.46,2.61-3.6,0,0,.01-.01.01-.01l10.57-6.78c1.08-.25,2.04-.46,2.78-.63l27.61,4.93s1.48,1.65,2.78,4.18Z" style="fill:#fff; stroke:#879db4; stroke-miterlimit:10; stroke-width:.43px;"/><path d="M127.75,65.59h0c-.08,1.07-.22,2.57-.34,4.11-.25,2.98-.49,6.05-.49,6.12,0,.12-4.24,2.91-4.24,2.91l-8.51-3.94,3.02-12.21.04-.18c.15.06.88.26,1.02.37,1.85,1.44,6.16,3.43,9.49,2.82Z" style="fill:#fff; stroke:#879db4; stroke-miterlimit:10; stroke-width:.83px;"/><path d="M131.37,49.34c-.21-.42-.39-.76-.52-1.04-.07-.13-.13-.25-.18-.35.07.11.14.21.2.33.19.35.35.69.5,1.05Z" style="fill:#fff; stroke:#879db4; stroke-miterlimit:10; stroke-width:.51px;"/><path d="M131.35,66.5c-.54.24-1.12.39-1.73.48-3.87.61-9.06-1.11-11.22-2.56-.17-.11-.84-.58-1.02-.64,0,0-.14-.91-.24-2.08-1.06-.42-2.07-1.39-2.68-2.73-1.02-2.23-.56-4.63,1.05-5.37.64-.3,1.38-.27,2.1,0-.11-.42-.24-.85-.39-1.32-.61-1.89-1.73-3.61-1.73-3.61,0,0,4.41-2.79,6.85-3.81,1.45-.61,3.11-.82,4.24-.91.1.06.19.11.29.18,1.13.67,2.14,1.55,2.95,2.59.26.33.51.69.74,1.06,0,0,.01,0,.01.01.02.04.05.1.1.18.05.1.11.21.18.35.13.27.31.62.52,1.04,1.14,2.3,3.19,6.6,3.9,9.4.77,3.06.04,6.02-3.92,7.76Z" style="fill:#fff; stroke:#879db4; stroke-miterlimit:10; stroke-width:.89px;"/><path d="M126.87,44.12c-.1-.07-.19-.12-.29-.18-1.13.08-2.79.3-4.24.91-2.44,1.02-6.85,3.81-6.85,3.81,0,0,1.12,1.72,1.73,3.61.15.48.29.91.39,1.32-.71-.27-1.45-.3-2.1,0-1.61.74-2.07,3.15-1.05,5.37.61,1.33,1.62,2.31,2.68,2.73.1,1.18.24,2.08.24,2.08l-.05.18c-1.42-.39-7.92-2.25-8.27-4.15-1.23-.25-2.35-.82-2.63-2.17-.18-.8.62-1.83.01-2.37-.52-.46-1.13-.62-1.54-1.29-.93-1.48-.61-3.28.38-4.63.8-1.07,1.91-1.79,3.1-2.31-.61-1.25-.25-2.75.79-3.74,1.43-1.36,3.45-1.45,5.33-1.29,1.3-2.8,6.3-2.04,8.64-.96,1.35.63,3.07,1.66,3.73,3.07Z" style="fill:#fff; stroke:#879db4; stroke-miterlimit:10; stroke-width:.89px;"/><polygon points="115.41 71.36 121.92 75.23 126.59 73.43 130.39 76.63 122.74 84.65 110.62 77.03 115.41 71.36" style="fill:#fff; stroke:#879db4; stroke-miterlimit:10; stroke-width:.75px;"/><path d="M104.59,140.4c-.02.07-1.53,6.19-2.26,14.11h0c-.01.15-.03.3-.04.45-.03.25-.05.51-.07.77-.38,4.48-.69,9.79-.9,13.79h-.43c.21-4.01.52-9.34.9-13.83.71-8.4,2.36-15.29,2.38-15.37l.43.08Z" style="fill:#879db4;"/><path d="M150.96,152.82c-1.46-1.23-3.4-3.18-4.69-5.72-2.29-4.51-2.57-8.58-2.57-8.64l.43-.05c0,.06.27,4.05,2.53,8.49,1.16,2.28,2.86,4.08,4.23,5.28h0c.03.22.05.42.07.63Z" style="fill:#879db4;"/><path d="M75.18,59.4c-.06,0-.12-.03-.16-.08-.08-.09-.07-.23.02-.3l4.93-4.23c.09-.08.23-.07.3.02.08.09.07.23-.02.3l-4.93,4.23s-.09.05-.14.05Z" style="fill:#879db4;"/><path d="M118.92,19.48c-1.16,1.02-1.29,3.88-2.01,4.73-.71.85-1.53.85-2.01.1-.01-.02-.03-.06-.05-.08-.17-.33-.32-.92-.36-1.94,0-.23,0-.47,0-.71.03-1.11.22-2.21.57-3.27.16-.47.32-.9.9-.79.43.08.87.36,1.2.64.57.5,1.25,1.08,2.06.84,1.61-.46-.02-2.58-.63-3.22-.81-.85-2.7-.52-4.75-.34-.14.01-.29.05-.42.13-1.25.77-1.37,2.19-1.71,3.25-.57-.7-1.47-1.39-2.41-1.17-1.29.31-1.21,1.26-1.21,1.26,0,0-.83-.15-1.41.32-.58.47-.66,1.37-.66,1.37,0,0-1.31-.05-1.82,1.24-.51,1.29,0,3.69,0,3.69,0,0,.49,1.55.93,2.94,0,0-28.84,20.12-29.02,20.27-2.51,2.15-4.66,5.43-3.67,10.03,1.44,6.69,10.69,17.26,15.53,21.85,4.84,4.59,14.19,1.55,14.19,1.55l-3.35-8.52v-5.42l-14.1-11.53c13.08-5.46,22.36-19.95,25.72-24.09,3.3-1.3,6.26-1.88,7.48-5.42.35-1.03,1.81-2.48,2.01-3.55.16-.87.33-1.73.54-2.59.31-1.26-.41-2.62-1.57-1.6Z" style="fill:#fff; stroke:#879db4; stroke-miterlimit:10; stroke-width:.75px;"/><path d="M112.06,25.69c-.46,0-.84-.2-.86-.21-.07-.03-.09-.12-.06-.18.03-.07.12-.09.18-.06,0,0,.62.32,1.16.1.32-.13.55-.43.7-.88.62-1.92-1.45-5.12-1.47-5.15-.04-.06-.02-.15.04-.19.06-.04.15-.02.19.04.09.14,2.16,3.33,1.5,5.38-.17.53-.46.89-.86,1.05-.18.07-.36.1-.53.1Z" style="fill:#879db4; stroke:#879db4; stroke-miterlimit:10; stroke-width:.25px;"/><path d="M110.95,22.64c-.69-2.63-2.51-3.59-2.59-3.63-.07-.03-.15,0-.18.06-.03.07,0,.15.06.18.02,0,1.79.94,2.45,3.45.64,2.46.26,3.62-.26,3.87-.84.4-1.36-.6-1.38-.64,0,0,0,0,0,0-.03.1-.08.19-.14.28.22.34.61.74,1.14.74.16,0,.33-.04.51-.12.31-.15,1.27-.89.4-4.19Z" style="fill:#879db4; stroke:#879db4; stroke-miterlimit:10; stroke-width:.25px;"/><path d="M108.01,27.85c-.33,0-.67-.16-.9-.4-.35-.36-.45-.86-.55-1.34-.03-.16-.07-.31-.11-.46-.11-.38-.85-2.32-.85-2.33-.03-.07,0-.15.07-.18.07-.03.15,0,.18.07.02.04.75,1.97.86,2.37.04.15.08.31.11.47.09.44.19.9.49,1.21.3.31.81.46,1.15.15.25-.23.34-.62.4-1.01.11-.69.03-1.47-.23-2.4-.65-2.26-2.33-2.99-2.35-3-.07-.03-.1-.11-.07-.18.03-.07.11-.1.18-.07.07.03,1.82.79,2.51,3.17.28.97.36,1.79.24,2.52-.07.44-.18.89-.49,1.17-.19.17-.41.24-.63.24Z" style="fill:#879db4; stroke:#879db4; stroke-miterlimit:10; stroke-width:.25px;"/><path d="M109.98,29.69s-.02,0-.03,0c-.07-.02-.12-.09-.1-.17.02-.06.39-1.46,2-2.82,1.29-1.09,3.42-1.72,3.51-1.74.07-.02.15.02.17.09.02.07-.02.15-.09.17-.02,0-2.16.63-3.41,1.69-1.53,1.3-1.9,2.67-1.91,2.68-.02.06-.07.1-.13.1Z" style="fill:#879db4; stroke:#879db4; stroke-miterlimit:10; stroke-width:.25px;"/><path d="M172.21,61.79c-.63-6.82-5.38-9.96-5.38-9.96l-25.14-22.83c.36-1.22,1.27-4.17,1.27-4.17,0,0,.44-2.19-.04-3.37s-1.67-1.12-1.67-1.12c0,0-.09-.82-.62-1.24-.53-.42-1.29-.28-1.29-.28,0,0,.07-.87-1.11-1.14-.86-.19-1.68.45-2.19,1.09-.33-1.01-1.12-2.94-2.43-3.6-2.19-.13-3.1.08-3.86.89-.55.59-2.01,2.54-.54,2.95.75.21,1.36-.33,1.87-.79.29-.26.93-.56,1.33-.63.53-.1.77,1.15.92,1.58.37,1.07.22,1.46.23,2.59,0,.07,0,.13,0,.2-.02.93-.16,1.47-.31,1.78-.01.02-.03.06-.04.08-.43.69-1.17.7-1.83-.07s-.92-3.59-1.98-4.51c-1.07-.92-1.6.54-1.31,1.69.2.78.36,1.57.52,2.35.19.97.31,1.96.64,2.9,1.1,3.08,6.55,5.94,6.55,5.94,0,0,15.67,21.7,24.2,28.9l-21.98,12.25,10.89,12.46s6.21-3.54,11.23-7.94c6.19-5.42,12.73-9.18,12.09-16Z" style="fill:#fff; stroke:#879db4; stroke-miterlimit:10; stroke-width:.75px;"/><path d="M135.91,25.09c-.15,0-.31-.02-.46-.08-.36-.14-.63-.46-.79-.95-.62-1.86,1.24-4.8,1.32-4.92.04-.06.11-.07.17-.04.06.04.07.11.04.17-.02.03-1.87,2.96-1.29,4.71.14.41.36.68.65.8.5.2,1.05-.1,1.06-.1.06-.03.14-.01.17.05.03.06,0,.14-.05.17-.02.01-.37.2-.8.2Z" style="fill:#879db4; stroke:#879db4; stroke-miterlimit:10; stroke-width:.25px;"/><path d="M137.77,26.19c-.14,0-.29-.03-.45-.11-.29-.13-1.16-.8-.41-3.81.6-2.41,2.26-3.3,2.33-3.33.06-.03.14,0,.17.05.03.06,0,.14-.05.17-.02,0-1.62.88-2.2,3.17-.56,2.25-.21,3.31.27,3.53.77.36,1.23-.56,1.25-.6.03-.06.11-.09.17-.06.06.03.09.1.06.17-.16.33-.57.82-1.13.82Z" style="fill:#879db4; stroke:#879db4; stroke-miterlimit:10; stroke-width:.25px;"/><path d="M139.81,26.96c-.2,0-.4-.06-.57-.21-.29-.25-.39-.66-.46-1.06-.11-.66-.05-1.41.19-2.3.6-2.18,2.19-2.89,2.25-2.92.06-.03.14,0,.16.06.03.06,0,.14-.06.16-.02,0-1.54.69-2.11,2.76-.23.85-.3,1.57-.19,2.19.06.36.15.71.38.92.31.28.78.14,1.05-.15.26-.28.35-.7.43-1.1.03-.15.06-.3.1-.43.1-.37.63-1.78.65-1.82.03-.06.1-.09.16-.06.06.03.09.1.06.16,0,0-.54,1.43-.64,1.78-.04.13-.06.27-.09.42-.09.44-.18.89-.49,1.22-.21.23-.52.38-.83.38Z" style="fill:#879db4; stroke:#879db4; stroke-miterlimit:10; stroke-width:.25px;"/><path d="M137.75,28.67c-.05,0-.1-.04-.12-.09,0-.01-.36-1.26-1.77-2.43-1.15-.95-3.11-1.5-3.13-1.51-.07-.02-.11-.09-.09-.15.02-.07.09-.11.15-.09.08.02,2.03.57,3.22,1.55,1.48,1.22,1.83,2.5,1.85,2.55.02.07-.02.13-.09.15-.01,0-.02,0-.03,0Z" style="fill:#879db4; stroke:#879db4; stroke-miterlimit:10; stroke-width:.25px;"/><path d="M105.99,24.34c-.06-.1-.09-.2-.11-.31-3.95,1.94-14.18,7.46-16.06,7.46h-22.33c-.12,0-.22.1-.22.22s.1.22.22.22h22.33c1.92,0,12.31-5.6,16.22-7.51-.02-.03-.04-.05-.05-.08Z" style="fill:#879db4; stroke:#879db4; stroke-miterlimit:10; stroke-width:.25px;"/><path d="M120.27,18.99l-4.14.12c-1.35.04-2.67.25-3.95.59.03.03.07.06.09.1.06.09.08.2.1.3,1.22-.32,2.48-.52,3.78-.55l4.14-.12c.12,0,.21-.1.21-.22,0-.12-.09-.21-.22-.21Z" style="fill:#879db4; stroke:#879db4; stroke-miterlimit:10; stroke-width:.25px;"/><path d="M135.82,19.57c-1.37-.33-2.77-.53-4.2-.57l-4.14-.12c-.11,0-.22.09-.22.21,0,.12.09.22.21.22l4.14.12c1.35.04,2.68.22,3.97.52.04-.16.13-.28.24-.38Z" style="fill:#879db4; stroke:#879db4; stroke-miterlimit:10; stroke-width:.25px;"/><path d="M181.48,30.82h-24.33c-1.84,0-11.56-5.41-15.44-7.35.05.12.08.24.08.37,0,.04-.01.08-.02.12,3.94,1.97,13.54,7.29,15.37,7.29h24.33c.12,0,.22-.1.22-.22s-.1-.22-.22-.22Z" style="fill:#879db4; stroke:#879db4; stroke-miterlimit:10; stroke-width:.25px;"/><rect x="60.26" y="28.3" width="7.21" height="7.21" rx=".41" ry=".41" transform="translate(-3.85 54.5) rotate(-45)" style="fill:#e9f0f8;"/><rect x="120.92" y="15.38" width="7.21" height="7.21" rx=".41" ry=".41" transform="translate(23.05 93.61) rotate(-45)" style="fill:#879db4;"/><rect x="218.89" y="63.88" width="7.21" height="7.21" rx=".41" ry=".41" transform="translate(17.45 177.09) rotate(-45)" style="fill:#e9f0f8;"/><polygon points="40.93 46.93 37.88 49.98 34.82 46.93 40.93 46.93" style="fill:#879db4;"/><polygon points="202.99 87.77 199.94 90.82 196.89 87.77 202.99 87.77" style="fill:#879db4;"/><polygon points="51.66 114.33 48.61 117.39 45.56 114.33 51.66 114.33" style="fill:#879db4;"/><path d="M210.95,36.39h-28.85c-.36,0-.65-.29-.65-.65v-9.41c0-.36.29-.65.65-.65h28.85c.36,0,.65.29.65.65v9.41c0,.36-.29.65-.65.65ZM182.1,26.11c-.12,0-.22.1-.22.22v9.41c0,.12.1.22.22.22h28.85c.12,0,.22-.1.22-.22v-9.41c0-.12-.1-.22-.22-.22h-28.85Z" style="fill:#fff; stroke:#879db4; stroke-miterlimit:10; stroke-width:.43px;"/><rect x="185.09" y="90.82" width="29.71" height="10.28" rx=".41" ry=".41" style="fill:#e9f0f8;"/><path d="M52.51,60.96h-28.85c-.36,0-.65-.29-.65-.65v-9.41c0-.36.29-.65.65-.65h28.85c.36,0,.65.29.65.65v9.41c0,.36-.29.65-.65.65ZM23.67,50.68c-.12,0-.22.1-.22.22v9.41c0,.12.1.22.22.22h28.85c.12,0,.22-.1.22-.22v-9.41c0-.12-.1-.22-.22-.22h-28.85Z" style="fill:#fff; stroke:#879db4; stroke-miterlimit:10; stroke-width:.43px;"/><path d="M48.61,116.08c-.12,0-.22-.1-.22-.22v-30.29c0-.59-.48-1.08-1.08-1.08h-21.35c-.12,0-.22-.1-.22-.22s.1-.22.22-.22h21.35c.83,0,1.51.68,1.51,1.51v30.29c0,.12-.1.22-.22.22Z" style="fill:#879db4; stroke:#879db4; stroke-miterlimit:10; stroke-width:.25px;"/><rect x="12.12" y="77.51" width="13.52" height="13.52" rx=".41" ry=".41" transform="translate(-54.06 38.03) rotate(-45)" style="fill:#e9f0f8;"/><path d="M123.7,80.12c-.11,0-.2-.08-.21-.2l-.1-1.2c-.01-.12.08-.22.2-.23.11-.01.22.08.23.2l.1,1.2c.01.12-.08.22-.2.23,0,0-.01,0-.02,0Z" style="fill:#879db4;"/><polygon points="131.96 138.75 122.59 139.24 122.15 134.11 131.37 133.2 131.96 138.75" style="fill:#fff; stroke:#879db4; stroke-miterlimit:10; stroke-width:.43px;"/><path d="M143.87,90.56c.73,10.62,4.2,34.51,4.06,36.44-.32,4.53-2.8,6.74-2.8,6.74l-17.85,1.08-.44.02-22.68,1.38s-3.26-2.06-3.07-6.22c.24-5.17,4.65-31.37,1.87-38.79-9.1-3.48-20.47-12.28-20.47-12.28,0,0,4.84-2.69,6.72-5.2,2.97-3.95,4.48-11.2,4.48-11.2,0,0,9.92,7.36,13.4,10.09.7.55,6.52,3.99,6.61,3.99l4.03,4.28,4.25-5.29,4.75,4.63,2.38-3.82c-.09-.09.44-.67.44-.67,0,0,10.76-2.73,17.07-9.68-.85-.72-1.27,6.01,3.05,11.15,4.88,5.81,6.98,6.38,6.98,6.38l-12.79,6.98Z" style="fill:#fff; stroke:#879db4; stroke-miterlimit:10; stroke-width:.75px;"/><path d="M127.28,134.82l-.44.03c.22-1.49.32-3.17.24-4.99-.32-6.4-4.28-44.65-5.13-52.79-.1-.94-.16-1.48-.16-1.52-.01-.12.07-.22.19-.24.11-.01.22.07.24.19,0,.05.07.64.17,1.66.88,8.43,4.8,46.3,5.11,52.68.09,1.8-.02,3.48-.23,4.98Z" style="fill:#879db4;"/><path d="M125.57,96.27c-.11,0-.2-.08-.21-.2l-.1-1.2c-.01-.12.08-.22.2-.23.12-.01.22.08.23.2l.1,1.2c.01.12-.08.22-.2.23,0,0-.01,0-.02,0Z" style="fill:#879db4;"/><path d="M127.1,112.46c-.11,0-.2-.08-.21-.2l-.1-1.2c-.01-.12.08-.22.2-.23.11-.01.22.08.23.2l.1,1.2c.01.12-.08.22-.2.23,0,0-.01,0-.02,0Z" style="fill:#879db4;"/><path d="M128.57,129.62c-.11,0-.2-.08-.21-.2l-.1-1.2c-.01-.12.08-.22.2-.23.12-.01.22.08.23.2l.1,1.2c.01.12-.08.22-.2.23,0,0-.01,0-.02,0Z" style="fill:#879db4;"/><circle cx="48.61" cy="127.29" r="9.91" style="fill:#879db4;"/><circle cx="222.71" cy="124.77" r="9.91" style="fill:#fff; stroke:#879db4; stroke-miterlimit:10; stroke-width:.43px;"/><g id="b"><path d="M198.17,99.39c0,.39-.46.83-.86.83h-.69v-6.92h1.56v6.09Z" style="fill:#fff;"/><path d="M200.01,93.31h2c.75,0,1.32.15,1.69.47.38.32.56.75.56,1.3,0,.39-.09.7-.26.94s-.39.42-.67.54v.02c.77.22,1.17.76,1.17,1.63,0,.31-.05.59-.14.84-.09.24-.24.46-.44.63-.2.18-.45.31-.76.4s-.68.13-1.12.13h-2.84s0-6.1,0-6.1c0-.32.48-.82.81-.82ZM202.96,98.09c0-.3-.07-.51-.21-.63-.14-.13-.38-.19-.72-.19h-1.33v1.67h1.37c.31,0,.54-.06.68-.18.14-.11.21-.34.21-.67ZM202.8,95.36c0-.28-.07-.47-.2-.58s-.34-.16-.63-.16h-1.25v1.5h1.29c.28,0,.48-.06.61-.18.13-.11.19-.31.19-.59Z" style="fill:#fff;"/><path d="M194.55,94.64c-1.93-.28-2.39.37-2.39,2.13s.47,2.33,2.55,2.12c.65-.07.81.14.93,1.16-.22.12-1.22.29-1.92.27-1.04-.03-1.91-.29-2.41-.88-.51-.59-.75-1.49-.75-2.72,0-2.48,1.11-3.5,3.27-3.5,1.06,0,1.76.32,1.76.32-.18,1.13-.37,1.21-1.04,1.1Z" style="fill:#fff;"/><path d="M208.36,97.27c.51,0,1.28-.82,1.28-1.27v-4.33h-3.97v5.6h2.69Z" style="fill:#fff;"/></g></svg>