<?xml version="1.0" encoding="UTF-8"?><svg id="a" xmlns="http://www.w3.org/2000/svg" viewBox="0 0 250 180"><polygon points="186.47 24.03 182.97 27.53 181.42 27.53 184.92 24.03 181.42 20.53 182.97 20.53 186.47 24.03" style="fill:#e9f0f8;"/><polygon points="183.94 24.03 180.44 27.53 178.89 27.53 182.39 24.03 178.89 20.53 180.44 20.53 183.94 24.03" style="fill:#e9f0f8;"/><polygon points="181.42 24.03 177.91 27.53 176.36 27.53 179.87 24.03 176.36 20.53 177.91 20.53 181.42 24.03" style="fill:#e9f0f8;"/><polygon points="178.89 24.03 175.39 27.53 173.84 27.53 177.34 24.03 173.84 20.53 175.39 20.53 178.89 24.03" style="fill:#e9f0f8;"/><polygon points="176.36 24.03 172.86 27.53 171.31 27.53 174.81 24.03 171.31 20.53 172.86 20.53 176.36 24.03" style="fill:#e9f0f8;"/><polygon points="189.97 79.24 186.47 75.74 186.47 74.19 189.97 77.69 193.47 74.19 193.47 75.74 189.97 79.24" style="fill:#e9f0f8;"/><polygon points="189.97 76.71 186.47 73.21 186.47 71.66 189.97 75.16 193.47 71.66 193.47 73.21 189.97 76.71" style="fill:#e9f0f8;"/><polygon points="189.97 74.19 186.47 70.69 186.47 69.14 189.97 72.64 193.47 69.14 193.47 70.69 189.97 74.19" style="fill:#e9f0f8;"/><polygon points="189.97 71.66 186.47 68.16 186.47 66.61 189.97 70.11 193.47 66.61 193.47 68.16 189.97 71.66" style="fill:#e9f0f8;"/><polygon points="189.97 69.14 186.47 65.63 186.47 64.08 189.97 67.59 193.47 64.08 193.47 65.63 189.97 69.14" style="fill:#e9f0f8;"/><circle cx="66" cy="61.96" r="14.28" style="fill:#e9f0f8;"/><path d="M73,61.77c0,3.49-2.56,6.39-5.91,6.9-.35.06-.71.09-1.08.09-.74,0-1.46-.12-2.13-.33-2.83-.9-4.87-3.54-4.87-6.66,0-3.86,3.13-6.99,7-6.99s6.99,3.13,6.99,6.99Z" style="fill:#879db4;"/><circle cx="195.01" cy="129.63" r="9.99" style="fill:#fff; opacity:.6; stroke:#879db4; stroke-miterlimit:10; stroke-width:.75px;"/><circle cx="66" cy="61.77" r="8.74" style="fill:none; stroke:#879db4; stroke-miterlimit:10; stroke-width:.22px;"/><circle cx="65.97" cy="61.77" r="10.45" style="fill:none; stroke:#879db4; stroke-miterlimit:10; stroke-width:.26px;"/><line x1="76.42" y1="61.01" x2="79.42" y2="61.01" style="fill:none; stroke:#b0bbcd; stroke-linecap:round; stroke-miterlimit:10; stroke-width:.51px;"/><line x1="81.62" y1="61.01" x2="98.1" y2="61.01" style="fill:none; stroke:#b0bbcd; stroke-dasharray:6.59 2.2; stroke-linecap:round; stroke-miterlimit:10; stroke-width:.51px;"/><polyline points="99.19 61.01 102.19 61.01 102.19 58.01" style="fill:none; stroke:#b0bbcd; stroke-linecap:round; stroke-miterlimit:10; stroke-width:.51px;"/><line x1="102.19" y1="56.18" x2="102.19" y2="42.46" style="fill:none; stroke:#b0bbcd; stroke-dasharray:5.49 1.83; stroke-linecap:round; stroke-miterlimit:10; stroke-width:.51px;"/><polyline points="102.19 41.55 102.19 38.55 105.32 38.55" style="fill:none; stroke:#b0bbcd; stroke-linecap:round; stroke-miterlimit:10; stroke-width:.51px;"/><polyline points="112.66 30.03 112.66 18.03 140.84 18.03" style="fill:none; stroke:#b0bbcd; stroke-dasharray:6 2; stroke-linecap:round; stroke-miterlimit:10; stroke-width:.51px;"/><polyline points="113.29 43.78 113.29 55.78 130.19 55.78" style="fill:none; stroke:#b0bbcd; stroke-dasharray:6 2; stroke-linecap:round; stroke-miterlimit:10; stroke-width:.51px;"/><rect x="107.98" y="32.51" width="10.11" height="10.11" transform="translate(8.91 95.41) rotate(-47.44)" style="fill:#e9f0f8;"/><rect x="140.84" y="12.04" width="21.3" height="11.99" rx="2.81" ry="2.81" style="fill:none; opacity:.6; stroke:#b0bbcd; stroke-linecap:round; stroke-miterlimit:10; stroke-width:.63px;"/><rect x="130.19" y="49.78" width="21.3" height="11.99" rx="2.81" ry="2.81" style="fill:none; opacity:.6; stroke:#b0bbcd; stroke-linecap:round; stroke-miterlimit:10; stroke-width:.63px;"/><rect x="184.36" y="85.51" width="21.3" height="11.99" rx="2.81" ry="2.81" style="fill:none; opacity:.6; stroke:#b0bbcd; stroke-linecap:round; stroke-miterlimit:10; stroke-width:.63px;"/><polyline points="162.77 18.03 195.01 18.03 195.01 85.51" style="fill:none; stroke:#b0bbcd; stroke-dasharray:6 2; stroke-linecap:round; stroke-miterlimit:10; stroke-width:.51px;"/><line x1="151.48" y1="55.78" x2="192.59" y2="55.78" style="fill:none; stroke:#b0bbcd; stroke-dasharray:6 2; stroke-linecap:round; stroke-miterlimit:10; stroke-width:.51px;"/><line x1="195.01" y1="99.49" x2="195.01" y2="117.65" style="fill:none; stroke:#b0bbcd; stroke-dasharray:6 2; stroke-linecap:round; stroke-miterlimit:10; stroke-width:.51px;"/><rect x="189.96" y="38.51" width="10.11" height="10.11" transform="translate(31.02 157.73) rotate(-47.44)" style="fill:#e9f0f8;"/><path d="M81.58,109.45c-1.78.67-14.86,3.05-16.47,2.95-.29-.02-.56-.08-.82-.16v.02s-4.22-.54-4.9-6.12c-.26-2.16,1.91-19.57,2.18-23.81.05-.71-.32-2.01-.28-2.54.08-1.06-.49-2.96-.49-2.96,0,0-1.11-3.81-.6-5.33.27-.79,1.09-.99,1.09-.99,0,0-.05-.88.65-1.39.48-.35,1.22-.24,1.22-.24,0,0,.38-.87,1.35-.85.61.01,1.02.39,1.24.67,0-1.07-.05-2.14-.02-3.2,0-.13,0-.26.01-.39.03-.58.06-1.17.3-1.71.18-.41.71-.45,1.06-.19.56.41.64,1.26.67,1.86.01.16.02.36.03.6.05,1.29.08,3.51.08,4.26.87.23,1.61,1.07,1.32,3.26-.2,1.58-1.18,3.62-1.51,4.27l-.11.88-.48,4.03,1.09,18.14,11.56-1.7c.36,4.48-.6,7.62,1.81,10.68Z" style="fill:#fff; stroke:#879db4; stroke-miterlimit:10; stroke-width:.75px;"/><path d="M142.85,136.93c-.25,5.12-4.86,8.25-9.92,9.36-1.12.25-2.27.39-3.39.44-3.68.15-7.33-2.26-8.73-5.67h9.61c.71-3.33,1.44-7,2.14-10.81l10.05.79c.2,1.64.35,3.7.24,5.89Z" style="fill:#fff; stroke:#879db4; stroke-miterlimit:10; stroke-width:.75px;"/><path d="M119.03,77.28c-.43.34.09,3.85-.46,3.95-.01,0-6.69,2.96-6.69,3.37-.04.03-.08.06-.13.09-1.42.94-3.63,1.21-5.67.88-.66-.1-1.28-.24-1.84-.39h0c-3.22-.88-4.86-2.52-5.02-4.18-.06-.69.5-2.33,1.25-4.15.05-.12.11-.24.15-.36.01-.03.02-.06.04-.08.01-.03.02-.05.03-.08.03-.06.05-.12.07-.18.05-.1.09-.2.13-.31.16-.37.32-.74.48-1.1-.61-.61-1.26-1.39-1.14-1.56.12-.17,1.48-.92,2.57-1.5h.01c.13-.08.26-.15.38-.21.17-.7.4-1.37.71-1.99.82-1.75,2.15-3.17,3.76-4.13,1.58.47,6.25.55,6.86,2.14.67,1.74.94,1.8.44,3.49-.06.2,4.67,5.83,4.08,6.31Z" style="fill:#fff; stroke:#879db4; stroke-miterlimit:10; stroke-width:.75px;"/><path d="M103.9,69.47c-.31.62-.54,1.29-.71,1.99-.12.06-.25.13-.38.2.62-1.3,1.08-2.19,1.08-2.19h.01Z" style="fill:#fff; stroke:#879db4; stroke-miterlimit:10; stroke-width:.75px;"/><path d="M113.86,96.7h-8.07l-1.34-8.5-.21-2.99v-.04c.56.15,1.18.29,1.84.39,2.04.33,4.25.06,5.67-.88.05-.03.09-.06.13-.09.01.81.09,1.61.23,2.38.2,1.11.6,2.17.79,3.28.14.81,1.11,5.68.96,6.45Z" style="fill:#fff; stroke:#879db4; stroke-miterlimit:10; stroke-width:.75px;"/><path d="M147.44,135.15c-3.5-14.12-.44-30.84-13.73-37.84,1.3,1.66-6.48-3.57-10.91-3.36-5.5.26-9.29-1.74-9.07-2.55-3.22,3.43-9.21.09-9.21.09-.26.02-7.14,1.78-9.48,3.48-2.72,1.99-10.25.32-17.49,1.59.01.1-2.13,12.28-1.59,17.72,4.89.91,13.77-5.36,21.19.61,1.16,7.62-.73,27.28,1.76,32.73l32.52.25c3.21-2.37-.21-22.1.49-25.91l1.63,14.85,9.78,1.81c2.16,0,4.63-1.36,4.11-3.46Z" style="fill:#fff; stroke:#879db4; stroke-miterlimit:10; stroke-width:.75px;"/><path d="M89.56,179.64c.64-5.42.74-14.03,2.83-19.92,3.27-9.21,6.68-12.3,6.68-12.3h33.04s1.78,1.85,3.68,5.23c1.19,2.14,2.44,4.9,3.31,8.18,1.29,4.89,2.68,13.5,3.51,19" style="fill:#fff; stroke:#879db4; stroke-miterlimit:10; stroke-width:.74px;"/><path d="M136.62,104.57c.03.21-.08.72-.21.88-1.69,2.05-5.86,3.18-10.29,3.39-5.5.26-11.42-.88-13.56-3.39-.12-.14.07-.37.11-.55.25-.93.7-1.79.87-2.74.23-1.32-.34-2.38-.87-3.53-.4-.88-.56-1.68-.56-2.5.01-.72.15-1.47.37-2.28.12-.43.23-.85.31-1.26.15-.77.21-1.53.07-2.34-.19-1.11-.59-2.17-.79-3.28-.14-.77-.22-1.57-.23-2.38.43-.3.42-3.33.57-3.9.03-.12.07-.23.11-.35h.01c.06,0,2.51-1.82,2.69-2.62.4-1.84-.76-3.65-2.6-4.05-.69-.15-1.38-.08-1.99.17.02-.18.07-.36.13-.56.5-1.69,1.04-3.07.37-4.81-.61-1.59-1.93-2.66-3.51-3.13,1.81-1.09,3.97-1.6,6.19-1.32h.02c.07,0,.14.01.21.03.01.01.02.01.03.01h.03c.58.12,1.12.25,1.63.4h.02c3.69,1.06,5.83,2.7,7.21,4.88.24-.97,1.12-1.69,2.16-1.69,1.23,0,2.22,1,2.22,2.23s-.99,2.22-2.22,2.22c-.33,0-.65-.07-.93-.21.46,1.26.8,2.65,1.11,4.14.4,1.93.18,5.46,1.62,6.91,1.13,1.14,2.29,2.18,3.1,3.59.75,1.28,1.14,2.69,1.11,4.17-.02,1.07-.11,2.1.36,3.09.37.78.94,1.43,1.51,2.07.42.47.83.96,1.21,1.45,1.3,1.66,2.32,3.45,2.49,5.49v.03c.04.56.02,1.14-.08,1.74Z" style="fill:#fff; stroke:#879db4; stroke-miterlimit:10; stroke-width:.75px;"/><path d="M119.8,178.33l-.31-14.25c0-6.92-1.09-12.85-1.87-16.21h.43" style="fill:#fff; stroke:#879db4; stroke-miterlimit:10; stroke-width:.75px;"/><path d="M107.35,170.01c2.76,0,5-2.25,5-5.01v-5.07h-10.01v5.07c0,2.76,2.25,5.01,5.01,5.01ZM112.02,160.26v4.74c0,2.58-2.1,4.67-4.67,4.67s-4.67-2.1-4.67-4.67v-4.74h9.34Z" style="fill:#fff; stroke:#879db4; stroke-miterlimit:10; stroke-width:.59px;"/><path d="M128.77,170.01c2.76,0,5-2.25,5-5.01v-5.07h-10.01v5.07c0,2.76,2.25,5.01,5,5.01ZM133.44,160.26v4.74c0,2.58-2.1,4.67-4.67,4.67s-4.67-2.1-4.67-4.67v-4.74h9.34Z" style="fill:#fff; stroke:#879db4; stroke-miterlimit:10; stroke-width:.59px;"/><path d="M65.7,61.3c.17.33.44.33.61,0l1.09-2.17c.17-.33.3-.91.3-1.28v-31.59c0-.37-.3-.68-.68-.68h-2.03c-.37,0-.68.31-.68.68v31.59c0,.37.14.95.3,1.28l1.08,2.17Z" style="fill:#fff; stroke:#879db4; stroke-miterlimit:10; stroke-width:.5px;"/><path d="M69.72,28.72v15.78c7.67-8.63,15.35,5.47,23.02-3.16v-15.78c-7.67,8.63-15.35-5.47-23.02,3.16Z" style="fill:#fff; stroke:#879db4; stroke-miterlimit:10; stroke-width:.5px;"/><g style="opacity:.85;"><path d="M210.82,114.99l.81-4.74-4.74.81c-2.43.42-4.59,1.81-5.97,3.85l-3.49,5.16h0c-.43.65.08,2.01,1.23,3.15,1.14,1.14,2.51,1.66,3.15,1.23h0s5.16-3.49,5.16-3.49c2.04-1.38,3.43-3.54,3.85-5.97Z" style="fill:#fff; stroke:#879db4; stroke-miterlimit:10; stroke-width:.5px;"/><path d="M207.18,117.63c-.81.81-2.13.81-2.94,0s-.81-2.13,0-2.94c.81-.81,2.13-.81,2.94,0,.81.81.81,2.13,0,2.94Z" style="fill:#fff; stroke:#879db4; stroke-miterlimit:10; stroke-width:.5px;"/><path d="M199.43,126.56s-1.96,1.55-2.57,3.65c0,0-.51-2.13-.34-2.77l-4.22,2.13,2.13-4.22c-.64.17-2.77-.34-2.77-.34,2.09-.61,3.65-2.57,3.65-2.57" style="fill:#fff; stroke:#879db4; stroke-miterlimit:10; stroke-width:.5px;"/></g><g id="b"><path d="M79.24,38.4c0,.39-.46.83-.86.83h-.69v-6.92h1.56v6.09Z" style="fill:#e9f0f7;"/><path d="M81.08,32.31h2c.75,0,1.32.15,1.69.47.38.32.56.75.56,1.3,0,.39-.09.7-.26.94s-.39.42-.67.54v.02c.77.22,1.17.76,1.17,1.63,0,.31-.05.59-.14.84-.09.24-.24.46-.44.63-.2.18-.45.31-.76.4s-.68.13-1.12.13h-2.84s0-6.1,0-6.1c0-.32.48-.82.81-.82ZM84.03,37.1c0-.3-.07-.51-.21-.63-.14-.13-.38-.19-.72-.19h-1.33v1.67h1.37c.31,0,.54-.06.68-.18.14-.11.21-.34.21-.67ZM83.86,34.36c0-.28-.07-.47-.2-.58s-.34-.16-.63-.16h-1.25v1.5h1.29c.28,0,.48-.06.61-.18.13-.11.19-.31.19-.59Z" style="fill:#e9f0f7;"/><path d="M75.62,33.65c-1.93-.28-2.39.37-2.39,2.13s.47,2.33,2.55,2.12c.65-.07.81.14.93,1.16-.22.12-1.22.29-1.92.27-1.04-.03-1.91-.29-2.41-.88-.51-.59-.75-1.49-.75-2.72,0-2.48,1.11-3.5,3.27-3.5,1.06,0,1.76.32,1.76.32-.18,1.13-.37,1.21-1.04,1.1Z" style="fill:#e9f0f7;"/><path d="M89.42,36.27c.51,0,1.28-.82,1.28-1.27v-4.33h-3.97v5.6h2.69Z" style="fill:#e9f0f7;"/></g></svg>