<?xml version="1.0" encoding="UTF-8"?><svg id="a" xmlns="http://www.w3.org/2000/svg" viewBox="0 0 250 180"><path d="M187.08,18.03h-58.97c-4.88,0-8.84,3.97-8.84,8.85v76.48c0,4.88,3.97,8.84,8.84,8.84h58.97c4.88,0,8.84-3.97,8.84-8.84V26.87c0-4.88-3.97-8.84-8.84-8.84h0Z" style="fill:#e9f0f8;"/><path d="M128.51,43.46h58.16c1.28,0,2.31,1.04,2.31,2.31v23.33c0,1.28-1.04,2.31-2.31,2.31h-58.16c-1.28,0-2.31-1.04-2.31-2.31v-23.33c0-1.28,1.04-2.31,2.31-2.31Z" style="fill:#fff; stroke:#879db4; stroke-miterlimit:10; stroke-width:.75px;"/><path d="M128.51,75.13h58.16c1.28,0,2.31,1.04,2.31,2.31v23.33c0,1.28-1.04,2.31-2.31,2.31h-58.16c-1.28,0-2.31-1.04-2.31-2.31v-23.33c0-1.28,1.04-2.31,2.31-2.31Z" style="fill:#fff; stroke:#879db4; stroke-miterlimit:10; stroke-width:.75px;"/><path d="M171.89,52.05h-28.26c-1.12,0-2.03-.91-2.03-2.03s.91-2.03,2.03-2.03h28.26c1.12,0,2.03.91,2.03,2.03s-.91,2.03-2.03,2.03Z" style="fill:#879db4;"/><path d="M157.47,32.05h-28.26c-1.12,0-2.03-.91-2.03-2.03s.91-2.03,2.03-2.03h28.26c1.12,0,2.03.91,2.03,2.03s-.91,2.03-2.03,2.03Z" style="fill:#879db4;"/><path d="M157.67,60.3h-14.04c-.96,0-1.74-.78-1.74-1.74s.78-1.74,1.74-1.74h14.04c.96,0,1.74.78,1.74,1.74s-.78,1.74-1.74,1.74Z" style="fill:#e9f0f8;"/><path d="M184.55,92.65h-14.04c-.96,0-1.74-.78-1.74-1.74s.78-1.74,1.74-1.74h14.04c.96,0,1.74.78,1.74,1.74s-.78,1.74-1.74,1.74Z" style="fill:#e9f0f8;"/><path d="M172.66,60.3h-10.08c-.96,0-1.74-.78-1.74-1.74s.78-1.74,1.74-1.74h10.08c.96,0,1.74.78,1.74,1.74s-.78,1.74-1.74,1.74Z" style="fill:#e9f0f8;"/><path d="M184.81,69.04h-10.08c-.96,0-1.74-.78-1.74-1.74s.78-1.74,1.74-1.74h10.08c.96,0,1.74.78,1.74,1.74s-.78,1.74-1.74,1.74Z" style="fill:#e9f0f8;"/><path d="M185.73,101.12h-10.08c-.96,0-1.74-.78-1.74-1.74s.78-1.74,1.74-1.74h10.08c.96,0,1.74.78,1.74,1.74s-.78,1.74-1.74,1.74Z" style="fill:#e9f0f8;"/><path d="M161.04,85.97h-17.12c-1.12,0-2.03-.91-2.03-2.03s.91-2.03,2.03-2.03h17.12c1.12,0,2.03.91,2.03,2.03s-.91,2.03-2.03,2.03Z" style="fill:#879db4;"/><path d="M166.11,92.65h-22.22c-.96,0-1.74-.78-1.74-1.74s.78-1.74,1.74-1.74h22.22c.96,0,1.74.78,1.74,1.74s-.78,1.74-1.74,1.74Z" style="fill:#e9f0f8;"/><path d="M90.8,72.17c5.52-4.7,7.54-12.15,1.9-17.27-1.37-1.24-3.62-1.06-6.33-1.89-7.91-4.23-21.36-3.49-25.52,5.61-5.08,11.11-3.4,17.42-8.74,26.41-2.22,3.74-7.94,7.68-7.06,11.8.88,4.12,2.32,4.37.88,6.42-1.44,2.05-3.05,4.4-2.51,9.11.53,4.71,3.93,11.42,9.97,12.81,6.04,1.39,33.01-.56,36.44-2.87,3.97-2.67,2.89-6.87,2.07-8.45-.82-1.59-2.63-3.08-2.44-4.91.2-1.83,4.91-2.44,4.99-8.33.08-5.9-2.55-9.06-2.98-11.84-.43-2.79-9.14-14.93-.68-16.6Z" style="fill:#fff; stroke:#879db4; stroke-miterlimit:10; stroke-width:.75px;"/><path d="M81.44,107.47c13.42,6.02,11.99,20.3,17.27,42.29,0,0,13.56-2.15,16.66-2.15,7.49,0,14.47,3.1,12.33,5.61-4.05,4.75-26.71,13.76-32.65,12.98-10.13-1.34-14.77-21.87-15.05-26.87-.2-3.54,4.81-29.8,1.44-31.87Z" style="fill:#fff; stroke:#879db4; stroke-miterlimit:10; stroke-width:.75px;"/><path d="M93.66,180c-.01-1.16-1.1-8.7-1.07-9.84.16-7.28,1.01-13.97,1.62-16.18,1.1-3.99,3.17-4.88,4.36-9.26,1.58-5.84-3.58-9.42-4.72-18.67-.48-3.93-.02-12.28-9.83-17.47-5.93-2.25-26.07-.72-26.07-.72-8.03,3.67-11.68,7.91-11.68,13.88s.55,18.36,3.24,35.04c.84,5.21,2.98,17.23,4.3,23.22" style="fill:#fff; stroke:#879db4; stroke-miterlimit:10; stroke-width:.75px;"/><path d="M65.79,103.6c.31-.99,1.24-14.01,1.47-18.7l13.4,8.08c-1.17.35-2.58,4.76-2.74,10.98-.04,1.53,5.74,4.03,6.3,4.82,2.32,3.24,1.5,13.84-7.45,12.76-8.95-1.07-14.99-12.23-18.81-13.69,2.06-1.3,7.45-3.03,7.83-4.26Z" style="fill:#fff; stroke:#879db4; stroke-miterlimit:10; stroke-width:.75px;"/><path d="M86.27,56.4c-2.59,8.29-14.23,6.91-16.28,12.59-.19.52-.25,1.07-.25,1.62,0,2.54-.23,4.42-.54,5.94-.11-.22-.22-.45-.33-.68-2.14-4.27-6.23-3.17-6.63.54-.31,2.84,2.24,6.64,5.13,7.13-1.05,2.68,6.36,8.55,6.36,8.55,1.58,1.77,3.57,3.16,5.83,3.9.57.19,1.16.35,1.76.45,4.36.71,7.06-.78,8.68-3.92,1.82-3.55,4.11-7.88,4.18-9.85.2-6.05-.78-4.76.31-11.01.43-6.62-1.44-12.82-8.21-15.26Z" style="fill:#fff; stroke:#879db4; stroke-miterlimit:10; stroke-width:.75px;"/><path d="M82.89,159.3c2.69.19,4.95.66,6.67-.92,1.73-1.58,1.92-10.17.19-11.01-1.73-.83-5-.9-5.96,1.67-.96,2.56-.9,10.26-.9,10.26Z" style="fill:#fff; stroke:#879db4; stroke-miterlimit:10; stroke-width:.75px;"/><path d="M85.09,147.41c.21-.42.58-.73.99-.94,2.92-1.48,9.05-8.14,10.35-9.29,1.35-1.2,8.78-5.54,9.5-5.32.72.22,1.22.89,1.21,1.92-.01,1.03-7.17,4.47-8.42,5.84,2.21,1.17,3.98,5.08,4.49,5.87.51.78-.15,4.05-.79,4.47-.64.43-4.72,2.25-5.05,1.97-.33-.28-.64-1.35-.64-1.35,0,0-8.27,4.9-11.41,4.43-2.64-.4-1.34-5.42-.23-7.6Z" style="fill:#fff; stroke:#879db4; stroke-miterlimit:10; stroke-width:.75px;"/><path d="M109.49,122.46l32.1-.03c1.57.08,1.94,1.68,1.62,2.45l-13.22,28.13c-.33.78-1.29,1.31-2.14,1.2l-30.4.26c-1.84-.25-2.46-1.45-1.99-2.58l11.89-28.24c.33-.78,1-1.19,2.14-1.2Z" style="fill:#879db4;"/><path d="M110.5,123.34l31.75-.08c1,.04,1.29.84.96,1.62l-11.87,28.31c-.33.78-1.29,1.31-2.14,1.2l-31.75.08c-.86-.12-1.29-.84-.96-1.62l11.87-28.31c.33-.78,1.03-1.18,2.14-1.2Z" style="fill:#fff; stroke:#879db4; stroke-miterlimit:10; stroke-width:.75px;"/><path d="M109.49,127.13c.32-.85.95-1.57,1.4-1.59.46-.03.57.65.25,1.5-.32.85-.95,1.57-1.4,1.59-.46.03-.57-.65-.25-1.5Z" style="fill:#fff; stroke:#879db4; stroke-miterlimit:10; stroke-width:.75px;"/><path d="M120.11,138.3c.63-1.68,1.86-3.08,2.76-3.13.9-.05,1.12,1.27.5,2.95-.63,1.68-1.86,3.08-2.76,3.13-.9.05-1.12-1.27-.5-2.95Z" style="fill:#879db4;"/><path d="M139.41,142.43c-.07-.25-.15-.5-.27-.77,0-.01-.01-.02-.02-.04-.16-.33-.49-.74-.85-1.15-.66-.75-1.42-1.45-1.42-1.45l-1.88-2.06s-.76-.81-1.21-1.13c-1.36-.97-3.44-2.3-3.81-2.26-.43.04-1.62,1.21-.82,2.2.79.98,4.33,3.59,4.74,5.03,0,0-4.51-4.15-6.91-4.68-1.01-.22-2.14,1.47-1.06,2.76.07.23-.75.98-.56,1.87.42,2.01,1.29,3.01,1.49,4.11-.65.57-.66,1.13.09,2.1.62.79,2.91,3.29,3.79,4.21.16.17.33.32.49.45.11.08.46.76.47.77.67.56,5.34-.77,6.73-3.63,1.05-2.14,1.52-4.46,1-6.35Z" style="fill:#fff; stroke:#879db4; stroke-miterlimit:10; stroke-width:.75px;"/><path d="M47.31,116.75c-4.47,12.11,1.82,40.29,4.84,47.96,1.68,4.26,4.43,9.3,8.07,8.9,10.2-1.12,23.57-10.53,29.35-15.23-2.65,2.38-5.61-9.47-3.02-12.22-8.14,5.02-18.84,6.7-21.31,9.76,0,0-1.05-10.25-2.89-22.81l-1.36-2.31" style="fill:#fff; stroke:#879db4; stroke-miterlimit:10; stroke-width:.75px;"/><path d="M58.95,159.67c.49-1.03,1.22-1.9,2.17-2.54.45-.31.94-.55,1.45-.72.57-.2,1.2-.28,1.69-.6-1.23.16-2.42.46-3.58.91-.43.17-.61-.52-.19-.69,1.48-.57,3.01-.9,4.59-1.01.21-.01.32.12.34.28.05.09.06.21-.01.33-.67,1.11-1.87,1.13-2.96,1.59-1.3.54-2.28,1.55-2.88,2.81-.2.41-.81.05-.62-.36Z" style="fill:#879db4;"/><rect x="128.1" y="45.54" width="9.25" height="9.25" rx="2.06" ry="2.06" style="fill:#e9f0f8;"/><path d="M132.79,53.47c-.98-.39-1.73-1.27-2.28-1.89-.88-.98-1.44-1.78-1.65-2l1.42-.62c.35.36.33.76,1.21,1.74.56.62.82.87,1.11,1.07.34.23.81.14,1.03-.21.64-1.03,1.57-3,2.15-4.17,1.73-3.52,2.97-5.88,4.43-6.66l.42,1.59c-1,.53-2.48,3.55-3.56,5.76-1.84,3.76-2.78,5.53-4.25,5.4h-.01Z" style="fill:#879db4;"/><rect x="128.86" y="78.09" width="9.25" height="9.25" rx="2.06" ry="2.06" style="fill:#e9f0f8;"/><g id="b"><path d="M170.24,67.3c.52,0,.95-.42.95-.95s-.42-.95-.95-.95-.95.42-.95.95.42.95.95.95M170.24,67.77c-.63,0-1.89.32-1.89.95v.47h3.78v-.47c0-.63-1.26-.95-1.89-.95" style="fill:#879db4;"/></g><g id="c"><path d="M170.92,99.39c.52,0,.95-.42.95-.95s-.42-.95-.95-.95-.95.42-.95.95.42.95.95.95M170.92,99.86c-.63,0-1.89.32-1.89.95v.47h3.78v-.47c0-.63-1.26-.95-1.89-.95" style="fill:#879db4;"/></g><path d="M133.77,84.89c-.98-.39-1.73-1.27-2.28-1.89-.88-.98-1.44-1.78-1.65-2l1.42-.62c.35.36.33.76,1.21,1.74.56.62.82.87,1.11,1.07.34.23.81.14,1.03-.21.64-1.03,1.57-3,2.15-4.17,1.73-3.52,2.97-5.88,4.43-6.66l.42,1.59c-1,.53-2.48,3.55-3.56,5.76-1.84,3.76-2.78,5.53-4.25,5.4h-.01Z" style="fill:#879db4;"/><g id="d"><path d="M176.71,32.8c0,.39-.46.83-.86.83h-.69v-6.92h1.56v6.09Z" style="fill:#fff;"/><path d="M178.55,26.71h2c.75,0,1.32.15,1.69.47.38.32.56.75.56,1.3,0,.39-.09.7-.26.94s-.39.42-.67.54v.02c.77.22,1.17.76,1.17,1.63,0,.31-.05.59-.14.84-.09.24-.24.46-.44.63-.2.18-.45.31-.76.4s-.68.13-1.12.13h-2.84s0-6.1,0-6.1c0-.32.48-.82.81-.82ZM181.5,31.5c0-.3-.07-.51-.21-.63-.14-.13-.38-.19-.72-.19h-1.33v1.67h1.37c.31,0,.54-.06.68-.18.14-.11.21-.34.21-.67ZM181.33,28.76c0-.28-.07-.47-.2-.58s-.34-.16-.63-.16h-1.25v1.5h1.29c.28,0,.48-.06.61-.18.13-.11.19-.31.19-.59Z" style="fill:#fff;"/><path d="M173.09,28.05c-1.93-.28-2.39.37-2.39,2.13s.47,2.33,2.55,2.12c.65-.07.81.14.93,1.16-.22.12-1.22.29-1.92.27-1.04-.03-1.91-.29-2.41-.88-.51-.59-.75-1.49-.75-2.72,0-2.48,1.11-3.5,3.27-3.5,1.06,0,1.76.32,1.76.32-.18,1.13-.37,1.21-1.04,1.1Z" style="fill:#fff;"/><path d="M186.89,30.67c.51,0,1.28-.82,1.28-1.27v-4.33h-3.97v5.6h2.69Z" style="fill:#fff;"/></g></svg>